<?xml version="1.0" encoding="UTF-8"?>
<svg id="Layer_1" data-name="Layer 1" xmlns="http://www.w3.org/2000/svg" xmlns:xlink="http://www.w3.org/1999/xlink" viewBox="0 0 343 128">
  <defs>
    <linearGradient id="linear-gradient" x1="-15.18" y1="319.72" x2="83.14" y2="310.44" gradientTransform="translate(279.6 -172.38) rotate(-135) scale(1 -1)" gradientUnits="userSpaceOnUse">
      <stop offset="0" stop-color="#fff"/>
      <stop offset=".82" stop-color="#f08c29"/>
    </linearGradient>
    <linearGradient id="linear-gradient-2" x1="265.31" y1="246.6" x2="363.63" y2="237.31" gradientTransform="translate(-79.25 49.38) rotate(45) scale(1 -1)" xlink:href="#linear-gradient"/>
  </defs>
  <g style="opacity: .07;">
    <circle cx="33.24" cy="26.96" r="46" style="fill: url(#linear-gradient);"/>
  </g>
  <path d="M330.72,31.01s-.21,3.22-3,3.5c2.79,.32,3,3.5,3,3.5,0,0,.21-3.22,3-3.5-2.79-.28-3-3.5-3-3.5Z" style="fill: #ffd08b;"/>
  <path d="M254.19,105.87s-.35,5.07-5,5.5c4.65,.51,5,5.5,5,5.5,0,0,.35-5.07,5-5.5-4.65-.43-5-5.5-5-5.5Z" style="fill: #ffd08b;"/>
  <g style="opacity: .07;">
    <circle cx="313.73" cy="100.09" r="46" style="fill: url(#linear-gradient-2);"/>
  </g>
</svg>