<svg width="17" height="16" viewBox="0 0 17 16" fill="none" xmlns="http://www.w3.org/2000/svg">
<path d="M3.83333 12.6667H4.78333L11.3 6.15L10.35 5.2L3.83333 11.7167V12.6667ZM2.5 14V11.1667L11.3 2.38333C11.4333 2.26111 11.5806 2.16667 11.7417 2.1C11.9028 2.03333 12.0722 2 12.25 2C12.4278 2 12.6 2.03333 12.7667 2.1C12.9333 2.16667 13.0778 2.26667 13.2 2.4L14.1167 3.33333C14.25 3.45556 14.3472 3.6 14.4083 3.76667C14.4694 3.93333 14.5 4.1 14.5 4.26667C14.5 4.44444 14.4694 4.61389 14.4083 4.775C14.3472 4.93611 14.25 5.08333 14.1167 5.21667L5.33333 14H2.5ZM10.8167 5.68333L10.35 5.2L11.3 6.15L10.8167 5.68333Z" fill="white"/>
</svg>
