<svg width="24" height="24" viewBox="0 0 24 24" fill="none" xmlns="http://www.w3.org/2000/svg">
<g clip-path="url(#clip0_394_3867)">
<path fill-rule="evenodd" clip-rule="evenodd" d="M12.0134 16.6878C8.20548 16.7575 8.39251 19.0245 6.1876 20.158C3.9827 21.2915 2.21434 20.2475 2.65121 18.9648C2.65121 18.9648 4.23226 19.5167 5.02271 18.8604C5.81317 18.2042 5.41168 16.0634 8.45504 15.4004L12.0134 16.6878Z" fill="#E0ECEE"/>
<path d="M4.36639 20.921C3.57453 20.921 2.91697 20.6368 2.56241 20.1412C2.29756 19.7715 2.23555 19.3219 2.38785 18.8751C2.41152 18.8049 2.46261 18.7472 2.52927 18.7146C2.59588 18.6819 2.67256 18.6774 2.74302 18.7018C2.74874 18.7037 3.33092 18.9033 3.93191 18.9033C4.33217 18.9033 4.63949 18.8169 4.84508 18.6461C5.03028 18.4923 5.14855 18.1849 5.28561 17.8289C5.64402 16.897 6.13461 15.621 8.396 15.1284C8.44714 15.1169 8.50044 15.1206 8.54989 15.1385L12.1081 16.4259C12.2346 16.4716 12.3102 16.6008 12.2881 16.7333C12.2661 16.8657 12.1527 16.9637 12.0186 16.9662C9.72078 17.0082 8.9991 17.8444 8.16317 18.8126C7.67286 19.3808 7.16572 19.9683 6.31513 20.4056C5.65916 20.7429 4.98528 20.921 4.36639 20.921ZM2.86395 19.3165C2.85636 19.4962 2.90694 19.666 3.01513 19.8171C3.26042 20.1596 3.76541 20.3641 4.36634 20.3641C4.89716 20.3641 5.48291 20.2072 6.0605 19.9102C6.81458 19.5226 7.26491 19.001 7.74158 18.4488C8.43041 17.6506 9.13878 16.8303 10.7546 16.5285L8.43692 15.69C6.53586 16.1297 6.13119 17.1815 5.80517 18.0288C5.64716 18.4399 5.49791 18.8279 5.20067 19.0747C4.89256 19.3306 4.46563 19.4603 3.93181 19.4603C3.51875 19.4603 3.12364 19.3823 2.86395 19.3165Z" fill="#124D73"/>
<path fill-rule="evenodd" clip-rule="evenodd" d="M12.0132 16.6879C15.8211 16.7576 15.634 19.0246 17.8389 20.1581C20.0439 21.2916 21.8122 20.2476 21.3753 18.9649C21.3753 18.9649 19.7943 19.5168 19.0039 18.8605C18.2134 18.2043 18.6149 16.0636 15.5716 15.4005L12.0132 16.6879Z" fill="#E0ECEE"/>
<path d="M19.6606 20.921C19.0417 20.921 18.3679 20.7428 17.7119 20.4056C16.8613 19.9685 16.3542 19.3809 15.8636 18.8127C15.0277 17.8445 14.306 17.0083 12.0081 16.9663C11.8741 16.9639 11.7607 16.8658 11.7387 16.7334C11.7166 16.601 11.7922 16.4716 11.9187 16.426L15.4769 15.1387C15.5261 15.1207 15.5794 15.1171 15.6308 15.1285C17.8922 15.6211 18.383 16.8973 18.7414 17.8292C18.8782 18.1852 18.9965 18.4924 19.1817 18.6462C19.3873 18.817 19.6945 18.9035 20.0948 18.9035C20.6993 18.9035 21.2777 18.704 21.2837 18.702C21.3536 18.6775 21.4303 18.682 21.4972 18.7146C21.5641 18.7471 21.6149 18.8049 21.6389 18.8752C21.7911 19.3219 21.7291 19.7715 21.4645 20.1414C21.11 20.6369 20.4522 20.921 19.6606 20.921ZM13.2721 16.5285C14.8879 16.8303 15.5963 17.6506 16.2851 18.4488C16.7618 19.0011 17.2121 19.5226 17.9665 19.9103C18.5441 20.2073 19.1298 20.3641 19.6606 20.3641C20.2613 20.3641 20.7666 20.1596 21.0118 19.817C21.1198 19.6661 21.1707 19.4963 21.1628 19.3165C20.9034 19.3824 20.508 19.4604 20.0949 19.4604C19.5613 19.4605 19.1344 19.3307 18.826 19.0748C18.5288 18.828 18.3798 18.44 18.2215 18.0292C17.8957 17.1817 17.4911 16.1297 15.5898 15.6901L13.2721 16.5285Z" fill="#124D73"/>
<path fill-rule="evenodd" clip-rule="evenodd" d="M1.95605 5.93115L12.0132 7.96004V17.1961L1.95605 15.1672V5.93115Z" fill="#E0ECEE"/>
<path d="M12.0133 17.4746C11.9951 17.4746 11.9766 17.4728 11.9581 17.4691L1.901 15.4403C1.7713 15.414 1.67773 15.2998 1.67773 15.1672V5.93114C1.67773 5.84766 1.71528 5.76854 1.77973 5.71561C1.84447 5.66288 1.92819 5.6415 2.01144 5.6581L12.0686 7.68699C12.1983 7.71324 12.2919 7.82743 12.2919 7.95999V17.1961C12.2919 17.2796 12.2543 17.3587 12.1899 17.4116C12.1395 17.4527 12.077 17.4746 12.0133 17.4746ZM2.23466 14.9393L11.7349 16.8558V8.1879L2.23466 6.27146V14.9393Z" fill="#124D73"/>
<path fill-rule="evenodd" clip-rule="evenodd" d="M22.0704 5.93115L12.0132 7.96004V17.1961L22.0704 15.1672V5.93115Z" fill="#E0ECEE"/>
<path d="M12.0133 17.4745C11.9497 17.4745 11.8871 17.4527 11.8368 17.4116C11.7724 17.3587 11.7349 17.2796 11.7349 17.1961V7.96C11.7349 7.82743 11.8284 7.7132 11.9581 7.687L22.0153 5.65811C22.0982 5.64123 22.1823 5.66275 22.247 5.71562C22.3115 5.7685 22.349 5.84767 22.349 5.93115V15.1672C22.349 15.2998 22.2554 15.414 22.1257 15.4403L12.0686 17.4692C12.0501 17.4728 12.0315 17.4745 12.0133 17.4745ZM12.2918 8.18786V16.8557L21.792 14.9393V6.27142L12.2918 8.18786Z" fill="#124D73"/>
<path fill-rule="evenodd" clip-rule="evenodd" d="M3.31836 4.28772L10.8903 6.31661V15.5527L3.31836 13.5238V4.28772Z" fill="#DEA56E"/>
<path d="M10.8902 15.8311C10.866 15.8311 10.8418 15.8279 10.8181 15.8216L3.24643 13.7927C3.1246 13.76 3.04004 13.6497 3.04004 13.5237V4.28763C3.04004 4.20101 3.0803 4.11944 3.14907 4.06666C3.2176 4.01393 3.3076 3.99626 3.39057 4.01866L10.9623 6.04755C11.0841 6.08018 11.1687 6.19048 11.1687 6.31648V15.5526C11.1687 15.6392 11.1284 15.7208 11.0596 15.7735C11.0107 15.8112 10.9509 15.8311 10.8902 15.8311ZM3.59696 13.3099L10.6118 15.1897V6.53027L3.59696 4.65054V13.3099Z" fill="#124D73"/>
<path fill-rule="evenodd" clip-rule="evenodd" d="M12.0134 16.3018H12.0134C12.6314 16.3018 13.1368 15.7961 13.1368 15.1784V8.4495C13.1368 7.83169 12.6314 7.32605 12.0134 7.32605H12.0134C11.3955 7.32605 10.8901 7.83169 10.8901 8.4495V15.1784C10.8901 15.7962 11.3955 16.3018 12.0134 16.3018Z" fill="#DEA56E"/>
<path d="M12.0131 16.5803C11.24 16.5803 10.6113 15.9515 10.6113 15.1785V8.44954C10.6113 7.67644 11.24 7.04761 12.0131 7.04761C12.7862 7.04761 13.4149 7.67644 13.4149 8.44954V15.1785C13.415 15.9515 12.7862 16.5803 12.0131 16.5803ZM12.0131 7.60453C11.5473 7.60453 11.1682 7.98361 11.1682 8.44954V15.1785C11.1682 15.6444 11.5473 16.0234 12.0131 16.0234C12.479 16.0234 12.858 15.6443 12.858 15.1785V8.44954C12.858 7.98361 12.479 7.60453 12.0131 7.60453Z" fill="#124D73"/>
<path fill-rule="evenodd" clip-rule="evenodd" d="M4.44141 3.49719C7.16934 3.49719 9.98766 4.05083 12.0133 5.52608V14.7621C9.80545 13.4721 7.13616 12.7333 4.44141 12.7333V3.49719Z" fill="white"/>
<path d="M12.0135 15.0406C11.9648 15.0406 11.9164 15.028 11.8729 15.0026C9.67596 13.7188 7.03657 13.0117 4.44152 13.0117C4.28763 13.0117 4.16309 12.887 4.16309 12.7333V3.49719C4.16309 3.34339 4.28763 3.21875 4.44152 3.21875C6.66621 3.21875 9.81438 3.58002 12.1775 5.30094C12.2495 5.35344 12.292 5.43706 12.292 5.52608V14.7621C12.292 14.8619 12.2387 14.954 12.1522 15.0036C12.1092 15.0283 12.0613 15.0406 12.0135 15.0406ZM4.71996 12.4574C7.15891 12.5031 9.6221 13.1461 11.735 14.2864V5.66937C9.60199 4.17458 6.80243 3.80666 4.71996 3.77755V12.4574Z" fill="#124D73"/>
<path fill-rule="evenodd" clip-rule="evenodd" d="M20.7087 4.28772L13.1367 6.31661V15.5527L20.7087 13.5238V4.28772Z" fill="#DEA56E"/>
<path d="M13.1368 15.8312C13.0762 15.8312 13.0164 15.8113 12.9674 15.7736C12.8986 15.7209 12.8584 15.6393 12.8584 15.5527V6.31661C12.8584 6.19056 12.943 6.08031 13.0648 6.04768L20.6367 4.01879C20.7197 3.99611 20.8097 4.01401 20.8782 4.06679C20.947 4.11953 20.9872 4.20114 20.9872 4.28776V13.5238C20.9872 13.6499 20.9027 13.7601 20.7808 13.7927L13.2089 15.8216C13.1853 15.828 13.1611 15.8312 13.1368 15.8312ZM13.4153 6.53036V15.1898L20.4304 13.3101V4.65062L13.4153 6.53036Z" fill="#124D73"/>
<path fill-rule="evenodd" clip-rule="evenodd" d="M19.5856 3.49719C16.8576 3.49719 14.0393 4.05083 12.0137 5.52608V14.7621C14.2215 13.4721 16.8908 12.7333 19.5856 12.7333V3.49719Z" fill="white"/>
<path d="M12.0133 15.0406C11.9655 15.0406 11.9176 15.0284 11.8746 15.0036C11.7882 14.954 11.7349 14.8619 11.7349 14.7621V5.52608C11.7349 5.43702 11.7773 5.35339 11.8493 5.30094C14.2124 3.58002 17.3606 3.21875 19.5853 3.21875C19.7392 3.21875 19.8637 3.34344 19.8637 3.49719V12.7333C19.8637 12.887 19.7392 13.0117 19.5853 13.0117C16.9903 13.0117 14.3509 13.7187 12.1539 15.0025C12.1104 15.028 12.0621 15.0406 12.0133 15.0406ZM12.2918 5.66937V14.2864C14.4048 13.1461 16.8679 12.503 19.3069 12.4574V3.77755C17.2244 3.80666 14.4249 4.17458 12.2918 5.66937Z" fill="#124D73"/>
<path d="M1.91223 3.88082C1.75834 3.88082 1.63379 3.75613 1.63379 3.60238V2.5213C1.63379 2.3675 1.75834 2.24286 1.91223 2.24286C2.06616 2.24286 2.19066 2.36755 2.19066 2.5213V3.60238C2.19071 3.75613 2.06616 3.88082 1.91223 3.88082ZM1.91223 1.69447C1.75834 1.69447 1.63379 1.56978 1.63379 1.41603V0.334956C1.63379 0.181159 1.75834 0.0565186 1.91223 0.0565186C2.06616 0.0565186 2.19066 0.181206 2.19066 0.334956V1.41603C2.19071 1.56983 2.06616 1.69447 1.91223 1.69447Z" fill="#124D73"/>
<path d="M3.546 2.24706H2.46478C2.31084 2.24706 2.18634 2.12237 2.18634 1.96862C2.18634 1.81483 2.31089 1.69019 2.46478 1.69019H3.546C3.69989 1.69019 3.82444 1.81487 3.82444 1.96862C3.82448 2.12237 3.69994 2.24706 3.546 2.24706ZM1.35938 2.24706H0.278437C0.124547 2.24706 0 2.12237 0 1.96862C0 1.81483 0.124547 1.69019 0.278437 1.69019H1.35938C1.51331 1.69019 1.63781 1.81487 1.63781 1.96862C1.63786 2.12237 1.51331 2.24706 1.35938 2.24706Z" fill="#124D73"/>
<path d="M12.0133 23.9433C11.8594 23.9433 11.7349 23.8186 11.7349 23.6649V22.5838C11.7349 22.43 11.8594 22.3054 12.0133 22.3054C12.1672 22.3054 12.2917 22.43 12.2917 22.5838V23.6649C12.2918 23.8186 12.1672 23.9433 12.0133 23.9433ZM12.0133 21.757C11.8594 21.757 11.7349 21.6323 11.7349 21.4785V20.3975C11.7349 20.2437 11.8594 20.119 12.0133 20.119C12.1672 20.119 12.2917 20.2437 12.2917 20.3975V21.4785C12.2918 21.6323 12.1672 21.757 12.0133 21.757Z" fill="#124D73"/>
<path d="M13.6471 22.3096H12.5661C12.4122 22.3096 12.2877 22.1849 12.2877 22.0311C12.2877 21.8773 12.4122 21.7527 12.5661 21.7527H13.6471C13.801 21.7527 13.9255 21.8774 13.9255 22.0311C13.9256 22.1849 13.801 22.3096 13.6471 22.3096ZM11.4607 22.3096H10.3795C10.2256 22.3096 10.1011 22.1849 10.1011 22.0311C10.1011 21.8773 10.2256 21.7527 10.3795 21.7527H11.4607C11.6146 21.7527 11.7392 21.8774 11.7392 22.0311C11.7392 22.1849 11.6147 22.3096 11.4607 22.3096Z" fill="#124D73"/>
<path d="M22.088 3.90767C21.9341 3.90767 21.8096 3.78298 21.8096 3.62923V2.54816C21.8096 2.39436 21.9341 2.26972 22.088 2.26972C22.2419 2.26972 22.3664 2.39441 22.3664 2.54816V3.62923C22.3664 3.78298 22.2419 3.90767 22.088 3.90767ZM22.088 1.72133C21.9341 1.72133 21.8096 1.59664 21.8096 1.44289V0.361812C21.8096 0.208015 21.9341 0.083374 22.088 0.083374C22.2419 0.083374 22.3664 0.208062 22.3664 0.361812V1.44289C22.3664 1.59664 22.2419 1.72133 22.088 1.72133Z" fill="#124D73"/>
<path d="M23.7218 2.27392H22.6406C22.4867 2.27392 22.3621 2.14923 22.3621 1.99548C22.3621 1.84168 22.4867 1.71704 22.6406 1.71704H23.7218C23.8757 1.71704 24.0002 1.84173 24.0002 1.99548C24.0002 2.14923 23.8757 2.27392 23.7218 2.27392ZM21.5354 2.27392H20.4542C20.3003 2.27392 20.1758 2.14923 20.1758 1.99548C20.1758 1.84168 20.3003 1.71704 20.4542 1.71704H21.5354C21.6894 1.71704 21.8139 1.84173 21.8139 1.99548C21.8139 2.14923 21.6893 2.27392 21.5354 2.27392Z" fill="#124D73"/>
</g>
<defs>
<clipPath id="clip0_394_3867">
<rect width="24" height="24" fill="white"/>
</clipPath>
</defs>
</svg>
