<svg width="40" height="40" viewBox="0 0 40 40" fill="none" xmlns="http://www.w3.org/2000/svg">
<g clip-path="url(#clip0_394_3093)">
<rect width="40" height="40" rx="20" fill="#FFF1E0"/>
<path d="M16.2354 30.2628H23.7651" stroke="#124D73" stroke-width="0.7" stroke-miterlimit="10" stroke-linecap="round" stroke-linejoin="round"/>
<path d="M24.4833 21.0717V16.6079C24.4833 16.4784 24.3783 16.3735 24.2489 16.3735H23.8118C23.171 16.3735 22.6103 15.9861 22.3836 15.3865C22.1571 14.7876 22.3209 14.1271 22.8006 13.7038C22.9712 13.5532 23.0691 13.2201 23.0691 12.79C23.0691 12.0271 22.2181 11.4245 20.9199 10.5922C20.6603 10.4257 20.3964 10.2565 20.1392 10.0802C20.0582 10.0246 19.952 10.025 19.8713 10.081C19.5898 10.2764 19.301 10.4616 19.0174 10.6436C17.7191 11.4764 16.9308 12.0365 16.9308 12.79C16.9308 13.2201 17.0287 13.5532 17.1992 13.7037C17.679 14.1271 17.8427 14.7876 17.6163 15.3865C17.3895 15.9861 16.8289 16.3735 16.188 16.3735H15.751C15.6216 16.3735 15.5166 16.4784 15.5166 16.6079V18.1718" stroke="#124D73" stroke-width="0.7" stroke-miterlimit="10" stroke-linecap="round" stroke-linejoin="round"/>
<path d="M15.5166 19.8124V21.0717" stroke="#124D73" stroke-width="0.7" stroke-miterlimit="10" stroke-linecap="round" stroke-linejoin="round"/>
<path d="M20 12.1719V12.4008" stroke="#124D73" stroke-width="0.7" stroke-miterlimit="10" stroke-linecap="round" stroke-linejoin="round"/>
<path d="M20 13.5836V13.8125" stroke="#124D73" stroke-width="0.7" stroke-miterlimit="10" stroke-linecap="round" stroke-linejoin="round"/>
<path d="M19.1797 12.9922H19.4086" stroke="#124D73" stroke-width="0.7" stroke-miterlimit="10" stroke-linecap="round" stroke-linejoin="round"/>
<path d="M20.5913 12.9922H20.8202" stroke="#124D73" stroke-width="0.7" stroke-miterlimit="10" stroke-linecap="round" stroke-linejoin="round"/>
<circle cx="21.0312" cy="15.2188" r="0.351562" fill="#124D73"/>
<circle cx="18.5469" cy="16.6719" r="0.351562" fill="#124D73"/>
<circle cx="21.1719" cy="17.75" r="0.351562" fill="#124D73"/>
<path d="M10.0684 31.6484H29.9311" stroke="#124D73" stroke-width="0.7" stroke-miterlimit="10" stroke-linecap="round" stroke-linejoin="round"/>
<path d="M12.9405 30.7157L12.355 31.6484H15.0877L18.0634 28.0544L15.5293 26.5914L13.8133 29.3251" stroke="#124D73" stroke-width="0.7" stroke-miterlimit="10" stroke-linecap="round" stroke-linejoin="round"/>
<path d="M21.936 28.0544L24.9118 31.6484H27.6444L24.4701 26.5914L21.936 28.0544Z" stroke="#124D73" stroke-width="0.7" stroke-miterlimit="10" stroke-linecap="round" stroke-linejoin="round"/>
<circle cx="24.0312" cy="28.4844" r="0.351562" fill="#124D73"/>
<circle cx="15.9688" cy="28.4844" r="0.351562" fill="#124D73"/>
<path d="M28.0226 21.2339L27.1568 19.794C27.091 19.6845 26.9495 19.6479 26.8388 19.7118L20.9675 23.1015C20.3688 23.4472 20 24.086 20 24.7773V25.7909" stroke="#124D73" stroke-width="0.7" stroke-miterlimit="10" stroke-linecap="round" stroke-linejoin="round"/>
<path d="M19.9996 25.7909V24.7773C19.9996 24.0861 19.6308 23.4472 19.0321 23.1016L13.1608 19.7119C13.0501 19.6479 12.9086 19.6845 12.8428 19.7941L11.9771 21.2339" stroke="#124D73" stroke-width="0.7" stroke-miterlimit="10" stroke-linecap="round" stroke-linejoin="round"/>
<path d="M29.3399 21.9176L28.8987 21.0253C28.8367 20.9001 28.6819 20.8532 28.5609 20.923L20.2419 25.726C20.0922 25.8125 19.9078 25.8125 19.7581 25.726L11.4391 20.9231C11.3181 20.8532 11.1633 20.9001 11.1014 21.0253L10.6602 21.9176" stroke="#124D73" stroke-width="0.7" stroke-miterlimit="10" stroke-linecap="round" stroke-linejoin="round"/>
<path d="M19.7555 28.8125H20.2441C20.4924 28.8125 20.7363 28.7471 20.9514 28.623L30.3756 23.1819C30.4959 23.1124 30.5416 22.9615 30.4801 22.837L30.0017 21.8695C29.932 21.7287 29.758 21.6761 29.6221 21.7546L20.2717 27.1531C20.1034 27.2502 19.8962 27.2502 19.728 27.1531L10.3775 21.7546C10.2415 21.6761 10.0675 21.7287 9.99794 21.8695L9.51953 22.837C9.45794 22.9615 9.50364 23.1124 9.62397 23.1819L19.0482 28.623C19.2633 28.7471 19.5072 28.8125 19.7555 28.8125Z" stroke="#124D73" stroke-width="0.7" stroke-miterlimit="10" stroke-linecap="round" stroke-linejoin="round"/>
<path d="M14.1309 25.784V28.8192" stroke="#124D73" stroke-width="0.7" stroke-miterlimit="10" stroke-linecap="round" stroke-linejoin="round"/>
<path d="M25.8687 28.8192V25.784" stroke="#124D73" stroke-width="0.7" stroke-miterlimit="10" stroke-linecap="round" stroke-linejoin="round"/>
<path d="M25.8685 20.2718V16.402C25.8685 15.621 25.2353 14.9879 24.4543 14.9879H23.8115C23.6824 14.9879 23.6204 14.8279 23.7172 14.7425C24.1871 14.3277 24.4543 13.6584 24.4543 12.79C24.4543 12.3393 24.3367 11.9423 24.1376 11.5847" stroke="#124D73" stroke-width="0.7" stroke-miterlimit="10" stroke-linecap="round" stroke-linejoin="round"/>
<path d="M23.0346 10.3675C22.1539 9.66784 21.0475 9.10347 20.2769 8.45322C20.1162 8.31761 19.8834 8.31747 19.7235 8.45406C18.201 9.75442 15.545 10.6203 15.545 12.79C15.545 13.6584 15.8122 14.3278 16.2822 14.7425C16.379 14.8279 16.3169 14.9879 16.1878 14.9879H15.545C14.764 14.9879 14.1309 15.621 14.1309 16.402V20.2718" stroke="#124D73" stroke-width="0.7" stroke-miterlimit="10" stroke-linecap="round" stroke-linejoin="round"/>
</g>
<defs>
<clipPath id="clip0_394_3093">
<rect width="40" height="40" rx="20" fill="white"/>
</clipPath>
</defs>
</svg>
