<?xml version="1.0" encoding="UTF-8"?><svg id="Layer_1" xmlns="http://www.w3.org/2000/svg" viewBox="0 0 24 24"><path d="M8.24,22.26h7.53" style="fill:none; stroke:#114e74; stroke-linecap:round; stroke-linejoin:round; stroke-width:.7px;"/><path d="M16.48,13.07v-4.46c0-.13-.1-.23-.23-.23h-.44c-.64,0-1.2-.39-1.43-.99-.23-.6-.06-1.26,.42-1.68,.17-.15,.27-.48,.27-.91,0-.76-.85-1.37-2.15-2.2-.26-.17-.52-.34-.78-.51-.08-.06-.19-.06-.27,0-.28,.2-.57,.38-.85,.56-1.3,.83-2.09,1.39-2.09,2.15,0,.43,.1,.76,.27,.91,.48,.42,.64,1.08,.42,1.68-.23,.6-.79,.99-1.43,.99h-.44c-.13,0-.23,.1-.23,.23v1.56" style="fill:none; stroke:#114e74; stroke-linecap:round; stroke-linejoin:round; stroke-width:.7px;"/><path d="M7.52,11.81v1.26" style="fill:none; stroke:#114e74; stroke-linecap:round; stroke-linejoin:round; stroke-width:.7px;"/><path d="M12,4.17v.23" style="fill:none; stroke:#114e74; stroke-linecap:round; stroke-linejoin:round; stroke-width:.7px;"/><path d="M12,5.58v.23" style="fill:none; stroke:#114e74; stroke-linecap:round; stroke-linejoin:round; stroke-width:.7px;"/><path d="M11.18,4.99h.23" style="fill:none; stroke:#114e74; stroke-linecap:round; stroke-linejoin:round; stroke-width:.7px;"/><path d="M12.59,4.99h.23" style="fill:none; stroke:#114e74; stroke-linecap:round; stroke-linejoin:round; stroke-width:.7px;"/><circle cx="13.03" cy="7.22" r=".35" style="fill:#114e74;"/><circle cx="10.55" cy="8.67" r=".35" style="fill:#114e74;"/><circle cx="13.17" cy="9.75" r=".35" style="fill:#114e74;"/><path d="M2.07,23.65H21.93" style="fill:none; stroke:#114e74; stroke-linecap:round; stroke-linejoin:round; stroke-width:.7px;"/><path d="M4.94,22.72l-.59,.93h2.73l2.98-3.59-2.53-1.46-1.72,2.73" style="fill:none; stroke:#114e74; stroke-linecap:round; stroke-linejoin:round; stroke-width:.7px;"/><path d="M13.94,20.05l2.98,3.59h2.73l-3.17-5.06-2.53,1.46Z" style="fill:none; stroke:#114e74; stroke-linecap:round; stroke-linejoin:round; stroke-width:.7px;"/><circle cx="16.03" cy="20.48" r=".35" style="fill:#114e74;"/><circle cx="7.97" cy="20.48" r=".35" style="fill:#114e74;"/><path d="M20.02,13.23l-.87-1.44c-.07-.11-.21-.15-.32-.08l-5.87,3.39c-.6,.35-.97,.98-.97,1.68v1.01" style="fill:none; stroke:#114e74; stroke-linecap:round; stroke-linejoin:round; stroke-width:.7px;"/><path d="M12,17.79v-1.01c0-.69-.37-1.33-.97-1.68l-5.87-3.39c-.11-.06-.25-.03-.32,.08l-.87,1.44" style="fill:none; stroke:#114e74; stroke-linecap:round; stroke-linejoin:round; stroke-width:.7px;"/><path d="M21.34,13.92l-.44-.89c-.06-.13-.22-.17-.34-.1l-8.32,4.8c-.15,.09-.33,.09-.48,0L3.44,12.92c-.12-.07-.28-.02-.34,.1l-.44,.89" style="fill:none; stroke:#114e74; stroke-linecap:round; stroke-linejoin:round; stroke-width:.7px;"/><path d="M11.76,20.81h.49c.25,0,.49-.07,.71-.19l9.42-5.44c.12-.07,.17-.22,.1-.34l-.48-.97c-.07-.14-.24-.19-.38-.11l-9.35,5.4c-.17,.1-.38,.1-.54,0L2.38,13.75c-.14-.08-.31-.03-.38,.11l-.48,.97c-.06,.12-.02,.28,.1,.34l9.42,5.44c.22,.12,.46,.19,.71,.19Z" style="fill:none; stroke:#114e74; stroke-linecap:round; stroke-linejoin:round; stroke-width:.7px;"/><path d="M6.13,17.78v3.04" style="fill:none; stroke:#114e74; stroke-linecap:round; stroke-linejoin:round; stroke-width:.7px;"/><path d="M17.87,20.82v-3.04" style="fill:none; stroke:#114e74; stroke-linecap:round; stroke-linejoin:round; stroke-width:.7px;"/><path d="M17.87,12.27v-3.87c0-.78-.63-1.41-1.41-1.41h-.64c-.13,0-.19-.16-.09-.25,.47-.41,.74-1.08,.74-1.95,0-.45-.12-.85-.32-1.21" style="fill:none; stroke:#114e74; stroke-linecap:round; stroke-linejoin:round; stroke-width:.7px;"/><path d="M15.03,2.37c-.88-.7-1.99-1.26-2.76-1.91-.16-.14-.39-.14-.55,0-1.52,1.3-4.18,2.17-4.18,4.34,0,.87,.27,1.54,.74,1.95,.1,.09,.03,.25-.09,.25h-.64c-.78,0-1.41,.63-1.41,1.41v3.87" style="fill:none; stroke:#114e74; stroke-linecap:round; stroke-linejoin:round; stroke-width:.7px;"/></svg>