<svg width="207" height="137" viewBox="0 0 207 137" fill="none" xmlns="http://www.w3.org/2000/svg">
<path d="M117.725 136.187C159.717 136.187 193.759 120.825 193.759 101.874C193.759 82.923 159.717 67.5603 117.725 67.5603C75.7332 67.5603 41.6919 82.923 41.6919 101.874C41.6919 120.825 75.7332 136.187 117.725 136.187Z" fill="#27668B"/>
<path d="M186.756 97.3182L161.415 86.598L137.574 77.2937L146.122 88.1293L186.756 97.3182Z" fill="#B97E49"/>
<path d="M111.284 64.4465L67.9489 106.808L53.4961 94.8316L78.3043 61.929L111.284 64.4465Z" fill="#B97E49"/>
<path d="M110.075 64.6098L76.9551 97.7854C76.3563 97.5723 75.6702 97.5216 75.0559 97.4573C74.3211 97.381 73.58 97.3481 72.8408 97.3684C71.5361 97.4042 70.1354 97.6839 69.2389 98.7175C68.8597 99.1549 68.5948 99.6762 68.5349 100.257C68.4631 100.956 68.7178 101.617 68.8968 102.28C69.1072 103.059 69.1598 103.822 69.1873 104.622C69.1965 104.884 69.2264 105.149 69.4107 105.341L67.9478 106.807H72.1711L112.295 65.9502L110.075 64.6098ZM72.1952 102.087C72.0611 101.685 71.9675 101.16 72.1494 100.756C72.243 100.546 72.4167 100.436 72.6261 100.36C72.8953 100.262 73.1737 100.186 73.4536 100.124C73.8975 100.026 74.3457 99.9932 74.794 99.9497L72.3346 102.413C72.2883 102.305 72.2329 102.201 72.1952 102.087ZM75.2933 99.4501C75.274 99.439 75.2629 99.4182 75.2393 99.4129C74.5585 99.2631 73.8188 99.3781 73.1457 99.5313C72.5383 99.6695 71.8285 99.8439 71.5515 100.468C71.3088 101.014 71.3687 101.68 71.5511 102.235C71.6273 102.467 71.7426 102.674 71.8777 102.872L70.064 104.689C70.05 104.573 70.0698 104.379 70.0688 104.303C70.0635 104.009 70.0428 103.715 70.0085 103.423C69.9385 102.832 69.8155 102.258 69.6481 101.687C69.4961 101.167 69.3171 100.626 69.4671 100.085C69.5926 99.6327 69.9019 99.2476 70.2724 98.9678C71.1646 98.2937 72.3732 98.2633 73.4425 98.2831C74.0345 98.2937 74.6275 98.3271 75.2171 98.3817C75.5452 98.4121 75.8854 98.4735 76.2251 98.5175L75.2933 99.4501Z" fill="#FFB16B"/>
<path d="M142.524 87.419L99.1886 129.78L84.7358 117.804L109.545 84.9019L142.524 87.419Z" fill="#B97E49"/>
<path d="M143.07 88.7319L186.101 99.8342L186.756 97.3181L144.811 85.2851L148.266 76.9902L143.07 88.7319Z" fill="#FFB16B"/>
<path d="M143.398 85.6688L201.499 43.7789L131.296 4.68781L88.332 29.6859L128.799 76.7424L143.398 85.6688Z" fill="#B97E49"/>
<path d="M143.398 85.6688C142.695 85.6355 63.7196 92.6735 63.7196 92.6735L0.5 35.1086L85.933 30.4948L143.398 85.6688Z" fill="#B97E49"/>
<path d="M0.5 35.1086V38.7655L63.8552 97.2056L63.7191 92.6735L0.5 35.1086Z" fill="#FFB16B"/>
<path d="M195.635 48.0066C195.593 47.9003 195.514 47.8094 195.357 47.8046C192.25 47.7026 188.663 48.1105 186.194 50.1835C185.138 51.0706 184.405 52.255 183.991 53.5655C183.731 54.3894 183.452 55.6486 183.717 56.5996L179.512 59.6308C176.48 59.2172 173.342 59.0645 170.301 59.2423C166.857 59.4438 163.627 60.6084 160.224 61.0462C158.785 61.2312 157.351 61.4346 156.034 62.0773C154.721 62.7176 153.609 63.7217 152.607 64.7698C150.67 66.7979 149.048 69.2173 148.781 72.077C148.623 73.7624 148.96 75.4484 149.213 77.1082C149.432 78.5482 149.454 79.9196 149.413 81.3325L144.053 85.1972C143.8 84.9266 143.481 84.6884 143.229 84.4569C142.805 84.068 142.381 83.6795 141.957 83.2905C141.086 82.4907 140.214 81.6915 139.343 80.8918C138.506 80.1249 137.662 79.3677 136.802 78.6265C136.412 78.2897 136.021 77.95 135.605 77.647C135.504 77.5745 134.536 76.9236 134.407 76.9328C134.383 76.8965 134.372 76.8729 134.332 76.854C134.287 76.8333 134.227 76.839 134.201 76.8888C134.05 77.1807 134.436 77.4213 134.621 77.5938C135.042 77.9867 135.457 78.3853 135.873 78.783C136.755 79.6258 137.605 80.4999 138.487 81.3426C139.366 82.1805 140.243 83.0189 141.121 83.8568C141.584 84.2984 142.046 84.7391 142.508 85.1803C142.546 85.217 142.585 85.2581 142.623 85.2963C142.575 85.3002 142.528 85.3137 142.48 85.3146C142.576 85.4548 142.664 85.5828 142.764 85.7244L140.498 85.9235C139.586 83.5151 137.782 81.7108 135.691 80.2293C133.083 78.381 130.295 76.5598 127.254 75.5238C124.376 74.5438 121.16 74.279 118.341 75.5952C116.981 76.2297 115.941 77.1314 115.362 78.5346C114.755 80.007 114.272 81.4388 113.38 82.7783C111.833 85.1016 109.751 87.0972 107.526 88.8223L102.493 89.2649C102.436 86.659 103.176 83.8524 101.391 81.6581C99.4011 79.2121 96.3387 79.706 93.588 80.1786C90.4686 80.7144 87.3348 81.4523 84.6424 83.1928C83.2634 84.0844 82.0026 85.146 80.683 86.1192C79.3489 87.1025 77.9767 88.0346 76.5721 88.9141C74.9905 89.9047 73.3717 90.8247 71.7201 91.693C71.5092 91.8037 71.2969 91.9144 71.0856 92.0256L63.7202 92.673L63.8563 97.2051L144.193 88.7039L201.066 47.1064L201.5 43.7784L195.635 48.0066ZM83.7155 90.9151C84.0687 90.6392 84.4291 90.3763 84.7756 90.085C86.1864 88.8982 87.6368 87.7322 89.2619 86.8498C90.6215 86.1115 93.1749 84.828 94.5592 85.9931C95.1894 86.5232 95.642 87.2403 95.8934 88.0216C96.0868 88.6213 96.0796 89.2195 96.1138 89.8254L83.7155 90.9151ZM101.855 89.3205L96.9756 89.7496C97.1662 88.4183 96.4627 86.8793 95.6637 85.9182C95.1358 85.2837 94.4439 84.7102 93.5933 84.6343C92.6215 84.5478 91.5446 84.8889 90.649 85.2277C88.7712 85.938 87.079 87.0721 85.5447 88.3545C84.5483 89.1871 83.6291 90.097 82.7085 91.004L73.005 91.8569C73.4368 91.6216 73.8643 91.3852 74.2812 91.1543C76.9972 89.651 79.5901 87.9404 82.061 86.0607C83.2364 85.1663 84.3949 84.2419 85.6696 83.4905C87.0134 82.698 88.4744 82.1433 89.9735 81.7243C91.4181 81.3214 92.8941 81.0362 94.3691 80.7695C95.9826 80.4781 97.7674 80.138 99.3172 80.8724C102.73 82.4898 101.741 86.2415 101.855 89.3205ZM119.535 87.7665C119.595 87.6771 119.651 87.5843 119.714 87.4978C120.229 86.7846 120.821 86.0984 121.531 85.5717C122.83 84.6087 124.558 84.1771 126.155 84.4163C127.771 84.6589 129.039 85.6432 130.295 86.6169C130.372 86.6768 130.451 86.7387 130.53 86.7996L119.535 87.7665ZM132.148 86.6575C132.093 86.6222 132.034 86.5971 131.98 86.5594C131.264 86.0665 130.597 85.5055 129.895 84.9933C128.552 84.0138 127.083 83.3421 125.397 83.3165C123.784 83.2919 122.22 83.8181 120.981 84.858C120.319 85.4142 119.781 86.1047 119.314 86.8285C119.106 87.1499 118.89 87.4891 118.697 87.8404L107.997 88.7813C109.551 87.7694 111.034 86.6667 112.348 85.3229C113.26 84.3912 114.052 83.3079 114.694 82.1733C115.402 80.9208 115.702 79.4847 116.404 78.2447C117.989 75.4469 122.276 75.2555 125.04 75.8494C128.14 76.5158 130.949 78.2959 133.589 79.9838C135.962 81.5006 138.557 83.362 139.791 85.9863L132.148 86.6575ZM155.122 77.2159C155.384 73.0733 156.056 68.7447 160.314 66.8785C162.264 66.0237 164.441 65.7904 166.541 65.6116C168.234 65.4676 169.932 65.3414 171.63 65.3139L155.122 77.2159ZM172.921 64.3837C170.528 64.36 168.128 64.5746 165.756 64.8398C163.574 65.0844 161.376 65.4637 159.404 66.477C157.427 67.4932 156.043 69.1869 155.286 71.2657C154.537 73.3217 154.478 75.4382 154.63 77.5702L150.149 80.8009C150.514 78.7821 149.911 76.4274 149.778 74.5283C149.675 73.0555 149.707 71.5788 150.192 70.1702C150.673 68.7732 151.51 67.5058 152.455 66.3818C153.388 65.2733 154.434 64.1798 155.651 63.3839C156.946 62.5373 158.397 62.2199 159.907 62.0111C161.441 61.799 162.936 61.5453 164.439 61.1621C166.062 60.748 167.673 60.3498 169.341 60.171C172.424 59.841 175.443 60.1594 178.498 60.3614L172.921 64.3837ZM184.293 56.184C184.277 55.9473 184.257 55.71 184.266 55.4756C184.288 54.8528 184.382 54.2333 184.571 53.6385C184.973 52.372 185.802 51.2451 186.872 50.4633C189.257 48.7208 192.137 48.7372 194.942 48.5072L184.293 56.184Z" fill="#FFB16B"/>
<path d="M141.971 87.3635L133.172 96.0869C133.129 96.0546 133.098 96.0091 133.039 95.999C131.752 95.7704 130.36 95.8826 129.054 95.8618C127.659 95.84 126.264 95.8598 124.869 95.8594C122.609 95.8589 120.289 95.94 118.176 96.832C113.916 98.6301 111.974 103.402 112.406 107.81C112.548 109.268 112.915 110.667 113.353 112.06C113.572 112.756 113.794 113.452 113.954 114.164C114.017 114.445 114.044 114.736 114.068 115.029L99.1895 129.78L103.795 129.972L144.192 88.7039L141.971 87.3635ZM119.163 109.024C119.183 108.086 119.305 107.15 119.563 106.248C120.005 104.697 120.888 103.259 122.192 102.29C123.515 101.306 124.94 101.115 126.544 101.161C126.938 101.173 127.474 101.202 128.028 101.188L119.172 109.968C119.165 109.657 119.155 109.344 119.163 109.024ZM129.558 99.67C129.414 99.7236 129.271 99.7806 129.127 99.8261C128.729 99.9512 128.327 100.015 127.911 100.039C127.029 100.092 126.143 100.021 125.262 100.089C123.675 100.212 122.238 100.876 121.083 101.969C119.88 103.107 119.083 104.613 118.704 106.218C118.495 107.101 118.407 108.014 118.414 108.922C118.418 109.478 118.447 110.034 118.571 110.564L114.853 114.249C114.735 113.651 114.555 113.064 114.419 112.58C113.971 110.997 113.485 109.461 113.365 107.809C113.153 104.881 113.807 101.868 115.831 99.655C117.846 97.4515 120.722 96.8838 123.586 96.7982C125.129 96.7523 126.671 96.834 128.213 96.8722C129.554 96.9055 130.976 97.0239 132.331 96.9205L129.558 99.67Z" fill="#FFB16B"/>
<path d="M10.602 33.7111L10.4316 36.0538L67.4839 90.0323C67.4839 90.0323 95.055 67.5038 123.212 72.0673C127.57 74.8322 136.26 77.8045 140.974 70.0368C145.687 62.2691 168.926 45.043 194.617 45.3305L194.81 43.7528L86.3497 38.9782L10.602 33.7111Z" fill="#185478"/>
<path d="M35.6554 25.2109C35.6554 25.2109 18.0548 32.4804 10.6021 33.7106L67.6432 87.3064C67.6432 87.3064 90.1471 67.6647 123.718 70.6804C123.718 70.6804 134.772 77.0275 139.407 68.433C139.407 68.433 163.417 41.1932 194.81 43.7523L169.349 31.2506L35.6554 25.2109Z" fill="#25678E"/>
<path d="M17.2441 27.3284L16.2227 33.9798L67.2587 82.44C67.2587 82.44 94.4051 59.582 123.89 68.9264C123.89 68.9264 130.748 72.781 135.827 65.9706C135.827 65.9706 162.247 36.2012 187.842 42.1858L187.726 35.0767L17.2441 27.3284Z" fill="#F4DDBB"/>
<path d="M129.505 63.5014L82.0145 25.1795C82.0145 25.1795 50.5053 5.4682 17.2441 27.3284L66.4317 73.9369C66.4317 73.9369 89.5227 49.0706 129.505 63.5014Z" fill="white"/>
<path d="M82.0146 25.1795C82.0146 25.1795 102.528 -2.14534 131.403 1.52709L187.727 35.0762C187.727 35.0762 153.457 30.0875 129.505 63.5009L82.0146 25.1795Z" fill="white"/>
<path d="M129.584 60.6001C126.649 58.2338 123.482 56.1159 120.445 53.8801C117.402 51.6384 114.354 49.404 111.317 47.1542C105.245 42.655 99.2133 38.1012 93.2317 33.4816C91.5965 32.2185 89.97 30.9442 88.3319 29.686C86.6084 28.3619 84.9312 26.9326 83.0934 25.7685C82.8015 25.5835 82.4319 25.9855 82.6915 26.2416C85.2979 28.8225 88.3859 31.0046 91.2655 33.2685C94.284 35.6416 97.3151 37.9997 100.358 40.3413C106.349 44.9507 112.369 49.5316 118.49 53.9675C121.964 56.4855 125.398 59.1664 129.032 61.4506C129.595 61.8043 130.081 61.0017 129.584 60.6001Z" fill="#FFCD83"/>
<path d="M91.4014 27.4032C91.4014 27.4032 93.6218 25.1795 92.0359 19.3026C92.0359 19.3026 104.565 6.27855 122.486 3.8963C122.486 3.8963 127.879 5.80209 131.844 5.16666L170.858 28.3562C170.858 28.3562 166.603 27.525 168.242 32.448C168.242 32.448 144.697 39.1101 136.619 49.8413C136.619 49.8413 131.368 48.369 128.196 53.4514L91.4014 27.4032Z" stroke="#FFCD83" stroke-width="0.5" stroke-miterlimit="10" stroke-linecap="round" stroke-linejoin="round"/>
<path d="M27.9878 32.2842C27.9878 32.2842 31.1009 29.1665 29.2988 24.0797C29.2988 24.0797 51.418 14.5623 75.1759 23.2592C75.1759 23.2592 76.8144 27.5255 81.238 27.8536L113.188 52.7953C113.188 52.7953 111.877 54.4363 112.532 56.8973C112.532 56.8973 86.6444 53.1234 75.503 64.4456C75.503 64.4456 66.0001 61.656 62.723 65.5942L27.9878 32.2842Z" stroke="#FFCD83" stroke-width="0.5" stroke-miterlimit="10" stroke-linecap="round" stroke-linejoin="round"/>
<path d="M152.792 44.4042C150.657 45.4682 148.674 46.9038 146.776 48.3409C144.878 49.778 143.039 51.2953 141.292 52.9131C139.531 54.5444 137.845 56.2589 136.244 58.0482C134.717 59.7545 132.904 61.5771 131.861 63.6332C131.818 63.7187 131.922 63.8033 131.994 63.7361C132.87 62.9258 133.57 61.9318 134.338 61.02C135.079 60.1381 135.841 59.2727 136.621 58.4256C138.215 56.6947 139.889 55.0364 141.635 53.4596C143.396 51.8694 145.215 50.3409 147.107 48.9087C149.025 47.4566 151.052 46.1563 152.968 44.7062C153.145 44.5728 152.998 44.3013 152.792 44.4042Z" fill="white"/>
<path d="M179.376 36.2012C177.254 36.0644 174.984 36.4771 172.87 36.7114C170.883 36.9318 168.966 37.3261 167.091 38.0321C165.24 38.7298 163.435 39.5638 161.619 40.3481C160.614 40.782 159.612 41.2237 158.609 41.6629C157.664 42.0766 156.615 42.4076 155.8 43.0522C155.706 43.1261 155.813 43.2426 155.903 43.229C156.835 43.0923 157.711 42.61 158.571 42.2442C159.529 41.8369 160.488 41.4315 161.445 41.0198C163.417 40.1717 165.372 39.2638 167.38 38.507C169.313 37.7788 171.288 37.399 173.338 37.1777C175.337 36.9617 177.466 36.967 179.412 36.4515C179.554 36.4128 179.516 36.2103 179.376 36.2012Z" fill="white"/>
<path d="M172.867 39.6851C170.818 39.5474 168.707 40.0277 166.749 40.5989C164.754 41.1802 162.822 41.9804 160.963 42.9053C159.041 43.8615 157.204 44.987 155.411 46.1655C153.61 47.3504 151.775 48.5444 150.142 49.9583C150.073 50.0187 150.162 50.126 150.239 50.0834C152.074 49.073 153.768 47.8133 155.539 46.6971C157.315 45.5779 159.132 44.5323 161.011 43.5963C162.868 42.6704 164.792 41.8833 166.783 41.2976C168.806 40.7023 170.855 40.4631 172.929 40.1336C173.195 40.091 173.109 39.7011 172.867 39.6851Z" fill="white"/>
<path d="M67.5212 79.3556C67.4329 78.8705 67.3397 78.3867 67.249 77.9026C67.1617 77.4363 67.0768 76.9695 66.9952 76.5027C66.9127 76.0321 66.8876 75.5005 66.7144 75.055C66.6392 74.8622 66.3641 74.8873 66.3501 75.1048C66.3188 75.5841 66.4616 76.1002 66.5359 76.5733C66.6097 77.042 66.6864 77.5112 66.7655 77.9794C66.8447 78.4476 66.9258 78.9154 67.0184 79.3812C67.1106 79.8427 67.1477 80.394 67.3513 80.8188C67.4483 81.0207 67.7368 80.9057 67.746 80.7115C67.7677 80.2747 67.5998 79.7861 67.5212 79.3556Z" fill="white"/>
<path d="M94.1772 62.0309C91.8912 62.0212 89.4975 62.6402 87.306 63.2578C85.1034 63.8787 82.9615 64.7296 80.9046 65.7323C76.744 67.7599 72.7041 70.5031 69.7034 74.0581C69.6243 74.1518 69.7449 74.2746 69.8385 74.1934C73.3226 71.1569 76.9443 68.3972 81.1285 66.389C83.1825 65.4032 85.3171 64.6098 87.4985 63.957C89.7209 63.2916 91.9925 63.007 94.2395 62.4899C94.4981 62.4295 94.4368 62.0318 94.1772 62.0309Z" fill="white"/>
<path d="M111.095 63.7463C106.389 63.064 101.371 63.5762 96.7235 64.4735C91.9313 65.3984 87.2057 66.9002 82.785 68.9776C80.2138 70.1856 77.7805 71.5961 75.4573 73.2313C75.4076 73.2661 75.4515 73.3463 75.505 73.314C80.8405 70.117 86.5582 67.5192 92.5885 65.9623C95.5824 65.1892 98.6424 64.6489 101.718 64.3339C104.831 64.0149 107.942 64.0551 111.063 63.9748C111.189 63.9729 111.23 63.7661 111.095 63.7463Z" fill="white"/>
<path d="M123.107 66.7017C122.617 66.2803 121.859 66.1493 121.255 65.9706C120.52 65.7526 119.78 65.5521 119.032 65.3868C117.608 65.0723 116.133 64.7186 114.67 64.8427C114.629 64.8461 114.62 64.9012 114.661 64.9157C116.028 65.3926 117.483 65.5569 118.889 65.9058C119.582 66.0773 120.273 66.2547 120.959 66.4528C121.597 66.6369 122.324 67.0061 122.995 66.9732C123.121 66.9669 123.218 66.7969 123.107 66.7017Z" fill="white"/>
<path d="M30.6262 44.7463C29.8073 43.804 28.8501 43.0014 27.942 42.1476C27.0339 41.2928 26.1263 40.437 25.24 39.559C23.4716 37.8064 21.7728 35.9774 20.0922 34.1407C20.084 34.132 20.0681 34.1436 20.0758 34.1533C21.5918 36.1494 23.2342 38.0224 24.9654 39.8344C25.8272 40.7361 26.7034 41.6238 27.6144 42.4757C28.535 43.3363 29.4474 44.2138 30.5103 44.8966C30.6059 44.9575 30.6942 44.8246 30.6262 44.7463Z" fill="white"/>
<path d="M54.2471 64.7736C53.1451 63.3148 51.5615 62.1705 50.196 60.9678C48.7316 59.6776 47.2759 58.3768 45.826 57.0702C42.9252 54.457 40.0775 51.7853 37.1878 49.16C37.1825 49.1551 37.1758 49.1624 37.1801 49.1677C39.8493 52.0153 42.643 54.7363 45.4699 57.4268C46.8436 58.7339 48.2318 60.0241 49.6305 61.3041C51.0095 62.5658 52.3933 64.0681 54.0362 64.9843C54.1607 65.0529 54.3455 64.9036 54.2471 64.7736Z" fill="white"/>
<path d="M52.4368 65.9715C50.7437 64.3557 49.0034 62.7915 47.2828 61.2056C47.2727 61.1964 47.2582 61.2114 47.2678 61.2206C48.9339 62.8615 50.5797 64.5233 52.2743 66.1344C53.9649 67.7425 55.6136 69.4255 57.3945 70.9337C57.4515 70.982 57.5287 70.9071 57.477 70.851C55.8843 69.1458 54.1241 67.5816 52.4368 65.9715Z" fill="white"/>
<path d="M118.789 11.33C117.775 11.1102 116.511 11.7127 115.591 12.095C114.494 12.5506 113.443 13.1049 112.433 13.7292C111.414 14.3584 110.443 15.0556 109.494 15.7858C109.055 16.1235 108.617 16.4603 108.207 16.8334C107.85 17.1576 107.236 17.5442 107.138 18.0346C107.12 18.1226 107.177 18.2072 107.27 18.2091C107.719 18.2192 108.16 17.7931 108.517 17.5505C108.971 17.2412 109.408 16.9131 109.849 16.5855C110.781 15.8916 111.733 15.219 112.719 14.6014C113.664 14.008 114.646 13.4663 115.671 13.0218C116.188 12.7976 116.719 12.6019 117.257 12.4347C117.782 12.2709 118.401 12.1713 118.857 11.8548C119.045 11.7239 119.047 11.3861 118.789 11.33Z" fill="white"/>
<path d="M110.412 22.6199C110.021 22.6745 109.769 22.9064 109.468 23.1422C109.164 23.3795 108.861 23.6197 108.561 23.8618C107.959 24.3455 107.378 24.8499 106.804 25.3655C106.246 25.8657 105.695 26.374 105.152 26.8896C104.872 27.1553 104.601 27.4269 104.336 27.7082C104.087 27.972 103.785 28.2827 103.628 28.6122C103.546 28.7862 103.71 28.9365 103.879 28.8635C104.198 28.7253 104.502 28.4562 104.77 28.2344C105.068 27.9875 105.361 27.7362 105.651 27.4801C106.23 26.9693 106.817 26.4663 107.41 25.972C107.987 25.4916 108.57 25.0196 109.149 24.5407C109.445 24.2952 109.745 24.0517 110.045 23.8101C110.365 23.5535 110.612 23.3665 110.771 22.9789C110.866 22.747 110.601 22.5938 110.412 22.6199Z" fill="white"/>
<path d="M123.013 14.4922C122.486 14.5773 121.991 14.8967 121.514 15.1238C120.988 15.3741 120.466 15.6307 119.949 15.8984C118.917 16.4324 117.913 17.0238 116.953 17.6776C116.038 18.301 115.166 18.9605 114.316 19.6685C113.871 20.0386 113.428 20.4121 113.002 20.804C112.702 21.0799 112.196 21.3974 112.177 21.8381C112.174 21.8874 112.217 21.9188 112.262 21.9231C112.676 21.9647 113.065 21.5298 113.382 21.2969C113.848 20.9543 114.312 20.6093 114.786 20.2783C115.708 19.6332 116.647 19.0011 117.594 18.3932C118.518 17.7998 119.442 17.2069 120.377 16.6314C120.872 16.327 121.371 16.0298 121.877 15.7452C122.341 15.4838 122.87 15.2881 123.266 14.9276C123.476 14.7358 123.246 14.455 123.013 14.4922Z" fill="white"/>
<path d="M130.26 11.3098C130.01 11.304 129.764 11.3977 129.527 11.4683C129.29 11.5388 129.054 11.6137 128.82 11.6939C128.332 11.8601 127.854 12.0501 127.382 12.2593C126.93 12.4598 126.486 12.6773 126.051 12.9112C125.649 13.1271 125.172 13.376 125.046 13.8486C125.028 13.9124 125.067 13.9906 125.134 14.0051C125.598 14.1061 126.021 13.8428 126.42 13.6355C126.845 13.4142 127.278 13.2078 127.719 13.0189C128.153 12.8324 128.597 12.6608 129.042 12.5014C129.275 12.4178 129.51 12.339 129.746 12.2646C129.981 12.1902 130.238 12.1433 130.45 12.0119C130.768 11.8142 130.636 11.3189 130.26 11.3098Z" fill="white"/>
<path d="M122.12 21.4577C121.413 21.6215 120.781 22.1062 120.172 22.4826C119.492 22.9025 118.814 23.3273 118.15 23.7723C116.82 24.6634 115.523 25.6051 114.249 26.5725C113.057 27.4776 111.881 28.4039 110.731 29.3617C109.552 30.3431 108.266 31.3602 107.378 32.6234C107.324 32.7002 107.427 32.7896 107.501 32.7471C108.774 32.0131 109.882 30.9505 111.013 30.0193C112.258 28.9939 113.531 28 114.834 27.0495C116.055 26.1599 117.301 25.3089 118.56 24.4759C119.228 24.0342 119.892 23.5897 120.567 23.1591C121.174 22.7721 121.892 22.4367 122.372 21.8916C122.544 21.6979 122.379 21.3978 122.12 21.4577Z" fill="white"/>
<path d="M135.664 14.0008C134.631 14.2317 133.649 14.6806 132.689 15.118C131.661 15.5857 130.646 16.0892 129.662 16.6444C128.707 17.1832 127.772 17.7611 126.861 18.3719C126.037 18.9247 125.018 19.4867 124.462 20.3318C124.383 20.4502 124.513 20.6164 124.647 20.5734C125.589 20.2705 126.402 19.5258 127.224 18.9928C128.145 18.3961 129.088 17.836 130.051 17.3103C130.985 16.8005 131.929 16.312 132.894 15.8645C133.884 15.4059 134.918 15.0266 135.876 14.5052C136.159 14.3511 135.961 13.9341 135.664 14.0008Z" fill="white"/>
<path d="M116.866 31.4304C116.666 31.3767 116.468 31.4854 116.301 31.5874C116.092 31.7145 115.894 31.8643 115.692 32.0035C115.274 32.2914 114.869 32.5988 114.465 32.9056C114.065 33.2091 113.682 33.5367 113.294 33.8546C113.102 34.0112 112.911 34.1678 112.719 34.3248C112.52 34.4872 112.301 34.6534 112.186 34.8887C112.063 35.1376 112.264 35.4232 112.545 35.3565C112.792 35.2975 112.994 35.1342 113.19 34.9805C113.386 34.8278 113.581 34.6747 113.777 34.5225C114.179 34.2084 114.591 33.904 114.982 33.5758C115.36 33.2579 115.738 32.9399 116.101 32.6051C116.282 32.4379 116.471 32.2769 116.644 32.103C116.79 31.9575 116.968 31.772 116.959 31.5531C116.957 31.4975 116.921 31.4454 116.866 31.4304Z" fill="white"/>
<path d="M140.374 17.3331C136.385 18.8006 132.542 20.6895 128.863 22.8175C127.011 23.8888 125.191 25.0171 123.407 26.1991C121.655 27.3602 119.84 28.5214 118.299 29.9585C118.095 30.1494 118.357 30.4803 118.594 30.3417C120.437 29.2694 122.142 27.9546 123.932 26.7949C125.685 25.6588 127.471 24.575 129.288 23.5448C132.966 21.4597 136.744 19.5877 140.549 17.7496C140.779 17.6389 140.617 17.2437 140.374 17.3331Z" fill="white"/>
<path d="M122.913 34.6012C122.757 34.2142 122.154 34.7056 121.984 34.8395C121.251 35.4174 120.591 36.1152 119.925 36.7704C119.546 37.1429 119.171 37.5194 118.8 37.8997C118.424 38.2858 118.043 38.6771 117.76 39.1377C117.633 39.343 117.892 39.6213 118.1 39.4788C118.863 38.9564 119.488 38.2181 120.151 37.5769C120.839 36.912 121.541 36.2635 122.249 35.6199C122.415 35.4691 122.584 35.3063 122.72 35.1275C122.82 34.9936 122.985 34.781 122.913 34.6012Z" fill="white"/>
<path d="M136.598 24.573C135.983 24.6098 135.515 25.006 135.005 25.323C134.432 25.6786 133.863 26.0367 133.3 26.4078C132.14 27.1727 130.976 27.9324 129.82 28.7045C128.751 29.4182 127.673 30.1233 126.659 30.9152C126.203 31.2719 125.75 31.6454 125.335 32.0498C124.946 32.4272 124.416 32.8549 124.263 33.3903C124.238 33.4753 124.321 33.5584 124.406 33.5338C124.905 33.3908 125.294 32.9457 125.7 32.6331C126.209 32.2402 126.712 31.8387 127.224 31.4497C128.25 30.6712 129.307 29.9377 130.388 29.2399C131.493 28.5262 132.604 27.8212 133.712 27.1128C134.28 26.7495 134.84 26.3755 135.399 25.9971C135.893 25.6622 136.47 25.3911 136.754 24.8451C136.813 24.7306 136.742 24.5648 136.598 24.573Z" fill="white"/>
<path d="M145.207 19.7582C144.676 19.6481 144.09 20.0404 143.632 20.269C143.094 20.5382 142.565 20.8242 142.045 21.1282C141.541 21.4234 141.041 21.7298 140.564 22.0675C140.184 22.3357 139.483 22.6865 139.432 23.2016C139.425 23.2727 139.49 23.3567 139.56 23.3703C140.04 23.4664 140.563 22.9533 140.94 22.7131C141.434 22.3995 141.926 22.0849 142.432 21.7911C142.923 21.5056 143.423 21.2354 143.931 20.9808C144.384 20.7537 145.074 20.5652 145.349 20.1091C145.425 19.9834 145.358 19.7896 145.207 19.7582Z" fill="white"/>
<path d="M132.06 33.0201C131.592 33.2196 131.189 33.5941 130.788 33.9034C130.401 34.2015 130.017 34.503 129.635 34.8075C128.803 35.4724 127.983 36.1542 127.178 36.8515C126.394 37.5299 125.622 38.2233 124.865 38.9312C124.134 39.614 123.256 40.29 122.849 41.2226C122.815 41.3024 122.885 41.3744 122.965 41.3386C123.872 40.9395 124.543 40.1175 125.259 39.4478C126.016 38.7389 126.786 38.0445 127.57 37.3656C128.331 36.7051 129.105 36.0585 129.891 35.427C130.318 35.0834 130.749 34.7437 131.183 34.4088C131.582 34.1015 132.051 33.8174 132.375 33.4279C132.571 33.1931 132.332 32.9046 132.06 33.0201Z" fill="white"/>
<path d="M141.977 27.3535C141.627 27.3177 141.308 27.5013 140.994 27.6366C140.632 27.7932 140.272 27.9555 139.914 28.1232C139.199 28.4586 138.507 28.8316 137.824 29.2298C137.161 29.6168 136.518 30.0266 135.893 30.4741C135.571 30.7046 135.253 30.9394 134.939 31.18C134.708 31.3564 134.381 31.5318 134.33 31.8382C134.327 31.8561 134.335 31.8807 134.356 31.8841C134.637 31.9266 134.867 31.729 135.094 31.5845C135.407 31.3859 135.723 31.1916 136.041 31.0027C136.718 30.6002 137.4 30.2039 138.089 29.8212C138.757 29.4497 139.438 29.0979 140.118 28.7485C140.447 28.5789 140.779 28.4146 141.114 28.2547C141.452 28.0937 141.869 27.9734 142.108 27.6709C142.211 27.5395 142.144 27.3699 141.977 27.3535Z" fill="white"/>
<path d="M149.333 22.5532C149.063 22.4324 148.874 22.5223 148.629 22.66C148.387 22.7963 148.144 22.932 147.905 23.0731C147.441 23.3452 147 23.6656 146.548 23.9565C146.107 24.2391 145.67 24.5266 145.235 24.8185C144.826 25.0935 144.309 25.396 144.065 25.841C144.027 25.9116 144.074 26.027 144.166 26.0169C144.654 25.9623 145.106 25.6453 145.515 25.3945C145.974 25.1128 146.437 24.8359 146.902 24.5643C147.355 24.3 147.824 24.07 148.279 23.812C148.521 23.6752 148.759 23.5312 148.999 23.3925C149.257 23.2442 149.444 23.134 149.486 22.8209C149.5 22.7252 149.421 22.5919 149.333 22.5532Z" fill="white"/>
<path d="M132.29 40.7467C131.816 40.9366 131.403 41.2517 131 41.5624C130.589 41.8808 130.183 42.2065 129.785 42.5409C129.398 42.8661 129.017 43.1981 128.644 43.5397C128.263 43.8881 127.838 44.2611 127.571 44.7052C127.434 44.9328 127.707 45.2029 127.933 45.0686C128.358 44.8159 128.719 44.4327 129.083 44.0988C129.456 43.7581 129.829 43.4174 130.212 43.0884C130.585 42.7685 130.964 42.4554 131.348 42.1505C131.748 41.8335 132.186 41.5285 132.516 41.1371C132.649 40.9791 132.528 40.6515 132.29 40.7467Z" fill="white"/>
<path d="M149.498 28.8625C148.73 29.0119 148.07 29.5448 147.42 29.9614C146.688 30.4301 145.958 30.8983 145.227 31.3666C143.721 32.3311 142.227 33.3125 140.732 34.2944C139.42 35.1559 138.086 35.9929 136.832 36.939C136.28 37.356 135.762 37.8199 135.265 38.3017C134.821 38.7327 134.28 39.1734 134.038 39.7518C134.01 39.8175 134.095 39.86 134.147 39.8359C134.788 39.5266 135.326 38.9009 135.901 38.4809C136.47 38.0639 137.059 37.672 137.642 37.2739C138.959 36.3722 140.316 35.5285 141.66 34.6688C143.081 33.7609 144.497 32.8481 145.907 31.9242C146.591 31.4762 147.275 31.0283 147.958 30.5794C148.588 30.1653 149.291 29.7937 149.732 29.167C149.844 29.0061 149.659 28.8316 149.498 28.8625Z" fill="white"/>
<path d="M154.614 26.0498C154.318 26.1174 154.068 26.288 153.809 26.4388C153.556 26.5857 153.312 26.7408 153.068 26.9017C152.825 27.0616 152.582 27.2225 152.338 27.3825C152.225 27.4574 152.111 27.5323 151.998 27.6072C151.877 27.6869 151.729 27.7555 151.661 27.8884C151.601 28.0073 151.676 28.1353 151.808 28.144C151.957 28.1537 152.094 28.0599 152.225 27.9971C152.348 27.9382 152.471 27.8787 152.593 27.8198C152.856 27.6932 153.119 27.5666 153.382 27.44C153.645 27.3134 153.905 27.1834 154.16 27.0423C154.423 26.8968 154.694 26.7707 154.904 26.5509C155.116 26.33 154.903 25.9836 154.614 26.0498Z" fill="white"/>
<path d="M65.0886 26.6195C64.6775 26.3919 64.1675 26.3648 63.7052 26.3131C63.1383 26.2498 62.5685 26.1928 61.9991 26.1599C60.9362 26.0976 59.866 26.0826 58.8026 26.13C57.7854 26.1759 56.7664 26.2822 55.7686 26.4876C54.8171 26.6828 53.6335 26.907 52.8577 27.526C52.6589 27.685 52.8171 28.0836 53.0753 28.0512C54.0533 27.929 55.0096 27.4704 55.9886 27.2858C56.9869 27.0969 58.0002 27.0022 59.0149 26.9693C60.0107 26.9369 61.0047 26.9703 61.9996 27.0186C62.4971 27.0423 62.9955 27.0611 63.4929 27.0858C63.9914 27.1104 64.5578 27.1916 65.036 27.0264C65.2087 26.9674 65.2652 26.7176 65.0886 26.6195Z" fill="white"/>
<path d="M55.3883 31.8309C54.4672 31.5333 53.2156 32.0416 52.3167 32.2876C51.1771 32.5993 50.0543 32.9718 48.9542 33.4024C46.9306 34.1939 44.7719 35.1748 43.0778 36.5563C42.9041 36.6984 43.1251 36.9318 43.3022 36.8482C44.3381 36.3582 45.3181 35.7566 46.3554 35.2652C47.3639 34.7877 48.3954 34.3514 49.4405 33.9619C50.4465 33.5865 51.4709 33.2603 52.5078 32.9839C53.0612 32.836 53.62 32.7118 54.1768 32.5785C54.6511 32.4644 55.0689 32.3992 55.4578 32.0962C55.5591 32.0184 55.4896 31.8633 55.3883 31.8309Z" fill="white"/>
<path d="M70.8313 30.3196C70.3879 30.0164 69.8103 30.0677 69.2931 30.0648C68.7281 30.0614 68.1636 30.058 67.5986 30.0546C66.4637 30.0483 65.3284 30.0401 64.194 30.0793C63.1065 30.117 62.0228 30.2098 60.9478 30.3795C59.9664 30.5347 58.8142 30.7026 58.0233 31.3519C57.9428 31.4181 58.0147 31.5371 58.102 31.5424C59.1505 31.6072 60.2429 31.2262 61.2793 31.0922C62.3615 30.9525 63.4563 30.893 64.5467 30.8611C65.6449 30.8292 66.7431 30.8355 67.8413 30.8423C68.4058 30.8457 68.9713 30.8573 69.5358 30.852C69.9874 30.8481 70.4453 30.8713 70.8318 30.6131C70.9409 30.5396 70.9389 30.3936 70.8313 30.3196Z" fill="white"/>
<path d="M75.516 29.7663C75.3973 29.7232 75.2858 29.6739 75.1584 29.6628C75.045 29.6531 74.9268 29.6497 74.8134 29.6478C74.6011 29.6439 74.3835 29.6599 74.1712 29.6715C73.9435 29.6836 73.7114 29.6865 73.4861 29.7198C73.3765 29.7358 73.267 29.7542 73.157 29.7697C73.0402 29.7861 72.95 29.8214 72.8434 29.8712C72.7122 29.9321 72.7339 30.1245 72.8434 30.1922C73.0398 30.3126 73.2607 30.3518 73.4861 30.3924C73.7162 30.4345 73.9623 30.4408 74.1963 30.4446C74.4347 30.4485 74.6803 30.4466 74.9162 30.4118C75.0257 30.3958 75.1459 30.3861 75.2515 30.3552C75.3654 30.3223 75.4696 30.2522 75.5715 30.1932C75.7563 30.0873 75.6979 29.832 75.516 29.7663Z" fill="white"/>
<path d="M48.3068 39.2614C47.8142 39.372 47.3698 39.6764 46.9351 39.9209C46.7146 40.0451 46.4921 40.1659 46.2731 40.293C46.0627 40.4148 45.8547 40.5641 45.7327 40.7757C45.6912 40.8477 45.7447 40.9318 45.8243 40.9352C46.0719 40.9468 46.3117 40.8468 46.5312 40.7342C46.7565 40.6182 46.979 40.4969 47.2024 40.3785C47.6429 40.1447 48.1326 39.9359 48.4926 39.5808C48.633 39.4421 48.4873 39.2208 48.3068 39.2614Z" fill="white"/>
<path d="M67.3041 34.1654C66.6658 33.9097 65.9888 34.0711 65.3283 34.1688C64.6214 34.2731 63.917 34.3891 63.2139 34.5172C61.7582 34.7834 60.3112 35.1023 58.8782 35.4725C57.4442 35.8426 56.0237 36.264 54.6197 36.7361C53.2706 37.1898 51.8115 37.6344 50.5937 38.3824C50.4219 38.4877 50.5353 38.7453 50.7283 38.7018C52.1063 38.3949 53.4496 37.802 54.7943 37.3701C56.2042 36.9168 57.6305 36.5147 59.0688 36.1639C60.4584 35.8252 61.8596 35.5343 63.2694 35.2922C64.0072 35.1656 64.7469 35.0521 65.4889 34.9535C66.1321 34.8675 66.7975 34.8554 67.3451 34.4751C67.4716 34.3876 67.4411 34.2205 67.3041 34.1654Z" fill="white"/>
<path d="M79.6812 32.2653C78.913 32.0745 77.948 32.2359 77.1645 32.2886C76.2902 32.3465 75.4212 32.4538 74.5556 32.5872C73.6919 32.7201 72.8331 32.8843 71.981 33.0786C71.3219 33.2289 70.2276 33.3753 69.7692 33.9281C69.7533 33.9469 69.7591 33.973 69.7832 33.9812C70.106 34.0934 70.4398 34.0286 70.7675 33.9629C71.1974 33.8769 71.6283 33.7952 72.0577 33.7097C72.917 33.5377 73.7797 33.3869 74.6487 33.2743C75.4844 33.1661 76.3244 33.0887 77.1645 33.024C77.6006 32.9902 78.0378 32.9646 78.4749 32.9462C78.8759 32.9298 79.2918 32.9621 79.6812 32.8592C79.9707 32.7819 79.9769 32.3383 79.6812 32.2653Z" fill="white"/>
<path d="M62.6197 40.134C61.7527 39.8286 60.5165 40.2838 59.6649 40.5003C58.6116 40.769 57.5747 41.1024 56.5619 41.4977C54.6932 42.2268 52.6194 43.1546 51.1879 44.5902C51.1565 44.6211 51.1883 44.6888 51.2342 44.6695C52.1533 44.2848 53.0069 43.7775 53.899 43.3339C54.8495 42.8618 55.8295 42.4525 56.8264 42.0872C57.7846 41.7364 58.7631 41.4401 59.7551 41.2014C60.2685 41.0777 60.7848 40.9782 61.3025 40.8777C61.7633 40.7883 62.2699 40.7376 62.6622 40.4631C62.793 40.3727 62.7708 40.1872 62.6197 40.134Z" fill="white"/>
<path d="M84.7147 35.7798C83.9413 35.6266 83.1331 35.7648 82.3524 35.83C81.4868 35.902 80.6221 35.9837 79.759 36.0774C78.0905 36.2577 76.4394 36.5084 74.7892 36.8158C73.0792 37.1337 71.3799 37.4884 69.7027 37.9513C68.1534 38.379 66.4858 38.7762 65.0485 39.5087C65.0166 39.5251 65.0306 39.5807 65.0673 39.5778C66.6871 39.4507 68.3116 38.9931 69.9087 38.6979C71.5145 38.4007 73.1183 38.0876 74.7294 37.8199C76.3375 37.5527 77.9539 37.3222 79.5684 37.0941C80.4943 36.9636 81.4231 36.8472 82.3529 36.7462C83.1297 36.6621 83.9755 36.6781 84.7152 36.4137C84.9936 36.3147 85.0587 35.8479 84.7147 35.7798Z" fill="white"/>
<path d="M68.68 44.511C67.6827 44.4791 66.5807 44.899 65.6446 45.2083C64.6135 45.5494 63.593 45.9268 62.5977 46.3612C61.6013 46.7952 60.6223 47.2697 59.664 47.7829C59.183 48.0404 58.7314 48.3405 58.2802 48.6478C57.8995 48.9063 57.5111 49.1445 57.2371 49.5215C57.2187 49.5466 57.2491 49.5722 57.2728 49.5683C57.7577 49.49 58.1804 49.2349 58.6194 49.0266C59.113 48.7933 59.609 48.5686 60.0973 48.3231C61.0406 47.8476 62.0027 47.4084 62.9812 47.0107C63.9264 46.6265 64.8765 46.2569 65.8434 45.9312C66.7954 45.6108 67.9124 45.3958 68.7814 44.8869C68.9575 44.7835 68.8764 44.5178 68.68 44.511Z" fill="white"/>
<path d="M88.0097 39.1221C86.5892 38.9477 84.9728 39.3444 83.5663 39.5918C82.032 39.8619 80.5068 40.2046 79.0048 40.6177C77.4979 41.0323 76.0191 41.5247 74.5691 42.1094C73.2066 42.6583 71.7943 43.2063 70.5755 44.034C70.4693 44.106 70.5325 44.2834 70.6652 44.2471C72.1571 43.8422 73.5882 43.2005 75.0598 42.7226C76.4427 42.2732 77.8357 41.8504 79.2407 41.4768C80.6477 41.1028 82.0667 40.781 83.4978 40.5143C84.9883 40.2364 86.6572 40.2094 88.0922 39.7363C88.4449 39.6213 88.3508 39.1647 88.0097 39.1221Z" fill="white"/>
<path d="M66.3074 50.9909C65.0756 51.1673 63.8882 51.68 62.7885 52.2477C61.7159 52.801 60.6728 53.4756 59.9432 54.4531C59.9008 54.5096 59.9799 54.5633 60.0306 54.5401C61.1037 54.0482 62.0918 53.392 63.149 52.8653C64.2187 52.3323 65.3492 51.9767 66.4623 51.5543C66.8184 51.4195 66.676 50.9382 66.3074 50.9909Z" fill="white"/>
<path d="M81.8714 45.4813C81.2885 45.4233 80.7115 45.6103 80.1464 45.7398C79.5231 45.8824 78.9021 46.0375 78.284 46.2027C77.1265 46.513 75.9757 46.8565 74.8438 47.2508C73.7606 47.6278 72.701 48.0892 71.6559 48.5613C71.0745 48.8242 70.4955 49.0948 69.9251 49.3813C69.4846 49.6031 68.9886 49.7926 68.6996 50.2052C68.6629 50.2574 68.7126 50.3231 68.7681 50.3251C69.2699 50.3415 69.7481 50.0486 70.2002 49.8515C70.7633 49.606 71.3278 49.3644 71.8981 49.1363C73.0107 48.6913 74.1427 48.3042 75.2703 47.8998C76.3993 47.4944 77.5424 47.1276 78.6965 46.8C79.235 46.6473 79.7754 46.5023 80.3182 46.367C80.8784 46.2269 81.467 46.152 81.9746 45.8664C82.1686 45.7582 82.0629 45.4997 81.8714 45.4813Z" fill="white"/>
<path d="M92.4496 43.1594C91.7253 43.0372 90.9842 43.113 90.2561 43.1807C89.542 43.2464 88.8376 43.3575 88.1355 43.504C86.8159 43.7789 85.2405 44.0544 84.1887 44.9517C84.1708 44.9667 84.1853 44.9976 84.2075 44.9971C84.8844 44.987 85.5122 44.8096 86.1621 44.6342C86.8477 44.4491 87.5416 44.2945 88.2407 44.1713C88.9577 44.0447 89.6834 43.9461 90.4071 43.8688C91.0884 43.7958 91.7774 43.7968 92.4496 43.661C92.6927 43.6112 92.7014 43.2019 92.4496 43.1594Z" fill="white"/>
<path d="M77.2513 52.757C76.7814 52.6353 76.3331 52.772 75.8752 52.8996C75.3305 53.0513 74.7906 53.2229 74.2536 53.3997C73.1453 53.7655 72.0519 54.1753 70.9764 54.6266C69.969 55.0494 68.9784 55.5085 68.0061 56.0067C67.5029 56.2647 67.0045 56.5324 66.5114 56.8093C66.093 57.0441 65.598 57.2886 65.3495 57.7143C65.2882 57.8197 65.3659 57.9656 65.4913 57.9622C65.9526 57.9487 66.3714 57.6771 66.768 57.4602C67.2645 57.1886 67.7644 56.9233 68.2701 56.6691C69.2843 56.1593 70.3178 55.6868 71.3677 55.2553C72.3815 54.8387 73.4101 54.4604 74.4518 54.1202C74.9898 53.9448 75.5322 53.7863 76.0745 53.6254C76.53 53.4901 76.9777 53.3905 77.3304 53.0581C77.4294 52.9658 77.3801 52.7904 77.2513 52.757Z" fill="white"/>
<path d="M96.8566 47.6964C93.9138 47.7829 91.0232 48.125 88.1528 48.786C85.3446 49.433 82.4438 50.2859 79.9628 51.794C79.8205 51.8805 79.9126 52.1115 80.0772 52.0656C82.811 51.3084 85.4657 50.3076 88.2329 49.6601C91.0574 48.9996 93.9616 48.57 96.8566 48.3965C97.3024 48.37 97.3097 47.6828 96.8566 47.6964Z" fill="white"/>
<path d="M101.974 118.351C105.312 114.193 107.08 108.371 104.84 103.272C103.859 101.037 102.038 99.0249 100.001 97.5588L99.4398 98.3034C100.775 99.6298 102.18 100.879 103.151 102.546C104.367 104.636 104.752 107.043 104.52 109.434C104.033 114.453 100.792 118.556 96.8642 121.472C95.7593 122.291 94.5989 123.035 93.409 123.724C93.1789 123.858 92.8744 124.06 92.5391 124.269L93.5943 125.144C94.3152 124.73 95.0235 124.292 95.7091 123.843C98.0338 122.319 100.227 120.528 101.974 118.351Z" fill="#FFB16B"/>
<path d="M98.0238 112.612C100.556 110.205 101.662 105.979 99.8738 102.831C99.3527 101.913 98.6328 101.135 97.8535 100.406L97.1838 101.295C97.8145 101.943 98.4012 102.626 98.8214 103.447C99.784 105.327 99.6808 107.621 98.8157 109.515C97.7995 111.739 95.7701 113.42 93.3012 113.676C91.5579 113.857 89.8633 113.501 88.1582 113.265L87.5854 114.025C91.1897 114.956 95.1303 115.363 98.0238 112.612Z" fill="#FFB16B"/>
<path d="M56.7079 93.0871C57.5287 94.0641 58.2104 95.1654 58.7721 96.3101C59.3159 97.4196 59.7361 98.5909 60.0053 99.7975C60.043 99.9662 60.0686 100.138 60.1043 100.307L61.2632 101.267C61.1773 100.724 61.0726 100.185 60.9163 99.6554C60.5371 98.372 60.0382 97.1186 59.4095 95.9366C58.8005 94.7929 58.0657 93.7071 57.2073 92.7363C56.8281 92.3072 56.4088 91.9177 55.975 91.5437L55.6426 91.9849C56.0165 92.3342 56.3784 92.6952 56.7079 93.0871Z" fill="#FFB16B"/>
<path d="M204 94.3125L206.5 97.8125L204 101.312L201.5 97.8125L204 94.3125Z" fill="#427EA6"/>
<path d="M185.5 11.3125L188.5 15.8125L185.5 20.3125L182.5 15.8125L185.5 11.3125Z" fill="#427EA6"/>
<path d="M22 0.8125L24.5 4.3125L22 7.8125L19.5 4.3125L22 0.8125Z" fill="#427EA6"/>
<path d="M191 5.8125L193.5 9.3125L191 12.8125L188.5 9.3125L191 5.8125Z" fill="#427EA6"/>
</svg>
