<?xml version="1.0" encoding="UTF-8"?>
<svg id="Layer_1" data-name="Layer 1" xmlns="http://www.w3.org/2000/svg" viewBox="0 0 42.99 326.55">
  <path d="M39.67,39.81v-4.7l3.32-3.32-3.32-3.32v-4.7h-4.7l-2.11-2.11,2.11-2.11h4.7v-4.7l3.32-3.32-3.32-3.32V3.53h-4.7L31.64,.21l-3.32,3.32h-4.71v4.7l-2.11,2.11-2.11-2.11V3.53h-4.71L11.36,.21l-3.33,3.32H3.33v4.7L0,11.55l3.33,3.32v4.7h4.7l2.11,2.11-2.11,2.11H3.33v4.7l-3.33,3.32,3.33,3.32v4.7h4.7l2.11,2.11-2.11,2.11H3.33v4.69l-3.33,3.32,3.33,3.32v4.7h4.7l2.11,2.11-2.11,2.11H3.33v4.69l-3.33,3.32,3.33,3.32v4.7h4.7l2.11,2.1-2.11,2.11H3.33v4.7l-3.33,3.32,3.33,3.32v4.69h4.7l2.11,2.11-2.11,2.11H3.33v4.7l-3.33,3.32,3.33,3.32v4.69h4.7l2.11,2.11-2.11,2.11H3.33v4.7l-3.33,3.32,3.33,3.32v4.7h4.7l2.11,2.11-2.11,2.11H3.33v4.69l-3.33,3.32,3.33,3.32v4.7h4.7l2.11,2.11-2.11,2.1H3.33v4.7l-3.33,3.32,3.33,3.32v4.7h4.7l2.11,2.1-2.11,2.11H3.33v4.7l-3.33,3.32,3.33,3.32v4.69h4.7l2.11,2.11-2.11,2.11H3.33v4.7l-3.33,3.32,3.33,3.32v4.7h4.7l2.11,2.11-2.11,2.11H3.33v4.7l-3.33,3.32,3.33,3.32v4.7h4.7l2.11,2.11-2.11,2.11H3.33v4.69l-3.33,3.32,3.33,3.32v4.7h4.7l2.11,2.11-2.11,2.11H3.33v4.69l-3.33,3.32,3.33,3.32v4.7h4.7l2.11,2.1-2.11,2.11H3.33v4.7l-3.33,3.32,3.33,3.32v4.69h4.7l2.11,2.11-2.11,2.11H3.33v4.7l-3.33,3.32,3.33,3.32v4.69h4.7l3.33,3.32,3.32-3.32h4.71v-4.7l2.11-2.1,2.11,2.1v4.7h4.71l3.32,3.32,3.33-3.32h4.7v-4.7l3.32-3.32-3.32-3.32v-4.7h-4.7l-2.11-2.11,2.11-2.11h4.7v-4.69l3.32-3.32-3.32-3.32v-4.7h-4.7l-2.11-2.11,2.11-2.1h4.7v-4.7l3.32-3.32-3.32-3.32v-4.7h-4.7l-2.11-2.1,2.11-2.11h4.7v-4.7l3.32-3.32-3.32-3.32v-4.69h-4.7l-2.11-2.11,2.11-2.11h4.7v-4.7l3.32-3.32-3.32-3.32v-4.7h-4.7l-2.11-2.11,2.11-2.11h4.7v-4.7l3.32-3.32-3.32-3.32v-4.7h-4.7l-2.11-2.11,2.11-2.11h4.7v-4.69l3.32-3.32-3.32-3.32v-4.7h-4.7l-2.11-2.11,2.11-2.11h4.7v-4.69l3.32-3.32-3.32-3.32v-4.7h-4.7l-2.11-2.1,2.11-2.11h4.7v-4.7l3.32-3.32-3.32-3.32v-4.69h-4.7l-2.11-2.11,2.11-2.11h4.7v-4.7l3.32-3.32-3.32-3.32v-4.7h-4.7l-2.11-2.11,2.11-2.11h4.7v-4.7l3.32-3.32-3.32-3.32v-4.7h-4.7l-2.11-2.11,2.11-2.11h4.7v-4.69l3.32-3.32-3.32-3.32v-4.7h-4.7l-2.11-2.11,2.11-2.1h4.7v-4.7l3.32-3.32-3.32-3.32v-4.7h-4.7l-2.11-2.1,2.11-2.11h4.7v-4.7l3.32-3.32-3.32-3.32v-4.69h-4.7l-2.11-2.11,2.11-2.11h4.7ZM25.33,8.94v-3.69h3.7l2.61-2.61,2.61,2.61h3.7v3.69l2.61,2.61-2.61,2.61v3.69h-3.7l-2.61,2.61-2.61-2.61h-3.7v-3.69l-2.61-2.61,2.61-2.61Zm-1.72,5.93v4.69h4.71l2.11,2.11-2.11,2.11h-4.71v4.7l-2.11,2.11-2.11-2.11v-4.7h-4.71l-2.11-2.11,2.11-2.11h4.71v-4.69l2.11-2.11,2.11,2.11Zm4.71,24.94l2.11,2.11-2.11,2.11h-4.71v4.69l-2.11,2.11-2.11-2.11v-4.69h-4.71l-2.11-2.11,2.11-2.11h4.71v-4.7l2.11-2.11,2.11,2.11v4.7h4.71Zm0,20.25l2.11,2.11-2.11,2.11h-4.71v4.69l-2.11,2.11-2.11-2.11v-4.69h-4.71l-2.11-2.11,2.11-2.11h4.71v-4.7l2.11-2.11,2.11,2.11v4.7h4.71Zm0,20.25l2.11,2.1-2.11,2.11h-4.71v4.7l-2.11,2.11-2.11-2.11v-4.7h-4.71l-2.11-2.11,2.11-2.1h4.71v-4.7l2.11-2.11,2.11,2.11v4.7h4.71Zm0,20.24l2.11,2.11-2.11,2.11h-4.71v4.7l-2.11,2.11-2.11-2.11v-4.7h-4.71l-2.11-2.11,2.11-2.11h4.71v-4.69l2.11-2.11,2.11,2.11v4.69h4.71Zm0,20.25l2.11,2.11-2.11,2.11h-4.71v4.7l-2.11,2.1-2.11-2.1v-4.7h-4.71l-2.11-2.11,2.11-2.11h4.71v-4.7l2.11-2.1,2.11,2.1v4.7h4.71Zm0,20.25l2.11,2.11-2.11,2.11h-4.71v4.69l-2.11,2.11-2.11-2.11v-4.69h-4.71l-2.11-2.11,2.11-2.11h4.71v-4.7l2.11-2.11,2.11,2.11v4.7h4.71Zm0,20.25l2.11,2.11-2.11,2.1h-4.71v4.7l-2.11,2.11-2.11-2.11v-4.7h-4.71l-2.11-2.1,2.11-2.11h4.71v-4.7l2.11-2.11,2.11,2.11v4.7h4.71Zm0,20.25l2.11,2.1-2.11,2.11h-4.71v4.7l-2.11,2.11-2.11-2.11v-4.7h-4.71l-2.11-2.11,2.11-2.1h4.71v-4.7l2.11-2.11,2.11,2.11v4.7h4.71Zm0,20.24l2.11,2.11-2.11,2.11h-4.71v4.7l-2.11,2.11-2.11-2.11v-4.7h-4.71l-2.11-2.11,2.11-2.11h4.71v-4.69l2.11-2.11,2.11,2.11v4.69h4.71Zm0,20.25l2.11,2.11-2.11,2.11h-4.71v4.7l-2.11,2.11-2.11-2.11v-4.7h-4.71l-2.11-2.11,2.11-2.11h4.71v-4.69l2.11-2.11,2.11,2.11v4.69h4.71Zm0,20.25l2.11,2.11-2.11,2.11h-4.71v4.69l-2.11,2.11-2.11-2.11v-4.69h-4.71l-2.11-2.11,2.11-2.11h4.71v-4.7l2.11-2.11,2.11,2.11v4.7h4.71Zm0,20.25l2.11,2.11-2.11,2.11h-4.71v4.69l-2.11,2.11-2.11-2.11v-4.69h-4.71l-2.11-2.11,2.11-2.11h4.71v-4.7l2.11-2.11,2.11,2.11v4.7h4.71Zm0,20.25l2.11,2.1-2.11,2.11h-4.71v4.7l-2.11,2.11-2.11-2.11v-4.7h-4.71l-2.11-2.11,2.11-2.1h4.71v-4.7l2.11-2.11,2.11,2.11v4.7h4.71ZM8.74,17.85h-3.7v-3.69l-2.61-2.61,2.61-2.61v-3.69h3.7l2.61-2.61,2.61,2.61h3.7v3.69l2.61,2.61-2.61,2.61v3.69h-3.7l-2.61,2.61-2.61-2.61Zm0,20.24h-3.7v-3.69l-2.61-2.61,2.61-2.61v-3.69h3.7l2.61-2.61,2.61,2.61h3.7v3.69l2.61,2.61-2.61,2.61v3.69h-3.7l-2.61,2.61-2.61-2.61Zm0,20.25h-3.7v-3.69l-2.61-2.61,2.61-2.61v-3.69h3.7l2.61-2.61,2.61,2.61h3.7v3.69l2.61,2.61-2.61,2.61v3.69h-3.7l-2.61,2.61-2.61-2.61Zm0,20.25h-3.7v-3.69l-2.61-2.61,2.61-2.61v-3.69h3.7l2.61-2.61,2.61,2.61h3.7v3.69l2.61,2.61-2.61,2.61v3.69h-3.7l-2.61,2.61-2.61-2.61Zm0,20.25h-3.7v-3.69l-2.61-2.61,2.61-2.61v-3.69h3.7l2.61-2.61,2.61,2.61h3.7v3.69l2.61,2.61-2.61,2.61v3.69h-3.7l-2.61,2.61-2.61-2.61Zm0,20.25h-3.7v-3.69l-2.61-2.61,2.61-2.61v-3.69h3.7l2.61-2.61,2.61,2.61h3.7v3.69l2.61,2.61-2.61,2.61v3.69h-3.7l-2.61,2.61-2.61-2.61Zm0,20.24h-3.7v-3.69l-2.61-2.61,2.61-2.61v-3.69h3.7l2.61-2.61,2.61,2.61h3.7v3.69l2.61,2.61-2.61,2.61v3.69h-3.7l-2.61,2.61-2.61-2.61Zm0,20.25h-3.7v-3.69l-2.61-2.61,2.61-2.61v-3.69h3.7l2.61-2.61,2.61,2.61h3.7v3.69l2.61,2.61-2.61,2.61v3.69h-3.7l-2.61,2.61-2.61-2.61Zm0,20.25h-3.7v-3.69l-2.61-2.61,2.61-2.61v-3.69h3.7l2.61-2.61,2.61,2.61h3.7v3.69l2.61,2.61-2.61,2.61v3.69h-3.7l-2.61,2.61-2.61-2.61Zm0,20.25h-3.7v-3.69l-2.61-2.61,2.61-2.61v-3.69h3.7l2.61-2.61,2.61,2.61h3.7v3.69l2.61,2.61-2.61,2.61v3.69h-3.7l-2.61,2.61-2.61-2.61Zm0,20.25h-3.7v-3.69l-2.61-2.61,2.61-2.61v-3.69h3.7l2.61-2.61,2.61,2.61h3.7v3.69l2.61,2.61-2.61,2.61v3.69h-3.7l-2.61,2.61-2.61-2.61Zm0,20.24h-3.7v-3.69l-2.61-2.61,2.61-2.61v-3.69h3.7l2.61-2.61,2.61,2.61h3.7v3.69l2.61,2.61-2.61,2.61v3.69h-3.7l-2.61,2.61-2.61-2.61Zm0,20.25h-3.7v-3.69l-2.61-2.61,2.61-2.61v-3.69h3.7l2.61-2.61,2.61,2.61h3.7v3.69l2.61,2.61-2.61,2.61v3.69h-3.7l-2.61,2.61-2.61-2.61Zm0,20.25h-3.7v-3.69l-2.61-2.61,2.61-2.61v-3.69h3.7l2.61-2.61,2.61,2.61h3.7v3.69l2.61,2.61-2.61,2.61v3.69h-3.7l-2.61,2.61-2.61-2.61Zm0,20.25h-3.7v-3.69l-2.61-2.61,2.61-2.61v-3.69h3.7l2.61-2.61,2.61,2.61h3.7v3.69l2.61,2.61-2.61,2.61v3.69h-3.7l-2.61,2.61-2.61-2.61Zm8.92,16.55v3.69h-3.7l-2.61,2.61-2.61-2.61h-3.7v-3.69l-2.61-2.61,2.61-2.61v-3.69h3.7l2.61-2.61,2.61,2.61h3.7v3.69l2.61,2.61-2.61,2.61Zm1.72-5.93v-4.7h-4.71l-2.11-2.11,2.11-2.11h4.71v-4.69l2.11-2.11,2.11,2.11v4.69h4.71l2.11,2.11-2.11,2.11h-4.71v4.7l-2.11,2.11-2.11-2.11Zm14.86-2.98h3.7v3.69l2.61,2.61-2.61,2.61v3.69h-3.7l-2.61,2.61-2.61-2.61h-3.7v-3.69l-2.61-2.61,2.61-2.61v-3.69h3.7l2.61-2.61,2.61,2.61Zm0-20.25h3.7v3.69l2.61,2.61-2.61,2.61v3.69h-3.7l-2.61,2.61-2.61-2.61h-3.7v-3.69l-2.61-2.61,2.61-2.61v-3.69h3.7l2.61-2.61,2.61,2.61Zm0-20.25h3.7v3.69l2.61,2.61-2.61,2.61v3.69h-3.7l-2.61,2.61-2.61-2.61h-3.7v-3.69l-2.61-2.61,2.61-2.61v-3.69h3.7l2.61-2.61,2.61,2.61Zm0-20.25h3.7v3.69l2.61,2.61-2.61,2.61v3.69h-3.7l-2.61,2.61-2.61-2.61h-3.7v-3.69l-2.61-2.61,2.61-2.61v-3.69h3.7l2.61-2.61,2.61,2.61Zm0-20.24h3.7v3.69l2.61,2.61-2.61,2.61v3.69h-3.7l-2.61,2.61-2.61-2.61h-3.7v-3.69l-2.61-2.61,2.61-2.61v-3.69h3.7l2.61-2.61,2.61,2.61Zm0-20.25h3.7v3.69l2.61,2.61-2.61,2.61v3.69h-3.7l-2.61,2.61-2.61-2.61h-3.7v-3.69l-2.61-2.61,2.61-2.61v-3.69h3.7l2.61-2.61,2.61,2.61Zm0-20.25h3.7v3.69l2.61,2.61-2.61,2.61v3.69h-3.7l-2.61,2.61-2.61-2.61h-3.7v-3.69l-2.61-2.61,2.61-2.61v-3.69h3.7l2.61-2.61,2.61,2.61Zm0-20.25h3.7v3.69l2.61,2.61-2.61,2.61v3.69h-3.7l-2.61,2.61-2.61-2.61h-3.7v-3.69l-2.61-2.61,2.61-2.61v-3.69h3.7l2.61-2.61,2.61,2.61Zm0-20.25h3.7v3.69l2.61,2.61-2.61,2.61v3.69h-3.7l-2.61,2.61-2.61-2.61h-3.7v-3.69l-2.61-2.61,2.61-2.61v-3.69h3.7l2.61-2.61,2.61,2.61Zm0-20.24h3.7v3.69l2.61,2.61-2.61,2.61v3.69h-3.7l-2.61,2.61-2.61-2.61h-3.7v-3.69l-2.61-2.61,2.61-2.61v-3.69h3.7l2.61-2.61,2.61,2.61Zm0-20.25h3.7v3.69l2.61,2.61-2.61,2.61v3.69h-3.7l-2.61,2.61-2.61-2.61h-3.7v-3.69l-2.61-2.61,2.61-2.61v-3.69h3.7l2.61-2.61,2.61,2.61Zm0-20.25h3.7v3.69l2.61,2.61-2.61,2.61v3.69h-3.7l-2.61,2.61-2.61-2.61h-3.7v-3.69l-2.61-2.61,2.61-2.61v-3.69h3.7l2.61-2.61,2.61,2.61Zm0-20.25h3.7v3.69l2.61,2.61-2.61,2.61v3.69h-3.7l-2.61,2.61-2.61-2.61h-3.7v-3.69l-2.61-2.61,2.61-2.61v-3.69h3.7l2.61-2.61,2.61,2.61Zm0-20.25h3.7v3.69l2.61,2.61-2.61,2.61v3.69h-3.7l-2.61,2.61-2.61-2.61h-3.7v-3.69l-2.61-2.61,2.61-2.61v-3.69h3.7l2.61-2.61,2.61,2.61Zm-2.61-5.04l-2.61-2.61h-3.7v-3.69l-2.61-2.61,2.61-2.61v-3.69h3.7l2.61-2.61,2.61,2.61h3.7v3.69l2.61,2.61-2.61,2.61v3.69h-3.7l-2.61,2.61Z" style="fill: rgba(17, 78, 116, .2);"/>
</svg>