<svg width="343" height="86" viewBox="0 0 343 86" fill="none" xmlns="http://www.w3.org/2000/svg">
<path d="M178.577 38.7807H187.877L192.048 43.0004L187.877 47.2201H178.577V56.6294L172.001 63.2831L178.577 69.9369V79.3463H187.877L194.453 86L201.03 79.3463H210.33V69.9369L214.5 65.7172L218.671 69.9369V79.3463H227.971L234.547 86L241.123 79.3463H250.424V69.9369L257 63.2831L250.424 56.6294V47.2201H241.123L236.953 43.0004L241.123 38.7807H250.424V29.3706L257 22.7169L250.424 16.0631V6.65374H241.123L234.547 0L227.971 6.65374H218.67V16.0631L214.5 20.2828L210.329 16.0631V6.65374H201.029L194.453 0L187.877 6.65374H178.576V16.0631L172 22.7169L178.576 29.3706L178.577 38.7807ZM206.927 68.5119V75.9054H199.62L194.453 81.1334L189.286 75.9054H181.98V68.5119L176.813 63.2839L181.98 58.056V50.6624H189.286L194.453 45.4345L199.62 50.6624H206.927V58.056L212.094 63.2839L206.927 68.5119ZM239.714 50.6624H247.02V58.056L252.187 63.2839L247.02 68.5119V75.9054H239.714L234.547 81.1334L229.38 75.9054H222.073V68.5119L216.906 63.2839L222.073 58.056V50.6624H229.38L234.547 45.4345L239.714 50.6624ZM222.072 17.4897V10.0961H229.379L234.546 4.86818L239.713 10.0961H247.019V17.4897L252.186 22.7176L247.019 27.9456V35.3392H239.713L234.546 40.5671L229.379 35.3392H222.072V27.9456L216.905 22.7176L222.072 17.4897ZM218.67 29.3706V38.7807H227.97L232.141 43.0004L227.97 47.2201H218.67V56.6294L214.5 60.8491L210.329 56.6294V47.2201H201.029L196.858 43.0004L201.029 38.7807H210.329V29.3706L214.5 25.1509L218.67 29.3706ZM176.812 22.7176L181.979 17.4897V10.0961H189.286L194.453 4.86818L199.62 10.0961H206.926V17.4897L212.093 22.7176L206.926 27.9456V35.3392H199.62L194.453 40.5671L189.286 35.3392H181.979V27.9456L176.812 22.7176Z" fill="url(#paint0_linear_394_2922)" fill-opacity="0.6"/>
<path d="M263.654 38.7807H273.064L277.284 43.0004L273.064 47.2201H263.654V56.6294L257 63.2831L263.654 69.9369V79.3463H273.064L279.718 86L286.371 79.3463H295.781V69.9369L300 65.7172L304.22 69.9369V79.3463H313.63L320.283 86L326.937 79.3463H336.346V69.9369L343 63.2831L336.346 56.6294V47.2201H326.937L322.717 43.0004L326.937 38.7807H336.346V29.3706L343 22.7169L336.346 16.0631V6.65374H326.937L320.283 0L313.63 6.65374H304.219V16.0631L300 20.2828L295.78 16.0631V6.65374H286.37L279.717 0L273.063 6.65374H263.654V16.0631L257 22.7169L263.654 29.3706L263.654 38.7807ZM292.338 68.5119V75.9054H284.945L279.718 81.1334L274.49 75.9054H267.097V68.5119L261.87 63.2839L267.097 58.056V50.6624H274.49L279.718 45.4345L284.945 50.6624H292.338V58.056L297.566 63.2839L292.338 68.5119ZM325.51 50.6624H332.903V58.056L338.13 63.2839L332.903 68.5119V75.9054H325.51L320.282 81.1334L315.055 75.9054H307.662V68.5119L302.434 63.2839L307.662 58.056V50.6624H315.055L320.282 45.4345L325.51 50.6624ZM307.661 17.4897V10.0961H315.054L320.282 4.86818L325.509 10.0961H332.902V17.4897L338.13 22.7176L332.902 27.9456V35.3392H325.509L320.282 40.5671L315.054 35.3392H307.661V27.9456L302.434 22.7176L307.661 17.4897ZM304.219 29.3706V38.7807H313.629L317.848 43.0004L313.629 47.2201H304.219V56.6294L300 60.8491L295.78 56.6294V47.2201H286.37L282.151 43.0004L286.37 38.7807H295.78V29.3706L300 25.1509L304.219 29.3706ZM261.869 22.7176L267.097 17.4897V10.0961H274.489L279.717 4.86818L284.945 10.0961H292.337V17.4897L297.565 22.7176L292.337 27.9456V35.3392H284.945L279.717 40.5671L274.489 35.3392H267.097V27.9456L261.869 22.7176Z" fill="url(#paint1_linear_394_2922)" fill-opacity="0.6"/>
<path d="M92.6536 38.7807H102.063L106.283 43.0004L102.063 47.2201H92.6536V56.6294L86 63.2831L92.6536 69.9369V79.3463H102.063L108.717 86L115.371 79.3463H124.78V69.9369L129 65.7172L133.22 69.9369V79.3463H142.629L149.283 86L155.937 79.3463H165.346V69.9369L172.001 63.2831L165.346 56.6294V47.2201H155.937L151.717 43.0004L155.937 38.7807H165.346V29.3706L172 22.7169L165.346 16.0631V6.65374H155.937L149.283 0L142.629 6.65374H133.22V16.0631L129 20.2828L124.78 16.0631V6.65374H115.371L108.717 0L102.063 6.65374H92.6536V16.0631L86 22.7169L92.6536 29.3706V38.7807ZM121.338 68.5119V75.9054H113.946L108.718 81.1334L103.49 75.9054H96.0974V68.5119L90.8696 63.2839L96.0974 58.056V50.6624H103.49L108.718 45.4345L113.946 50.6624H121.338V58.056L126.566 63.2839L121.338 68.5119ZM154.511 50.6624H161.903V58.056L167.131 63.2839L161.903 68.5119V75.9054H154.511L149.283 81.1334L144.055 75.9054H136.663V68.5119L131.435 63.2839L136.663 58.056V50.6624H144.055L149.283 45.4345L154.511 50.6624ZM136.662 17.4897V10.0961H144.054L149.282 4.86818L154.51 10.0961H161.903V17.4897L167.13 22.7176L161.903 27.9456V35.3392H154.51L149.282 40.5671L144.054 35.3392H136.662V27.9456L131.434 22.7176L136.662 17.4897ZM133.22 29.3706V38.7807H142.629L146.849 43.0004L142.629 47.2201H133.22V56.6294L129 60.8491L124.78 56.6294V47.2201H115.371L111.151 43.0004L115.371 38.7807H124.78V29.3706L129 25.1509L133.22 29.3706ZM90.8688 22.7176L96.0966 17.4897V10.0961H103.489L108.717 4.86818L113.945 10.0961H121.337V17.4897L126.565 22.7176L121.337 27.9456V35.3392H113.945L108.717 40.5671L103.489 35.3392H96.0966V27.9456L90.8688 22.7176Z" fill="url(#paint2_linear_394_2922)" fill-opacity="0.6"/>
<path d="M6.65356 38.7807H16.0634L20.283 43.0004L16.0634 47.2201H6.65356V56.6294L0 63.2831L6.65356 69.9369V79.3463H16.0634L22.717 86L29.3706 79.3463H38.7805V69.9369L43 65.7172L47.2195 69.9369V79.3463H56.6294L63.283 86L69.9365 79.3463H79.3464V69.9369L86 63.2831L79.3464 56.6294V47.2201H69.9358L65.7162 43.0004L69.9358 38.7807H79.3457V29.3706L86 22.7169L79.3457 16.0631V6.65374H69.9358L63.2822 0L56.6286 6.65374H47.2195V16.0631L43 20.2828L38.7805 16.0631V6.65374H29.3706L22.717 0L16.0634 6.65374H6.65356V16.0631L0 22.7176L6.65356 29.3714V38.7807ZM35.3382 68.5119V75.9054H27.9456L22.7178 81.1334L17.49 75.9054H10.0974V68.5119L4.8696 63.2839L10.0974 58.056V50.6624H17.49L22.7178 45.4345L27.9456 50.6624H35.3382V58.056L40.566 63.2839L35.3382 68.5119ZM68.5108 50.6624H75.9034V58.056L81.1312 63.2839L75.9034 68.5119V75.9054H68.5108L63.283 81.1334L58.0552 75.9054H50.6626V68.5119L45.4348 63.2839L50.6626 58.056V50.6624H58.0552L63.283 45.4345L68.5108 50.6624ZM50.6618 17.4897V10.0961H58.0544L63.2822 4.86818L68.51 10.0961H75.9026V17.4897L81.1304 22.7176L75.9026 27.9456V35.3392H68.51L63.2822 40.5671L58.0544 35.3392H50.6618V27.9456L45.434 22.7176L50.6618 17.4897ZM47.2195 29.3706V38.7807H56.6294L60.849 43.0004L56.6294 47.2201H47.2195V56.6294L43 60.8491L38.7805 56.6294V47.2201H29.3706L25.151 43.0004L29.3706 38.7807H38.7805V29.3706L43 25.1509L47.2195 29.3706ZM4.86804 22.7176L10.0958 17.4897V10.0961H17.4884L22.7162 4.86818L27.944 10.0961H35.3366V17.4897L40.5644 22.7176L35.3366 27.9456V35.3392H27.944L22.7162 40.5671L17.4884 35.3392H10.0958V27.9456L4.86804 22.7176Z" fill="url(#paint3_linear_394_2922)" fill-opacity="0.6"/>
<defs>
<linearGradient id="paint0_linear_394_2922" x1="140.5" y1="80.5" x2="143.5" y2="2.35824e-06" gradientUnits="userSpaceOnUse">
<stop stop-color="#124D73" stop-opacity="0"/>
<stop offset="0.537" stop-color="#124D73"/>
</linearGradient>
<linearGradient id="paint1_linear_394_2922" x1="140.5" y1="80.5" x2="143.5" y2="2.35824e-06" gradientUnits="userSpaceOnUse">
<stop stop-color="#124D73" stop-opacity="0"/>
<stop offset="0.537" stop-color="#124D73"/>
</linearGradient>
<linearGradient id="paint2_linear_394_2922" x1="140.5" y1="80.5" x2="143.5" y2="2.35824e-06" gradientUnits="userSpaceOnUse">
<stop stop-color="#124D73" stop-opacity="0"/>
<stop offset="0.537" stop-color="#124D73"/>
</linearGradient>
<linearGradient id="paint3_linear_394_2922" x1="140.5" y1="80.5" x2="143.5" y2="2.35824e-06" gradientUnits="userSpaceOnUse">
<stop stop-color="#124D73" stop-opacity="0"/>
<stop offset="0.537" stop-color="#124D73"/>
</linearGradient>
</defs>
</svg>
