<svg width="40" height="40" viewBox="0 0 40 40" fill="none" xmlns="http://www.w3.org/2000/svg">
<g clip-path="url(#clip0_192_1494)">
<rect width="40" height="40" rx="20" fill="#EAFDFF"/>
<g clip-path="url(#clip1_192_1494)">
<path d="M31.9774 30.5178L31.3479 27.2188C31.3474 27.2168 31.3471 27.2148 31.3466 27.2127C31.2382 26.6945 30.7751 26.3184 30.2454 26.3184H29.6614V21.4103C29.6614 19.8497 29.1375 18.3403 28.1862 17.1603C27.5088 16.3198 26.755 15.7984 25.9375 15.6023C26.2597 15.2338 26.5056 14.7888 26.6424 14.2855C26.795 13.7573 27.0079 13.1376 27.0143 12.5844C27.0237 11.7822 26.5524 11.0348 25.8079 10.7047C25.7148 10.6634 24.1237 10.2227 24.1237 10.2227C23.0527 9.93133 21.9209 10.5856 21.6309 11.6527L21.0236 13.974C20.6344 15.404 21.7368 16.6069 23.1176 16.7339V20.0363L23.0702 20.163L20.2697 19.1157C19.9687 19.003 19.6176 19.1055 19.4251 19.3626C19.1396 19.2678 18.8078 19.2061 18.5616 19.0297C18.3318 18.865 18.1331 18.619 17.9285 18.4229C17.7813 18.2818 17.571 18.2382 17.3797 18.309C17.1885 18.3799 17.0574 18.5499 17.0376 18.7529C16.9792 19.3512 16.9108 19.94 17.3986 20.3984L18.759 21.6767C18.7926 21.7085 18.8338 21.7338 18.8771 21.7501L23.1148 23.335C23.094 23.5094 22.9454 23.6452 22.7655 23.6452H18.7754C17.6763 23.6452 16.7821 24.5394 16.7821 25.6385V27.589C16.7821 28.688 17.6762 29.582 18.7754 29.582H25.6025L26.0987 30.1599C26.2188 30.2998 26.3934 30.38 26.5778 30.38H27.3512C27.8303 30.38 28.1072 29.8663 27.9128 29.4507C28.9342 29.1079 29.6613 28.1321 29.6613 27.0258V27.0244H30.2453C30.4418 27.0244 30.6138 27.1632 30.6551 27.3549L31.2845 30.6528C31.3324 30.9105 31.1475 31.1645 30.8749 31.1645H9.1248C8.85479 31.1645 8.66439 30.9103 8.71526 30.6528L9.34466 27.3548C9.38598 27.1632 9.55788 27.0244 9.75439 27.0244H15.4558C15.6507 27.0244 15.8088 26.8664 15.8088 26.6714C15.8088 26.4765 15.6507 26.3185 15.4558 26.3185H9.75453C9.2249 26.3185 8.76175 26.6946 8.65338 27.2128C8.65296 27.2149 8.65253 27.2169 8.65216 27.2189L8.02257 30.5176C7.88097 31.2056 8.42449 31.8703 9.12495 31.8703H30.8751C31.5755 31.8703 32.1189 31.206 31.9774 30.5178ZM22.9331 11.0324C23.24 10.8566 23.5971 10.8109 23.9385 10.9038L25.3312 11.2823C26.036 11.474 26.4536 12.2031 26.262 12.9078C26.2414 12.9833 26.2236 13.0596 26.2044 13.1355L22.2764 11.9743C22.3703 11.581 22.5736 11.2382 22.9331 11.0324ZM22.7297 15.9491C21.9602 15.7402 21.496 14.926 21.7055 14.156L22.0976 12.6575L26.0317 13.8205L25.9603 14.1034C25.7755 14.7804 25.3384 15.3451 24.7292 15.6939C24.1206 16.0423 23.413 16.1335 22.7363 15.9511C22.7341 15.9504 22.7319 15.9497 22.7297 15.9491ZM17.6871 19.3654L17.7046 19.186C18.155 19.6178 18.5617 19.8197 19.1493 20.0147L18.856 20.7991L17.8821 19.884C17.7412 19.7516 17.6683 19.5578 17.6871 19.3654ZM17.4881 27.589V25.6385C17.4881 24.9285 18.0656 24.351 18.7756 24.351H20.7543V26.3183H20C19.8051 26.3183 19.6471 26.4762 19.6471 26.6712C19.6471 26.8662 19.8051 27.0241 20 27.0241H24.616C24.6356 27.0241 24.6516 27.0401 24.6516 27.0598V28.8759L18.7756 28.8761C18.0656 28.8761 17.4881 28.2987 17.4881 27.589ZM26.6121 29.6741L26.0324 28.9989C25.8711 28.811 25.5703 28.8759 25.3574 28.8759V27.7103H26.0885C26.3259 27.7103 26.5349 27.8533 26.6209 28.0746L27.2424 29.6741L26.6121 29.6741ZM28.9555 27.0257C28.9555 27.8386 28.4135 28.5541 27.6569 28.7919L27.2788 27.8189C27.0865 27.3241 26.6193 27.0044 26.0885 27.0044H25.3546C25.3261 26.6214 25.0061 26.3182 24.6159 26.3182H21.4602V24.3509H22.7655C23.2825 24.3509 23.7139 23.978 23.8052 23.4871C23.8114 23.4871 23.8175 23.4875 23.8235 23.4875C24.0594 23.4875 24.2947 23.4369 24.5158 23.3362C24.9222 23.151 25.2322 22.8187 25.3885 22.4004L25.8568 21.1484C25.9251 20.9658 25.8324 20.7624 25.6499 20.6942C25.4676 20.6258 25.264 20.7185 25.1958 20.9011L24.7275 22.1532C24.6371 22.3949 24.458 22.5869 24.2232 22.6938C23.9884 22.8007 23.7261 22.8098 23.4844 22.7195L19.455 21.2125L19.9857 19.7935C19.9933 19.7778 20.0056 19.7722 20.0224 19.7768L23.1535 20.9478C23.336 21.0162 23.5394 20.9235 23.6076 20.7409L24.5233 18.2927C24.7586 17.6636 25.6732 17.6485 25.949 18.2539C26.0328 18.438 26.04 18.6438 25.9691 18.8333L25.7784 19.3433C25.7101 19.5259 25.8028 19.7292 25.9853 19.7974C26.1678 19.8658 26.3713 19.773 26.4395 19.5905L26.6302 19.0806C26.7672 18.7145 26.7533 18.3169 26.5913 17.9613C26.4292 17.6056 26.1384 17.3344 25.7724 17.1975C24.9553 16.89 24.0993 17.3365 23.8234 18.1492V16.7234C24.324 16.6621 24.8009 16.4876 25.2195 16.2201C26.0932 16.2322 26.9063 16.6973 27.6365 17.6034C28.4871 18.6584 28.9555 20.0105 28.9555 21.4104V27.0257H28.9555Z" fill="#49454F"/>
<path d="M13.008 16.8242C14.8373 16.8242 16.37 15.283 16.3832 13.4594C16.3839 13.2405 16.2354 13.0513 16.0222 12.9994C15.8095 12.9476 15.5908 13.0471 15.4908 13.2415C15.1932 13.8201 14.5801 14.1796 13.93 14.1579C13.0461 14.1282 12.3304 13.4125 12.3007 12.5286C12.2788 11.8781 12.6385 11.2655 13.2171 10.9678C13.6701 10.7347 13.4587 10.0632 12.9692 10.0755C11.1597 10.0963 9.66386 11.5852 9.63473 13.3943C9.61986 14.3169 9.97072 15.184 10.6227 15.8359C11.2613 16.4746 12.1065 16.8242 13.008 16.8242ZM12.1657 10.9198C11.7867 11.3674 11.5748 11.9484 11.5952 12.5523C11.6373 13.806 12.6525 14.8211 13.9062 14.8633C14.5101 14.883 15.0911 14.6719 15.5386 14.2929C14.9152 16.1329 12.5042 16.7192 11.1218 15.3368C10.6062 14.8212 10.3287 14.1354 10.3405 13.4056C10.359 12.2574 11.1246 11.2725 12.1657 10.9198Z" fill="#49454F"/>
<path d="M15.6723 9.9146C15.87 9.9146 16.0302 9.75438 16.0302 9.55673C16.0302 9.35908 15.87 9.19885 15.6723 9.19885C15.4747 9.19885 15.3145 9.35908 15.3145 9.55673C15.3145 9.75438 15.4747 9.9146 15.6723 9.9146Z" fill="#49454F"/>
<path d="M17.331 11.7007C17.5287 11.7007 17.6889 11.5405 17.6889 11.3429C17.6889 11.1452 17.5287 10.985 17.331 10.985C17.1334 10.985 16.9731 11.1452 16.9731 11.3429C16.9731 11.5405 17.1334 11.7007 17.331 11.7007Z" fill="#49454F"/>
<path d="M17.6889 8.84539C17.8866 8.84539 18.0468 8.68516 18.0468 8.48751C18.0468 8.28986 17.8866 8.12964 17.6889 8.12964C17.4913 8.12964 17.3311 8.28986 17.3311 8.48751C17.3311 8.68516 17.4913 8.84539 17.6889 8.84539Z" fill="#49454F"/>
<path d="M11.6016 27.6924C11.2735 27.6924 10.9966 27.9273 10.9431 28.251L10.7038 29.699C10.6718 29.8927 10.7263 30.0898 10.8533 30.2396C10.9803 30.3893 11.1659 30.4752 11.3623 30.4752H15.0002C15.3682 30.4752 15.6676 30.1758 15.6676 29.8078V28.3597C15.6676 27.9917 15.3682 27.6923 15.0002 27.6923L11.6016 27.6924ZM14.9618 29.7694H11.4076L11.6341 28.3982H14.9617V29.7694H14.9618Z" fill="#49454F"/>
<path d="M25.5884 24.0316C25.4505 23.8938 25.227 23.8938 25.0892 24.0316C24.9514 24.1695 24.9514 24.3929 25.0892 24.5308L26.4747 25.9162C26.5436 25.9851 26.634 26.0196 26.7243 26.0196C26.8146 26.0196 26.9049 25.9851 26.9739 25.9162C27.1117 25.7784 27.1117 25.5549 26.9739 25.4171L25.5884 24.0316Z" fill="#49454F"/>
</g>
</g>
<defs>
<clipPath id="clip0_192_1494">
<rect width="40" height="40" rx="20" fill="white"/>
</clipPath>
<clipPath id="clip1_192_1494">
<rect width="24" height="24" fill="white" transform="translate(8 8)"/>
</clipPath>
</defs>
</svg>
