<svg width="40" height="40" viewBox="0 0 40 40" fill="none" xmlns="http://www.w3.org/2000/svg">
<g clip-path="url(#clip0_192_1470)">
<rect width="40" height="40" rx="20" fill="#FFFCE2"/>
<g clip-path="url(#clip1_192_1470)">
<path d="M31.9778 30.485L31.3482 27.1862C31.3478 27.1842 31.3474 27.1822 31.347 27.1801C31.2386 26.6619 30.7755 26.2858 30.2458 26.2858H29.6619V21.3778C29.6619 19.8173 29.1379 18.308 28.1866 17.1279C27.4155 16.171 26.3588 15.4638 25.0948 15.4822C25.3706 14.61 25.2886 13.5947 24.8056 12.8061L24.2022 11.7979C23.6441 10.8304 22.3936 10.4394 21.4058 11.0059L20.1541 11.7242C19.1917 12.2762 18.8537 13.5375 19.4052 14.4986L20.619 16.5683C21.1141 17.4317 22.1684 17.851 23.1181 17.564V20.0038L23.0707 20.1305L20.3518 19.1137C20.0468 18.9996 19.6661 19.0941 19.4498 19.3381C18.7632 19.1102 18.4516 18.8912 17.9292 18.3905C17.782 18.2494 17.5717 18.2057 17.3804 18.2766C17.018 18.4108 16.9839 18.9322 16.9852 19.2644C16.9453 19.673 17.1001 20.0848 17.3993 20.3659C17.8105 20.7523 18.338 21.5154 18.8777 21.7176L23.1181 23.3034V23.6126H18.7761C17.677 23.6126 16.7828 24.5068 16.7828 25.6059V26.2858H15.263L13.7231 24.8822L15.3637 23.3867C15.5078 23.2554 15.5181 23.0322 15.3869 22.8881C15.2555 22.7441 15.0323 22.7338 14.8883 22.865L13.1992 24.4047L11.5102 22.865C11.3661 22.7338 11.1429 22.7441 11.0116 22.8881C10.8803 23.0322 10.8906 23.2554 11.0347 23.3867L12.6753 24.8822L11.1354 26.2859H9.75531C9.22568 26.2859 8.76255 26.662 8.65417 27.1802C8.65375 27.1822 8.65333 27.1843 8.65295 27.1863L8.02338 30.485C7.95495 30.8174 8.03834 31.1587 8.25245 31.4221C8.46712 31.6862 8.78542 31.8377 9.12573 31.8377H30.8755C31.5712 31.8377 32.1185 31.1689 31.9778 30.485ZM19.8861 13.1389C19.9786 12.7974 20.1985 12.5125 20.5054 12.3365L21.7571 11.6181C22.4956 11.1945 23.3253 11.6038 23.6856 12.3093L20.0888 14.269C19.8769 13.9353 19.7807 13.5279 19.8861 13.1389ZM22.115 16.8991C21.7389 16.7973 21.4251 16.5551 21.2296 16.2142L20.4461 14.8782L24.0484 12.9155C24.8811 14.2107 24.6119 15.9551 23.2285 16.7527C22.8828 16.9406 22.4986 17.003 22.115 16.8991ZM17.6877 19.333L17.7052 19.1536C18.1306 19.5958 18.5696 19.8087 19.15 19.9823L18.8566 20.7667L17.8827 19.8516C17.7418 19.7192 17.669 19.5254 17.6877 19.333ZM17.4887 25.606C17.4887 24.896 18.0662 24.3185 18.7762 24.3185H23.4711C23.666 24.3185 23.824 24.1605 23.824 23.9656V23.4541C24.5007 23.4531 25.1385 23.0383 25.3891 22.3681L26.6306 19.0484C26.7615 18.6985 26.7543 18.316 26.6102 17.9714C26.535 17.7915 26.3283 17.7069 26.1485 17.7819C25.9686 17.8571 25.8838 18.0638 25.959 18.2437C26.0335 18.422 26.0373 18.62 25.9695 18.8012L24.728 22.1209C24.5414 22.6197 23.9837 22.8737 23.4849 22.6872L19.4556 21.1802L19.9394 19.8865C19.9656 19.8167 20.0126 19.7407 20.1045 19.775L23.154 20.9154C23.3366 20.9838 23.5399 20.8911 23.6082 20.7085L24.5239 18.2602C24.5946 18.0711 24.7346 17.9208 24.9182 17.8368C25.0955 17.7557 25.1735 17.5463 25.0924 17.3691C25.0114 17.1918 24.8019 17.1137 24.6247 17.1949C24.2379 17.3718 23.9599 17.7198 23.8239 18.1168V17.2095C24.2132 16.9388 24.5353 16.5928 24.7752 16.1922C25.9621 16.141 26.8928 16.6477 27.637 17.571C28.4876 18.6261 28.956 19.9781 28.956 21.378V23.6128H25.1282C24.9333 23.6128 24.7752 23.7707 24.7752 23.9657C24.7752 24.1607 24.9333 24.3186 25.1282 24.3186H28.956V26.9933C28.956 27.8062 28.4139 28.5218 27.6574 28.7594L27.2793 27.7865C27.087 27.2917 26.6198 26.972 26.089 26.972H25.3579C25.3535 26.6003 25.0705 26.2858 24.6879 26.2858H20.8442C20.6493 26.2858 20.4913 26.4438 20.4913 26.6388C20.4913 26.8337 20.6493 26.9917 20.8442 26.9917H24.6521V28.8434L18.7762 28.8436C18.0663 28.8436 17.4887 28.2662 17.4887 27.5566V25.606ZM26.0328 28.9664C25.9668 28.8895 25.8664 28.8433 25.7651 28.8433H25.3579V27.6777H26.089C26.3264 27.6777 26.5354 27.8207 26.6214 28.042L27.2429 29.6415H26.6126L26.0328 28.9664ZM13.1993 25.3598L14.2153 26.2859H12.1832L13.1993 25.3598ZM31.201 30.9769C31.121 31.0754 31.0023 31.1318 30.8754 31.1318H9.12569C8.99882 31.1318 8.88014 31.0754 8.80015 30.9769C8.72001 30.8783 8.689 30.7505 8.71497 30.6261C8.7154 30.6241 8.71577 30.6221 8.71615 30.6201L9.34554 27.3222C9.38685 27.1306 9.55875 26.9917 9.75526 26.9917H16.7827V27.5564C16.7827 28.6554 17.6769 29.5493 18.7761 29.5493H25.6031L26.0994 30.1273C26.2195 30.2672 26.394 30.3474 26.5784 30.3474H27.3517C27.8547 30.3474 28.067 29.8314 27.9134 29.418C28.9348 29.0752 29.6619 28.0994 29.6619 26.9932V26.9917H30.2458C30.4424 26.9917 30.6143 27.1306 30.6556 27.3222L31.285 30.6201C31.3098 30.7401 31.2818 30.8591 31.201 30.9769Z" fill="#49454F"/>
<path d="M9.12636 12.9241H10.1656C10.2274 13.5006 10.4516 14.0289 10.7911 14.4632L10.0645 15.1897C9.92671 15.3275 9.92671 15.551 10.0645 15.6887C10.1334 15.7577 10.2238 15.7921 10.3141 15.7921C10.4044 15.7921 10.4947 15.7577 10.5636 15.6888L11.2869 14.9656C11.72 15.3131 12.2499 15.5442 12.8293 15.6116V16.627C12.8293 16.8219 12.9873 16.9799 13.1822 16.9799C13.3771 16.9799 13.5351 16.8219 13.5351 16.627V15.6116C14.1144 15.5441 14.6441 15.313 15.0771 14.9656L15.8003 15.6888C15.8692 15.7577 15.9596 15.7921 16.0499 15.7921C16.1402 15.7921 16.2305 15.7577 16.2994 15.6887C16.4372 15.5509 16.4372 15.3274 16.2994 15.1897L15.573 14.4632C15.9125 14.0289 16.1367 13.5006 16.1985 12.924H17.238C17.433 12.924 17.591 12.7661 17.591 12.5711C17.591 12.3762 17.433 12.2182 17.238 12.2182H16.1915C16.12 11.6496 15.8909 11.1297 15.5489 10.7035L16.2994 9.95306C16.4372 9.81518 16.4372 9.59176 16.2994 9.45393C16.1616 9.31614 15.9381 9.31614 15.8003 9.45393L15.0466 10.2077C14.6193 9.87377 14.1009 9.65175 13.5352 9.58587V8.51528C13.5352 8.32032 13.3772 8.16235 13.1823 8.16235C12.9873 8.16235 12.8293 8.32032 12.8293 8.51528V9.58578C12.2635 9.65166 11.7449 9.87372 11.3175 10.2078L10.5637 9.45393C10.4258 9.31614 10.2024 9.31614 10.0646 9.45393C9.92676 9.5918 9.92676 9.81523 10.0646 9.95306L10.8151 10.7036C10.4732 11.1298 10.2442 11.6497 10.1727 12.2182H9.12636C8.93145 12.2182 8.77344 12.3762 8.77344 12.5712C8.77344 12.7661 8.93145 12.9241 9.12636 12.9241ZM13.1815 10.2705C13.1817 10.2705 13.1819 10.2705 13.1822 10.2705H13.1827C14.4662 10.2709 15.5103 11.3152 15.5103 12.5987C15.5103 13.8819 14.4669 14.9259 13.1839 14.9269C13.1833 14.9269 13.1828 14.9268 13.1822 14.9268C13.1816 14.9268 13.181 14.9269 13.1803 14.9269C11.8973 14.926 10.8538 13.8819 10.8538 12.5987C10.8538 11.3151 11.898 10.2707 13.1815 10.2705Z" fill="#49454F"/>
</g>
</g>
<defs>
<clipPath id="clip0_192_1470">
<rect width="40" height="40" rx="20" fill="white"/>
</clipPath>
<clipPath id="clip1_192_1470">
<rect width="24" height="24" fill="white" transform="translate(8 8)"/>
</clipPath>
</defs>
</svg>
