<svg width="40" height="40" viewBox="0 0 40 40" fill="none" xmlns="http://www.w3.org/2000/svg">
<g clip-path="url(#clip0_192_1556)">
<rect width="40" height="40" rx="20" fill="#ECEBE3"/>
<g clip-path="url(#clip1_192_1556)">
<path d="M30.923 21.9083C31.1172 21.9083 31.2746 21.7509 31.2746 21.5567V19.5893C31.2746 18.7932 30.6269 18.1454 29.8308 18.1454C29.566 18.1454 29.3119 18.2163 29.0901 18.3493V15.2672C29.0901 14.4711 28.4427 13.8234 27.6468 13.8234C27.382 13.8234 27.1279 13.8943 26.9061 14.0272C26.9679 13.1692 26.3707 12.3674 25.4623 12.3674C24.5507 12.3674 23.9835 13.1851 24.019 14.0283C23.0809 13.4654 21.8345 14.1885 21.8345 15.2673V16.1662C21.2352 15.8067 20.4597 15.9386 20.0077 16.4543C19.5719 15.939 18.749 15.7961 18.1648 16.1466V15.2475C18.1648 14.1479 16.9269 13.4409 15.9807 14.0086C16.0429 13.1503 15.4459 12.3477 14.537 12.3477C13.6282 12.3477 13.0312 13.1502 13.0934 14.0086C12.8768 13.8786 12.6234 13.8038 12.3529 13.8038C11.5569 13.8038 10.9092 14.4514 10.9092 15.2475V18.3307C10.6926 18.2008 10.4392 18.1259 10.1688 18.1259C9.37275 18.1259 8.7251 18.7735 8.7251 19.5696V23.9072C8.7251 25.6051 9.53804 27.1854 10.9092 28.1724V29.0927H9.80444C9.61027 29.0927 9.45286 29.2501 9.45286 29.4443V31.6287C9.45286 31.823 9.61027 31.9803 9.80444 31.9803H19.2694C19.4635 31.9803 19.6209 31.823 19.6209 31.6287V29.4443C19.6209 29.2501 19.4635 29.0927 19.2694 29.0927H18.1648V28.1724C19.0034 27.5688 19.6331 26.7433 19.9959 25.8047C20.3573 26.7515 20.99 27.5844 21.8345 28.1921V29.1124H20.73C20.5359 29.1124 20.3785 29.2698 20.3785 29.464V31.6485C20.3785 31.8427 20.5359 32.0001 20.73 32.0001H24.6963C24.8905 32.0001 25.0479 31.8427 25.0479 31.6485C25.0479 31.4543 24.8905 31.2969 24.6963 31.2969H21.0816V29.8155H29.8434V31.2969H26.2287C26.0345 31.2969 25.8771 31.4543 25.8771 31.6485C25.8771 31.8427 26.0345 32.0001 26.2287 32.0001H30.195C30.3891 32.0001 30.5465 31.8427 30.5465 31.6485V29.464C30.5465 29.2698 30.3891 29.1124 30.195 29.1124H29.0901V28.192C30.4413 27.2182 31.2745 25.5937 31.2745 23.9269V23.0892C31.2745 22.895 31.1171 22.7376 30.923 22.7376C30.7288 22.7376 30.5714 22.895 30.5714 23.0892V23.9269C30.5714 25.4241 29.7869 26.887 28.5436 27.7154C28.4457 27.7806 28.3869 27.8904 28.3869 28.008V29.1124H22.5376V28.008C22.5376 27.8904 22.4788 27.7806 22.381 27.7154C21.1115 26.8694 20.3536 25.4531 20.3536 23.9269V17.4053C20.3956 16.9537 20.6425 16.7069 21.0942 16.6647C21.4804 16.6647 21.8245 17.0375 21.8346 17.415V21.4556C21.8346 21.6498 21.992 21.8072 22.1861 21.8072C22.3803 21.8072 22.5377 21.6498 22.5377 21.4556L22.5376 15.2673C22.5796 14.8156 22.8265 14.5688 23.2782 14.5266C23.6835 14.5266 24.0138 14.8538 24.0188 15.2578C24.0187 15.2609 24.0187 21.4556 24.0187 21.4556C24.0187 21.6498 24.1761 21.8071 24.3703 21.8071C24.5644 21.8071 24.7218 21.6498 24.7218 21.4556L24.722 13.8112C24.764 13.3598 25.0107 13.113 25.4622 13.0706C25.8706 13.0706 26.2029 13.4029 26.2029 13.8112V21.4556C26.2029 21.6498 26.3603 21.8071 26.5545 21.8071C26.7486 21.8071 26.906 21.6498 26.906 21.4556V15.2672C26.948 14.8156 27.1949 14.5687 27.6467 14.5266C28.0548 14.5266 28.3869 14.8589 28.3869 15.2672L28.387 22.2085C28.387 22.4265 28.1969 22.5422 28.0105 22.5601C26.6123 22.5601 25.4748 23.6976 25.4748 25.0958C25.4748 25.29 25.6322 25.4474 25.8264 25.4474C26.0206 25.4474 26.178 25.29 26.178 25.0958C26.178 24.0853 27.0001 23.2632 28.0105 23.2632C28.5555 23.189 29.0902 22.8428 29.0902 22.2085V19.5893C29.0902 19.2149 29.4635 18.8486 29.8307 18.8486C30.2391 18.8486 30.5713 19.1809 30.5713 19.5893V21.5567C30.5714 21.7509 30.7288 21.9083 30.923 21.9083ZM19.6458 23.9071C19.6458 25.4331 18.8879 26.8494 17.6183 27.6957C17.5205 27.7609 17.4617 27.8707 17.4617 27.9882V29.0927H15.3031C15.109 29.0927 14.9516 29.25 14.9516 29.4442C14.9516 29.6384 15.109 29.7958 15.3031 29.7958H18.9178V31.2771H10.156V29.7958H13.7707C13.9649 29.7958 14.1223 29.6384 14.1223 29.4442C14.1223 29.25 13.9649 29.0927 13.7707 29.0927H11.6123V27.9882C11.6123 27.8707 11.5536 27.7609 11.4558 27.6957C10.1862 26.8493 9.4282 25.433 9.4282 23.9071V19.5696C9.4282 19.1613 9.76037 18.829 10.1687 18.829C10.577 18.829 10.9092 19.1613 10.9092 19.5696V22.1888C10.9092 22.8231 11.4438 23.1693 11.9888 23.2435C12.9993 23.2435 13.8214 24.0656 13.8214 25.0761C13.8214 25.2703 13.9788 25.4277 14.1729 25.4277C14.3671 25.4277 14.5245 25.2703 14.5245 25.0761C14.5245 23.6779 13.387 22.5403 11.9888 22.5403C11.8024 22.5224 11.6123 22.4068 11.6123 22.1888V15.2474C11.6123 14.8391 11.9445 14.5069 12.3529 14.5069C12.7612 14.5069 13.0933 14.839 13.0933 15.2473V21.4358C13.0933 21.63 13.2507 21.7874 13.4449 21.7874C13.6391 21.7874 13.7965 21.63 13.7965 21.4358V13.7913C13.7965 13.383 14.1286 13.0508 14.537 13.0508C14.9453 13.0508 15.2775 13.383 15.2775 13.7913V21.4358C15.2775 21.63 15.4349 21.7874 15.6291 21.7874C15.8232 21.7874 15.9807 21.63 15.9807 21.4358V15.2474C15.9807 14.8391 16.3128 14.5069 16.7211 14.5069C17.1294 14.5069 17.4616 14.8391 17.4616 15.2474V21.4358C17.4616 21.63 17.6191 21.7874 17.8132 21.7874C18.0074 21.7874 18.1648 21.63 18.1648 21.4358V17.3854C18.1648 16.9771 18.497 16.6449 18.9053 16.6449C19.3136 16.6449 19.6458 16.9771 19.6458 17.3854V23.9071H19.6458Z" fill="black"/>
<path d="M19.9995 10.1592C20.1937 10.1592 20.3511 10.0019 20.3511 9.80767V8.35158C20.3511 8.15737 20.1937 8 19.9995 8C19.8054 8 19.6479 8.15737 19.6479 8.35158V9.80767C19.6479 10.0019 19.8053 10.1592 19.9995 10.1592Z" fill="black"/>
<path d="M21.5449 10.7994C21.6349 10.7994 21.7249 10.7651 21.7935 10.6965L22.8231 9.66685C22.9604 9.5295 22.9604 9.30693 22.8231 9.16962C22.6859 9.03241 22.4632 9.03232 22.3259 9.16962L21.2963 10.1992C21.159 10.3366 21.159 10.5591 21.2963 10.6965C21.365 10.765 21.455 10.7994 21.5449 10.7994Z" fill="black"/>
<path d="M18.2058 10.6964C18.2745 10.765 18.3645 10.7994 18.4544 10.7994C18.5444 10.7994 18.6344 10.765 18.703 10.6964C18.8403 10.5591 18.8403 10.3365 18.703 10.1992L17.6734 9.16959C17.5361 9.03234 17.3135 9.03234 17.1762 9.16959C17.0389 9.30694 17.0389 9.52951 17.1762 9.66682L18.2058 10.6964Z" fill="black"/>
<path d="M16.3579 12.3448H17.814C18.0082 12.3448 18.1656 12.1875 18.1656 11.9933C18.1656 11.7991 18.0082 11.6417 17.814 11.6417H16.3579C16.1638 11.6417 16.0063 11.7991 16.0063 11.9933C16.0063 12.1875 16.1637 12.3448 16.3579 12.3448Z" fill="black"/>
<path d="M21.8335 11.9933C21.8335 12.1875 21.9909 12.3448 22.1851 12.3448H23.6412C23.8353 12.3448 23.9927 12.1875 23.9927 11.9933C23.9927 11.7991 23.8353 11.6417 23.6412 11.6417H22.1851C21.9909 11.6417 21.8335 11.7991 21.8335 11.9933Z" fill="black"/>
</g>
</g>
<defs>
<clipPath id="clip0_192_1556">
<rect width="40" height="40" rx="20" fill="white"/>
</clipPath>
<clipPath id="clip1_192_1556">
<rect width="24" height="24" fill="white" transform="translate(8 8)"/>
</clipPath>
</defs>
</svg>
