<svg width="40" height="40" viewBox="0 0 40 40" fill="none" xmlns="http://www.w3.org/2000/svg">
<g clip-path="url(#clip0_192_1587)">
<rect width="40" height="40" rx="20" fill="#F9F8F4"/>
<g clip-path="url(#clip1_192_1587)">
<path d="M25.8335 26.6057V25.7868" stroke="#49454F" stroke-width="0.8" stroke-miterlimit="10" stroke-linecap="round" stroke-linejoin="round"/>
<path d="M25.7117 22.9349L24.9493 24.2554C24.5564 24.936 25.0476 25.7868 25.8335 25.7868C26.6194 25.7868 27.1106 24.936 26.7176 24.2554L25.9553 22.9349C25.9012 22.8412 25.7659 22.8412 25.7117 22.9349Z" stroke="#49454F" stroke-width="0.8" stroke-miterlimit="10" stroke-linecap="round" stroke-linejoin="round"/>
<path d="M27.5976 28.2499V26.84C27.5976 26.7106 27.4927 26.6056 27.3632 26.6056H24.3037C24.1743 26.6056 24.0693 26.7106 24.0693 26.84V28.2499" stroke="#49454F" stroke-width="0.8" stroke-miterlimit="10" stroke-linecap="round" stroke-linejoin="round"/>
<path d="M25.344 28.2499H22.6781C22.542 28.2499 22.4341 28.3655 22.444 28.5013C22.5727 30.2608 24.041 31.6484 25.8334 31.6484C27.6258 31.6484 29.0941 30.2608 29.2228 28.5013C29.2327 28.3655 29.1248 28.2499 28.9887 28.2499H26.9846" stroke="#49454F" stroke-width="0.8" stroke-miterlimit="10" stroke-linecap="round" stroke-linejoin="round"/>
<path d="M16.9862 11.7305C17.3256 11.431 17.5399 10.9931 17.5399 10.5049C17.5399 9.6022 16.8081 8.87048 15.9054 8.87048C15.0028 8.87048 14.271 9.60225 14.271 10.5049C14.271 10.9938 14.486 11.4323 14.8263 11.7318" stroke="#49454F" stroke-width="0.8" stroke-miterlimit="10" stroke-linecap="round" stroke-linejoin="round"/>
<path d="M19.713 17.4316C20.0704 16.8697 20.2708 16.2418 20.2708 15.5789C20.2708 13.703 16.954 11.7647 16.0643 11.0802C15.9705 11.0081 15.8407 11.0081 15.7472 11.0805C14.8505 11.7753 11.54 13.7002 11.54 15.5789C11.54 16.2418 11.7404 16.8697 12.0979 17.4316H19.713Z" stroke="#49454F" stroke-width="0.8" stroke-miterlimit="10" stroke-linecap="round" stroke-linejoin="round"/>
<path d="M17.574 14.75C17.2829 13.1592 16.2731 11.6639 15.9693 11.0802C15.9318 11.0081 15.8798 11.0081 15.8424 11.0805C15.4833 11.7753 14.1577 13.7002 14.1577 15.5789C14.1577 16.2418 14.2379 16.8697 14.3811 17.4316H17.4303C17.5135 17.1051 17.5747 16.7557 17.612 16.3906" stroke="#49454F" stroke-width="0.8" stroke-miterlimit="10" stroke-linecap="round" stroke-linejoin="round"/>
<path d="M20.3483 19.1958H11.4629V29.8843H20.3483V19.1958Z" stroke="#49454F" stroke-width="0.8" stroke-miterlimit="10" stroke-linecap="round" stroke-linejoin="round"/>
<path d="M18.8112 23.75V22.495C18.8112 21.8478 18.2866 21.3231 17.6394 21.3231H14.1719C13.5247 21.3231 13 21.8478 13 22.495V29.8843H18.8112V25.3906" stroke="#49454F" stroke-width="0.8" stroke-miterlimit="10" stroke-linecap="round" stroke-linejoin="round"/>
<path d="M20.6773 19.1958H11.1338C10.8749 19.1958 10.665 18.9859 10.665 18.727V17.9004C10.665 17.6415 10.8749 17.4316 11.1338 17.4316H20.6773C20.9362 17.4316 21.1461 17.6415 21.1461 17.9004V18.727C21.1461 18.9859 20.9362 19.1958 20.6773 19.1958Z" stroke="#49454F" stroke-width="0.8" stroke-miterlimit="10" stroke-linecap="round" stroke-linejoin="round"/>
<path d="M15.9058 26.7613V25.9425" stroke="#49454F" stroke-width="0.8" stroke-miterlimit="10" stroke-linecap="round" stroke-linejoin="round"/>
<path d="M15.784 23.0906L15.0216 24.4111C14.6286 25.0917 15.1198 25.9425 15.9058 25.9425C16.6917 25.9425 17.1829 25.0917 16.7899 24.4111L16.0275 23.0906C15.9734 22.9969 15.8381 22.9969 15.784 23.0906Z" stroke="#49454F" stroke-width="0.8" stroke-miterlimit="10" stroke-linecap="round" stroke-linejoin="round"/>
<path d="M17.4355 26.7613H14.376C14.2466 26.7613 14.1416 26.8662 14.1416 26.9957V29.8843H17.6698V26.9957C17.6698 26.8662 17.5649 26.7613 17.4355 26.7613Z" stroke="#49454F" stroke-width="0.8" stroke-miterlimit="10" stroke-linecap="round" stroke-linejoin="round"/>
<path d="M21.1461 31.6484H10.665V30.3531C10.665 30.0942 10.8749 29.8843 11.1338 29.8843H20.6773C20.9362 29.8843 21.1461 30.0942 21.1461 30.3531V31.6484Z" stroke="#49454F" stroke-width="0.8" stroke-miterlimit="10" stroke-linecap="round" stroke-linejoin="round"/>
<path d="M15.9058 9.54495V8.35156" stroke="#49454F" stroke-width="0.8" stroke-miterlimit="10" stroke-linecap="round" stroke-linejoin="round"/>
<path d="M9.59912 31.6484H30.3017" stroke="#49454F" stroke-width="0.8" stroke-miterlimit="10" stroke-linecap="round" stroke-linejoin="round"/>
<path d="M23.9364 19.0545L24.0961 19.3466C24.2732 19.6704 24.5394 19.9367 24.8633 20.1138L25.1554 20.2736C25.2438 20.3219 25.2438 20.4489 25.1554 20.4973L24.8633 20.657C24.5395 20.8341 24.2732 21.1004 24.0961 21.4242L23.9364 21.7163C23.888 21.8048 23.761 21.8048 23.7126 21.7163L23.5529 21.4242C23.3758 21.1004 23.1095 20.8342 22.7857 20.657L22.4936 20.4973C22.4051 20.4489 22.4051 20.3219 22.4936 20.2736L22.7857 20.1138C23.1095 19.9367 23.3757 19.6705 23.5529 19.3466L23.7126 19.0545C23.761 18.9661 23.888 18.9661 23.9364 19.0545Z" stroke="#49454F" stroke-width="0.8" stroke-miterlimit="10" stroke-linecap="round" stroke-linejoin="round"/>
<path d="M25.771 14.993V15.5204" stroke="#49454F" stroke-width="0.8" stroke-miterlimit="10" stroke-linecap="round" stroke-linejoin="round"/>
<path d="M25.771 17.1026V17.63" stroke="#49454F" stroke-width="0.8" stroke-miterlimit="10" stroke-linecap="round" stroke-linejoin="round"/>
<path d="M24.4526 16.3115H24.98" stroke="#49454F" stroke-width="0.8" stroke-miterlimit="10" stroke-linecap="round" stroke-linejoin="round"/>
<path d="M26.562 16.3115H27.0894" stroke="#49454F" stroke-width="0.8" stroke-miterlimit="10" stroke-linecap="round" stroke-linejoin="round"/>
<path d="M29.29 21.488V21.9324" stroke="#49454F" stroke-width="0.8" stroke-miterlimit="10" stroke-linecap="round" stroke-linejoin="round"/>
<path d="M29.29 23.2655V23.7099" stroke="#49454F" stroke-width="0.8" stroke-miterlimit="10" stroke-linecap="round" stroke-linejoin="round"/>
<path d="M28.1792 22.5989H28.6236" stroke="#49454F" stroke-width="0.8" stroke-miterlimit="10" stroke-linecap="round" stroke-linejoin="round"/>
<path d="M29.9565 22.5989H30.4009" stroke="#49454F" stroke-width="0.8" stroke-miterlimit="10" stroke-linecap="round" stroke-linejoin="round"/>
</g>
</g>
<defs>
<clipPath id="clip0_192_1587">
<rect width="40" height="40" rx="20" fill="white"/>
</clipPath>
<clipPath id="clip1_192_1587">
<rect width="24" height="24" fill="white" transform="translate(8 8)"/>
</clipPath>
</defs>
</svg>
