<svg width="94" height="102" viewBox="0 0 94 102" fill="none" xmlns="http://www.w3.org/2000/svg">
<g opacity="0.3">
<mask id="mask0_192_1484" style="mask-type:alpha" maskUnits="userSpaceOnUse" x="0" y="-60" width="162" height="162">
<circle cx="81" cy="21" r="81" fill="#D9D9D9"/>
</mask>
<g mask="url(#mask0_192_1484)">
<path d="M-10.6372 27.6537H-20.0491L-26.704 21L-33.3589 27.6537H-42.7708V37.0631L-46.9912 41.2827L-51.2116 37.0631V27.6537H-60.6234L-67.2783 21L-73.9333 27.6537H-83.3451V37.0631L-90 43.7169L-83.3451 50.3706V59.7807H-73.9333L-69.7128 64.0004L-73.9333 68.2201H-83.3451V77.6294L-90 84.2831L-83.3451 90.9369V100.346H-73.9333L-67.2783 107L-60.6234 100.346H-51.2116V90.9369L-46.9912 86.7172L-42.7708 90.9369V100.346H-33.3589L-26.704 107L-20.0491 100.346H-10.6372V90.9369L-3.98232 84.2831L-10.6372 77.6294V68.2201H-20.0491L-24.2695 64.0004L-20.0491 59.7807H-10.6372V50.3706L-3.98232 43.7169L-10.6372 37.0631V27.6537ZM-72.5064 56.3383H-79.9005V48.9448L-85.1294 43.7169L-79.9005 38.4889V31.0953H-72.5064L-67.2775 25.8674L-62.0487 31.0953H-54.6546V38.4889L-49.4257 43.7169L-54.6546 48.9448V56.3383H-62.0487L-67.2775 61.5663L-72.5064 56.3383ZM-54.6538 89.5119V96.9055H-62.0479L-67.2768 102.133L-72.5056 96.9055H-79.8997V89.5119L-85.1286 84.2839L-79.8997 79.0559V71.6624H-72.5056L-67.2768 66.4344L-62.0479 71.6624H-54.6538V79.0559L-49.4249 84.2839L-54.6538 89.5119ZM-51.2108 77.6302V68.2208H-60.6226L-64.843 64.0012L-60.6226 59.7815H-51.2108V50.3713L-46.9904 46.1517L-42.77 50.3713V59.7815H-33.3582L-29.1377 64.0012L-33.3582 68.2208H-42.77V77.6302L-46.9904 81.8498L-51.2108 77.6302ZM-21.4743 71.6624H-14.0802V79.0559L-8.85136 84.2839L-14.0802 89.5119V96.9055H-21.4743L-26.7032 102.133L-31.9321 96.9055H-39.3262V89.5119L-44.5551 84.2839L-39.3262 79.0559V71.6624H-31.9321L-26.7032 66.4344L-21.4743 71.6624ZM-8.85136 43.7176L-14.0802 48.9456V56.3391H-21.4743L-26.7032 61.5671L-31.9321 56.3391H-39.3262V48.9456L-44.5551 43.7176L-39.3262 38.4897V31.0961H-31.9321L-26.7032 25.8682L-21.4743 31.0961H-14.0802V38.4897L-8.85136 43.7176Z" fill="#E0ECEE"/>
<path d="M74.3097 27.6537H64.8979L58.243 21L51.588 27.6537H42.1762V37.0631L37.9558 41.2827L33.7354 37.0631V27.6537H24.3236L17.6686 21L11.0137 27.6537H1.60189V37.0631L-5.05304 43.7169L1.60189 50.3706V59.7807H11.0137L15.2341 64.0004L11.0137 68.2201H1.60189V77.6294L-5.05304 84.2831L1.60189 90.9369V100.346H11.0137L17.6686 107L24.3236 100.346H33.7354V90.9369L37.9558 86.7172L42.1762 90.9369V100.346H51.588L58.243 107L64.8979 100.346H74.3097V90.9369L80.9646 84.2831L74.3097 77.6294V68.2201H64.8979L60.6775 64.0004L64.8979 59.7807H74.3097V50.3706L80.9646 43.7169L74.3097 37.0631V27.6537ZM12.4406 56.3383H5.04644V48.9448L-0.182426 43.7169L5.04644 38.4889V31.0953H12.4406L17.6694 25.8674L22.8983 31.0953H30.2924V38.4889L35.5213 43.7169L30.2924 48.9448V56.3383H22.8983L17.6694 61.5663L12.4406 56.3383ZM30.2932 89.5119V96.9055H22.8991L17.6702 102.133L12.4413 96.9055H5.04723V89.5119L-0.181648 84.2839L5.04723 79.0559V71.6624H12.4413L17.6702 66.4344L22.8991 71.6624H30.2932V79.0559L35.5221 84.2839L30.2932 89.5119ZM33.7362 77.6302V68.2208H24.3244L20.1039 64.0012L24.3244 59.7815H33.7362V50.3713L37.9566 46.1517L42.177 50.3713V59.7815H51.5888L55.8092 64.0012L51.5888 68.2208H42.177V77.6302L37.9566 81.8498L33.7362 77.6302ZM63.4726 71.6624H70.8667V79.0559L76.0956 84.2839L70.8667 89.5119V96.9055H63.4726L58.2437 102.133L53.0149 96.9055H45.6208V89.5119L40.3919 84.2839L45.6208 79.0559V71.6624H53.0149L58.2437 66.4344L63.4726 71.6624ZM76.0956 43.7176L70.8667 48.9456V56.3391H63.4726L58.2437 61.5671L53.0149 56.3391H45.6208V48.9456L40.3919 43.7176L45.6208 38.4897V31.0961H53.0149L58.2437 25.8682L63.4726 31.0961H70.8667V38.4897L76.0956 43.7176Z" fill="#E0ECEE"/>
<path d="M160.327 27.6537H150.916L144.261 21L137.606 27.6537H128.194V37.0631L123.973 41.2827L119.753 37.0631V27.6537H110.341L103.686 21L97.0314 27.6537H87.6196V37.0631L80.9646 43.7169L87.6196 50.3706V59.7807H97.0314L101.252 64.0004L97.0314 68.2201H87.6196V77.6294L80.9646 84.2831L87.6196 90.9369V100.346H97.0314L103.686 107L110.341 100.346H119.753V90.9369L123.973 86.7172L128.194 90.9369V100.346H137.606L144.261 107L150.916 100.346H160.327V90.9369L166.982 84.2831L160.327 77.6294V68.2201H150.916L146.695 64.0004L150.916 59.7807H160.327V50.3706L166.982 43.7169L160.327 37.0631V27.6537ZM98.4582 56.3383H91.0641V48.9448L85.8353 43.7169L91.0641 38.4889V31.0953H98.4582L103.687 25.8674L108.916 31.0953H116.31V38.4889L121.539 43.7169L116.31 48.9448V56.3383H108.916L103.687 61.5663L98.4582 56.3383ZM116.311 89.5119V96.9055H108.917L103.688 102.133L98.459 96.9055H91.0649V89.5119L85.836 84.2839L91.0649 79.0559V71.6624H98.459L103.688 66.4344L108.917 71.6624H116.311V79.0559L121.54 84.2839L116.311 89.5119ZM119.754 77.6302V68.2208H110.342L106.122 64.0012L110.342 59.7815H119.754V50.3713L123.974 46.1517L128.195 50.3713V59.7815H137.606L141.827 64.0012L137.606 68.2208H128.195V77.6302L123.974 81.8498L119.754 77.6302ZM149.49 71.6624H156.884V79.0559L162.113 84.2839L156.884 89.5119V96.9055H149.49L144.261 102.133L139.033 96.9055H131.638V89.5119L126.41 84.2839L131.638 79.0559V71.6624H139.033L144.261 66.4344L149.49 71.6624ZM162.113 43.7176L156.884 48.9456V56.3391H149.49L144.261 61.5671L139.033 56.3391H131.638V48.9456L126.41 43.7176L131.638 38.4897V31.0961H139.033L144.261 25.8682L149.49 31.0961H156.884V38.4897L162.113 43.7176Z" fill="#E0ECEE"/>
<path d="M246.345 27.6537H236.933L230.278 21L223.623 27.6537H214.212V37.0631L209.991 41.2827L205.771 37.0631V27.6537H196.359L189.704 21L183.049 27.6537H173.637V37.0631L166.982 43.7169L173.637 50.3706V59.7807H183.049L187.269 64.0004L183.049 68.2201H173.637V77.6294L166.982 84.2831L173.637 90.9369V100.346H183.049L189.704 107L196.359 100.346H205.771V90.9369L209.991 86.7172L214.212 90.9369V100.346H223.623L230.278 107L236.933 100.346H246.345V90.9369L253 84.2831L246.345 77.6294V68.2201H236.933L232.713 64.0004L236.933 59.7807H246.345V50.3706L253 43.7169L246.345 37.0631V27.6537ZM184.476 56.3383H177.082V48.9448L171.853 43.7169L177.082 38.4889V31.0953H184.476L189.705 25.8674L194.934 31.0953H202.328V38.4889L207.557 43.7169L202.328 48.9448V56.3383H194.934L189.705 61.5663L184.476 56.3383ZM202.329 89.5119V96.9055H194.934L189.706 102.133L184.477 96.9055H177.083V89.5119L171.854 84.2839L177.083 79.0559V71.6624H184.477L189.706 66.4344L194.934 71.6624H202.329V79.0559L207.557 84.2839L202.329 89.5119ZM205.772 77.6302V68.2208H196.36L192.139 64.0012L196.36 59.7815H205.772V50.3713L209.992 46.1517L214.212 50.3713V59.7815H223.624L227.845 64.0012L223.624 68.2208H214.212V77.6302L209.992 81.8498L205.772 77.6302ZM235.508 71.6624H242.902V79.0559L248.131 84.2839L242.902 89.5119V96.9055H235.508L230.279 102.133L225.05 96.9055H217.656V89.5119L212.427 84.2839L217.656 79.0559V71.6624H225.05L230.279 66.4344L235.508 71.6624ZM248.131 43.7176L242.902 48.9456V56.3391H235.508L230.279 61.5671L225.05 56.3391H217.656V48.9456L212.427 43.7176L217.656 38.4897V31.0961H225.05L230.279 25.8682L235.508 31.0961H242.902V38.4897L248.131 43.7176Z" fill="#E0ECEE"/>
<path d="M-10.6372 113.654H-20.0491L-26.704 107L-33.3589 113.654H-42.7708V123.063L-46.9912 127.283L-51.2116 123.063V113.654H-60.6234L-67.2783 107L-73.9333 113.654H-83.3451V123.063L-90 129.717L-83.3451 136.371V145.781H-73.9333L-69.7128 150L-73.9333 154.22H-83.3451V163.629L-90 170.283L-83.3451 176.937V186.346H-73.9333L-67.2783 193L-60.6234 186.346H-51.2116V176.937L-46.9912 172.717L-42.7708 176.937V186.346H-33.3589L-26.704 193L-20.0491 186.346H-10.6372V176.937L-3.98232 170.283L-10.6372 163.629V154.22H-20.0491L-24.2695 150L-20.0491 145.781H-10.6372V136.371L-3.98232 129.717L-10.6372 123.063V113.654ZM-72.5064 142.338H-79.9005V134.945L-85.1294 129.717L-79.9005 124.489V117.095H-72.5064L-67.2775 111.867L-62.0487 117.095H-54.6546V124.489L-49.4257 129.717L-54.6546 134.945V142.338H-62.0487L-67.2775 147.566L-72.5064 142.338ZM-54.6538 175.512V182.905H-62.0479L-67.2768 188.133L-72.5056 182.905H-79.8997V175.512L-85.1286 170.284L-79.8997 165.056V157.662H-72.5056L-67.2768 152.434L-62.0479 157.662H-54.6538V165.056L-49.4249 170.284L-54.6538 175.512ZM-51.2108 163.63V154.221H-60.6226L-64.843 150.001L-60.6226 145.782H-51.2108V136.371L-46.9904 132.152L-42.77 136.371V145.782H-33.3582L-29.1377 150.001L-33.3582 154.221H-42.77V163.63L-46.9904 167.85L-51.2108 163.63ZM-21.4743 157.662H-14.0802V165.056L-8.85136 170.284L-14.0802 175.512V182.905H-21.4743L-26.7032 188.133L-31.9321 182.905H-39.3262V175.512L-44.5551 170.284L-39.3262 165.056V157.662H-31.9321L-26.7032 152.434L-21.4743 157.662ZM-8.85136 129.718L-14.0802 134.946V142.339H-21.4743L-26.7032 147.567L-31.9321 142.339H-39.3262V134.946L-44.5551 129.718L-39.3262 124.49V117.096H-31.9321L-26.7032 111.868L-21.4743 117.096H-14.0802V124.49L-8.85136 129.718Z" fill="#E0ECEE"/>
<path d="M74.3097 113.654H64.8979L58.243 107L51.588 113.654H42.1762V123.063L37.9558 127.283L33.7354 123.063V113.654H24.3236L17.6686 107L11.0137 113.654H1.60189V123.063L-5.05304 129.717L1.60189 136.371V145.781H11.0137L15.2341 150L11.0137 154.22H1.60189V163.629L-5.05304 170.283L1.60189 176.937V186.346H11.0137L17.6686 193L24.3236 186.346H33.7354V176.937L37.9558 172.717L42.1762 176.937V186.346H51.588L58.243 193L64.8979 186.346H74.3097V176.937L80.9646 170.283L74.3097 163.629V154.22H64.8979L60.6775 150L64.8979 145.781H74.3097V136.371L80.9646 129.717L74.3097 123.063V113.654ZM12.4406 142.338H5.04644V134.945L-0.182426 129.717L5.04644 124.489V117.095H12.4406L17.6694 111.867L22.8983 117.095H30.2924V124.489L35.5213 129.717L30.2924 134.945V142.338H22.8983L17.6694 147.566L12.4406 142.338ZM30.2932 175.512V182.905H22.8991L17.6702 188.133L12.4413 182.905H5.04723V175.512L-0.181648 170.284L5.04723 165.056V157.662H12.4413L17.6702 152.434L22.8991 157.662H30.2932V165.056L35.5221 170.284L30.2932 175.512ZM33.7362 163.63V154.221H24.3244L20.1039 150.001L24.3244 145.782H33.7362V136.371L37.9566 132.152L42.177 136.371V145.782H51.5888L55.8092 150.001L51.5888 154.221H42.177V163.63L37.9566 167.85L33.7362 163.63ZM63.4726 157.662H70.8667V165.056L76.0956 170.284L70.8667 175.512V182.905H63.4726L58.2437 188.133L53.0149 182.905H45.6208V175.512L40.3919 170.284L45.6208 165.056V157.662H53.0149L58.2437 152.434L63.4726 157.662ZM76.0956 129.718L70.8667 134.946V142.339H63.4726L58.2437 147.567L53.0149 142.339H45.6208V134.946L40.3919 129.718L45.6208 124.49V117.096H53.0149L58.2437 111.868L63.4726 117.096H70.8667V124.49L76.0956 129.718Z" fill="#E0ECEE"/>
<path d="M160.327 113.654H150.916L144.261 107L137.606 113.654H128.194V123.063L123.973 127.283L119.753 123.063V113.654H110.341L103.686 107L97.0314 113.654H87.6196V123.063L80.9646 129.717L87.6196 136.371V145.781H97.0314L101.252 150L97.0314 154.22H87.6196V163.629L80.9646 170.283L87.6196 176.937V186.346H97.0314L103.686 193L110.341 186.346H119.753V176.937L123.973 172.717L128.194 176.937V186.346H137.606L144.261 193L150.916 186.346H160.327V176.937L166.982 170.283L160.327 163.629V154.22H150.916L146.695 150L150.916 145.781H160.327V136.371L166.982 129.717L160.327 123.063V113.654ZM98.4582 142.338H91.0641V134.945L85.8353 129.717L91.0641 124.489V117.095H98.4582L103.687 111.867L108.916 117.095H116.31V124.489L121.539 129.717L116.31 134.945V142.338H108.916L103.687 147.566L98.4582 142.338ZM116.311 175.512V182.905H108.917L103.688 188.133L98.459 182.905H91.0649V175.512L85.836 170.284L91.0649 165.056V157.662H98.459L103.688 152.434L108.917 157.662H116.311V165.056L121.54 170.284L116.311 175.512ZM119.754 163.63V154.221H110.342L106.122 150.001L110.342 145.782H119.754V136.371L123.974 132.152L128.195 136.371V145.782H137.606L141.827 150.001L137.606 154.221H128.195V163.63L123.974 167.85L119.754 163.63ZM149.49 157.662H156.884V165.056L162.113 170.284L156.884 175.512V182.905H149.49L144.261 188.133L139.033 182.905H131.638V175.512L126.41 170.284L131.638 165.056V157.662H139.033L144.261 152.434L149.49 157.662ZM162.113 129.718L156.884 134.946V142.339H149.49L144.261 147.567L139.033 142.339H131.638V134.946L126.41 129.718L131.638 124.49V117.096H139.033L144.261 111.868L149.49 117.096H156.884V124.49L162.113 129.718Z" fill="#E0ECEE"/>
<path d="M246.345 113.654H236.933L230.278 107L223.623 113.654H214.212V123.063L209.991 127.283L205.771 123.063V113.654H196.359L189.704 107L183.049 113.654H173.637V123.063L166.982 129.717L173.637 136.371V145.781H183.049L187.269 150L183.049 154.22H173.637V163.629L166.982 170.283L173.637 176.937V186.346H183.049L189.704 193L196.359 186.346H205.771V176.937L209.991 172.717L214.212 176.937V186.346H223.623L230.278 193L236.933 186.346H246.345V176.937L253 170.283L246.345 163.629V154.22H236.933L232.713 150L236.933 145.781H246.345V136.371L253 129.717L246.345 123.063V113.654ZM184.476 142.338H177.082V134.945L171.853 129.717L177.082 124.489V117.095H184.476L189.705 111.867L194.934 117.095H202.328V124.489L207.557 129.717L202.328 134.945V142.338H194.934L189.705 147.566L184.476 142.338ZM202.329 175.512V182.905H194.934L189.706 188.133L184.477 182.905H177.083V175.512L171.854 170.284L177.083 165.056V157.662H184.477L189.706 152.434L194.934 157.662H202.329V165.056L207.557 170.284L202.329 175.512ZM205.772 163.63V154.221H196.36L192.139 150.001L196.36 145.782H205.772V136.371L209.992 132.152L214.212 136.371V145.782H223.624L227.845 150.001L223.624 154.221H214.212V163.63L209.992 167.85L205.772 163.63ZM235.508 157.662H242.902V165.056L248.131 170.284L242.902 175.512V182.905H235.508L230.279 188.133L225.05 182.905H217.656V175.512L212.427 170.284L217.656 165.056V157.662H225.05L230.279 152.434L235.508 157.662ZM248.131 129.718L242.902 134.946V142.339H235.508L230.279 147.567L225.05 142.339H217.656V134.946L212.427 129.718L217.656 124.49V117.096H225.05L230.279 111.868L235.508 117.096H242.902V124.49L248.131 129.718Z" fill="#E0ECEE"/>
<path d="M-10.6372 -316.346H-20.0491L-26.704 -323L-33.3589 -316.346H-42.7708V-306.937L-46.9912 -302.717L-51.2116 -306.937V-316.346H-60.6234L-67.2783 -323L-73.9333 -316.346H-83.3451V-306.937L-90 -300.283L-83.3451 -293.629V-284.219H-73.9333L-69.7128 -280L-73.9333 -275.78H-83.3451V-266.371L-90 -259.717L-83.3451 -253.063V-243.654H-73.9333L-67.2783 -237L-60.6234 -243.654H-51.2116V-253.063L-46.9912 -257.283L-42.7708 -253.063V-243.654H-33.3589L-26.704 -237L-20.0491 -243.654H-10.6372V-253.063L-3.98232 -259.717L-10.6372 -266.371V-275.78H-20.0491L-24.2695 -280L-20.0491 -284.219H-10.6372V-293.629L-3.98232 -300.283L-10.6372 -306.937V-316.346ZM-72.5064 -287.662H-79.9005V-295.055L-85.1294 -300.283L-79.9005 -305.511V-312.905H-72.5064L-67.2775 -318.133L-62.0487 -312.905H-54.6546V-305.511L-49.4257 -300.283L-54.6546 -295.055V-287.662H-62.0487L-67.2775 -282.434L-72.5064 -287.662ZM-54.6538 -254.488V-247.095H-62.0479L-67.2768 -241.867L-72.5056 -247.095H-79.8997V-254.488L-85.1286 -259.716L-79.8997 -264.944V-272.338H-72.5056L-67.2768 -277.566L-62.0479 -272.338H-54.6538V-264.944L-49.4249 -259.716L-54.6538 -254.488ZM-51.2108 -266.37V-275.779H-60.6226L-64.843 -279.999L-60.6226 -284.218H-51.2108V-293.629L-46.9904 -297.848L-42.77 -293.629V-284.218H-33.3582L-29.1377 -279.999L-33.3582 -275.779H-42.77V-266.37L-46.9904 -262.15L-51.2108 -266.37ZM-21.4743 -272.338H-14.0802V-264.944L-8.85136 -259.716L-14.0802 -254.488V-247.095H-21.4743L-26.7032 -241.867L-31.9321 -247.095H-39.3262V-254.488L-44.5551 -259.716L-39.3262 -264.944V-272.338H-31.9321L-26.7032 -277.566L-21.4743 -272.338ZM-8.85136 -300.282L-14.0802 -295.054V-287.661H-21.4743L-26.7032 -282.433L-31.9321 -287.661H-39.3262V-295.054L-44.5551 -300.282L-39.3262 -305.51V-312.904H-31.9321L-26.7032 -318.132L-21.4743 -312.904H-14.0802V-305.51L-8.85136 -300.282Z" fill="#E0ECEE"/>
<path d="M74.3097 -316.346H64.8979L58.243 -323L51.588 -316.346H42.1762V-306.937L37.9558 -302.717L33.7354 -306.937V-316.346H24.3236L17.6686 -323L11.0137 -316.346H1.60189V-306.937L-5.05304 -300.283L1.60189 -293.629V-284.219H11.0137L15.2341 -280L11.0137 -275.78H1.60189V-266.371L-5.05304 -259.717L1.60189 -253.063V-243.654H11.0137L17.6686 -237L24.3236 -243.654H33.7354V-253.063L37.9558 -257.283L42.1762 -253.063V-243.654H51.588L58.243 -237L64.8979 -243.654H74.3097V-253.063L80.9646 -259.717L74.3097 -266.371V-275.78H64.8979L60.6775 -280L64.8979 -284.219H74.3097V-293.629L80.9646 -300.283L74.3097 -306.937V-316.346ZM12.4406 -287.662H5.04644V-295.055L-0.182426 -300.283L5.04644 -305.511V-312.905H12.4406L17.6694 -318.133L22.8983 -312.905H30.2924V-305.511L35.5213 -300.283L30.2924 -295.055V-287.662H22.8983L17.6694 -282.434L12.4406 -287.662ZM30.2932 -254.488V-247.095H22.8991L17.6702 -241.867L12.4413 -247.095H5.04723V-254.488L-0.181648 -259.716L5.04723 -264.944V-272.338H12.4413L17.6702 -277.566L22.8991 -272.338H30.2932V-264.944L35.5221 -259.716L30.2932 -254.488ZM33.7362 -266.37V-275.779H24.3244L20.1039 -279.999L24.3244 -284.218H33.7362V-293.629L37.9566 -297.848L42.177 -293.629V-284.218H51.5888L55.8092 -279.999L51.5888 -275.779H42.177V-266.37L37.9566 -262.15L33.7362 -266.37ZM63.4726 -272.338H70.8667V-264.944L76.0956 -259.716L70.8667 -254.488V-247.095H63.4726L58.2437 -241.867L53.0149 -247.095H45.6208V-254.488L40.3919 -259.716L45.6208 -264.944V-272.338H53.0149L58.2437 -277.566L63.4726 -272.338ZM76.0956 -300.282L70.8667 -295.054V-287.661H63.4726L58.2437 -282.433L53.0149 -287.661H45.6208V-295.054L40.3919 -300.282L45.6208 -305.51V-312.904H53.0149L58.2437 -318.132L63.4726 -312.904H70.8667V-305.51L76.0956 -300.282Z" fill="#E0ECEE"/>
<path d="M160.327 -316.346H150.916L144.261 -323L137.606 -316.346H128.194V-306.937L123.973 -302.717L119.753 -306.937V-316.346H110.341L103.686 -323L97.0314 -316.346H87.6196V-306.937L80.9646 -300.283L87.6196 -293.629V-284.219H97.0314L101.252 -280L97.0314 -275.78H87.6196V-266.371L80.9646 -259.717L87.6196 -253.063V-243.654H97.0314L103.686 -237L110.341 -243.654H119.753V-253.063L123.973 -257.283L128.194 -253.063V-243.654H137.606L144.261 -237L150.916 -243.654H160.327V-253.063L166.982 -259.717L160.327 -266.371V-275.78H150.916L146.695 -280L150.916 -284.219H160.327V-293.629L166.982 -300.283L160.327 -306.937V-316.346ZM98.4582 -287.662H91.0641V-295.055L85.8353 -300.283L91.0641 -305.511V-312.905H98.4582L103.687 -318.133L108.916 -312.905H116.31V-305.511L121.539 -300.283L116.31 -295.055V-287.662H108.916L103.687 -282.434L98.4582 -287.662ZM116.311 -254.488V-247.095H108.917L103.688 -241.867L98.459 -247.095H91.0649V-254.488L85.836 -259.716L91.0649 -264.944V-272.338H98.459L103.688 -277.566L108.917 -272.338H116.311V-264.944L121.54 -259.716L116.311 -254.488ZM119.754 -266.37V-275.779H110.342L106.122 -279.999L110.342 -284.218H119.754V-293.629L123.974 -297.848L128.195 -293.629V-284.218H137.606L141.827 -279.999L137.606 -275.779H128.195V-266.37L123.974 -262.15L119.754 -266.37ZM149.49 -272.338H156.884V-264.944L162.113 -259.716L156.884 -254.488V-247.095H149.49L144.261 -241.867L139.033 -247.095H131.638V-254.488L126.41 -259.716L131.638 -264.944V-272.338H139.033L144.261 -277.566L149.49 -272.338ZM162.113 -300.282L156.884 -295.054V-287.661H149.49L144.261 -282.433L139.033 -287.661H131.638V-295.054L126.41 -300.282L131.638 -305.51V-312.904H139.033L144.261 -318.132L149.49 -312.904H156.884V-305.51L162.113 -300.282Z" fill="#E0ECEE"/>
<path d="M246.345 -316.346H236.933L230.278 -323L223.623 -316.346H214.212V-306.937L209.991 -302.717L205.771 -306.937V-316.346H196.359L189.704 -323L183.049 -316.346H173.637V-306.937L166.982 -300.283L173.637 -293.629V-284.219H183.049L187.269 -280L183.049 -275.78H173.637V-266.371L166.982 -259.717L173.637 -253.063V-243.654H183.049L189.704 -237L196.359 -243.654H205.771V-253.063L209.991 -257.283L214.212 -253.063V-243.654H223.623L230.278 -237L236.933 -243.654H246.345V-253.063L253 -259.717L246.345 -266.371V-275.78H236.933L232.713 -280L236.933 -284.219H246.345V-293.629L253 -300.283L246.345 -306.937V-316.346ZM184.476 -287.662H177.082V-295.055L171.853 -300.283L177.082 -305.511V-312.905H184.476L189.705 -318.133L194.934 -312.905H202.328V-305.511L207.557 -300.283L202.328 -295.055V-287.662H194.934L189.705 -282.434L184.476 -287.662ZM202.329 -254.488V-247.095H194.934L189.706 -241.867L184.477 -247.095H177.083V-254.488L171.854 -259.716L177.083 -264.944V-272.338H184.477L189.706 -277.566L194.934 -272.338H202.329V-264.944L207.557 -259.716L202.329 -254.488ZM205.772 -266.37V-275.779H196.36L192.139 -279.999L196.36 -284.218H205.772V-293.629L209.992 -297.848L214.212 -293.629V-284.218H223.624L227.845 -279.999L223.624 -275.779H214.212V-266.37L209.992 -262.15L205.772 -266.37ZM235.508 -272.338H242.902V-264.944L248.131 -259.716L242.902 -254.488V-247.095H235.508L230.279 -241.867L225.05 -247.095H217.656V-254.488L212.427 -259.716L217.656 -264.944V-272.338H225.05L230.279 -277.566L235.508 -272.338ZM248.131 -300.282L242.902 -295.054V-287.661H235.508L230.279 -282.433L225.05 -287.661H217.656V-295.054L212.427 -300.282L217.656 -305.51V-312.904H225.05L230.279 -318.132L235.508 -312.904H242.902V-305.51L248.131 -300.282Z" fill="#E0ECEE"/>
<path d="M-10.6372 -230.346H-20.0491L-26.704 -237L-33.3589 -230.346H-42.7708V-220.937L-46.9912 -216.717L-51.2116 -220.937V-230.346H-60.6234L-67.2783 -237L-73.9333 -230.346H-83.3451V-220.937L-90 -214.283L-83.3451 -207.629V-198.219H-73.9333L-69.7128 -194L-73.9333 -189.78H-83.3451V-180.371L-90 -173.717L-83.3451 -167.063V-157.654H-73.9333L-67.2783 -151L-60.6234 -157.654H-51.2116V-167.063L-46.9912 -171.283L-42.7708 -167.063V-157.654H-33.3589L-26.704 -151L-20.0491 -157.654H-10.6372V-167.063L-3.98232 -173.717L-10.6372 -180.371V-189.78H-20.0491L-24.2695 -194L-20.0491 -198.219H-10.6372V-207.629L-3.98232 -214.283L-10.6372 -220.937V-230.346ZM-72.5064 -201.662H-79.9005V-209.055L-85.1294 -214.283L-79.9005 -219.511V-226.905H-72.5064L-67.2775 -232.133L-62.0487 -226.905H-54.6546V-219.511L-49.4257 -214.283L-54.6546 -209.055V-201.662H-62.0487L-67.2775 -196.434L-72.5064 -201.662ZM-54.6538 -168.488V-161.095H-62.0479L-67.2768 -155.867L-72.5056 -161.095H-79.8997V-168.488L-85.1286 -173.716L-79.8997 -178.944V-186.338H-72.5056L-67.2768 -191.565L-62.0479 -186.338H-54.6538V-178.944L-49.4249 -173.716L-54.6538 -168.488ZM-51.2108 -180.37V-189.779H-60.6226L-64.843 -193.999L-60.6226 -198.218H-51.2108V-207.629L-46.9904 -211.848L-42.77 -207.629V-198.218H-33.3582L-29.1377 -193.999L-33.3582 -189.779H-42.77V-180.37L-46.9904 -176.15L-51.2108 -180.37ZM-21.4743 -186.338H-14.0802V-178.944L-8.85136 -173.716L-14.0802 -168.488V-161.095H-21.4743L-26.7032 -155.867L-31.9321 -161.095H-39.3262V-168.488L-44.5551 -173.716L-39.3262 -178.944V-186.338H-31.9321L-26.7032 -191.565L-21.4743 -186.338ZM-8.85136 -214.282L-14.0802 -209.054V-201.661H-21.4743L-26.7032 -196.433L-31.9321 -201.661H-39.3262V-209.054L-44.5551 -214.282L-39.3262 -219.51V-226.904H-31.9321L-26.7032 -232.132L-21.4743 -226.904H-14.0802V-219.51L-8.85136 -214.282Z" fill="#E0ECEE"/>
<path d="M74.3097 -230.346H64.8979L58.243 -237L51.588 -230.346H42.1762V-220.937L37.9558 -216.717L33.7354 -220.937V-230.346H24.3236L17.6686 -237L11.0137 -230.346H1.60189V-220.937L-5.05304 -214.283L1.60189 -207.629V-198.219H11.0137L15.2341 -194L11.0137 -189.78H1.60189V-180.371L-5.05304 -173.717L1.60189 -167.063V-157.654H11.0137L17.6686 -151L24.3236 -157.654H33.7354V-167.063L37.9558 -171.283L42.1762 -167.063V-157.654H51.588L58.243 -151L64.8979 -157.654H74.3097V-167.063L80.9646 -173.717L74.3097 -180.371V-189.78H64.8979L60.6775 -194L64.8979 -198.219H74.3097V-207.629L80.9646 -214.283L74.3097 -220.937V-230.346ZM12.4406 -201.662H5.04644V-209.055L-0.182426 -214.283L5.04644 -219.511V-226.905H12.4406L17.6694 -232.133L22.8983 -226.905H30.2924V-219.511L35.5213 -214.283L30.2924 -209.055V-201.662H22.8983L17.6694 -196.434L12.4406 -201.662ZM30.2932 -168.488V-161.095H22.8991L17.6702 -155.867L12.4413 -161.095H5.04723V-168.488L-0.181648 -173.716L5.04723 -178.944V-186.338H12.4413L17.6702 -191.565L22.8991 -186.338H30.2932V-178.944L35.5221 -173.716L30.2932 -168.488ZM33.7362 -180.37V-189.779H24.3244L20.1039 -193.999L24.3244 -198.218H33.7362V-207.629L37.9566 -211.848L42.177 -207.629V-198.218H51.5888L55.8092 -193.999L51.5888 -189.779H42.177V-180.37L37.9566 -176.15L33.7362 -180.37ZM63.4726 -186.338H70.8667V-178.944L76.0956 -173.716L70.8667 -168.488V-161.095H63.4726L58.2437 -155.867L53.0149 -161.095H45.6208V-168.488L40.3919 -173.716L45.6208 -178.944V-186.338H53.0149L58.2437 -191.565L63.4726 -186.338ZM76.0956 -214.282L70.8667 -209.054V-201.661H63.4726L58.2437 -196.433L53.0149 -201.661H45.6208V-209.054L40.3919 -214.282L45.6208 -219.51V-226.904H53.0149L58.2437 -232.132L63.4726 -226.904H70.8667V-219.51L76.0956 -214.282Z" fill="#E0ECEE"/>
<path d="M160.327 -230.346H150.916L144.261 -237L137.606 -230.346H128.194V-220.937L123.973 -216.717L119.753 -220.937V-230.346H110.341L103.686 -237L97.0314 -230.346H87.6196V-220.937L80.9646 -214.283L87.6196 -207.629V-198.219H97.0314L101.252 -194L97.0314 -189.78H87.6196V-180.371L80.9646 -173.717L87.6196 -167.063V-157.654H97.0314L103.686 -151L110.341 -157.654H119.753V-167.063L123.973 -171.283L128.194 -167.063V-157.654H137.606L144.261 -151L150.916 -157.654H160.327V-167.063L166.982 -173.717L160.327 -180.371V-189.78H150.916L146.695 -194L150.916 -198.219H160.327V-207.629L166.982 -214.283L160.327 -220.937V-230.346ZM98.4582 -201.662H91.0641V-209.055L85.8353 -214.283L91.0641 -219.511V-226.905H98.4582L103.687 -232.133L108.916 -226.905H116.31V-219.511L121.539 -214.283L116.31 -209.055V-201.662H108.916L103.687 -196.434L98.4582 -201.662ZM116.311 -168.488V-161.095H108.917L103.688 -155.867L98.459 -161.095H91.0649V-168.488L85.836 -173.716L91.0649 -178.944V-186.338H98.459L103.688 -191.565L108.917 -186.338H116.311V-178.944L121.54 -173.716L116.311 -168.488ZM119.754 -180.37V-189.779H110.342L106.122 -193.999L110.342 -198.218H119.754V-207.629L123.974 -211.848L128.195 -207.629V-198.218H137.606L141.827 -193.999L137.606 -189.779H128.195V-180.37L123.974 -176.15L119.754 -180.37ZM149.49 -186.338H156.884V-178.944L162.113 -173.716L156.884 -168.488V-161.095H149.49L144.261 -155.867L139.033 -161.095H131.638V-168.488L126.41 -173.716L131.638 -178.944V-186.338H139.033L144.261 -191.565L149.49 -186.338ZM162.113 -214.282L156.884 -209.054V-201.661H149.49L144.261 -196.433L139.033 -201.661H131.638V-209.054L126.41 -214.282L131.638 -219.51V-226.904H139.033L144.261 -232.132L149.49 -226.904H156.884V-219.51L162.113 -214.282Z" fill="#E0ECEE"/>
<path d="M246.345 -230.346H236.933L230.278 -237L223.623 -230.346H214.212V-220.937L209.991 -216.717L205.771 -220.937V-230.346H196.359L189.704 -237L183.049 -230.346H173.637V-220.937L166.982 -214.283L173.637 -207.629V-198.219H183.049L187.269 -194L183.049 -189.78H173.637V-180.371L166.982 -173.717L173.637 -167.063V-157.654H183.049L189.704 -151L196.359 -157.654H205.771V-167.063L209.991 -171.283L214.212 -167.063V-157.654H223.623L230.278 -151L236.933 -157.654H246.345V-167.063L253 -173.717L246.345 -180.371V-189.78H236.933L232.713 -194L236.933 -198.219H246.345V-207.629L253 -214.283L246.345 -220.937V-230.346ZM184.476 -201.662H177.082V-209.055L171.853 -214.283L177.082 -219.511V-226.905H184.476L189.705 -232.133L194.934 -226.905H202.328V-219.511L207.557 -214.283L202.328 -209.055V-201.662H194.934L189.705 -196.434L184.476 -201.662ZM202.329 -168.488V-161.095H194.934L189.706 -155.867L184.477 -161.095H177.083V-168.488L171.854 -173.716L177.083 -178.944V-186.338H184.477L189.706 -191.565L194.934 -186.338H202.329V-178.944L207.557 -173.716L202.329 -168.488ZM205.772 -180.37V-189.779H196.36L192.139 -193.999L196.36 -198.218H205.772V-207.629L209.992 -211.848L214.212 -207.629V-198.218H223.624L227.845 -193.999L223.624 -189.779H214.212V-180.37L209.992 -176.15L205.772 -180.37ZM235.508 -186.338H242.902V-178.944L248.131 -173.716L242.902 -168.488V-161.095H235.508L230.279 -155.867L225.05 -161.095H217.656V-168.488L212.427 -173.716L217.656 -178.944V-186.338H225.05L230.279 -191.565L235.508 -186.338ZM248.131 -214.282L242.902 -209.054V-201.661H235.508L230.279 -196.433L225.05 -201.661H217.656V-209.054L212.427 -214.282L217.656 -219.51V-226.904H225.05L230.279 -232.132L235.508 -226.904H242.902V-219.51L248.131 -214.282Z" fill="#E0ECEE"/>
<path d="M-10.6372 199.654H-20.0491L-26.704 193L-33.3589 199.654H-42.7708V209.063L-46.9912 213.283L-51.2116 209.063V199.654H-60.6234L-67.2783 193L-73.9333 199.654H-83.3451V209.063L-90 215.717L-83.3451 222.371V231.781H-73.9333L-69.7128 236L-73.9333 240.22H-83.3451V249.629L-90 256.283L-83.3451 262.937V272.346H-73.9333L-67.2783 279L-60.6234 272.346H-51.2116V262.937L-46.9912 258.717L-42.7708 262.937V272.346H-33.3589L-26.704 279L-20.0491 272.346H-10.6372V262.937L-3.98232 256.283L-10.6372 249.629V240.22H-20.0491L-24.2695 236L-20.0491 231.781H-10.6372V222.371L-3.98232 215.717L-10.6372 209.063V199.654ZM-72.5064 228.338H-79.9005V220.945L-85.1294 215.717L-79.9005 210.489V203.095H-72.5064L-67.2775 197.867L-62.0487 203.095H-54.6546V210.489L-49.4257 215.717L-54.6546 220.945V228.338H-62.0487L-67.2775 233.566L-72.5064 228.338ZM-54.6538 261.512V268.905H-62.0479L-67.2768 274.133L-72.5056 268.905H-79.8997V261.512L-85.1286 256.284L-79.8997 251.056V243.662H-72.5056L-67.2768 238.434L-62.0479 243.662H-54.6538V251.056L-49.4249 256.284L-54.6538 261.512ZM-51.2108 249.63V240.221H-60.6226L-64.843 236.001L-60.6226 231.781H-51.2108V222.371L-46.9904 218.152L-42.77 222.371V231.781H-33.3582L-29.1377 236.001L-33.3582 240.221H-42.77V249.63L-46.9904 253.85L-51.2108 249.63ZM-21.4743 243.662H-14.0802V251.056L-8.85136 256.284L-14.0802 261.512V268.905H-21.4743L-26.7032 274.133L-31.9321 268.905H-39.3262V261.512L-44.5551 256.284L-39.3262 251.056V243.662H-31.9321L-26.7032 238.434L-21.4743 243.662ZM-8.85136 215.718L-14.0802 220.946V228.339H-21.4743L-26.7032 233.567L-31.9321 228.339H-39.3262V220.946L-44.5551 215.718L-39.3262 210.49V203.096H-31.9321L-26.7032 197.868L-21.4743 203.096H-14.0802V210.49L-8.85136 215.718Z" fill="#E0ECEE"/>
<path d="M74.3097 199.654H64.8979L58.243 193L51.588 199.654H42.1762V209.063L37.9558 213.283L33.7354 209.063V199.654H24.3236L17.6686 193L11.0137 199.654H1.60189V209.063L-5.05304 215.717L1.60189 222.371V231.781H11.0137L15.2341 236L11.0137 240.22H1.60189V249.629L-5.05304 256.283L1.60189 262.937V272.346H11.0137L17.6686 279L24.3236 272.346H33.7354V262.937L37.9558 258.717L42.1762 262.937V272.346H51.588L58.243 279L64.8979 272.346H74.3097V262.937L80.9646 256.283L74.3097 249.629V240.22H64.8979L60.6775 236L64.8979 231.781H74.3097V222.371L80.9646 215.717L74.3097 209.063V199.654ZM12.4406 228.338H5.04644V220.945L-0.182426 215.717L5.04644 210.489V203.095H12.4406L17.6694 197.867L22.8983 203.095H30.2924V210.489L35.5213 215.717L30.2924 220.945V228.338H22.8983L17.6694 233.566L12.4406 228.338ZM30.2932 261.512V268.905H22.8991L17.6702 274.133L12.4413 268.905H5.04723V261.512L-0.181648 256.284L5.04723 251.056V243.662H12.4413L17.6702 238.434L22.8991 243.662H30.2932V251.056L35.5221 256.284L30.2932 261.512ZM33.7362 249.63V240.221H24.3244L20.1039 236.001L24.3244 231.781H33.7362V222.371L37.9566 218.152L42.177 222.371V231.781H51.5888L55.8092 236.001L51.5888 240.221H42.177V249.63L37.9566 253.85L33.7362 249.63ZM63.4726 243.662H70.8667V251.056L76.0956 256.284L70.8667 261.512V268.905H63.4726L58.2437 274.133L53.0149 268.905H45.6208V261.512L40.3919 256.284L45.6208 251.056V243.662H53.0149L58.2437 238.434L63.4726 243.662ZM76.0956 215.718L70.8667 220.946V228.339H63.4726L58.2437 233.567L53.0149 228.339H45.6208V220.946L40.3919 215.718L45.6208 210.49V203.096H53.0149L58.2437 197.868L63.4726 203.096H70.8667V210.49L76.0956 215.718Z" fill="#E0ECEE"/>
<path d="M160.327 199.654H150.916L144.261 193L137.606 199.654H128.194V209.063L123.973 213.283L119.753 209.063V199.654H110.341L103.686 193L97.0314 199.654H87.6196V209.063L80.9646 215.717L87.6196 222.371V231.781H97.0314L101.252 236L97.0314 240.22H87.6196V249.629L80.9646 256.283L87.6196 262.937V272.346H97.0314L103.686 279L110.341 272.346H119.753V262.937L123.973 258.717L128.194 262.937V272.346H137.606L144.261 279L150.916 272.346H160.327V262.937L166.982 256.283L160.327 249.629V240.22H150.916L146.695 236L150.916 231.781H160.327V222.371L166.982 215.717L160.327 209.063V199.654ZM98.4582 228.338H91.0641V220.945L85.8353 215.717L91.0641 210.489V203.095H98.4582L103.687 197.867L108.916 203.095H116.31V210.489L121.539 215.717L116.31 220.945V228.338H108.916L103.687 233.566L98.4582 228.338ZM116.311 261.512V268.905H108.917L103.688 274.133L98.459 268.905H91.0649V261.512L85.836 256.284L91.0649 251.056V243.662H98.459L103.688 238.434L108.917 243.662H116.311V251.056L121.54 256.284L116.311 261.512ZM119.754 249.63V240.221H110.342L106.122 236.001L110.342 231.781H119.754V222.371L123.974 218.152L128.195 222.371V231.781H137.606L141.827 236.001L137.606 240.221H128.195V249.63L123.974 253.85L119.754 249.63ZM149.49 243.662H156.884V251.056L162.113 256.284L156.884 261.512V268.905H149.49L144.261 274.133L139.033 268.905H131.638V261.512L126.41 256.284L131.638 251.056V243.662H139.033L144.261 238.434L149.49 243.662ZM162.113 215.718L156.884 220.946V228.339H149.49L144.261 233.567L139.033 228.339H131.638V220.946L126.41 215.718L131.638 210.49V203.096H139.033L144.261 197.868L149.49 203.096H156.884V210.49L162.113 215.718Z" fill="#E0ECEE"/>
<path d="M246.345 199.654H236.933L230.278 193L223.623 199.654H214.212V209.063L209.991 213.283L205.771 209.063V199.654H196.359L189.704 193L183.049 199.654H173.637V209.063L166.982 215.717L173.637 222.371V231.781H183.049L187.269 236L183.049 240.22H173.637V249.629L166.982 256.283L173.637 262.937V272.346H183.049L189.704 279L196.359 272.346H205.771V262.937L209.991 258.717L214.212 262.937V272.346H223.623L230.278 279L236.933 272.346H246.345V262.937L253 256.283L246.345 249.629V240.22H236.933L232.713 236L236.933 231.781H246.345V222.371L253 215.717L246.345 209.063V199.654ZM184.476 228.338H177.082V220.945L171.853 215.717L177.082 210.489V203.095H184.476L189.705 197.867L194.934 203.095H202.328V210.489L207.557 215.717L202.328 220.945V228.338H194.934L189.705 233.566L184.476 228.338ZM202.329 261.512V268.905H194.934L189.706 274.133L184.477 268.905H177.083V261.512L171.854 256.284L177.083 251.056V243.662H184.477L189.706 238.434L194.934 243.662H202.329V251.056L207.557 256.284L202.329 261.512ZM205.772 249.63V240.221H196.36L192.139 236.001L196.36 231.781H205.772V222.371L209.992 218.152L214.212 222.371V231.781H223.624L227.845 236.001L223.624 240.221H214.212V249.63L209.992 253.85L205.772 249.63ZM235.508 243.662H242.902V251.056L248.131 256.284L242.902 261.512V268.905H235.508L230.279 274.133L225.05 268.905H217.656V261.512L212.427 256.284L217.656 251.056V243.662H225.05L230.279 238.434L235.508 243.662ZM248.131 215.718L242.902 220.946V228.339H235.508L230.279 233.567L225.05 228.339H217.656V220.946L212.427 215.718L217.656 210.49V203.096H225.05L230.279 197.868L235.508 203.096H242.902V210.49L248.131 215.718Z" fill="#E0ECEE"/>
<path d="M-10.6372 285.654H-20.0491L-26.704 279L-33.3589 285.654H-42.7708V295.063L-46.9912 299.283L-51.2116 295.063V285.654H-60.6234L-67.2783 279L-73.9333 285.654H-83.3451V295.063L-90 301.717L-83.3451 308.371V317.781H-73.9333L-69.7128 322L-73.9333 326.22H-83.3451V335.629L-90 342.283L-83.3451 348.937V358.346H-73.9333L-67.2783 365L-60.6234 358.346H-51.2116V348.937L-46.9912 344.717L-42.7708 348.937V358.346H-33.3589L-26.704 365L-20.0491 358.346H-10.6372V348.937L-3.98232 342.283L-10.6372 335.629V326.22H-20.0491L-24.2695 322L-20.0491 317.781H-10.6372V308.371L-3.98232 301.717L-10.6372 295.063V285.654ZM-72.5064 314.338H-79.9005V306.945L-85.1294 301.717L-79.9005 296.489V289.095H-72.5064L-67.2775 283.867L-62.0487 289.095H-54.6546V296.489L-49.4257 301.717L-54.6546 306.945V314.338H-62.0487L-67.2775 319.566L-72.5064 314.338ZM-54.6538 347.512V354.905H-62.0479L-67.2768 360.133L-72.5056 354.905H-79.8997V347.512L-85.1286 342.284L-79.8997 337.056V329.662H-72.5056L-67.2768 324.434L-62.0479 329.662H-54.6538V337.056L-49.4249 342.284L-54.6538 347.512ZM-51.2108 335.63V326.221H-60.6226L-64.843 322.001L-60.6226 317.781H-51.2108V308.371L-46.9904 304.152L-42.77 308.371V317.781H-33.3582L-29.1377 322.001L-33.3582 326.221H-42.77V335.63L-46.9904 339.85L-51.2108 335.63ZM-21.4743 329.662H-14.0802V337.056L-8.85136 342.284L-14.0802 347.512V354.905H-21.4743L-26.7032 360.133L-31.9321 354.905H-39.3262V347.512L-44.5551 342.284L-39.3262 337.056V329.662H-31.9321L-26.7032 324.434L-21.4743 329.662ZM-8.85136 301.718L-14.0802 306.946V314.339H-21.4743L-26.7032 319.567L-31.9321 314.339H-39.3262V306.946L-44.5551 301.718L-39.3262 296.49V289.096H-31.9321L-26.7032 283.868L-21.4743 289.096H-14.0802V296.49L-8.85136 301.718Z" fill="#E0ECEE"/>
<path d="M74.3097 285.654H64.8979L58.243 279L51.588 285.654H42.1762V295.063L37.9558 299.283L33.7354 295.063V285.654H24.3236L17.6686 279L11.0137 285.654H1.60189V295.063L-5.05304 301.717L1.60189 308.371V317.781H11.0137L15.2341 322L11.0137 326.22H1.60189V335.629L-5.05304 342.283L1.60189 348.937V358.346H11.0137L17.6686 365L24.3236 358.346H33.7354V348.937L37.9558 344.717L42.1762 348.937V358.346H51.588L58.243 365L64.8979 358.346H74.3097V348.937L80.9646 342.283L74.3097 335.629V326.22H64.8979L60.6775 322L64.8979 317.781H74.3097V308.371L80.9646 301.717L74.3097 295.063V285.654ZM12.4406 314.338H5.04644V306.945L-0.182426 301.717L5.04644 296.489V289.095H12.4406L17.6694 283.867L22.8983 289.095H30.2924V296.489L35.5213 301.717L30.2924 306.945V314.338H22.8983L17.6694 319.566L12.4406 314.338ZM30.2932 347.512V354.905H22.8991L17.6702 360.133L12.4413 354.905H5.04723V347.512L-0.181648 342.284L5.04723 337.056V329.662H12.4413L17.6702 324.434L22.8991 329.662H30.2932V337.056L35.5221 342.284L30.2932 347.512ZM33.7362 335.63V326.221H24.3244L20.1039 322.001L24.3244 317.781H33.7362V308.371L37.9566 304.152L42.177 308.371V317.781H51.5888L55.8092 322.001L51.5888 326.221H42.177V335.63L37.9566 339.85L33.7362 335.63ZM63.4726 329.662H70.8667V337.056L76.0956 342.284L70.8667 347.512V354.905H63.4726L58.2437 360.133L53.0149 354.905H45.6208V347.512L40.3919 342.284L45.6208 337.056V329.662H53.0149L58.2437 324.434L63.4726 329.662ZM76.0956 301.718L70.8667 306.946V314.339H63.4726L58.2437 319.567L53.0149 314.339H45.6208V306.946L40.3919 301.718L45.6208 296.49V289.096H53.0149L58.2437 283.868L63.4726 289.096H70.8667V296.49L76.0956 301.718Z" fill="#E0ECEE"/>
<path d="M160.327 285.654H150.916L144.261 279L137.606 285.654H128.194V295.063L123.973 299.283L119.753 295.063V285.654H110.341L103.686 279L97.0314 285.654H87.6196V295.063L80.9646 301.717L87.6196 308.371V317.781H97.0314L101.252 322L97.0314 326.22H87.6196V335.629L80.9646 342.283L87.6196 348.937V358.346H97.0314L103.686 365L110.341 358.346H119.753V348.937L123.973 344.717L128.194 348.937V358.346H137.606L144.261 365L150.916 358.346H160.327V348.937L166.982 342.283L160.327 335.629V326.22H150.916L146.695 322L150.916 317.781H160.327V308.371L166.982 301.717L160.327 295.063V285.654ZM98.4582 314.338H91.0641V306.945L85.8353 301.717L91.0641 296.489V289.095H98.4582L103.687 283.867L108.916 289.095H116.31V296.489L121.539 301.717L116.31 306.945V314.338H108.916L103.687 319.566L98.4582 314.338ZM116.311 347.512V354.905H108.917L103.688 360.133L98.459 354.905H91.0649V347.512L85.836 342.284L91.0649 337.056V329.662H98.459L103.688 324.434L108.917 329.662H116.311V337.056L121.54 342.284L116.311 347.512ZM119.754 335.63V326.221H110.342L106.122 322.001L110.342 317.781H119.754V308.371L123.974 304.152L128.195 308.371V317.781H137.606L141.827 322.001L137.606 326.221H128.195V335.63L123.974 339.85L119.754 335.63ZM149.49 329.662H156.884V337.056L162.113 342.284L156.884 347.512V354.905H149.49L144.261 360.133L139.033 354.905H131.638V347.512L126.41 342.284L131.638 337.056V329.662H139.033L144.261 324.434L149.49 329.662ZM162.113 301.718L156.884 306.946V314.339H149.49L144.261 319.567L139.033 314.339H131.638V306.946L126.41 301.718L131.638 296.49V289.096H139.033L144.261 283.868L149.49 289.096H156.884V296.49L162.113 301.718Z" fill="#E0ECEE"/>
<path d="M246.345 285.654H236.933L230.278 279L223.623 285.654H214.212V295.063L209.991 299.283L205.771 295.063V285.654H196.359L189.704 279L183.049 285.654H173.637V295.063L166.982 301.717L173.637 308.371V317.781H183.049L187.269 322L183.049 326.22H173.637V335.629L166.982 342.283L173.637 348.937V358.346H183.049L189.704 365L196.359 358.346H205.771V348.937L209.991 344.717L214.212 348.937V358.346H223.623L230.278 365L236.933 358.346H246.345V348.937L253 342.283L246.345 335.629V326.22H236.933L232.713 322L236.933 317.781H246.345V308.371L253 301.717L246.345 295.063V285.654ZM184.476 314.338H177.082V306.945L171.853 301.717L177.082 296.489V289.095H184.476L189.705 283.867L194.934 289.095H202.328V296.489L207.557 301.717L202.328 306.945V314.338H194.934L189.705 319.566L184.476 314.338ZM202.329 347.512V354.905H194.934L189.706 360.133L184.477 354.905H177.083V347.512L171.854 342.284L177.083 337.056V329.662H184.477L189.706 324.434L194.934 329.662H202.329V337.056L207.557 342.284L202.329 347.512ZM205.772 335.63V326.221H196.36L192.139 322.001L196.36 317.781H205.772V308.371L209.992 304.152L214.212 308.371V317.781H223.624L227.845 322.001L223.624 326.221H214.212V335.63L209.992 339.85L205.772 335.63ZM235.508 329.662H242.902V337.056L248.131 342.284L242.902 347.512V354.905H235.508L230.279 360.133L225.05 354.905H217.656V347.512L212.427 342.284L217.656 337.056V329.662H225.05L230.279 324.434L235.508 329.662ZM248.131 301.718L242.902 306.946V314.339H235.508L230.279 319.567L225.05 314.339H217.656V306.946L212.427 301.718L217.656 296.49V289.096H225.05L230.279 283.868L235.508 289.096H242.902V296.49L248.131 301.718Z" fill="#E0ECEE"/>
<path d="M-10.6372 -144.346H-20.0491L-26.704 -151L-33.3589 -144.346H-42.7708V-134.937L-46.9912 -130.717L-51.2116 -134.937V-144.346H-60.6234L-67.2783 -151L-73.9333 -144.346H-83.3451V-134.937L-90 -128.283L-83.3451 -121.629V-112.219H-73.9333L-69.7128 -108L-73.9333 -103.78H-83.3451V-94.3706L-90 -87.7169L-83.3451 -81.0631V-71.6538H-73.9333L-67.2783 -65L-60.6234 -71.6538H-51.2116V-81.0631L-46.9912 -85.2828L-42.7708 -81.0631V-71.6538H-33.3589L-26.704 -65L-20.0491 -71.6538H-10.6372V-81.0631L-3.98232 -87.7169L-10.6372 -94.3706V-103.78H-20.0491L-24.2695 -108L-20.0491 -112.219H-10.6372V-121.629L-3.98232 -128.283L-10.6372 -134.937V-144.346ZM-72.5064 -115.662H-79.9005V-123.055L-85.1294 -128.283L-79.9005 -133.511V-140.905H-72.5064L-67.2775 -146.133L-62.0487 -140.905H-54.6546V-133.511L-49.4257 -128.283L-54.6546 -123.055V-115.662H-62.0487L-67.2775 -110.434L-72.5064 -115.662ZM-54.6538 -82.4882V-75.0946H-62.0479L-67.2768 -69.8667L-72.5056 -75.0946H-79.8997V-82.4882L-85.1286 -87.7161L-79.8997 -92.944V-100.338H-72.5056L-67.2768 -105.566L-62.0479 -100.338H-54.6538V-92.944L-49.4249 -87.7161L-54.6538 -82.4882ZM-51.2108 -94.3698V-103.779H-60.6226L-64.843 -107.999L-60.6226 -112.219H-51.2108V-121.629L-46.9904 -125.848L-42.77 -121.629V-112.219H-33.3582L-29.1377 -107.999L-33.3582 -103.779H-42.77V-94.3698L-46.9904 -90.1502L-51.2108 -94.3698ZM-21.4743 -100.338H-14.0802V-92.944L-8.85136 -87.7161L-14.0802 -82.4882V-75.0946H-21.4743L-26.7032 -69.8667L-31.9321 -75.0946H-39.3262V-82.4882L-44.5551 -87.7161L-39.3262 -92.944V-100.338H-31.9321L-26.7032 -105.566L-21.4743 -100.338ZM-8.85136 -128.282L-14.0802 -123.054V-115.661H-21.4743L-26.7032 -110.433L-31.9321 -115.661H-39.3262V-123.054L-44.5551 -128.282L-39.3262 -133.51V-140.904H-31.9321L-26.7032 -146.132L-21.4743 -140.904H-14.0802V-133.51L-8.85136 -128.282Z" fill="#E0ECEE"/>
<path d="M74.3097 -144.346H64.8979L58.243 -151L51.588 -144.346H42.1762V-134.937L37.9558 -130.717L33.7354 -134.937V-144.346H24.3236L17.6686 -151L11.0137 -144.346H1.60189V-134.937L-5.05304 -128.283L1.60189 -121.629V-112.219H11.0137L15.2341 -108L11.0137 -103.78H1.60189V-94.3706L-5.05304 -87.7169L1.60189 -81.0631V-71.6538H11.0137L17.6686 -65L24.3236 -71.6538H33.7354V-81.0631L37.9558 -85.2828L42.1762 -81.0631V-71.6538H51.588L58.243 -65L64.8979 -71.6538H74.3097V-81.0631L80.9646 -87.7169L74.3097 -94.3706V-103.78H64.8979L60.6775 -108L64.8979 -112.219H74.3097V-121.629L80.9646 -128.283L74.3097 -134.937V-144.346ZM12.4406 -115.662H5.04644V-123.055L-0.182426 -128.283L5.04644 -133.511V-140.905H12.4406L17.6694 -146.133L22.8983 -140.905H30.2924V-133.511L35.5213 -128.283L30.2924 -123.055V-115.662H22.8983L17.6694 -110.434L12.4406 -115.662ZM30.2932 -82.4882V-75.0946H22.8991L17.6702 -69.8667L12.4413 -75.0946H5.04723V-82.4882L-0.181648 -87.7161L5.04723 -92.944V-100.338H12.4413L17.6702 -105.566L22.8991 -100.338H30.2932V-92.944L35.5221 -87.7161L30.2932 -82.4882ZM33.7362 -94.3698V-103.779H24.3244L20.1039 -107.999L24.3244 -112.219H33.7362V-121.629L37.9566 -125.848L42.177 -121.629V-112.219H51.5888L55.8092 -107.999L51.5888 -103.779H42.177V-94.3698L37.9566 -90.1502L33.7362 -94.3698ZM63.4726 -100.338H70.8667V-92.944L76.0956 -87.7161L70.8667 -82.4882V-75.0946H63.4726L58.2437 -69.8667L53.0149 -75.0946H45.6208V-82.4882L40.3919 -87.7161L45.6208 -92.944V-100.338H53.0149L58.2437 -105.566L63.4726 -100.338ZM76.0956 -128.282L70.8667 -123.054V-115.661H63.4726L58.2437 -110.433L53.0149 -115.661H45.6208V-123.054L40.3919 -128.282L45.6208 -133.51V-140.904H53.0149L58.2437 -146.132L63.4726 -140.904H70.8667V-133.51L76.0956 -128.282Z" fill="#E0ECEE"/>
<path d="M160.327 -144.346H150.916L144.261 -151L137.606 -144.346H128.194V-134.937L123.973 -130.717L119.753 -134.937V-144.346H110.341L103.686 -151L97.0314 -144.346H87.6196V-134.937L80.9646 -128.283L87.6196 -121.629V-112.219H97.0314L101.252 -108L97.0314 -103.78H87.6196V-94.3706L80.9646 -87.7169L87.6196 -81.0631V-71.6538H97.0314L103.686 -65L110.341 -71.6538H119.753V-81.0631L123.973 -85.2828L128.194 -81.0631V-71.6538H137.606L144.261 -65L150.916 -71.6538H160.327V-81.0631L166.982 -87.7169L160.327 -94.3706V-103.78H150.916L146.695 -108L150.916 -112.219H160.327V-121.629L166.982 -128.283L160.327 -134.937V-144.346ZM98.4582 -115.662H91.0641V-123.055L85.8353 -128.283L91.0641 -133.511V-140.905H98.4582L103.687 -146.133L108.916 -140.905H116.31V-133.511L121.539 -128.283L116.31 -123.055V-115.662H108.916L103.687 -110.434L98.4582 -115.662ZM116.311 -82.4882V-75.0946H108.917L103.688 -69.8667L98.459 -75.0946H91.0649V-82.4882L85.836 -87.7161L91.0649 -92.944V-100.338H98.459L103.688 -105.566L108.917 -100.338H116.311V-92.944L121.54 -87.7161L116.311 -82.4882ZM119.754 -94.3698V-103.779H110.342L106.122 -107.999L110.342 -112.219H119.754V-121.629L123.974 -125.848L128.195 -121.629V-112.219H137.606L141.827 -107.999L137.606 -103.779H128.195V-94.3698L123.974 -90.1502L119.754 -94.3698ZM149.49 -100.338H156.884V-92.944L162.113 -87.7161L156.884 -82.4882V-75.0946H149.49L144.261 -69.8667L139.033 -75.0946H131.638V-82.4882L126.41 -87.7161L131.638 -92.944V-100.338H139.033L144.261 -105.566L149.49 -100.338ZM162.113 -128.282L156.884 -123.054V-115.661H149.49L144.261 -110.433L139.033 -115.661H131.638V-123.054L126.41 -128.282L131.638 -133.51V-140.904H139.033L144.261 -146.132L149.49 -140.904H156.884V-133.51L162.113 -128.282Z" fill="#E0ECEE"/>
<path d="M246.345 -144.346H236.933L230.278 -151L223.623 -144.346H214.212V-134.937L209.991 -130.717L205.771 -134.937V-144.346H196.359L189.704 -151L183.049 -144.346H173.637V-134.937L166.982 -128.283L173.637 -121.629V-112.219H183.049L187.269 -108L183.049 -103.78H173.637V-94.3706L166.982 -87.7169L173.637 -81.0631V-71.6538H183.049L189.704 -65L196.359 -71.6538H205.771V-81.0631L209.991 -85.2828L214.212 -81.0631V-71.6538H223.623L230.278 -65L236.933 -71.6538H246.345V-81.0631L253 -87.7169L246.345 -94.3706V-103.78H236.933L232.713 -108L236.933 -112.219H246.345V-121.629L253 -128.283L246.345 -134.937V-144.346ZM184.476 -115.662H177.082V-123.055L171.853 -128.283L177.082 -133.511V-140.905H184.476L189.705 -146.133L194.934 -140.905H202.328V-133.511L207.557 -128.283L202.328 -123.055V-115.662H194.934L189.705 -110.434L184.476 -115.662ZM202.329 -82.4882V-75.0946H194.934L189.706 -69.8667L184.477 -75.0946H177.083V-82.4882L171.854 -87.7161L177.083 -92.944V-100.338H184.477L189.706 -105.566L194.934 -100.338H202.329V-92.944L207.557 -87.7161L202.329 -82.4882ZM205.772 -94.3698V-103.779H196.36L192.139 -107.999L196.36 -112.219H205.772V-121.629L209.992 -125.848L214.212 -121.629V-112.219H223.624L227.845 -107.999L223.624 -103.779H214.212V-94.3698L209.992 -90.1502L205.772 -94.3698ZM235.508 -100.338H242.902V-92.944L248.131 -87.7161L242.902 -82.4882V-75.0946H235.508L230.279 -69.8667L225.05 -75.0946H217.656V-82.4882L212.427 -87.7161L217.656 -92.944V-100.338H225.05L230.279 -105.566L235.508 -100.338ZM248.131 -128.282L242.902 -123.054V-115.661H235.508L230.279 -110.433L225.05 -115.661H217.656V-123.054L212.427 -128.282L217.656 -133.51V-140.904H225.05L230.279 -146.132L235.508 -140.904H242.902V-133.51L248.131 -128.282Z" fill="#E0ECEE"/>
<path d="M-10.6372 -58.3463H-20.0491L-26.704 -65L-33.3589 -58.3463H-42.7708V-48.9369L-46.9912 -44.7172L-51.2116 -48.9369V-58.3463H-60.6234L-67.2783 -65L-73.9333 -58.3463H-83.3451V-48.9369L-90 -42.2831L-83.3451 -35.6294V-26.2193H-73.9333L-69.7128 -21.9996L-73.9333 -17.78H-83.3451V-8.37061L-90 -1.71686L-83.3451 4.93689V14.3463H-73.9333L-67.2783 21L-60.6234 14.3463H-51.2116V4.93689L-46.9912 0.717224L-42.7708 4.93689V14.3463H-33.3589L-26.704 21L-20.0491 14.3463H-10.6372V4.93689L-3.98232 -1.71686L-10.6372 -8.37061V-17.78H-20.0491L-24.2695 -21.9996L-20.0491 -26.2193H-10.6372V-35.6294L-3.98232 -42.2831L-10.6372 -48.9369V-58.3463ZM-72.5064 -29.6617H-79.9005V-37.0552L-85.1294 -42.2831L-79.9005 -47.5111V-54.9047H-72.5064L-67.2775 -60.1326L-62.0487 -54.9047H-54.6546V-47.5111L-49.4257 -42.2831L-54.6546 -37.0552V-29.6617H-62.0487L-67.2775 -24.4337L-72.5064 -29.6617ZM-54.6538 3.51187V10.9054H-62.0479L-67.2768 16.1334L-72.5056 10.9054H-79.8997V3.51187L-85.1286 -1.71606L-79.8997 -6.94403V-14.3376H-72.5056L-67.2768 -19.5655L-62.0479 -14.3376H-54.6538V-6.94403L-49.4249 -1.71606L-54.6538 3.51187ZM-51.2108 -8.36981V-17.7792H-60.6226L-64.843 -21.9988L-60.6226 -26.2185H-51.2108V-35.6286L-46.9904 -39.8483L-42.77 -35.6286V-26.2185H-33.3582L-29.1377 -21.9988L-33.3582 -17.7792H-42.77V-8.36981L-46.9904 -4.15015L-51.2108 -8.36981ZM-21.4743 -14.3376H-14.0802V-6.94403L-8.85136 -1.71606L-14.0802 3.51187V10.9054H-21.4743L-26.7032 16.1334L-31.9321 10.9054H-39.3262V3.51187L-44.5551 -1.71606L-39.3262 -6.94403V-14.3376H-31.9321L-26.7032 -19.5655L-21.4743 -14.3376ZM-8.85136 -42.2824L-14.0802 -37.0544V-29.6609H-21.4743L-26.7032 -24.4329L-31.9321 -29.6609H-39.3262V-37.0544L-44.5551 -42.2824L-39.3262 -47.5103V-54.9039H-31.9321L-26.7032 -60.1318L-21.4743 -54.9039H-14.0802V-47.5103L-8.85136 -42.2824Z" fill="#E0ECEE"/>
<path d="M74.3097 -58.3463H64.8979L58.243 -65L51.588 -58.3463H42.1762V-48.9369L37.9558 -44.7172L33.7354 -48.9369V-58.3463H24.3236L17.6686 -65L11.0137 -58.3463H1.60189V-48.9369L-5.05304 -42.2831L1.60189 -35.6294V-26.2193H11.0137L15.2341 -21.9996L11.0137 -17.78H1.60189V-8.37061L-5.05304 -1.71686L1.60189 4.93689V14.3463H11.0137L17.6686 21L24.3236 14.3463H33.7354V4.93689L37.9558 0.717224L42.1762 4.93689V14.3463H51.588L58.243 21L64.8979 14.3463H74.3097V4.93689L80.9646 -1.71686L74.3097 -8.37061V-17.78H64.8979L60.6775 -21.9996L64.8979 -26.2193H74.3097V-35.6294L80.9646 -42.2831L74.3097 -48.9369V-58.3463ZM12.4406 -29.6617H5.04644V-37.0552L-0.182426 -42.2831L5.04644 -47.5111V-54.9047H12.4406L17.6694 -60.1326L22.8983 -54.9047H30.2924V-47.5111L35.5213 -42.2831L30.2924 -37.0552V-29.6617H22.8983L17.6694 -24.4337L12.4406 -29.6617ZM30.2932 3.51187V10.9054H22.8991L17.6702 16.1334L12.4413 10.9054H5.04723V3.51187L-0.181648 -1.71606L5.04723 -6.94403V-14.3376H12.4413L17.6702 -19.5655L22.8991 -14.3376H30.2932V-6.94403L35.5221 -1.71606L30.2932 3.51187ZM33.7362 -8.36981V-17.7792H24.3244L20.1039 -21.9988L24.3244 -26.2185H33.7362V-35.6286L37.9566 -39.8483L42.177 -35.6286V-26.2185H51.5888L55.8092 -21.9988L51.5888 -17.7792H42.177V-8.36981L37.9566 -4.15015L33.7362 -8.36981ZM63.4726 -14.3376H70.8667V-6.94403L76.0956 -1.71606L70.8667 3.51187V10.9054H63.4726L58.2437 16.1334L53.0149 10.9054H45.6208V3.51187L40.3919 -1.71606L45.6208 -6.94403V-14.3376H53.0149L58.2437 -19.5655L63.4726 -14.3376ZM76.0956 -42.2824L70.8667 -37.0544V-29.6609H63.4726L58.2437 -24.4329L53.0149 -29.6609H45.6208V-37.0544L40.3919 -42.2824L45.6208 -47.5103V-54.9039H53.0149L58.2437 -60.1318L63.4726 -54.9039H70.8667V-47.5103L76.0956 -42.2824Z" fill="#E0ECEE"/>
<path d="M160.327 -58.3463H150.916L144.261 -65L137.606 -58.3463H128.194V-48.9369L123.973 -44.7172L119.753 -48.9369V-58.3463H110.341L103.686 -65L97.0314 -58.3463H87.6196V-48.9369L80.9646 -42.2831L87.6196 -35.6294V-26.2193H97.0314L101.252 -21.9996L97.0314 -17.78H87.6196V-8.37061L80.9646 -1.71686L87.6196 4.93689V14.3463H97.0314L103.686 21L110.341 14.3463H119.753V4.93689L123.973 0.717224L128.194 4.93689V14.3463H137.606L144.261 21L150.916 14.3463H160.327V4.93689L166.982 -1.71686L160.327 -8.37061V-17.78H150.916L146.695 -21.9996L150.916 -26.2193H160.327V-35.6294L166.982 -42.2831L160.327 -48.9369V-58.3463ZM98.4582 -29.6617H91.0641V-37.0552L85.8353 -42.2831L91.0641 -47.5111V-54.9047H98.4582L103.687 -60.1326L108.916 -54.9047H116.31V-47.5111L121.539 -42.2831L116.31 -37.0552V-29.6617H108.916L103.687 -24.4337L98.4582 -29.6617ZM116.311 3.51187V10.9054H108.917L103.688 16.1334L98.459 10.9054H91.0649V3.51187L85.836 -1.71606L91.0649 -6.94403V-14.3376H98.459L103.688 -19.5655L108.917 -14.3376H116.311V-6.94403L121.54 -1.71606L116.311 3.51187ZM119.754 -8.36981V-17.7792H110.342L106.122 -21.9988L110.342 -26.2185H119.754V-35.6286L123.974 -39.8483L128.195 -35.6286V-26.2185H137.606L141.827 -21.9988L137.606 -17.7792H128.195V-8.36981L123.974 -4.15015L119.754 -8.36981ZM149.49 -14.3376H156.884V-6.94403L162.113 -1.71606L156.884 3.51187V10.9054H149.49L144.261 16.1334L139.033 10.9054H131.638V3.51187L126.41 -1.71606L131.638 -6.94403V-14.3376H139.033L144.261 -19.5655L149.49 -14.3376ZM162.113 -42.2824L156.884 -37.0544V-29.6609H149.49L144.261 -24.4329L139.033 -29.6609H131.638V-37.0544L126.41 -42.2824L131.638 -47.5103V-54.9039H139.033L144.261 -60.1318L149.49 -54.9039H156.884V-47.5103L162.113 -42.2824Z" fill="#E0ECEE"/>
<path d="M246.345 -58.3463H236.933L230.278 -65L223.623 -58.3463H214.212V-48.9369L209.991 -44.7172L205.771 -48.9369V-58.3463H196.359L189.704 -65L183.049 -58.3463H173.637V-48.9369L166.982 -42.2831L173.637 -35.6294V-26.2193H183.049L187.269 -21.9996L183.049 -17.78H173.637V-8.37061L166.982 -1.71686L173.637 4.93689V14.3463H183.049L189.704 21L196.359 14.3463H205.771V4.93689L209.991 0.717224L214.212 4.93689V14.3463H223.623L230.278 21L236.933 14.3463H246.345V4.93689L253 -1.71686L246.345 -8.37061V-17.78H236.933L232.713 -21.9996L236.933 -26.2193H246.345V-35.6294L253 -42.2831L246.345 -48.9369V-58.3463ZM184.476 -29.6617H177.082V-37.0552L171.853 -42.2831L177.082 -47.5111V-54.9047H184.476L189.705 -60.1326L194.934 -54.9047H202.328V-47.5111L207.557 -42.2831L202.328 -37.0552V-29.6617H194.934L189.705 -24.4337L184.476 -29.6617ZM202.329 3.51187V10.9054H194.934L189.706 16.1334L184.477 10.9054H177.083V3.51187L171.854 -1.71606L177.083 -6.94403V-14.3376H184.477L189.706 -19.5655L194.934 -14.3376H202.329V-6.94403L207.557 -1.71606L202.329 3.51187ZM205.772 -8.36981V-17.7792H196.36L192.139 -21.9988L196.36 -26.2185H205.772V-35.6286L209.992 -39.8483L214.212 -35.6286V-26.2185H223.624L227.845 -21.9988L223.624 -17.7792H214.212V-8.36981L209.992 -4.15015L205.772 -8.36981ZM235.508 -14.3376H242.902V-6.94403L248.131 -1.71606L242.902 3.51187V10.9054H235.508L230.279 16.1334L225.05 10.9054H217.656V3.51187L212.427 -1.71606L217.656 -6.94403V-14.3376H225.05L230.279 -19.5655L235.508 -14.3376ZM248.131 -42.2824L242.902 -37.0544V-29.6609H235.508L230.279 -24.4329L225.05 -29.6609H217.656V-37.0544L212.427 -42.2824L217.656 -47.5103V-54.9039H225.05L230.279 -60.1318L235.508 -54.9039H242.902V-47.5103L248.131 -42.2824Z" fill="#E0ECEE"/>
</g>
</g>
</svg>
