<svg width="94" height="83" viewBox="0 0 94 83" fill="none" xmlns="http://www.w3.org/2000/svg">
<g opacity="0.3">
<mask id="mask0_192_1601" style="mask-type:alpha" maskUnits="userSpaceOnUse" x="0" y="-79" width="162" height="162">
<circle cx="81" cy="2" r="81" fill="#D9D9D9"/>
</mask>
<g mask="url(#mask0_192_1601)">
<path d="M-10.6372 8.65375H-20.0491L-26.704 2L-33.3589 8.65375H-42.7708V18.0631L-46.9912 22.2827L-51.2116 18.0631V8.65375H-60.6234L-67.2783 2L-73.9333 8.65375H-83.3451V18.0631L-90 24.7169L-83.3451 31.3706V40.7807H-73.9333L-69.7128 45.0004L-73.9333 49.2201H-83.3451V58.6294L-90 65.2831L-83.3451 71.9369V81.3462H-73.9333L-67.2783 88L-60.6234 81.3462H-51.2116V71.9369L-46.9912 67.7172L-42.7708 71.9369V81.3462H-33.3589L-26.704 88L-20.0491 81.3462H-10.6372V71.9369L-3.98232 65.2831L-10.6372 58.6294V49.2201H-20.0491L-24.2695 45.0004L-20.0491 40.7807H-10.6372V31.3706L-3.98232 24.7169L-10.6372 18.0631V8.65375ZM-72.5064 37.3383H-79.9005V29.9448L-85.1294 24.7169L-79.9005 19.4889V12.0953H-72.5064L-67.2775 6.86737L-62.0487 12.0953H-54.6546V19.4889L-49.4257 24.7169L-54.6546 29.9448V37.3383H-62.0487L-67.2775 42.5663L-72.5064 37.3383ZM-54.6538 70.5119V77.9055H-62.0479L-67.2768 83.1334L-72.5056 77.9055H-79.8997V70.5119L-85.1286 65.2839L-79.8997 60.0559V52.6624H-72.5056L-67.2768 47.4344L-62.0479 52.6624H-54.6538V60.0559L-49.4249 65.2839L-54.6538 70.5119ZM-51.2108 58.6302V49.2208H-60.6226L-64.843 45.0012L-60.6226 40.7815H-51.2108V31.3713L-46.9904 27.1517L-42.77 31.3713V40.7815H-33.3582L-29.1377 45.0012L-33.3582 49.2208H-42.77V58.6302L-46.9904 62.8498L-51.2108 58.6302ZM-21.4743 52.6624H-14.0802V60.0559L-8.85136 65.2839L-14.0802 70.5119V77.9055H-21.4743L-26.7032 83.1334L-31.9321 77.9055H-39.3262V70.5119L-44.5551 65.2839L-39.3262 60.0559V52.6624H-31.9321L-26.7032 47.4344L-21.4743 52.6624ZM-8.85136 24.7176L-14.0802 29.9456V37.3391H-21.4743L-26.7032 42.5671L-31.9321 37.3391H-39.3262V29.9456L-44.5551 24.7176L-39.3262 19.4897V12.0961H-31.9321L-26.7032 6.86816L-21.4743 12.0961H-14.0802V19.4897L-8.85136 24.7176Z" fill="#E0ECEE"/>
<path d="M74.3097 8.65375H64.8979L58.243 2L51.588 8.65375H42.1762V18.0631L37.9558 22.2827L33.7354 18.0631V8.65375H24.3236L17.6686 2L11.0137 8.65375H1.60189V18.0631L-5.05304 24.7169L1.60189 31.3706V40.7807H11.0137L15.2341 45.0004L11.0137 49.2201H1.60189V58.6294L-5.05304 65.2831L1.60189 71.9369V81.3462H11.0137L17.6686 88L24.3236 81.3462H33.7354V71.9369L37.9558 67.7172L42.1762 71.9369V81.3462H51.588L58.243 88L64.8979 81.3462H74.3097V71.9369L80.9646 65.2831L74.3097 58.6294V49.2201H64.8979L60.6775 45.0004L64.8979 40.7807H74.3097V31.3706L80.9646 24.7169L74.3097 18.0631V8.65375ZM12.4406 37.3383H5.04644V29.9448L-0.182426 24.7169L5.04644 19.4889V12.0953H12.4406L17.6694 6.86737L22.8983 12.0953H30.2924V19.4889L35.5213 24.7169L30.2924 29.9448V37.3383H22.8983L17.6694 42.5663L12.4406 37.3383ZM30.2932 70.5119V77.9055H22.8991L17.6702 83.1334L12.4413 77.9055H5.04723V70.5119L-0.181648 65.2839L5.04723 60.0559V52.6624H12.4413L17.6702 47.4344L22.8991 52.6624H30.2932V60.0559L35.5221 65.2839L30.2932 70.5119ZM33.7362 58.6302V49.2208H24.3244L20.1039 45.0012L24.3244 40.7815H33.7362V31.3713L37.9566 27.1517L42.177 31.3713V40.7815H51.5888L55.8092 45.0012L51.5888 49.2208H42.177V58.6302L37.9566 62.8498L33.7362 58.6302ZM63.4726 52.6624H70.8667V60.0559L76.0956 65.2839L70.8667 70.5119V77.9055H63.4726L58.2437 83.1334L53.0149 77.9055H45.6208V70.5119L40.3919 65.2839L45.6208 60.0559V52.6624H53.0149L58.2437 47.4344L63.4726 52.6624ZM76.0956 24.7176L70.8667 29.9456V37.3391H63.4726L58.2437 42.5671L53.0149 37.3391H45.6208V29.9456L40.3919 24.7176L45.6208 19.4897V12.0961H53.0149L58.2437 6.86816L63.4726 12.0961H70.8667V19.4897L76.0956 24.7176Z" fill="#E0ECEE"/>
<path d="M160.327 8.65375H150.916L144.261 2L137.606 8.65375H128.194V18.0631L123.973 22.2827L119.753 18.0631V8.65375H110.341L103.686 2L97.0314 8.65375H87.6196V18.0631L80.9646 24.7169L87.6196 31.3706V40.7807H97.0314L101.252 45.0004L97.0314 49.2201H87.6196V58.6294L80.9646 65.2831L87.6196 71.9369V81.3462H97.0314L103.686 88L110.341 81.3462H119.753V71.9369L123.973 67.7172L128.194 71.9369V81.3462H137.606L144.261 88L150.916 81.3462H160.327V71.9369L166.982 65.2831L160.327 58.6294V49.2201H150.916L146.695 45.0004L150.916 40.7807H160.327V31.3706L166.982 24.7169L160.327 18.0631V8.65375ZM98.4582 37.3383H91.0641V29.9448L85.8353 24.7169L91.0641 19.4889V12.0953H98.4582L103.687 6.86737L108.916 12.0953H116.31V19.4889L121.539 24.7169L116.31 29.9448V37.3383H108.916L103.687 42.5663L98.4582 37.3383ZM116.311 70.5119V77.9055H108.917L103.688 83.1334L98.459 77.9055H91.0649V70.5119L85.836 65.2839L91.0649 60.0559V52.6624H98.459L103.688 47.4344L108.917 52.6624H116.311V60.0559L121.54 65.2839L116.311 70.5119ZM119.754 58.6302V49.2208H110.342L106.122 45.0012L110.342 40.7815H119.754V31.3713L123.974 27.1517L128.195 31.3713V40.7815H137.606L141.827 45.0012L137.606 49.2208H128.195V58.6302L123.974 62.8498L119.754 58.6302ZM149.49 52.6624H156.884V60.0559L162.113 65.2839L156.884 70.5119V77.9055H149.49L144.261 83.1334L139.033 77.9055H131.638V70.5119L126.41 65.2839L131.638 60.0559V52.6624H139.033L144.261 47.4344L149.49 52.6624ZM162.113 24.7176L156.884 29.9456V37.3391H149.49L144.261 42.5671L139.033 37.3391H131.638V29.9456L126.41 24.7176L131.638 19.4897V12.0961H139.033L144.261 6.86816L149.49 12.0961H156.884V19.4897L162.113 24.7176Z" fill="#E0ECEE"/>
<path d="M246.345 8.65375H236.933L230.278 2L223.623 8.65375H214.212V18.0631L209.991 22.2827L205.771 18.0631V8.65375H196.359L189.704 2L183.049 8.65375H173.637V18.0631L166.982 24.7169L173.637 31.3706V40.7807H183.049L187.269 45.0004L183.049 49.2201H173.637V58.6294L166.982 65.2831L173.637 71.9369V81.3462H183.049L189.704 88L196.359 81.3462H205.771V71.9369L209.991 67.7172L214.212 71.9369V81.3462H223.623L230.278 88L236.933 81.3462H246.345V71.9369L253 65.2831L246.345 58.6294V49.2201H236.933L232.713 45.0004L236.933 40.7807H246.345V31.3706L253 24.7169L246.345 18.0631V8.65375ZM184.476 37.3383H177.082V29.9448L171.853 24.7169L177.082 19.4889V12.0953H184.476L189.705 6.86737L194.934 12.0953H202.328V19.4889L207.557 24.7169L202.328 29.9448V37.3383H194.934L189.705 42.5663L184.476 37.3383ZM202.329 70.5119V77.9055H194.934L189.706 83.1334L184.477 77.9055H177.083V70.5119L171.854 65.2839L177.083 60.0559V52.6624H184.477L189.706 47.4344L194.934 52.6624H202.329V60.0559L207.557 65.2839L202.329 70.5119ZM205.772 58.6302V49.2208H196.36L192.139 45.0012L196.36 40.7815H205.772V31.3713L209.992 27.1517L214.212 31.3713V40.7815H223.624L227.845 45.0012L223.624 49.2208H214.212V58.6302L209.992 62.8498L205.772 58.6302ZM235.508 52.6624H242.902V60.0559L248.131 65.2839L242.902 70.5119V77.9055H235.508L230.279 83.1334L225.05 77.9055H217.656V70.5119L212.427 65.2839L217.656 60.0559V52.6624H225.05L230.279 47.4344L235.508 52.6624ZM248.131 24.7176L242.902 29.9456V37.3391H235.508L230.279 42.5671L225.05 37.3391H217.656V29.9456L212.427 24.7176L217.656 19.4897V12.0961H225.05L230.279 6.86816L235.508 12.0961H242.902V19.4897L248.131 24.7176Z" fill="#E0ECEE"/>
<path d="M-10.6372 94.6537H-20.0491L-26.704 88L-33.3589 94.6537H-42.7708V104.063L-46.9912 108.283L-51.2116 104.063V94.6537H-60.6234L-67.2783 88L-73.9333 94.6537H-83.3451V104.063L-90 110.717L-83.3451 117.371V126.781H-73.9333L-69.7128 131L-73.9333 135.22H-83.3451V144.629L-90 151.283L-83.3451 157.937V167.346H-73.9333L-67.2783 174L-60.6234 167.346H-51.2116V157.937L-46.9912 153.717L-42.7708 157.937V167.346H-33.3589L-26.704 174L-20.0491 167.346H-10.6372V157.937L-3.98232 151.283L-10.6372 144.629V135.22H-20.0491L-24.2695 131L-20.0491 126.781H-10.6372V117.371L-3.98232 110.717L-10.6372 104.063V94.6537ZM-72.5064 123.338H-79.9005V115.945L-85.1294 110.717L-79.9005 105.489V98.0953H-72.5064L-67.2775 92.8674L-62.0487 98.0953H-54.6546V105.489L-49.4257 110.717L-54.6546 115.945V123.338H-62.0487L-67.2775 128.566L-72.5064 123.338ZM-54.6538 156.512V163.905H-62.0479L-67.2768 169.133L-72.5056 163.905H-79.8997V156.512L-85.1286 151.284L-79.8997 146.056V138.662H-72.5056L-67.2768 133.434L-62.0479 138.662H-54.6538V146.056L-49.4249 151.284L-54.6538 156.512ZM-51.2108 144.63V135.221H-60.6226L-64.843 131.001L-60.6226 126.782H-51.2108V117.371L-46.9904 113.152L-42.77 117.371V126.782H-33.3582L-29.1377 131.001L-33.3582 135.221H-42.77V144.63L-46.9904 148.85L-51.2108 144.63ZM-21.4743 138.662H-14.0802V146.056L-8.85136 151.284L-14.0802 156.512V163.905H-21.4743L-26.7032 169.133L-31.9321 163.905H-39.3262V156.512L-44.5551 151.284L-39.3262 146.056V138.662H-31.9321L-26.7032 133.434L-21.4743 138.662ZM-8.85136 110.718L-14.0802 115.946V123.339H-21.4743L-26.7032 128.567L-31.9321 123.339H-39.3262V115.946L-44.5551 110.718L-39.3262 105.49V98.0961H-31.9321L-26.7032 92.8682L-21.4743 98.0961H-14.0802V105.49L-8.85136 110.718Z" fill="#E0ECEE"/>
<path d="M74.3097 94.6537H64.8979L58.243 88L51.588 94.6537H42.1762V104.063L37.9558 108.283L33.7354 104.063V94.6537H24.3236L17.6686 88L11.0137 94.6537H1.60189V104.063L-5.05304 110.717L1.60189 117.371V126.781H11.0137L15.2341 131L11.0137 135.22H1.60189V144.629L-5.05304 151.283L1.60189 157.937V167.346H11.0137L17.6686 174L24.3236 167.346H33.7354V157.937L37.9558 153.717L42.1762 157.937V167.346H51.588L58.243 174L64.8979 167.346H74.3097V157.937L80.9646 151.283L74.3097 144.629V135.22H64.8979L60.6775 131L64.8979 126.781H74.3097V117.371L80.9646 110.717L74.3097 104.063V94.6537ZM12.4406 123.338H5.04644V115.945L-0.182426 110.717L5.04644 105.489V98.0953H12.4406L17.6694 92.8674L22.8983 98.0953H30.2924V105.489L35.5213 110.717L30.2924 115.945V123.338H22.8983L17.6694 128.566L12.4406 123.338ZM30.2932 156.512V163.905H22.8991L17.6702 169.133L12.4413 163.905H5.04723V156.512L-0.181648 151.284L5.04723 146.056V138.662H12.4413L17.6702 133.434L22.8991 138.662H30.2932V146.056L35.5221 151.284L30.2932 156.512ZM33.7362 144.63V135.221H24.3244L20.1039 131.001L24.3244 126.782H33.7362V117.371L37.9566 113.152L42.177 117.371V126.782H51.5888L55.8092 131.001L51.5888 135.221H42.177V144.63L37.9566 148.85L33.7362 144.63ZM63.4726 138.662H70.8667V146.056L76.0956 151.284L70.8667 156.512V163.905H63.4726L58.2437 169.133L53.0149 163.905H45.6208V156.512L40.3919 151.284L45.6208 146.056V138.662H53.0149L58.2437 133.434L63.4726 138.662ZM76.0956 110.718L70.8667 115.946V123.339H63.4726L58.2437 128.567L53.0149 123.339H45.6208V115.946L40.3919 110.718L45.6208 105.49V98.0961H53.0149L58.2437 92.8682L63.4726 98.0961H70.8667V105.49L76.0956 110.718Z" fill="#E0ECEE"/>
<path d="M160.327 94.6537H150.916L144.261 88L137.606 94.6537H128.194V104.063L123.973 108.283L119.753 104.063V94.6537H110.341L103.686 88L97.0314 94.6537H87.6196V104.063L80.9646 110.717L87.6196 117.371V126.781H97.0314L101.252 131L97.0314 135.22H87.6196V144.629L80.9646 151.283L87.6196 157.937V167.346H97.0314L103.686 174L110.341 167.346H119.753V157.937L123.973 153.717L128.194 157.937V167.346H137.606L144.261 174L150.916 167.346H160.327V157.937L166.982 151.283L160.327 144.629V135.22H150.916L146.695 131L150.916 126.781H160.327V117.371L166.982 110.717L160.327 104.063V94.6537ZM98.4582 123.338H91.0641V115.945L85.8353 110.717L91.0641 105.489V98.0953H98.4582L103.687 92.8674L108.916 98.0953H116.31V105.489L121.539 110.717L116.31 115.945V123.338H108.916L103.687 128.566L98.4582 123.338ZM116.311 156.512V163.905H108.917L103.688 169.133L98.459 163.905H91.0649V156.512L85.836 151.284L91.0649 146.056V138.662H98.459L103.688 133.434L108.917 138.662H116.311V146.056L121.54 151.284L116.311 156.512ZM119.754 144.63V135.221H110.342L106.122 131.001L110.342 126.782H119.754V117.371L123.974 113.152L128.195 117.371V126.782H137.606L141.827 131.001L137.606 135.221H128.195V144.63L123.974 148.85L119.754 144.63ZM149.49 138.662H156.884V146.056L162.113 151.284L156.884 156.512V163.905H149.49L144.261 169.133L139.033 163.905H131.638V156.512L126.41 151.284L131.638 146.056V138.662H139.033L144.261 133.434L149.49 138.662ZM162.113 110.718L156.884 115.946V123.339H149.49L144.261 128.567L139.033 123.339H131.638V115.946L126.41 110.718L131.638 105.49V98.0961H139.033L144.261 92.8682L149.49 98.0961H156.884V105.49L162.113 110.718Z" fill="#E0ECEE"/>
<path d="M246.345 94.6537H236.933L230.278 88L223.623 94.6537H214.212V104.063L209.991 108.283L205.771 104.063V94.6537H196.359L189.704 88L183.049 94.6537H173.637V104.063L166.982 110.717L173.637 117.371V126.781H183.049L187.269 131L183.049 135.22H173.637V144.629L166.982 151.283L173.637 157.937V167.346H183.049L189.704 174L196.359 167.346H205.771V157.937L209.991 153.717L214.212 157.937V167.346H223.623L230.278 174L236.933 167.346H246.345V157.937L253 151.283L246.345 144.629V135.22H236.933L232.713 131L236.933 126.781H246.345V117.371L253 110.717L246.345 104.063V94.6537ZM184.476 123.338H177.082V115.945L171.853 110.717L177.082 105.489V98.0953H184.476L189.705 92.8674L194.934 98.0953H202.328V105.489L207.557 110.717L202.328 115.945V123.338H194.934L189.705 128.566L184.476 123.338ZM202.329 156.512V163.905H194.934L189.706 169.133L184.477 163.905H177.083V156.512L171.854 151.284L177.083 146.056V138.662H184.477L189.706 133.434L194.934 138.662H202.329V146.056L207.557 151.284L202.329 156.512ZM205.772 144.63V135.221H196.36L192.139 131.001L196.36 126.782H205.772V117.371L209.992 113.152L214.212 117.371V126.782H223.624L227.845 131.001L223.624 135.221H214.212V144.63L209.992 148.85L205.772 144.63ZM235.508 138.662H242.902V146.056L248.131 151.284L242.902 156.512V163.905H235.508L230.279 169.133L225.05 163.905H217.656V156.512L212.427 151.284L217.656 146.056V138.662H225.05L230.279 133.434L235.508 138.662ZM248.131 110.718L242.902 115.946V123.339H235.508L230.279 128.567L225.05 123.339H217.656V115.946L212.427 110.718L217.656 105.49V98.0961H225.05L230.279 92.8682L235.508 98.0961H242.902V105.49L248.131 110.718Z" fill="#E0ECEE"/>
<path d="M-10.6372 -335.346H-20.0491L-26.704 -342L-33.3589 -335.346H-42.7708V-325.937L-46.9912 -321.717L-51.2116 -325.937V-335.346H-60.6234L-67.2783 -342L-73.9333 -335.346H-83.3451V-325.937L-90 -319.283L-83.3451 -312.629V-303.219H-73.9333L-69.7128 -299L-73.9333 -294.78H-83.3451V-285.371L-90 -278.717L-83.3451 -272.063V-262.654H-73.9333L-67.2783 -256L-60.6234 -262.654H-51.2116V-272.063L-46.9912 -276.283L-42.7708 -272.063V-262.654H-33.3589L-26.704 -256L-20.0491 -262.654H-10.6372V-272.063L-3.98232 -278.717L-10.6372 -285.371V-294.78H-20.0491L-24.2695 -299L-20.0491 -303.219H-10.6372V-312.629L-3.98232 -319.283L-10.6372 -325.937V-335.346ZM-72.5064 -306.662H-79.9005V-314.055L-85.1294 -319.283L-79.9005 -324.511V-331.905H-72.5064L-67.2775 -337.133L-62.0487 -331.905H-54.6546V-324.511L-49.4257 -319.283L-54.6546 -314.055V-306.662H-62.0487L-67.2775 -301.434L-72.5064 -306.662ZM-54.6538 -273.488V-266.095H-62.0479L-67.2768 -260.867L-72.5056 -266.095H-79.8997V-273.488L-85.1286 -278.716L-79.8997 -283.944V-291.338H-72.5056L-67.2768 -296.566L-62.0479 -291.338H-54.6538V-283.944L-49.4249 -278.716L-54.6538 -273.488ZM-51.2108 -285.37V-294.779H-60.6226L-64.843 -298.999L-60.6226 -303.218H-51.2108V-312.629L-46.9904 -316.848L-42.77 -312.629V-303.218H-33.3582L-29.1377 -298.999L-33.3582 -294.779H-42.77V-285.37L-46.9904 -281.15L-51.2108 -285.37ZM-21.4743 -291.338H-14.0802V-283.944L-8.85136 -278.716L-14.0802 -273.488V-266.095H-21.4743L-26.7032 -260.867L-31.9321 -266.095H-39.3262V-273.488L-44.5551 -278.716L-39.3262 -283.944V-291.338H-31.9321L-26.7032 -296.566L-21.4743 -291.338ZM-8.85136 -319.282L-14.0802 -314.054V-306.661H-21.4743L-26.7032 -301.433L-31.9321 -306.661H-39.3262V-314.054L-44.5551 -319.282L-39.3262 -324.51V-331.904H-31.9321L-26.7032 -337.132L-21.4743 -331.904H-14.0802V-324.51L-8.85136 -319.282Z" fill="#E0ECEE"/>
<path d="M74.3097 -335.346H64.8979L58.243 -342L51.588 -335.346H42.1762V-325.937L37.9558 -321.717L33.7354 -325.937V-335.346H24.3236L17.6686 -342L11.0137 -335.346H1.60189V-325.937L-5.05304 -319.283L1.60189 -312.629V-303.219H11.0137L15.2341 -299L11.0137 -294.78H1.60189V-285.371L-5.05304 -278.717L1.60189 -272.063V-262.654H11.0137L17.6686 -256L24.3236 -262.654H33.7354V-272.063L37.9558 -276.283L42.1762 -272.063V-262.654H51.588L58.243 -256L64.8979 -262.654H74.3097V-272.063L80.9646 -278.717L74.3097 -285.371V-294.78H64.8979L60.6775 -299L64.8979 -303.219H74.3097V-312.629L80.9646 -319.283L74.3097 -325.937V-335.346ZM12.4406 -306.662H5.04644V-314.055L-0.182426 -319.283L5.04644 -324.511V-331.905H12.4406L17.6694 -337.133L22.8983 -331.905H30.2924V-324.511L35.5213 -319.283L30.2924 -314.055V-306.662H22.8983L17.6694 -301.434L12.4406 -306.662ZM30.2932 -273.488V-266.095H22.8991L17.6702 -260.867L12.4413 -266.095H5.04723V-273.488L-0.181648 -278.716L5.04723 -283.944V-291.338H12.4413L17.6702 -296.566L22.8991 -291.338H30.2932V-283.944L35.5221 -278.716L30.2932 -273.488ZM33.7362 -285.37V-294.779H24.3244L20.1039 -298.999L24.3244 -303.218H33.7362V-312.629L37.9566 -316.848L42.177 -312.629V-303.218H51.5888L55.8092 -298.999L51.5888 -294.779H42.177V-285.37L37.9566 -281.15L33.7362 -285.37ZM63.4726 -291.338H70.8667V-283.944L76.0956 -278.716L70.8667 -273.488V-266.095H63.4726L58.2437 -260.867L53.0149 -266.095H45.6208V-273.488L40.3919 -278.716L45.6208 -283.944V-291.338H53.0149L58.2437 -296.566L63.4726 -291.338ZM76.0956 -319.282L70.8667 -314.054V-306.661H63.4726L58.2437 -301.433L53.0149 -306.661H45.6208V-314.054L40.3919 -319.282L45.6208 -324.51V-331.904H53.0149L58.2437 -337.132L63.4726 -331.904H70.8667V-324.51L76.0956 -319.282Z" fill="#E0ECEE"/>
<path d="M160.327 -335.346H150.916L144.261 -342L137.606 -335.346H128.194V-325.937L123.973 -321.717L119.753 -325.937V-335.346H110.341L103.686 -342L97.0314 -335.346H87.6196V-325.937L80.9646 -319.283L87.6196 -312.629V-303.219H97.0314L101.252 -299L97.0314 -294.78H87.6196V-285.371L80.9646 -278.717L87.6196 -272.063V-262.654H97.0314L103.686 -256L110.341 -262.654H119.753V-272.063L123.973 -276.283L128.194 -272.063V-262.654H137.606L144.261 -256L150.916 -262.654H160.327V-272.063L166.982 -278.717L160.327 -285.371V-294.78H150.916L146.695 -299L150.916 -303.219H160.327V-312.629L166.982 -319.283L160.327 -325.937V-335.346ZM98.4582 -306.662H91.0641V-314.055L85.8353 -319.283L91.0641 -324.511V-331.905H98.4582L103.687 -337.133L108.916 -331.905H116.31V-324.511L121.539 -319.283L116.31 -314.055V-306.662H108.916L103.687 -301.434L98.4582 -306.662ZM116.311 -273.488V-266.095H108.917L103.688 -260.867L98.459 -266.095H91.0649V-273.488L85.836 -278.716L91.0649 -283.944V-291.338H98.459L103.688 -296.566L108.917 -291.338H116.311V-283.944L121.54 -278.716L116.311 -273.488ZM119.754 -285.37V-294.779H110.342L106.122 -298.999L110.342 -303.218H119.754V-312.629L123.974 -316.848L128.195 -312.629V-303.218H137.606L141.827 -298.999L137.606 -294.779H128.195V-285.37L123.974 -281.15L119.754 -285.37ZM149.49 -291.338H156.884V-283.944L162.113 -278.716L156.884 -273.488V-266.095H149.49L144.261 -260.867L139.033 -266.095H131.638V-273.488L126.41 -278.716L131.638 -283.944V-291.338H139.033L144.261 -296.566L149.49 -291.338ZM162.113 -319.282L156.884 -314.054V-306.661H149.49L144.261 -301.433L139.033 -306.661H131.638V-314.054L126.41 -319.282L131.638 -324.51V-331.904H139.033L144.261 -337.132L149.49 -331.904H156.884V-324.51L162.113 -319.282Z" fill="#E0ECEE"/>
<path d="M246.345 -335.346H236.933L230.278 -342L223.623 -335.346H214.212V-325.937L209.991 -321.717L205.771 -325.937V-335.346H196.359L189.704 -342L183.049 -335.346H173.637V-325.937L166.982 -319.283L173.637 -312.629V-303.219H183.049L187.269 -299L183.049 -294.78H173.637V-285.371L166.982 -278.717L173.637 -272.063V-262.654H183.049L189.704 -256L196.359 -262.654H205.771V-272.063L209.991 -276.283L214.212 -272.063V-262.654H223.623L230.278 -256L236.933 -262.654H246.345V-272.063L253 -278.717L246.345 -285.371V-294.78H236.933L232.713 -299L236.933 -303.219H246.345V-312.629L253 -319.283L246.345 -325.937V-335.346ZM184.476 -306.662H177.082V-314.055L171.853 -319.283L177.082 -324.511V-331.905H184.476L189.705 -337.133L194.934 -331.905H202.328V-324.511L207.557 -319.283L202.328 -314.055V-306.662H194.934L189.705 -301.434L184.476 -306.662ZM202.329 -273.488V-266.095H194.934L189.706 -260.867L184.477 -266.095H177.083V-273.488L171.854 -278.716L177.083 -283.944V-291.338H184.477L189.706 -296.566L194.934 -291.338H202.329V-283.944L207.557 -278.716L202.329 -273.488ZM205.772 -285.37V-294.779H196.36L192.139 -298.999L196.36 -303.218H205.772V-312.629L209.992 -316.848L214.212 -312.629V-303.218H223.624L227.845 -298.999L223.624 -294.779H214.212V-285.37L209.992 -281.15L205.772 -285.37ZM235.508 -291.338H242.902V-283.944L248.131 -278.716L242.902 -273.488V-266.095H235.508L230.279 -260.867L225.05 -266.095H217.656V-273.488L212.427 -278.716L217.656 -283.944V-291.338H225.05L230.279 -296.566L235.508 -291.338ZM248.131 -319.282L242.902 -314.054V-306.661H235.508L230.279 -301.433L225.05 -306.661H217.656V-314.054L212.427 -319.282L217.656 -324.51V-331.904H225.05L230.279 -337.132L235.508 -331.904H242.902V-324.51L248.131 -319.282Z" fill="#E0ECEE"/>
<path d="M-10.6372 -249.346H-20.0491L-26.704 -256L-33.3589 -249.346H-42.7708V-239.937L-46.9912 -235.717L-51.2116 -239.937V-249.346H-60.6234L-67.2783 -256L-73.9333 -249.346H-83.3451V-239.937L-90 -233.283L-83.3451 -226.629V-217.219H-73.9333L-69.7128 -213L-73.9333 -208.78H-83.3451V-199.371L-90 -192.717L-83.3451 -186.063V-176.654H-73.9333L-67.2783 -170L-60.6234 -176.654H-51.2116V-186.063L-46.9912 -190.283L-42.7708 -186.063V-176.654H-33.3589L-26.704 -170L-20.0491 -176.654H-10.6372V-186.063L-3.98232 -192.717L-10.6372 -199.371V-208.78H-20.0491L-24.2695 -213L-20.0491 -217.219H-10.6372V-226.629L-3.98232 -233.283L-10.6372 -239.937V-249.346ZM-72.5064 -220.662H-79.9005V-228.055L-85.1294 -233.283L-79.9005 -238.511V-245.905H-72.5064L-67.2775 -251.133L-62.0487 -245.905H-54.6546V-238.511L-49.4257 -233.283L-54.6546 -228.055V-220.662H-62.0487L-67.2775 -215.434L-72.5064 -220.662ZM-54.6538 -187.488V-180.095H-62.0479L-67.2768 -174.867L-72.5056 -180.095H-79.8997V-187.488L-85.1286 -192.716L-79.8997 -197.944V-205.338H-72.5056L-67.2768 -210.565L-62.0479 -205.338H-54.6538V-197.944L-49.4249 -192.716L-54.6538 -187.488ZM-51.2108 -199.37V-208.779H-60.6226L-64.843 -212.999L-60.6226 -217.218H-51.2108V-226.629L-46.9904 -230.848L-42.77 -226.629V-217.218H-33.3582L-29.1377 -212.999L-33.3582 -208.779H-42.77V-199.37L-46.9904 -195.15L-51.2108 -199.37ZM-21.4743 -205.338H-14.0802V-197.944L-8.85136 -192.716L-14.0802 -187.488V-180.095H-21.4743L-26.7032 -174.867L-31.9321 -180.095H-39.3262V-187.488L-44.5551 -192.716L-39.3262 -197.944V-205.338H-31.9321L-26.7032 -210.565L-21.4743 -205.338ZM-8.85136 -233.282L-14.0802 -228.054V-220.661H-21.4743L-26.7032 -215.433L-31.9321 -220.661H-39.3262V-228.054L-44.5551 -233.282L-39.3262 -238.51V-245.904H-31.9321L-26.7032 -251.132L-21.4743 -245.904H-14.0802V-238.51L-8.85136 -233.282Z" fill="#E0ECEE"/>
<path d="M74.3097 -249.346H64.8979L58.243 -256L51.588 -249.346H42.1762V-239.937L37.9558 -235.717L33.7354 -239.937V-249.346H24.3236L17.6686 -256L11.0137 -249.346H1.60189V-239.937L-5.05304 -233.283L1.60189 -226.629V-217.219H11.0137L15.2341 -213L11.0137 -208.78H1.60189V-199.371L-5.05304 -192.717L1.60189 -186.063V-176.654H11.0137L17.6686 -170L24.3236 -176.654H33.7354V-186.063L37.9558 -190.283L42.1762 -186.063V-176.654H51.588L58.243 -170L64.8979 -176.654H74.3097V-186.063L80.9646 -192.717L74.3097 -199.371V-208.78H64.8979L60.6775 -213L64.8979 -217.219H74.3097V-226.629L80.9646 -233.283L74.3097 -239.937V-249.346ZM12.4406 -220.662H5.04644V-228.055L-0.182426 -233.283L5.04644 -238.511V-245.905H12.4406L17.6694 -251.133L22.8983 -245.905H30.2924V-238.511L35.5213 -233.283L30.2924 -228.055V-220.662H22.8983L17.6694 -215.434L12.4406 -220.662ZM30.2932 -187.488V-180.095H22.8991L17.6702 -174.867L12.4413 -180.095H5.04723V-187.488L-0.181648 -192.716L5.04723 -197.944V-205.338H12.4413L17.6702 -210.565L22.8991 -205.338H30.2932V-197.944L35.5221 -192.716L30.2932 -187.488ZM33.7362 -199.37V-208.779H24.3244L20.1039 -212.999L24.3244 -217.218H33.7362V-226.629L37.9566 -230.848L42.177 -226.629V-217.218H51.5888L55.8092 -212.999L51.5888 -208.779H42.177V-199.37L37.9566 -195.15L33.7362 -199.37ZM63.4726 -205.338H70.8667V-197.944L76.0956 -192.716L70.8667 -187.488V-180.095H63.4726L58.2437 -174.867L53.0149 -180.095H45.6208V-187.488L40.3919 -192.716L45.6208 -197.944V-205.338H53.0149L58.2437 -210.565L63.4726 -205.338ZM76.0956 -233.282L70.8667 -228.054V-220.661H63.4726L58.2437 -215.433L53.0149 -220.661H45.6208V-228.054L40.3919 -233.282L45.6208 -238.51V-245.904H53.0149L58.2437 -251.132L63.4726 -245.904H70.8667V-238.51L76.0956 -233.282Z" fill="#E0ECEE"/>
<path d="M160.327 -249.346H150.916L144.261 -256L137.606 -249.346H128.194V-239.937L123.973 -235.717L119.753 -239.937V-249.346H110.341L103.686 -256L97.0314 -249.346H87.6196V-239.937L80.9646 -233.283L87.6196 -226.629V-217.219H97.0314L101.252 -213L97.0314 -208.78H87.6196V-199.371L80.9646 -192.717L87.6196 -186.063V-176.654H97.0314L103.686 -170L110.341 -176.654H119.753V-186.063L123.973 -190.283L128.194 -186.063V-176.654H137.606L144.261 -170L150.916 -176.654H160.327V-186.063L166.982 -192.717L160.327 -199.371V-208.78H150.916L146.695 -213L150.916 -217.219H160.327V-226.629L166.982 -233.283L160.327 -239.937V-249.346ZM98.4582 -220.662H91.0641V-228.055L85.8353 -233.283L91.0641 -238.511V-245.905H98.4582L103.687 -251.133L108.916 -245.905H116.31V-238.511L121.539 -233.283L116.31 -228.055V-220.662H108.916L103.687 -215.434L98.4582 -220.662ZM116.311 -187.488V-180.095H108.917L103.688 -174.867L98.459 -180.095H91.0649V-187.488L85.836 -192.716L91.0649 -197.944V-205.338H98.459L103.688 -210.565L108.917 -205.338H116.311V-197.944L121.54 -192.716L116.311 -187.488ZM119.754 -199.37V-208.779H110.342L106.122 -212.999L110.342 -217.218H119.754V-226.629L123.974 -230.848L128.195 -226.629V-217.218H137.606L141.827 -212.999L137.606 -208.779H128.195V-199.37L123.974 -195.15L119.754 -199.37ZM149.49 -205.338H156.884V-197.944L162.113 -192.716L156.884 -187.488V-180.095H149.49L144.261 -174.867L139.033 -180.095H131.638V-187.488L126.41 -192.716L131.638 -197.944V-205.338H139.033L144.261 -210.565L149.49 -205.338ZM162.113 -233.282L156.884 -228.054V-220.661H149.49L144.261 -215.433L139.033 -220.661H131.638V-228.054L126.41 -233.282L131.638 -238.51V-245.904H139.033L144.261 -251.132L149.49 -245.904H156.884V-238.51L162.113 -233.282Z" fill="#E0ECEE"/>
<path d="M246.345 -249.346H236.933L230.278 -256L223.623 -249.346H214.212V-239.937L209.991 -235.717L205.771 -239.937V-249.346H196.359L189.704 -256L183.049 -249.346H173.637V-239.937L166.982 -233.283L173.637 -226.629V-217.219H183.049L187.269 -213L183.049 -208.78H173.637V-199.371L166.982 -192.717L173.637 -186.063V-176.654H183.049L189.704 -170L196.359 -176.654H205.771V-186.063L209.991 -190.283L214.212 -186.063V-176.654H223.623L230.278 -170L236.933 -176.654H246.345V-186.063L253 -192.717L246.345 -199.371V-208.78H236.933L232.713 -213L236.933 -217.219H246.345V-226.629L253 -233.283L246.345 -239.937V-249.346ZM184.476 -220.662H177.082V-228.055L171.853 -233.283L177.082 -238.511V-245.905H184.476L189.705 -251.133L194.934 -245.905H202.328V-238.511L207.557 -233.283L202.328 -228.055V-220.662H194.934L189.705 -215.434L184.476 -220.662ZM202.329 -187.488V-180.095H194.934L189.706 -174.867L184.477 -180.095H177.083V-187.488L171.854 -192.716L177.083 -197.944V-205.338H184.477L189.706 -210.565L194.934 -205.338H202.329V-197.944L207.557 -192.716L202.329 -187.488ZM205.772 -199.37V-208.779H196.36L192.139 -212.999L196.36 -217.218H205.772V-226.629L209.992 -230.848L214.212 -226.629V-217.218H223.624L227.845 -212.999L223.624 -208.779H214.212V-199.37L209.992 -195.15L205.772 -199.37ZM235.508 -205.338H242.902V-197.944L248.131 -192.716L242.902 -187.488V-180.095H235.508L230.279 -174.867L225.05 -180.095H217.656V-187.488L212.427 -192.716L217.656 -197.944V-205.338H225.05L230.279 -210.565L235.508 -205.338ZM248.131 -233.282L242.902 -228.054V-220.661H235.508L230.279 -215.433L225.05 -220.661H217.656V-228.054L212.427 -233.282L217.656 -238.51V-245.904H225.05L230.279 -251.132L235.508 -245.904H242.902V-238.51L248.131 -233.282Z" fill="#E0ECEE"/>
<path d="M-10.6372 180.654H-20.0491L-26.704 174L-33.3589 180.654H-42.7708V190.063L-46.9912 194.283L-51.2116 190.063V180.654H-60.6234L-67.2783 174L-73.9333 180.654H-83.3451V190.063L-90 196.717L-83.3451 203.371V212.781H-73.9333L-69.7128 217L-73.9333 221.22H-83.3451V230.629L-90 237.283L-83.3451 243.937V253.346H-73.9333L-67.2783 260L-60.6234 253.346H-51.2116V243.937L-46.9912 239.717L-42.7708 243.937V253.346H-33.3589L-26.704 260L-20.0491 253.346H-10.6372V243.937L-3.98232 237.283L-10.6372 230.629V221.22H-20.0491L-24.2695 217L-20.0491 212.781H-10.6372V203.371L-3.98232 196.717L-10.6372 190.063V180.654ZM-72.5064 209.338H-79.9005V201.945L-85.1294 196.717L-79.9005 191.489V184.095H-72.5064L-67.2775 178.867L-62.0487 184.095H-54.6546V191.489L-49.4257 196.717L-54.6546 201.945V209.338H-62.0487L-67.2775 214.566L-72.5064 209.338ZM-54.6538 242.512V249.905H-62.0479L-67.2768 255.133L-72.5056 249.905H-79.8997V242.512L-85.1286 237.284L-79.8997 232.056V224.662H-72.5056L-67.2768 219.434L-62.0479 224.662H-54.6538V232.056L-49.4249 237.284L-54.6538 242.512ZM-51.2108 230.63V221.221H-60.6226L-64.843 217.001L-60.6226 212.781H-51.2108V203.371L-46.9904 199.152L-42.77 203.371V212.781H-33.3582L-29.1377 217.001L-33.3582 221.221H-42.77V230.63L-46.9904 234.85L-51.2108 230.63ZM-21.4743 224.662H-14.0802V232.056L-8.85136 237.284L-14.0802 242.512V249.905H-21.4743L-26.7032 255.133L-31.9321 249.905H-39.3262V242.512L-44.5551 237.284L-39.3262 232.056V224.662H-31.9321L-26.7032 219.434L-21.4743 224.662ZM-8.85136 196.718L-14.0802 201.946V209.339H-21.4743L-26.7032 214.567L-31.9321 209.339H-39.3262V201.946L-44.5551 196.718L-39.3262 191.49V184.096H-31.9321L-26.7032 178.868L-21.4743 184.096H-14.0802V191.49L-8.85136 196.718Z" fill="#E0ECEE"/>
<path d="M74.3097 180.654H64.8979L58.243 174L51.588 180.654H42.1762V190.063L37.9558 194.283L33.7354 190.063V180.654H24.3236L17.6686 174L11.0137 180.654H1.60189V190.063L-5.05304 196.717L1.60189 203.371V212.781H11.0137L15.2341 217L11.0137 221.22H1.60189V230.629L-5.05304 237.283L1.60189 243.937V253.346H11.0137L17.6686 260L24.3236 253.346H33.7354V243.937L37.9558 239.717L42.1762 243.937V253.346H51.588L58.243 260L64.8979 253.346H74.3097V243.937L80.9646 237.283L74.3097 230.629V221.22H64.8979L60.6775 217L64.8979 212.781H74.3097V203.371L80.9646 196.717L74.3097 190.063V180.654ZM12.4406 209.338H5.04644V201.945L-0.182426 196.717L5.04644 191.489V184.095H12.4406L17.6694 178.867L22.8983 184.095H30.2924V191.489L35.5213 196.717L30.2924 201.945V209.338H22.8983L17.6694 214.566L12.4406 209.338ZM30.2932 242.512V249.905H22.8991L17.6702 255.133L12.4413 249.905H5.04723V242.512L-0.181648 237.284L5.04723 232.056V224.662H12.4413L17.6702 219.434L22.8991 224.662H30.2932V232.056L35.5221 237.284L30.2932 242.512ZM33.7362 230.63V221.221H24.3244L20.1039 217.001L24.3244 212.781H33.7362V203.371L37.9566 199.152L42.177 203.371V212.781H51.5888L55.8092 217.001L51.5888 221.221H42.177V230.63L37.9566 234.85L33.7362 230.63ZM63.4726 224.662H70.8667V232.056L76.0956 237.284L70.8667 242.512V249.905H63.4726L58.2437 255.133L53.0149 249.905H45.6208V242.512L40.3919 237.284L45.6208 232.056V224.662H53.0149L58.2437 219.434L63.4726 224.662ZM76.0956 196.718L70.8667 201.946V209.339H63.4726L58.2437 214.567L53.0149 209.339H45.6208V201.946L40.3919 196.718L45.6208 191.49V184.096H53.0149L58.2437 178.868L63.4726 184.096H70.8667V191.49L76.0956 196.718Z" fill="#E0ECEE"/>
<path d="M160.327 180.654H150.916L144.261 174L137.606 180.654H128.194V190.063L123.973 194.283L119.753 190.063V180.654H110.341L103.686 174L97.0314 180.654H87.6196V190.063L80.9646 196.717L87.6196 203.371V212.781H97.0314L101.252 217L97.0314 221.22H87.6196V230.629L80.9646 237.283L87.6196 243.937V253.346H97.0314L103.686 260L110.341 253.346H119.753V243.937L123.973 239.717L128.194 243.937V253.346H137.606L144.261 260L150.916 253.346H160.327V243.937L166.982 237.283L160.327 230.629V221.22H150.916L146.695 217L150.916 212.781H160.327V203.371L166.982 196.717L160.327 190.063V180.654ZM98.4582 209.338H91.0641V201.945L85.8353 196.717L91.0641 191.489V184.095H98.4582L103.687 178.867L108.916 184.095H116.31V191.489L121.539 196.717L116.31 201.945V209.338H108.916L103.687 214.566L98.4582 209.338ZM116.311 242.512V249.905H108.917L103.688 255.133L98.459 249.905H91.0649V242.512L85.836 237.284L91.0649 232.056V224.662H98.459L103.688 219.434L108.917 224.662H116.311V232.056L121.54 237.284L116.311 242.512ZM119.754 230.63V221.221H110.342L106.122 217.001L110.342 212.781H119.754V203.371L123.974 199.152L128.195 203.371V212.781H137.606L141.827 217.001L137.606 221.221H128.195V230.63L123.974 234.85L119.754 230.63ZM149.49 224.662H156.884V232.056L162.113 237.284L156.884 242.512V249.905H149.49L144.261 255.133L139.033 249.905H131.638V242.512L126.41 237.284L131.638 232.056V224.662H139.033L144.261 219.434L149.49 224.662ZM162.113 196.718L156.884 201.946V209.339H149.49L144.261 214.567L139.033 209.339H131.638V201.946L126.41 196.718L131.638 191.49V184.096H139.033L144.261 178.868L149.49 184.096H156.884V191.49L162.113 196.718Z" fill="#E0ECEE"/>
<path d="M246.345 180.654H236.933L230.278 174L223.623 180.654H214.212V190.063L209.991 194.283L205.771 190.063V180.654H196.359L189.704 174L183.049 180.654H173.637V190.063L166.982 196.717L173.637 203.371V212.781H183.049L187.269 217L183.049 221.22H173.637V230.629L166.982 237.283L173.637 243.937V253.346H183.049L189.704 260L196.359 253.346H205.771V243.937L209.991 239.717L214.212 243.937V253.346H223.623L230.278 260L236.933 253.346H246.345V243.937L253 237.283L246.345 230.629V221.22H236.933L232.713 217L236.933 212.781H246.345V203.371L253 196.717L246.345 190.063V180.654ZM184.476 209.338H177.082V201.945L171.853 196.717L177.082 191.489V184.095H184.476L189.705 178.867L194.934 184.095H202.328V191.489L207.557 196.717L202.328 201.945V209.338H194.934L189.705 214.566L184.476 209.338ZM202.329 242.512V249.905H194.934L189.706 255.133L184.477 249.905H177.083V242.512L171.854 237.284L177.083 232.056V224.662H184.477L189.706 219.434L194.934 224.662H202.329V232.056L207.557 237.284L202.329 242.512ZM205.772 230.63V221.221H196.36L192.139 217.001L196.36 212.781H205.772V203.371L209.992 199.152L214.212 203.371V212.781H223.624L227.845 217.001L223.624 221.221H214.212V230.63L209.992 234.85L205.772 230.63ZM235.508 224.662H242.902V232.056L248.131 237.284L242.902 242.512V249.905H235.508L230.279 255.133L225.05 249.905H217.656V242.512L212.427 237.284L217.656 232.056V224.662H225.05L230.279 219.434L235.508 224.662ZM248.131 196.718L242.902 201.946V209.339H235.508L230.279 214.567L225.05 209.339H217.656V201.946L212.427 196.718L217.656 191.49V184.096H225.05L230.279 178.868L235.508 184.096H242.902V191.49L248.131 196.718Z" fill="#E0ECEE"/>
<path d="M-10.6372 266.654H-20.0491L-26.704 260L-33.3589 266.654H-42.7708V276.063L-46.9912 280.283L-51.2116 276.063V266.654H-60.6234L-67.2783 260L-73.9333 266.654H-83.3451V276.063L-90 282.717L-83.3451 289.371V298.781H-73.9333L-69.7128 303L-73.9333 307.22H-83.3451V316.629L-90 323.283L-83.3451 329.937V339.346H-73.9333L-67.2783 346L-60.6234 339.346H-51.2116V329.937L-46.9912 325.717L-42.7708 329.937V339.346H-33.3589L-26.704 346L-20.0491 339.346H-10.6372V329.937L-3.98232 323.283L-10.6372 316.629V307.22H-20.0491L-24.2695 303L-20.0491 298.781H-10.6372V289.371L-3.98232 282.717L-10.6372 276.063V266.654ZM-72.5064 295.338H-79.9005V287.945L-85.1294 282.717L-79.9005 277.489V270.095H-72.5064L-67.2775 264.867L-62.0487 270.095H-54.6546V277.489L-49.4257 282.717L-54.6546 287.945V295.338H-62.0487L-67.2775 300.566L-72.5064 295.338ZM-54.6538 328.512V335.905H-62.0479L-67.2768 341.133L-72.5056 335.905H-79.8997V328.512L-85.1286 323.284L-79.8997 318.056V310.662H-72.5056L-67.2768 305.434L-62.0479 310.662H-54.6538V318.056L-49.4249 323.284L-54.6538 328.512ZM-51.2108 316.63V307.221H-60.6226L-64.843 303.001L-60.6226 298.781H-51.2108V289.371L-46.9904 285.152L-42.77 289.371V298.781H-33.3582L-29.1377 303.001L-33.3582 307.221H-42.77V316.63L-46.9904 320.85L-51.2108 316.63ZM-21.4743 310.662H-14.0802V318.056L-8.85136 323.284L-14.0802 328.512V335.905H-21.4743L-26.7032 341.133L-31.9321 335.905H-39.3262V328.512L-44.5551 323.284L-39.3262 318.056V310.662H-31.9321L-26.7032 305.434L-21.4743 310.662ZM-8.85136 282.718L-14.0802 287.946V295.339H-21.4743L-26.7032 300.567L-31.9321 295.339H-39.3262V287.946L-44.5551 282.718L-39.3262 277.49V270.096H-31.9321L-26.7032 264.868L-21.4743 270.096H-14.0802V277.49L-8.85136 282.718Z" fill="#E0ECEE"/>
<path d="M74.3097 266.654H64.8979L58.243 260L51.588 266.654H42.1762V276.063L37.9558 280.283L33.7354 276.063V266.654H24.3236L17.6686 260L11.0137 266.654H1.60189V276.063L-5.05304 282.717L1.60189 289.371V298.781H11.0137L15.2341 303L11.0137 307.22H1.60189V316.629L-5.05304 323.283L1.60189 329.937V339.346H11.0137L17.6686 346L24.3236 339.346H33.7354V329.937L37.9558 325.717L42.1762 329.937V339.346H51.588L58.243 346L64.8979 339.346H74.3097V329.937L80.9646 323.283L74.3097 316.629V307.22H64.8979L60.6775 303L64.8979 298.781H74.3097V289.371L80.9646 282.717L74.3097 276.063V266.654ZM12.4406 295.338H5.04644V287.945L-0.182426 282.717L5.04644 277.489V270.095H12.4406L17.6694 264.867L22.8983 270.095H30.2924V277.489L35.5213 282.717L30.2924 287.945V295.338H22.8983L17.6694 300.566L12.4406 295.338ZM30.2932 328.512V335.905H22.8991L17.6702 341.133L12.4413 335.905H5.04723V328.512L-0.181648 323.284L5.04723 318.056V310.662H12.4413L17.6702 305.434L22.8991 310.662H30.2932V318.056L35.5221 323.284L30.2932 328.512ZM33.7362 316.63V307.221H24.3244L20.1039 303.001L24.3244 298.781H33.7362V289.371L37.9566 285.152L42.177 289.371V298.781H51.5888L55.8092 303.001L51.5888 307.221H42.177V316.63L37.9566 320.85L33.7362 316.63ZM63.4726 310.662H70.8667V318.056L76.0956 323.284L70.8667 328.512V335.905H63.4726L58.2437 341.133L53.0149 335.905H45.6208V328.512L40.3919 323.284L45.6208 318.056V310.662H53.0149L58.2437 305.434L63.4726 310.662ZM76.0956 282.718L70.8667 287.946V295.339H63.4726L58.2437 300.567L53.0149 295.339H45.6208V287.946L40.3919 282.718L45.6208 277.49V270.096H53.0149L58.2437 264.868L63.4726 270.096H70.8667V277.49L76.0956 282.718Z" fill="#E0ECEE"/>
<path d="M160.327 266.654H150.916L144.261 260L137.606 266.654H128.194V276.063L123.973 280.283L119.753 276.063V266.654H110.341L103.686 260L97.0314 266.654H87.6196V276.063L80.9646 282.717L87.6196 289.371V298.781H97.0314L101.252 303L97.0314 307.22H87.6196V316.629L80.9646 323.283L87.6196 329.937V339.346H97.0314L103.686 346L110.341 339.346H119.753V329.937L123.973 325.717L128.194 329.937V339.346H137.606L144.261 346L150.916 339.346H160.327V329.937L166.982 323.283L160.327 316.629V307.22H150.916L146.695 303L150.916 298.781H160.327V289.371L166.982 282.717L160.327 276.063V266.654ZM98.4582 295.338H91.0641V287.945L85.8353 282.717L91.0641 277.489V270.095H98.4582L103.687 264.867L108.916 270.095H116.31V277.489L121.539 282.717L116.31 287.945V295.338H108.916L103.687 300.566L98.4582 295.338ZM116.311 328.512V335.905H108.917L103.688 341.133L98.459 335.905H91.0649V328.512L85.836 323.284L91.0649 318.056V310.662H98.459L103.688 305.434L108.917 310.662H116.311V318.056L121.54 323.284L116.311 328.512ZM119.754 316.63V307.221H110.342L106.122 303.001L110.342 298.781H119.754V289.371L123.974 285.152L128.195 289.371V298.781H137.606L141.827 303.001L137.606 307.221H128.195V316.63L123.974 320.85L119.754 316.63ZM149.49 310.662H156.884V318.056L162.113 323.284L156.884 328.512V335.905H149.49L144.261 341.133L139.033 335.905H131.638V328.512L126.41 323.284L131.638 318.056V310.662H139.033L144.261 305.434L149.49 310.662ZM162.113 282.718L156.884 287.946V295.339H149.49L144.261 300.567L139.033 295.339H131.638V287.946L126.41 282.718L131.638 277.49V270.096H139.033L144.261 264.868L149.49 270.096H156.884V277.49L162.113 282.718Z" fill="#E0ECEE"/>
<path d="M246.345 266.654H236.933L230.278 260L223.623 266.654H214.212V276.063L209.991 280.283L205.771 276.063V266.654H196.359L189.704 260L183.049 266.654H173.637V276.063L166.982 282.717L173.637 289.371V298.781H183.049L187.269 303L183.049 307.22H173.637V316.629L166.982 323.283L173.637 329.937V339.346H183.049L189.704 346L196.359 339.346H205.771V329.937L209.991 325.717L214.212 329.937V339.346H223.623L230.278 346L236.933 339.346H246.345V329.937L253 323.283L246.345 316.629V307.22H236.933L232.713 303L236.933 298.781H246.345V289.371L253 282.717L246.345 276.063V266.654ZM184.476 295.338H177.082V287.945L171.853 282.717L177.082 277.489V270.095H184.476L189.705 264.867L194.934 270.095H202.328V277.489L207.557 282.717L202.328 287.945V295.338H194.934L189.705 300.566L184.476 295.338ZM202.329 328.512V335.905H194.934L189.706 341.133L184.477 335.905H177.083V328.512L171.854 323.284L177.083 318.056V310.662H184.477L189.706 305.434L194.934 310.662H202.329V318.056L207.557 323.284L202.329 328.512ZM205.772 316.63V307.221H196.36L192.139 303.001L196.36 298.781H205.772V289.371L209.992 285.152L214.212 289.371V298.781H223.624L227.845 303.001L223.624 307.221H214.212V316.63L209.992 320.85L205.772 316.63ZM235.508 310.662H242.902V318.056L248.131 323.284L242.902 328.512V335.905H235.508L230.279 341.133L225.05 335.905H217.656V328.512L212.427 323.284L217.656 318.056V310.662H225.05L230.279 305.434L235.508 310.662ZM248.131 282.718L242.902 287.946V295.339H235.508L230.279 300.567L225.05 295.339H217.656V287.946L212.427 282.718L217.656 277.49V270.096H225.05L230.279 264.868L235.508 270.096H242.902V277.49L248.131 282.718Z" fill="#E0ECEE"/>
<path d="M-10.6372 -163.346H-20.0491L-26.704 -170L-33.3589 -163.346H-42.7708V-153.937L-46.9912 -149.717L-51.2116 -153.937V-163.346H-60.6234L-67.2783 -170L-73.9333 -163.346H-83.3451V-153.937L-90 -147.283L-83.3451 -140.629V-131.219H-73.9333L-69.7128 -127L-73.9333 -122.78H-83.3451V-113.371L-90 -106.717L-83.3451 -100.063V-90.6538H-73.9333L-67.2783 -84L-60.6234 -90.6538H-51.2116V-100.063L-46.9912 -104.283L-42.7708 -100.063V-90.6538H-33.3589L-26.704 -84L-20.0491 -90.6538H-10.6372V-100.063L-3.98232 -106.717L-10.6372 -113.371V-122.78H-20.0491L-24.2695 -127L-20.0491 -131.219H-10.6372V-140.629L-3.98232 -147.283L-10.6372 -153.937V-163.346ZM-72.5064 -134.662H-79.9005V-142.055L-85.1294 -147.283L-79.9005 -152.511V-159.905H-72.5064L-67.2775 -165.133L-62.0487 -159.905H-54.6546V-152.511L-49.4257 -147.283L-54.6546 -142.055V-134.662H-62.0487L-67.2775 -129.434L-72.5064 -134.662ZM-54.6538 -101.488V-94.0946H-62.0479L-67.2768 -88.8667L-72.5056 -94.0946H-79.8997V-101.488L-85.1286 -106.716L-79.8997 -111.944V-119.338H-72.5056L-67.2768 -124.566L-62.0479 -119.338H-54.6538V-111.944L-49.4249 -106.716L-54.6538 -101.488ZM-51.2108 -113.37V-122.779H-60.6226L-64.843 -126.999L-60.6226 -131.219H-51.2108V-140.629L-46.9904 -144.848L-42.77 -140.629V-131.219H-33.3582L-29.1377 -126.999L-33.3582 -122.779H-42.77V-113.37L-46.9904 -109.15L-51.2108 -113.37ZM-21.4743 -119.338H-14.0802V-111.944L-8.85136 -106.716L-14.0802 -101.488V-94.0946H-21.4743L-26.7032 -88.8667L-31.9321 -94.0946H-39.3262V-101.488L-44.5551 -106.716L-39.3262 -111.944V-119.338H-31.9321L-26.7032 -124.566L-21.4743 -119.338ZM-8.85136 -147.282L-14.0802 -142.054V-134.661H-21.4743L-26.7032 -129.433L-31.9321 -134.661H-39.3262V-142.054L-44.5551 -147.282L-39.3262 -152.51V-159.904H-31.9321L-26.7032 -165.132L-21.4743 -159.904H-14.0802V-152.51L-8.85136 -147.282Z" fill="#E0ECEE"/>
<path d="M74.3097 -163.346H64.8979L58.243 -170L51.588 -163.346H42.1762V-153.937L37.9558 -149.717L33.7354 -153.937V-163.346H24.3236L17.6686 -170L11.0137 -163.346H1.60189V-153.937L-5.05304 -147.283L1.60189 -140.629V-131.219H11.0137L15.2341 -127L11.0137 -122.78H1.60189V-113.371L-5.05304 -106.717L1.60189 -100.063V-90.6538H11.0137L17.6686 -84L24.3236 -90.6538H33.7354V-100.063L37.9558 -104.283L42.1762 -100.063V-90.6538H51.588L58.243 -84L64.8979 -90.6538H74.3097V-100.063L80.9646 -106.717L74.3097 -113.371V-122.78H64.8979L60.6775 -127L64.8979 -131.219H74.3097V-140.629L80.9646 -147.283L74.3097 -153.937V-163.346ZM12.4406 -134.662H5.04644V-142.055L-0.182426 -147.283L5.04644 -152.511V-159.905H12.4406L17.6694 -165.133L22.8983 -159.905H30.2924V-152.511L35.5213 -147.283L30.2924 -142.055V-134.662H22.8983L17.6694 -129.434L12.4406 -134.662ZM30.2932 -101.488V-94.0946H22.8991L17.6702 -88.8667L12.4413 -94.0946H5.04723V-101.488L-0.181648 -106.716L5.04723 -111.944V-119.338H12.4413L17.6702 -124.566L22.8991 -119.338H30.2932V-111.944L35.5221 -106.716L30.2932 -101.488ZM33.7362 -113.37V-122.779H24.3244L20.1039 -126.999L24.3244 -131.219H33.7362V-140.629L37.9566 -144.848L42.177 -140.629V-131.219H51.5888L55.8092 -126.999L51.5888 -122.779H42.177V-113.37L37.9566 -109.15L33.7362 -113.37ZM63.4726 -119.338H70.8667V-111.944L76.0956 -106.716L70.8667 -101.488V-94.0946H63.4726L58.2437 -88.8667L53.0149 -94.0946H45.6208V-101.488L40.3919 -106.716L45.6208 -111.944V-119.338H53.0149L58.2437 -124.566L63.4726 -119.338ZM76.0956 -147.282L70.8667 -142.054V-134.661H63.4726L58.2437 -129.433L53.0149 -134.661H45.6208V-142.054L40.3919 -147.282L45.6208 -152.51V-159.904H53.0149L58.2437 -165.132L63.4726 -159.904H70.8667V-152.51L76.0956 -147.282Z" fill="#E0ECEE"/>
<path d="M160.327 -163.346H150.916L144.261 -170L137.606 -163.346H128.194V-153.937L123.973 -149.717L119.753 -153.937V-163.346H110.341L103.686 -170L97.0314 -163.346H87.6196V-153.937L80.9646 -147.283L87.6196 -140.629V-131.219H97.0314L101.252 -127L97.0314 -122.78H87.6196V-113.371L80.9646 -106.717L87.6196 -100.063V-90.6538H97.0314L103.686 -84L110.341 -90.6538H119.753V-100.063L123.973 -104.283L128.194 -100.063V-90.6538H137.606L144.261 -84L150.916 -90.6538H160.327V-100.063L166.982 -106.717L160.327 -113.371V-122.78H150.916L146.695 -127L150.916 -131.219H160.327V-140.629L166.982 -147.283L160.327 -153.937V-163.346ZM98.4582 -134.662H91.0641V-142.055L85.8353 -147.283L91.0641 -152.511V-159.905H98.4582L103.687 -165.133L108.916 -159.905H116.31V-152.511L121.539 -147.283L116.31 -142.055V-134.662H108.916L103.687 -129.434L98.4582 -134.662ZM116.311 -101.488V-94.0946H108.917L103.688 -88.8667L98.459 -94.0946H91.0649V-101.488L85.836 -106.716L91.0649 -111.944V-119.338H98.459L103.688 -124.566L108.917 -119.338H116.311V-111.944L121.54 -106.716L116.311 -101.488ZM119.754 -113.37V-122.779H110.342L106.122 -126.999L110.342 -131.219H119.754V-140.629L123.974 -144.848L128.195 -140.629V-131.219H137.606L141.827 -126.999L137.606 -122.779H128.195V-113.37L123.974 -109.15L119.754 -113.37ZM149.49 -119.338H156.884V-111.944L162.113 -106.716L156.884 -101.488V-94.0946H149.49L144.261 -88.8667L139.033 -94.0946H131.638V-101.488L126.41 -106.716L131.638 -111.944V-119.338H139.033L144.261 -124.566L149.49 -119.338ZM162.113 -147.282L156.884 -142.054V-134.661H149.49L144.261 -129.433L139.033 -134.661H131.638V-142.054L126.41 -147.282L131.638 -152.51V-159.904H139.033L144.261 -165.132L149.49 -159.904H156.884V-152.51L162.113 -147.282Z" fill="#E0ECEE"/>
<path d="M246.345 -163.346H236.933L230.278 -170L223.623 -163.346H214.212V-153.937L209.991 -149.717L205.771 -153.937V-163.346H196.359L189.704 -170L183.049 -163.346H173.637V-153.937L166.982 -147.283L173.637 -140.629V-131.219H183.049L187.269 -127L183.049 -122.78H173.637V-113.371L166.982 -106.717L173.637 -100.063V-90.6538H183.049L189.704 -84L196.359 -90.6538H205.771V-100.063L209.991 -104.283L214.212 -100.063V-90.6538H223.623L230.278 -84L236.933 -90.6538H246.345V-100.063L253 -106.717L246.345 -113.371V-122.78H236.933L232.713 -127L236.933 -131.219H246.345V-140.629L253 -147.283L246.345 -153.937V-163.346ZM184.476 -134.662H177.082V-142.055L171.853 -147.283L177.082 -152.511V-159.905H184.476L189.705 -165.133L194.934 -159.905H202.328V-152.511L207.557 -147.283L202.328 -142.055V-134.662H194.934L189.705 -129.434L184.476 -134.662ZM202.329 -101.488V-94.0946H194.934L189.706 -88.8667L184.477 -94.0946H177.083V-101.488L171.854 -106.716L177.083 -111.944V-119.338H184.477L189.706 -124.566L194.934 -119.338H202.329V-111.944L207.557 -106.716L202.329 -101.488ZM205.772 -113.37V-122.779H196.36L192.139 -126.999L196.36 -131.219H205.772V-140.629L209.992 -144.848L214.212 -140.629V-131.219H223.624L227.845 -126.999L223.624 -122.779H214.212V-113.37L209.992 -109.15L205.772 -113.37ZM235.508 -119.338H242.902V-111.944L248.131 -106.716L242.902 -101.488V-94.0946H235.508L230.279 -88.8667L225.05 -94.0946H217.656V-101.488L212.427 -106.716L217.656 -111.944V-119.338H225.05L230.279 -124.566L235.508 -119.338ZM248.131 -147.282L242.902 -142.054V-134.661H235.508L230.279 -129.433L225.05 -134.661H217.656V-142.054L212.427 -147.282L217.656 -152.51V-159.904H225.05L230.279 -165.132L235.508 -159.904H242.902V-152.51L248.131 -147.282Z" fill="#E0ECEE"/>
<path d="M-10.6372 -77.3463H-20.0491L-26.704 -84L-33.3589 -77.3463H-42.7708V-67.9369L-46.9912 -63.7172L-51.2116 -67.9369V-77.3463H-60.6234L-67.2783 -84L-73.9333 -77.3463H-83.3451V-67.9369L-90 -61.2831L-83.3451 -54.6294V-45.2193H-73.9333L-69.7128 -40.9996L-73.9333 -36.78H-83.3451V-27.3706L-90 -20.7169L-83.3451 -14.0631V-4.65375H-73.9333L-67.2783 2L-60.6234 -4.65375H-51.2116V-14.0631L-46.9912 -18.2828L-42.7708 -14.0631V-4.65375H-33.3589L-26.704 2L-20.0491 -4.65375H-10.6372V-14.0631L-3.98232 -20.7169L-10.6372 -27.3706V-36.78H-20.0491L-24.2695 -40.9996L-20.0491 -45.2193H-10.6372V-54.6294L-3.98232 -61.2831L-10.6372 -67.9369V-77.3463ZM-72.5064 -48.6617H-79.9005V-56.0552L-85.1294 -61.2831L-79.9005 -66.5111V-73.9047H-72.5064L-67.2775 -79.1326L-62.0487 -73.9047H-54.6546V-66.5111L-49.4257 -61.2831L-54.6546 -56.0552V-48.6617H-62.0487L-67.2775 -43.4337L-72.5064 -48.6617ZM-54.6538 -15.4881V-8.09457H-62.0479L-67.2768 -2.86664L-72.5056 -8.09457H-79.8997V-15.4881L-85.1286 -20.7161L-79.8997 -25.944V-33.3376H-72.5056L-67.2768 -38.5655L-62.0479 -33.3376H-54.6538V-25.944L-49.4249 -20.7161L-54.6538 -15.4881ZM-51.2108 -27.3698V-36.7792H-60.6226L-64.843 -40.9988L-60.6226 -45.2185H-51.2108V-54.6286L-46.9904 -58.8483L-42.77 -54.6286V-45.2185H-33.3582L-29.1377 -40.9988L-33.3582 -36.7792H-42.77V-27.3698L-46.9904 -23.1501L-51.2108 -27.3698ZM-21.4743 -33.3376H-14.0802V-25.944L-8.85136 -20.7161L-14.0802 -15.4881V-8.09457H-21.4743L-26.7032 -2.86664L-31.9321 -8.09457H-39.3262V-15.4881L-44.5551 -20.7161L-39.3262 -25.944V-33.3376H-31.9321L-26.7032 -38.5655L-21.4743 -33.3376ZM-8.85136 -61.2824L-14.0802 -56.0544V-48.6609H-21.4743L-26.7032 -43.4329L-31.9321 -48.6609H-39.3262V-56.0544L-44.5551 -61.2824L-39.3262 -66.5103V-73.9039H-31.9321L-26.7032 -79.1318L-21.4743 -73.9039H-14.0802V-66.5103L-8.85136 -61.2824Z" fill="#E0ECEE"/>
<path d="M74.3097 -77.3463H64.8979L58.243 -84L51.588 -77.3463H42.1762V-67.9369L37.9558 -63.7172L33.7354 -67.9369V-77.3463H24.3236L17.6686 -84L11.0137 -77.3463H1.60189V-67.9369L-5.05304 -61.2831L1.60189 -54.6294V-45.2193H11.0137L15.2341 -40.9996L11.0137 -36.78H1.60189V-27.3706L-5.05304 -20.7169L1.60189 -14.0631V-4.65375H11.0137L17.6686 2L24.3236 -4.65375H33.7354V-14.0631L37.9558 -18.2828L42.1762 -14.0631V-4.65375H51.588L58.243 2L64.8979 -4.65375H74.3097V-14.0631L80.9646 -20.7169L74.3097 -27.3706V-36.78H64.8979L60.6775 -40.9996L64.8979 -45.2193H74.3097V-54.6294L80.9646 -61.2831L74.3097 -67.9369V-77.3463ZM12.4406 -48.6617H5.04644V-56.0552L-0.182426 -61.2831L5.04644 -66.5111V-73.9047H12.4406L17.6694 -79.1326L22.8983 -73.9047H30.2924V-66.5111L35.5213 -61.2831L30.2924 -56.0552V-48.6617H22.8983L17.6694 -43.4337L12.4406 -48.6617ZM30.2932 -15.4881V-8.09457H22.8991L17.6702 -2.86664L12.4413 -8.09457H5.04723V-15.4881L-0.181648 -20.7161L5.04723 -25.944V-33.3376H12.4413L17.6702 -38.5655L22.8991 -33.3376H30.2932V-25.944L35.5221 -20.7161L30.2932 -15.4881ZM33.7362 -27.3698V-36.7792H24.3244L20.1039 -40.9988L24.3244 -45.2185H33.7362V-54.6286L37.9566 -58.8483L42.177 -54.6286V-45.2185H51.5888L55.8092 -40.9988L51.5888 -36.7792H42.177V-27.3698L37.9566 -23.1501L33.7362 -27.3698ZM63.4726 -33.3376H70.8667V-25.944L76.0956 -20.7161L70.8667 -15.4881V-8.09457H63.4726L58.2437 -2.86664L53.0149 -8.09457H45.6208V-15.4881L40.3919 -20.7161L45.6208 -25.944V-33.3376H53.0149L58.2437 -38.5655L63.4726 -33.3376ZM76.0956 -61.2824L70.8667 -56.0544V-48.6609H63.4726L58.2437 -43.4329L53.0149 -48.6609H45.6208V-56.0544L40.3919 -61.2824L45.6208 -66.5103V-73.9039H53.0149L58.2437 -79.1318L63.4726 -73.9039H70.8667V-66.5103L76.0956 -61.2824Z" fill="#E0ECEE"/>
<path d="M160.327 -77.3463H150.916L144.261 -84L137.606 -77.3463H128.194V-67.9369L123.973 -63.7172L119.753 -67.9369V-77.3463H110.341L103.686 -84L97.0314 -77.3463H87.6196V-67.9369L80.9646 -61.2831L87.6196 -54.6294V-45.2193H97.0314L101.252 -40.9996L97.0314 -36.78H87.6196V-27.3706L80.9646 -20.7169L87.6196 -14.0631V-4.65375H97.0314L103.686 2L110.341 -4.65375H119.753V-14.0631L123.973 -18.2828L128.194 -14.0631V-4.65375H137.606L144.261 2L150.916 -4.65375H160.327V-14.0631L166.982 -20.7169L160.327 -27.3706V-36.78H150.916L146.695 -40.9996L150.916 -45.2193H160.327V-54.6294L166.982 -61.2831L160.327 -67.9369V-77.3463ZM98.4582 -48.6617H91.0641V-56.0552L85.8353 -61.2831L91.0641 -66.5111V-73.9047H98.4582L103.687 -79.1326L108.916 -73.9047H116.31V-66.5111L121.539 -61.2831L116.31 -56.0552V-48.6617H108.916L103.687 -43.4337L98.4582 -48.6617ZM116.311 -15.4881V-8.09457H108.917L103.688 -2.86664L98.459 -8.09457H91.0649V-15.4881L85.836 -20.7161L91.0649 -25.944V-33.3376H98.459L103.688 -38.5655L108.917 -33.3376H116.311V-25.944L121.54 -20.7161L116.311 -15.4881ZM119.754 -27.3698V-36.7792H110.342L106.122 -40.9988L110.342 -45.2185H119.754V-54.6286L123.974 -58.8483L128.195 -54.6286V-45.2185H137.606L141.827 -40.9988L137.606 -36.7792H128.195V-27.3698L123.974 -23.1501L119.754 -27.3698ZM149.49 -33.3376H156.884V-25.944L162.113 -20.7161L156.884 -15.4881V-8.09457H149.49L144.261 -2.86664L139.033 -8.09457H131.638V-15.4881L126.41 -20.7161L131.638 -25.944V-33.3376H139.033L144.261 -38.5655L149.49 -33.3376ZM162.113 -61.2824L156.884 -56.0544V-48.6609H149.49L144.261 -43.4329L139.033 -48.6609H131.638V-56.0544L126.41 -61.2824L131.638 -66.5103V-73.9039H139.033L144.261 -79.1318L149.49 -73.9039H156.884V-66.5103L162.113 -61.2824Z" fill="#E0ECEE"/>
<path d="M246.345 -77.3463H236.933L230.278 -84L223.623 -77.3463H214.212V-67.9369L209.991 -63.7172L205.771 -67.9369V-77.3463H196.359L189.704 -84L183.049 -77.3463H173.637V-67.9369L166.982 -61.2831L173.637 -54.6294V-45.2193H183.049L187.269 -40.9996L183.049 -36.78H173.637V-27.3706L166.982 -20.7169L173.637 -14.0631V-4.65375H183.049L189.704 2L196.359 -4.65375H205.771V-14.0631L209.991 -18.2828L214.212 -14.0631V-4.65375H223.623L230.278 2L236.933 -4.65375H246.345V-14.0631L253 -20.7169L246.345 -27.3706V-36.78H236.933L232.713 -40.9996L236.933 -45.2193H246.345V-54.6294L253 -61.2831L246.345 -67.9369V-77.3463ZM184.476 -48.6617H177.082V-56.0552L171.853 -61.2831L177.082 -66.5111V-73.9047H184.476L189.705 -79.1326L194.934 -73.9047H202.328V-66.5111L207.557 -61.2831L202.328 -56.0552V-48.6617H194.934L189.705 -43.4337L184.476 -48.6617ZM202.329 -15.4881V-8.09457H194.934L189.706 -2.86664L184.477 -8.09457H177.083V-15.4881L171.854 -20.7161L177.083 -25.944V-33.3376H184.477L189.706 -38.5655L194.934 -33.3376H202.329V-25.944L207.557 -20.7161L202.329 -15.4881ZM205.772 -27.3698V-36.7792H196.36L192.139 -40.9988L196.36 -45.2185H205.772V-54.6286L209.992 -58.8483L214.212 -54.6286V-45.2185H223.624L227.845 -40.9988L223.624 -36.7792H214.212V-27.3698L209.992 -23.1501L205.772 -27.3698ZM235.508 -33.3376H242.902V-25.944L248.131 -20.7161L242.902 -15.4881V-8.09457H235.508L230.279 -2.86664L225.05 -8.09457H217.656V-15.4881L212.427 -20.7161L217.656 -25.944V-33.3376H225.05L230.279 -38.5655L235.508 -33.3376ZM248.131 -61.2824L242.902 -56.0544V-48.6609H235.508L230.279 -43.4329L225.05 -48.6609H217.656V-56.0544L212.427 -61.2824L217.656 -66.5103V-73.9039H225.05L230.279 -79.1318L235.508 -73.9039H242.902V-66.5103L248.131 -61.2824Z" fill="#E0ECEE"/>
</g>
</g>
</svg>
