<svg width="93" height="83" viewBox="0 0 93 83" fill="none" xmlns="http://www.w3.org/2000/svg">
<g opacity="0.3">
<mask id="mask0_192_1553" style="mask-type:alpha" maskUnits="userSpaceOnUse" x="0" y="0" width="162" height="162">
<circle cx="81" cy="81" r="81" fill="#D9D9D9"/>
</mask>
<g mask="url(#mask0_192_1553)">
<path d="M-11.6372 -32.3463H-21.0491L-27.704 -39L-34.3589 -32.3463H-43.7708V-22.9369L-47.9912 -18.7173L-52.2116 -22.9369V-32.3463H-61.6234L-68.2783 -39L-74.9333 -32.3463H-84.3451V-22.9369L-91 -16.2831L-84.3451 -9.62943V-0.219299H-74.9333L-70.7128 4.00037L-74.9333 8.22006H-84.3451V17.6294L-91 24.2831L-84.3451 30.9369V40.3462H-74.9333L-68.2783 47L-61.6234 40.3462H-52.2116V30.9369L-47.9912 26.7172L-43.7708 30.9369V40.3462H-34.3589L-27.704 47L-21.0491 40.3462H-11.6372V30.9369L-4.98232 24.2831L-11.6372 17.6294V8.22006H-21.0491L-25.2695 4.00037L-21.0491 -0.219299H-11.6372V-9.62943L-4.98232 -16.2831L-11.6372 -22.9369V-32.3463ZM-73.5064 -3.66165H-80.9005V-11.0552L-86.1294 -16.2831L-80.9005 -21.5111V-28.9047H-73.5064L-68.2775 -34.1326L-63.0487 -28.9047H-55.6546V-21.5111L-50.4257 -16.2831L-55.6546 -11.0552V-3.66165H-63.0487L-68.2775 1.56631L-73.5064 -3.66165ZM-55.6538 29.5119V36.9055H-63.0479L-68.2768 42.1334L-73.5056 36.9055H-80.8997V29.5119L-86.1286 24.2839L-80.8997 19.0559V11.6624H-73.5056L-68.2768 6.43445L-63.0479 11.6624H-55.6538V19.0559L-50.4249 24.2839L-55.6538 29.5119ZM-52.2108 17.6302V8.22083H-61.6226L-65.843 4.00116L-61.6226 -0.218506H-52.2108V-9.62866L-47.9904 -13.8483L-43.77 -9.62866V-0.218506H-34.3582L-30.1377 4.00116L-34.3582 8.22083H-43.77V17.6302L-47.9904 21.8498L-52.2108 17.6302ZM-22.4743 11.6624H-15.0802V19.0559L-9.85136 24.2839L-15.0802 29.5119V36.9055H-22.4743L-27.7032 42.1334L-32.9321 36.9055H-40.3262V29.5119L-45.5551 24.2839L-40.3262 19.0559V11.6624H-32.9321L-27.7032 6.43445L-22.4743 11.6624ZM-9.85136 -16.2824L-15.0802 -11.0544V-3.66086H-22.4743L-27.7032 1.56708L-32.9321 -3.66086H-40.3262V-11.0544L-45.5551 -16.2824L-40.3262 -21.5103V-28.9039H-32.9321L-27.7032 -34.1318L-22.4743 -28.9039H-15.0802V-21.5103L-9.85136 -16.2824Z" fill="#E0ECEE"/>
<path d="M73.3097 -32.3463H63.8979L57.243 -39L50.588 -32.3463H41.1762V-22.9369L36.9558 -18.7173L32.7354 -22.9369V-32.3463H23.3236L16.6686 -39L10.0137 -32.3463H0.601891V-22.9369L-6.05304 -16.2831L0.601891 -9.62943V-0.219299H10.0137L14.2341 4.00037L10.0137 8.22006H0.601891V17.6294L-6.05304 24.2831L0.601891 30.9369V40.3462H10.0137L16.6686 47L23.3236 40.3462H32.7354V30.9369L36.9558 26.7172L41.1762 30.9369V40.3462H50.588L57.243 47L63.8979 40.3462H73.3097V30.9369L79.9646 24.2831L73.3097 17.6294V8.22006H63.8979L59.6775 4.00037L63.8979 -0.219299H73.3097V-9.62943L79.9646 -16.2831L73.3097 -22.9369V-32.3463ZM11.4406 -3.66165H4.04644V-11.0552L-1.18243 -16.2831L4.04644 -21.5111V-28.9047H11.4406L16.6694 -34.1326L21.8983 -28.9047H29.2924V-21.5111L34.5213 -16.2831L29.2924 -11.0552V-3.66165H21.8983L16.6694 1.56631L11.4406 -3.66165ZM29.2932 29.5119V36.9055H21.8991L16.6702 42.1334L11.4413 36.9055H4.04723V29.5119L-1.18165 24.2839L4.04723 19.0559V11.6624H11.4413L16.6702 6.43445L21.8991 11.6624H29.2932V19.0559L34.5221 24.2839L29.2932 29.5119ZM32.7362 17.6302V8.22083H23.3244L19.1039 4.00116L23.3244 -0.218506H32.7362V-9.62866L36.9566 -13.8483L41.177 -9.62866V-0.218506H50.5888L54.8092 4.00116L50.5888 8.22083H41.177V17.6302L36.9566 21.8498L32.7362 17.6302ZM62.4726 11.6624H69.8667V19.0559L75.0956 24.2839L69.8667 29.5119V36.9055H62.4726L57.2437 42.1334L52.0149 36.9055H44.6208V29.5119L39.3919 24.2839L44.6208 19.0559V11.6624H52.0149L57.2437 6.43445L62.4726 11.6624ZM75.0956 -16.2824L69.8667 -11.0544V-3.66086H62.4726L57.2437 1.56708L52.0149 -3.66086H44.6208V-11.0544L39.3919 -16.2824L44.6208 -21.5103V-28.9039H52.0149L57.2437 -34.1318L62.4726 -28.9039H69.8667V-21.5103L75.0956 -16.2824Z" fill="#E0ECEE"/>
<path d="M159.327 -32.3463H149.916L143.261 -39L136.606 -32.3463H127.194V-22.9369L122.973 -18.7173L118.753 -22.9369V-32.3463H109.341L102.686 -39L96.0314 -32.3463H86.6196V-22.9369L79.9646 -16.2831L86.6196 -9.62943V-0.219299H96.0314L100.252 4.00037L96.0314 8.22006H86.6196V17.6294L79.9646 24.2831L86.6196 30.9369V40.3462H96.0314L102.686 47L109.341 40.3462H118.753V30.9369L122.973 26.7172L127.194 30.9369V40.3462H136.606L143.261 47L149.916 40.3462H159.327V30.9369L165.982 24.2831L159.327 17.6294V8.22006H149.916L145.695 4.00037L149.916 -0.219299H159.327V-9.62943L165.982 -16.2831L159.327 -22.9369V-32.3463ZM97.4582 -3.66165H90.0641V-11.0552L84.8353 -16.2831L90.0641 -21.5111V-28.9047H97.4582L102.687 -34.1326L107.916 -28.9047H115.31V-21.5111L120.539 -16.2831L115.31 -11.0552V-3.66165H107.916L102.687 1.56631L97.4582 -3.66165ZM115.311 29.5119V36.9055H107.917L102.688 42.1334L97.459 36.9055H90.0649V29.5119L84.836 24.2839L90.0649 19.0559V11.6624H97.459L102.688 6.43445L107.917 11.6624H115.311V19.0559L120.54 24.2839L115.311 29.5119ZM118.754 17.6302V8.22083H109.342L105.122 4.00116L109.342 -0.218506H118.754V-9.62866L122.974 -13.8483L127.195 -9.62866V-0.218506H136.606L140.827 4.00116L136.606 8.22083H127.195V17.6302L122.974 21.8498L118.754 17.6302ZM148.49 11.6624H155.884V19.0559L161.113 24.2839L155.884 29.5119V36.9055H148.49L143.261 42.1334L138.033 36.9055H130.638V29.5119L125.41 24.2839L130.638 19.0559V11.6624H138.033L143.261 6.43445L148.49 11.6624ZM161.113 -16.2824L155.884 -11.0544V-3.66086H148.49L143.261 1.56708L138.033 -3.66086H130.638V-11.0544L125.41 -16.2824L130.638 -21.5103V-28.9039H138.033L143.261 -34.1318L148.49 -28.9039H155.884V-21.5103L161.113 -16.2824Z" fill="#E0ECEE"/>
<path d="M245.345 -32.3463H235.933L229.278 -39L222.623 -32.3463H213.212V-22.9369L208.991 -18.7173L204.771 -22.9369V-32.3463H195.359L188.704 -39L182.049 -32.3463H172.637V-22.9369L165.982 -16.2831L172.637 -9.62943V-0.219299H182.049L186.269 4.00037L182.049 8.22006H172.637V17.6294L165.982 24.2831L172.637 30.9369V40.3462H182.049L188.704 47L195.359 40.3462H204.771V30.9369L208.991 26.7172L213.212 30.9369V40.3462H222.623L229.278 47L235.933 40.3462H245.345V30.9369L252 24.2831L245.345 17.6294V8.22006H235.933L231.713 4.00037L235.933 -0.219299H245.345V-9.62943L252 -16.2831L245.345 -22.9369V-32.3463ZM183.476 -3.66165H176.082V-11.0552L170.853 -16.2831L176.082 -21.5111V-28.9047H183.476L188.705 -34.1326L193.934 -28.9047H201.328V-21.5111L206.557 -16.2831L201.328 -11.0552V-3.66165H193.934L188.705 1.56631L183.476 -3.66165ZM201.329 29.5119V36.9055H193.934L188.706 42.1334L183.477 36.9055H176.083V29.5119L170.854 24.2839L176.083 19.0559V11.6624H183.477L188.706 6.43445L193.934 11.6624H201.329V19.0559L206.557 24.2839L201.329 29.5119ZM204.772 17.6302V8.22083H195.36L191.139 4.00116L195.36 -0.218506H204.772V-9.62866L208.992 -13.8483L213.212 -9.62866V-0.218506H222.624L226.845 4.00116L222.624 8.22083H213.212V17.6302L208.992 21.8498L204.772 17.6302ZM234.508 11.6624H241.902V19.0559L247.131 24.2839L241.902 29.5119V36.9055H234.508L229.279 42.1334L224.05 36.9055H216.656V29.5119L211.427 24.2839L216.656 19.0559V11.6624H224.05L229.279 6.43445L234.508 11.6624ZM247.131 -16.2824L241.902 -11.0544V-3.66086H234.508L229.279 1.56708L224.05 -3.66086H216.656V-11.0544L211.427 -16.2824L216.656 -21.5103V-28.9039H224.05L229.279 -34.1318L234.508 -28.9039H241.902V-21.5103L247.131 -16.2824Z" fill="#E0ECEE"/>
<path d="M-11.6372 53.6537H-21.0491L-27.704 47L-34.3589 53.6537H-43.7708V63.0631L-47.9912 67.2828L-52.2116 63.0631V53.6537H-61.6234L-68.2783 47L-74.9333 53.6537H-84.3451V63.0631L-91 69.7169L-84.3451 76.3706V85.7807H-74.9333L-70.7128 90.0004L-74.9333 94.2201H-84.3451V103.629L-91 110.283L-84.3451 116.937V126.346H-74.9333L-68.2783 133L-61.6234 126.346H-52.2116V116.937L-47.9912 112.717L-43.7708 116.937V126.346H-34.3589L-27.704 133L-21.0491 126.346H-11.6372V116.937L-4.98232 110.283L-11.6372 103.629V94.2201H-21.0491L-25.2695 90.0004L-21.0491 85.7807H-11.6372V76.3706L-4.98232 69.7169L-11.6372 63.0631V53.6537ZM-73.5064 82.3383H-80.9005V74.9448L-86.1294 69.7169L-80.9005 64.4889V57.0953H-73.5064L-68.2775 51.8674L-63.0487 57.0953H-55.6546V64.4889L-50.4257 69.7169L-55.6546 74.9448V82.3383H-63.0487L-68.2775 87.5663L-73.5064 82.3383ZM-55.6538 115.512V122.905H-63.0479L-68.2768 128.133L-73.5056 122.905H-80.8997V115.512L-86.1286 110.284L-80.8997 105.056V97.6624H-73.5056L-68.2768 92.4345L-63.0479 97.6624H-55.6538V105.056L-50.4249 110.284L-55.6538 115.512ZM-52.2108 103.63V94.2208H-61.6226L-65.843 90.0012L-61.6226 85.7816H-52.2108V76.3714L-47.9904 72.1517L-43.77 76.3714V85.7816H-34.3582L-30.1377 90.0012L-34.3582 94.2208H-43.77V103.63L-47.9904 107.85L-52.2108 103.63ZM-22.4743 97.6624H-15.0802V105.056L-9.85136 110.284L-15.0802 115.512V122.905H-22.4743L-27.7032 128.133L-32.9321 122.905H-40.3262V115.512L-45.5551 110.284L-40.3262 105.056V97.6624H-32.9321L-27.7032 92.4345L-22.4743 97.6624ZM-9.85136 69.7176L-15.0802 74.9456V82.3392H-22.4743L-27.7032 87.5671L-32.9321 82.3392H-40.3262V74.9456L-45.5551 69.7176L-40.3262 64.4897V57.0961H-32.9321L-27.7032 51.8682L-22.4743 57.0961H-15.0802V64.4897L-9.85136 69.7176Z" fill="#E0ECEE"/>
<path d="M73.3097 53.6537H63.8979L57.243 47L50.588 53.6537H41.1762V63.0631L36.9558 67.2828L32.7354 63.0631V53.6537H23.3236L16.6686 47L10.0137 53.6537H0.601891V63.0631L-6.05304 69.7169L0.601891 76.3706V85.7807H10.0137L14.2341 90.0004L10.0137 94.2201H0.601891V103.629L-6.05304 110.283L0.601891 116.937V126.346H10.0137L16.6686 133L23.3236 126.346H32.7354V116.937L36.9558 112.717L41.1762 116.937V126.346H50.588L57.243 133L63.8979 126.346H73.3097V116.937L79.9646 110.283L73.3097 103.629V94.2201H63.8979L59.6775 90.0004L63.8979 85.7807H73.3097V76.3706L79.9646 69.7169L73.3097 63.0631V53.6537ZM11.4406 82.3383H4.04644V74.9448L-1.18243 69.7169L4.04644 64.4889V57.0953H11.4406L16.6694 51.8674L21.8983 57.0953H29.2924V64.4889L34.5213 69.7169L29.2924 74.9448V82.3383H21.8983L16.6694 87.5663L11.4406 82.3383ZM29.2932 115.512V122.905H21.8991L16.6702 128.133L11.4413 122.905H4.04723V115.512L-1.18165 110.284L4.04723 105.056V97.6624H11.4413L16.6702 92.4345L21.8991 97.6624H29.2932V105.056L34.5221 110.284L29.2932 115.512ZM32.7362 103.63V94.2208H23.3244L19.1039 90.0012L23.3244 85.7816H32.7362V76.3714L36.9566 72.1517L41.177 76.3714V85.7816H50.5888L54.8092 90.0012L50.5888 94.2208H41.177V103.63L36.9566 107.85L32.7362 103.63ZM62.4726 97.6624H69.8667V105.056L75.0956 110.284L69.8667 115.512V122.905H62.4726L57.2437 128.133L52.0149 122.905H44.6208V115.512L39.3919 110.284L44.6208 105.056V97.6624H52.0149L57.2437 92.4345L62.4726 97.6624ZM75.0956 69.7176L69.8667 74.9456V82.3392H62.4726L57.2437 87.5671L52.0149 82.3392H44.6208V74.9456L39.3919 69.7176L44.6208 64.4897V57.0961H52.0149L57.2437 51.8682L62.4726 57.0961H69.8667V64.4897L75.0956 69.7176Z" fill="#E0ECEE"/>
<path d="M159.327 53.6537H149.916L143.261 47L136.606 53.6537H127.194V63.0631L122.973 67.2828L118.753 63.0631V53.6537H109.341L102.686 47L96.0314 53.6537H86.6196V63.0631L79.9646 69.7169L86.6196 76.3706V85.7807H96.0314L100.252 90.0004L96.0314 94.2201H86.6196V103.629L79.9646 110.283L86.6196 116.937V126.346H96.0314L102.686 133L109.341 126.346H118.753V116.937L122.973 112.717L127.194 116.937V126.346H136.606L143.261 133L149.916 126.346H159.327V116.937L165.982 110.283L159.327 103.629V94.2201H149.916L145.695 90.0004L149.916 85.7807H159.327V76.3706L165.982 69.7169L159.327 63.0631V53.6537ZM97.4582 82.3383H90.0641V74.9448L84.8353 69.7169L90.0641 64.4889V57.0953H97.4582L102.687 51.8674L107.916 57.0953H115.31V64.4889L120.539 69.7169L115.31 74.9448V82.3383H107.916L102.687 87.5663L97.4582 82.3383ZM115.311 115.512V122.905H107.917L102.688 128.133L97.459 122.905H90.0649V115.512L84.836 110.284L90.0649 105.056V97.6624H97.459L102.688 92.4345L107.917 97.6624H115.311V105.056L120.54 110.284L115.311 115.512ZM118.754 103.63V94.2208H109.342L105.122 90.0012L109.342 85.7816H118.754V76.3714L122.974 72.1517L127.195 76.3714V85.7816H136.606L140.827 90.0012L136.606 94.2208H127.195V103.63L122.974 107.85L118.754 103.63ZM148.49 97.6624H155.884V105.056L161.113 110.284L155.884 115.512V122.905H148.49L143.261 128.133L138.033 122.905H130.638V115.512L125.41 110.284L130.638 105.056V97.6624H138.033L143.261 92.4345L148.49 97.6624ZM161.113 69.7176L155.884 74.9456V82.3392H148.49L143.261 87.5671L138.033 82.3392H130.638V74.9456L125.41 69.7176L130.638 64.4897V57.0961H138.033L143.261 51.8682L148.49 57.0961H155.884V64.4897L161.113 69.7176Z" fill="#E0ECEE"/>
<path d="M245.345 53.6537H235.933L229.278 47L222.623 53.6537H213.212V63.0631L208.991 67.2828L204.771 63.0631V53.6537H195.359L188.704 47L182.049 53.6537H172.637V63.0631L165.982 69.7169L172.637 76.3706V85.7807H182.049L186.269 90.0004L182.049 94.2201H172.637V103.629L165.982 110.283L172.637 116.937V126.346H182.049L188.704 133L195.359 126.346H204.771V116.937L208.991 112.717L213.212 116.937V126.346H222.623L229.278 133L235.933 126.346H245.345V116.937L252 110.283L245.345 103.629V94.2201H235.933L231.713 90.0004L235.933 85.7807H245.345V76.3706L252 69.7169L245.345 63.0631V53.6537ZM183.476 82.3383H176.082V74.9448L170.853 69.7169L176.082 64.4889V57.0953H183.476L188.705 51.8674L193.934 57.0953H201.328V64.4889L206.557 69.7169L201.328 74.9448V82.3383H193.934L188.705 87.5663L183.476 82.3383ZM201.329 115.512V122.905H193.934L188.706 128.133L183.477 122.905H176.083V115.512L170.854 110.284L176.083 105.056V97.6624H183.477L188.706 92.4345L193.934 97.6624H201.329V105.056L206.557 110.284L201.329 115.512ZM204.772 103.63V94.2208H195.36L191.139 90.0012L195.36 85.7816H204.772V76.3714L208.992 72.1517L213.212 76.3714V85.7816H222.624L226.845 90.0012L222.624 94.2208H213.212V103.63L208.992 107.85L204.772 103.63ZM234.508 97.6624H241.902V105.056L247.131 110.284L241.902 115.512V122.905H234.508L229.279 128.133L224.05 122.905H216.656V115.512L211.427 110.284L216.656 105.056V97.6624H224.05L229.279 92.4345L234.508 97.6624ZM247.131 69.7176L241.902 74.9456V82.3392H234.508L229.279 87.5671L224.05 82.3392H216.656V74.9456L211.427 69.7176L216.656 64.4897V57.0961H224.05L229.279 51.8682L234.508 57.0961H241.902V64.4897L247.131 69.7176Z" fill="#E0ECEE"/>
<path d="M-11.6372 -376.346H-21.0491L-27.704 -383L-34.3589 -376.346H-43.7708V-366.937L-47.9912 -362.717L-52.2116 -366.937V-376.346H-61.6234L-68.2783 -383L-74.9333 -376.346H-84.3451V-366.937L-91 -360.283L-84.3451 -353.629V-344.219H-74.9333L-70.7128 -340L-74.9333 -335.78H-84.3451V-326.371L-91 -319.717L-84.3451 -313.063V-303.654H-74.9333L-68.2783 -297L-61.6234 -303.654H-52.2116V-313.063L-47.9912 -317.283L-43.7708 -313.063V-303.654H-34.3589L-27.704 -297L-21.0491 -303.654H-11.6372V-313.063L-4.98232 -319.717L-11.6372 -326.371V-335.78H-21.0491L-25.2695 -340L-21.0491 -344.219H-11.6372V-353.629L-4.98232 -360.283L-11.6372 -366.937V-376.346ZM-73.5064 -347.662H-80.9005V-355.055L-86.1294 -360.283L-80.9005 -365.511V-372.905H-73.5064L-68.2775 -378.133L-63.0487 -372.905H-55.6546V-365.511L-50.4257 -360.283L-55.6546 -355.055V-347.662H-63.0487L-68.2775 -342.434L-73.5064 -347.662ZM-55.6538 -314.488V-307.095H-63.0479L-68.2768 -301.867L-73.5056 -307.095H-80.8997V-314.488L-86.1286 -319.716L-80.8997 -324.944V-332.338H-73.5056L-68.2768 -337.566L-63.0479 -332.338H-55.6538V-324.944L-50.4249 -319.716L-55.6538 -314.488ZM-52.2108 -326.37V-335.779H-61.6226L-65.843 -339.999L-61.6226 -344.218H-52.2108V-353.629L-47.9904 -357.848L-43.77 -353.629V-344.218H-34.3582L-30.1377 -339.999L-34.3582 -335.779H-43.77V-326.37L-47.9904 -322.15L-52.2108 -326.37ZM-22.4743 -332.338H-15.0802V-324.944L-9.85136 -319.716L-15.0802 -314.488V-307.095H-22.4743L-27.7032 -301.867L-32.9321 -307.095H-40.3262V-314.488L-45.5551 -319.716L-40.3262 -324.944V-332.338H-32.9321L-27.7032 -337.566L-22.4743 -332.338ZM-9.85136 -360.282L-15.0802 -355.054V-347.661H-22.4743L-27.7032 -342.433L-32.9321 -347.661H-40.3262V-355.054L-45.5551 -360.282L-40.3262 -365.51V-372.904H-32.9321L-27.7032 -378.132L-22.4743 -372.904H-15.0802V-365.51L-9.85136 -360.282Z" fill="#E0ECEE"/>
<path d="M73.3097 -376.346H63.8979L57.243 -383L50.588 -376.346H41.1762V-366.937L36.9558 -362.717L32.7354 -366.937V-376.346H23.3236L16.6686 -383L10.0137 -376.346H0.601891V-366.937L-6.05304 -360.283L0.601891 -353.629V-344.219H10.0137L14.2341 -340L10.0137 -335.78H0.601891V-326.371L-6.05304 -319.717L0.601891 -313.063V-303.654H10.0137L16.6686 -297L23.3236 -303.654H32.7354V-313.063L36.9558 -317.283L41.1762 -313.063V-303.654H50.588L57.243 -297L63.8979 -303.654H73.3097V-313.063L79.9646 -319.717L73.3097 -326.371V-335.78H63.8979L59.6775 -340L63.8979 -344.219H73.3097V-353.629L79.9646 -360.283L73.3097 -366.937V-376.346ZM11.4406 -347.662H4.04644V-355.055L-1.18243 -360.283L4.04644 -365.511V-372.905H11.4406L16.6694 -378.133L21.8983 -372.905H29.2924V-365.511L34.5213 -360.283L29.2924 -355.055V-347.662H21.8983L16.6694 -342.434L11.4406 -347.662ZM29.2932 -314.488V-307.095H21.8991L16.6702 -301.867L11.4413 -307.095H4.04723V-314.488L-1.18165 -319.716L4.04723 -324.944V-332.338H11.4413L16.6702 -337.566L21.8991 -332.338H29.2932V-324.944L34.5221 -319.716L29.2932 -314.488ZM32.7362 -326.37V-335.779H23.3244L19.1039 -339.999L23.3244 -344.218H32.7362V-353.629L36.9566 -357.848L41.177 -353.629V-344.218H50.5888L54.8092 -339.999L50.5888 -335.779H41.177V-326.37L36.9566 -322.15L32.7362 -326.37ZM62.4726 -332.338H69.8667V-324.944L75.0956 -319.716L69.8667 -314.488V-307.095H62.4726L57.2437 -301.867L52.0149 -307.095H44.6208V-314.488L39.3919 -319.716L44.6208 -324.944V-332.338H52.0149L57.2437 -337.566L62.4726 -332.338ZM75.0956 -360.282L69.8667 -355.054V-347.661H62.4726L57.2437 -342.433L52.0149 -347.661H44.6208V-355.054L39.3919 -360.282L44.6208 -365.51V-372.904H52.0149L57.2437 -378.132L62.4726 -372.904H69.8667V-365.51L75.0956 -360.282Z" fill="#E0ECEE"/>
<path d="M159.327 -376.346H149.916L143.261 -383L136.606 -376.346H127.194V-366.937L122.973 -362.717L118.753 -366.937V-376.346H109.341L102.686 -383L96.0314 -376.346H86.6196V-366.937L79.9646 -360.283L86.6196 -353.629V-344.219H96.0314L100.252 -340L96.0314 -335.78H86.6196V-326.371L79.9646 -319.717L86.6196 -313.063V-303.654H96.0314L102.686 -297L109.341 -303.654H118.753V-313.063L122.973 -317.283L127.194 -313.063V-303.654H136.606L143.261 -297L149.916 -303.654H159.327V-313.063L165.982 -319.717L159.327 -326.371V-335.78H149.916L145.695 -340L149.916 -344.219H159.327V-353.629L165.982 -360.283L159.327 -366.937V-376.346ZM97.4582 -347.662H90.0641V-355.055L84.8353 -360.283L90.0641 -365.511V-372.905H97.4582L102.687 -378.133L107.916 -372.905H115.31V-365.511L120.539 -360.283L115.31 -355.055V-347.662H107.916L102.687 -342.434L97.4582 -347.662ZM115.311 -314.488V-307.095H107.917L102.688 -301.867L97.459 -307.095H90.0649V-314.488L84.836 -319.716L90.0649 -324.944V-332.338H97.459L102.688 -337.566L107.917 -332.338H115.311V-324.944L120.54 -319.716L115.311 -314.488ZM118.754 -326.37V-335.779H109.342L105.122 -339.999L109.342 -344.218H118.754V-353.629L122.974 -357.848L127.195 -353.629V-344.218H136.606L140.827 -339.999L136.606 -335.779H127.195V-326.37L122.974 -322.15L118.754 -326.37ZM148.49 -332.338H155.884V-324.944L161.113 -319.716L155.884 -314.488V-307.095H148.49L143.261 -301.867L138.033 -307.095H130.638V-314.488L125.41 -319.716L130.638 -324.944V-332.338H138.033L143.261 -337.566L148.49 -332.338ZM161.113 -360.282L155.884 -355.054V-347.661H148.49L143.261 -342.433L138.033 -347.661H130.638V-355.054L125.41 -360.282L130.638 -365.51V-372.904H138.033L143.261 -378.132L148.49 -372.904H155.884V-365.51L161.113 -360.282Z" fill="#E0ECEE"/>
<path d="M245.345 -376.346H235.933L229.278 -383L222.623 -376.346H213.212V-366.937L208.991 -362.717L204.771 -366.937V-376.346H195.359L188.704 -383L182.049 -376.346H172.637V-366.937L165.982 -360.283L172.637 -353.629V-344.219H182.049L186.269 -340L182.049 -335.78H172.637V-326.371L165.982 -319.717L172.637 -313.063V-303.654H182.049L188.704 -297L195.359 -303.654H204.771V-313.063L208.991 -317.283L213.212 -313.063V-303.654H222.623L229.278 -297L235.933 -303.654H245.345V-313.063L252 -319.717L245.345 -326.371V-335.78H235.933L231.713 -340L235.933 -344.219H245.345V-353.629L252 -360.283L245.345 -366.937V-376.346ZM183.476 -347.662H176.082V-355.055L170.853 -360.283L176.082 -365.511V-372.905H183.476L188.705 -378.133L193.934 -372.905H201.328V-365.511L206.557 -360.283L201.328 -355.055V-347.662H193.934L188.705 -342.434L183.476 -347.662ZM201.329 -314.488V-307.095H193.934L188.706 -301.867L183.477 -307.095H176.083V-314.488L170.854 -319.716L176.083 -324.944V-332.338H183.477L188.706 -337.566L193.934 -332.338H201.329V-324.944L206.557 -319.716L201.329 -314.488ZM204.772 -326.37V-335.779H195.36L191.139 -339.999L195.36 -344.218H204.772V-353.629L208.992 -357.848L213.212 -353.629V-344.218H222.624L226.845 -339.999L222.624 -335.779H213.212V-326.37L208.992 -322.15L204.772 -326.37ZM234.508 -332.338H241.902V-324.944L247.131 -319.716L241.902 -314.488V-307.095H234.508L229.279 -301.867L224.05 -307.095H216.656V-314.488L211.427 -319.716L216.656 -324.944V-332.338H224.05L229.279 -337.566L234.508 -332.338ZM247.131 -360.282L241.902 -355.054V-347.661H234.508L229.279 -342.433L224.05 -347.661H216.656V-355.054L211.427 -360.282L216.656 -365.51V-372.904H224.05L229.279 -378.132L234.508 -372.904H241.902V-365.51L247.131 -360.282Z" fill="#E0ECEE"/>
<path d="M-11.6372 -290.346H-21.0491L-27.704 -297L-34.3589 -290.346H-43.7708V-280.937L-47.9912 -276.717L-52.2116 -280.937V-290.346H-61.6234L-68.2783 -297L-74.9333 -290.346H-84.3451V-280.937L-91 -274.283L-84.3451 -267.629V-258.219H-74.9333L-70.7128 -254L-74.9333 -249.78H-84.3451V-240.371L-91 -233.717L-84.3451 -227.063V-217.654H-74.9333L-68.2783 -211L-61.6234 -217.654H-52.2116V-227.063L-47.9912 -231.283L-43.7708 -227.063V-217.654H-34.3589L-27.704 -211L-21.0491 -217.654H-11.6372V-227.063L-4.98232 -233.717L-11.6372 -240.371V-249.78H-21.0491L-25.2695 -254L-21.0491 -258.219H-11.6372V-267.629L-4.98232 -274.283L-11.6372 -280.937V-290.346ZM-73.5064 -261.662H-80.9005V-269.055L-86.1294 -274.283L-80.9005 -279.511V-286.905H-73.5064L-68.2775 -292.133L-63.0487 -286.905H-55.6546V-279.511L-50.4257 -274.283L-55.6546 -269.055V-261.662H-63.0487L-68.2775 -256.434L-73.5064 -261.662ZM-55.6538 -228.488V-221.095H-63.0479L-68.2768 -215.867L-73.5056 -221.095H-80.8997V-228.488L-86.1286 -233.716L-80.8997 -238.944V-246.338H-73.5056L-68.2768 -251.565L-63.0479 -246.338H-55.6538V-238.944L-50.4249 -233.716L-55.6538 -228.488ZM-52.2108 -240.37V-249.779H-61.6226L-65.843 -253.999L-61.6226 -258.218H-52.2108V-267.629L-47.9904 -271.848L-43.77 -267.629V-258.218H-34.3582L-30.1377 -253.999L-34.3582 -249.779H-43.77V-240.37L-47.9904 -236.15L-52.2108 -240.37ZM-22.4743 -246.338H-15.0802V-238.944L-9.85136 -233.716L-15.0802 -228.488V-221.095H-22.4743L-27.7032 -215.867L-32.9321 -221.095H-40.3262V-228.488L-45.5551 -233.716L-40.3262 -238.944V-246.338H-32.9321L-27.7032 -251.565L-22.4743 -246.338ZM-9.85136 -274.282L-15.0802 -269.054V-261.661H-22.4743L-27.7032 -256.433L-32.9321 -261.661H-40.3262V-269.054L-45.5551 -274.282L-40.3262 -279.51V-286.904H-32.9321L-27.7032 -292.132L-22.4743 -286.904H-15.0802V-279.51L-9.85136 -274.282Z" fill="#E0ECEE"/>
<path d="M73.3097 -290.346H63.8979L57.243 -297L50.588 -290.346H41.1762V-280.937L36.9558 -276.717L32.7354 -280.937V-290.346H23.3236L16.6686 -297L10.0137 -290.346H0.601891V-280.937L-6.05304 -274.283L0.601891 -267.629V-258.219H10.0137L14.2341 -254L10.0137 -249.78H0.601891V-240.371L-6.05304 -233.717L0.601891 -227.063V-217.654H10.0137L16.6686 -211L23.3236 -217.654H32.7354V-227.063L36.9558 -231.283L41.1762 -227.063V-217.654H50.588L57.243 -211L63.8979 -217.654H73.3097V-227.063L79.9646 -233.717L73.3097 -240.371V-249.78H63.8979L59.6775 -254L63.8979 -258.219H73.3097V-267.629L79.9646 -274.283L73.3097 -280.937V-290.346ZM11.4406 -261.662H4.04644V-269.055L-1.18243 -274.283L4.04644 -279.511V-286.905H11.4406L16.6694 -292.133L21.8983 -286.905H29.2924V-279.511L34.5213 -274.283L29.2924 -269.055V-261.662H21.8983L16.6694 -256.434L11.4406 -261.662ZM29.2932 -228.488V-221.095H21.8991L16.6702 -215.867L11.4413 -221.095H4.04723V-228.488L-1.18165 -233.716L4.04723 -238.944V-246.338H11.4413L16.6702 -251.565L21.8991 -246.338H29.2932V-238.944L34.5221 -233.716L29.2932 -228.488ZM32.7362 -240.37V-249.779H23.3244L19.1039 -253.999L23.3244 -258.218H32.7362V-267.629L36.9566 -271.848L41.177 -267.629V-258.218H50.5888L54.8092 -253.999L50.5888 -249.779H41.177V-240.37L36.9566 -236.15L32.7362 -240.37ZM62.4726 -246.338H69.8667V-238.944L75.0956 -233.716L69.8667 -228.488V-221.095H62.4726L57.2437 -215.867L52.0149 -221.095H44.6208V-228.488L39.3919 -233.716L44.6208 -238.944V-246.338H52.0149L57.2437 -251.565L62.4726 -246.338ZM75.0956 -274.282L69.8667 -269.054V-261.661H62.4726L57.2437 -256.433L52.0149 -261.661H44.6208V-269.054L39.3919 -274.282L44.6208 -279.51V-286.904H52.0149L57.2437 -292.132L62.4726 -286.904H69.8667V-279.51L75.0956 -274.282Z" fill="#E0ECEE"/>
<path d="M159.327 -290.346H149.916L143.261 -297L136.606 -290.346H127.194V-280.937L122.973 -276.717L118.753 -280.937V-290.346H109.341L102.686 -297L96.0314 -290.346H86.6196V-280.937L79.9646 -274.283L86.6196 -267.629V-258.219H96.0314L100.252 -254L96.0314 -249.78H86.6196V-240.371L79.9646 -233.717L86.6196 -227.063V-217.654H96.0314L102.686 -211L109.341 -217.654H118.753V-227.063L122.973 -231.283L127.194 -227.063V-217.654H136.606L143.261 -211L149.916 -217.654H159.327V-227.063L165.982 -233.717L159.327 -240.371V-249.78H149.916L145.695 -254L149.916 -258.219H159.327V-267.629L165.982 -274.283L159.327 -280.937V-290.346ZM97.4582 -261.662H90.0641V-269.055L84.8353 -274.283L90.0641 -279.511V-286.905H97.4582L102.687 -292.133L107.916 -286.905H115.31V-279.511L120.539 -274.283L115.31 -269.055V-261.662H107.916L102.687 -256.434L97.4582 -261.662ZM115.311 -228.488V-221.095H107.917L102.688 -215.867L97.459 -221.095H90.0649V-228.488L84.836 -233.716L90.0649 -238.944V-246.338H97.459L102.688 -251.565L107.917 -246.338H115.311V-238.944L120.54 -233.716L115.311 -228.488ZM118.754 -240.37V-249.779H109.342L105.122 -253.999L109.342 -258.218H118.754V-267.629L122.974 -271.848L127.195 -267.629V-258.218H136.606L140.827 -253.999L136.606 -249.779H127.195V-240.37L122.974 -236.15L118.754 -240.37ZM148.49 -246.338H155.884V-238.944L161.113 -233.716L155.884 -228.488V-221.095H148.49L143.261 -215.867L138.033 -221.095H130.638V-228.488L125.41 -233.716L130.638 -238.944V-246.338H138.033L143.261 -251.565L148.49 -246.338ZM161.113 -274.282L155.884 -269.054V-261.661H148.49L143.261 -256.433L138.033 -261.661H130.638V-269.054L125.41 -274.282L130.638 -279.51V-286.904H138.033L143.261 -292.132L148.49 -286.904H155.884V-279.51L161.113 -274.282Z" fill="#E0ECEE"/>
<path d="M245.345 -290.346H235.933L229.278 -297L222.623 -290.346H213.212V-280.937L208.991 -276.717L204.771 -280.937V-290.346H195.359L188.704 -297L182.049 -290.346H172.637V-280.937L165.982 -274.283L172.637 -267.629V-258.219H182.049L186.269 -254L182.049 -249.78H172.637V-240.371L165.982 -233.717L172.637 -227.063V-217.654H182.049L188.704 -211L195.359 -217.654H204.771V-227.063L208.991 -231.283L213.212 -227.063V-217.654H222.623L229.278 -211L235.933 -217.654H245.345V-227.063L252 -233.717L245.345 -240.371V-249.78H235.933L231.713 -254L235.933 -258.219H245.345V-267.629L252 -274.283L245.345 -280.937V-290.346ZM183.476 -261.662H176.082V-269.055L170.853 -274.283L176.082 -279.511V-286.905H183.476L188.705 -292.133L193.934 -286.905H201.328V-279.511L206.557 -274.283L201.328 -269.055V-261.662H193.934L188.705 -256.434L183.476 -261.662ZM201.329 -228.488V-221.095H193.934L188.706 -215.867L183.477 -221.095H176.083V-228.488L170.854 -233.716L176.083 -238.944V-246.338H183.477L188.706 -251.565L193.934 -246.338H201.329V-238.944L206.557 -233.716L201.329 -228.488ZM204.772 -240.37V-249.779H195.36L191.139 -253.999L195.36 -258.218H204.772V-267.629L208.992 -271.848L213.212 -267.629V-258.218H222.624L226.845 -253.999L222.624 -249.779H213.212V-240.37L208.992 -236.15L204.772 -240.37ZM234.508 -246.338H241.902V-238.944L247.131 -233.716L241.902 -228.488V-221.095H234.508L229.279 -215.867L224.05 -221.095H216.656V-228.488L211.427 -233.716L216.656 -238.944V-246.338H224.05L229.279 -251.565L234.508 -246.338ZM247.131 -274.282L241.902 -269.054V-261.661H234.508L229.279 -256.433L224.05 -261.661H216.656V-269.054L211.427 -274.282L216.656 -279.51V-286.904H224.05L229.279 -292.132L234.508 -286.904H241.902V-279.51L247.131 -274.282Z" fill="#E0ECEE"/>
<path d="M-11.6372 139.654H-21.0491L-27.704 133L-34.3589 139.654H-43.7708V149.063L-47.9912 153.283L-52.2116 149.063V139.654H-61.6234L-68.2783 133L-74.9333 139.654H-84.3451V149.063L-91 155.717L-84.3451 162.371V171.781H-74.9333L-70.7128 176L-74.9333 180.22H-84.3451V189.629L-91 196.283L-84.3451 202.937V212.346H-74.9333L-68.2783 219L-61.6234 212.346H-52.2116V202.937L-47.9912 198.717L-43.7708 202.937V212.346H-34.3589L-27.704 219L-21.0491 212.346H-11.6372V202.937L-4.98232 196.283L-11.6372 189.629V180.22H-21.0491L-25.2695 176L-21.0491 171.781H-11.6372V162.371L-4.98232 155.717L-11.6372 149.063V139.654ZM-73.5064 168.338H-80.9005V160.945L-86.1294 155.717L-80.9005 150.489V143.095H-73.5064L-68.2775 137.867L-63.0487 143.095H-55.6546V150.489L-50.4257 155.717L-55.6546 160.945V168.338H-63.0487L-68.2775 173.566L-73.5064 168.338ZM-55.6538 201.512V208.905H-63.0479L-68.2768 214.133L-73.5056 208.905H-80.8997V201.512L-86.1286 196.284L-80.8997 191.056V183.662H-73.5056L-68.2768 178.434L-63.0479 183.662H-55.6538V191.056L-50.4249 196.284L-55.6538 201.512ZM-52.2108 189.63V180.221H-61.6226L-65.843 176.001L-61.6226 171.781H-52.2108V162.371L-47.9904 158.152L-43.77 162.371V171.781H-34.3582L-30.1377 176.001L-34.3582 180.221H-43.77V189.63L-47.9904 193.85L-52.2108 189.63ZM-22.4743 183.662H-15.0802V191.056L-9.85136 196.284L-15.0802 201.512V208.905H-22.4743L-27.7032 214.133L-32.9321 208.905H-40.3262V201.512L-45.5551 196.284L-40.3262 191.056V183.662H-32.9321L-27.7032 178.434L-22.4743 183.662ZM-9.85136 155.718L-15.0802 160.946V168.339H-22.4743L-27.7032 173.567L-32.9321 168.339H-40.3262V160.946L-45.5551 155.718L-40.3262 150.49V143.096H-32.9321L-27.7032 137.868L-22.4743 143.096H-15.0802V150.49L-9.85136 155.718Z" fill="#E0ECEE"/>
<path d="M73.3097 139.654H63.8979L57.243 133L50.588 139.654H41.1762V149.063L36.9558 153.283L32.7354 149.063V139.654H23.3236L16.6686 133L10.0137 139.654H0.601891V149.063L-6.05304 155.717L0.601891 162.371V171.781H10.0137L14.2341 176L10.0137 180.22H0.601891V189.629L-6.05304 196.283L0.601891 202.937V212.346H10.0137L16.6686 219L23.3236 212.346H32.7354V202.937L36.9558 198.717L41.1762 202.937V212.346H50.588L57.243 219L63.8979 212.346H73.3097V202.937L79.9646 196.283L73.3097 189.629V180.22H63.8979L59.6775 176L63.8979 171.781H73.3097V162.371L79.9646 155.717L73.3097 149.063V139.654ZM11.4406 168.338H4.04644V160.945L-1.18243 155.717L4.04644 150.489V143.095H11.4406L16.6694 137.867L21.8983 143.095H29.2924V150.489L34.5213 155.717L29.2924 160.945V168.338H21.8983L16.6694 173.566L11.4406 168.338ZM29.2932 201.512V208.905H21.8991L16.6702 214.133L11.4413 208.905H4.04723V201.512L-1.18165 196.284L4.04723 191.056V183.662H11.4413L16.6702 178.434L21.8991 183.662H29.2932V191.056L34.5221 196.284L29.2932 201.512ZM32.7362 189.63V180.221H23.3244L19.1039 176.001L23.3244 171.781H32.7362V162.371L36.9566 158.152L41.177 162.371V171.781H50.5888L54.8092 176.001L50.5888 180.221H41.177V189.63L36.9566 193.85L32.7362 189.63ZM62.4726 183.662H69.8667V191.056L75.0956 196.284L69.8667 201.512V208.905H62.4726L57.2437 214.133L52.0149 208.905H44.6208V201.512L39.3919 196.284L44.6208 191.056V183.662H52.0149L57.2437 178.434L62.4726 183.662ZM75.0956 155.718L69.8667 160.946V168.339H62.4726L57.2437 173.567L52.0149 168.339H44.6208V160.946L39.3919 155.718L44.6208 150.49V143.096H52.0149L57.2437 137.868L62.4726 143.096H69.8667V150.49L75.0956 155.718Z" fill="#E0ECEE"/>
<path d="M159.327 139.654H149.916L143.261 133L136.606 139.654H127.194V149.063L122.973 153.283L118.753 149.063V139.654H109.341L102.686 133L96.0314 139.654H86.6196V149.063L79.9646 155.717L86.6196 162.371V171.781H96.0314L100.252 176L96.0314 180.22H86.6196V189.629L79.9646 196.283L86.6196 202.937V212.346H96.0314L102.686 219L109.341 212.346H118.753V202.937L122.973 198.717L127.194 202.937V212.346H136.606L143.261 219L149.916 212.346H159.327V202.937L165.982 196.283L159.327 189.629V180.22H149.916L145.695 176L149.916 171.781H159.327V162.371L165.982 155.717L159.327 149.063V139.654ZM97.4582 168.338H90.0641V160.945L84.8353 155.717L90.0641 150.489V143.095H97.4582L102.687 137.867L107.916 143.095H115.31V150.489L120.539 155.717L115.31 160.945V168.338H107.916L102.687 173.566L97.4582 168.338ZM115.311 201.512V208.905H107.917L102.688 214.133L97.459 208.905H90.0649V201.512L84.836 196.284L90.0649 191.056V183.662H97.459L102.688 178.434L107.917 183.662H115.311V191.056L120.54 196.284L115.311 201.512ZM118.754 189.63V180.221H109.342L105.122 176.001L109.342 171.781H118.754V162.371L122.974 158.152L127.195 162.371V171.781H136.606L140.827 176.001L136.606 180.221H127.195V189.63L122.974 193.85L118.754 189.63ZM148.49 183.662H155.884V191.056L161.113 196.284L155.884 201.512V208.905H148.49L143.261 214.133L138.033 208.905H130.638V201.512L125.41 196.284L130.638 191.056V183.662H138.033L143.261 178.434L148.49 183.662ZM161.113 155.718L155.884 160.946V168.339H148.49L143.261 173.567L138.033 168.339H130.638V160.946L125.41 155.718L130.638 150.49V143.096H138.033L143.261 137.868L148.49 143.096H155.884V150.49L161.113 155.718Z" fill="#E0ECEE"/>
<path d="M245.345 139.654H235.933L229.278 133L222.623 139.654H213.212V149.063L208.991 153.283L204.771 149.063V139.654H195.359L188.704 133L182.049 139.654H172.637V149.063L165.982 155.717L172.637 162.371V171.781H182.049L186.269 176L182.049 180.22H172.637V189.629L165.982 196.283L172.637 202.937V212.346H182.049L188.704 219L195.359 212.346H204.771V202.937L208.991 198.717L213.212 202.937V212.346H222.623L229.278 219L235.933 212.346H245.345V202.937L252 196.283L245.345 189.629V180.22H235.933L231.713 176L235.933 171.781H245.345V162.371L252 155.717L245.345 149.063V139.654ZM183.476 168.338H176.082V160.945L170.853 155.717L176.082 150.489V143.095H183.476L188.705 137.867L193.934 143.095H201.328V150.489L206.557 155.717L201.328 160.945V168.338H193.934L188.705 173.566L183.476 168.338ZM201.329 201.512V208.905H193.934L188.706 214.133L183.477 208.905H176.083V201.512L170.854 196.284L176.083 191.056V183.662H183.477L188.706 178.434L193.934 183.662H201.329V191.056L206.557 196.284L201.329 201.512ZM204.772 189.63V180.221H195.36L191.139 176.001L195.36 171.781H204.772V162.371L208.992 158.152L213.212 162.371V171.781H222.624L226.845 176.001L222.624 180.221H213.212V189.63L208.992 193.85L204.772 189.63ZM234.508 183.662H241.902V191.056L247.131 196.284L241.902 201.512V208.905H234.508L229.279 214.133L224.05 208.905H216.656V201.512L211.427 196.284L216.656 191.056V183.662H224.05L229.279 178.434L234.508 183.662ZM247.131 155.718L241.902 160.946V168.339H234.508L229.279 173.567L224.05 168.339H216.656V160.946L211.427 155.718L216.656 150.49V143.096H224.05L229.279 137.868L234.508 143.096H241.902V150.49L247.131 155.718Z" fill="#E0ECEE"/>
<path d="M-11.6372 225.654H-21.0491L-27.704 219L-34.3589 225.654H-43.7708V235.063L-47.9912 239.283L-52.2116 235.063V225.654H-61.6234L-68.2783 219L-74.9333 225.654H-84.3451V235.063L-91 241.717L-84.3451 248.371V257.781H-74.9333L-70.7128 262L-74.9333 266.22H-84.3451V275.629L-91 282.283L-84.3451 288.937V298.346H-74.9333L-68.2783 305L-61.6234 298.346H-52.2116V288.937L-47.9912 284.717L-43.7708 288.937V298.346H-34.3589L-27.704 305L-21.0491 298.346H-11.6372V288.937L-4.98232 282.283L-11.6372 275.629V266.22H-21.0491L-25.2695 262L-21.0491 257.781H-11.6372V248.371L-4.98232 241.717L-11.6372 235.063V225.654ZM-73.5064 254.338H-80.9005V246.945L-86.1294 241.717L-80.9005 236.489V229.095H-73.5064L-68.2775 223.867L-63.0487 229.095H-55.6546V236.489L-50.4257 241.717L-55.6546 246.945V254.338H-63.0487L-68.2775 259.566L-73.5064 254.338ZM-55.6538 287.512V294.905H-63.0479L-68.2768 300.133L-73.5056 294.905H-80.8997V287.512L-86.1286 282.284L-80.8997 277.056V269.662H-73.5056L-68.2768 264.434L-63.0479 269.662H-55.6538V277.056L-50.4249 282.284L-55.6538 287.512ZM-52.2108 275.63V266.221H-61.6226L-65.843 262.001L-61.6226 257.781H-52.2108V248.371L-47.9904 244.152L-43.77 248.371V257.781H-34.3582L-30.1377 262.001L-34.3582 266.221H-43.77V275.63L-47.9904 279.85L-52.2108 275.63ZM-22.4743 269.662H-15.0802V277.056L-9.85136 282.284L-15.0802 287.512V294.905H-22.4743L-27.7032 300.133L-32.9321 294.905H-40.3262V287.512L-45.5551 282.284L-40.3262 277.056V269.662H-32.9321L-27.7032 264.434L-22.4743 269.662ZM-9.85136 241.718L-15.0802 246.946V254.339H-22.4743L-27.7032 259.567L-32.9321 254.339H-40.3262V246.946L-45.5551 241.718L-40.3262 236.49V229.096H-32.9321L-27.7032 223.868L-22.4743 229.096H-15.0802V236.49L-9.85136 241.718Z" fill="#E0ECEE"/>
<path d="M73.3097 225.654H63.8979L57.243 219L50.588 225.654H41.1762V235.063L36.9558 239.283L32.7354 235.063V225.654H23.3236L16.6686 219L10.0137 225.654H0.601891V235.063L-6.05304 241.717L0.601891 248.371V257.781H10.0137L14.2341 262L10.0137 266.22H0.601891V275.629L-6.05304 282.283L0.601891 288.937V298.346H10.0137L16.6686 305L23.3236 298.346H32.7354V288.937L36.9558 284.717L41.1762 288.937V298.346H50.588L57.243 305L63.8979 298.346H73.3097V288.937L79.9646 282.283L73.3097 275.629V266.22H63.8979L59.6775 262L63.8979 257.781H73.3097V248.371L79.9646 241.717L73.3097 235.063V225.654ZM11.4406 254.338H4.04644V246.945L-1.18243 241.717L4.04644 236.489V229.095H11.4406L16.6694 223.867L21.8983 229.095H29.2924V236.489L34.5213 241.717L29.2924 246.945V254.338H21.8983L16.6694 259.566L11.4406 254.338ZM29.2932 287.512V294.905H21.8991L16.6702 300.133L11.4413 294.905H4.04723V287.512L-1.18165 282.284L4.04723 277.056V269.662H11.4413L16.6702 264.434L21.8991 269.662H29.2932V277.056L34.5221 282.284L29.2932 287.512ZM32.7362 275.63V266.221H23.3244L19.1039 262.001L23.3244 257.781H32.7362V248.371L36.9566 244.152L41.177 248.371V257.781H50.5888L54.8092 262.001L50.5888 266.221H41.177V275.63L36.9566 279.85L32.7362 275.63ZM62.4726 269.662H69.8667V277.056L75.0956 282.284L69.8667 287.512V294.905H62.4726L57.2437 300.133L52.0149 294.905H44.6208V287.512L39.3919 282.284L44.6208 277.056V269.662H52.0149L57.2437 264.434L62.4726 269.662ZM75.0956 241.718L69.8667 246.946V254.339H62.4726L57.2437 259.567L52.0149 254.339H44.6208V246.946L39.3919 241.718L44.6208 236.49V229.096H52.0149L57.2437 223.868L62.4726 229.096H69.8667V236.49L75.0956 241.718Z" fill="#E0ECEE"/>
<path d="M159.327 225.654H149.916L143.261 219L136.606 225.654H127.194V235.063L122.973 239.283L118.753 235.063V225.654H109.341L102.686 219L96.0314 225.654H86.6196V235.063L79.9646 241.717L86.6196 248.371V257.781H96.0314L100.252 262L96.0314 266.22H86.6196V275.629L79.9646 282.283L86.6196 288.937V298.346H96.0314L102.686 305L109.341 298.346H118.753V288.937L122.973 284.717L127.194 288.937V298.346H136.606L143.261 305L149.916 298.346H159.327V288.937L165.982 282.283L159.327 275.629V266.22H149.916L145.695 262L149.916 257.781H159.327V248.371L165.982 241.717L159.327 235.063V225.654ZM97.4582 254.338H90.0641V246.945L84.8353 241.717L90.0641 236.489V229.095H97.4582L102.687 223.867L107.916 229.095H115.31V236.489L120.539 241.717L115.31 246.945V254.338H107.916L102.687 259.566L97.4582 254.338ZM115.311 287.512V294.905H107.917L102.688 300.133L97.459 294.905H90.0649V287.512L84.836 282.284L90.0649 277.056V269.662H97.459L102.688 264.434L107.917 269.662H115.311V277.056L120.54 282.284L115.311 287.512ZM118.754 275.63V266.221H109.342L105.122 262.001L109.342 257.781H118.754V248.371L122.974 244.152L127.195 248.371V257.781H136.606L140.827 262.001L136.606 266.221H127.195V275.63L122.974 279.85L118.754 275.63ZM148.49 269.662H155.884V277.056L161.113 282.284L155.884 287.512V294.905H148.49L143.261 300.133L138.033 294.905H130.638V287.512L125.41 282.284L130.638 277.056V269.662H138.033L143.261 264.434L148.49 269.662ZM161.113 241.718L155.884 246.946V254.339H148.49L143.261 259.567L138.033 254.339H130.638V246.946L125.41 241.718L130.638 236.49V229.096H138.033L143.261 223.868L148.49 229.096H155.884V236.49L161.113 241.718Z" fill="#E0ECEE"/>
<path d="M245.345 225.654H235.933L229.278 219L222.623 225.654H213.212V235.063L208.991 239.283L204.771 235.063V225.654H195.359L188.704 219L182.049 225.654H172.637V235.063L165.982 241.717L172.637 248.371V257.781H182.049L186.269 262L182.049 266.22H172.637V275.629L165.982 282.283L172.637 288.937V298.346H182.049L188.704 305L195.359 298.346H204.771V288.937L208.991 284.717L213.212 288.937V298.346H222.623L229.278 305L235.933 298.346H245.345V288.937L252 282.283L245.345 275.629V266.22H235.933L231.713 262L235.933 257.781H245.345V248.371L252 241.717L245.345 235.063V225.654ZM183.476 254.338H176.082V246.945L170.853 241.717L176.082 236.489V229.095H183.476L188.705 223.867L193.934 229.095H201.328V236.489L206.557 241.717L201.328 246.945V254.338H193.934L188.705 259.566L183.476 254.338ZM201.329 287.512V294.905H193.934L188.706 300.133L183.477 294.905H176.083V287.512L170.854 282.284L176.083 277.056V269.662H183.477L188.706 264.434L193.934 269.662H201.329V277.056L206.557 282.284L201.329 287.512ZM204.772 275.63V266.221H195.36L191.139 262.001L195.36 257.781H204.772V248.371L208.992 244.152L213.212 248.371V257.781H222.624L226.845 262.001L222.624 266.221H213.212V275.63L208.992 279.85L204.772 275.63ZM234.508 269.662H241.902V277.056L247.131 282.284L241.902 287.512V294.905H234.508L229.279 300.133L224.05 294.905H216.656V287.512L211.427 282.284L216.656 277.056V269.662H224.05L229.279 264.434L234.508 269.662ZM247.131 241.718L241.902 246.946V254.339H234.508L229.279 259.567L224.05 254.339H216.656V246.946L211.427 241.718L216.656 236.49V229.096H224.05L229.279 223.868L234.508 229.096H241.902V236.49L247.131 241.718Z" fill="#E0ECEE"/>
<path d="M-11.6372 -204.346H-21.0491L-27.704 -211L-34.3589 -204.346H-43.7708V-194.937L-47.9912 -190.717L-52.2116 -194.937V-204.346H-61.6234L-68.2783 -211L-74.9333 -204.346H-84.3451V-194.937L-91 -188.283L-84.3451 -181.629V-172.219H-74.9333L-70.7128 -168L-74.9333 -163.78H-84.3451V-154.371L-91 -147.717L-84.3451 -141.063V-131.654H-74.9333L-68.2783 -125L-61.6234 -131.654H-52.2116V-141.063L-47.9912 -145.283L-43.7708 -141.063V-131.654H-34.3589L-27.704 -125L-21.0491 -131.654H-11.6372V-141.063L-4.98232 -147.717L-11.6372 -154.371V-163.78H-21.0491L-25.2695 -168L-21.0491 -172.219H-11.6372V-181.629L-4.98232 -188.283L-11.6372 -194.937V-204.346ZM-73.5064 -175.662H-80.9005V-183.055L-86.1294 -188.283L-80.9005 -193.511V-200.905H-73.5064L-68.2775 -206.133L-63.0487 -200.905H-55.6546V-193.511L-50.4257 -188.283L-55.6546 -183.055V-175.662H-63.0487L-68.2775 -170.434L-73.5064 -175.662ZM-55.6538 -142.488V-135.095H-63.0479L-68.2768 -129.867L-73.5056 -135.095H-80.8997V-142.488L-86.1286 -147.716L-80.8997 -152.944V-160.338H-73.5056L-68.2768 -165.566L-63.0479 -160.338H-55.6538V-152.944L-50.4249 -147.716L-55.6538 -142.488ZM-52.2108 -154.37V-163.779H-61.6226L-65.843 -167.999L-61.6226 -172.219H-52.2108V-181.629L-47.9904 -185.848L-43.77 -181.629V-172.219H-34.3582L-30.1377 -167.999L-34.3582 -163.779H-43.77V-154.37L-47.9904 -150.15L-52.2108 -154.37ZM-22.4743 -160.338H-15.0802V-152.944L-9.85136 -147.716L-15.0802 -142.488V-135.095H-22.4743L-27.7032 -129.867L-32.9321 -135.095H-40.3262V-142.488L-45.5551 -147.716L-40.3262 -152.944V-160.338H-32.9321L-27.7032 -165.566L-22.4743 -160.338ZM-9.85136 -188.282L-15.0802 -183.054V-175.661H-22.4743L-27.7032 -170.433L-32.9321 -175.661H-40.3262V-183.054L-45.5551 -188.282L-40.3262 -193.51V-200.904H-32.9321L-27.7032 -206.132L-22.4743 -200.904H-15.0802V-193.51L-9.85136 -188.282Z" fill="#E0ECEE"/>
<path d="M73.3097 -204.346H63.8979L57.243 -211L50.588 -204.346H41.1762V-194.937L36.9558 -190.717L32.7354 -194.937V-204.346H23.3236L16.6686 -211L10.0137 -204.346H0.601891V-194.937L-6.05304 -188.283L0.601891 -181.629V-172.219H10.0137L14.2341 -168L10.0137 -163.78H0.601891V-154.371L-6.05304 -147.717L0.601891 -141.063V-131.654H10.0137L16.6686 -125L23.3236 -131.654H32.7354V-141.063L36.9558 -145.283L41.1762 -141.063V-131.654H50.588L57.243 -125L63.8979 -131.654H73.3097V-141.063L79.9646 -147.717L73.3097 -154.371V-163.78H63.8979L59.6775 -168L63.8979 -172.219H73.3097V-181.629L79.9646 -188.283L73.3097 -194.937V-204.346ZM11.4406 -175.662H4.04644V-183.055L-1.18243 -188.283L4.04644 -193.511V-200.905H11.4406L16.6694 -206.133L21.8983 -200.905H29.2924V-193.511L34.5213 -188.283L29.2924 -183.055V-175.662H21.8983L16.6694 -170.434L11.4406 -175.662ZM29.2932 -142.488V-135.095H21.8991L16.6702 -129.867L11.4413 -135.095H4.04723V-142.488L-1.18165 -147.716L4.04723 -152.944V-160.338H11.4413L16.6702 -165.566L21.8991 -160.338H29.2932V-152.944L34.5221 -147.716L29.2932 -142.488ZM32.7362 -154.37V-163.779H23.3244L19.1039 -167.999L23.3244 -172.219H32.7362V-181.629L36.9566 -185.848L41.177 -181.629V-172.219H50.5888L54.8092 -167.999L50.5888 -163.779H41.177V-154.37L36.9566 -150.15L32.7362 -154.37ZM62.4726 -160.338H69.8667V-152.944L75.0956 -147.716L69.8667 -142.488V-135.095H62.4726L57.2437 -129.867L52.0149 -135.095H44.6208V-142.488L39.3919 -147.716L44.6208 -152.944V-160.338H52.0149L57.2437 -165.566L62.4726 -160.338ZM75.0956 -188.282L69.8667 -183.054V-175.661H62.4726L57.2437 -170.433L52.0149 -175.661H44.6208V-183.054L39.3919 -188.282L44.6208 -193.51V-200.904H52.0149L57.2437 -206.132L62.4726 -200.904H69.8667V-193.51L75.0956 -188.282Z" fill="#E0ECEE"/>
<path d="M159.327 -204.346H149.916L143.261 -211L136.606 -204.346H127.194V-194.937L122.973 -190.717L118.753 -194.937V-204.346H109.341L102.686 -211L96.0314 -204.346H86.6196V-194.937L79.9646 -188.283L86.6196 -181.629V-172.219H96.0314L100.252 -168L96.0314 -163.78H86.6196V-154.371L79.9646 -147.717L86.6196 -141.063V-131.654H96.0314L102.686 -125L109.341 -131.654H118.753V-141.063L122.973 -145.283L127.194 -141.063V-131.654H136.606L143.261 -125L149.916 -131.654H159.327V-141.063L165.982 -147.717L159.327 -154.371V-163.78H149.916L145.695 -168L149.916 -172.219H159.327V-181.629L165.982 -188.283L159.327 -194.937V-204.346ZM97.4582 -175.662H90.0641V-183.055L84.8353 -188.283L90.0641 -193.511V-200.905H97.4582L102.687 -206.133L107.916 -200.905H115.31V-193.511L120.539 -188.283L115.31 -183.055V-175.662H107.916L102.687 -170.434L97.4582 -175.662ZM115.311 -142.488V-135.095H107.917L102.688 -129.867L97.459 -135.095H90.0649V-142.488L84.836 -147.716L90.0649 -152.944V-160.338H97.459L102.688 -165.566L107.917 -160.338H115.311V-152.944L120.54 -147.716L115.311 -142.488ZM118.754 -154.37V-163.779H109.342L105.122 -167.999L109.342 -172.219H118.754V-181.629L122.974 -185.848L127.195 -181.629V-172.219H136.606L140.827 -167.999L136.606 -163.779H127.195V-154.37L122.974 -150.15L118.754 -154.37ZM148.49 -160.338H155.884V-152.944L161.113 -147.716L155.884 -142.488V-135.095H148.49L143.261 -129.867L138.033 -135.095H130.638V-142.488L125.41 -147.716L130.638 -152.944V-160.338H138.033L143.261 -165.566L148.49 -160.338ZM161.113 -188.282L155.884 -183.054V-175.661H148.49L143.261 -170.433L138.033 -175.661H130.638V-183.054L125.41 -188.282L130.638 -193.51V-200.904H138.033L143.261 -206.132L148.49 -200.904H155.884V-193.51L161.113 -188.282Z" fill="#E0ECEE"/>
<path d="M245.345 -204.346H235.933L229.278 -211L222.623 -204.346H213.212V-194.937L208.991 -190.717L204.771 -194.937V-204.346H195.359L188.704 -211L182.049 -204.346H172.637V-194.937L165.982 -188.283L172.637 -181.629V-172.219H182.049L186.269 -168L182.049 -163.78H172.637V-154.371L165.982 -147.717L172.637 -141.063V-131.654H182.049L188.704 -125L195.359 -131.654H204.771V-141.063L208.991 -145.283L213.212 -141.063V-131.654H222.623L229.278 -125L235.933 -131.654H245.345V-141.063L252 -147.717L245.345 -154.371V-163.78H235.933L231.713 -168L235.933 -172.219H245.345V-181.629L252 -188.283L245.345 -194.937V-204.346ZM183.476 -175.662H176.082V-183.055L170.853 -188.283L176.082 -193.511V-200.905H183.476L188.705 -206.133L193.934 -200.905H201.328V-193.511L206.557 -188.283L201.328 -183.055V-175.662H193.934L188.705 -170.434L183.476 -175.662ZM201.329 -142.488V-135.095H193.934L188.706 -129.867L183.477 -135.095H176.083V-142.488L170.854 -147.716L176.083 -152.944V-160.338H183.477L188.706 -165.566L193.934 -160.338H201.329V-152.944L206.557 -147.716L201.329 -142.488ZM204.772 -154.37V-163.779H195.36L191.139 -167.999L195.36 -172.219H204.772V-181.629L208.992 -185.848L213.212 -181.629V-172.219H222.624L226.845 -167.999L222.624 -163.779H213.212V-154.37L208.992 -150.15L204.772 -154.37ZM234.508 -160.338H241.902V-152.944L247.131 -147.716L241.902 -142.488V-135.095H234.508L229.279 -129.867L224.05 -135.095H216.656V-142.488L211.427 -147.716L216.656 -152.944V-160.338H224.05L229.279 -165.566L234.508 -160.338ZM247.131 -188.282L241.902 -183.054V-175.661H234.508L229.279 -170.433L224.05 -175.661H216.656V-183.054L211.427 -188.282L216.656 -193.51V-200.904H224.05L229.279 -206.132L234.508 -200.904H241.902V-193.51L247.131 -188.282Z" fill="#E0ECEE"/>
<path d="M-11.6372 -118.346H-21.0491L-27.704 -125L-34.3589 -118.346H-43.7708V-108.937L-47.9912 -104.717L-52.2116 -108.937V-118.346H-61.6234L-68.2783 -125L-74.9333 -118.346H-84.3451V-108.937L-91 -102.283L-84.3451 -95.6294V-86.2193H-74.9333L-70.7128 -81.9996L-74.9333 -77.78H-84.3451V-68.3706L-91 -61.7169L-84.3451 -55.0631V-45.6537H-74.9333L-68.2783 -39L-61.6234 -45.6537H-52.2116V-55.0631L-47.9912 -59.2828L-43.7708 -55.0631V-45.6537H-34.3589L-27.704 -39L-21.0491 -45.6537H-11.6372V-55.0631L-4.98232 -61.7169L-11.6372 -68.3706V-77.78H-21.0491L-25.2695 -81.9996L-21.0491 -86.2193H-11.6372V-95.6294L-4.98232 -102.283L-11.6372 -108.937V-118.346ZM-73.5064 -89.6617H-80.9005V-97.0552L-86.1294 -102.283L-80.9005 -107.511V-114.905H-73.5064L-68.2775 -120.133L-63.0487 -114.905H-55.6546V-107.511L-50.4257 -102.283L-55.6546 -97.0552V-89.6617H-63.0487L-68.2775 -84.4337L-73.5064 -89.6617ZM-55.6538 -56.4881V-49.0946H-63.0479L-68.2768 -43.8666L-73.5056 -49.0946H-80.8997V-56.4881L-86.1286 -61.7161L-80.8997 -66.944V-74.3376H-73.5056L-68.2768 -79.5655L-63.0479 -74.3376H-55.6538V-66.944L-50.4249 -61.7161L-55.6538 -56.4881ZM-52.2108 -68.3698V-77.7792H-61.6226L-65.843 -81.9988L-61.6226 -86.2185H-52.2108V-95.6286L-47.9904 -99.8483L-43.77 -95.6286V-86.2185H-34.3582L-30.1377 -81.9988L-34.3582 -77.7792H-43.77V-68.3698L-47.9904 -64.1501L-52.2108 -68.3698ZM-22.4743 -74.3376H-15.0802V-66.944L-9.85136 -61.7161L-15.0802 -56.4881V-49.0946H-22.4743L-27.7032 -43.8666L-32.9321 -49.0946H-40.3262V-56.4881L-45.5551 -61.7161L-40.3262 -66.944V-74.3376H-32.9321L-27.7032 -79.5655L-22.4743 -74.3376ZM-9.85136 -102.282L-15.0802 -97.0544V-89.6609H-22.4743L-27.7032 -84.4329L-32.9321 -89.6609H-40.3262V-97.0544L-45.5551 -102.282L-40.3262 -107.51V-114.904H-32.9321L-27.7032 -120.132L-22.4743 -114.904H-15.0802V-107.51L-9.85136 -102.282Z" fill="#E0ECEE"/>
<path d="M73.3097 -118.346H63.8979L57.243 -125L50.588 -118.346H41.1762V-108.937L36.9558 -104.717L32.7354 -108.937V-118.346H23.3236L16.6686 -125L10.0137 -118.346H0.601891V-108.937L-6.05304 -102.283L0.601891 -95.6294V-86.2193H10.0137L14.2341 -81.9996L10.0137 -77.78H0.601891V-68.3706L-6.05304 -61.7169L0.601891 -55.0631V-45.6537H10.0137L16.6686 -39L23.3236 -45.6537H32.7354V-55.0631L36.9558 -59.2828L41.1762 -55.0631V-45.6537H50.588L57.243 -39L63.8979 -45.6537H73.3097V-55.0631L79.9646 -61.7169L73.3097 -68.3706V-77.78H63.8979L59.6775 -81.9996L63.8979 -86.2193H73.3097V-95.6294L79.9646 -102.283L73.3097 -108.937V-118.346ZM11.4406 -89.6617H4.04644V-97.0552L-1.18243 -102.283L4.04644 -107.511V-114.905H11.4406L16.6694 -120.133L21.8983 -114.905H29.2924V-107.511L34.5213 -102.283L29.2924 -97.0552V-89.6617H21.8983L16.6694 -84.4337L11.4406 -89.6617ZM29.2932 -56.4881V-49.0946H21.8991L16.6702 -43.8666L11.4413 -49.0946H4.04723V-56.4881L-1.18165 -61.7161L4.04723 -66.944V-74.3376H11.4413L16.6702 -79.5655L21.8991 -74.3376H29.2932V-66.944L34.5221 -61.7161L29.2932 -56.4881ZM32.7362 -68.3698V-77.7792H23.3244L19.1039 -81.9988L23.3244 -86.2185H32.7362V-95.6286L36.9566 -99.8483L41.177 -95.6286V-86.2185H50.5888L54.8092 -81.9988L50.5888 -77.7792H41.177V-68.3698L36.9566 -64.1501L32.7362 -68.3698ZM62.4726 -74.3376H69.8667V-66.944L75.0956 -61.7161L69.8667 -56.4881V-49.0946H62.4726L57.2437 -43.8666L52.0149 -49.0946H44.6208V-56.4881L39.3919 -61.7161L44.6208 -66.944V-74.3376H52.0149L57.2437 -79.5655L62.4726 -74.3376ZM75.0956 -102.282L69.8667 -97.0544V-89.6609H62.4726L57.2437 -84.4329L52.0149 -89.6609H44.6208V-97.0544L39.3919 -102.282L44.6208 -107.51V-114.904H52.0149L57.2437 -120.132L62.4726 -114.904H69.8667V-107.51L75.0956 -102.282Z" fill="#E0ECEE"/>
<path d="M159.327 -118.346H149.916L143.261 -125L136.606 -118.346H127.194V-108.937L122.973 -104.717L118.753 -108.937V-118.346H109.341L102.686 -125L96.0314 -118.346H86.6196V-108.937L79.9646 -102.283L86.6196 -95.6294V-86.2193H96.0314L100.252 -81.9996L96.0314 -77.78H86.6196V-68.3706L79.9646 -61.7169L86.6196 -55.0631V-45.6537H96.0314L102.686 -39L109.341 -45.6537H118.753V-55.0631L122.973 -59.2828L127.194 -55.0631V-45.6537H136.606L143.261 -39L149.916 -45.6537H159.327V-55.0631L165.982 -61.7169L159.327 -68.3706V-77.78H149.916L145.695 -81.9996L149.916 -86.2193H159.327V-95.6294L165.982 -102.283L159.327 -108.937V-118.346ZM97.4582 -89.6617H90.0641V-97.0552L84.8353 -102.283L90.0641 -107.511V-114.905H97.4582L102.687 -120.133L107.916 -114.905H115.31V-107.511L120.539 -102.283L115.31 -97.0552V-89.6617H107.916L102.687 -84.4337L97.4582 -89.6617ZM115.311 -56.4881V-49.0946H107.917L102.688 -43.8666L97.459 -49.0946H90.0649V-56.4881L84.836 -61.7161L90.0649 -66.944V-74.3376H97.459L102.688 -79.5655L107.917 -74.3376H115.311V-66.944L120.54 -61.7161L115.311 -56.4881ZM118.754 -68.3698V-77.7792H109.342L105.122 -81.9988L109.342 -86.2185H118.754V-95.6286L122.974 -99.8483L127.195 -95.6286V-86.2185H136.606L140.827 -81.9988L136.606 -77.7792H127.195V-68.3698L122.974 -64.1501L118.754 -68.3698ZM148.49 -74.3376H155.884V-66.944L161.113 -61.7161L155.884 -56.4881V-49.0946H148.49L143.261 -43.8666L138.033 -49.0946H130.638V-56.4881L125.41 -61.7161L130.638 -66.944V-74.3376H138.033L143.261 -79.5655L148.49 -74.3376ZM161.113 -102.282L155.884 -97.0544V-89.6609H148.49L143.261 -84.4329L138.033 -89.6609H130.638V-97.0544L125.41 -102.282L130.638 -107.51V-114.904H138.033L143.261 -120.132L148.49 -114.904H155.884V-107.51L161.113 -102.282Z" fill="#E0ECEE"/>
<path d="M245.345 -118.346H235.933L229.278 -125L222.623 -118.346H213.212V-108.937L208.991 -104.717L204.771 -108.937V-118.346H195.359L188.704 -125L182.049 -118.346H172.637V-108.937L165.982 -102.283L172.637 -95.6294V-86.2193H182.049L186.269 -81.9996L182.049 -77.78H172.637V-68.3706L165.982 -61.7169L172.637 -55.0631V-45.6537H182.049L188.704 -39L195.359 -45.6537H204.771V-55.0631L208.991 -59.2828L213.212 -55.0631V-45.6537H222.623L229.278 -39L235.933 -45.6537H245.345V-55.0631L252 -61.7169L245.345 -68.3706V-77.78H235.933L231.713 -81.9996L235.933 -86.2193H245.345V-95.6294L252 -102.283L245.345 -108.937V-118.346ZM183.476 -89.6617H176.082V-97.0552L170.853 -102.283L176.082 -107.511V-114.905H183.476L188.705 -120.133L193.934 -114.905H201.328V-107.511L206.557 -102.283L201.328 -97.0552V-89.6617H193.934L188.705 -84.4337L183.476 -89.6617ZM201.329 -56.4881V-49.0946H193.934L188.706 -43.8666L183.477 -49.0946H176.083V-56.4881L170.854 -61.7161L176.083 -66.944V-74.3376H183.477L188.706 -79.5655L193.934 -74.3376H201.329V-66.944L206.557 -61.7161L201.329 -56.4881ZM204.772 -68.3698V-77.7792H195.36L191.139 -81.9988L195.36 -86.2185H204.772V-95.6286L208.992 -99.8483L213.212 -95.6286V-86.2185H222.624L226.845 -81.9988L222.624 -77.7792H213.212V-68.3698L208.992 -64.1501L204.772 -68.3698ZM234.508 -74.3376H241.902V-66.944L247.131 -61.7161L241.902 -56.4881V-49.0946H234.508L229.279 -43.8666L224.05 -49.0946H216.656V-56.4881L211.427 -61.7161L216.656 -66.944V-74.3376H224.05L229.279 -79.5655L234.508 -74.3376ZM247.131 -102.282L241.902 -97.0544V-89.6609H234.508L229.279 -84.4329L224.05 -89.6609H216.656V-97.0544L211.427 -102.282L216.656 -107.51V-114.904H224.05L229.279 -120.132L234.508 -114.904H241.902V-107.51L247.131 -102.282Z" fill="#E0ECEE"/>
</g>
</g>
</svg>
