<?xml version="1.0" encoding="UTF-8"?><svg id="Layer_1" xmlns="http://www.w3.org/2000/svg" xmlns:xlink="http://www.w3.org/1999/xlink" viewBox="0 0 375 311"><defs><linearGradient id="linear-gradient" x1="259.39" y1="45.83" x2="259.39" y2="281.57" gradientTransform="translate(0 364.47) scale(1 -1)" gradientUnits="userSpaceOnUse"><stop offset="0" stop-color="#010101"/><stop offset=".29" stop-color="#2c4e55"/><stop offset=".53" stop-color="#4c8691"/><stop offset=".7" stop-color="#5ea7b7"/><stop offset=".79" stop-color="#66b6c7"/></linearGradient><clipPath id="clippath"><rect x="-49.61" y="98" width="528" height="213" style="fill:none;"/></clipPath><linearGradient id="linear-gradient-2" x1="291.93" y1="46.77" x2="345.37" y2="91.7" gradientUnits="userSpaceOnUse"><stop offset="0" stop-color="#010101"/><stop offset=".01" stop-color="#040404"/><stop offset=".51" stop-color="#898989"/><stop offset=".85" stop-color="#ddd"/><stop offset="1" stop-color="#fff"/></linearGradient></defs><path d="M28.71,89l4.55,4.48-4.55,4.48-4.55-4.48,4.55-4.48Z" style="fill:#447ea6;"/><g><path d="M381.83,211.07v-.27c0-1.47-1.19-2.71-2.77-3.03-.08-3.5-2.4-7.38-5.86-5.86,.47-2.81-3.59-3.05-5.64-2.56-.6-.99-1.41-2.52-2.57-3.03-1.86-.81-1.58,.27-3,.49-1.78,.27-3.62-.81-4.85,1.16-2.99-2.22-8.1-.47-10.27-2.41-.89-.79-.72-2.24-1.64-2.86-.92-.62-3.15-.64-4.31-.79,1.12-2.93,.59-5.91-3.44-6.5,0-3.37-1.98-5.69-5.62-6.8-1.59-.49-5-.56-6.46,.29-.45-3.65-5.29-2.17-6.8-4.21-.45-.61,.52-1.6,.14-2.31-1.02-1.87-6.33-4.4-8.56-4.38-2.03,.02-1.73,.91-2.94,1.4-1.06,.42-2.26,.12-3.52,.42-2.25,.54-2.79,2.68-4.5,3.47-1.21,.55-3.07,.22-4.38,.2-1.73,0-3.09-.29-4.71-.49-2.2-.27-1.53-.13-3.07,.74-1.34,.76,.35,.99-1.95,1.48-3.61,.77-3.1-.49-5.15,2.31-.6,.82-2.62,3.62-4.2,3.67-1.48,.05-2.13-1.95-3.79-1.95-1.48,0-3.86,2.31-4.61,3.45-2.52-.98-8.98-1.15-11.21,.2-3.83,.12-8.64,2.11-8.22,6.4-2.6,.42-5.33-1.92-7.92-.15-1.34,.93-1.71,2.66-1.78,4.31-2.73-.67-7.77,.25-10.23,1.73,1.88-4.98-5.13-4.87-8.64-4.48-1.84,.2-8.27,3.74-8.4,5.96-5.65,.71-2.99,6.53-1.53,9.45-2.67,.71-4.6,3.32-6.46,5.25-2.28-.79-5.07-1.03-6.98-.66-.76,.13-1.06,1.23-1.79,1.25-.79,0-2.48-1.26-3.39-1.48-4.33-1.04-5.1,1.26-8.42,2.39-2.26,.77-3.94-1.26-6.24-.98-2.2,.27-2.65,2.26-4.5,3.2-1.71,.86-4.18,.67-6.04,1.3-2.65,.88-2.77,2.19-4.65,3.52-2.03,1.41-3.98,.05-6.09,.74-.64,.2-.74,1.01-1.31,1.26-1.21,.52-2.57,.66-3.86,.98-3.52,.89-5.59,2.02-4.13,5.69,.5,1.25,1.07,2.12,1.69,2.75-.94,.64-1.73,1.43-2.28,2.36-.24-.07-.5-.1-.76-.1-1.34,0-2.42,.94-2.42,2.09,0,.18,.03,.39,.08,.55-.91,.56-1.51,1.48-1.51,2.51,0,.35,.07,.71,.2,1.03-.91,.64-1.56,1.55-1.81,2.58-.3-.12-.64-.18-.99-.18-1.34,0-2.42,.94-2.42,2.09s1.09,2.1,2.42,2.1c.67,0,1.27-.24,1.71-.62,.94,1.25,2.55,2.07,4.4,2.07,1.41,0,2.7-.49,3.64-1.28,.87,1.48,2.63,2.49,4.67,2.49h231.17v-37.02c-.44-.39-.96-.71-1.53-.93l-.03,.02Z" style="fill:url(#linear-gradient); fill-rule:evenodd;"/><path d="M169.39,88.29c.46-.3,.83,.1,.83,.1l.93,.7,.54-.22s-.72-1.04-1.21-1.18c-.49-.13-.31-.91-2.13-1.22-1.36-.22-1.68-.4-1.77-.48l.69,1s-1.75,2.25-1.78,2.53c0,0,3.45-.92,3.91-1.24Zm-21.24,1.07c-.51,0-1.89-.54-2.61-.19l1.16,.88s-1.12,3.34-.83,3.74c.28,.4,2.12-1.25,2.12-1.25l-.34-.63,.75,.16,.73-1.07,.76,.03,.86,.55,.55-.36-.94-.63s-1.71-1.24-2.22-1.24h.01Zm43.52,20.41c-.3-.33-3.13,1.12-3.21,2.41l-1.71,.13,.69,.6s1.71,1.18,2.48,1.27c.76,.09,1.22,.37,1.22,.37l.55,.3,.12-.92-1.55-.57s1.7-3.26,1.4-3.59h.01Zm35.58-14.14c.96,.09,1.16,.21,1.18,.27l.19-.48-1.64-.66s-.04-.77,.18-.8,1.06-1.77,1.43-1.79c.37,0-2.82-.74-3.83,1.22l-.31,.15-1.49-.07s.48,.31,.69,.54c.19,.22,2.12,1.49,3.61,1.62Zm-21.73,16.76c.33,.36,2.36,.31,2.36,.31l.64,.21,.04-.31-.64-.21s-.63-.34-.67-.54c-.05-.19,.45-1.67,.45-1.67l.82-1.1-.03-.39c-1.18-.09-3.62,2.01-3.62,2.01l-1.33-.18c.36,1.33,1.67,1.49,2,1.86h-.01Zm-57.09-9.01c1.46-2.04,.36-3.84,.36-3.84,0,0-.73,1.06-1.04,1.07-.3,.03-1.66,1.82-1.66,1.82l-1.7-.16c.21,.67,2.73,2.01,2.73,2.01,0,0,1.33,.18,1.69,.22,.37,.04,.88,.75,.88,.75l.34-.27,.22-.55-1.85-.75,.05-.31h-.01Zm30.33,8.77l.81,.4,.25-.62-1.15-.37-.78-.61c.54-.22,.97-2.19,.97-2.19l-.92-.12s1.13-.21,1.18-.51c.03-.28-.52-1.88-.52-1.88,0,0-.6,1.3-.93,1.25-.33-.04-1.7,2.61-1.7,2.61l-1.52-.12c.7,1.76,4.31,2.16,4.31,2.16Zm46.2,19.23l1.03,.42v-.36s-1.03-.46-1.25-.52c-.22-.07-.21-.55-.21-.55l.76-.75-.22-.15s1.1-1.22,1.12-1.38c.01-.16-.63-.28-.91-.19-.3,.09-2.71,.66-2.7,1.54l-1.74-.03s.84,1.52,4.12,1.98h.01Zm-51.2-27.77c.28,.4,1.7-1.24,1.7-1.24l.51-.66,.88-.83,1.79,.67,.13-.34s-3.07-2.58-5.68-2.12l1.09,.79s-.69,3.32-.4,3.72h-.01Zm19.4-5.51s.82,1.19,3.73,1.83l.87,.3,.1,.33,.21-.48-1.58-1.1,.27-.34s1.03-2.16-.21-2.96c0,0-1.97,1.85-1.88,2.31,0,0-1.73-.48-2-.19l.04,.19,.43,.12h.01Zm27.92,18.87c-.45-.54-1.42,1.1-1.76,1.18-.34,.07-1.03,1.38-1.01,1.67l-.15,.1s-1.45-.51-1.57-.33c-.12,.19,.42,.46,.42,.46,0,0,1.37,1.39,1.92,1.49,.55,.12,2.18,.28,2.18,.28l.79,.39,.3-.12s-1.42-1.03-1.61-1.06c-.18-.03,.94-3.53,.49-4.07Zm5.95-7.63l-.21,.09s1.1,.95,1.25,1.25c.15,.3,.4,2.62,1.12,2.92,.72,.3,1.27-1.76,1.27-1.76l.1-.1,.46,.1,.77,.51,.73-.22s-3.52-2.9-5.52-2.77h.01Zm23,10.34l.57,.39s.86,.27,.55-.28c-.3-.57-3.34-2.16-3.68-2.41s-1.57-.28-1.57-.28l.77,.94c.18,.06-.01,.48-.01,.48-.69,.24-1.34,3.4-1.34,3.4,.6,.07,.94-.71,2.09-.85,1.15-.14,2.22-1.47,2.22-1.47l.42,.09h-.01Zm33.42,4.68s1.42,.27,2.19,.13c.77-.13,1.16,.07,1.16,.07l.88,.52,.48-.77-1.4-.39-.36-.49s.58-2.29-.94-2.93c0,0-1.34,2-1.36,2.12-.02,.12-1.54-.16-1.54-.16l.09,.37,.98,.81-.19,.73Zm-29.14-22.82c-.98-.09-2.22-.28-2.22-.28l-.06,.1,1.21,.8s.22,1.88,.39,2.1c.16,.22,.58,1.28,.58,1.28,0,0,1.72-1.94,1.67-2.26-.06-.33,1.98,.25,1.98,.25,0,0-2.58-1.91-3.55-1.98h0Zm-24.79,2.31l-.55-.39-1.01-.77s1.24-2.07,.3-3.47l-.82,.6s-1.54,1.4-1.45,1.85c.09,.46-1.87-.04-1.87-.04l-.03,.19s.88,.68,.86,.88c-.03,.19-.06,.51-.06,.51,0,0,2.42,.37,2.64,.4,.22,.03,1.34,.55,1.34,.55l.64-.3Zm7.59,27.53c1.77-.98,.81-3.86,.81-3.86-.33-.3-2.86,3.01-2.86,3.01l-1.62-.21c.95,1.91,4.49,2.25,4.49,2.25l.7,.42h.37l.09-.64-1.07-.33-.9-.63h0Zm-33.23-27.19l.39-.72-.58-.13-.57-.27s-2.24-1.76-4.28-1.64l.89,1.13s.13,2.95,.78,3.23c.64,.27,1.79-2.25,1.79-2.25l1.16,.21,.39,.43h.03Zm68.74,12.33s-.91-.51-1.34-.57c-.45-.06-2.07-.15-2.48,0l1.07,.97s-1.79,2.19-1.58,3.5c0,0,3.18-.81,3.61-2.46l.69-.11,.98,.51,.72,.22,.06-.43-1.46-.89-.28-.75h.02Zm26.86,.94c.05-.31,.84-1.24,.57-2.03-.27-.8-.57-.83-.57-.83l-.37-.63s-.83,.72-.86,.91-.75,1.12-.73,1.56c.02,.45-1.71-.09-1.71-.09l.85,.94s-.73,1.62-.61,1.83c0,0,2.24,.03,3.31-.66l1.28,.49,.63,.34,.12-.94s-1.95-.58-1.91-.89v-.02Zm-97.27,.79l1.21,1.06s1.31,3.17,1.58,3.34c.28,.16,1.27-2.19,1.27-2.19l.99-.06,.83,.49-.03-.39s-3.43-2.99-5.85-2.23h0Z" style="fill:#284963; fill-rule:evenodd;"/><rect x="-5.91" width="387.62" height="276" style="fill:#205275;"/><g style="clip-path:url(#clippath);"><path d="M467.38,231.52c-.62-7.78-5.06-16.91-19.55-23.81v-32.91h-1.31v-3.2c-.48-1.78,.48-1.66,1.31-3.7v-.93h.36c.44,0,.8-.35,.8-.79s-.35-.79-.8-.79h.05s.88-5.42-4.05-5.89l-.05-1.15c.39-.23,.65-.65,.65-1.13,0-.52-.31-.97-.75-1.18l-.09-2.11c.27-.16,.45-.45,.45-.78,0-.36-.21-.66-.51-.82l-.4-9.56-.4,9.56c-.3,.15-.51,.46-.51,.82,0,.33,.18,.62,.45,.78l-.09,2.11c-.44,.21-.75,.65-.75,1.18,0,.48,.26,.9,.65,1.13l-.05,1.15c-4.93,.47-4.05,5.89-4.05,5.89h.05c-.44,0-.8,.35-.8,.79s.35,.79,.8,.79h.36v.93c.84,2.04,1.79,1.92,1.32,3.7v3.2h-1.32v29.47c-1.82-.59-3.74-1.17-5.79-1.71,.01-2.23-1.37-5.18-8-6.62l-.05-1.18c.45-.26,.75-.74,.75-1.3,0-.6-.35-1.12-.87-1.36l-.1-2.43c.31-.18,.51-.52,.51-.9,0-.42-.24-.77-.59-.94l-.44-10.29c.07,0,.14,0,.22,0,1.45,0,2.79-.72,3.57-1.93l.19-.29-.27,.22c-.74,.62-1.69,.96-2.66,.96-2.29,0-4.17-1.86-4.17-4.16,0-.81,.23-1.59,.67-2.27l.19-.29-.27,.22c-.98,.81-1.54,2.01-1.54,3.28,0,1.14,.45,2.21,1.25,3.01,.74,.74,1.7,1.17,2.74,1.23l-.44,10.3c-.35,.17-.59,.53-.59,.94,0,.38,.21,.72,.51,.9l-.1,2.43c-.51,.24-.87,.76-.87,1.36,0,.56,.3,1.04,.75,1.3l-.05,1.18c-6.64,1.44-8.02,4.39-8,6.62-4.5,1.18-8.43,2.51-11.87,3.97-.55-.88-1.23-1.76-2.04-2.62v-23.95h1.07l3.31-2.35h-4.38v-29.56h1.07l3.31-2.35h-4.38v-29.56h1.07l3.31-2.34h-4.38v-4.34h.72c.52,0,.93-.42,.93-.93s-.42-.93-.93-.93h.05s1.04-6.37-4.77-6.93l-.06-1.35c.46-.27,.77-.76,.77-1.33,0-.61-.36-1.14-.88-1.39l-.1-2.48c.31-.19,.52-.53,.52-.92,0-.42-.25-.78-.6-.96l-.48-11.25-.48,11.25c-.35,.17-.6,.54-.6,.96,0,.39,.21,.73,.52,.92l-.11,2.48c-.52,.25-.88,.77-.88,1.39,0,.57,.31,1.06,.77,1.33l-.06,1.35c-5.8,.56-4.77,6.93-4.77,6.93h.05c-.52,0-.93,.42-.93,.93s.42,.93,.93,.93h.72v4.34h-4.38l3.31,2.34h1.07v29.56h-4.38l3.31,2.35h1.07v29.56h-4.38l3.31,2.35h1.07v17.62c-3.41-1.45-7.59-2.72-12.73-3.71v-.38c.27-.17,.46-.47,.46-.82,0-.38-.23-.71-.55-.87l-.07-1.54c.19-.12,.32-.33,.32-.57,0-.26-.15-.49-.38-.6l-.28-6.53s.09,0,.14,0c.92,0,1.77-.46,2.27-1.23l.12-.19-.17,.14c-.47,.39-1.07,.61-1.69,.61-1.46,0-2.64-1.18-2.64-2.64,0-.51,.15-1.01,.43-1.44l.12-.18-.17,.14c-.62,.52-.98,1.27-.98,2.08,0,.72,.28,1.4,.8,1.91,.47,.47,1.08,.74,1.74,.78l-.28,6.53c-.22,.11-.38,.33-.38,.6,0,.24,.13,.46,.32,.57l-.07,1.54c-.32,.15-.55,.48-.55,.87,0,.35,.2,.66,.48,.82v.38c-6.28,1.21-11.14,2.84-14.89,4.7-5.43-4.75-14.33-9.01-28.62-11.68-5.71,1.07-10.55,2.39-14.66,3.9-2.18-2.61-5.12-5.16-8.99-7.52v-10.02h.76l2.35-1.67h-3.11v-21.01h.76l2.35-1.67h-3.11v-21.02h.76l2.35-1.67h-3.11v-3.08h.51c.36,0,.66-.3,.66-.66s-.3-.66-.66-.66h.04s.73-4.53-3.39-4.93l-.04-.96c.32-.19,.55-.54,.55-.94,0-.43-.26-.81-.63-.99l-.08-1.77c.22-.13,.37-.37,.37-.65,0-.3-.18-.56-.43-.68l-.34-8-.34,8c-.25,.12-.43,.38-.43,.68,0,.28,.15,.52,.37,.65l-.08,1.77c-.37,.17-.63,.55-.63,.99,0,.4,.22,.75,.55,.94l-.04,.96c-4.13,.4-3.39,4.93-3.39,4.93h.04c-.37,0-.66,.3-.66,.66s.3,.66,.66,.66h.51v3.08h-3.11l2.35,1.67h.76v21.02h-3.11l2.35,1.67h.76v21.01h-3.11l2.35,1.67h.76v6.49c-3.58-1.56-7.72-2.99-12.51-4.24,.02-2.23-1.36-5.18-8-6.62l-.05-1.18c.45-.26,.75-.74,.75-1.3,0-.6-.35-1.12-.87-1.36l-.1-2.43c.31-.18,.51-.52,.51-.9,0-.41-.24-.77-.59-.94l-.44-10.29c.07,0,.14,0,.22,0,1.45,0,2.79-.72,3.57-1.93l.19-.29-.27,.22c-.74,.62-1.69,.96-2.66,.96-2.29,0-4.17-1.86-4.17-4.16,0-.81,.23-1.59,.67-2.27l.19-.29-.27,.22c-.98,.81-1.54,2.01-1.54,3.28,0,1.14,.45,2.21,1.25,3.01,.74,.74,1.7,1.17,2.74,1.23l-.44,10.3c-.35,.17-.59,.53-.59,.94,0,.38,.21,.72,.51,.9l-.1,2.43c-.51,.24-.87,.76-.87,1.36,0,.56,.3,1.04,.75,1.3l-.05,1.18c-6.64,1.44-8.02,4.39-8,6.62-4.19,1.1-7.88,2.33-11.14,3.67v-35.93h-1.58v-3.83c-.57-2.13,.58-1.99,1.58-4.44v-1.12h.44c.53,0,.95-.43,.95-.95s-.43-.95-.95-.95h.06s1.06-6.5-4.87-7.07l-.06-1.38c.47-.27,.78-.77,.78-1.35,0-.62-.37-1.16-.9-1.42l-.11-2.53c.32-.19,.53-.54,.53-.94,0-.43-.25-.8-.62-.98l-.49-11.48-.49,11.48c-.36,.18-.62,.55-.62,.98,0,.4,.22,.74,.53,.94l-.11,2.53c-.53,.25-.9,.79-.9,1.42,0,.58,.32,1.08,.79,1.35l-.06,1.38c-5.92,.57-4.87,7.07-4.87,7.07h.06c-.53,0-.95,.43-.95,.95s.43,.95,.95,.95h.44v1.12c1.01,2.45,2.15,2.31,1.59,4.44v3.83h-1.59v41.48c-2.72,1.89-4.9,3.88-6.63,5.91-2.11-6.46-8.55-13.35-24.7-17.57,0-1.67-1.02-3.88-5.99-4.96l-.04-.88c.34-.19,.56-.56,.56-.97,0-.45-.27-.84-.65-1.02l-.08-1.82c.23-.14,.38-.39,.38-.68,0-.31-.18-.58-.44-.71l-.33-7.71c.06,0,.11,0,.16,0,1.09,0,2.09-.54,2.68-1.45l.14-.22-.2,.17c-.56,.47-1.27,.72-2,.72-1.72,0-3.12-1.4-3.12-3.11,0-.6,.17-1.19,.5-1.7l.14-.22-.2,.17c-.73,.61-1.15,1.5-1.15,2.45,0,.85,.33,1.65,.94,2.26,.55,.55,1.28,.88,2.05,.93l-.33,7.71c-.26,.13-.44,.39-.44,.71,0,.29,.15,.54,.38,.68l-.08,1.82c-.38,.18-.65,.57-.65,1.02,0,.41,.23,.78,.56,.97l-.04,.88c-4.97,1.08-6.01,3.29-6,4.96-19.69,5.15-24.95,14.27-25.52,21.73-9.39,2.32-15.06,5.67-18.38,9.27-2.57-.88-5.4-1.7-8.54-2.43v-.76h1.07l3.31-2.35h-4.38v-29.56h1.07l3.31-2.34h-4.38v-29.56h1.07l3.31-2.34h-4.38v-4.34h.72c.52,0,.93-.42,.93-.93s-.42-.93-.93-.93h.05s1.04-6.37-4.77-6.93l-.06-1.35c.46-.27,.77-.76,.77-1.33,0-.61-.36-1.14-.88-1.39l-.1-2.48c.31-.19,.52-.53,.52-.92,0-.42-.25-.78-.6-.96l-.48-11.25-.48,11.25c-.35,.17-.6,.54-.6,.96,0,.39,.21,.73,.52,.92l-.1,2.48c-.52,.25-.88,.77-.88,1.39,0,.57,.31,1.06,.77,1.33l-.06,1.35c-5.81,.56-4.77,6.93-4.77,6.93h.05c-.52,0-.93,.42-.93,.93s.42,.93,.93,.93h.72v4.34h-4.38l3.31,2.34h1.07v29.56h-4.38l3.31,2.34h1.07v29.56h-4.38l3.31,2.35h1.07v.76c-7.58,1.77-13.43,4.02-17.9,6.55,.52-7.79-2.21-17.81-15.9-25.62v-26.48h-1.31v-3.19c-.48-1.78,.48-1.66,1.31-3.7v-.93h.36c.44,0,.79-.35,.79-.79s-.35-.79-.79-.79h.05s.88-5.42-4.05-5.89l-.05-1.15c.39-.22,.65-.64,.65-1.13,0-.52-.31-.97-.75-1.18l-.09-2.11c.27-.16,.45-.45,.45-.78,0-.36-.21-.67-.51-.82l-.4-9.56-.4,9.56c-.3,.15-.51,.46-.51,.82,0,.33,.18,.62,.45,.78l-.09,2.11c-.44,.21-.75,.66-.75,1.18,0,.48,.27,.9,.65,1.13l-.05,1.15c-4.93,.47-4.05,5.89-4.05,5.89h.05c-.44,0-.79,.35-.79,.79s.35,.79,.79,.79h.36v.93c.84,2.04,1.79,1.92,1.32,3.7v3.19h-1.32v22.43c-2.84-1.08-5.97-2.09-9.45-3,.02-2.23-1.36-5.18-8-6.62l-.05-1.18c.45-.26,.75-.74,.75-1.3,0-.61-.35-1.12-.87-1.36l-.1-2.43c.31-.18,.51-.52,.51-.9,0-.41-.24-.77-.59-.94l-.44-10.29c.07,0,.14,0,.22,0,1.45,0,2.78-.72,3.57-1.93l.19-.29-.27,.22c-.74,.62-1.69,.96-2.66,.96-2.3,0-4.16-1.86-4.16-4.16,0-.81,.23-1.59,.67-2.27l.19-.29-.27,.22c-.98,.81-1.54,2.01-1.54,3.28,0,1.14,.45,2.21,1.25,3.01,.74,.74,1.7,1.17,2.74,1.23l-.44,10.29c-.35,.17-.59,.53-.59,.94,0,.38,.21,.72,.51,.9l-.1,2.43c-.51,.24-.87,.76-.87,1.36,0,.56,.3,1.04,.75,1.3l-.05,1.18c-6.64,1.44-8.02,4.39-8,6.62-5.75,1.51-10.58,3.27-14.62,5.21v-5.25h.76l2.35-1.67h-3.11v-21.02h.76l2.35-1.67h-3.11v-3.08h.51c.37,0,.66-.3,.66-.66s-.3-.66-.66-.66h.04s.73-4.53-3.39-4.92l-.04-.96c.32-.19,.55-.54,.55-.94,0-.43-.26-.81-.63-.99l-.08-1.77c.22-.13,.37-.37,.37-.65,0-.3-.17-.56-.43-.68l-.34-8-.34,8c-.25,.12-.43,.38-.43,.68,0,.28,.15,.52,.37,.65l-.08,1.77c-.37,.17-.63,.55-.63,.99,0,.4,.22,.75,.55,.94l-.04,.96c-4.13,.39-3.39,4.92-3.39,4.92h.04c-.36,0-.66,.3-.66,.66s.3,.66,.66,.66h.51v3.08h-3.11l2.35,1.67h.76v21.02h-3.11l2.35,1.67h.76v9.18c-14.45,9.96-13.58,22.63-11.42,29.94-8.35,5.21-11.37,11.43-12.01,16.95h-.14v27.48H478.39v-27.48h-11.02ZM107.89,149.17c1.18,2.04,2.54,1.92,1.88,3.7v3.19h-3.74l-.02-3.19c-.67-1.78,.69-1.66,1.88-3.7Zm150.01-14.22c1.43,2.45,3.06,2.31,2.25,4.44l-.02,3.83h-4.47v-3.83c-.81-2.14,.81-1.99,2.24-4.44h0Zm187.45,36.65v3.2h-3.74l-.02-3.2c-.67-1.78,.69-1.66,1.88-3.7,1.18,2.04,2.54,1.92,1.88,3.7Z" style="fill:#0c395b;"/></g><path d="M196.16,71l2.77,2.73-2.77,2.73-2.77-2.73,2.77-2.73Z" style="fill:#4c83a7;"/><path d="M257.16,84l2.77,2.73-2.77,2.73-2.77-2.73,2.77-2.73Z" style="fill:#4c83a7;"/><path d="M72.08,142.68l2.77,2.73-2.77,2.73-2.77-2.73,2.77-2.73Z" style="fill:#4c83a7;"/><g><circle cx="324.63" cy="74.27" r="20.47" style="fill:url(#linear-gradient-2);"/><ellipse cx="319.16" cy="71.16" rx="17.77" ry="18.44" style="fill:#205275;"/></g><path d="M315.16,57l2.77,2.73-2.77,2.73-2.77-2.73,2.77-2.73Z" style="fill:#4c83a7;"/></g><rect x="-.21" width="375.32" height="276" style="fill:none;"/></svg>