<svg width="375" height="311" viewBox="0 0 375 311" fill="none" xmlns="http://www.w3.org/2000/svg">
<rect width="375" height="300" fill="url(#paint0_linear_1_1326)"/>
<path style="mix-blend-mode:screen" fill-rule="evenodd" clip-rule="evenodd" d="M152.463 194.709C152.463 194.608 152.463 194.491 152.463 194.374C152.463 192.497 151.276 190.939 149.706 190.52C149.622 186.08 147.316 181.137 143.874 183.08C144.342 179.494 140.298 179.193 138.26 179.83C137.658 178.556 136.856 176.612 135.703 175.976C133.848 174.937 134.132 176.327 132.712 176.596C130.941 176.931 129.103 175.573 127.883 178.087C124.909 175.255 119.812 177.484 117.657 175.021C116.771 174.015 116.938 172.172 116.019 171.384C115.1 170.597 112.878 170.563 111.725 170.379C112.844 166.659 112.31 162.872 108.299 162.135C108.299 157.862 106.328 154.896 102.702 153.489C101.114 152.869 97.7224 152.785 96.2686 153.858C95.8175 149.199 91.0051 151.11 89.5013 148.496C89.0501 147.725 90.0193 146.468 89.635 145.563C88.6157 143.184 83.3355 139.967 81.1131 140C79.0912 140.017 79.392 141.156 78.1889 141.776C77.1362 142.313 75.9332 141.927 74.68 142.296C72.4409 142.983 71.9062 145.697 70.2018 146.719C68.9987 147.44 67.144 146.988 65.8406 146.988C64.1195 146.988 62.7661 146.619 61.1452 146.368C58.9563 146.016 59.6247 146.2 58.0874 147.306C56.7506 148.278 58.4383 148.563 56.1491 149.199C52.5565 150.188 53.0578 148.579 51.0193 152.132C50.4177 153.187 48.4126 156.723 46.8419 156.79C45.3715 156.857 44.7198 154.31 43.0488 154.31C41.5784 154.31 39.2056 157.242 38.4537 158.7C35.9473 157.46 29.4974 157.242 27.2918 158.968C23.482 159.119 18.6864 161.632 19.1041 167.095C16.5141 167.631 13.7905 164.648 11.2172 166.911C9.88046 168.083 9.51285 170.295 9.44601 172.373C6.72236 171.518 1.70952 172.691 -0.74678 174.568C1.12469 168.234 -5.8599 168.368 -9.35219 168.871C-11.1902 169.139 -17.59 173.613 -17.7236 176.445C-23.3548 177.333 -20.6979 184.739 -19.2442 188.459C-21.901 189.364 -23.8226 192.681 -25.6774 195.128C-27.9499 194.123 -30.7237 193.838 -32.6285 194.29C-33.3805 194.474 -33.6812 195.865 -34.4165 195.865C-35.2018 195.865 -36.8895 194.257 -37.7918 193.988C-42.1028 192.665 -42.8715 195.597 -46.18 197.038C-48.4357 198.027 -50.1067 195.446 -52.3959 195.798C-54.5848 196.15 -55.036 198.663 -56.874 199.853C-58.5784 200.959 -61.0347 200.708 -62.8895 201.512C-65.5296 202.635 -65.6465 204.293 -67.518 205.986C-69.5398 207.795 -71.4781 206.053 -73.5835 206.924C-74.2185 207.192 -74.3188 208.214 -74.8869 208.533C-76.09 209.186 -77.4434 209.354 -78.7301 209.773C-82.2391 210.895 -84.2943 212.353 -82.8406 217.011C-82.3393 218.586 -81.7712 219.709 -81.153 220.513C-82.0887 221.318 -82.874 222.34 -83.4254 223.513C-83.6594 223.429 -83.9267 223.379 -84.1774 223.379C-85.5141 223.379 -86.5836 224.568 -86.5836 226.043C-86.5836 226.294 -86.5501 226.529 -86.5 226.747C-87.4023 227.45 -88.0039 228.623 -88.0039 229.947C-88.0039 230.399 -87.937 230.852 -87.8033 231.254C-88.7057 232.075 -89.3573 233.214 -89.608 234.521C-89.9087 234.371 -90.2429 234.287 -90.5938 234.287C-91.9306 234.287 -93 235.477 -93 236.951C-93 238.426 -91.9139 239.615 -90.5938 239.615C-89.9254 239.615 -89.3239 239.314 -88.8895 238.828C-87.9537 240.42 -86.3496 241.458 -84.5116 241.458C-83.108 241.458 -81.8213 240.838 -80.8856 239.833C-80.0167 241.71 -78.2622 243 -76.2404 243H154V195.949C153.566 195.463 153.048 195.061 152.479 194.776L152.463 194.709Z" fill="url(#paint1_linear_1_1326)"/>
<path style="mix-blend-mode:screen" fill-rule="evenodd" clip-rule="evenodd" d="M382.715 126.91C382.514 126.676 382.296 126.441 382.079 126.224C382.146 126.123 382.229 126.023 382.28 125.906C382.866 124.617 382.615 122.743 381.409 122.023C381.291 121.956 381.174 121.872 381.04 121.805C381.074 120.851 380.755 119.864 380.068 119.312C379.968 118.81 379.767 118.341 379.432 117.956C379.348 117.856 379.264 117.772 379.181 117.672C378.578 116.985 377.656 116.718 376.852 116.935C376.584 116.651 376.283 116.45 375.897 116.383C375.797 116.366 375.696 116.333 375.596 116.316C375.596 116.316 375.579 116.316 375.562 116.299C375.546 116.266 375.512 116.249 375.512 116.232C375.395 116.098 375.277 115.981 375.143 115.881C375.009 115.68 374.842 115.496 374.658 115.345C374.557 114.927 374.373 114.525 374.038 114.224C373.787 113.99 373.552 113.772 373.301 113.538C372.916 112.885 372.346 112.433 371.626 112.316L371.24 111.663C371.19 111.58 371.123 111.496 371.073 111.429C371.492 110.843 371.776 110.14 371.743 109.32C371.709 108.232 371.274 107.278 370.52 106.659C370.57 105.889 370.369 105.119 369.833 104.601L369.314 104.115C369.197 103.898 369.096 103.68 368.962 103.479C369.046 103.212 369.096 102.927 369.096 102.609V101.756C369.096 100.5 368.275 99.2953 367.237 98.994C367.454 98.2577 367.421 97.4041 367.069 96.6175C366.985 96.4334 366.902 96.2326 366.818 96.0485C366.483 95.2787 365.763 94.7933 365.009 94.6761C365.193 93.5214 364.841 92.2327 363.937 91.6135C364.087 91.2453 364.188 90.8268 364.188 90.3917V90.1072C364.188 88.6176 363.066 87.1951 361.742 87.2621C360.804 87.3123 359.967 87.9148 359.565 88.8353C359.397 88.7683 359.246 88.7014 359.062 88.6679C358.09 87.6302 356.566 87.5466 355.594 88.6679C355.511 88.7683 355.427 88.852 355.343 88.9524C355.226 89.0863 355.125 89.2536 355.025 89.421C354.958 89.4544 354.874 89.4712 354.79 89.5047C354.707 89.0026 354.489 88.5172 354.154 88.1156C354.07 88.0151 353.986 87.9315 353.902 87.8311C353.45 87.3123 352.83 87.0278 352.194 87.011C351.926 86.2412 351.39 85.5884 350.619 85.3709C350.301 85.2704 349.966 85.1867 349.631 85.0863C348.391 84.7181 346.917 85.5549 346.616 87.0779C346.465 87.8813 346.599 88.7348 346.967 89.4043C346.063 89.3206 345.158 89.3373 344.254 89.4712C343.935 89.0194 343.466 88.6344 342.997 88.5005C341.875 88.1993 340.334 88.8687 340.032 90.3247C339.731 90.5423 339.463 90.8268 339.262 91.2285C339.144 91.4628 339.061 91.7641 338.994 92.0653C338.776 92.2996 338.558 92.5507 338.374 92.8185C338.34 92.8185 338.307 92.8184 338.273 92.8352C337.251 93.2201 336.431 94.2243 336.33 95.4962C336.263 95.5799 336.179 95.6636 336.112 95.764C335.224 96.2661 333.734 97.3539 333.348 97.7723C332.913 98.241 332.611 98.7765 332.41 99.3455C332.377 99.3455 332.326 99.3623 332.293 99.379C331.589 98.6426 330.836 97.9899 329.981 97.4376C329.83 95.9816 328.775 94.8268 327.502 94.4586C326.128 94.0736 324.487 94.6594 323.096 94.877C322.158 95.0276 321.471 96.1489 321.321 97.2535C321.036 97.3037 320.768 97.4042 320.533 97.5715C319.428 98.3916 319.093 99.8309 319.562 101.187C319.562 101.187 319.562 101.203 319.562 101.237C319.562 101.237 319.562 101.27 319.562 101.287C319.562 101.354 319.562 101.371 319.562 101.32C319.528 101.622 319.528 101.94 319.562 102.224C319.16 102.542 318.758 102.86 318.456 103.145H318.289C317.937 103.145 317.602 103.245 317.283 103.412C317.149 103.429 317.032 103.463 316.898 103.53C316.496 103.714 316.077 103.914 315.675 104.099C315.055 104.383 314.553 104.718 314.218 105.404C314.034 105.755 313.933 106.207 313.9 106.659C313.112 106.458 312.275 106.659 311.655 107.379L310.918 108.232C310.164 109.119 309.996 110.609 310.533 111.68C309.879 111.998 309.36 112.617 309.109 113.488C309.025 113.772 308.941 114.057 308.857 114.341C308.757 114.693 308.74 115.044 308.774 115.412C308.087 115.847 307.685 116.651 307.601 117.521C307.299 117.638 307.015 117.772 306.747 117.923C305.959 117.052 304.854 116.902 303.815 117.488C303.48 117.672 303.162 117.856 302.827 118.04C301.688 118.692 301.269 120.667 301.939 121.906C301.788 122.006 301.621 122.09 301.47 122.207C301.135 122.006 300.766 121.889 300.381 121.906C299.644 121.939 298.974 122.341 298.522 122.943C297.584 122.257 296.243 122.324 295.456 123.312C295.406 123.379 295.356 123.462 295.322 123.529C294.954 123.245 294.501 123.061 294.015 123.061H293.278C292.022 123.061 290.816 124.316 290.833 125.822C290.431 125.973 290.062 126.224 289.777 126.609C288.839 127.027 288.085 127.964 288.136 129.236C288.136 129.437 288.169 129.655 288.219 129.855C287.817 130.525 287.466 131.245 287.164 132.014C286.997 132.081 286.812 132.148 286.661 132.265C285.556 133.002 285.12 134.157 284.953 135.563C284.886 136.232 285.271 137.119 285.673 137.571C285.774 137.688 285.891 137.805 286.025 137.906C286.025 138.006 286.025 138.123 286.025 138.224C286.025 138.341 286.025 138.458 286.025 138.575C285.941 138.675 285.908 138.726 286.025 138.625C286.008 138.642 285.991 138.659 285.958 138.675C285.573 138.977 285.254 139.412 285.104 139.964C285.087 140.031 285.053 140.098 285.037 140.182C284.869 140.868 284.953 141.772 285.288 142.374C285.388 142.541 285.506 142.692 285.623 142.843C285.656 142.893 285.673 142.943 285.707 142.977C285.673 143.01 285.64 143.044 285.589 143.077C284.97 142.274 283.931 141.872 283.077 142.19C281.77 142.675 281.117 144.064 281.351 145.604C281.301 145.989 281.284 146.391 281.351 146.776C281.15 146.993 280.949 147.194 280.748 147.395C278.57 145.805 275.924 145.286 273.344 145.805C269.809 141.454 262.824 142.592 260.227 148.198C259.758 148.232 259.273 148.299 258.787 148.399C258.586 148.449 258.234 148.583 257.799 148.784C257.329 147.428 256.123 146.608 254.85 146.993L253.879 147.295C253.326 147.462 252.857 147.897 252.538 148.433C252.103 148.115 251.651 147.813 251.182 147.596C251.064 147.244 250.897 146.91 250.646 146.625C250.562 146.525 250.478 146.441 250.394 146.341C249.925 145.805 249.255 145.521 248.602 145.521C248.518 144.985 248.317 144.466 247.965 144.048C247.798 143.864 247.647 143.663 247.48 143.479C246.977 142.893 246.24 142.625 245.536 142.675C245.235 142.106 244.766 141.638 244.163 141.403C243.911 141.303 243.677 141.219 243.426 141.119C242.873 140.901 242.253 141.002 241.717 141.32L241.315 141.085C240.36 140.533 239.104 140.634 238.35 141.521C237.764 140.634 236.792 140.249 235.77 140.483C235.368 140.583 234.949 140.667 234.547 140.767C234.011 140.885 233.576 141.286 233.257 141.805C233.207 141.839 233.174 141.872 233.123 141.922C231.649 141.956 230.209 142.19 228.919 142.726L228.835 142.642C227.93 141.588 226.272 141.504 225.367 142.642C225.233 142.809 225.15 142.977 225.049 143.161C225.032 141.772 224.245 140.383 222.687 140.383C222.084 140.383 221.598 140.617 221.23 140.952C219.906 141.018 218.784 142.207 218.784 143.797V145.219C218.784 145.504 218.834 145.788 218.918 146.073C218.885 146.073 218.834 146.073 218.801 146.073C217.477 146.14 216.355 147.328 216.355 148.918V149.487C216.355 149.738 216.389 149.989 216.456 150.24C216.087 150.725 215.869 151.345 215.869 152.048V153.186C215.869 154.006 216.221 154.792 216.74 155.328C215.953 155.579 215.316 156.282 215.032 157.269C214.981 157.42 214.948 157.587 214.898 157.755C214.311 158.19 213.775 158.742 213.34 159.378C213.155 158.508 212.636 157.771 211.949 157.42C211.949 155.997 210.911 154.675 209.654 154.625C209.604 154.324 209.537 154.039 209.403 153.738C209.319 153.554 209.236 153.353 209.152 153.169C208.901 152.6 208.448 152.198 207.929 151.981C207.661 150.742 206.74 149.772 205.567 149.772H205.081C204.327 149.772 203.607 150.223 203.138 150.91C202.753 149.922 201.932 149.202 200.927 149.202H200.676C200.374 149.202 200.089 149.286 199.821 149.403C199.436 149.102 198.984 148.918 198.464 148.918H197.979C196.823 148.918 195.717 149.989 195.55 151.311C194.997 151.177 194.377 151.261 193.807 151.596C193.64 151.696 193.489 151.78 193.322 151.88C192.869 152.148 192.534 152.633 192.35 153.186C192.266 153.119 192.182 153.035 192.099 152.985C190.993 152.299 189.368 152.583 188.748 154.006L188.564 154.458C188.464 154.591 188.363 154.725 188.279 154.859C188.196 154.976 188.129 155.11 188.045 155.227C187.559 155.311 187.107 155.562 186.721 155.997C186.638 156.098 186.554 156.181 186.47 156.282C186.386 156.366 186.336 156.483 186.269 156.583H186.236C185.448 156.583 184.694 157.068 184.225 157.805C183.874 157.571 183.488 157.437 183.053 157.437H182.316C181.629 157.437 180.976 157.805 180.507 158.391C180.306 158.324 180.088 158.273 179.87 158.29C178.982 158.34 178.195 158.893 177.759 159.729C176.034 159.261 174.376 159.227 173.086 160.181C171.511 161.353 171.193 163.16 171.461 164.968C169.953 166.34 169.97 168.918 170.975 171.21C169.903 172.415 169.384 174.022 169.786 175.562C168.965 176.817 168.579 178.34 168.63 180.248C168.63 180.599 168.713 180.984 168.847 181.353C168.395 182.507 168.345 183.796 168.73 185.001C168.697 185.152 168.697 185.319 168.68 185.486C168.646 185.57 168.63 185.654 168.596 185.737C168.362 185.654 168.11 185.587 167.842 185.604C166.519 185.67 165.397 186.859 165.397 188.449V188.733C165.397 189.47 165.681 190.173 166.117 190.691C165.849 190.825 165.598 191.009 165.38 191.26C165.296 191.361 165.212 191.444 165.129 191.545C164.442 192.348 164.241 193.654 164.626 194.691C164.559 194.775 164.492 194.875 164.425 194.976C164.425 194.976 164.425 194.976 164.408 194.976C163.554 195.026 162.783 195.528 162.348 196.315C162.08 196.198 161.778 196.114 161.477 196.114H161.091C160.807 195.11 160.053 194.29 159.132 194.139C159.031 193.704 158.83 193.302 158.545 192.967C158.378 192.783 158.227 192.583 158.059 192.398C157.708 191.997 157.255 191.729 156.77 191.629C156.636 191.545 156.485 191.461 156.334 191.378C155.195 190.708 153.637 190.976 152.984 192.382C152.816 192.231 152.649 192.097 152.481 191.98C152.397 191.829 152.297 191.679 152.18 191.545C152.096 191.444 152.012 191.361 151.928 191.26C151.208 190.424 150.035 190.223 149.114 190.708C149.014 190.507 148.896 190.29 148.729 190.122C148.645 190.022 148.561 189.938 148.478 189.838C147.573 188.783 145.915 188.7 145.01 189.838C144.943 189.921 144.909 190.005 144.859 190.072C144.775 190.022 144.708 189.988 144.641 189.938C144.424 189.821 144.172 189.737 143.921 189.687C143.067 188.599 141.961 187.846 140.454 187.361C139.415 187.026 138.226 187.578 137.69 188.666C136.835 190.407 136.366 191.997 136.299 193.821C135.311 194.541 134.791 195.612 134.708 196.783C134.021 196.967 133.351 197.235 132.714 197.57C131.491 195.813 129.565 195.009 127.555 195.829C125.947 194.926 123.92 195.428 122.764 197.486C122.278 198.356 122.312 199.528 121.876 200.482C121.424 201.469 120.452 202.072 120 203.176C119.966 203.277 119.933 203.361 119.899 203.461C117.269 203.093 114.824 203.762 113.316 206.289C111.423 206.407 109.664 207.327 109.028 208.967C107.101 209.051 105.158 209.268 103.868 211.16C103.382 211.879 103.114 212.683 103.03 213.503C101.54 214.289 100.534 215.729 100.601 217.352C99.3953 218.691 98.8928 220.632 99.5796 222.624C99.2781 223.929 99.4121 225.134 99.9314 226.172C98.5242 228.465 97.6699 231.394 97.1339 233.971C96.0785 239.042 101.523 242.239 104.371 244.933C105.61 246.105 107.101 245.636 107.972 244.598C108.877 244.565 109.681 244.197 110.284 243.594C111.607 245.653 113.885 247.008 116.499 247.008C118.509 247.008 120.335 246.205 121.658 244.883C122.881 247.326 125.377 249 128.258 249H128.292H383V126.458C382.866 126.609 382.732 126.776 382.615 126.927L382.715 126.91ZM163.169 201.051C163.42 201.235 163.688 201.386 163.973 201.453C163.939 201.553 163.906 201.637 163.872 201.737C163.671 201.737 163.453 201.754 163.252 201.771C163.185 201.57 163.102 201.369 163.018 201.185C163.068 201.135 163.118 201.101 163.169 201.051ZM141.375 195.629C141.375 195.629 141.375 195.629 141.358 195.629C141.358 195.629 141.358 195.595 141.358 195.578C141.358 195.578 141.375 195.595 141.392 195.612L141.375 195.629Z" fill="url(#paint2_linear_1_1326)"/>
<path style="mix-blend-mode:screen" fill-rule="evenodd" clip-rule="evenodd" d="M381.44 211.068C381.44 211.068 381.44 210.899 381.44 210.798C381.44 209.333 380.249 208.088 378.672 207.768C378.588 204.266 376.272 200.393 372.816 201.909C373.286 199.097 369.226 198.861 367.179 199.349C366.575 198.356 365.77 196.824 364.612 196.319C362.75 195.511 363.035 196.588 361.609 196.807C359.831 197.077 357.985 195.999 356.76 197.969C353.774 195.746 348.657 197.497 346.493 195.561C345.604 194.77 345.771 193.322 344.849 192.699C343.926 192.076 341.695 192.059 340.537 191.908C341.661 188.978 341.124 185.998 337.098 185.409C337.098 182.042 335.118 179.718 331.477 178.607C329.884 178.119 326.478 178.051 325.018 178.893C324.565 175.24 319.733 176.721 318.223 174.684C317.77 174.078 318.743 173.085 318.358 172.378C317.334 170.509 312.033 167.983 309.801 168C307.771 168.017 308.073 168.909 306.865 169.398C305.808 169.818 304.6 169.515 303.342 169.818C301.094 170.357 300.557 172.495 298.846 173.287C297.638 173.842 295.776 173.506 294.467 173.489C292.739 173.489 291.38 173.203 289.753 173C287.555 172.731 288.226 172.866 286.682 173.741C285.34 174.499 287.035 174.735 284.736 175.223C281.129 175.997 281.632 174.735 279.586 177.529C278.982 178.354 276.968 181.149 275.391 181.2C273.915 181.25 273.261 179.247 271.6 179.247C270.123 179.247 267.741 181.553 266.986 182.698C264.469 181.722 258.01 181.553 255.779 182.9C251.954 183.018 247.139 185.005 247.558 189.298C244.958 189.719 242.223 187.379 239.639 189.147C238.297 190.073 237.928 191.807 237.861 193.457C235.126 192.783 230.093 193.709 227.627 195.191C229.506 190.207 222.493 190.325 218.986 190.712C217.141 190.914 210.715 194.45 210.581 196.672C204.927 197.38 207.595 203.205 209.054 206.118C206.387 206.825 204.457 209.434 202.595 211.371C200.313 210.579 197.528 210.344 195.616 210.714C194.861 210.849 194.559 211.943 193.821 211.96C193.032 211.96 191.338 210.697 190.432 210.478C186.103 209.434 185.331 211.741 182.01 212.869C179.745 213.644 178.067 211.606 175.769 211.893C173.571 212.162 173.118 214.149 171.272 215.091C169.561 215.95 167.095 215.765 165.232 216.388C162.582 217.263 162.464 218.577 160.585 219.907C158.555 221.321 156.609 219.957 154.495 220.648C153.858 220.85 153.757 221.658 153.186 221.91C151.979 222.432 150.62 222.567 149.328 222.887C145.805 223.779 143.741 224.907 145.201 228.577C145.704 229.823 146.274 230.699 146.895 231.322C145.956 231.962 145.167 232.753 144.613 233.679C144.378 233.612 144.11 233.578 143.858 233.578C142.516 233.578 141.442 234.521 141.442 235.666C141.442 235.851 141.476 236.053 141.526 236.221C140.62 236.777 140.016 237.703 140.016 238.73C140.016 239.083 140.083 239.437 140.218 239.757C139.312 240.397 138.657 241.306 138.406 242.333C138.104 242.215 137.768 242.148 137.416 242.148C136.074 242.148 135 243.09 135 244.235C135 245.38 136.091 246.34 137.416 246.34C138.087 246.34 138.691 246.104 139.127 245.717C140.067 246.963 141.677 247.788 143.523 247.788C144.932 247.788 146.224 247.3 147.163 246.508C148.036 247.99 149.797 249 151.828 249H383V211.977C382.564 211.59 382.044 211.27 381.473 211.051L381.44 211.068Z" fill="url(#paint3_linear_1_1326)"/>
<g clip-path="url(#clip0_1_1326)">
<path d="M466.984 272.518C466.368 264.737 461.927 255.604 447.433 248.713V215.8H446.12L446.11 212.605C445.638 210.829 446.597 210.946 447.433 208.904V207.972H447.792C448.228 207.972 448.587 207.619 448.587 207.178C448.587 206.738 448.233 206.385 447.792 206.385H447.838C447.838 206.385 448.715 200.968 443.787 200.497L443.735 199.351C444.125 199.125 444.387 198.706 444.387 198.224C444.387 197.702 444.079 197.257 443.638 197.047L443.551 194.938C443.817 194.779 443.997 194.487 443.997 194.159C443.997 193.801 443.787 193.494 443.484 193.34L443.079 183.782L442.674 193.34C442.371 193.489 442.161 193.796 442.161 194.159C442.161 194.492 442.34 194.779 442.607 194.938L442.52 197.047C442.079 197.257 441.771 197.702 441.771 198.224C441.771 198.706 442.033 199.125 442.422 199.351L442.376 200.497C437.442 200.968 438.325 206.385 438.325 206.385H438.371C437.935 206.385 437.576 206.738 437.576 207.178C437.576 207.619 437.93 207.972 438.371 207.972H438.73V208.904C439.566 210.941 440.525 210.829 440.053 212.605L440.043 215.8H438.73V245.273C436.909 244.679 434.991 244.105 432.945 243.568C432.96 241.341 431.58 238.392 424.944 236.948L424.893 235.771C425.339 235.51 425.646 235.028 425.646 234.47C425.646 233.866 425.293 233.354 424.78 233.109L424.677 230.677C424.985 230.493 425.19 230.16 425.19 229.776C425.19 229.361 424.949 229.008 424.6 228.834L424.164 218.544C424.236 218.544 424.308 218.554 424.385 218.554C425.831 218.554 427.17 217.832 427.96 216.619L428.149 216.327L427.883 216.547C427.139 217.166 426.19 217.509 425.221 217.509C422.928 217.509 421.056 215.646 421.056 213.352C421.056 212.544 421.287 211.76 421.728 211.084L421.918 210.793L421.651 211.013C420.672 211.827 420.113 213.02 420.113 214.289C420.113 215.426 420.559 216.496 421.364 217.3C422.103 218.037 423.067 218.467 424.103 218.533L423.667 228.829C423.318 229.003 423.077 229.356 423.077 229.771C423.077 230.155 423.282 230.487 423.59 230.672L423.487 233.103C422.974 233.344 422.621 233.861 422.621 234.465C422.621 235.023 422.923 235.505 423.374 235.766L423.323 236.943C416.687 238.387 415.307 241.336 415.322 243.563C410.819 244.74 406.891 246.076 403.455 247.53C402.901 246.65 402.224 245.774 401.413 244.909V220.955H402.48L405.788 218.61H401.408V189.05H402.475L405.783 186.705H401.403V157.145H402.47L405.778 154.801H401.398V150.464H402.121C402.639 150.464 403.055 150.045 403.055 149.533C403.055 149.021 402.634 148.601 402.121 148.601H402.173C402.173 148.601 403.208 142.227 397.403 141.674L397.346 140.323C397.803 140.056 398.116 139.565 398.116 138.997C398.116 138.382 397.752 137.855 397.234 137.609L397.131 135.126C397.444 134.937 397.654 134.599 397.654 134.21C397.654 133.785 397.408 133.427 397.054 133.248L396.577 122L396.1 133.248C395.746 133.422 395.5 133.785 395.5 134.21C395.5 134.599 395.71 134.937 396.023 135.126L395.916 137.609C395.392 137.855 395.033 138.382 395.033 138.997C395.033 139.565 395.346 140.056 395.803 140.323L395.746 141.674C389.941 142.232 390.977 148.601 390.977 148.601H391.028C390.51 148.601 390.094 149.021 390.094 149.533C390.094 150.045 390.515 150.464 391.028 150.464H391.751V154.801H387.371L390.679 157.145H391.746V186.705H387.366L390.674 189.05H391.741V218.61H387.361L390.669 220.955H391.736V238.571C388.325 237.122 384.145 235.853 379.011 234.865L378.996 234.481C379.283 234.312 379.473 234.01 379.473 233.656C379.473 233.272 379.247 232.945 378.924 232.791L378.858 231.25C379.052 231.132 379.181 230.923 379.181 230.677C379.181 230.416 379.027 230.19 378.806 230.078L378.529 223.545C378.575 223.545 378.622 223.55 378.668 223.55C379.586 223.55 380.437 223.09 380.94 222.322L381.063 222.137L380.894 222.281C380.422 222.675 379.822 222.89 379.206 222.89C377.75 222.89 376.565 221.707 376.565 220.254C376.565 219.742 376.714 219.245 376.991 218.815L377.114 218.631L376.945 218.774C376.324 219.291 375.97 220.049 375.97 220.852C375.97 221.574 376.252 222.255 376.765 222.762C377.232 223.228 377.847 223.504 378.504 223.545L378.227 230.078C378.006 230.185 377.852 230.411 377.852 230.677C377.852 230.917 377.986 231.132 378.175 231.25L378.109 232.791C377.786 232.945 377.56 233.272 377.56 233.656C377.56 234.01 377.755 234.317 378.037 234.481L378.022 234.865C371.754 236.073 366.897 237.701 363.143 239.564C357.717 234.813 348.809 230.554 334.525 227.882C328.817 228.952 323.976 230.272 319.862 231.778C317.683 229.167 314.744 226.622 310.872 224.262V214.243H311.631L313.985 212.574H310.872V191.559H311.631L313.985 189.89H310.872V168.874H311.631L313.985 167.205H310.872V164.123H311.385C311.749 164.123 312.046 163.826 312.046 163.463C312.046 163.099 311.749 162.802 311.385 162.802H311.421C311.421 162.802 312.154 158.272 308.031 157.877L307.99 156.915C308.313 156.726 308.538 156.377 308.538 155.973C308.538 155.538 308.282 155.164 307.907 154.985L307.831 153.219C308.051 153.086 308.2 152.845 308.2 152.569C308.2 152.267 308.025 152.011 307.774 151.888L307.436 143.891L307.097 151.888C306.846 152.011 306.671 152.272 306.671 152.569C306.671 152.845 306.82 153.086 307.041 153.219L306.964 154.985C306.595 155.159 306.333 155.538 306.333 155.973C306.333 156.377 306.553 156.726 306.882 156.915L306.841 157.877C302.712 158.272 303.451 162.802 303.451 162.802H303.487C303.117 162.802 302.825 163.099 302.825 163.463C302.825 163.826 303.122 164.123 303.487 164.123H303.999V167.205H300.886L303.24 168.874H303.999V189.89H300.886L303.24 191.559H303.999V212.574H300.886L303.24 214.243H303.999V220.735C300.414 219.178 296.276 217.75 291.491 216.496C291.506 214.269 290.126 211.32 283.49 209.876L283.439 208.699C283.885 208.438 284.192 207.956 284.192 207.398C284.192 206.794 283.839 206.282 283.326 206.037L283.223 203.605C283.531 203.421 283.736 203.088 283.736 202.704C283.736 202.289 283.495 201.936 283.146 201.762L282.71 191.472C282.782 191.472 282.854 191.482 282.931 191.482C284.377 191.482 285.716 190.76 286.505 189.547L286.695 189.255L286.429 189.475C285.685 190.095 284.736 190.438 283.767 190.438C281.474 190.438 279.602 188.574 279.602 186.28C279.602 185.472 279.833 184.688 280.274 184.013L280.464 183.721L280.197 183.941C279.218 184.755 278.659 185.948 278.659 187.217C278.659 188.354 279.105 189.424 279.91 190.228C280.649 190.965 281.613 191.395 282.649 191.461L282.213 201.757C281.864 201.931 281.623 202.284 281.623 202.699C281.623 203.083 281.828 203.415 282.136 203.6L282.033 206.032C281.52 206.272 281.167 206.789 281.167 207.393C281.167 207.951 281.469 208.433 281.92 208.694L281.869 209.871C275.233 211.315 273.853 214.264 273.868 216.491C269.678 217.586 265.986 218.82 262.724 220.156V184.222H261.149L261.139 180.388C260.575 178.253 261.724 178.396 262.729 175.949V174.828H263.165C263.693 174.828 264.119 174.403 264.119 173.876C264.119 173.349 263.693 172.924 263.165 172.924H263.221C263.221 172.924 264.278 166.422 258.354 165.854L258.298 164.477C258.764 164.205 259.082 163.703 259.082 163.125C259.082 162.5 258.713 161.963 258.18 161.707L258.072 159.178C258.39 158.983 258.605 158.64 258.605 158.241C258.605 157.811 258.354 157.442 257.99 157.263L257.503 145.785L257.016 157.263C256.651 157.442 256.4 157.811 256.4 158.241C256.4 158.64 256.616 158.983 256.934 159.178L256.826 161.707C256.292 161.958 255.923 162.495 255.923 163.125C255.923 163.703 256.241 164.205 256.708 164.477L256.651 165.854C250.728 166.422 251.784 172.924 251.784 172.924H251.841C251.313 172.924 250.887 173.349 250.887 173.876C250.887 174.403 251.313 174.828 251.841 174.828H252.277V175.949C253.282 178.396 254.431 178.258 253.867 180.388L253.856 184.222H252.282V225.701C249.559 227.59 247.379 229.581 245.656 231.609C243.543 225.153 237.106 218.262 220.961 214.038C220.971 212.369 219.94 210.163 214.966 209.078L214.93 208.197C215.268 208.003 215.494 207.639 215.494 207.224C215.494 206.774 215.227 206.385 214.842 206.206L214.766 204.383C214.996 204.245 215.15 203.994 215.15 203.707C215.15 203.395 214.971 203.129 214.709 203.001L214.381 195.291C214.437 195.291 214.489 195.301 214.545 195.301C215.632 195.301 216.632 194.758 217.227 193.847L217.371 193.627L217.171 193.796C216.612 194.262 215.904 194.518 215.176 194.518C213.458 194.518 212.058 193.12 212.058 191.405C212.058 190.801 212.232 190.212 212.56 189.705L212.704 189.485L212.504 189.654C211.77 190.263 211.35 191.159 211.35 192.106C211.35 192.961 211.683 193.76 212.288 194.364C212.842 194.917 213.565 195.24 214.34 195.291L214.012 203.006C213.75 203.134 213.571 203.4 213.571 203.712C213.571 203.999 213.724 204.25 213.955 204.388L213.878 206.211C213.494 206.395 213.227 206.779 213.227 207.229C213.227 207.644 213.458 208.008 213.791 208.202L213.755 209.083C208.786 210.163 207.75 212.375 207.76 214.044C188.066 219.199 182.814 228.317 182.24 235.776C172.854 238.095 167.177 241.443 163.858 245.047C161.289 244.167 158.458 243.348 155.319 242.621V241.863H156.386L159.694 239.518H155.314V209.958H156.381L159.689 207.613H155.309V178.053H156.376L159.684 175.709H155.304V171.372H156.027C156.545 171.372 156.96 170.953 156.96 170.441C156.96 169.929 156.54 169.509 156.027 169.509H156.078C156.078 169.509 157.114 163.135 151.308 162.582L151.252 161.231C151.709 160.965 152.021 160.473 152.021 159.905C152.021 159.29 151.657 158.763 151.139 158.517L151.037 156.034C151.35 155.845 151.56 155.507 151.56 155.118C151.56 154.693 151.314 154.335 150.96 154.156L150.483 142.908L150.006 154.156C149.652 154.33 149.406 154.693 149.406 155.118C149.406 155.507 149.616 155.845 149.929 156.034L149.826 158.517C149.303 158.763 148.944 159.29 148.944 159.905C148.944 160.473 149.257 160.965 149.713 161.231L149.657 162.582C143.851 163.14 144.887 169.509 144.887 169.509H144.939C144.421 169.509 144.005 169.929 144.005 170.441C144.005 170.953 144.426 171.372 144.939 171.372H145.662V175.709H141.282L144.59 178.053H145.657V207.613H141.277L144.585 209.958H145.652V239.518H141.272L144.58 241.863H145.646V242.621C138.061 244.387 132.22 246.639 127.747 249.174C128.265 241.387 125.537 231.363 111.843 223.55V197.067H110.53L110.52 193.873C110.048 192.096 111.007 192.214 111.843 190.171V189.24H112.202C112.638 189.24 112.997 188.886 112.997 188.446C112.997 188.006 112.643 187.653 112.202 187.653H112.248C112.248 187.653 113.125 182.236 108.197 181.765L108.146 180.618C108.535 180.393 108.797 179.973 108.797 179.492C108.797 178.97 108.489 178.524 108.048 178.309L107.961 176.2C108.228 176.041 108.407 175.75 108.407 175.422C108.407 175.064 108.197 174.756 107.894 174.603L107.489 165.045L107.084 174.603C106.781 174.751 106.571 175.059 106.571 175.422C106.571 175.755 106.751 176.041 107.017 176.2L106.93 178.309C106.489 178.519 106.181 178.965 106.181 179.492C106.181 179.973 106.448 180.393 106.833 180.618L106.786 181.765C101.853 182.236 102.735 187.653 102.735 187.653H102.781C102.345 187.653 101.986 188.006 101.986 188.446C101.986 188.886 102.34 189.24 102.781 189.24H103.14V190.171C103.976 192.209 104.935 192.096 104.463 193.873L104.453 197.067H103.14V219.501C100.304 218.421 97.1702 217.412 93.6878 216.501C93.7032 214.274 92.3236 211.325 85.6871 209.881L85.6358 208.704C86.082 208.443 86.3897 207.962 86.3897 207.404C86.3897 206.799 86.0358 206.287 85.5229 206.042L85.4204 203.61C85.7281 203.426 85.9332 203.093 85.9332 202.709C85.9332 202.294 85.6922 201.941 85.3434 201.767L84.9075 191.477C84.9793 191.477 85.0511 191.487 85.128 191.487C86.5743 191.487 87.9129 190.765 88.7027 189.552L88.8925 189.26L88.6258 189.48C87.8821 190.1 86.9333 190.443 85.964 190.443C83.6664 190.443 81.7995 188.579 81.7995 186.286C81.7995 185.477 82.0303 184.693 82.4714 184.018L82.6612 183.726L82.3945 183.946C81.4149 184.76 80.8559 185.953 80.8559 187.222C80.8559 188.359 81.3021 189.429 82.1073 190.233C82.8458 190.97 83.81 191.4 84.846 191.467L84.41 201.762C84.0613 201.936 83.8202 202.289 83.8202 202.704C83.8202 203.088 84.0254 203.421 84.3331 203.605L84.2305 206.037C83.7177 206.277 83.3638 206.794 83.3638 207.398C83.3638 207.956 83.6664 208.438 84.1177 208.699L84.0664 209.876C77.4299 211.32 76.0503 214.269 76.0657 216.496C70.3113 218.001 65.4903 219.767 61.4438 221.702V216.45H62.2029L64.5569 214.781H61.4438V193.765H62.2029L64.5569 192.096H61.4438V189.014H61.9567C62.326 189.014 62.6183 188.717 62.6183 188.354C62.6183 187.99 62.3208 187.693 61.9567 187.693H61.9926C61.9926 187.693 62.726 183.163 58.6025 182.769L58.5615 181.806C58.8846 181.617 59.1103 181.268 59.1103 180.864C59.1103 180.429 58.8538 180.055 58.4794 179.876L58.4025 178.11C58.623 177.977 58.7718 177.736 58.7718 177.46C58.7718 177.158 58.5974 176.902 58.3461 176.779L58.0076 168.782L57.6691 176.779C57.4178 176.902 57.2434 177.163 57.2434 177.46C57.2434 177.736 57.3922 177.977 57.6127 178.11L57.5358 179.876C57.1665 180.05 56.9049 180.429 56.9049 180.864C56.9049 181.268 57.1255 181.617 57.4537 181.806L57.4127 182.769C53.2841 183.163 54.0226 187.693 54.0226 187.693H54.0585C53.6944 187.693 53.3969 187.99 53.3969 188.354C53.3969 188.717 53.6944 189.014 54.0585 189.014H54.5714V192.096H51.4583L53.8123 193.765H54.5714V214.781H51.4583L53.8123 216.45H54.5714V225.634C40.1239 235.592 40.9907 248.262 43.155 255.573C34.8055 260.779 31.7898 267 31.1436 272.524H31V300H478V272.524H466.984V272.518ZM107.494 190.171C108.679 192.209 110.038 192.096 109.371 193.873L109.356 197.067H105.632L105.617 193.873C104.95 192.096 106.309 192.214 107.494 190.171ZM257.508 175.954C258.934 178.402 260.565 178.263 259.759 180.393L259.744 184.228H255.277L255.262 180.393C254.462 178.258 256.087 178.402 257.513 175.954H257.508ZM444.956 212.605L444.941 215.8H441.217L441.202 212.605C440.535 210.829 441.894 210.946 443.079 208.904C444.264 210.941 445.623 210.829 444.956 212.605Z" fill="#9DBBC5"/>
<path d="M385.984 272.523C385.368 264.742 380.927 255.609 366.433 248.718V215.805H365.12L365.11 212.61C364.638 210.834 365.597 210.951 366.433 208.909V207.977H366.792C367.228 207.977 367.587 207.624 367.587 207.183C367.587 206.743 367.233 206.39 366.792 206.39H366.838C366.838 206.39 367.715 200.973 362.787 200.502L362.735 199.356C363.125 199.13 363.387 198.711 363.387 198.229C363.387 197.707 363.079 197.262 362.638 197.052L362.551 194.943C362.817 194.784 362.997 194.492 362.997 194.164C362.997 193.806 362.787 193.499 362.484 193.345L362.079 183.787L361.674 193.345C361.371 193.494 361.161 193.801 361.161 194.164C361.161 194.497 361.34 194.784 361.607 194.943L361.52 197.052C361.079 197.262 360.771 197.707 360.771 198.229C360.771 198.711 361.033 199.13 361.422 199.356L361.376 200.502C356.442 200.973 357.325 206.39 357.325 206.39H357.371C356.935 206.39 356.576 206.743 356.576 207.183C356.576 207.624 356.93 207.977 357.371 207.977H357.73V208.909C358.566 210.946 359.525 210.834 359.053 212.61L359.043 215.805H357.73V245.278C355.909 244.684 353.991 244.11 351.945 243.573C351.96 241.346 350.58 238.397 343.944 236.953L343.893 235.776C344.339 235.515 344.646 235.033 344.646 234.475C344.646 233.871 344.293 233.359 343.78 233.114L343.677 230.682C343.985 230.498 344.19 230.165 344.19 229.781C344.19 229.366 343.949 229.013 343.6 228.839L343.164 218.549C343.236 218.549 343.308 218.559 343.385 218.559C344.831 218.559 346.17 217.837 346.96 216.624L347.149 216.332L346.883 216.552C346.139 217.171 345.19 217.514 344.221 217.514C341.928 217.514 340.056 215.651 340.056 213.357C340.056 212.549 340.287 211.765 340.728 211.089L340.918 210.798L340.651 211.018C339.672 211.832 339.113 213.025 339.113 214.294C339.113 215.431 339.559 216.501 340.364 217.305C341.103 218.042 342.067 218.472 343.103 218.538L342.667 228.834C342.318 229.008 342.077 229.361 342.077 229.776C342.077 230.16 342.282 230.492 342.59 230.677L342.487 233.108C341.974 233.349 341.621 233.866 341.621 234.47C341.621 235.028 341.923 235.51 342.374 235.771L342.323 236.948C335.687 238.392 334.307 241.341 334.322 243.568C329.819 244.745 325.891 246.081 322.455 247.535C321.901 246.655 321.224 245.779 320.413 244.914V220.96H321.48L324.788 218.615H320.408V189.055H321.475L324.783 186.71H320.403V157.15H321.47L324.778 154.806H320.398V150.469H321.121C321.639 150.469 322.055 150.05 322.055 149.538C322.055 149.026 321.634 148.606 321.121 148.606H321.173C321.173 148.606 322.208 142.232 316.403 141.679L316.346 140.328C316.803 140.061 317.116 139.57 317.116 139.002C317.116 138.387 316.752 137.86 316.234 137.614L316.131 135.131C316.444 134.942 316.654 134.604 316.654 134.215C316.654 133.79 316.408 133.432 316.054 133.253L315.577 122.005L315.1 133.253C314.746 133.427 314.5 133.79 314.5 134.215C314.5 134.604 314.71 134.942 315.023 135.131L314.916 137.614C314.392 137.86 314.033 138.387 314.033 139.002C314.033 139.57 314.346 140.061 314.803 140.328L314.746 141.679C308.941 142.237 309.977 148.606 309.977 148.606H310.028C309.51 148.606 309.094 149.026 309.094 149.538C309.094 150.05 309.515 150.469 310.028 150.469H310.751V154.806H306.371L309.679 157.15H310.746V186.71H306.366L309.674 189.055H310.741V218.615H306.361L309.669 220.96H310.736V238.576C307.325 237.127 303.145 235.858 298.011 234.87L297.996 234.486C298.283 234.317 298.473 234.015 298.473 233.661C298.473 233.277 298.247 232.95 297.924 232.796L297.858 231.255C298.052 231.137 298.181 230.928 298.181 230.682C298.181 230.421 298.027 230.195 297.806 230.083L297.529 223.55C297.575 223.55 297.622 223.555 297.668 223.555C298.586 223.555 299.437 223.095 299.94 222.327L300.063 222.142L299.894 222.286C299.422 222.68 298.822 222.895 298.206 222.895C296.75 222.895 295.565 221.712 295.565 220.259C295.565 219.747 295.714 219.25 295.991 218.82L296.114 218.636L295.945 218.779C295.324 219.296 294.97 220.054 294.97 220.857C294.97 221.579 295.252 222.26 295.765 222.767C296.232 223.233 296.847 223.509 297.504 223.55L297.227 230.083C297.006 230.19 296.852 230.416 296.852 230.682C296.852 230.922 296.986 231.137 297.175 231.255L297.109 232.796C296.786 232.95 296.56 233.277 296.56 233.661C296.56 234.015 296.755 234.322 297.037 234.486L297.022 234.87C290.754 236.078 285.897 237.706 282.143 239.569C276.717 234.818 267.809 230.559 253.525 227.887C247.817 228.957 242.976 230.277 238.862 231.783C236.683 229.172 233.744 226.627 229.872 224.267V214.248H230.631L232.985 212.579H229.872V191.564H230.631L232.985 189.895H229.872V168.879H230.631L232.985 167.21H229.872V164.128H230.385C230.749 164.128 231.046 163.831 231.046 163.468C231.046 163.104 230.749 162.807 230.385 162.807H230.421C230.421 162.807 231.154 158.277 227.031 157.882L226.99 156.92C227.313 156.731 227.538 156.382 227.538 155.978C227.538 155.543 227.282 155.169 226.907 154.99L226.831 153.224C227.051 153.091 227.2 152.85 227.2 152.574C227.2 152.272 227.025 152.016 226.774 151.893L226.436 143.896L226.097 151.893C225.846 152.016 225.671 152.277 225.671 152.574C225.671 152.85 225.82 153.091 226.041 153.224L225.964 154.99C225.595 155.164 225.333 155.543 225.333 155.978C225.333 156.382 225.553 156.731 225.882 156.92L225.841 157.882C221.712 158.277 222.451 162.807 222.451 162.807H222.487C222.117 162.807 221.825 163.104 221.825 163.468C221.825 163.831 222.122 164.128 222.487 164.128H222.999V167.21H219.886L222.24 168.879H222.999V189.895H219.886L222.24 191.564H222.999V212.579H219.886L222.24 214.248H222.999V220.74C219.414 219.183 215.276 217.755 210.491 216.501C210.506 214.274 209.126 211.325 202.49 209.881L202.439 208.704C202.885 208.443 203.192 207.961 203.192 207.403C203.192 206.799 202.839 206.287 202.326 206.042L202.223 203.61C202.531 203.426 202.736 203.093 202.736 202.709C202.736 202.294 202.495 201.941 202.146 201.767L201.71 191.477C201.782 191.477 201.854 191.487 201.931 191.487C203.377 191.487 204.716 190.765 205.505 189.552L205.695 189.26L205.429 189.48C204.685 190.1 203.736 190.443 202.767 190.443C200.474 190.443 198.602 188.579 198.602 186.285C198.602 185.477 198.833 184.693 199.274 184.018L199.464 183.726L199.197 183.946C198.218 184.76 197.659 185.953 197.659 187.222C197.659 188.359 198.105 189.429 198.91 190.233C199.649 190.97 200.613 191.4 201.649 191.466L201.213 201.762C200.864 201.936 200.623 202.289 200.623 202.704C200.623 203.088 200.828 203.42 201.136 203.605L201.033 206.037C200.52 206.277 200.167 206.794 200.167 207.398C200.167 207.956 200.469 208.438 200.92 208.699L200.869 209.876C194.233 211.32 192.853 214.269 192.868 216.496C188.678 217.591 184.986 218.825 181.724 220.161V184.227H180.149L180.139 180.393C179.575 178.258 180.724 178.401 181.729 175.954V174.833H182.165C182.693 174.833 183.119 174.408 183.119 173.881C183.119 173.354 182.693 172.929 182.165 172.929H182.221C182.221 172.929 183.278 166.427 177.354 165.859L177.298 164.482C177.764 164.21 178.082 163.708 178.082 163.13C178.082 162.505 177.713 161.968 177.18 161.712L177.072 159.183C177.39 158.988 177.605 158.645 177.605 158.246C177.605 157.816 177.354 157.447 176.99 157.268L176.503 145.79L176.016 157.268C175.651 157.447 175.4 157.816 175.4 158.246C175.4 158.645 175.616 158.988 175.934 159.183L175.826 161.712C175.292 161.963 174.923 162.5 174.923 163.13C174.923 163.708 175.241 164.21 175.708 164.482L175.651 165.859C169.728 166.427 170.784 172.929 170.784 172.929H170.841C170.313 172.929 169.887 173.354 169.887 173.881C169.887 174.408 170.313 174.833 170.841 174.833H171.277V175.954C172.282 178.401 173.431 178.263 172.867 180.393L172.856 184.227H171.282V225.706C168.559 227.595 166.379 229.586 164.656 231.614C162.543 225.158 156.106 218.267 139.961 214.043C139.971 212.374 138.94 210.168 133.966 209.083L133.93 208.202C134.268 208.008 134.494 207.644 134.494 207.229C134.494 206.779 134.227 206.39 133.842 206.211L133.766 204.388C133.996 204.25 134.15 203.999 134.15 203.712C134.15 203.4 133.971 203.134 133.709 203.006L133.381 195.296C133.437 195.296 133.489 195.306 133.545 195.306C134.632 195.306 135.632 194.763 136.227 193.852L136.371 193.632L136.171 193.801C135.612 194.267 134.904 194.523 134.176 194.523C132.458 194.523 131.058 193.125 131.058 191.41C131.058 190.806 131.232 190.217 131.56 189.71L131.704 189.49L131.504 189.659C130.77 190.268 130.35 191.164 130.35 192.111C130.35 192.966 130.683 193.765 131.288 194.369C131.842 194.922 132.565 195.245 133.34 195.296L133.012 203.011C132.75 203.139 132.571 203.405 132.571 203.717C132.571 204.004 132.724 204.255 132.955 204.393L132.878 206.216C132.494 206.4 132.227 206.784 132.227 207.234C132.227 207.649 132.458 208.013 132.791 208.207L132.755 209.088C127.786 210.168 126.75 212.38 126.76 214.049C107.066 219.204 101.814 228.322 101.24 235.781C91.854 238.1 86.1766 241.448 82.8583 245.052C80.2889 244.172 77.4578 243.353 74.3191 242.626V241.868H75.3859L78.6939 239.523H74.314V209.963H75.3807L78.6887 207.618H74.3088V178.058H75.3756L78.6836 175.714H74.3037V171.377H75.0269C75.5449 171.377 75.9603 170.958 75.9603 170.446C75.9603 169.934 75.5397 169.514 75.0269 169.514H75.0781C75.0781 169.514 76.1141 163.14 70.3085 162.587L70.2521 161.236C70.7085 160.97 71.0214 160.478 71.0214 159.91C71.0214 159.295 70.6572 158.768 70.1392 158.522L70.0367 156.039C70.3495 155.85 70.5598 155.512 70.5598 155.123C70.5598 154.698 70.3136 154.34 69.9597 154.161L69.4828 142.913L69.0058 154.161C68.6519 154.335 68.4057 154.698 68.4057 155.123C68.4057 155.512 68.616 155.85 68.9289 156.039L68.8263 158.522C68.3032 158.768 67.9442 159.295 67.9442 159.91C67.9442 160.478 68.257 160.97 68.7135 161.236L68.657 162.587C62.8514 163.145 63.8874 169.514 63.8874 169.514H63.9387C63.4207 169.514 63.0052 169.934 63.0052 170.446C63.0052 170.958 63.4258 171.377 63.9387 171.377H64.6618V175.714H60.2819L63.5899 178.058H64.6567V207.618H60.2768L63.5848 209.963H64.6516V239.523H60.2717L63.5797 241.868H64.6464V242.626C57.0611 244.392 51.2195 246.644 46.7473 249.179C47.2653 241.392 44.5369 231.368 30.8433 223.555V197.072H29.5304L29.5201 193.878C29.0483 192.101 30.0073 192.219 30.8433 190.176V189.245H31.2023C31.6383 189.245 31.9973 188.891 31.9973 188.451C31.9973 188.011 31.6434 187.658 31.2023 187.658H31.2485C31.2485 187.658 32.1255 182.241 27.1968 181.77L27.1455 180.623C27.5353 180.398 27.7969 179.978 27.7969 179.497C27.7969 178.975 27.4892 178.529 27.0481 178.314L26.9609 176.205C27.2276 176.046 27.4071 175.755 27.4071 175.427C27.4071 175.069 27.1968 174.761 26.8942 174.608L26.4891 165.05L26.0839 174.608C25.7813 174.756 25.571 175.064 25.571 175.427C25.571 175.76 25.7505 176.046 26.0172 176.205L25.93 178.314C25.489 178.524 25.1813 178.97 25.1813 179.497C25.1813 179.978 25.448 180.398 25.8326 180.623L25.7864 181.77C20.8527 182.241 21.7348 187.658 21.7348 187.658H21.7809C21.345 187.658 20.986 188.011 20.986 188.451C20.986 188.891 21.3399 189.245 21.7809 189.245H22.14V190.176C22.9759 192.214 23.935 192.101 23.4632 193.878L23.4529 197.072H22.14V219.506C19.3038 218.426 16.1702 217.417 12.6878 216.506C12.7032 214.279 11.3236 211.33 4.68707 209.886L4.63578 208.709C5.08198 208.448 5.3897 207.967 5.3897 207.409C5.3897 206.804 5.03582 206.293 4.52295 206.047L4.42038 203.615C4.7281 203.431 4.93325 203.098 4.93325 202.714C4.93325 202.299 4.6922 201.946 4.34345 201.772L3.90751 191.482C3.97931 191.482 4.05111 191.492 4.12804 191.492C5.57433 191.492 6.91291 190.77 7.70273 189.557L7.89249 189.265L7.6258 189.485C6.88214 190.105 5.93333 190.448 4.96402 190.448C2.66637 190.448 0.799534 188.584 0.799534 186.291C0.799534 185.482 1.03032 184.698 1.47139 184.023L1.66115 183.731L1.39446 183.951C0.414883 184.765 -0.144142 185.958 -0.144142 187.227C-0.144142 188.364 0.302052 189.434 1.10725 190.238C1.84578 190.975 2.80997 191.405 3.84597 191.472L3.41003 201.767C3.06128 201.941 2.82023 202.294 2.82023 202.709C2.82023 203.093 3.02538 203.426 3.3331 203.61L3.23053 206.042C2.71766 206.282 2.36378 206.799 2.36378 207.403C2.36378 207.961 2.66637 208.443 3.11769 208.704L3.06641 209.881C-3.5701 211.325 -4.94971 214.274 -4.93433 216.501C-10.6887 218.006 -15.5097 219.772 -19.5562 221.707V216.455H-18.7971L-16.4431 214.786H-19.5562V193.77H-18.7971L-16.4431 192.101H-19.5562V189.019H-19.0433C-18.674 189.019 -18.3817 188.722 -18.3817 188.359C-18.3817 187.995 -18.6792 187.698 -19.0433 187.698H-19.0074C-19.0074 187.698 -18.274 183.168 -22.3975 182.774L-22.4385 181.811C-22.1154 181.622 -21.8897 181.273 -21.8897 180.869C-21.8897 180.434 -22.1462 180.06 -22.5206 179.881L-22.5975 178.115C-22.377 177.982 -22.2282 177.741 -22.2282 177.465C-22.2282 177.163 -22.4026 176.907 -22.6539 176.784L-22.9924 168.787L-23.3309 176.784C-23.5822 176.907 -23.7566 177.168 -23.7566 177.465C-23.7566 177.741 -23.6078 177.982 -23.3873 178.115L-23.4642 179.881C-23.8335 180.055 -24.0951 180.434 -24.0951 180.869C-24.0951 181.273 -23.8745 181.622 -23.5463 181.811L-23.5873 182.774C-27.7159 183.168 -26.9774 187.698 -26.9774 187.698H-26.9415C-27.3056 187.698 -27.6031 187.995 -27.6031 188.359C-27.6031 188.722 -27.3056 189.019 -26.9415 189.019H-26.4286V192.101H-29.5417L-27.1877 193.77H-26.4286V214.786H-29.5417L-27.1877 216.455H-26.4286V225.639C-40.8761 235.597 -40.0093 248.267 -37.845 255.578C-46.1945 260.785 -49.2102 267.005 -49.8564 272.529H-50V300.005H397V272.529H385.984V272.523ZM26.4942 190.176C27.6789 192.214 29.038 192.101 28.3713 193.878L28.3559 197.072H24.6325L24.6171 193.878C23.9504 192.101 25.3095 192.219 26.4942 190.176ZM176.508 175.959C177.934 178.407 179.565 178.268 178.759 180.398L178.744 184.233H174.277L174.262 180.398C173.462 178.263 175.087 178.407 176.513 175.959H176.508ZM363.956 212.61L363.941 215.805H360.217L360.202 212.61C359.535 210.834 360.894 210.951 362.079 208.909C363.264 210.946 364.623 210.834 363.956 212.61Z" fill="#143E5B"/>
</g>
<path fill-rule="evenodd" clip-rule="evenodd" d="M168.996 88.2941C169.458 87.9962 169.831 88.3984 169.831 88.3984L170.756 89.0986L171.293 88.8751C171.293 88.8751 170.577 87.8323 170.085 87.6982C169.593 87.5642 169.771 86.7896 167.952 86.4767C166.595 86.2533 166.267 86.0745 166.177 86L166.863 86.9981C166.863 86.9981 165.118 89.2475 165.088 89.5306C165.088 89.5306 168.534 88.607 168.996 88.2941ZM147.758 89.3667C147.251 89.3667 145.864 88.8304 145.148 89.1731L146.312 90.052C146.312 90.052 145.193 93.3889 145.477 93.7911C145.76 94.1934 147.594 92.5398 147.594 92.5398L147.251 91.9141L147.997 92.078L148.728 91.0054L149.488 91.0352L150.353 91.5864L150.905 91.2289L149.966 90.6032C149.966 90.6032 148.251 89.3667 147.743 89.3667H147.758ZM191.278 109.776C190.979 109.448 188.146 110.893 188.071 112.189L186.356 112.323L187.042 112.919C187.042 112.919 188.757 114.096 189.518 114.185C190.278 114.274 190.741 114.558 190.741 114.558L191.292 114.855L191.412 113.932L189.861 113.366C189.861 113.366 191.561 110.103 191.263 109.776H191.278ZM226.862 95.6384C227.817 95.7277 228.026 95.8469 228.041 95.9065L228.234 95.4298L226.594 94.7743C226.594 94.7743 226.549 93.9997 226.773 93.9699C226.997 93.9401 227.832 92.1971 228.205 92.1822C228.578 92.1822 225.386 91.4374 224.372 93.4038L224.059 93.5528L222.567 93.4783C222.567 93.4783 223.044 93.7911 223.253 94.0146C223.447 94.238 225.371 95.5043 226.862 95.6384ZM205.133 112.397C205.461 112.755 207.489 112.71 207.489 112.71L208.13 112.919L208.175 112.606L207.534 112.397C207.534 112.397 206.907 112.055 206.863 111.861C206.818 111.667 207.31 110.193 207.31 110.193L208.13 109.09L208.101 108.703C206.922 108.614 204.476 110.714 204.476 110.714L203.149 110.535C203.507 111.861 204.819 112.025 205.148 112.397H205.133ZM148.042 103.385C149.503 101.344 148.4 99.5414 148.4 99.5414C148.4 99.5414 147.669 100.599 147.356 100.614C147.057 100.644 145.7 102.431 145.7 102.431L144 102.267C144.209 102.938 146.729 104.279 146.729 104.279C146.729 104.279 148.057 104.457 148.415 104.502C148.787 104.547 149.295 105.247 149.295 105.247L149.638 104.979L149.861 104.428L148.012 103.683L148.057 103.37L148.042 103.385ZM178.377 112.144L179.182 112.546L179.436 111.921L178.287 111.548L177.512 110.938C178.049 110.714 178.481 108.748 178.481 108.748L177.557 108.629C177.557 108.629 178.69 108.42 178.735 108.122C178.765 107.839 178.213 106.245 178.213 106.245C178.213 106.245 177.616 107.541 177.288 107.496C176.96 107.452 175.588 110.103 175.588 110.103L174.067 109.984C174.768 111.742 178.377 112.144 178.377 112.144ZM224.581 131.376L225.61 131.793V131.436C225.61 131.436 224.581 130.974 224.357 130.914C224.133 130.84 224.148 130.363 224.148 130.363L224.909 129.618L224.685 129.469C224.685 129.469 225.789 128.248 225.803 128.084C225.818 127.92 225.177 127.801 224.894 127.89C224.595 127.98 222.179 128.546 222.194 129.425L220.449 129.395C220.449 129.395 221.285 130.914 224.566 131.376H224.581ZM173.381 103.608C173.664 104.01 175.081 102.372 175.081 102.372L175.588 101.716L176.468 100.882L178.258 101.552L178.392 101.21C178.392 101.21 175.319 98.6327 172.71 99.0945L173.798 99.884C173.798 99.884 173.112 103.206 173.396 103.608H173.381ZM192.784 98.0964C192.784 98.0964 193.604 99.2881 196.512 99.9287L197.377 100.227L197.482 100.554L197.691 100.078L196.11 98.9753L196.378 98.6327C196.378 98.6327 197.407 96.4726 196.169 95.6681C196.169 95.6681 194.201 97.5154 194.29 97.9772C194.29 97.9772 192.56 97.5005 192.292 97.7835L192.336 97.9772L192.769 98.0964H192.784ZM220.703 116.971C220.255 116.435 219.286 118.073 218.943 118.148C218.6 118.222 217.914 119.533 217.929 119.816L217.78 119.92C217.78 119.92 216.333 119.414 216.214 119.593C216.094 119.786 216.631 120.055 216.631 120.055C216.631 120.055 218.003 121.44 218.555 121.544C219.107 121.663 220.733 121.827 220.733 121.827L221.523 122.215L221.821 122.095C221.821 122.095 220.405 121.068 220.211 121.038C220.032 121.008 221.15 117.507 220.703 116.971ZM226.654 109.344L226.445 109.433C226.445 109.433 227.548 110.386 227.698 110.684C227.847 110.982 228.1 113.306 228.816 113.604C229.532 113.902 230.084 111.846 230.084 111.846L230.188 111.742L230.651 111.846L231.426 112.353L232.157 112.129C232.157 112.129 228.637 109.224 226.639 109.358L226.654 109.344ZM249.651 119.697L250.218 120.084C250.218 120.084 251.083 120.352 250.77 119.801C250.471 119.235 247.429 117.641 247.086 117.388C246.743 117.135 245.52 117.105 245.52 117.105L246.295 118.043C246.474 118.103 246.28 118.52 246.28 118.52C245.594 118.758 244.938 121.917 244.938 121.917C245.535 121.991 245.878 121.202 247.026 121.068C248.175 120.933 249.248 119.593 249.248 119.593L249.666 119.682L249.651 119.697ZM283.073 124.36C283.073 124.36 284.49 124.628 285.266 124.494C286.041 124.36 286.429 124.568 286.429 124.568L287.309 125.09L287.786 124.315L286.384 123.928L286.026 123.436C286.026 123.436 286.608 121.142 285.087 120.501C285.087 120.501 283.744 122.498 283.73 122.617C283.715 122.736 282.193 122.453 282.193 122.453L282.283 122.825L283.267 123.63L283.073 124.36ZM253.931 101.538C252.947 101.448 251.709 101.255 251.709 101.255L251.65 101.359L252.858 102.163C252.858 102.163 253.081 104.04 253.245 104.264C253.409 104.487 253.827 105.545 253.827 105.545C253.827 105.545 255.542 103.608 255.497 103.281C255.438 102.953 257.481 103.534 257.481 103.534C257.481 103.534 254.901 101.627 253.931 101.552V101.538ZM229.144 103.861L228.592 103.474L227.578 102.7C227.578 102.7 228.816 100.629 227.877 99.2285L227.056 99.8244C227.056 99.8244 225.52 101.225 225.61 101.672C225.699 102.133 223.745 101.627 223.745 101.627L223.716 101.821C223.716 101.821 224.595 102.506 224.581 102.7C224.551 102.893 224.521 103.206 224.521 103.206C224.521 103.206 226.937 103.578 227.161 103.608C227.384 103.638 228.503 104.159 228.503 104.159L229.144 103.861ZM236.735 131.391C238.51 130.408 237.541 127.533 237.541 127.533C237.213 127.235 234.677 130.542 234.677 130.542L233.052 130.333C234.006 132.24 237.541 132.583 237.541 132.583L238.242 133H238.615L238.704 132.359L237.63 132.032L236.735 131.406V131.391ZM203.507 104.219L203.895 103.504L203.313 103.37L202.746 103.102C202.746 103.102 200.509 101.344 198.466 101.463L199.361 102.595C199.361 102.595 199.495 105.545 200.136 105.828C200.778 106.096 201.926 103.578 201.926 103.578L203.089 103.787L203.477 104.219H203.507ZM272.246 116.554C272.246 116.554 271.336 116.047 270.903 115.988C270.456 115.928 268.83 115.839 268.428 115.988L269.502 116.956C269.502 116.956 267.712 119.146 267.921 120.457C267.921 120.457 271.097 119.652 271.53 117.999L272.216 117.894L273.2 118.401L273.916 118.624L273.976 118.192L272.514 117.299L272.231 116.554H272.246ZM299.106 117.492C299.151 117.179 299.941 116.256 299.673 115.466C299.404 114.662 299.106 114.632 299.106 114.632L298.733 114.006C298.733 114.006 297.898 114.721 297.868 114.915C297.838 115.109 297.122 116.032 297.137 116.479C297.152 116.926 295.422 116.39 295.422 116.39L296.272 117.328C296.272 117.328 295.541 118.952 295.661 119.161C295.661 119.161 297.898 119.191 298.972 118.505L300.254 118.997L300.881 119.339L301 118.401C301 118.401 299.046 117.82 299.091 117.507L299.106 117.492ZM201.822 118.282L203.03 119.339C203.03 119.339 204.342 122.513 204.611 122.676C204.894 122.84 205.878 120.487 205.878 120.487L206.863 120.427L207.698 120.919L207.668 120.531C207.668 120.531 204.238 117.537 201.822 118.297V118.282Z" fill="#274862"/>
<rect width="375" height="300" fill="white"/>
<rect width="375" height="276" fill="url(#paint4_linear_1_1326)"/>
<path fill-rule="evenodd" clip-rule="evenodd" d="M200.996 77.2941C201.458 76.9962 201.831 77.3984 201.831 77.3984L202.756 78.0986L203.293 77.8751C203.293 77.8751 202.577 76.8323 202.085 76.6982C201.593 76.5642 201.771 75.7896 199.952 75.4767C198.595 75.2533 198.267 75.0745 198.177 75L198.863 75.9981C198.863 75.9981 197.118 78.2475 197.088 78.5306C197.088 78.5306 200.534 77.607 200.996 77.2941ZM179.758 78.3667C179.251 78.3667 177.864 77.8304 177.148 78.1731L178.312 79.052C178.312 79.052 177.193 82.3889 177.477 82.7911C177.76 83.1934 179.594 81.5398 179.594 81.5398L179.251 80.9141L179.997 81.078L180.728 80.0054L181.488 80.0352L182.353 80.5864L182.905 80.2289L181.966 79.6032C181.966 79.6032 180.251 78.3667 179.743 78.3667H179.758ZM223.278 98.7756C222.979 98.4479 220.146 99.8929 220.071 101.189L218.356 101.323L219.042 101.919C219.042 101.919 220.757 103.096 221.518 103.185C222.278 103.274 222.741 103.558 222.741 103.558L223.292 103.855L223.412 102.932L221.861 102.366C221.861 102.366 223.561 99.1033 223.263 98.7756H223.278ZM258.862 84.6384C259.817 84.7277 260.026 84.8469 260.041 84.9065L260.234 84.4298L258.594 83.7743C258.594 83.7743 258.549 82.9997 258.773 82.9699C258.997 82.9401 259.832 81.1971 260.205 81.1822C260.578 81.1822 257.386 80.4374 256.372 82.4038L256.059 82.5528L254.567 82.4783C254.567 82.4783 255.044 82.7911 255.253 83.0146C255.447 83.238 257.371 84.5043 258.862 84.6384ZM237.133 101.397C237.461 101.755 239.489 101.71 239.489 101.71L240.13 101.919L240.175 101.606L239.534 101.397C239.534 101.397 238.907 101.055 238.863 100.861C238.818 100.667 239.31 99.1927 239.31 99.1927L240.13 98.0903L240.101 97.703C238.922 97.6136 236.476 99.7141 236.476 99.7141L235.149 99.5354C235.507 100.861 236.819 101.025 237.148 101.397H237.133ZM180.042 92.3848C181.503 90.3439 180.4 88.5414 180.4 88.5414C180.4 88.5414 179.669 89.5991 179.356 89.6139C179.057 89.6437 177.7 91.4314 177.7 91.4314L176 91.2675C176.209 91.9379 178.729 93.2786 178.729 93.2786C178.729 93.2786 180.057 93.4574 180.415 93.502C180.787 93.5467 181.295 94.2469 181.295 94.2469L181.638 93.9788L181.861 93.4276L180.012 92.6827L180.057 92.3699L180.042 92.3848ZM210.377 101.144L211.182 101.546L211.436 100.921L210.287 100.548L209.512 99.9376C210.049 99.7141 210.481 97.7477 210.481 97.7477L209.557 97.6285C209.557 97.6285 210.69 97.42 210.735 97.122C210.765 96.839 210.213 95.245 210.213 95.245C210.213 95.245 209.616 96.541 209.288 96.4964C208.96 96.4517 207.588 99.1033 207.588 99.1033L206.067 98.9842C206.768 100.742 210.377 101.144 210.377 101.144ZM256.581 120.376L257.61 120.793V120.436C257.61 120.436 256.581 119.974 256.357 119.914C256.133 119.84 256.148 119.363 256.148 119.363L256.909 118.618L256.685 118.469C256.685 118.469 257.789 117.248 257.803 117.084C257.818 116.92 257.177 116.801 256.894 116.89C256.595 116.98 254.179 117.546 254.194 118.425L252.449 118.395C252.449 118.395 253.285 119.914 256.566 120.376H256.581ZM205.381 92.6083C205.664 93.0105 207.081 91.3718 207.081 91.3718L207.588 90.7163L208.468 89.8821L210.258 90.5525L210.392 90.2098C210.392 90.2098 207.319 87.6327 204.71 88.0945L205.798 88.884C205.798 88.884 205.112 92.206 205.396 92.6083H205.381ZM224.784 87.0964C224.784 87.0964 225.604 88.2881 228.512 88.9287L229.377 89.2266L229.482 89.5543L229.691 89.0776L228.11 87.9753L228.378 87.6327C228.378 87.6327 229.407 85.4726 228.169 84.6681C228.169 84.6681 226.201 86.5154 226.29 86.9772C226.29 86.9772 224.56 86.5005 224.292 86.7835L224.336 86.9772L224.769 87.0964H224.784ZM252.703 105.971C252.255 105.435 251.286 107.073 250.943 107.148C250.6 107.222 249.914 108.533 249.929 108.816L249.78 108.92C249.78 108.92 248.333 108.414 248.214 108.593C248.094 108.786 248.631 109.055 248.631 109.055C248.631 109.055 250.003 110.44 250.555 110.544C251.107 110.663 252.733 110.827 252.733 110.827L253.523 111.215L253.821 111.095C253.821 111.095 252.405 110.068 252.211 110.038C252.032 110.008 253.15 106.507 252.703 105.971ZM258.654 98.3436L258.445 98.433C258.445 98.433 259.548 99.3864 259.698 99.6843C259.847 99.9823 260.1 102.306 260.816 102.604C261.532 102.902 262.084 100.846 262.084 100.846L262.188 100.742L262.651 100.846L263.426 101.353L264.157 101.129C264.157 101.129 260.637 98.2244 258.639 98.3585L258.654 98.3436ZM281.651 108.697L282.218 109.084C282.218 109.084 283.083 109.352 282.77 108.801C282.471 108.235 279.429 106.641 279.086 106.388C278.743 106.135 277.52 106.105 277.52 106.105L278.295 107.043C278.474 107.103 278.28 107.52 278.28 107.52C277.594 107.758 276.938 110.917 276.938 110.917C277.535 110.991 277.878 110.202 279.026 110.068C280.175 109.933 281.248 108.593 281.248 108.593L281.666 108.682L281.651 108.697ZM315.073 113.36C315.073 113.36 316.49 113.628 317.266 113.494C318.041 113.36 318.429 113.568 318.429 113.568L319.309 114.09L319.786 113.315L318.384 112.928L318.026 112.436C318.026 112.436 318.608 110.142 317.087 109.501C317.087 109.501 315.744 111.498 315.73 111.617C315.715 111.736 314.193 111.453 314.193 111.453L314.283 111.825L315.267 112.63L315.073 113.36ZM285.931 90.5376C284.947 90.4482 283.709 90.2545 283.709 90.2545L283.65 90.3588L284.858 91.1632C284.858 91.1632 285.081 93.0403 285.245 93.2637C285.409 93.4872 285.827 94.5448 285.827 94.5448C285.827 94.5448 287.542 92.6083 287.497 92.2805C287.438 91.9528 289.481 92.5337 289.481 92.5337C289.481 92.5337 286.901 90.627 285.931 90.5525V90.5376ZM261.144 92.8615L260.592 92.4742L259.578 91.6995C259.578 91.6995 260.816 89.6289 259.877 88.2285L259.056 88.8244C259.056 88.8244 257.52 90.2247 257.61 90.6716C257.699 91.1334 255.745 90.6269 255.745 90.6269L255.716 90.8206C255.716 90.8206 256.595 91.5059 256.581 91.6995C256.551 91.8932 256.521 92.206 256.521 92.206C256.521 92.206 258.937 92.5785 259.161 92.6083C259.384 92.6381 260.503 93.1594 260.503 93.1594L261.144 92.8615ZM268.735 120.391C270.51 119.408 269.541 116.533 269.541 116.533C269.213 116.235 266.677 119.542 266.677 119.542L265.052 119.333C266.006 121.24 269.541 121.583 269.541 121.583L270.242 122H270.615L270.704 121.359L269.63 121.032L268.735 120.406V120.391ZM235.507 93.219L235.895 92.504L235.313 92.3699L234.746 92.1018C234.746 92.1018 232.509 90.3439 230.466 90.4631L231.361 91.5952C231.361 91.5952 231.495 94.5449 232.136 94.8279C232.778 95.096 233.926 92.5784 233.926 92.5784L235.089 92.787L235.477 93.219H235.507ZM304.246 105.554C304.246 105.554 303.336 105.047 302.903 104.988C302.456 104.928 300.83 104.839 300.428 104.988L301.502 105.956C301.502 105.956 299.712 108.146 299.921 109.457C299.921 109.457 303.097 108.652 303.53 106.999L304.216 106.894L305.2 107.401L305.916 107.624L305.976 107.192L304.514 106.299L304.231 105.554H304.246ZM331.106 106.492C331.151 106.179 331.941 105.256 331.673 104.466C331.404 103.662 331.106 103.632 331.106 103.632L330.733 103.006C330.733 103.006 329.898 103.721 329.868 103.915C329.838 104.109 329.122 105.032 329.137 105.479C329.152 105.926 327.422 105.39 327.422 105.39L328.272 106.328C328.272 106.328 327.541 107.952 327.661 108.161C327.661 108.161 329.898 108.191 330.972 107.505L332.254 107.997L332.881 108.339L333 107.401C333 107.401 331.046 106.82 331.091 106.507L331.106 106.492ZM233.822 107.282L235.03 108.339C235.03 108.339 236.342 111.513 236.611 111.676C236.894 111.84 237.878 109.487 237.878 109.487L238.863 109.427L239.698 109.919L239.668 109.531C239.668 109.531 236.238 106.537 233.822 107.297V107.282Z" fill="#5E859F"/>
<path style="mix-blend-mode:screen" fill-rule="evenodd" clip-rule="evenodd" d="M152.463 178.709C152.463 178.608 152.463 178.491 152.463 178.374C152.463 176.497 151.276 174.939 149.706 174.52C149.622 170.08 147.316 165.137 143.874 167.08C144.342 163.494 140.298 163.193 138.26 163.83C137.658 162.556 136.856 160.612 135.703 159.976C133.848 158.937 134.132 160.327 132.712 160.596C130.941 160.931 129.103 159.573 127.883 162.087C124.909 159.255 119.812 161.484 117.657 159.021C116.771 158.015 116.938 156.172 116.019 155.384C115.1 154.597 112.878 154.563 111.725 154.379C112.844 150.659 112.31 146.872 108.299 146.135C108.299 141.862 106.328 138.896 102.702 137.489C101.114 136.869 97.7224 136.785 96.2686 137.858C95.8175 133.199 91.0051 135.11 89.5013 132.496C89.0501 131.725 90.0193 130.468 89.635 129.563C88.6157 127.184 83.3355 123.967 81.1131 124C79.0912 124.017 79.392 125.156 78.1889 125.776C77.1362 126.313 75.9332 125.927 74.68 126.296C72.4409 126.983 71.9062 129.697 70.2018 130.719C68.9987 131.44 67.144 130.988 65.8406 130.988C64.1195 130.988 62.7661 130.619 61.1452 130.368C58.9563 130.016 59.6247 130.2 58.0874 131.306C56.7506 132.278 58.4383 132.563 56.1491 133.199C52.5565 134.188 53.0578 132.579 51.0193 136.132C50.4177 137.187 48.4126 140.723 46.8419 140.79C45.3715 140.857 44.7198 138.31 43.0488 138.31C41.5784 138.31 39.2056 141.242 38.4537 142.7C35.9473 141.46 29.4974 141.242 27.2918 142.968C23.482 143.119 18.6864 145.632 19.1041 151.095C16.5141 151.631 13.7905 148.648 11.2172 150.911C9.88046 152.083 9.51285 154.295 9.44601 156.373C6.72236 155.518 1.70952 156.691 -0.74678 158.568C1.12469 152.234 -5.8599 152.368 -9.35219 152.871C-11.1902 153.139 -17.59 157.613 -17.7236 160.445C-23.3548 161.333 -20.6979 168.739 -19.2442 172.459C-21.901 173.364 -23.8226 176.681 -25.6774 179.128C-27.9499 178.123 -30.7237 177.838 -32.6285 178.29C-33.3805 178.474 -33.6812 179.865 -34.4165 179.865C-35.2018 179.865 -36.8895 178.257 -37.7918 177.988C-42.1028 176.665 -42.8715 179.597 -46.18 181.038C-48.4357 182.027 -50.1067 179.446 -52.3959 179.798C-54.5848 180.15 -55.036 182.663 -56.874 183.853C-58.5784 184.959 -61.0347 184.708 -62.8895 185.512C-65.5296 186.635 -65.6465 188.293 -67.518 189.986C-69.5398 191.795 -71.4781 190.053 -73.5835 190.924C-74.2185 191.192 -74.3188 192.214 -74.8869 192.533C-76.09 193.186 -77.4434 193.354 -78.7301 193.773C-82.2391 194.895 -84.2943 196.353 -82.8406 201.011C-82.3393 202.586 -81.7712 203.709 -81.153 204.513C-82.0887 205.318 -82.874 206.34 -83.4254 207.513C-83.6594 207.429 -83.9267 207.379 -84.1774 207.379C-85.5141 207.379 -86.5836 208.568 -86.5836 210.043C-86.5836 210.294 -86.5501 210.529 -86.5 210.747C-87.4023 211.45 -88.0039 212.623 -88.0039 213.947C-88.0039 214.399 -87.937 214.852 -87.8033 215.254C-88.7057 216.075 -89.3573 217.214 -89.608 218.521C-89.9087 218.371 -90.2429 218.287 -90.5938 218.287C-91.9306 218.287 -93 219.477 -93 220.951C-93 222.426 -91.9139 223.615 -90.5938 223.615C-89.9254 223.615 -89.3239 223.314 -88.8895 222.828C-87.9537 224.42 -86.3496 225.458 -84.5116 225.458C-83.108 225.458 -81.8213 224.838 -80.8856 223.833C-80.0167 225.71 -78.2622 227 -76.2404 227H154V179.949C153.566 179.463 153.048 179.061 152.479 178.776L152.463 178.709Z" fill="url(#paint5_linear_1_1326)"/>
<path style="mix-blend-mode:screen" fill-rule="evenodd" clip-rule="evenodd" d="M382.715 110.91C382.514 110.676 382.296 110.441 382.079 110.224C382.146 110.123 382.229 110.023 382.28 109.906C382.866 108.617 382.615 106.743 381.409 106.023C381.291 105.956 381.174 105.872 381.04 105.805C381.074 104.851 380.755 103.864 380.068 103.312C379.968 102.81 379.767 102.341 379.432 101.956C379.348 101.856 379.264 101.772 379.181 101.672C378.578 100.985 377.656 100.718 376.852 100.935C376.584 100.651 376.283 100.45 375.897 100.383C375.797 100.366 375.696 100.333 375.596 100.316C375.596 100.316 375.579 100.316 375.562 100.299C375.546 100.266 375.512 100.249 375.512 100.232C375.395 100.098 375.277 99.9813 375.143 99.8808C375.009 99.68 374.842 99.4959 374.658 99.3453C374.557 98.9269 374.373 98.5252 374.038 98.2239C373.787 97.9896 373.552 97.7721 373.301 97.5377C372.916 96.885 372.346 96.4332 371.626 96.316L371.24 95.6633C371.19 95.5796 371.123 95.496 371.073 95.429C371.492 94.8433 371.776 94.1403 371.743 93.3203C371.709 92.2324 371.274 91.2785 370.52 90.6592C370.57 89.8894 370.369 89.1195 369.833 88.6007L369.314 88.1153C369.197 87.8978 369.096 87.6802 368.962 87.4794C369.046 87.2116 369.096 86.927 369.096 86.6091V85.7555C369.096 84.5003 368.275 83.2953 367.237 82.994C367.454 82.2577 367.421 81.4041 367.069 80.6175C366.985 80.4334 366.902 80.2326 366.818 80.0485C366.483 79.2787 365.763 78.7933 365.009 78.6761C365.193 77.5214 364.841 76.2327 363.937 75.6135C364.087 75.2453 364.188 74.8268 364.188 74.3917V74.1072C364.188 72.6176 363.066 71.1951 361.742 71.2621C360.804 71.3123 359.967 71.9148 359.565 72.8353C359.397 72.7683 359.246 72.7014 359.062 72.6679C358.09 71.6302 356.566 71.5466 355.594 72.6679C355.511 72.7683 355.427 72.852 355.343 72.9524C355.226 73.0863 355.125 73.2536 355.025 73.421C354.958 73.4544 354.874 73.4712 354.79 73.5047C354.707 73.0026 354.489 72.5172 354.154 72.1156C354.07 72.0151 353.986 71.9315 353.902 71.8311C353.45 71.3123 352.83 71.0278 352.194 71.011C351.926 70.2412 351.39 69.5884 350.619 69.3709C350.301 69.2704 349.966 69.1867 349.631 69.0863C348.391 68.7181 346.917 69.5549 346.616 71.0779C346.465 71.8813 346.599 72.7348 346.967 73.4043C346.063 73.3206 345.158 73.3373 344.254 73.4712C343.935 73.0194 343.466 72.6344 342.997 72.5005C341.875 72.1993 340.334 72.8687 340.032 74.3247C339.731 74.5423 339.463 74.8268 339.262 75.2285C339.144 75.4628 339.061 75.7641 338.994 76.0653C338.776 76.2996 338.558 76.5507 338.374 76.8185C338.34 76.8185 338.307 76.8184 338.273 76.8352C337.251 77.2201 336.431 78.2243 336.33 79.4962C336.263 79.5799 336.179 79.6636 336.112 79.764C335.224 80.2661 333.734 81.3539 333.348 81.7723C332.913 82.241 332.611 82.7765 332.41 83.3455C332.377 83.3455 332.326 83.3623 332.293 83.379C331.589 82.6426 330.836 81.9899 329.981 81.4376C329.83 79.9816 328.775 78.8268 327.502 78.4586C326.128 78.0736 324.487 78.6594 323.096 78.877C322.158 79.0276 321.471 80.1489 321.321 81.2535C321.036 81.3037 320.768 81.4042 320.533 81.5715C319.428 82.3916 319.093 83.8309 319.562 85.1865C319.562 85.1865 319.562 85.2033 319.562 85.2367C319.562 85.2367 319.562 85.2702 319.562 85.2869C319.562 85.3539 319.562 85.3706 319.562 85.3204C319.528 85.6216 319.528 85.9396 319.562 86.2242C319.16 86.5421 318.758 86.8601 318.456 87.1446H318.289C317.937 87.1446 317.602 87.245 317.283 87.4124C317.149 87.4291 317.032 87.4626 316.898 87.5296C316.496 87.7137 316.077 87.9145 315.675 88.0986C315.055 88.3831 314.553 88.7178 314.218 89.404C314.034 89.7555 313.933 90.2073 313.9 90.6592C313.112 90.4584 312.275 90.6592 311.655 91.3789L310.918 92.2324C310.164 93.1194 309.996 94.6089 310.533 95.6801C309.879 95.998 309.36 96.6173 309.109 97.4875C309.025 97.7721 308.941 98.0566 308.857 98.3411C308.757 98.6926 308.74 99.044 308.774 99.4122C308.087 99.8474 307.685 100.651 307.601 101.521C307.299 101.638 307.015 101.772 306.747 101.923C305.959 101.052 304.854 100.902 303.815 101.488C303.48 101.672 303.162 101.856 302.827 102.04C301.688 102.692 301.269 104.667 301.939 105.906C301.788 106.006 301.621 106.09 301.47 106.207C301.135 106.006 300.766 105.889 300.381 105.906C299.644 105.939 298.974 106.341 298.522 106.943C297.584 106.257 296.243 106.324 295.456 107.312C295.406 107.379 295.356 107.462 295.322 107.529C294.954 107.245 294.501 107.061 294.015 107.061H293.278C292.022 107.061 290.816 108.316 290.833 109.822C290.431 109.973 290.062 110.224 289.777 110.609C288.839 111.027 288.085 111.964 288.136 113.236C288.136 113.437 288.169 113.655 288.219 113.855C287.817 114.525 287.466 115.245 287.164 116.014C286.997 116.081 286.812 116.148 286.661 116.265C285.556 117.002 285.12 118.157 284.953 119.563C284.886 120.232 285.271 121.119 285.673 121.571C285.774 121.688 285.891 121.805 286.025 121.906C286.025 122.006 286.025 122.123 286.025 122.224C286.025 122.341 286.025 122.458 286.025 122.575C285.941 122.675 285.908 122.726 286.025 122.625C286.008 122.642 285.991 122.659 285.958 122.675C285.573 122.977 285.254 123.412 285.104 123.964C285.087 124.031 285.053 124.098 285.037 124.182C284.869 124.868 284.953 125.772 285.288 126.374C285.388 126.541 285.506 126.692 285.623 126.843C285.656 126.893 285.673 126.943 285.707 126.977C285.673 127.01 285.64 127.044 285.589 127.077C284.97 126.274 283.931 125.872 283.077 126.19C281.77 126.675 281.117 128.064 281.351 129.604C281.301 129.989 281.284 130.391 281.351 130.776C281.15 130.993 280.949 131.194 280.748 131.395C278.57 129.805 275.924 129.286 273.344 129.805C269.809 125.454 262.824 126.592 260.227 132.198C259.758 132.232 259.273 132.299 258.787 132.399C258.586 132.449 258.234 132.583 257.799 132.784C257.329 131.428 256.123 130.608 254.85 130.993L253.879 131.295C253.326 131.462 252.857 131.897 252.538 132.433C252.103 132.115 251.651 131.813 251.182 131.596C251.064 131.244 250.897 130.91 250.646 130.625C250.562 130.525 250.478 130.441 250.394 130.341C249.925 129.805 249.255 129.521 248.602 129.521C248.518 128.985 248.317 128.466 247.965 128.048C247.798 127.864 247.647 127.663 247.48 127.479C246.977 126.893 246.24 126.625 245.536 126.675C245.235 126.106 244.766 125.638 244.163 125.403C243.911 125.303 243.677 125.219 243.426 125.119C242.873 124.901 242.253 125.002 241.717 125.32L241.315 125.085C240.36 124.533 239.104 124.634 238.35 125.521C237.764 124.634 236.792 124.249 235.77 124.483C235.368 124.583 234.949 124.667 234.547 124.767C234.011 124.885 233.576 125.286 233.257 125.805C233.207 125.839 233.174 125.872 233.123 125.922C231.649 125.956 230.209 126.19 228.919 126.726L228.835 126.642C227.93 125.588 226.272 125.504 225.367 126.642C225.233 126.809 225.15 126.977 225.049 127.161C225.032 125.772 224.245 124.383 222.687 124.383C222.084 124.383 221.598 124.617 221.23 124.952C219.906 125.018 218.784 126.207 218.784 127.797V129.219C218.784 129.504 218.834 129.788 218.918 130.073C218.885 130.073 218.834 130.073 218.801 130.073C217.477 130.14 216.355 131.328 216.355 132.918V133.487C216.355 133.738 216.389 133.989 216.456 134.24C216.087 134.725 215.869 135.345 215.869 136.048V137.186C215.869 138.006 216.221 138.792 216.74 139.328C215.953 139.579 215.316 140.282 215.032 141.269C214.981 141.42 214.948 141.587 214.898 141.755C214.311 142.19 213.775 142.742 213.34 143.378C213.155 142.508 212.636 141.771 211.949 141.42C211.949 139.997 210.911 138.675 209.654 138.625C209.604 138.324 209.537 138.039 209.403 137.738C209.319 137.554 209.236 137.353 209.152 137.169C208.901 136.6 208.448 136.198 207.929 135.981C207.661 134.742 206.74 133.772 205.567 133.772H205.081C204.327 133.772 203.607 134.223 203.138 134.91C202.753 133.922 201.932 133.202 200.927 133.202H200.676C200.374 133.202 200.089 133.286 199.821 133.403C199.436 133.102 198.984 132.918 198.464 132.918H197.979C196.823 132.918 195.717 133.989 195.55 135.311C194.997 135.177 194.377 135.261 193.807 135.596C193.64 135.696 193.489 135.78 193.322 135.88C192.869 136.148 192.534 136.633 192.35 137.186C192.266 137.119 192.182 137.035 192.099 136.985C190.993 136.299 189.368 136.583 188.748 138.006L188.564 138.458C188.464 138.591 188.363 138.725 188.279 138.859C188.196 138.976 188.129 139.11 188.045 139.227C187.559 139.311 187.107 139.562 186.721 139.997C186.638 140.098 186.554 140.181 186.47 140.282C186.386 140.366 186.336 140.483 186.269 140.583H186.236C185.448 140.583 184.694 141.068 184.225 141.805C183.874 141.571 183.488 141.437 183.053 141.437H182.316C181.629 141.437 180.976 141.805 180.507 142.391C180.306 142.324 180.088 142.273 179.87 142.29C178.982 142.34 178.195 142.893 177.759 143.729C176.034 143.261 174.376 143.227 173.086 144.181C171.511 145.353 171.193 147.16 171.461 148.968C169.953 150.34 169.97 152.918 170.975 155.21C169.903 156.415 169.384 158.022 169.786 159.562C168.965 160.817 168.579 162.34 168.63 164.248C168.63 164.599 168.713 164.984 168.847 165.353C168.395 166.507 168.345 167.796 168.73 169.001C168.697 169.152 168.697 169.319 168.68 169.486C168.646 169.57 168.63 169.654 168.596 169.737C168.362 169.654 168.11 169.587 167.842 169.604C166.519 169.67 165.397 170.859 165.397 172.449V172.733C165.397 173.47 165.681 174.173 166.117 174.691C165.849 174.825 165.598 175.009 165.38 175.26C165.296 175.361 165.212 175.444 165.129 175.545C164.442 176.348 164.241 177.654 164.626 178.691C164.559 178.775 164.492 178.875 164.425 178.976C164.425 178.976 164.425 178.976 164.408 178.976C163.554 179.026 162.783 179.528 162.348 180.315C162.08 180.198 161.778 180.114 161.477 180.114H161.091C160.807 179.11 160.053 178.29 159.132 178.139C159.031 177.704 158.83 177.302 158.545 176.967C158.378 176.783 158.227 176.583 158.059 176.398C157.708 175.997 157.255 175.729 156.77 175.629C156.636 175.545 156.485 175.461 156.334 175.378C155.195 174.708 153.637 174.976 152.984 176.382C152.816 176.231 152.649 176.097 152.481 175.98C152.397 175.829 152.297 175.679 152.18 175.545C152.096 175.444 152.012 175.361 151.928 175.26C151.208 174.424 150.035 174.223 149.114 174.708C149.014 174.507 148.896 174.29 148.729 174.122C148.645 174.022 148.561 173.938 148.478 173.838C147.573 172.783 145.915 172.7 145.01 173.838C144.943 173.921 144.909 174.005 144.859 174.072C144.775 174.022 144.708 173.988 144.641 173.938C144.424 173.821 144.172 173.737 143.921 173.687C143.067 172.599 141.961 171.846 140.454 171.361C139.415 171.026 138.226 171.578 137.69 172.666C136.835 174.407 136.366 175.997 136.299 177.821C135.311 178.541 134.791 179.612 134.708 180.783C134.021 180.967 133.351 181.235 132.714 181.57C131.491 179.813 129.565 179.009 127.555 179.829C125.947 178.926 123.92 179.428 122.764 181.486C122.278 182.356 122.312 183.528 121.876 184.482C121.424 185.469 120.452 186.072 120 187.176C119.966 187.277 119.933 187.361 119.899 187.461C117.269 187.093 114.824 187.762 113.316 190.289C111.423 190.407 109.664 191.327 109.028 192.967C107.101 193.051 105.158 193.268 103.868 195.16C103.382 195.879 103.114 196.683 103.03 197.503C101.54 198.289 100.534 199.729 100.601 201.352C99.3953 202.691 98.8928 204.632 99.5796 206.624C99.2781 207.929 99.4121 209.134 99.9314 210.172C98.5242 212.465 97.6699 215.394 97.1339 217.971C96.0785 223.042 101.523 226.239 104.371 228.933C105.61 230.105 107.101 229.636 107.972 228.598C108.877 228.565 109.681 228.197 110.284 227.594C111.607 229.653 113.885 231.008 116.499 231.008C118.509 231.008 120.335 230.205 121.658 228.883C122.881 231.326 125.377 233 128.258 233H128.292H383V110.458C382.866 110.609 382.732 110.776 382.615 110.927L382.715 110.91ZM163.169 185.051C163.42 185.235 163.688 185.386 163.973 185.453C163.939 185.553 163.906 185.637 163.872 185.737C163.671 185.737 163.453 185.754 163.252 185.771C163.185 185.57 163.102 185.369 163.018 185.185C163.068 185.135 163.118 185.101 163.169 185.051ZM141.375 179.629C141.375 179.629 141.375 179.629 141.358 179.629C141.358 179.629 141.358 179.595 141.358 179.578C141.358 179.578 141.375 179.595 141.392 179.612L141.375 179.629Z" fill="url(#paint6_linear_1_1326)"/>
<path style="mix-blend-mode:screen" fill-rule="evenodd" clip-rule="evenodd" d="M381.44 195.068C381.44 195.068 381.44 194.899 381.44 194.798C381.44 193.333 380.249 192.088 378.672 191.768C378.588 188.266 376.272 184.393 372.816 185.909C373.286 183.097 369.226 182.861 367.179 183.349C366.575 182.356 365.77 180.824 364.612 180.319C362.75 179.511 363.035 180.588 361.609 180.807C359.831 181.077 357.985 179.999 356.76 181.969C353.774 179.746 348.657 181.497 346.493 179.561C345.604 178.77 345.771 177.322 344.849 176.699C343.926 176.076 341.695 176.059 340.537 175.908C341.661 172.978 341.124 169.998 337.098 169.409C337.098 166.042 335.118 163.718 331.477 162.607C329.884 162.119 326.478 162.051 325.018 162.893C324.565 159.24 319.733 160.721 318.223 158.684C317.77 158.078 318.743 157.085 318.358 156.378C317.334 154.509 312.033 151.983 309.801 152C307.771 152.017 308.073 152.909 306.865 153.398C305.808 153.818 304.6 153.515 303.342 153.818C301.094 154.357 300.557 156.495 298.846 157.287C297.638 157.842 295.776 157.506 294.467 157.489C292.739 157.489 291.38 157.203 289.753 157C287.555 156.731 288.226 156.866 286.682 157.741C285.34 158.499 287.035 158.735 284.736 159.223C281.129 159.997 281.632 158.735 279.586 161.529C278.982 162.354 276.968 165.149 275.391 165.2C273.915 165.25 273.261 163.247 271.6 163.247C270.123 163.247 267.741 165.553 266.986 166.698C264.469 165.722 258.01 165.553 255.779 166.9C251.954 167.018 247.139 169.005 247.558 173.298C244.958 173.719 242.223 171.379 239.639 173.147C238.297 174.073 237.928 175.807 237.861 177.457C235.126 176.783 230.093 177.709 227.627 179.191C229.506 174.207 222.493 174.325 218.986 174.712C217.141 174.914 210.715 178.45 210.581 180.672C204.927 181.38 207.595 187.205 209.054 190.118C206.387 190.825 204.457 193.434 202.595 195.371C200.313 194.579 197.528 194.344 195.616 194.714C194.861 194.849 194.559 195.943 193.821 195.96C193.032 195.96 191.338 194.697 190.432 194.478C186.103 193.434 185.331 195.741 182.01 196.869C179.745 197.644 178.067 195.606 175.769 195.893C173.571 196.162 173.118 198.149 171.272 199.091C169.561 199.95 167.095 199.765 165.232 200.388C162.582 201.263 162.464 202.577 160.585 203.907C158.555 205.321 156.609 203.957 154.495 204.648C153.858 204.85 153.757 205.658 153.186 205.91C151.979 206.432 150.62 206.567 149.328 206.887C145.805 207.779 143.741 208.907 145.201 212.577C145.704 213.823 146.274 214.699 146.895 215.322C145.956 215.962 145.167 216.753 144.613 217.679C144.378 217.612 144.11 217.578 143.858 217.578C142.516 217.578 141.442 218.521 141.442 219.666C141.442 219.851 141.476 220.053 141.526 220.221C140.62 220.777 140.016 221.703 140.016 222.73C140.016 223.083 140.083 223.437 140.218 223.757C139.312 224.397 138.657 225.306 138.406 226.333C138.104 226.215 137.768 226.148 137.416 226.148C136.074 226.148 135 227.09 135 228.235C135 229.38 136.091 230.34 137.416 230.34C138.087 230.34 138.691 230.104 139.127 229.717C140.067 230.963 141.677 231.788 143.523 231.788C144.932 231.788 146.224 231.3 147.163 230.508C148.036 231.99 149.797 233 151.828 233H383V195.977C382.564 195.59 382.044 195.27 381.473 195.051L381.44 195.068Z" fill="url(#paint7_linear_1_1326)"/>
<g clip-path="url(#clip1_1_1326)">
<path d="M466.984 231.518C466.368 223.737 461.927 214.604 447.433 207.713V174.8H446.12L446.11 171.605C445.638 169.829 446.597 169.946 447.433 167.904V166.972H447.792C448.228 166.972 448.587 166.619 448.587 166.178C448.587 165.738 448.233 165.385 447.792 165.385H447.838C447.838 165.385 448.715 159.968 443.787 159.497L443.735 158.351C444.125 158.125 444.387 157.706 444.387 157.224C444.387 156.702 444.079 156.257 443.638 156.047L443.551 153.938C443.817 153.779 443.997 153.487 443.997 153.159C443.997 152.801 443.787 152.494 443.484 152.34L443.079 142.782L442.674 152.34C442.371 152.489 442.161 152.796 442.161 153.159C442.161 153.492 442.34 153.779 442.607 153.938L442.52 156.047C442.079 156.257 441.771 156.702 441.771 157.224C441.771 157.706 442.033 158.125 442.422 158.351L442.376 159.497C437.442 159.968 438.325 165.385 438.325 165.385H438.371C437.935 165.385 437.576 165.738 437.576 166.178C437.576 166.619 437.93 166.972 438.371 166.972H438.73V167.904C439.566 169.941 440.525 169.829 440.053 171.605L440.043 174.8H438.73V204.273C436.909 203.679 434.991 203.105 432.945 202.568C432.96 200.341 431.58 197.392 424.944 195.948L424.893 194.771C425.339 194.51 425.646 194.028 425.646 193.47C425.646 192.866 425.293 192.354 424.78 192.109L424.677 189.677C424.985 189.493 425.19 189.16 425.19 188.776C425.19 188.361 424.949 188.008 424.6 187.834L424.164 177.544C424.236 177.544 424.308 177.554 424.385 177.554C425.831 177.554 427.17 176.832 427.96 175.619L428.149 175.327L427.883 175.547C427.139 176.166 426.19 176.509 425.221 176.509C422.928 176.509 421.056 174.646 421.056 172.352C421.056 171.544 421.287 170.76 421.728 170.084L421.918 169.793L421.651 170.013C420.672 170.827 420.113 172.02 420.113 173.289C420.113 174.426 420.559 175.496 421.364 176.3C422.103 177.037 423.067 177.467 424.103 177.533L423.667 187.829C423.318 188.003 423.077 188.356 423.077 188.771C423.077 189.155 423.282 189.487 423.59 189.672L423.487 192.103C422.974 192.344 422.621 192.861 422.621 193.465C422.621 194.023 422.923 194.505 423.374 194.766L423.323 195.943C416.687 197.387 415.307 200.336 415.322 202.563C410.819 203.74 406.891 205.076 403.455 206.53C402.901 205.65 402.224 204.774 401.413 203.909V179.955H402.48L405.788 177.61H401.408V148.05H402.475L405.783 145.705H401.403V116.145H402.47L405.778 113.801H401.398V109.464H402.121C402.639 109.464 403.055 109.045 403.055 108.533C403.055 108.021 402.634 107.601 402.121 107.601H402.173C402.173 107.601 403.208 101.227 397.403 100.674L397.346 99.3227C397.803 99.0565 398.116 98.565 398.116 97.9967C398.116 97.3824 397.752 96.8551 397.234 96.6094L397.131 94.1264C397.444 93.937 397.654 93.5991 397.654 93.21C397.654 92.7851 397.408 92.4267 397.054 92.2475L396.577 81L396.1 92.2475C395.746 92.4216 395.5 92.7851 395.5 93.21C395.5 93.5991 395.71 93.937 396.023 94.1264L395.916 96.6094C395.392 96.8551 395.033 97.3824 395.033 97.9967C395.033 98.565 395.346 99.0565 395.803 99.3227L395.746 100.674C389.941 101.232 390.977 107.601 390.977 107.601H391.028C390.51 107.601 390.094 108.021 390.094 108.533C390.094 109.045 390.515 109.464 391.028 109.464H391.751V113.801H387.371L390.679 116.145H391.746V145.705H387.366L390.674 148.05H391.741V177.61H387.361L390.669 179.955H391.736V197.571C388.325 196.122 384.145 194.853 379.011 193.865L378.996 193.481C379.283 193.312 379.473 193.01 379.473 192.656C379.473 192.272 379.247 191.945 378.924 191.791L378.858 190.25C379.052 190.132 379.181 189.923 379.181 189.677C379.181 189.416 379.027 189.19 378.806 189.078L378.529 182.545C378.575 182.545 378.622 182.55 378.668 182.55C379.586 182.55 380.437 182.09 380.94 181.322L381.063 181.137L380.894 181.281C380.422 181.675 379.822 181.89 379.206 181.89C377.75 181.89 376.565 180.707 376.565 179.254C376.565 178.742 376.714 178.245 376.991 177.815L377.114 177.631L376.945 177.774C376.324 178.291 375.97 179.049 375.97 179.852C375.97 180.574 376.252 181.255 376.765 181.762C377.232 182.228 377.847 182.504 378.504 182.545L378.227 189.078C378.006 189.185 377.852 189.411 377.852 189.677C377.852 189.917 377.986 190.132 378.175 190.25L378.109 191.791C377.786 191.945 377.56 192.272 377.56 192.656C377.56 193.01 377.755 193.317 378.037 193.481L378.022 193.865C371.754 195.073 366.897 196.701 363.143 198.564C357.717 193.813 348.809 189.554 334.525 186.882C328.817 187.952 323.976 189.272 319.862 190.778C317.683 188.167 314.744 185.622 310.872 183.262V173.243H311.631L313.985 171.574H310.872V150.559H311.631L313.985 148.89H310.872V127.874H311.631L313.985 126.205H310.872V123.123H311.385C311.749 123.123 312.046 122.826 312.046 122.463C312.046 122.099 311.749 121.802 311.385 121.802H311.421C311.421 121.802 312.154 117.272 308.031 116.877L307.99 115.915C308.313 115.726 308.538 115.377 308.538 114.973C308.538 114.538 308.282 114.164 307.907 113.985L307.831 112.219C308.051 112.086 308.2 111.845 308.2 111.569C308.2 111.267 308.025 111.011 307.774 110.888L307.436 102.891L307.097 110.888C306.846 111.011 306.671 111.272 306.671 111.569C306.671 111.845 306.82 112.086 307.041 112.219L306.964 113.985C306.595 114.159 306.333 114.538 306.333 114.973C306.333 115.377 306.553 115.726 306.882 115.915L306.841 116.877C302.712 117.272 303.451 121.802 303.451 121.802H303.487C303.117 121.802 302.825 122.099 302.825 122.463C302.825 122.826 303.122 123.123 303.487 123.123H303.999V126.205H300.886L303.24 127.874H303.999V148.89H300.886L303.24 150.559H303.999V171.574H300.886L303.24 173.243H303.999V179.735C300.414 178.178 296.276 176.75 291.491 175.496C291.506 173.269 290.126 170.32 283.49 168.876L283.439 167.699C283.885 167.438 284.192 166.956 284.192 166.398C284.192 165.794 283.839 165.282 283.326 165.037L283.223 162.605C283.531 162.421 283.736 162.088 283.736 161.704C283.736 161.289 283.495 160.936 283.146 160.762L282.71 150.472C282.782 150.472 282.854 150.482 282.931 150.482C284.377 150.482 285.716 149.76 286.505 148.547L286.695 148.255L286.429 148.475C285.685 149.095 284.736 149.438 283.767 149.438C281.474 149.438 279.602 147.574 279.602 145.28C279.602 144.472 279.833 143.688 280.274 143.013L280.464 142.721L280.197 142.941C279.218 143.755 278.659 144.948 278.659 146.217C278.659 147.354 279.105 148.424 279.91 149.228C280.649 149.965 281.613 150.395 282.649 150.461L282.213 160.757C281.864 160.931 281.623 161.284 281.623 161.699C281.623 162.083 281.828 162.415 282.136 162.6L282.033 165.032C281.52 165.272 281.167 165.789 281.167 166.393C281.167 166.951 281.469 167.433 281.92 167.694L281.869 168.871C275.233 170.315 273.853 173.264 273.868 175.491C269.678 176.586 265.986 177.82 262.724 179.156V143.222H261.149L261.139 139.388C260.575 137.253 261.724 137.396 262.729 134.949V133.828H263.165C263.693 133.828 264.119 133.403 264.119 132.876C264.119 132.349 263.693 131.924 263.165 131.924H263.221C263.221 131.924 264.278 125.422 258.354 124.854L258.298 123.477C258.764 123.205 259.082 122.703 259.082 122.125C259.082 121.5 258.713 120.963 258.18 120.707L258.072 118.178C258.39 117.983 258.605 117.64 258.605 117.241C258.605 116.811 258.354 116.442 257.99 116.263L257.503 104.785L257.016 116.263C256.651 116.442 256.4 116.811 256.4 117.241C256.4 117.64 256.616 117.983 256.934 118.178L256.826 120.707C256.292 120.958 255.923 121.495 255.923 122.125C255.923 122.703 256.241 123.205 256.708 123.477L256.651 124.854C250.728 125.422 251.784 131.924 251.784 131.924H251.841C251.313 131.924 250.887 132.349 250.887 132.876C250.887 133.403 251.313 133.828 251.841 133.828H252.277V134.949C253.282 137.396 254.431 137.258 253.867 139.388L253.856 143.222H252.282V184.701C249.559 186.59 247.379 188.581 245.656 190.609C243.543 184.153 237.106 177.262 220.961 173.038C220.971 171.369 219.94 169.163 214.966 168.078L214.93 167.197C215.268 167.003 215.494 166.639 215.494 166.224C215.494 165.774 215.227 165.385 214.842 165.206L214.766 163.383C214.996 163.245 215.15 162.994 215.15 162.707C215.15 162.395 214.971 162.129 214.709 162.001L214.381 154.291C214.437 154.291 214.489 154.301 214.545 154.301C215.632 154.301 216.632 153.758 217.227 152.847L217.371 152.627L217.171 152.796C216.612 153.262 215.904 153.518 215.176 153.518C213.458 153.518 212.058 152.12 212.058 150.405C212.058 149.801 212.232 149.212 212.56 148.705L212.704 148.485L212.504 148.654C211.77 149.263 211.35 150.159 211.35 151.106C211.35 151.961 211.683 152.76 212.288 153.364C212.842 153.917 213.565 154.24 214.34 154.291L214.012 162.006C213.75 162.134 213.571 162.4 213.571 162.712C213.571 162.999 213.724 163.25 213.955 163.388L213.878 165.211C213.494 165.395 213.227 165.779 213.227 166.229C213.227 166.644 213.458 167.008 213.791 167.202L213.755 168.083C208.786 169.163 207.75 171.375 207.76 173.044C188.066 178.199 182.814 187.317 182.24 194.776C172.854 197.095 167.177 200.443 163.858 204.047C161.289 203.167 158.458 202.348 155.319 201.621V200.863H156.386L159.694 198.518H155.314V168.958H156.381L159.689 166.613H155.309V137.053H156.376L159.684 134.709H155.304V130.372H156.027C156.545 130.372 156.96 129.953 156.96 129.441C156.96 128.929 156.54 128.509 156.027 128.509H156.078C156.078 128.509 157.114 122.135 151.308 121.582L151.252 120.231C151.709 119.965 152.021 119.473 152.021 118.905C152.021 118.29 151.657 117.763 151.139 117.517L151.037 115.034C151.35 114.845 151.56 114.507 151.56 114.118C151.56 113.693 151.314 113.335 150.96 113.156L150.483 101.908L150.006 113.156C149.652 113.33 149.406 113.693 149.406 114.118C149.406 114.507 149.616 114.845 149.929 115.034L149.826 117.517C149.303 117.763 148.944 118.29 148.944 118.905C148.944 119.473 149.257 119.965 149.713 120.231L149.657 121.582C143.851 122.14 144.887 128.509 144.887 128.509H144.939C144.421 128.509 144.005 128.929 144.005 129.441C144.005 129.953 144.426 130.372 144.939 130.372H145.662V134.709H141.282L144.59 137.053H145.657V166.613H141.277L144.585 168.958H145.652V198.518H141.272L144.58 200.863H145.646V201.621C138.061 203.387 132.22 205.639 127.747 208.174C128.265 200.387 125.537 190.363 111.843 182.55V156.067H110.53L110.52 152.873C110.048 151.096 111.007 151.214 111.843 149.171V148.24H112.202C112.638 148.24 112.997 147.886 112.997 147.446C112.997 147.006 112.643 146.653 112.202 146.653H112.248C112.248 146.653 113.125 141.236 108.197 140.765L108.146 139.618C108.535 139.393 108.797 138.973 108.797 138.492C108.797 137.97 108.489 137.524 108.048 137.309L107.961 135.2C108.228 135.041 108.407 134.75 108.407 134.422C108.407 134.064 108.197 133.756 107.894 133.603L107.489 124.045L107.084 133.603C106.781 133.751 106.571 134.059 106.571 134.422C106.571 134.755 106.751 135.041 107.017 135.2L106.93 137.309C106.489 137.519 106.181 137.965 106.181 138.492C106.181 138.973 106.448 139.393 106.833 139.618L106.786 140.765C101.853 141.236 102.735 146.653 102.735 146.653H102.781C102.345 146.653 101.986 147.006 101.986 147.446C101.986 147.886 102.34 148.24 102.781 148.24H103.14V149.171C103.976 151.209 104.935 151.096 104.463 152.873L104.453 156.067H103.14V178.501C100.304 177.421 97.1702 176.412 93.6878 175.501C93.7032 173.274 92.3236 170.325 85.6871 168.881L85.6358 167.704C86.082 167.443 86.3897 166.962 86.3897 166.404C86.3897 165.799 86.0358 165.287 85.5229 165.042L85.4204 162.61C85.7281 162.426 85.9332 162.093 85.9332 161.709C85.9332 161.294 85.6922 160.941 85.3434 160.767L84.9075 150.477C84.9793 150.477 85.0511 150.487 85.128 150.487C86.5743 150.487 87.9129 149.765 88.7027 148.552L88.8925 148.26L88.6258 148.48C87.8821 149.1 86.9333 149.443 85.964 149.443C83.6664 149.443 81.7995 147.579 81.7995 145.286C81.7995 144.477 82.0303 143.693 82.4714 143.018L82.6612 142.726L82.3945 142.946C81.4149 143.76 80.8559 144.953 80.8559 146.222C80.8559 147.359 81.3021 148.429 82.1073 149.233C82.8458 149.97 83.81 150.4 84.846 150.467L84.41 160.762C84.0613 160.936 83.8202 161.289 83.8202 161.704C83.8202 162.088 84.0254 162.421 84.3331 162.605L84.2305 165.037C83.7177 165.277 83.3638 165.794 83.3638 166.398C83.3638 166.956 83.6664 167.438 84.1177 167.699L84.0664 168.876C77.4299 170.32 76.0503 173.269 76.0657 175.496C70.3113 177.001 65.4903 178.767 61.4438 180.702V175.45H62.2029L64.5569 173.781H61.4438V152.765H62.2029L64.5569 151.096H61.4438V148.014H61.9567C62.326 148.014 62.6183 147.717 62.6183 147.354C62.6183 146.99 62.3208 146.693 61.9567 146.693H61.9926C61.9926 146.693 62.726 142.163 58.6025 141.769L58.5615 140.806C58.8846 140.617 59.1103 140.268 59.1103 139.864C59.1103 139.429 58.8538 139.055 58.4794 138.876L58.4025 137.11C58.623 136.977 58.7718 136.736 58.7718 136.46C58.7718 136.158 58.5974 135.902 58.3461 135.779L58.0076 127.782L57.6691 135.779C57.4178 135.902 57.2434 136.163 57.2434 136.46C57.2434 136.736 57.3922 136.977 57.6127 137.11L57.5358 138.876C57.1665 139.05 56.9049 139.429 56.9049 139.864C56.9049 140.268 57.1255 140.617 57.4537 140.806L57.4127 141.769C53.2841 142.163 54.0226 146.693 54.0226 146.693H54.0585C53.6944 146.693 53.3969 146.99 53.3969 147.354C53.3969 147.717 53.6944 148.014 54.0585 148.014H54.5714V151.096H51.4583L53.8123 152.765H54.5714V173.781H51.4583L53.8123 175.45H54.5714V184.634C40.1239 194.592 40.9907 207.262 43.155 214.573C34.8055 219.779 31.7898 226 31.1436 231.524H31V259H478V231.524H466.984V231.518ZM107.494 149.171C108.679 151.209 110.038 151.096 109.371 152.873L109.356 156.067H105.632L105.617 152.873C104.95 151.096 106.309 151.214 107.494 149.171ZM257.508 134.954C258.934 137.402 260.565 137.263 259.759 139.393L259.744 143.228H255.277L255.262 139.393C254.462 137.258 256.087 137.402 257.513 134.954H257.508ZM444.956 171.605L444.941 174.8H441.217L441.202 171.605C440.535 169.829 441.894 169.946 443.079 167.904C444.264 169.941 445.623 169.829 444.956 171.605Z" fill="#5E859F"/>
</g>
<defs>
<linearGradient id="paint0_linear_1_1326" x1="187.5" y1="0" x2="187.5" y2="300" gradientUnits="userSpaceOnUse">
<stop stop-color="#FCD89F"/>
<stop offset="1" stop-color="#FCD89F"/>
</linearGradient>
<linearGradient id="paint1_linear_1_1326" x1="30.4666" y1="331.455" x2="30.4666" y2="31.7894" gradientUnits="userSpaceOnUse">
<stop/>
<stop offset="0.29" stop-color="#2B4D54"/>
<stop offset="0.53" stop-color="#4A8591"/>
<stop offset="0.7" stop-color="#5DA7B7"/>
<stop offset="0.79" stop-color="#65B5C6"/>
</linearGradient>
<linearGradient id="paint2_linear_1_1326" x1="240.109" y1="229.519" x2="240.109" y2="83.4294" gradientUnits="userSpaceOnUse">
<stop/>
<stop offset="0.29" stop-color="#2B4D54"/>
<stop offset="0.53" stop-color="#4A8591"/>
<stop offset="0.7" stop-color="#5DA7B7"/>
<stop offset="0.79" stop-color="#65B5C6"/>
</linearGradient>
<linearGradient id="paint3_linear_1_1326" x1="258.95" y1="318.635" x2="258.95" y2="82.8921" gradientUnits="userSpaceOnUse">
<stop/>
<stop offset="0.29" stop-color="#2B4D54"/>
<stop offset="0.53" stop-color="#4A8591"/>
<stop offset="0.7" stop-color="#5DA7B7"/>
<stop offset="0.79" stop-color="#65B5C6"/>
</linearGradient>
<linearGradient id="paint4_linear_1_1326" x1="187.5" y1="0" x2="187.5" y2="276" gradientUnits="userSpaceOnUse">
<stop stop-color="#FCD89F"/>
<stop offset="1" stop-color="#EEEAD8"/>
</linearGradient>
<linearGradient id="paint5_linear_1_1326" x1="30.4666" y1="315.455" x2="30.4666" y2="15.7894" gradientUnits="userSpaceOnUse">
<stop/>
<stop offset="0.29" stop-color="#2B4D54"/>
<stop offset="0.53" stop-color="#4A8591"/>
<stop offset="0.7" stop-color="#5DA7B7"/>
<stop offset="0.79" stop-color="#65B5C6"/>
</linearGradient>
<linearGradient id="paint6_linear_1_1326" x1="240.109" y1="213.519" x2="240.109" y2="67.4294" gradientUnits="userSpaceOnUse">
<stop/>
<stop offset="0.29" stop-color="#2B4D54"/>
<stop offset="0.53" stop-color="#4A8591"/>
<stop offset="0.7" stop-color="#5DA7B7"/>
<stop offset="0.79" stop-color="#65B5C6"/>
</linearGradient>
<linearGradient id="paint7_linear_1_1326" x1="258.95" y1="302.635" x2="258.95" y2="66.8921" gradientUnits="userSpaceOnUse">
<stop/>
<stop offset="0.29" stop-color="#2B4D54"/>
<stop offset="0.53" stop-color="#4A8591"/>
<stop offset="0.7" stop-color="#5DA7B7"/>
<stop offset="0.79" stop-color="#65B5C6"/>
</linearGradient>
<clipPath id="clip0_1_1326">
<rect width="447" height="178" fill="white" transform="translate(-36 122)"/>
</clipPath>
<clipPath id="clip1_1_1326">
<rect width="528" height="213" fill="white" transform="translate(-50 98)"/>
</clipPath>
</defs>
</svg>
