<?xml version="1.0" encoding="UTF-8"?><svg id="Layer_1" xmlns="http://www.w3.org/2000/svg" xmlns:xlink="http://www.w3.org/1999/xlink" viewBox="0 0 293.89 124"><defs><linearGradient id="linear-gradient" x1="-12.69" y1="-29.86" x2="58.99" y2="58.88" gradientUnits="userSpaceOnUse"><stop offset="0" stop-color="#fff"/><stop offset=".12" stop-color="#fdf5ed"/><stop offset=".35" stop-color="#faddc0"/><stop offset=".67" stop-color="#f5b677"/><stop offset="1" stop-color="#f08c28"/></linearGradient></defs><g><g style="opacity:.2;"><path d="M274.25,95.28s.05,.04,.07,.07c0,.17,.12,.17,.23,.17,.02,.02,.05,.05,.07,.07,0,.17,.12,.17,.23,.17,.02,.02,.05,.05,.07,.07,0,.17,.12,.17,.23,.17,.43,.21,.78,.55,1.15,.83,1.45,1.08,2.87,2.19,4.31,3.29,1.89,1.45,3.79,2.9,5.69,4.35,.2,.15,.29,.3,.28,.57-.09,1.49-.15,2.99-.23,4.49-.01,.26,.05,.54-.14,.76-.13-.14-.24-.3-.39-.42-1.33-1.08-2.76-2-4.32-2.71-.81-.37-1.65-.68-2.51-.89-1.61-.39-3.25-.48-4.9-.47-1.33,0-2.66,0-3.97-.3-.24-.05-.57-.29-.73-.08-.16,.21,.13,.5,.23,.74,.18,.42,.21,.91,.51,1.28,.05,.64,.28,1.24,.4,1.87,.29,1.47,.51,2.96,.73,4.44,.31,2.09,.62,4.19,1.23,6.22,.55,1.82,1.61,3.23,3.05,4.45,2.86,2.42,5.6,4.99,8.38,7.52,.35,.32,.69,.66,1.05,.95,.2,.17,.26,.34,.25,.6-.1,1.87-.2,3.74-.29,5.61-.07,1.37-.11,2.74-.17,4.11-.01,.22,.08,.47-.14,.64,0-.17-.13-.23-.25-.32-.6-.43-1.19-.87-1.78-1.32-2.39-1.8-4.77-3.61-7.16-5.4-2.74-2.06-5.49-4.1-8.23-6.15-2.21-1.66-4.41-3.32-6.62-4.98-1.99-1.5-3.99-3-5.98-4.5-1.89-1.42-3.78-2.85-5.67-4.27-2.17-1.63-4.34-3.25-6.51-4.87-1.5-1.12-2.99-2.24-4.49-3.37-.93-.7-1.86-1.41-2.84-2.14,.21-.08,.36-.14,.52-.19,2.03-.68,4.07-1.36,6.1-2.05,6.66-2.24,13.29-4.54,19.96-6.75,2.93-.97,5.84-1.99,8.77-2.97,.68-.23,1.34-.56,2.08-.6,0,0,0,0,0,0-.03,.24,.12,.27,.3,.25,0,0,0,0,0,0,0,.22,.13,.26,.31,.24,0,0,0,0,0,0,0,.22,.13,.26,.31,.24,0,0,0,0,0,0,0,.17,.11,.17,.23,.16,.02,.02,.05,.04,.07,.07,0,.17,.11,.17,.23,.17,.02,.02,.05,.04,.07,.07,0,.17,.12,.17,.23,.17Z" style="fill:#4b2512;"/><path d="M246.69,64.53c.4-.63,.68-1.32,1.12-1.92,.91-1.23,2.01-2.25,3.21-3.16,1.59-1.22,3.33-2.18,5.13-3.02,2.31-1.09,4.71-1.97,7.15-2.71,1.89-.57,3.8-1.07,5.73-1.49,1.58-.34,3.17-.62,4.77-.84,1.49-.21,2.99-.28,4.49-.43,1.44-.15,2.89-.3,4.33-.5,1.47-.2,2.94-.5,4.4-.73,.31-.05,.62-.18,.95-.12,0,.06,0,.13,0,.19-.49,2.35-.99,4.71-1.49,7.06-.59,2.83-1.19,5.66-1.78,8.5-.68,3.3-1.36,6.6-2.03,9.9-.25,1.23-.49,2.47-.73,3.71-.4,.15-.8,.3-1.2,.45-.1,.03-.23-.02-.31,.09,0,0,0,0,0,0-1.24,.22-2.49,.46-3.73,.66-1.5,.24-3,.45-4.51,.66-1.14,.15-2.29,.27-3.43,.41-1.19,.15-2.38,.3-3.58,.44-1.26,.14-2.52,.27-3.77,.4-1.79,.2-3.57,.41-5.36,.61-1.63,.18-3.27,.32-4.89,.61-2.75,.49-5.39,1.33-7.91,2.55-1.31,.63-2.56,1.37-3.79,2.15,.3-.69,.39-1.39,.11-2.11,0-.1,0-.2-.01-.3,.11-.06,.23-.12,.33-.19,.99-.65,2.03-1.24,3.09-1.77,3.02-1.5,6.18-2.62,9.43-3.5,2.96-.8,5.95-1.41,8.97-1.89,1.84-.29,3.69-.54,5.54-.74,1.82-.2,3.64-.33,5.46-.48,.24-.02,.35-.08,.43-.33,.38-1.3,.79-2.59,1.18-3.89,1.99-6.5,3.98-13,5.98-19.49,.19-.61,.19-.61-.45-.54-2.41,.23-4.81,.57-7.21,.93-3.61,.54-7.21,1.2-10.75,2.12-1.68,.44-3.37,.89-4.94,1.67-3.01,1.48-5.61,3.54-7.98,5.9-.1,.1-.18,.22-.24,.34-1.46,2.87-2.91,5.75-4.37,8.62-.11-.22-.14-.47-.15-.71,.1-.46,.06-.91-.07-1.36,.11-.2,.23-.4,.33-.61,.74-1.42,1.48-2.84,2.21-4.27,.14-.28,.35-.54,.36-.88Z" style="fill:#ffe8d2;"/><path d="M246.69,64.53c-.01,.34-.22,.6-.36,.88-.73,1.43-1.47,2.85-2.21,4.27-.11,.2-.22,.4-.33,.61-.39-.73-.96-1.19-1.82-1.21,.04-.13,.14-.14,.21-.18,.65-.43,.97-1.03,.93-1.82,0-.2-.04-.41-.06-.61,.47-.67,.82-1.42,1.22-2.13,.37-.66,.37-.66-.09-1.24-.82-1.04-1.69-2.03-2.59-2.99-.42-.45-.81-.95-1.34-1.29-.04-.04-.08-.08-.11-.12-.02-.03-.05-.05-.07-.08-.16-.15-.32-.29-.48-.44-.53-.61-1.14-1.12-1.8-1.59-.37-.76-.9-1.3-1.77-1.39-.36-.29-.73-.57-1.16-.76-.4-.54-.9-.94-1.59-1.03-.67-.5-1.39-.9-2.09-1.34-4.67-2.89-9.4-5.67-14.11-8.47-.18-.11-.29-.08-.42,.07-.34,.38-.69,.76-1.05,1.13-2.11,2.23-4.22,4.45-6.33,6.68-2.11,2.23-4.22,4.45-6.33,6.68-1.73,1.82-3.47,3.65-5.2,5.47-.36,.38-.37,.38,.09,.69,2.22,1.48,4.45,2.95,6.68,4.42,4.72,3.12,9.44,6.24,14.17,9.34,.43,.29,.83,.64,1.31,.85,.5,.6,1.08,1.01,1.9,.94,.24-.02,.13,.16,.13,.27-.05,1.05,.58,1.9,1.58,2.1,.23,.05,.48,.03,.72,.05-.62,1.42,0,2.81,1.6,3.11-.12,.25-.24,.5-.36,.76-1.25-1.13-2.5-2.26-3.82-3.31-2.54-2.01-5.18-3.85-7.91-5.57-2.54-1.6-5.1-3.18-7.69-4.71-2.47-1.46-4.93-2.92-7.41-4.37-2.04-1.2-4.09-2.39-6.14-3.58-1.04-.6-2.08-1.18-3.12-1.76h0c-.08-.05-.16-.1-.23-.15-.02,0-.04,0-.06,0-.03-.03-.06-.05-.09-.08-.25-.25-.66-.27-.84-.62,1.15-1.06,2.19-2.23,3.33-3.29,1.09-1.02,2.1-2.14,3.19-3.17,1.07-1.01,2.07-2.1,3.13-3.11,1.2-1.14,2.34-2.33,3.52-3.49,.91-.9,1.8-1.83,2.72-2.71,1.17-1.11,2.27-2.3,3.43-3.41,.95-.91,1.84-1.89,2.81-2.79,.61-.56,1.16-1.19,1.74-1.79,.45,.15,.81,.47,1.2,.73,2.67,1.77,5.38,3.46,8.12,5.11,1.73,1.04,3.47,2.04,5.24,3,1.79,.98,3.61,1.9,5.45,2.76,1.95,.91,3.83,1.96,5.6,3.2,2.94,2.06,5.34,4.62,7.13,7.78,.65,1.15,1.22,2.32,1.7,3.55,.03,.07,.08,.13,.12,.2Z" style="fill:#ffe5bd;"/><path d="M272.51,93.94c-.74,.04-1.39,.38-2.08,.6-2.93,.98-5.84,2-8.77,2.97-6.67,2.21-13.3,4.51-19.96,6.75-2.03,.69-4.07,1.36-6.1,2.05-.15,.05-.31,.11-.52,.19,.98,.74,1.91,1.44,2.84,2.14,1.5,1.12,2.99,2.25,4.49,3.37,2.17,1.63,4.34,3.25,6.51,4.87,1.89,1.42,3.78,2.85,5.67,4.27,1.99,1.5,3.99,3,5.98,4.5,2.21,1.66,4.41,3.33,6.62,4.98,2.74,2.05,5.49,4.1,8.23,6.15,2.39,1.8,4.77,3.6,7.16,5.4,.59,.44,1.18,.88,1.78,1.32,.12,.08,.24,.15,.25,.32-.61,.49-1.24,.96-1.84,1.47-.25,.22-.42,.19-.67,0-2.14-1.63-4.3-3.25-6.45-4.87-2.64-1.99-5.28-3.98-7.92-5.96-2.65-2-5.3-3.99-7.94-5.99-2.62-1.97-5.24-3.94-7.85-5.92-6.41-4.84-12.81-9.67-19.22-14.51,.18-.94-.05-1.74-.81-2.34,.92-.32,1.29-1.03,1.35-1.96,1.67-.54,3.33-1.07,5-1.61,2.89-.94,5.79-1.89,8.68-2.83,2.01-.66,4.02-1.32,6.04-1.98,2.74-.89,5.47-1.78,8.21-2.68,1.87-.61,3.74-1.22,5.61-1.83,2.74-.89,5.48-1.78,8.22-2.68,2.65-.87,5.31-1.74,7.96-2.61,3.09-1.01,6.17-2.03,9.27-3.03,.41-.13,.52-.35,.54-.74,.06-.87,.15-1.74,.24-2.61,.09-.91,.2-1.81,.29-2.72,.09-.83,.16-1.66,.25-2.49,.09-.92,.2-1.84,.29-2.76,.09-.84,.16-1.69,.25-2.53,.09-.92,.19-1.84,.29-2.76,.09-.84,.16-1.69,.25-2.53,.09-.86,.19-1.71,.28-2.57,.09-.87,.16-1.74,.25-2.61,.09-.93,.19-1.87,.29-2.8,.07-.61,.17-1.22,.19-1.84,.01-.4,.21-.8,.03-1.2,.13-.13,.17,.02,.22,.09,.32,.38,.62,.79,.97,1.15,.23,.24,.27,.49,.25,.8-.21,2.43-.4,4.87-.6,7.3-.19,2.32-.39,4.64-.58,6.96-.17,2.01-.32,4.02-.48,6.03-.17,2.02-.34,4.04-.51,6.07-.09,1.07-.18,2.14-.25,3.21-.02,.3-.1,.45-.39,.55-7.14,2.41-14.29,4.82-21.43,7.24-.13,.04-.32,0-.36,.21Z" style="fill:#382012;"/><path d="M202.61,92.57c.62-.76,1.25-1.51,1.87-2.27,.1-.12,.23-.15,.36-.2,.87-.35,1.75-.69,2.62-1.04,.08,.04,.16,.07,.23,.13,1.77,1.33,3.53,2.66,5.3,3.99,2.31,1.74,4.63,3.48,6.94,5.23,.56,.43,1.16,.81,1.67,1.32,0,.11-.09,.18-.15,.27-.44,.65-.47,1.34-.15,2.05,.16,.37,.47,.62,.79,.88-1.21,.23-1.73,.67-1.88,1.8-.15,1.15,.51,1.84,1.61,2.23-.49,.23-.79,.55-1.06,.91-.41,.13-.82,.25-1.23,.38-2.71,.88-5.43,1.77-8.14,2.65-2.68,.87-5.35,1.75-8.03,2.63-2.71,.89-5.43,1.77-8.14,2.66-2.75,.9-5.5,1.8-8.25,2.7-2.52,.83-5.04,1.67-7.56,2.48-.4,.13-.8,.34-1.24,.32,.69-.83,1.37-1.66,2.06-2.49,1.71-2.05,3.44-4.08,5.14-6.14,.2-.24,.41-.38,.71-.45,4.91-1.29,9.81-2.57,14.73-3.8,1.68-.42,3.04-1.43,4.33-2.55,1.71-1.48,3.2-3.18,4.73-4.84,1.13-1.23,2.25-2.47,3.47-3.59,.06-.06,.11-.13,.16-.2,.28-.05,.39-.31,.59-.47,.62-.49,1.23-.98,1.99-1.47-1.67-.16-3.02-.83-4.31-1.67-1.05-.68-2.16-1.24-3.4-1.51-.82-.18-1.66-.23-2.49-.22-1.1,.01-2.19,.18-3.28,.28Z" style="fill:#683217;"/><path d="M178.17,121.68c.44,.02,.84-.19,1.24-.32,2.52-.81,5.04-1.65,7.56-2.48,2.75-.9,5.5-1.8,8.25-2.7,2.71-.89,5.43-1.77,8.14-2.66,2.68-.87,5.35-1.75,8.03-2.63,2.71-.89,5.43-1.77,8.14-2.65,.41-.13,.82-.25,1.23-.38-.33,.83-.31,1.6,.3,2.31,.3,.35,.71,.48,1.09,.68-6.77,2.29-13.54,4.58-20.31,6.87-7.23,2.44-14.46,4.88-21.68,7.34-.29,.1-.4,.06-.54-.22-.46-.92-.95-1.82-1.42-2.74-.05-.1-.16-.2-.11-.34,.02-.03,.05-.06,.07-.09,0,0,0,0,0,0Z" style="fill:#382012;"/><path d="M295.67,54.34c.19,.4-.01,.8-.03,1.2-.02,.61-.13,1.23-.19,1.84-.1,.93-.2,1.86-.29,2.8-.09,.87-.16,1.74-.25,2.61-.09,.86-.19,1.71-.28,2.57-.09,.84-.17,1.69-.25,2.53-.09,.92-.19,1.84-.29,2.76-.09,.84-.16,1.69-.25,2.53-.09,.92-.2,1.84-.29,2.76-.08,.83-.16,1.66-.25,2.49-.09,.91-.2,1.81-.29,2.72-.09,.87-.18,1.74-.24,2.61-.03,.39-.13,.61-.54,.74-3.09,.99-6.18,2.01-9.27,3.03-2.65,.87-5.31,1.74-7.96,2.61-2.74,.89-5.48,1.78-8.22,2.68-1.87,.61-3.74,1.22-5.61,1.83-2.74,.89-5.47,1.78-8.21,2.68-2.01,.66-4.02,1.32-6.04,1.98-2.89,.95-5.79,1.89-8.68,2.83-1.66,.54-3.33,1.07-5,1.61-.02-.11-.04-.23-.07-.34-.12-.39-.22-.78-.62-.99-.21-.24-.42-.48-.64-.73,.13-.09,.26-.19,.39-.28,.15,.08,.32,.08,.48,.08,1.34,0,2.65-.19,3.92-.6,3.41-1.1,6.81-2.2,10.22-3.31,2.57-.84,5.14-1.68,7.71-2.52,3.39-1.11,6.78-2.21,10.17-3.32,2.08-.68,4.15-1.36,6.23-2.04,3.56-1.16,7.12-2.33,10.68-3.49,1.3-.43,2.61-.85,3.91-1.28,1.74-.57,3.47-1.14,5.21-1.71,.12-.04,.22-.09,.24-.26,.04-.43,.1-.87,.15-1.3,.11-.96,.21-1.92,.32-2.87,.14-1.22,.29-2.45,.44-3.67,.12-.98,.24-1.96,.35-2.95,.11-.94,.22-1.89,.33-2.83,.11-.97,.22-1.94,.33-2.91,.14-1.21,.29-2.42,.43-3.64,.09-.79,.19-1.58,.29-2.37,.11-.97,.21-1.94,.33-2.91,.11-.9,.24-1.81,.35-2.71,.41-.16,.81-.36,1.24-.47Z" style="fill:#683217;"/><path d="M281.93,78.97c.24-1.24,.48-2.47,.73-3.71,.67-3.3,1.35-6.6,2.03-9.9,.59-2.83,1.18-5.67,1.78-8.5,.49-2.35,.99-4.71,1.49-7.06,.01-.06,0-.13,0-.19,1.11,.43,2.18,.97,3.27,1.45,.34,.15,.67,.32,1.01,.45,.19,.08,.24,.19,.2,.38-.05,.24-.06,.48-.09,.73-.09,.6-.19,1.2-.27,1.8-.29,2.1-.58,4.19-.87,6.29-.32,2.3-.64,4.6-.96,6.9-.3,2.13-.59,4.27-.88,6.4-.24,1.75-.47,3.5-.73,5.25-.12,.81-.18,1.64-.37,2.44-.16-.05-.31-.1-.46-.16-1.96-.85-3.93-1.71-5.89-2.57Zm6.56-27.25c-1.84,8.53-3.47,17.1-4.92,25.7,1.85-8.53,3.46-17.1,4.92-25.7Zm-1.71,26.69c.57-2.85,1.05-5.71,1.51-8.57,.45-2.85,.93-5.7,1.36-8.55,.44-2.85,.84-5.7,1.25-8.55-.03,0-.06,0-.1-.01-1.51,8.54-2.86,17.1-4.03,25.68Zm-1.08-.15c.41-1.16,4.48-25.31,4.28-25.86-1.59,8.61-3.03,17.22-4.28,25.86Zm3.48-26.24c-1.67,8.51-3.17,17.04-4.45,25.62,1.68-8.51,3.16-17.05,4.45-25.62Zm-1.42,27c1.07-5.51,3.97-25.01,3.82-25.66-1.45,8.56-2.72,17.1-3.82,25.66Zm3.92-25.84c.06-.09,.05-.17,0-.27-.04,.11-.05,.19,0,.27Zm-6.97,24.77s-.03-.06-.05-.09c-.01,.02-.03,.04-.03,.06,0,.03,.01,.07,.02,.1,.02-.02,.03-.05,.06-.08Zm2,.76s-.02,.08-.02,.11c0,.02,0,.1,.05,.04,.02-.02,.01-.07,0-.11,0-.01-.02-.02-.05-.04Zm1.05,.71s-.04-.06-.05-.09c0,.02-.03,.04-.03,.07,0,.04,.02,.07,.03,.1,.02-.03,.03-.05,.05-.08Zm.8-28.02s.03-.04,.03-.06c0-.02-.02-.04-.03-.06-.01,.02-.03,.04-.03,.06,0,.02,.02,.04,.03,.06Zm-5,26.35s-.02-.04-.03-.06c-.01,.02-.03,.04-.03,.06,0,.02,.02,.04,.03,.06,.01-.02,.02-.04,.03-.06Z" style="fill:#ecb67b;"/><path d="M231.93,101.7c.21,.24,.42,.48,.64,.73,.01,.05,.02,.1,.04,.15,.46,1.22-.06,2.34-1.28,2.75-.06,.02-.11,.06-.21,.11,.32,.02,.55,.17,.79,.27,.77,.6,1,1.4,.81,2.34-.29,.56-.65,1.04-1.33,1.26,1.64,.34,2.02,1.79,1.67,2.71-.47,1.23-1.63,1.59-3.06,.92,.2,1.54-.28,2.44-1.45,2.71-.98,.23-1.95-.33-2.25-1.3-.02-.07-.05-.14-.07-.21-.09-.23-.04-.49-.06-.76-.24,.21-.44,.38-.64,.55-.07,.02-.13,.05-.2,.07-.25,.07-.5,.14-.68,.19,.16,.03,.39,.05,.61,.15,0,.04-.01,.09-.02,.13-.09,0-.18,0-.27,0-.18,0-.37-.01-.46,.19-.08,.19-.03,.37,.09,.54,.16,.22,.37,.34,.61,.44,.24,.1,.49,.14,.66-.09,.15-.2,.05-.41-.09-.6-.04-.05-.06-.11-.09-.17,.03-.03,.05-.05,.08-.08,.27,.19,.44,.46,.54,.77,.22,.65-.04,1.24-.67,1.47-.16,.06-.24,.11-.28,.3-.03,.18-.14,.36-.24,.52-.75,1.23-1.52,2.45-2.27,3.68-.24,.39-.55,.68-1,.76-.15,.03-.22,.07-.21,.24,.01,.31-.13,.54-.37,.73-.11,.05-.21,.11-.32,.16-.02,0-.04,0-.06,0-.51,.05-.86-.22-1.14-.62-.15-.55-.06-1,.51-1.25,.13-.06,.07-.14,.05-.22-.11-.47-.01-.88,.24-1.29,.78-1.24,1.55-2.49,2.32-3.73,.02-.03,.03-.07,.06-.1,.33-.27,.41-.6,.43-1.03,.02-.48,.4-.75,.91-.88-.89-.31-1.51-.82-1.67-1.77-.1-.6,.13-1.11,.44-1.6,.03-.02,.07-.03,.04-.07,0-.01-.06,.01-.09,.02-.29,.02-.58,.05-.86,.07-.38-.2-.79-.33-1.09-.68-.6-.71-.62-1.48-.3-2.31,.26-.36,.57-.68,1.06-.91-1.11-.4-1.77-1.08-1.61-2.23,.15-1.13,.68-1.58,1.88-1.8-.32-.26-.63-.51-.79-.88-.32-.71-.29-1.39,.15-2.05,.06-.08,.14-.15,.15-.27,.51-.37,1.04-.66,1.8-.55-.73-.57-.99-1.24-.95-2.03,.1-.36,.26-.69,.45-1,.18-.15,.36-.31,.54-.46,.39-.15,.79-.27,1.22-.25,.11,0,.21,.14,.34,.03-.86-1-.89-1.88-.13-2.92,.05-.05,.1-.1,.15-.15,.28-.18,.55-.39,.9-.39,.14,0,.28,.05,.4-.06,.05,0,.1-.02,.15-.02,.37,.12,.77,.18,1.07,.48,.24,.15,.36,.41,.52,.63,.02,.05,.04,.1,.06,.15,.22,.66,.19,1.31-.21,1.89-.53,.77-1.29,.97-2.23,.8,.66,.71,.9,1.45,.57,2.3-.36,.91-1.09,1.27-2.07,1.29,.74,.64,1.05,1.4,.74,2.31-.29,.85-.92,1.28-1.83,1.38,.72,.48,1.09,1.11,1.02,1.94-.07,.81-.53,1.38-1.26,1.72,.3,.13,.57,.25,.83,.36,.03,.02,.06,.05,.09,.07,.23,.26,.46,.51,.59,.84,.28,.76,.12,1.44-.34,2.09,.17-.14,.34,.08,.5-.05,1.23,.16,1.89,.76,2.02,1.83,.02,.15,.02,.31,.03,.51,.86-.92,1.79-1,2.83-.37-.33-1.28,.08-2.17,1.26-2.74-.69-.07-1.12-.42-1.49-.89-.05-.12-.1-.24-.14-.35-.37-.89,.03-2.04,.88-2.49,.37-.2,.37-.25,.02-.48-.05-.04-.11-.06-.17-.1-.64-.43-.95-1.2-.84-1.97,.1-.69,.51-1.12,1.02-1.51,.14,0,.26-.06,.39-.13-.24-.06-.47-.12-.7-.18-.36-.21-.66-.48-.87-.85-.15-.32-.23-.66-.24-1.01,.06-.88,.48-1.5,1.28-1.83,.19-.08,.23-.17,.06-.28-.43-.3-.69-.73-.95-1.17-.03-.42-.14-.83,0-1.24,.24-.44,.5-.86,.94-1.12,.23-.08,.45-.16,.68-.24,.26-.05,.5,.06,.76,.07,.39,.18,.73,.43,1.06,.69,.44,.54,.55,1.15,.35,1.81-.24,.79-.79,1.24-1.59,1.44,.3,.11,.52,.33,.78,.49,.11,.16,.22,.32,.33,.48,.5,1.33,.15,2.2-1.2,2.91,.34,.02,.62,.2,.92,.29Zm-8.28,14.95c-.14,.01-.28,.08-.38,.24-.76,1.23-1.53,2.46-2.29,3.7-.16,.26-.1,.52,.16,.66,.25,.14,.46,.04,.61-.2,.55-.88,1.1-1.77,1.64-2.65,.22-.36,.46-.72,.65-1.09,.17-.34-.03-.66-.4-.66Zm7.14-13.36c.52,.01,.94-.33,.96-.78,.01-.47-.38-.83-.9-.85-.49-.01-.93,.38-.93,.81,0,.46,.37,.8,.88,.82Zm-6.17,7.15c-.55,0-.96,.35-.96,.82,0,.45,.39,.79,.89,.81,.51,.02,.93-.35,.94-.8,0-.45-.39-.82-.87-.83Zm-1.57-6.42c0-.46-.39-.81-.88-.81-.55,0-.94,.35-.95,.84,0,.43,.41,.79,.91,.79,.51,0,.92-.36,.92-.82Zm-.57,4.71c.52,0,.93-.34,.95-.79,.01-.46-.38-.83-.9-.84-.48,0-.92,.38-.93,.82-.01,.44,.38,.79,.89,.8Zm1.48-8.48c.01-.47-.39-.83-.91-.84-.48,0-.92,.4-.92,.84,0,.41,.4,.77,.88,.79,.52,.01,.94-.34,.95-.79Zm7.22,10.97c.54,.01,.93-.32,.95-.78,.01-.45-.37-.83-.86-.84-.47-.01-.97,.42-.97,.85,0,.41,.41,.77,.89,.78Zm-.75-11.88c.54,0,.94-.33,.94-.79,0-.46-.37-.83-.87-.84-.45-.01-.97,.42-.97,.82,0,.44,.4,.8,.9,.81Zm-2.24,12.66c-.52-.01-.94,.33-.95,.78-.01,.45,.37,.83,.86,.84,.47,.02,.97-.42,.97-.85,0-.41-.4-.77-.88-.78Zm-3.78-14.68c.54,0,.92-.33,.93-.8,0-.46-.35-.76-.91-.76-.54,0-.92,.33-.93,.8,0,.46,.35,.76,.91,.76Zm6.41-1.94c.53,0,.94-.35,.93-.8,0-.42-.4-.76-.88-.76-.57,0-.95,.33-.95,.82,0,.47,.34,.74,.9,.74Zm-4.47-3.11c-.53,0-.88,.23-.94,.62-.07,.45,.1,.76,.54,.89,.39,.12,.77,.07,1.06-.24,.2-.21,.31-.48,.16-.78-.17-.34-.44-.53-.82-.5Zm4.46,15c.53,0,.94-.34,.94-.79,0-.42-.4-.77-.88-.77-.57,0-.96,.34-.95,.82,0,.44,.36,.73,.89,.74Z" style="fill:#a85326;"/><path d="M232.21,98.49c-.11-.16-.22-.32-.33-.48,.57-.16,.92-.58,1.23-1.06,.86,.6,1.69,1.24,2.47,1.95,.2,.18,.37,.23,.64,.14,2.22-.75,4.45-1.48,6.68-2.22,14.99-4.97,29.97-9.94,44.96-14.92,.15-.05,.33-.04,.43-.21,.19-.8,.25-1.63,.37-2.44,.25-1.75,.49-3.5,.73-5.25,.29-2.13,.59-4.27,.88-6.4,.32-2.3,.64-4.6,.96-6.9,.29-2.1,.58-4.19,.87-6.29,.08-.6,.18-1.2,.27-1.8,.57-.17,1.15-.35,1.72-.52,.11-.03,.24-.15,.28,.08-.09,.15-.12,.31-.14,.47-.15,1.26-.31,2.52-.47,3.79-.17,1.29-.35,2.57-.52,3.86-.17,1.3-.31,2.6-.47,3.9-.16,1.26-.35,2.52-.52,3.78-.17,1.3-.31,2.6-.47,3.9-.22,1.67-.45,3.33-.67,5-.21,1.57-.46,3.13-.59,4.7-.06,.74-.33,1.02-1.02,1.24-2.75,.85-5.48,1.78-8.22,2.67-2.81,.92-5.62,1.83-8.44,2.75-2.65,.87-5.31,1.74-7.96,2.61-3.37,1.1-6.73,2.19-10.1,3.29-2.58,.84-5.16,1.69-7.75,2.53-3.21,1.05-6.42,2.08-9.63,3.14-1.49,.49-3,.84-4.58,.77,.17-.81,.04-1.52-.62-2.08Z" style="fill:#5e7234;"/><path d="M222.45,97.15c-.04,.8,.22,1.46,.95,2.03-.76-.11-1.29,.18-1.8,.55-.5-.51-1.1-.89-1.67-1.32-2.31-1.75-4.62-3.49-6.94-5.23-1.77-1.33-3.53-2.66-5.3-3.99-.07-.05-.16-.08-.23-.13-2.97-2.28-5.97-4.52-8.96-6.77-6.56-4.94-13.11-9.89-19.66-14.84-.13-.1-.24-.16-.09-.35,.48-.61,.94-1.25,1.41-1.87,.24,.27,.56,.44,.84,.65,2,1.51,4,3.03,6,4.53,2.18,1.64,4.36,3.26,6.54,4.9,1.89,1.42,3.78,2.85,5.67,4.27,2.17,1.63,4.35,3.24,6.51,4.88,2.52,1.91,5.03,3.85,7.55,5.78,2.57,1.96,5.14,3.92,7.72,5.87,.47,.36,.9,.78,1.45,1.04Z" style="fill:#382012;"/><path d="M222.45,97.15c-.54-.26-.97-.68-1.45-1.04-2.58-1.95-5.15-3.91-7.72-5.87-2.52-1.92-5.03-3.86-7.55-5.78-2.16-1.64-4.34-3.25-6.51-4.88-1.89-1.42-3.78-2.85-5.67-4.27-2.18-1.63-4.36-3.26-6.54-4.9-2-1.51-4-3.02-6-4.53-.28-.21-.6-.38-.84-.65,1.51-1.44,3.02-2.89,4.53-4.32,6.36-6.04,12.72-12.08,19.08-18.12,.18-.17,.32-.3,.51-.03-.09,.21-.27,.34-.43,.49-2,1.91-4,3.82-6,5.72-1.03,.98-2.07,1.95-3.09,2.93-2.05,1.95-4.1,3.9-6.14,5.86-1.04,.99-2.06,1.99-3.1,2.98-.51,.49-1.05,.94-1.54,1.44-.46,.48-1.02,.85-1.4,1.41-.07,.44-.16,.84,.3,1.19,1.45,1.1,2.87,2.24,4.31,3.36,1.94,1.53,3.88,3.06,5.82,4.59,1.7,1.34,3.42,2.66,5.12,4,1.88,1.48,3.76,2.96,5.64,4.44,1.35,1.06,2.71,2.12,4.06,3.18,1.97,1.55,3.94,3.1,5.92,4.65,1.46,1.15,2.93,2.29,4.39,3.44,1.59,1.24,3.17,2.48,4.76,3.71-.19,.32-.35,.65-.45,1Z" style="fill:#4b2512;"/><path d="M182.58,63.59c.37-.56,.94-.93,1.4-1.41,.48-.51,1.03-.96,1.54-1.44,1.04-.99,2.06-1.99,3.1-2.98,2.04-1.95,4.09-3.91,6.14-5.86,1.03-.98,2.06-1.95,3.09-2.93,2-1.91,4-3.81,6-5.72,.16-.15,.34-.27,.43-.49,.16-.03,.25-.17,.36-.27,1.21-1.15,2.42-2.29,3.62-3.45,.21-.2,.35-.22,.56-.03,.15,.14,.33,.25,.49,.37-.17,.26-.42,.45-.64,.66-4.81,4.52-9.62,9.03-14.43,13.54-2.13,2-4.26,3.99-6.39,5.99-1.31,1.24-2.62,2.48-3.93,3.72-.05,.18,.12,.19,.2,.26,3.93,3.09,7.86,6.18,11.79,9.27,7.98,6.27,15.96,12.54,23.94,18.82,1.61,1.26,3.21,2.54,4.81,3.8-.43-.03-.83,.1-1.22,.25-1.05-.82-2.11-1.64-3.16-2.47-1.71-1.33-3.42-2.66-5.12-3.99-2.29-1.8-4.58-3.61-6.87-5.41-1.69-1.33-3.4-2.64-5.09-3.97-2.42-1.91-4.84-3.82-7.26-5.73-1.94-1.53-3.89-3.04-5.84-4.57-1.89-1.48-3.79-2.97-5.67-4.47-.62-.49-1.27-.93-1.84-1.49Z" style="fill:#5e7234;"/><path d="M232.82,100.57c1.58,.07,3.09-.28,4.58-.77,3.21-1.06,6.42-2.09,9.63-3.14,2.58-.84,5.16-1.69,7.75-2.53,3.37-1.1,6.73-2.19,10.1-3.29,2.65-.87,5.31-1.74,7.96-2.61,2.81-.92,5.62-1.83,8.44-2.75,2.74-.9,5.47-1.82,8.22-2.67,.69-.21,.95-.5,1.02-1.24,.13-1.57,.38-3.14,.59-4.7,.22-1.67,.46-3.33,.67-5,.17-1.3,.31-2.6,.47-3.9,.16-1.26,.35-2.52,.52-3.78,.17-1.3,.31-2.6,.47-3.9,.16-1.29,.35-2.57,.52-3.86,.16-1.26,.32-2.52,.47-3.79,.02-.17,.05-.33,.14-.47,.4,.59,.19,1.24,.14,1.87-.02,.26-.05,.51-.07,.77-.12,.9-.24,1.8-.35,2.71-.12,.97-.22,1.94-.33,2.91-.09,.79-.19,1.58-.29,2.37-.15,1.21-.29,2.42-.43,3.64-.11,.97-.22,1.94-.33,2.91-.11,.94-.22,1.89-.33,2.83-.12,.98-.24,1.96-.35,2.95-.15,1.22-.3,2.45-.44,3.67-.11,.96-.22,1.92-.32,2.87-.05,.43-.11,.87-.15,1.3-.02,.17-.12,.22-.24,.26-1.74,.57-3.47,1.14-5.21,1.71-1.3,.43-2.61,.85-3.91,1.28-3.56,1.16-7.12,2.33-10.68,3.49-2.08,.68-4.15,1.36-6.23,2.04-3.39,1.11-6.78,2.21-10.17,3.32-2.57,.84-5.14,1.68-7.71,2.52-3.4,1.11-6.81,2.21-10.22,3.31-1.28,.41-2.59,.59-3.92,.6-.17,0-.33,0-.48-.08,.21-.26,.39-.53,.5-.85Z" style="fill:#445224;"/><path d="M220.98,123.33c.11-.05,.21-.11,.32-.16,.42,2.57,.51,5.17,.5,7.77-.01,3.02-.22,6.02-.52,9.02-.05,.45-.08,.47-.43,.21-.02-.02-.05-.07-.07,0-.03,.07,0,.22-.14,.14-.04-.02-.03-.17-.02-.25,.11-1.26,.22-2.52,.33-3.79,.01-.12,.08-.25-.03-.37-.12,.07-.08,.18-.09,.28-.15,1.34-.3,2.67-.45,4.01-.01,.09,.03,.25-.11,.25-.08,0-.23,.05-.28-.12-.04-.14-.11-.1-.22-.05-.3,.15-.42,.06-.39-.27,.11-.98,.23-1.95,.34-2.93,.1-.61,.18-1.23,.14-1.85-.08,.62-.16,1.24-.24,1.86-.15,.89-.31,1.77-.43,2.66-.04,.32-.15,.37-.41,.28,0-.12,0-.23,.02-.35,.21-1.46,.42-2.91,.62-4.37,.15-1.1,.27-2.2,.39-3.31,.15-1.33,.33-2.67,.35-4.01,.12-.23,.06-.47,.05-.81-.08,.34-.05,.58-.04,.81-.17,.2-.07,.44-.1,.67-.2,1.82-.39,3.64-.61,5.46-.24,1.97-.51,3.94-.83,5.9-.25,0-.12-.17-.11-.27,.1-.73,.21-1.45,.31-2.17,.02-.14,.04-.28,.06-.42,.12-.47,.17-.94,.13-1.43-.07,.48-.15,.95-.22,1.43-.02,.11-.03,.23-.05,.34-.14,.74-.29,1.49-.42,2.23-.04,.21-.11,.34-.34,.27,.05-.49,.09-.97,.16-1.46,.22-1.65,.43-3.29,.66-4.94,.32-2.27,.65-4.55,.96-6.82,.09-.66,.26-1.32,.25-1.99,0,0,.02-.01,.02-.01l-.02,.02c-.16,.22-.14,.48-.18,.73-.73,4.82-1.42,9.64-1.98,14.48-.27-.07-.11-.28-.1-.41,.08-.85,.19-1.7,.29-2.54,0-.07,.05-.15-.08-.26-.15,1.09-.29,2.15-.43,3.2-.04,0-.07,0-.11-.01,0-.86,.21-1.71,.27-2.57,.03-.17,.09-.33,.02-.54-.11,.17-.09,.32-.12,.47-.12,.8-.25,1.6-.37,2.4-.04,0-.07,0-.11-.01-.08-.39,.12-.78,.07-1.27-.24,.52-.13,1.05-.4,1.47-.21-.08-.03-.27-.12-.37-.2,0,0,.36-.25,.28-.22-.06-.15-.26-.15-.42,0-.07,.04-.15-.03-.23-.13,.15,0,.4-.17,.54-.16-.11-.01-.26-.07-.37,.02-.14,.03-.28,.05-.42,.15-.61,.18-1.25,.26-1.87,.2-1.46,.46-2.9,.71-4.35,.3-1.44,.64-2.87,1.04-4.28,.35-1.22,.8-2.41,1.2-3.62,.03-.07,.06-.15,.09-.22,.03-.05,.08-.13,.02-.16-.09-.04-.06,.06-.08,.11-.04,.06-.07,.13-.11,.19-.26,.47-.46,.98-.64,1.48-.77,2.11-1.23,4.3-1.65,6.5-.1,.54-.21,1.09-.3,1.63-.25,1.52-.49,3.05-.63,4.59,0,.13-.01,.25-.02,.38-.05,0-.09,0-.14,0-.04-.65,.18-1.29,.15-1.94,.11-.15,.08-.3,0-.45v.45c-.11,.06-.08,.18-.09,.27-.08,.55-.15,1.1-.23,1.66-.27-.04-.08-.26-.14-.38,.02-.06,.06-.12,.07-.18,.1-.79,.21-1.58,.31-2.37,.05-.42,.1-.83,.16-1.25-.11,.28-.16,.57-.21,.86-.15,.98-.33,1.95-.4,2.94-.04,.12,.04,.29-.12,.37-.07-.02-.09-.06-.08-.12,.57-4.44,1.35-8.83,2.87-13.04,.44-1.21,.91-2.41,1.68-3.45,.27,.41,.62,.67,1.14,.62,0,.12-.06,.25,.04,.37,.09-.12,.03-.25,.03-.37Zm-3.78,14.64c-.02,.17-.12,.33,.01,.6,.03-.24,.05-.38,.08-.52l.06-.42c.03-.16,.08-.32,.1-.48,.09-.85,.32-1.69,.33-2.55,.15-.14,.06-.31,.07-.47,.15-.13,.05-.31,.08-.46,.1-.1,.09-.22,0-.39v.39c-.14,.13-.08,.3-.08,.46-.13,.14-.09,.31-.07,.47-.28,.99-.39,2.01-.53,3.03-.02,.12-.03,.23-.05,.35Zm-.33-3.45c-.14,.12-.09,.26-.06,.43,.08-.16,.04-.3,.05-.43,.09-.12,.08-.25,0-.38v.38Zm.54-.62c-.14,.14-.08,.31-.08,.47-.3,1.07-.4,2.17-.53,3.26,0,.15-.08,.3,.05,.54,.02-.24,.03-.39,.03-.54,.18-1.08,.34-2.17,.44-3.26,.14-.14,.05-.31,.08-.47,.1-.1,.09-.21,0-.38v.38Zm1.36-3.9c.14-.12,.09-.26,0-.4,0,.13,0,.27,0,.4-.13,.14-.07,.31-.07,.47-.22,.58-.25,1.19-.34,1.79-.23,1.39-.43,2.79-.64,4.19,0,.13-.09,.26,.05,.46,.03-.2,.05-.33,.07-.46,.22-1.42,.45-2.84,.65-4.27,.08-.57,.25-1.13,.22-1.72,.15-.14,.08-.31,.07-.47Zm-.83-2.71c-.11,.08-.08,.2-.1,.35,.14-.13,.12-.24,.1-.35,.09,0,.09-.05,.07-.11,0,0-.03-.01-.05-.02,0,.05-.02,.09-.02,.14Zm-.69,9.16c.15-.19,.08-.43,.19-.74-.24,.28-.17,.52-.18,.74-.1,.12-.06,.25,0,.37v-.38Zm-.9,1.49c0,.1-.06,.2,.02,.29,.07-.09,.04-.2,.05-.3,.15-.82,.26-1.65,.31-2.48,.1-.11,.09-.22,0-.45v.45c-.23,.81-.3,1.65-.38,2.48Zm4.58-2.8c0,.23-.1,.46,0,.75,.12-.28,.07-.52,.09-.75,.11-.87,.11-1.73,.1-2.6,0,.87-.2,1.73-.19,2.61Zm-2.21-3.26c-.18,.32-.15,.69-.2,1.03-.15,.95-.27,1.9-.41,2.85,0,.13-.09,.26,.05,.46,.02-.2,.03-.33,.05-.46,.06-.37,.13-.73,.17-1.1,.11-.93,.31-1.85,.34-2.79,.11-.13,.08-.27,.04-.44-.06,.17-.04,.31-.03,.45Zm.84,8.15c0,.07-.04,.14,.04,.22,0-.08,.01-.16,.02-.23,.24-1.36,.44-2.73,.45-4.13,.17-.29,.05-.6,.05-.9-.03,.3-.05,.6-.08,.9-.02,.22-.05,.43-.07,.65-.13,1.16-.27,2.32-.4,3.48Zm1.51-9.72c.05-1.21,.04-2.43-.08-3.64,0,1.21,0,2.43,0,3.64-.02,.07-.05,.15-.05,.22-.05,1.72-.18,3.44-.31,5.15-.02,.2-.19,.43,0,.64,.09-.06,.06-.15,.07-.22,.08-.9,.17-1.8,.22-2.7,.06-1.03,.17-2.06,.15-3.1Zm-3.29,.93c.42-2.04,1.19-3.98,1.6-6.02-.79,1.95-1.3,3.98-1.73,6.03-.17,.73-.32,1.46-.33,2.22,.15-.74,.31-1.48,.46-2.22Zm3.16,7.46c0,.15-.06,.3,.05,.54,.01-.23,.02-.38,.03-.53,.07-.09,.05-.2,.06-.3,.09-1.07,.18-2.14,.25-3.21,.19-2.79,.22-5.58,.04-8.38-.03-.39-.05-.79-.08-1.18-.07,.4-.11,.8-.01,1.19,0,.06,0,.13,0,.19,.05,2.8,.1,5.61-.11,8.41-.08,1.09-.16,2.18-.23,3.27Zm-2.53-.67c.45-1.36,1.54-8.88,1.38-9.47-.5,3.15-1.03,6.3-1.38,9.47Zm1.09-1.5c.36-2.47,.91-4.92,.79-7.44-.22,2.49-.55,4.96-.79,7.44Zm-2.15-.98s.07,0,.1,.01c.28-1.58,.55-3.15,.83-4.73-.43,1.55-.71,3.13-.93,4.72Zm1.58,4.36c.33-.96,.63-3.14,.5-3.39-.17,1.16-.33,2.27-.5,3.39Zm1.73-13.02c.07-.95,.13-1.92-.09-2.87-.07,.96,.06,1.91,.09,2.87Zm-.16,3.82c.05,.93-.16,1.85-.06,2.77,.02-.92,.19-1.85,.06-2.77Zm-.19,8.48s.04,0,.07,0c.08-.77,.17-1.53,.25-2.3-.03,0-.07,0-.1-.01-.07,.77-.14,1.54-.21,2.3Zm.39-11.19v1.45c.07-.49,.11-.97,0-1.45Zm.49-3.18c-.04,.25-.06,.44,.02,.69,.04-.25,.04-.44-.02-.69Zm.06,13.13v.52c.06-.17,.06-.35,0-.52Zm-.06,.78c-.05,.17-.07,.35,0,.56,.07-.19,.04-.37,0-.56Zm-4.49,.06c-.06,.3-.14,.5-.03,.78,.06-.27,.1-.47,.03-.78Zm1.32-1.94c.09-.24,.14-.41,.04-.68-.05,.26-.12,.43-.04,.68Zm-1.23,1.27c-.09,.25-.11,.42-.07,.67,.1-.24,.11-.41,.07-.67Zm-.5,.4c-.02,.17-.1,.33,.02,.61,0-.28,.07-.44-.02-.61Zm4.81-14.2c-.05,.14-.05,.26,0,.39,.05-.13,.05-.25,0-.39Zm-.23,15.64c.05-.24,.09-.37,.02-.54-.07,.16-.07,.29-.02,.54Zm.15-16.15c-.05,.14-.06,.24,.01,.36,.05-.13,.05-.22-.01-.36Zm-3.81,10.14c.06-.11,.07-.21,0-.33-.06,.11-.07,.21,0,.33Zm1.07-3.51c-.04,.1-.07,.18,0,.25,.04-.08,.05-.15,0-.25Zm-.02-3.9s-.03-.07-.05-.1c-.02,.02-.05,.04-.05,.06,0,.03,.02,.06,.03,.09,.02-.02,.04-.03,.07-.06Zm-.15,.15s-.02,.07-.03,.1c0,.01,.03,.02,.05,.04,.01-.03,.03-.06,.03-.1,0,0-.03-.02-.06-.04Zm-.11,.32s.03,.04,.05,.06c.01-.03,.03-.06,.04-.09,0-.02-.02-.04-.04-.06-.02,.03-.03,.06-.05,.09Z" style="fill:#a03e37;"/><path d="M183.91,63.29c1.31-1.24,2.62-2.49,3.93-3.72,2.13-2,4.26-3.99,6.39-5.99,4.81-4.51,9.62-9.03,14.43-13.54,.22-.21,.47-.4,.64-.66,.38-.24,.67-.58,.98-.89,.2-.2,.41-.31,.7-.29,.38,.03,.75,.01,1.13,.01-.58,.6-1.13,1.22-1.74,1.79-.97,.9-1.85,1.88-2.81,2.79-1.17,1.11-2.27,2.3-3.43,3.41-.93,.88-1.81,1.81-2.72,2.71-1.18,1.16-2.32,2.35-3.52,3.49-1.07,1.02-2.06,2.1-3.13,3.11-1.09,1.03-2.1,2.14-3.19,3.17-1.14,1.07-2.18,2.23-3.33,3.29-.37,.25-.8,.29-1.21,.42-1.04,.32-2.08,.61-3.13,.91Z" style="fill:#ecb67b;"/><path d="M270.13,107.41c-.3-.37-.33-.86-.51-1.28-.1-.24-.39-.52-.23-.74,.16-.21,.49,.02,.73,.08,1.31,.29,2.64,.31,3.97,.3,1.65,0,3.29,.08,4.9,.47,.86,.21,1.7,.52,2.51,.89,1.56,.71,2.99,1.63,4.32,2.71,.15,.12,.26,.28,.39,.42-.57,.46-1.14,.91-1.69,1.37-.16,.13-.23,.05-.34-.05-1.13-1.1-2.41-1.98-3.82-2.66-1.73-.84-3.54-1.2-5.47-1.08-1.59,.1-3.2,.11-4.75-.44Z" style="fill:#382012;"/><path d="M202.61,92.57c1.09-.1,2.19-.27,3.28-.28,.83-.01,1.66,.04,2.49,.22,1.24,.27,2.34,.83,3.4,1.51,1.29,.84,2.64,1.51,4.31,1.67-.77,.49-1.37,.98-1.99,1.47-.2,.16-.31,.42-.59,.47-.95-.28-1.79-.77-2.63-1.27-.56-.33-1.11-.68-1.66-1.02-1.71-1.05-3.47-1.07-5.28-.31-.25,.11-.33,.06-.43-.18-.27-.65-.56-1.3-.83-1.95-.04-.1-.14-.2-.07-.32Z" style="fill:#382012;"/><path d="M225.33,114.01c.07-.02,.13-.05,.2-.07-.01,.09-.03,.18-.03,.26,0,.11-.07,.23,.06,.31,.12,.07,.18-.05,.26-.1,.14-.09,.27-.18,.41-.27,.02,.07,.05,.14,.07,.21-.21,.06-.38,.17-.51,.34-.03,.03-.05,.05-.08,.08-.22,0-.31,.37-.48,.26-.18-.11,.07-.37,.02-.56,0-.04,.01-.09,.02-.13,.12-.09,.07-.22,.07-.34Z" style="fill:#683217;"/><path d="M273.41,94.66c-.17,.02-.31-.02-.31-.24,.17-.01,.22,.14,.31,.24Z" style="fill:#382012;"/><path d="M273.1,94.42c-.18,.02-.31-.02-.31-.24,.17-.02,.21,.15,.31,.24Z" style="fill:#382012;"/><path d="M272.8,94.19c-.18,.01-.33-.01-.3-.25,.15,.02,.21,.16,.3,.25Z" style="fill:#382012;"/><path d="M274.25,95.28c-.12,0-.24,0-.23-.17,.13-.02,.18,.07,.23,.17Z" style="fill:#382012;"/><path d="M274.55,95.51c-.12,0-.24,0-.23-.17,.13-.02,.18,.07,.23,.17Z" style="fill:#382012;"/><path d="M274.86,95.75c-.12,0-.24,0-.23-.17,.13-.01,.18,.07,.23,.17Z" style="fill:#382012;"/><path d="M275.16,95.98c-.12,0-.24,0-.23-.17,.12-.01,.18,.07,.23,.17Z" style="fill:#382012;"/><path d="M273.94,95.05c-.12,0-.24,0-.23-.17,.13-.02,.18,.08,.23,.17Z" style="fill:#382012;"/><path d="M273.64,94.81c-.12,0-.24,0-.23-.16,.13-.02,.18,.08,.23,.16Z" style="fill:#382012;"/><path d="M178.17,121.68s-.05,.06-.07,.09c0-.05,.02-.08,.07-.09Z" style="fill:#683217;"/><path d="M288.28,81.69c-.1,.17-.28,.16-.43,.21-14.99,4.98-29.97,9.95-44.96,14.92-2.23,.74-4.45,1.47-6.68,2.22-.27,.09-.44,.05-.64-.14-.78-.71-1.6-1.35-2.47-1.95,.24-.74,.21-1.44-.33-2.12,.44,.08,.81,.08,1.18-.01-.04,.08-.08,.16-.13,.28,1.09-.5,2.13-.97,3.17-1.45,2.39-1.1,4.79-2.19,7.22-3.2,1.9-.8,3.78-1.63,5.72-2.31,2.54-.89,5.15-1.5,7.76-2.13,3.32-.81,6.66-1.49,10-2.21,3.59-.78,7.2-1.51,10.76-2.43,.87-.22,1.75-.4,2.57-.77,.03,0,.07-.02,.1-.03,0,0-.01-.02-.02-.03l-.08,.06c-.11,0-.23,0-.34,.03-3.24,.8-6.53,1.36-9.8,2-2.81,.55-5.63,1.08-8.44,1.66-2.97,.61-5.94,1.26-8.86,2.07-1.61,.45-3.22,.93-4.77,1.55-2.05,.82-4.07,1.72-6.08,2.66-2.58,1.2-5.12,2.45-7.65,3.75-.25,.13-.45,.35-.75,.34,.64-.51,.99-1.16,.91-2.01,.04,0,.08,0,.11-.03,2.42-1.45,4.96-2.65,7.55-3.75,2.3-.98,4.65-1.84,7.03-2.61,2.12-.69,4.26-1.31,6.42-1.86,2.71-.69,5.44-1.27,8.18-1.8,2.38-.46,4.76-.91,7.15-1.32,2.44-.42,4.89-.77,7.3-1.32,.48-.11,1.01-.14,1.43-.46,0,0,0,0,0,0,.11,0,.24,.05,.31-.09,.4-.15,.8-.3,1.2-.45,1.96,.86,3.93,1.71,5.89,2.57,.15,.07,.31,.11,.46,.16Zm-50.39,12.87l.02,.08s.08,.02,.1,0c2.99-1.2,6.02-2.32,9.07-3.37,2.17-.75,4.35-1.48,6.56-2.1,3.82-1.06,7.66-2.03,11.49-3.05,2.23-.59,4.45-1.2,6.67-1.83,2.12-.6,4.24-1.22,6.35-1.84,.54-.16,1.07-.35,1.65-.54-.15-.09-.23-.04-.31-.02-1.47,.42-2.94,.86-4.42,1.26-3.07,.84-6.13,1.67-9.21,2.48-3.61,.95-7.23,1.87-10.84,2.82-2.01,.53-3.99,1.17-5.96,1.84-2.71,.92-5.38,1.91-8.04,2.98-1.05,.42-2.08,.86-3.12,1.29Zm-.24,.3s.05-.09,.06-.14c0,0-.06-.05-.08-.04-.04,.02-.08,.06-.11,.09,.03,.02,.05,.04,.13,.1Zm42.63-13.13s-.04-.03-.06-.03c-.02,0-.04,.02-.06,.03,.02,.01,.04,.03,.06,.03,.02,0,.04-.02,.06-.03Zm-43,13.12s0,.02,0,.02c0,0,.02,0,.03,0,0-.01,0-.03,0-.04,0,0-.02,0-.03,.01Zm-4,.47s-.02-.01-.03-.01c0,0,0,.02-.01,.03,.01,0,.02,.01,.03,0,0,0,0-.02,.01-.03Zm46.65-13.52s0,.02,0,.02c0,0,.02,0,.03,0,0-.01,0-.03,0-.04,0,0-.02,0-.03,.01Z" style="fill:#fcc792;"/><path d="M232.34,94.28c-.33-.26-.67-.51-1.06-.69,.23-.05,.05-.14,.01-.2-.34-.53-.43-1.1-.27-1.7,.3-1.1,1.25-1.6,2.52-1.35,.03,.04,.09,.07,.12,.03,.04-.05-.03-.07-.05-.1-.73-.98-.66-2.15,.19-2.87,.61-.52,1.3-.56,2.04-.33,.02,.02,.05,.05,.05,.04,.05-.03,.02-.06,0-.09-.71-1.39,.12-2.68,1.18-2.96,.25-.07,.51-.05,.79-.07-.89-.8-1.17-1.59-.83-2.44,.44-1.09,1.3-1.44,2.49-1.24-.6-.68-.81-1.4-.53-2.2,.28-.8,.89-1.2,1.72-1.34-.81-.45-1.23-1.1-1.16-1.99,.08-.98,.65-1.58,1.68-1.85-.6-.23-.88-.7-1.18-1.13-.04-.33-.07-.67-.11-1,.22-.66,.54-1.25,1.26-1.57-.23-.05-.4-.07-.56-.12-.77-.24-1.27-.77-1.4-1.57-.14-.81,.14-1.5,.81-1.99,.68-.49,1.74-.55,2.6,.3,.13,.21,.27,.42,.4,.63,.02,.2,.06,.4,.06,.61,.04,.79-.29,1.39-.93,1.82-.07,.05-.17,.06-.21,.18,.86,.02,1.43,.48,1.82,1.21,.13,.45,.17,.9,.07,1.36-.28,.72-.76,1.22-1.63,1.42,.5,.21,.75,.55,1.03,.85,.05,.13,.1,.26,.14,.4,.1,.41,.09,.81,0,1.22-.32,.77-.86,1.27-1.79,1.39,.4,.21,.63,.47,.87,.73,.23,.46,.36,.94,.31,1.45-.17,.63-.48,1.16-1.08,1.46-.49,.25-1,.23-1.61,.1,.39,.34,.56,.71,.7,1.09,0,.28,.01,.57,.02,.85-.22,.73-.62,1.28-1.36,1.52-.26,.08-.52,.11-.88,.11,.44,.29,.68,.63,.86,1.02,.03,.11,.07,.21,.1,.32,0,.1,0,.2,.01,.3-.11,1.19-.65,1.87-1.65,2.07-.39,.08-.77-.04-1.17-.13,.42,.85,.43,1.65-.15,2.37-.6,.73-1.39,.9-2.29,.61,.29,.27,.37,.65,.57,.95,0,0-.03,.01-.03,.02,0,.02,.01,.04,.02,.06,.08,1.61-.72,2.42-2.33,2.37-.07,0-.16-.03-.18,.08Zm7.48-12.99c-.02-.45-.46-.78-1.02-.76-.44,.02-.89,.43-.87,.81,.02,.42,.52,.84,.97,.82,.47-.02,.94-.46,.93-.86Zm1.32-15.83c-.45,0-.92,.42-.93,.81,0,.38,.49,.83,.91,.82,.49,0,.98-.43,.98-.85,0-.43-.45-.79-.97-.78Zm-.1,4.7c0,.46,.41,.83,.93,.82,.47,0,.9-.4,.9-.82,0-.45-.39-.8-.9-.81-.51-.01-.93,.35-.93,.81Zm-8.18,21.95c.61,0,.93-.26,.93-.76,0-.5-.31-.79-.87-.79-.54,0-.96,.33-.97,.77,0,.43,.4,.79,.9,.79Zm2.23-4.89c-.52,0-.92,.36-.92,.82,0,.45,.42,.82,.89,.81,.46-.01,.94-.44,.94-.84,0-.42-.42-.78-.91-.78Zm2.48-1.32c.45,0,.96-.45,.95-.83-.01-.45-.44-.8-.96-.8-.5,0-.88,.38-.87,.86,0,.4,.43,.77,.88,.77Zm3.93-11.11c.52,0,.91-.32,.91-.76,0-.48-.33-.79-.87-.79-.54,0-.95,.33-.96,.77,0,.5,.33,.78,.92,.78Zm-.71,3.88c.57,0,.96-.35,.93-.86-.03-.46-.34-.69-.91-.69-.51,0-.91,.34-.92,.77,0,.43,.4,.79,.9,.79Zm-1.23,1.67l-.03-.02v.02s.03,0,.03,0Z" style="fill:#b86328;"/><path d="M234.85,91.83s-.01-.04-.02-.06c0,0,.02-.01,.03-.02,.17-.25,.42-.11,.63-.11,.9-.02,1.77-.79,1.81-1.69,.01-.3,.14-.46,.35-.62,.58-.47,1.25-.82,1.8-1.33,1.23-.78,2.48-1.52,3.79-2.15,2.52-1.21,5.16-2.06,7.91-2.55,1.62-.29,3.26-.43,4.89-.61,1.79-.2,3.57-.41,5.36-.61,1.26-.14,2.52-.26,3.77-.4,1.19-.14,2.39-.3,3.58-.44,1.14-.14,2.29-.26,3.43-.41,1.5-.2,3.01-.42,4.51-.66,1.25-.2,2.49-.44,3.73-.66-.42,.32-.95,.35-1.43,.46-2.41,.54-4.86,.9-7.3,1.32-2.39,.41-4.77,.86-7.15,1.32-2.74,.53-5.47,1.11-8.18,1.8-2.16,.55-4.3,1.18-6.42,1.86-2.38,.77-4.73,1.63-7.03,2.61-2.59,1.1-5.13,2.3-7.55,3.75-.03,.02-.07,.02-.11,.03-.12-.28-.11-.62-.39-.82Z" style="fill:#ecb67b;"/><path d="M243.4,74.32c-.05-.13-.1-.26-.14-.4,.25-.52,.62-.99,.75-1.56,1.46-2.87,2.91-5.75,4.37-8.62,.06-.12,.15-.25,.24-.34,2.38-2.36,4.98-4.42,7.98-5.9,1.58-.78,3.26-1.23,4.94-1.67,3.54-.92,7.13-1.57,10.75-2.12,2.4-.36,4.79-.7,7.21-.93,.64-.06,.64-.07,.45,.54-1.99,6.5-3.98,13-5.98,19.49-.4,1.29-.8,2.59-1.18,3.89-.07,.25-.19,.31-.43,.33-1.82,.15-3.64,.28-5.46,.48-1.85,.2-3.7,.45-5.54,.74-3.02,.48-6.02,1.09-8.97,1.89-3.24,.88-6.41,1.99-9.43,3.5-1.06,.53-2.09,1.12-3.09,1.77-.11,.07-.22,.12-.33,.19-.03-.11-.07-.21-.1-.32,.39-.18,.73-.43,1.08-.67,.07-.03,.14-.07,.2-.1,3.2-1.9,6.64-3.22,10.19-4.28,3.87-1.15,7.8-1.94,11.79-2.51,2.87-.41,5.74-.73,8.63-.92,.33-.02,.53-.12,.64-.5,2.16-7.09,4.34-14.18,6.51-21.27,.18-.6,.36-1.2,.55-1.83-.14,0-.24-.01-.34,0-2.4,.29-4.81,.6-7.2,.99-3.58,.57-7.15,1.23-10.66,2.19-1.88,.51-3.71,1.14-5.42,2.14-1.96,1.15-3.76,2.51-5.43,4.05-.48,.44-1.04,.83-1.34,1.42-1.76,3.44-3.5,6.89-5.24,10.34Z" style="fill:#e4a260;"/><path d="M239.45,88c-.55,.51-1.22,.85-1.8,1.33-.2,.16-.33,.32-.35,.62-.04,.91-.9,1.67-1.81,1.69-.21,0-.46-.14-.63,.11-.2-.31-.28-.68-.57-.95,.9,.29,1.69,.13,2.29-.61,.58-.71,.57-1.51,.15-2.37,.4,.1,.78,.21,1.17,.13,1-.2,1.54-.88,1.65-2.07,.28,.72,.19,1.42-.11,2.11Z" style="fill:#ffe5bd;"/><path d="M244.01,72.36c-.13,.58-.5,1.04-.75,1.56-.28-.31-.53-.64-1.03-.85,.87-.21,1.35-.71,1.63-1.42,0,.25,.03,.49,.15,.71Z" style="fill:#ffe5bd;"/><path d="M280.72,79.42c-.07,.14-.2,.09-.31,.09,.08-.11,.21-.06,.31-.09Z" style="fill:#ecb67b;"/><path d="M183.91,63.29c1.04-.3,2.09-.59,3.13-.91,.41-.12,.84-.17,1.21-.42,.18,.35,.59,.37,.84,.62-.06,.13,.06,.06,.09,.08,.02,0,.04,0,.06,0,0,.16,.12,.16,.23,.15,0,0,0,0,0,0,.01,.25,.24,.29,.38,.39,2.47,1.69,4.94,3.38,7.42,5.06,2.69,1.84,5.39,3.67,8.08,5.51,2.39,1.63,4.78,3.26,7.17,4.89,2.08,1.42,4.15,2.87,6.25,4.26,2.58,1.71,4.96,3.66,7.12,5.89,.09,.09,.19,.17,.29,.25-.36,.54-.52,1.13-.39,1.78-.1,0-.16-.06-.23-.12-1.4-1.28-2.87-2.49-4.33-3.69-1.51-1.25-3.04-2.47-4.6-3.67-2.12-1.63-4.24-3.25-6.39-4.84-3.66-2.72-7.36-5.37-11.11-7.97-2.66-1.84-5.35-3.64-8.07-5.38-.62-.4-1.22-.82-1.89-1.13-.07-.14-.19-.18-.36-.23q.17,.19,.36,.23c.04,.28,.31,.32,.48,.45,2.35,1.72,4.7,3.44,7.06,5.16,2.15,1.57,4.3,3.13,6.44,4.71,2.33,1.72,4.66,3.46,6.98,5.2,2.53,1.9,5.07,3.81,7.58,5.73,2.14,1.64,4.27,3.3,6.39,4.97,.68,.53,1.39,1.03,2,1.65-.06,.03-.11,.05-.17,.08-.35,0-.62,.22-.9,.39-.05,0-.1,0-.15,0,0-.08-.03-.15-.13-.14-.02,0-.05,.03-.04,.04,.02,.09,.1,.09,.17,.1,0,.05,0,.1,0,.15-.77,1.03-.73,1.91,.13,2.92-.13,.1-.23-.04-.34-.03-1.6-1.27-3.2-2.54-4.81-3.8-7.98-6.27-15.96-12.55-23.94-18.82-3.93-3.09-7.86-6.18-11.79-9.27-.08-.06-.26-.08-.2-.26Zm6.17,2.56s0-.02-.01-.03c0,0-.01,0-.02,0,.01,.01,.02,.02,.03,.03,.03,.02,.05,.04,.08,.06,0,0,.01-.02,.02-.03-.03,0-.07-.02-.1-.03Zm.46,.31c-.04-.07-.07-.14-.16-.12-.01,0-.03,.04-.03,.05,.04,.09,.12,.06,.19,.07,0,.09,.03,.18,.13,.2,.04,0,.07-.02,.06-.07-.02-.11-.11-.13-.2-.14Zm.65,.53c10.92,8.58,21.96,17.01,33.12,25.28-10.93-8.58-21.97-17-33.12-25.28Zm-.12-.17s-.08-.08-.13-.09c-.07-.02-.09,.04-.06,.09,.02,.04,.07,.06,.11,.08,.01,0,.04-.04,.07-.08Zm33.47,25.61s-.01-.05-.03-.06c-.01,0-.04,0-.06,.01,.01,.03,.02,.05,.03,.08,.02,0,.04-.02,.05-.03Zm-34.66-26.46s0-.02-.01-.02c0,0-.02,0-.03,0,0,.01,.01,.02,.02,.04,0,0,.02-.01,.02-.02Z" style="fill:#fcc792;"/><path d="M225.79,90.86c-.13-.65,.03-1.24,.39-1.78,.21-.18,.4-.39,.69-.51-.35-.19-.67-.33-.9-.63-.41-.54-.54-1.15-.4-1.82,.12-.25,.24-.5,.36-.76-1.61-.3-2.22-1.69-1.6-3.11-.24-.01-.48,0-.72-.05-1-.21-1.63-1.06-1.58-2.1,0-.11,.11-.29-.13-.27-.82,.07-1.4-.34-1.9-.94-.05-.16-.11-.31-.16-.47,0-.04,0-.08-.01-.11-.1-.27,.06-.64-.08-.81-.17-.2-.53,0-.82-.05-.29-.06-.53-.26-.83-.27h0c.04-.05,0-.09-.03-.12-.58-.48-.84-1.09-.75-1.84,.02-.16-.03-.18-.19-.17-1.46,.13-2.48-1.07-2.13-2.52,.07-.29-.03-.28-.24-.3-1.28-.11-2.1-1.35-1.69-2.59,.08-.24,.03-.3-.19-.37-1.43-.47-1.88-2.11-.88-3.26,.18-.21,.14-.27-.04-.43-1.02-.86-.92-2.45,.18-3.19,.21-.14,.27-.21,.1-.45-.79-1.15-.24-2.69,1.09-3.06,.23-.06,.24-.13,.18-.32-.21-.74-.09-1.41,.43-1.98,.67-.73,1.54-.81,2.6-.26,.02,.01,.05,.02,.07,.04,0-.03-.02-.06-.03-.08-.03-.07-.06-.14-.08-.22-.36-.91-.08-1.9,.69-2.44,.79-.55,1.8-.45,2.51,.25,.06,.05,.09,.16,.2,.14-.09-1.24,.48-2.15,1.49-2.36,1.09-.23,1.96,.32,2.39,1.54,.25-1.06,.87-1.71,1.95-1.76,.93-.04,1.54,.49,2.01,1.68,.51-.86,1.23-1.32,2.23-1.09,1.08,.26,1.52,1.05,1.56,2.16,.33-.35,.67-.61,1.11-.7,.21-.02,.43-.05,.64-.07,.69,.09,1.18,.49,1.59,1.03,0,.17,.06,.32,.15,.47q.01,.52,.4,.32c.2,0,.4-.02,.6-.03,.87,.09,1.4,.63,1.77,1.39-.05,.17,.07,.32,.05,.49,.01,.36-.09,.71-.24,1.09,.4-.14,.76-.27,1.14-.22,.28,.08,.56,.15,.84,.23,.16,.15,.32,.29,.48,.44,.02,.03,.05,.05,.07,.08,.04,.04,.08,.08,.11,.12,.08,.25,.17,.5,.25,.74,.08,.59-.06,1.13-.38,1.63,0,0-.01,.01-.02,.02,0,0,0,.01,0,.02,0-.01,0-.03,.01-.04,.15,0,.3,0,.45,.01,1.03,.03,1.89,.89,1.92,1.93,.03,1.01-.75,1.96-1.67,2.04-1.19,.1-2.08-.59-2.24-1.71-.08-.57,.1-1.06,.41-1.56-.83,.13-1.5-.11-2-.75-.49-.65-.48-1.37-.21-2.15-.11,.03-.16,.04-.2,.06-1.26,.42-2.38-.22-2.65-1.53-.06-.29-.2-.22-.38-.18-1.09,.27-2.11-.38-2.39-1.49-.05-.2-.04-.42-.08-.66-1.16,1.26-3.09,.89-3.54-.96-.45,.8-1.09,1.24-2,1.15-.9-.09-1.44-.65-1.76-1.56-.22,.9-.68,1.48-1.5,1.69-.83,.22-1.49-.1-2.11-.77,.1,.44,.08,.78-.02,1.12-.35,1.15-1.75,1.88-3.04,1.02-.03,0-.06-.02-.08-.03,.01,.03,.02,.05,.04,.08,.03,.08,.06,.17,.09,.25,.43,1.11-.13,2.34-1.25,2.66-.29,.08-.28,.18-.21,.42,.24,.86-.08,1.73-.81,2.19-.27,.17-.25,.27-.08,.48,.16,.19,.23,.43,.29,.67,.19,.82-.11,1.46-.67,2.03,.83,.64,1.14,1.44,.8,2.45-.07,.22,.07,.21,.18,.24,.45,.12,.81,.37,1.07,.76,.43,.6,.47,1.26,.23,1.97,.65,.03,1.22,.22,1.64,.73,.41,.5,.53,1.09,.45,1.73,.87-.13,1.59,.17,2.04,.81,.33,.47,.38,1,.36,1.55,0,0-.02,0-.03,0,0,0,.01,.01,.02,.02,0,0,0-.02,0-.03,.09,0,.18,.01,.26,0,1.36-.16,2.34,1,2.19,2.15-.04,.28,.12,.24,.29,.24,1,.01,1.73,.62,1.95,1.62,.11,.52-.04,.99-.27,1.47,.9-.1,1.62,.18,2.08,.95,.47,.79,.35,1.58-.17,2.33,.93,.15,1.6,.6,1.82,1.55,.24,.99-.18,1.72-1,2.28,.07,.04,.11,.06,.16,.08,.85,.46,1.29,1.32,1.11,2.17-.21,.99-.88,1.57-1.9,1.63-.07,0-.16-.02-.2,.06-.29-.3-.7-.36-1.07-.48-.31-.31-.55-.65-.68-1.08Zm-12.39-23.61c.52,0,.93-.34,.94-.8,0-.46-.4-.83-.92-.83-.52,0-.91,.36-.91,.83,0,.45,.37,.79,.89,.79Zm10.57,12.89c.5,.01,.9-.36,.91-.83,0-.41-.39-.79-.85-.8-.5-.02-.98,.37-.98,.81,0,.46,.39,.81,.92,.82Zm9.09-24.86c.55,0,.97-.34,.97-.81,0-.38-.45-.83-.87-.81-.53,.03-.98,.26-.96,.85,.01,.43,.38,.77,.87,.77Zm-11.35,22.45c.52,0,.95-.36,.95-.81,0-.41-.45-.81-.91-.82-.53,0-.93,.36-.92,.86,0,.42,.4,.77,.88,.77Zm-6.34-21.52c-.52,0-.94,.37-.94,.82,0,.41,.45,.81,.91,.81,.53,0,.92-.37,.92-.87,0-.42-.41-.76-.89-.76Zm23.14,3.57c.09,0,.18,.01,.26,0,.37-.07,.63-.29,.72-.66,.08-.31-.09-.55-.32-.73-.2-.16-.44-.17-.68-.16-.47,.02-.88,.4-.87,.8,.01,.42,.41,.75,.89,.75Zm-16.68-6.36c.6,0,.91-.27,.91-.79,0-.49-.33-.77-.89-.77-.51,0-.93,.34-.94,.76,0,.49,.34,.79,.92,.79Zm14.01,3.65c.54,0,.92-.33,.93-.8,.01-.54-.39-.78-.92-.82-.42-.03-.91,.43-.92,.82-.01,.43,.39,.79,.9,.8Zm-20.93,11.49c-.56-.09-.93,.4-.94,.78-.01,.44,.42,.78,.96,.77,.56,0,.87-.29,.87-.79,0-.5-.3-.76-.88-.76Zm4.29,6.76c.61,0,.93-.26,.94-.75,0-.51-.3-.8-.86-.8-.55,0-.96,.32-.97,.76-.01,.43,.39,.79,.89,.8Zm6.51-22.06c.55,0,.97-.33,.99-.79,.02-.38-.4-.75-.84-.76-.64-.01-.97,.24-.99,.75-.01,.52,.28,.8,.84,.81Zm.28,29.91c.61,0,.93-.26,.94-.75,0-.51-.3-.8-.85-.81-.56,0-.97,.33-.98,.8,0,.39,.42,.75,.89,.76Zm-7.73-28.04c.54,0,.96-.34,.96-.77,0-.48-.34-.78-.89-.78-.58,0-.94,.29-.94,.76,0,.48,.33,.79,.87,.79Zm-1.42,17.79c.6,0,.93-.26,.93-.76,0-.45-.37-.79-.88-.79-.53,0-.95,.35-.95,.79,0,.47,.35,.77,.9,.77Zm-3.05-12.27c.6,0,.93-.26,.93-.76,0-.5-.3-.79-.86-.8-.56,0-.97,.34-.97,.81,0,.39,.42,.75,.9,.75Zm26.74,.85c-.53,0-.94,.35-.93,.79,0,.43,.42,.76,.92,.76,.52,0,.91-.32,.91-.76,0-.51-.31-.79-.9-.79Zm-27.35,2.41c.54,0,.92-.32,.93-.79,0-.43-.39-.76-.91-.76-.54,0-.92,.33-.92,.8,0,.47,.33,.75,.9,.76Zm14.26,22.6c.55,0,.94-.31,.94-.77,0-.5-.31-.78-.87-.78-.54,0-.95,.33-.96,.77,0,.43,.4,.79,.89,.79Zm2.06-32.7c.56,0,.95-.34,.94-.83,0-.46-.34-.73-.89-.73-.53,0-.95,.35-.94,.79,0,.42,.41,.76,.89,.76Zm-1.76,34.87c-.54,0-.95,.33-.96,.77,0,.43,.4,.78,.92,.78,.54,0,.92-.34,.92-.82,0-.47-.32-.73-.87-.73Z" style="fill:#b86328;"/><path d="M225.56,86.12c-.14,.67,0,1.27,.4,1.82,.22,.3,.55,.44,.9,.63-.29,.12-.48,.33-.69,.51-.1-.08-.2-.16-.29-.25-2.16-2.23-4.54-4.18-7.12-5.89-2.1-1.39-4.17-2.84-6.25-4.26-2.39-1.63-4.78-3.26-7.17-4.89-2.69-1.84-5.39-3.68-8.08-5.51-2.47-1.69-4.95-3.37-7.42-5.06-.15-.1-.37-.14-.38-.39,1.04,.59,2.09,1.17,3.12,1.76,2.05,1.19,4.1,2.38,6.14,3.58,2.47,1.45,4.94,2.91,7.41,4.37,2.59,1.53,5.15,3.11,7.69,4.71,2.73,1.72,5.37,3.57,7.91,5.57,1.32,1.05,2.57,2.17,3.82,3.31Z" style="fill:#ecb67b;"/><path d="M219.83,78.42c.05,.16,.11,.31,.16,.47-.48-.21-.88-.56-1.31-.85-4.73-3.11-9.45-6.22-14.17-9.34-2.23-1.47-4.45-2.95-6.68-4.42-.45-.3-.45-.3-.09-.69,1.73-1.82,3.47-3.64,5.2-5.47,2.11-2.22,4.22-4.45,6.33-6.68,2.11-2.23,4.22-4.45,6.33-6.68,.35-.37,.7-.75,1.05-1.13,.13-.15,.23-.18,.42-.07,4.72,2.8,9.44,5.59,14.11,8.47,.7,.44,1.43,.85,2.09,1.34-.21,.02-.43,.05-.64,.07,0-.17-.15-.2-.25-.26-.57-.36-1.14-.72-1.72-1.07-4.37-2.69-8.78-5.3-13.19-7.92-.27-.16-.44-.13-.65,.1-1.15,1.24-2.32,2.47-3.48,3.7-1.38,1.45-2.75,2.91-4.13,4.36-2.14,2.25-4.27,4.5-6.41,6.76-1.48,1.56-2.96,3.13-4.45,4.68-.21,.22-.16,.31,.06,.45,.92,.6,1.84,1.21,2.75,1.81,5.18,3.42,10.35,6.85,15.53,10.26,.45,.3,.88,.65,1.4,.85,0,0,0,0,0,0,.39,.34,.77,.68,1.16,1,.17,.14,.37,.22,.58,.24Z" style="fill:#e4a260;"/><path d="M240.51,59.55c-.08-.25-.17-.5-.25-.74,.52,.35,.92,.84,1.34,1.29,.9,.96,1.77,1.95,2.59,2.99,.46,.58,.47,.58,.09,1.24-.4,.71-.75,1.46-1.22,2.13-.13-.21-.27-.42-.4-.63,.42-.75,.84-1.51,1.27-2.25,.1-.17,.03-.25-.07-.37-.93-1.2-1.96-2.3-2.99-3.41-.1-.11-.18-.26-.36-.26Z" style="fill:#e4a260;"/><path d="M237.85,57.07c.01-.17-.11-.32-.05-.49,.66,.46,1.26,.98,1.8,1.59-.28-.08-.56-.15-.84-.23-.16-.44-.56-.62-.91-.86Z" style="fill:#e4a260;"/><path d="M235.02,54.89c-.09-.14-.14-.3-.15-.47,.42,.19,.79,.47,1.16,.76-.2,0-.4,.02-.6,.03-.08-.18-.24-.25-.4-.32Z" style="fill:#e4a260;"/><path d="M189.48,62.82c-.11,0-.23,0-.23-.15,.08,.05,.16,.1,.23,.15Z" style="fill:#ecb67b;"/><path d="M189.19,62.66s-.15,.06-.09-.08c.03,.03,.06,.05,.09,.08Z" style="fill:#ecb67b;"/><path d="M240.15,58.69s-.05-.05-.07-.08c.02,.03,.05,.05,.07,.08Z" style="fill:#e4a260;"/><path d="M231.91,105.71c-.24-.1-.47-.25-.79-.27,.1-.05,.15-.09,.21-.11,1.22-.41,1.74-1.53,1.28-2.75-.02-.05-.03-.1-.04-.15,.4,.2,.51,.6,.62,.99,.03,.11,.05,.22,.07,.34-.07,.93-.44,1.64-1.35,1.96Z" style="fill:#ffe5bd;"/><path d="M232.82,100.57c-.12,.31-.29,.59-.5,.85-.13,.09-.26,.19-.39,.28-.3-.09-.57-.27-.92-.29,1.35-.71,1.7-1.58,1.2-2.91,.66,.55,.78,1.27,.62,2.08Z" style="fill:#ffe5bd;"/><path d="M288.48,51.72c-1.46,8.6-3.07,17.17-4.92,25.7,1.45-8.6,3.08-17.17,4.92-25.7Z" style="fill:#e4a260;"/><path d="M286.77,78.41c1.17-8.59,2.52-17.15,4.03-25.68,.03,0,.06,0,.1,.01-.42,2.85-.82,5.7-1.25,8.55-.44,2.85-.91,5.7-1.36,8.55-.46,2.86-.94,5.72-1.51,8.57Z" style="fill:#e4a260;"/><path d="M285.68,78.27c1.26-8.64,2.69-17.26,4.28-25.86,.19,.56-3.88,24.71-4.28,25.86Z" style="fill:#e4a260;"/><path d="M289.17,52.03c-1.29,8.57-2.77,17.11-4.45,25.62,1.28-8.57,2.78-17.11,4.45-25.62Z" style="fill:#e4a260;"/><path d="M287.75,79.03c1.11-8.56,2.38-17.1,3.82-25.66,.15,.65-2.75,20.15-3.82,25.66Z" style="fill:#e4a260;"/><path d="M291.67,53.2c-.05-.08-.05-.16,0-.27,.06,.1,.06,.18,0,.27Z" style="fill:#e4a260;"/><path d="M284.7,77.97s-.04,.05-.06,.08c0-.03-.02-.07-.02-.1,0-.02,.02-.04,.03-.06,.02,.03,.03,.06,.05,.09Z" style="fill:#e4a260;"/><path d="M286.69,78.73s.05,.03,.05,.04c0,.04,.01,.09,0,.11-.06,.06-.05-.02-.05-.04,0-.03,0-.07,.02-.11Z" style="fill:#e4a260;"/><path d="M287.75,79.44s-.04,.06-.05,.08c0-.03-.02-.07-.03-.1,0-.02,.02-.04,.03-.07,.02,.03,.03,.06,.05,.09Z" style="fill:#e4a260;"/><path d="M288.54,51.42s-.03-.04-.03-.06c0-.02,.02-.04,.03-.06,.01,.02,.03,.04,.03,.06,0,.02-.02,.04-.03,.06Z" style="fill:#e4a260;"/><path d="M283.54,77.77s-.02,.04-.03,.06c-.01-.02-.03-.04-.03-.06,0-.02,.02-.04,.03-.06,.01,.02,.02,.04,.03,.06Z" style="fill:#e4a260;"/><path d="M240.51,59.55c.18,0,.26,.16,.36,.26,1.03,1.11,2.06,2.21,2.99,3.41,.09,.12,.17,.2,.07,.37-.44,.74-.85,1.5-1.27,2.25-.86-.85-1.92-.79-2.6-.3-.68,.49-.95,1.18-.81,1.99,.14,.8,.63,1.33,1.4,1.57,.16,.05,.33,.07,.56,.12-.72,.32-1.04,.91-1.26,1.57-.09,.04-.12,.13-.17,.2-.4,.71-.79,1.42-1.19,2.12-2.69,4.76-5.39,9.52-8.08,14.29-.13,.24-.23,.32-.42,.08-.23,.4,.06,.63,.21,.91,.19,.37,.22,.37,.42,.03,1.03-1.81,2.07-3.62,3.09-5.44,1.74-3.07,3.47-6.14,5.2-9.22,.36-.65,.79-1.27,1.05-1.97,.3,.44,.58,.9,1.18,1.13-1.03,.27-1.6,.88-1.68,1.85-.07,.88,.34,1.53,1.16,1.99-.84,.14-1.45,.55-1.72,1.34-.28,.8-.07,1.52,.53,2.2-1.19-.2-2.04,.15-2.49,1.24-.34,.85-.06,1.64,.83,2.44-.28,.02-.54,0-.79,.07-1.06,.28-1.89,1.57-1.18,2.96-.02,.02-.03,.03-.05,.05-.73-.23-1.43-.18-2.04,.33-.85,.72-.93,1.89-.19,2.87-.02,.02-.04,.05-.07,.07-1.27-.25-2.22,.26-2.52,1.35-.17,.6-.08,1.17,.27,1.7,.04,.06,.22,.15-.01,.2-.25,0-.5-.12-.76-.07-.16-.46-.24-.95-.55-1.46-.12,.43-.48,.55-.68,.82-.4,.11-.81,.2-1.23,.17-.16-.22-.28-.48-.52-.63,.05-.09,.13-.06,.2-.06,1.02-.07,1.69-.65,1.9-1.63,.18-.85-.26-1.71-1.11-2.17-.04-.02-.08-.04-.16-.08,.82-.56,1.24-1.29,1-2.28-.23-.94-.89-1.4-1.82-1.55,.51-.75,.64-1.54,.17-2.33-.46-.78-1.17-1.06-2.08-.95,.22-.48,.38-.95,.27-1.47-.22-1-.95-1.61-1.95-1.62-.17,0-.33,.04-.29-.24,.15-1.15-.84-2.31-2.19-2.15-.09,0-.18,0-.26,0h0c.02-.55-.04-1.08-.36-1.55-.45-.64-1.17-.94-2.04-.81,.09-.64-.03-1.23-.45-1.73-.42-.51-.99-.7-1.64-.73,.23-.71,.19-1.37-.23-1.97-.27-.38-.63-.63-1.07-.76-.11-.03-.25-.02-.18-.24,.34-1.01,.03-1.82-.8-2.45,.56-.57,.86-1.21,.67-2.03-.06-.24-.13-.48-.29-.67-.17-.21-.2-.31,.08-.48,.74-.46,1.05-1.33,.81-2.19-.07-.24-.08-.34,.21-.42,1.12-.33,1.68-1.55,1.25-2.66-.03-.08-.06-.17-.09-.25,.02-.02,.03-.03,.05-.05,1.29,.86,2.7,.14,3.04-1.02,.1-.34,.13-.68,.02-1.12,.62,.67,1.28,.99,2.11,.77,.82-.21,1.28-.79,1.5-1.69,.32,.92,.86,1.47,1.76,1.56,.91,.09,1.55-.35,2-1.15,.45,1.84,2.39,2.22,3.54,.96,.04,.24,.03,.45,.08,.66,.27,1.11,1.3,1.76,2.39,1.49,.18-.04,.32-.12,.38,.18,.27,1.32,1.39,1.96,2.65,1.53,.05-.02,.09-.03,.2-.06-.27,.77-.29,1.5,.21,2.15,.49,.65,1.16,.88,2,.75-.31,.5-.49,.99-.41,1.56,.16,1.12,1.05,1.81,2.24,1.71,.92-.08,1.7-1.03,1.67-2.04-.03-1.04-.89-1.91-1.92-1.93-.15,0-.3,0-.45-.01h0c.32-.49,.46-1.03,.38-1.62Z" style="fill:#ffe5bd;"/><path d="M182.58,63.59c.57,.56,1.22,1,1.84,1.49,1.88,1.5,3.78,2.98,5.67,4.47,1.94,1.52,3.9,3.04,5.84,4.57,2.42,1.91,4.84,3.82,7.26,5.73,1.69,1.33,3.4,2.64,5.09,3.97,2.29,1.8,4.58,3.61,6.87,5.41,1.7,1.34,3.41,2.66,5.12,3.99,1.05,.82,2.11,1.64,3.16,2.47-.18,.15-.36,.31-.54,.46-1.59-1.24-3.17-2.48-4.76-3.71-1.47-1.14-2.93-2.29-4.39-3.44-1.97-1.55-3.94-3.1-5.92-4.65-1.35-1.06-2.71-2.12-4.06-3.18-1.88-1.48-3.76-2.96-5.64-4.44-1.7-1.34-3.42-2.66-5.12-4-1.94-1.52-3.88-3.06-5.82-4.59-1.43-1.13-2.85-2.27-4.31-3.36-.46-.35-.38-.75-.3-1.19Z" style="fill:#445224;"/><path d="M225.79,90.86c.13,.42,.37,.77,.68,1.08-.05,0-.1,.02-.15,.02-.08,0-.15-.02-.23-.02-.61-.62-1.32-1.12-2-1.65-2.12-1.67-4.25-3.33-6.39-4.97-2.52-1.92-5.05-3.83-7.58-5.73-2.32-1.74-4.64-3.48-6.98-5.2-2.14-1.58-4.29-3.14-6.44-4.71-2.35-1.72-4.71-3.44-7.06-5.16-.18-.13-.44-.17-.48-.45h0c.67,.31,1.27,.74,1.89,1.13,2.72,1.74,5.41,3.54,8.07,5.38,3.74,2.6,7.45,5.25,11.11,7.97,2.15,1.59,4.27,3.21,6.39,4.84,1.55,1.19,3.08,2.42,4.6,3.67,1.46,1.21,2.93,2.41,4.33,3.69,.07,.06,.13,.12,.23,.12Z" style="fill:#ecb67b;"/><path d="M228.74,100.41c.21,.37,.51,.65,.87,.85,.06,.14,.2,.21,.31,.32-.51,.38-.93,.82-1.02,1.51-.11,.77,.2,1.54,.84,1.97,.05,.04,.11,.06,.17,.1,.35,.23,.35,.29-.02,.48-.85,.45-1.25,1.6-.88,2.49,.05,.12,.1,.24,.14,.35-1.27,.44-2.54,.87-3.82,1.31-.07,.02-.15,0-.22,.01,.1-.15,.14-.32,.15-.5,.04-1.02-.52-1.79-1.51-2.04-.03-.02-.06-.05-.09-.07,.32-.11,.57-.34,.82-.56,.03-.03,.05-.06,.08-.09h0c.14,.04,.27,0,.41-.05,.95-.32,1.9-.63,2.85-.94,.35-.12,.7-.22,1.11-.35-1.17-.87-2.27-1.7-3.38-2.53,.47-1.03,.28-1.92-.64-2.7,.78,.09,1.35-.17,1.82-.71,.24,.04,.4,.21,.59,.34,.46,.31,.91,.64,1.44,.83Z" style="fill:#382012;"/><path d="M226.71,99.24c-.46,.54-1.03,.8-1.82,.71,.93,.78,1.11,1.67,.64,2.7-.38,.56-.9,.89-1.64,.96,.51,.32,.81,.71,.94,1.22,.16,.61,.02,1.17-.29,1.7,0,0,0,0,0,0-.03,.03-.05,.06-.08,.09-.25,.23-.49,.45-.82,.56-.27-.12-.53-.23-.83-.36,.73-.34,1.2-.91,1.26-1.72,.07-.83-.3-1.47-1.02-1.94,.91-.1,1.55-.53,1.83-1.38,.31-.91,0-1.66-.74-2.31,.98-.02,1.71-.38,2.07-1.29,.33-.85,.1-1.59-.57-2.3,.95,.17,1.71-.04,2.23-.8,.4-.58,.43-1.23,.21-1.89,.26,0,.38,.19,.48,.37,.22,.4,.37,.84,.31,1.31-.15,.41-.04,.83,0,1.24-.68,.14-1.32,.42-1.96,.67-.16,.06-.17,.14-.09,.28,.26,.46,.29,.95,.19,1.45-.11,.24-.22,.48-.33,.71Z" style="fill:#ffe5bd;"/><path d="M225.11,109.8c.07,0,.16,.01,.22-.01,1.27-.43,2.55-.87,3.82-1.31,.37,.47,.81,.82,1.49,.89-1.17,.57-1.59,1.46-1.26,2.74-1.04-.63-1.97-.54-2.83,.37,0-.2,0-.36-.03-.51-.13-1.07-.79-1.66-2.02-1.83,.13-.24,.39-.25,.61-.34Z" style="fill:#fff;"/><path d="M227.05,98.53c.1-.51,.06-1-.19-1.45-.08-.15-.07-.22,.09-.28,.64-.25,1.28-.53,1.96-.67,.26,.44,.52,.87,.95,1.17,.16,.11,.13,.2-.06,.28-.8,.33-1.23,.95-1.28,1.83-.54-.2-.98-.58-1.46-.87Z" style="fill:#5e7234;"/><path d="M234.85,91.83c.28,.2,.27,.54,.39,.82,.09,.85-.26,1.5-.91,2.01-.13,.05-.25,.11-.38,.16-.37,.1-.74,.09-1.18,.01,.54,.68,.57,1.38,.33,2.12-.3,.48-.66,.89-1.23,1.06-.26-.16-.48-.37-.78-.49,.8-.2,1.36-.65,1.59-1.44,.2-.66,.09-1.27-.35-1.81,.03-.11,.11-.08,.18-.08,1.61,.05,2.41-.76,2.33-2.37Z" style="fill:#ffe5bd;"/><path d="M223.64,116.65c.37,0,.57,.33,.4,.66-.19,.38-.43,.73-.65,1.09-.55,.88-1.09,1.77-1.64,2.65-.15,.24-.37,.34-.61,.2-.26-.15-.32-.4-.16-.66,.76-1.24,1.53-2.47,2.29-3.7,.1-.16,.24-.22,.38-.24Z" style="fill:#d57228;"/><path d="M230.79,103.28c-.51-.01-.88-.36-.88-.82,0-.44,.45-.82,.93-.81,.52,.01,.91,.38,.9,.85-.01,.45-.44,.8-.96,.78Z" style="fill:#d57228;"/><path d="M224.61,110.43c.48,0,.88,.38,.87,.83,0,.45-.43,.82-.94,.8-.51-.02-.89-.36-.89-.81,0-.47,.42-.82,.96-.82Z" style="fill:#d57228;"/><path d="M223.04,104.01c0,.46-.41,.82-.92,.82-.5,0-.92-.36-.91-.79,0-.49,.4-.84,.95-.84,.5,0,.88,.35,.88,.81Z" style="fill:#d57228;"/><path d="M222.48,108.72c-.51,0-.9-.37-.89-.8,.01-.44,.46-.83,.93-.82,.52,.01,.91,.38,.9,.84-.01,.45-.43,.8-.95,.79Z" style="fill:#d57228;"/><path d="M223.96,100.24c-.01,.45-.43,.8-.95,.79-.48-.01-.88-.37-.88-.79,0-.44,.44-.85,.92-.84,.52,0,.92,.37,.91,.84Z" style="fill:#d57228;"/><path d="M231.18,111.21c-.48,0-.88-.36-.89-.78,0-.43,.5-.86,.97-.85,.49,.02,.87,.39,.86,.84-.01,.47-.41,.79-.95,.78Z" style="fill:#d57228;"/><path d="M230.43,99.32c-.5,0-.9-.37-.9-.81,0-.39,.52-.83,.97-.82,.49,.01,.87,.38,.87,.84,0,.46-.4,.79-.94,.79Z" style="fill:#d57228;"/><path d="M228.19,111.98c.48,.01,.88,.37,.88,.78,0,.43-.5,.86-.97,.85-.49-.02-.87-.39-.86-.84,.01-.45,.43-.8,.95-.78Z" style="fill:#d57228;"/><path d="M224.41,97.31c-.56,0-.91-.3-.91-.76,0-.47,.39-.8,.93-.8,.55,0,.91,.3,.91,.76,0,.47-.39,.8-.93,.8Z" style="fill:#d57228;"/><path d="M230.81,95.37c-.56,0-.9-.28-.9-.74,0-.48,.39-.82,.95-.82,.48,0,.87,.34,.88,.76,0,.44-.4,.79-.93,.8Z" style="fill:#d57228;"/><path d="M226.34,92.25c.38-.03,.64,.15,.82,.5,.15,.3,.04,.57-.16,.78-.29,.31-.67,.36-1.06,.24-.44-.13-.61-.44-.54-.89,.06-.39,.41-.62,.94-.62Z" style="fill:#d57228;"/><path d="M230.8,107.25c-.54,0-.89-.29-.89-.74,0-.49,.38-.82,.95-.82,.48,0,.88,.35,.88,.77,0,.45-.41,.79-.94,.79Z" style="fill:#d57228;"/><path d="M225.11,109.8c-.21,.09-.47,.1-.61,.34-.16,.13-.33-.09-.5,.05,.46-.65,.61-1.34,.34-2.09-.12-.34-.36-.58-.59-.84,.99,.25,1.55,1.02,1.51,2.04,0,.18-.05,.35-.15,.5Z" style="fill:#ffe5bd;"/><path d="M227.05,98.53c.49,.29,.92,.67,1.46,.87,0,.35,.08,.69,.24,1.01-.53-.19-.98-.52-1.45-.83-.19-.13-.35-.3-.59-.34,.11-.24,.22-.48,.33-.71Z" style="fill:#445224;"/><path d="M228.91,94.88c.06-.48-.09-.91-.31-1.31-.1-.18-.22-.38-.48-.37-.02-.05-.04-.1-.06-.15,.42,.03,.83-.06,1.23-.17,.27,.24,.42,.56,.56,.89-.44,.26-.7,.68-.94,1.12Z" style="fill:#fcc792;"/><path d="M225.25,114.48c.06,.2-.19,.45-.02,.56,.17,.11,.26-.27,.48-.26,.03,.06,.05,.12,.09,.17,.14,.19,.24,.4,.09,.6-.17,.23-.42,.19-.66,.09-.24-.1-.45-.22-.61-.44-.12-.17-.17-.35-.09-.54,.09-.2,.28-.2,.46-.19,.09,0,.18,0,.27,0Z" style="fill:#d57228;"/><path d="M229.85,93.76c-.14-.33-.29-.64-.56-.89,.2-.27,.56-.39,.68-.82,.31,.51,.39,1,.55,1.46-.23,.08-.45,.16-.68,.24Z" style="fill:#ecb67b;"/><path d="M226.23,114.14c-.14,.09-.27,.18-.41,.27-.08,.05-.14,.16-.26,.1-.13-.07-.07-.2-.06-.31,0-.09,.02-.18,.03-.26,.2-.17,.4-.34,.64-.55,.02,.27-.03,.52,.06,.76Z" style="fill:#fff;"/><path d="M225.33,114.01c0,.12,.05,.25-.07,.34-.22-.11-.46-.12-.61-.15,.18-.05,.43-.12,.68-.19Z" style="fill:#ffe8d2;"/><path d="M229.92,101.59c-.1-.11-.24-.17-.31-.32,.23,.06,.46,.12,.7,.18-.13,.08-.25,.14-.39,.13Z" style="fill:#fcc792;"/><path d="M220.98,123.33c0,.12,.07,.25-.03,.37-.1-.12-.04-.25-.04-.37,.02,0,.04,0,.06,0Z" style="fill:#e0bcb2;"/><path d="M226.09,91.93c.08,0,.15,.02,.23,.02-.12,.11-.26,.05-.4,.06,.06-.03,.11-.05,.17-.08Z" style="fill:#b86328;"/><path d="M224.87,92.56s0-.1,0-.15c0,0,0,0,0,0,.05,0,.1,0,.15,0-.05,.05-.1,.1-.15,.15Z" style="fill:#ecb67b;"/><path d="M223.01,110.79s.08-.03,.09-.02c.03,.04-.01,.05-.04,.07-.02-.02-.03-.03-.05-.05Z" style="fill:#fff;"/><path d="M221.02,123.79c.07,.14,.06,.23,.01,.36-.07-.12-.06-.22-.01-.36Z" style="fill:#e0bcb2;"/><path d="M233.96,94.83c.13-.05,.25-.11,.38-.16,.3,0,.51-.22,.75-.34,2.53-1.3,5.08-2.55,7.65-3.75,2.01-.93,4.02-1.84,6.08-2.66,1.56-.62,3.16-1.1,4.77-1.55,2.93-.82,5.89-1.46,8.86-2.07,2.81-.58,5.62-1.11,8.44-1.66,3.27-.64,6.56-1.19,9.8-2,.11-.03,.23-.02,.34-.03h0c-.83,.37-1.71,.55-2.57,.77-3.56,.92-7.17,1.65-10.76,2.43-3.33,.72-6.68,1.4-10,2.21-2.61,.63-5.22,1.24-7.76,2.13-1.94,.68-3.83,1.52-5.72,2.31-2.43,1.02-4.82,2.1-7.22,3.2-1.04,.48-2.08,.95-3.17,1.45,.06-.12,.1-.2,.13-.28Z" style="fill:#ecb67b;"/><path d="M237.89,94.56c1.04-.43,2.08-.87,3.12-1.29,2.65-1.07,5.33-2.06,8.04-2.98,1.97-.67,3.95-1.31,5.96-1.84,3.61-.95,7.23-1.87,10.84-2.82,3.07-.81,6.14-1.64,9.21-2.48,1.48-.4,2.95-.84,4.42-1.26,.09-.02,.17-.07,.31,.02-.58,.19-1.11,.38-1.65,.54-2.12,.62-4.23,1.24-6.35,1.84-2.22,.63-4.44,1.23-6.67,1.83-3.83,1.02-7.67,1.99-11.49,3.05-2.21,.61-4.39,1.35-6.56,2.1-3.05,1.05-6.07,2.17-9.07,3.37-.03,.01-.07,0-.1,0l-.02-.08Z" style="fill:#ecb67b;"/><path d="M237.65,94.86c-.08-.06-.11-.08-.13-.1,.04-.03,.07-.07,.11-.09,.02,0,.08,.03,.08,.04-.01,.05-.04,.09-.06,.14Z" style="fill:#ecb67b;"/><path d="M280.29,81.73s-.04,.03-.06,.03c-.02,0-.04-.02-.06-.03,.02-.01,.04-.03,.06-.03,.02,0,.04,.02,.06,.03Z" style="fill:#ecb67b;"/><path d="M237.29,94.85s.02,0,.03-.01c0,.01,0,.03,0,.04,0,0-.02,0-.03,0,0,0,0-.02,0-.02Z" style="fill:#ecb67b;"/><path d="M233.29,95.31s0,.03-.01,.03c-.01,0-.02,0-.03,0,0,0,0-.03,.01-.03,.01,0,.02,0,.03,.01Z" style="fill:#ecb67b;"/><path d="M279.94,81.8s.02,0,.03-.01c0,.01,0,.03,0,.04,0,0-.02,0-.03,0,0,0,0-.02,0-.02Z" style="fill:#ecb67b;"/><path d="M281.03,80.6l.08-.06s.01,.02,.02,.03c-.03,0-.07,.02-.1,.03h0Z" style="fill:#ecb67b;"/><path d="M243.4,74.32c1.74-3.45,3.48-6.9,5.24-10.34,.3-.59,.86-.98,1.34-1.42,1.68-1.53,3.47-2.9,5.43-4.05,1.7-1,3.54-1.62,5.42-2.14,3.51-.96,7.07-1.62,10.66-2.19,2.39-.38,4.8-.69,7.2-.99,.1-.01,.2,0,.34,0-.19,.63-.36,1.23-.55,1.83-2.17,7.09-4.35,14.18-6.51,21.27-.12,.38-.31,.47-.64,.5-2.89,.19-5.76,.51-8.63,.92-3.99,.57-7.93,1.36-11.79,2.51-3.54,1.05-6.98,2.38-10.19,4.28-.07,.04-.14,.07-.2,.1,0-.17,.11-.28,.17-.42,.23-.5,.47-1,.14-1.56,0-.28-.01-.57-.02-.85,1.08,0,1.98-.81,2.02-1.79,.01-.3-.08-.58-.03-.87,.05-.52-.08-1-.31-1.45,.07-.01,.16,0,.22-.05,.61-.43,.97-1.38,.7-2.07,.08-.41,.1-.81,0-1.22Z" style="fill:#ffe8d2;"/><path d="M240.06,71.8c-.27,.7-.69,1.32-1.05,1.97-1.72,3.08-3.46,6.15-5.2,9.22-1.03,1.82-2.06,3.63-3.09,5.44-.2,.34-.22,.34-.42-.03-.14-.27-.44-.51-.21-.91,.19,.24,.29,.16,.42-.08,2.69-4.77,5.38-9.53,8.08-14.29,.4-.71,.79-1.41,1.19-2.12,.04-.08,.08-.17,.17-.2,.04,.33,.07,.67,.11,1Z" style="fill:#e4a260;"/><path d="M239.82,81.29c.01,.4-.46,.85-.93,.86-.45,.02-.95-.41-.97-.82-.02-.38,.43-.79,.87-.81,.56-.02,1.01,.31,1.02,.76Z" style="fill:#d57228;"/><path d="M242.8,79.11c-.05,.29,.04,.58,.03,.87-.04,.98-.94,1.79-2.02,1.79-.14-.39-.31-.76-.7-1.09,.61,.13,1.12,.15,1.61-.1,.6-.31,.91-.83,1.08-1.46Z" style="fill:#ffe5bd;"/><path d="M241.15,65.46c.52,0,.97,.36,.97,.78,0,.42-.49,.84-.98,.85-.42,0-.92-.45-.91-.82,0-.39,.48-.8,.93-.81Z" style="fill:#d57228;"/><path d="M241.05,70.15c0-.46,.42-.83,.93-.81,.51,.01,.9,.37,.9,.81,0,.42-.43,.81-.9,.82-.51,.01-.93-.36-.93-.82Z" style="fill:#d57228;"/><path d="M232.87,92.1c-.5,0-.91-.36-.9-.79,0-.44,.42-.77,.97-.77,.56,0,.87,.29,.87,.79,0,.5-.33,.77-.93,.76Z" style="fill:#d57228;"/><path d="M235.1,87.21c.5,0,.92,.36,.91,.78,0,.41-.48,.83-.94,.84-.48,.01-.89-.36-.89-.81,0-.46,.4-.82,.92-.82Z" style="fill:#d57228;"/><path d="M237.58,85.88c-.46,0-.88-.36-.88-.77,0-.48,.38-.86,.87-.86,.52,0,.94,.35,.96,.8,.01,.39-.49,.83-.95,.83Z" style="fill:#d57228;"/><path d="M241.51,74.78c-.59,0-.92-.28-.92-.78,0-.44,.41-.77,.96-.77,.54,0,.88,.31,.87,.79,0,.44-.39,.76-.91,.76Z" style="fill:#d57228;"/><path d="M240.81,78.66c-.51,0-.91-.36-.9-.79,0-.43,.41-.76,.92-.77,.57,0,.88,.23,.91,.69,.03,.51-.36,.87-.93,.86Z" style="fill:#d57228;"/><path d="M240.83,82.62c.33,.55,.09,1.06-.14,1.56-.06,.14-.17,.25-.17,.42-.35,.24-.69,.5-1.08,.67-.18-.38-.42-.73-.86-1.02,.36,0,.63-.03,.88-.11,.74-.24,1.14-.8,1.36-1.52Z" style="fill:#ffe5bd;"/><path d="M243.41,75.54c.27,.69-.1,1.64-.7,2.07-.06,.04-.14,.03-.22,.05-.24-.25-.48-.51-.87-.73,.93-.12,1.47-.62,1.79-1.39Z" style="fill:#ffe5bd;"/><path d="M233.62,90.27s.09,.05,.05,.1c-.03,.04-.09,.01-.12-.03,.02-.02,.04-.05,.07-.07Z" style="fill:#ffe5bd;"/><path d="M235.9,87.02s.05,.06,0,.09c0,0-.04-.03-.05-.04,.02-.02,.03-.03,.05-.05Z" style="fill:#ffe5bd;"/><polygon points="239.57 80.33 239.54 80.34 239.55 80.32 239.57 80.33" style="fill:#ffe5bd;"/><path d="M191.19,66.68c11.15,8.28,22.19,16.7,33.12,25.28-11.15-8.27-22.19-16.7-33.12-25.28Z" style="fill:#ecb67b;"/><path d="M189.17,64.06q-.19-.04-.36-.23c.18,.04,.3,.09,.36,.23,0,0,0,0,0,0Z" style="fill:#ecb67b;"/><path d="M191.07,66.51s-.06,.08-.07,.08c-.04-.02-.09-.04-.11-.08-.03-.05-.01-.11,.06-.09,.04,0,.08,.05,.13,.09Z" style="fill:#ecb67b;"/><path d="M190.54,66.16c.09,0,.18,.03,.2,.14,0,.04-.02,.07-.06,.07-.1-.02-.13-.11-.13-.2h0Z" style="fill:#ecb67b;"/><path d="M190.54,66.16c-.07,0-.15,.03-.19-.07,0-.01,.02-.05,.03-.05,.09-.02,.13,.06,.16,.12h0Z" style="fill:#ecb67b;"/><path d="M224.87,92.41c-.07,0-.15-.01-.17-.1,0,0,.03-.04,.04-.04,.1,0,.12,.06,.13,.14,0,0,0,0,0,0Z" style="fill:#ecb67b;"/><path d="M224.54,92.12s-.04,.02-.05,.03c-.01-.03-.02-.05-.03-.08,.02,0,.05-.02,.06-.01,.01,0,.02,.04,.03,.06Z" style="fill:#ecb67b;"/><path d="M189.88,65.66s-.02,.01-.02,.02c0-.01-.01-.02-.02-.04,0,0,.02,0,.03,0,0,0,0,.01,.01,.02Z" style="fill:#ecb67b;"/><path d="M190.08,65.85s.07,.02,.1,.03c0,0-.01,.02-.02,.03-.03-.02-.05-.04-.08-.06h0Z" style="fill:#ecb67b;"/><path d="M190.08,65.85s-.02-.02-.03-.03c0,0,.02,0,.02,0,0,0,0,.02,.01,.03h0Z" style="fill:#ecb67b;"/><path d="M218.09,77.18c-.52-.19-.94-.55-1.4-.85-5.18-3.42-10.35-6.84-15.53-10.26-.92-.61-1.83-1.21-2.75-1.81-.22-.14-.27-.23-.06-.45,1.49-1.55,2.97-3.12,4.45-4.68,2.14-2.25,4.27-4.5,6.41-6.76,1.38-1.45,2.75-2.9,4.13-4.36,1.16-1.23,2.33-2.46,3.48-3.7,.21-.23,.38-.26,.65-.1,4.41,2.61,8.82,5.23,13.19,7.92,.58,.35,1.15,.71,1.72,1.07,.1,.06,.25,.09,.25,.26-.44,.09-.78,.35-1.11,.7-.04-1.11-.48-1.91-1.56-2.16-1-.24-1.72,.22-2.23,1.09-.46-1.19-1.07-1.73-2.01-1.68-1.09,.05-1.7,.71-1.95,1.76-.43-1.22-1.3-1.78-2.39-1.54-1.01,.22-1.58,1.13-1.49,2.36-.11,.02-.14-.08-.2-.14-.72-.7-1.72-.8-2.51-.25-.77,.54-1.05,1.53-.69,2.44,.03,.07,.06,.14,.08,.22-.02,.02-.03,.03-.05,.05-1.06-.55-1.93-.47-2.6,.26-.53,.57-.65,1.24-.43,1.98,.06,.2,.05,.26-.18,.32-1.33,.37-1.88,1.91-1.09,3.06,.17,.24,.1,.31-.1,.45-1.11,.74-1.2,2.33-.18,3.19,.18,.16,.22,.23,.04,.43-1,1.15-.56,2.79,.88,3.26,.21,.07,.26,.13,.19,.37-.4,1.24,.42,2.49,1.69,2.59,.21,.02,.31,.01,.24,.3-.35,1.45,.68,2.65,2.13,2.52,.16-.01,.21,0,.19,.17-.09,.76,.17,1.37,.75,1.84,.04,.03,.08,.07,.03,.12Z" style="fill:#ffe5bd;"/><path d="M213.4,67.24c-.52,0-.89-.35-.89-.79,0-.48,.39-.83,.91-.83,.52,0,.93,.36,.92,.83,0,.46-.42,.81-.94,.8Z" style="fill:#d57228;"/><path d="M223.97,80.14c-.54-.01-.93-.36-.92-.82,0-.44,.48-.83,.98-.81,.46,.01,.85,.39,.85,.8,0,.47-.41,.84-.91,.83Z" style="fill:#d57228;"/><path d="M233.06,55.28c-.48,0-.85-.34-.87-.77-.02-.59,.44-.82,.96-.85,.41-.02,.87,.43,.87,.81,0,.47-.41,.82-.97,.81Z" style="fill:#d57228;"/><path d="M221.71,77.73c-.48,0-.88-.34-.88-.77,0-.5,.39-.87,.92-.86,.46,0,.91,.41,.91,.82,0,.45-.43,.81-.95,.81Z" style="fill:#d57228;"/><path d="M215.37,56.21c.48,0,.88,.34,.89,.76,0,.5-.38,.87-.92,.87-.46,0-.91-.4-.91-.81,0-.44,.43-.81,.94-.82Z" style="fill:#d57228;"/><path d="M238.51,59.78c-.48,0-.88-.34-.89-.75-.01-.4,.4-.78,.87-.8,.24,0,.49,0,.68,.16,.23,.18,.39,.42,.32,.73-.09,.37-.35,.58-.72,.66-.09,.02-.18,0-.26,0Z" style="fill:#d57228;"/><path d="M221.83,53.42c-.58,0-.93-.3-.92-.79,0-.42,.42-.76,.94-.76,.57,0,.89,.27,.89,.77,0,.51-.31,.79-.91,.79Z" style="fill:#d57228;"/><path d="M235.84,57.07c-.51,0-.91-.36-.9-.8,.01-.4,.49-.86,.92-.82,.52,.04,.93,.28,.92,.82-.01,.47-.4,.8-.93,.8Z" style="fill:#d57228;"/><path d="M214.91,68.56c.58,0,.88,.26,.88,.76,0,.5-.31,.79-.87,.79-.54,0-.97-.33-.96-.77,0-.38,.38-.87,.94-.78Z" style="fill:#d57228;"/><path d="M219.2,75.32c-.5,0-.9-.37-.89-.8,.01-.44,.43-.76,.97-.76,.56,0,.87,.29,.86,.8,0,.5-.33,.76-.94,.75Z" style="fill:#d57228;"/><path d="M225.71,53.26c-.56,0-.85-.29-.84-.81,.01-.5,.35-.76,.99-.75,.44,0,.86,.39,.84,.76-.02,.47-.44,.8-.99,.79Z" style="fill:#d57228;"/><path d="M225.99,83.17c-.47,0-.9-.37-.89-.76,.01-.47,.42-.8,.98-.8,.55,0,.86,.3,.85,.81,0,.49-.34,.75-.94,.75Z" style="fill:#d57228;"/><path d="M218.27,55.13c-.54,0-.87-.31-.87-.79,0-.48,.36-.77,.94-.76,.55,0,.89,.31,.89,.78,0,.44-.43,.78-.96,.77Z" style="fill:#d57228;"/><path d="M216.85,72.92c-.55,0-.9-.29-.9-.77,0-.44,.42-.79,.95-.79,.51,0,.89,.34,.88,.79,0,.5-.33,.77-.93,.76Z" style="fill:#d57228;"/><path d="M213.79,60.64c-.47,0-.9-.36-.9-.75,0-.47,.41-.81,.97-.81,.55,0,.87,.29,.86,.8,0,.5-.33,.76-.93,.76Z" style="fill:#d57228;"/><path d="M240.53,61.49c.59,0,.91,.28,.9,.79,0,.44-.39,.76-.91,.76-.5,0-.91-.34-.92-.76,0-.44,.41-.79,.93-.79Z" style="fill:#d57228;"/><path d="M213.18,63.9c-.57,0-.91-.28-.9-.76,0-.47,.39-.8,.92-.8,.52,0,.92,.33,.91,.76,0,.47-.39,.79-.93,.79Z" style="fill:#d57228;"/><path d="M227.45,86.51c-.5,0-.9-.36-.89-.79,0-.44,.42-.77,.96-.77,.56,0,.87,.29,.87,.78,0,.46-.39,.77-.94,.77Z" style="fill:#d57228;"/><path d="M229.5,53.81c-.48,0-.88-.35-.89-.76,0-.44,.41-.8,.94-.79,.56,0,.89,.27,.89,.73,0,.49-.38,.83-.94,.83Z" style="fill:#d57228;"/><path d="M227.74,88.68c.56,0,.87,.26,.87,.73,0,.48-.38,.82-.92,.82-.51,0-.92-.35-.92-.78,0-.44,.42-.77,.96-.77Z" style="fill:#d57228;"/><path d="M219.83,78.42c-.22-.02-.42-.1-.58-.24-.39-.33-.78-.67-1.16-1,.3,0,.54,.21,.83,.27,.29,.06,.65-.15,.82,.05,.14,.17-.02,.54,.08,.81,.01,.03,0,.08,.01,.11Z" style="fill:#ffe5bd;"/><path d="M237.85,57.07c.34,.24,.75,.42,.91,.86-.38-.05-.74,.09-1.14,.22,.15-.38,.25-.73,.24-1.09Z" style="fill:#ffe5bd;"/><path d="M235.02,54.89c.16,.07,.32,.14,.4,.32q-.39,.2-.4-.32Z" style="fill:#fcc792;"/><path d="M240.12,61.18s0,.03-.01,.04c0,0,0-.01,0-.02,0,0,.01-.01,.02-.02,0,0,0,0,0,0Z" style="fill:#ffe5bd;"/><path d="M217.08,56.92s-.02-.05-.04-.08c.03,0,.06,.02,.08,.03-.02,.02-.03,.03-.05,.05Z" style="fill:#ffe5bd;"/><path d="M216.58,56.26s.02,.06,.03,.08c-.02-.01-.05-.02-.07-.04,.02-.02,.03-.03,.05-.05Z" style="fill:#ffe5bd;"/><path d="M221.21,75.86s0,.02,0,.03c0,0-.01-.01-.02-.02,0,0,.02,0,.03,0,0,0,0,0,0,0Z" style="fill:#ffe5bd;"/><path d="M224.55,106.53c.3-.53,.45-1.1,.29-1.7-.13-.51-.43-.9-.94-1.22,.74-.06,1.26-.4,1.64-.96,1.11,.83,2.22,1.66,3.38,2.53-.4,.13-.76,.24-1.11,.35-.95,.31-1.9,.62-2.85,.94-.13,.04-.27,.09-.41,.06Z" style="fill:#683217;"/><path d="M224.48,106.62s.05-.06,.08-.09c-.03,.03-.05,.06-.08,.09Z" style="fill:#683217;"/></g><polygon points="181.71 85.58 180.9 82.57 178.08 81.34 181.03 80.51 182.24 77.65 183.05 80.66 185.87 81.89 182.92 82.71 181.71 85.58" style="fill:#ffd08b;"/><polygon points="254.5 38.14 254.1 36.64 252.69 36.03 254.17 35.61 254.77 34.18 255.18 35.68 256.58 36.3 255.11 36.71 254.5 38.14" style="fill:#ffd08b;"/></g><circle cx="29.3" cy="22.13" r="47.22" style="fill:url(#linear-gradient); opacity:.07;"/></svg>