<?xml version="1.0" encoding="UTF-8"?><svg id="Layer_1" xmlns="http://www.w3.org/2000/svg" viewBox="0 0 343 75"><g style="opacity:.5;"><path d="M79.35-4.9h-9.4l-6.7-6.7-6.7,6.7h-9.4V4.5l-4.2,4.2-4.2-4.2V-4.9h-9.4l-6.7-6.7-6.7,6.7H6.65V4.5L-.05,11.1l6.7,6.7v9.4h9.4l4.2,4.2-4.2,4.2H6.65v9.4L-.05,51.7l6.7,6.7v9.4h9.4l6.7,6.7,6.7-6.7h9.4v-9.4l4.2-4.2,4.2,4.2v9.4h9.4l6.7,6.7,6.7-6.7h9.4v-9.4l6.7-6.7-6.7-6.7v-9.4h-9.5l-4.3-4.2,4.2-4.2h9.4v-9.4l6.7-6.7-6.7-6.7V-4.9h.1ZM17.45,23.7h-7.4v-7.4l-5.2-5.2,5.2-5.2V-1.5h7.4l5.2-5.2L27.95-1.5h7.4V5.9l5.2,5.2-5.2,5.2v7.4h-7.4l-5.2,5.2-5.3-5.2Zm17.8,33.2v7.4h-7.3l-5.2,5.2-5.2-5.2h-7.4v-7.4l-5.2-5.2,5.2-5.2v-7.4h7.4l5.2-5.2,5.2,5.2h7.4v7.4l5.2,5.2-5.3,5.2Zm3.5-11.9v-9.4h-9.4l-4.2-4.2,4.2-4.2h9.4v-9.4l4.2-4.2,4.2,4.2v9.4h9.4l4.2,4.2-4.2,4.2h-9.4v9.4l-4.2,4.2-4.2-4.2Zm29.7-5.9h7.4v7.4l5.2,5.2-5.2,5.2v7.4h-7.4l-5.2,5.2-5.2-5.2h-7.4v-7.4l-5.2-5.2,5.2-5.2v-7.4h7.4l5.2-5.2,5.2,5.2Zm12.6-28l-5.2,5.2v7.4h-7.4l-5.2,5.2-5.2-5.2h-7.4v-7.4l-5.2-5.2,5.2-5.2V-1.5h7.4l5.2-5.2,5.2,5.2h7.4V5.9l5.2,5.2Z" style="fill:rgba(249,248,244,.5); opacity:.6;"/><path d="M164.25-4.9h-9.4l-6.7-6.7-6.7,6.7h-9.4V4.5l-4.1,4.2-4.2-4.2V-4.9h-9.4l-6.7-6.7-6.7,6.7h-9.4V4.5l-6.7,6.7,6.7,6.7v9.4h9.4l4.2,4.2-4.2,4.2h-9.4v9.4l-6.7,6.7,6.7,6.7v9.4h9.4l6.7,6.7,6.7-6.7h9.4v-9.4l4.2-4.2,4.2,4.2v9.4h9.4l6.7,6.7,6.7-6.7h9.4v-9.4l6.7-6.7-6.7-6.7v-9.4h-9.4l-4.2-4.2,4.2-4.2h9.4v-9.4l6.7-6.7-6.7-6.7V-4.9h-.1Zm-61.9,28.6h-7.4v-7.4l-5.2-5.2,5.2-5.2V-1.5h7.4l5.2-5.2,5.2,5.2h7.4V5.9l5.2,5.2-5.2,5.2v7.4h-7.4l-5.2,5.2-5.2-5.2Zm17.9,33.2v7.4h-7.4l-5.2,5.2-5.2-5.2h-7.5v-7.4l-5.2-5.2,5.2-5.2v-7.4h7.4l5.2-5.2,5.2,5.2h7.4v7.4l5.2,5.2-5.1,5.2Zm3.4-11.9v-9.4h-9.4l-4.2-4.2,4.2-4.2h9.4v-9.4l4.2-4.2,4.2,4.2v9.4h9.4l4.2,4.2-4.2,4.2h-9.4v9.4l-4.2,4.2-4.2-4.2Zm29.8-5.9h7.4v7.4l5.2,5.2-5.2,5.2v7.4h-7.4l-5.2,5.2-5.2-5.2h-7.4v-7.4l-5.2-5.2,5.2-5.2v-7.4h7.4l5.2-5.2,5.2,5.2Zm12.6-28l-5.2,5.2v7.4h-7.4l-5.2,5.2-5.2-5.2h-7.4v-7.4l-5.2-5.2,5.2-5.2V-1.5h7.4l5.2-5.2,5.2,5.2h7.4V5.9l5.2,5.2Z" style="fill:rgba(249,248,244,.5); opacity:.6;"/><path d="M250.25-4.9h-9.4l-6.7-6.7-6.7,6.7h-9.4V4.5l-4.1,4.2-4.2-4.2V-4.9h-9.4l-6.7-6.7-6.7,6.7h-9.4V4.5l-6.7,6.7,6.7,6.7v9.4h9.4l4.2,4.2-4.2,4.2h-9.4v9.4l-6.7,6.7,6.7,6.7v9.4h9.4l6.7,6.7,6.7-6.7h9.4v-9.4l4.2-4.2,4.2,4.2v9.4h9.4l6.7,6.7,6.7-6.7h9.4v-9.4l6.7-6.7-6.7-6.7v-9.4h-9.4l-4.2-4.2,4.2-4.2h9.4v-9.4l6.7-6.7-6.7-6.7V-4.9h-.1Zm-61.8,28.6h-7.4v-7.4l-5.2-5.2,5.2-5.2V-1.5h7.4l5.2-5.2,5.2,5.2h7.4V5.9l5.2,5.2-5.2,5.2v7.4h-7.4l-5.2,5.2-5.2-5.2Zm17.8,33.2v7.4h-7.4l-5.2,5.2-5.2-5.2h-7.4v-7.4l-5.2-5.2,5.2-5.2v-7.4h7.4l5.2-5.2,5.2,5.2h7.4v7.4l5.2,5.2-5.2,5.2Zm3.5-11.9v-9.4h-9.4l-4.2-4.2,4.2-4.2h9.4v-9.4l4.2-4.2,4.2,4.2v9.4h9.4l4.2,4.2-4.2,4.2h-9.4v9.4l-4.2,4.2-4.2-4.2Zm29.7-5.9h7.4v7.4l5.2,5.2-5.2,5.2v7.4h-7.4l-5.2,5.2-5.2-5.2h-7.4v-7.4l-5.2-5.2,5.2-5.2v-7.4h7.4l5.2-5.2,5.2,5.2Zm12.6-28l-5.2,5.2v7.4h-7.4l-5.2,5.2-5.2-5.2h-7.4v-7.4l-5.2-5.2,5.2-5.2V-1.5h7.4l5.2-5.2,5.2,5.2h7.4V5.9l5.2,5.2Z" style="fill:rgba(249,248,244,.5); opacity:.6;"/><path d="M336.25-4.9h-9.4l-6.7-6.7-6.7,6.7h-9.4V4.5l-4.1,4.2-4.2-4.2V-4.9h-9.4l-6.7-6.7-6.7,6.7h-9.4V4.5l-6.7,6.7,6.7,6.7v9.4h9.4l4.2,4.2-4.2,4.2h-9.4v9.4l-6.7,6.7,6.7,6.7v9.4h9.4l6.7,6.7,6.7-6.7h9.4v-9.4l4.2-4.2,4.2,4.2v9.4h9.4l6.7,6.7,6.7-6.7h9.4v-9.4l6.7-6.7-6.7-6.7v-9.4h-9.4l-4.2-4.2,4.2-4.2h9.4v-9.4l6.7-6.7-6.7-6.7V-4.9h-.1Zm-61.8,28.6h-7.4v-7.4l-5.2-5.2,5.2-5.2V-1.5h7.4l5.2-5.2,5.2,5.2h7.4V5.9l5.2,5.2-5.2,5.2v7.4h-7.4l-5.2,5.2-5.2-5.2Zm17.8,33.2v7.4h-7.4l-5.2,5.2-5.2-5.2h-7.4v-7.4l-5.2-5.2,5.2-5.2v-7.4h7.4l5.2-5.2,5.2,5.2h7.4v7.4l5.2,5.2-5.2,5.2Zm3.5-11.9v-9.4h-9.4l-4.2-4.2,4.2-4.2h9.4v-9.4l4.2-4.2,4.2,4.2v9.4h9.4l4.2,4.2-4.2,4.2h-9.4v9.4l-4.2,4.2-4.2-4.2Zm29.7-5.9h7.4v7.4l5.2,5.2-5.2,5.2v7.4h-7.4l-5.2,5.2-5.2-5.2h-7.4v-7.4l-5.2-5.2,5.2-5.2v-7.4h7.4l5.2-5.2,5.2,5.2Zm12.6-28l-5.2,5.2v7.4h-7.4l-5.2,5.2-5.2-5.2h-7.4v-7.4l-5.2-5.2,5.2-5.2V-1.5h7.4l5.2-5.2,5.2,5.2h7.4V5.9l5.2,5.2Z" style="fill:rgba(249,248,244,.5); opacity:.6;"/></g></svg>