<svg width="24" height="24" viewBox="0 0 24 24" fill="none" xmlns="http://www.w3.org/2000/svg">
<g clip-path="url(#clip0_344_7760)">
<mask id="path-1-outside-1_344_7760" maskUnits="userSpaceOnUse" x="-3.14429" y="3.85107" width="30" height="16" fill="black">
<rect fill="white" x="-3.14429" y="3.85107" width="30" height="16"/>
<path d="M25.81 18.4806H22.2919L15.4623 14.14L23.1464 9.25286C23.5082 9.02293 23.615 8.54378 23.3848 8.182L22.2224 6.35414C22.0335 6.05767 21.6761 5.93598 21.354 6.02861L20.7989 5.19733C20.5539 4.8305 20.0439 4.7336 19.6824 5.01262C18.8615 5.64669 16.0534 7.72815 14.3824 7.88525C13.3166 7.98377 12.4809 8.53716 11.9964 9.43835C11.5088 8.53693 10.6746 7.98377 9.61436 7.88525C7.93793 7.7282 5.13297 5.64652 4.31313 5.01223C3.95809 4.73753 3.44622 4.8241 3.19744 5.19514L2.6371 6.02861C2.31684 5.94024 1.96303 6.06171 1.77552 6.35644L0.614835 8.1843C0.385357 8.5454 0.492578 9.02568 0.853458 9.25493L8.53732 14.1388L1.71055 18.4806H-1.81017C-1.99465 18.4806 -2.14429 18.6303 -2.14429 18.8147C-2.14429 18.9992 -1.99465 19.1489 -1.81017 19.1489H25.81C25.9945 19.1489 26.1441 18.9992 26.1441 18.8147C26.1441 18.6303 25.9944 18.4806 25.81 18.4806ZM14.4447 8.55051C16.2442 8.38152 18.9928 6.38988 20.0909 5.54154C20.1389 5.50423 20.2085 5.51663 20.2434 5.56876L20.7698 6.35706L12.3375 11.7207V10.3895C12.5155 9.73594 13.02 8.68242 14.4447 8.55051ZM3.75234 5.5678C3.78719 5.51517 3.85637 5.50373 3.90439 5.54081C5.00112 6.38938 7.74694 8.38146 9.55236 8.55045C10.9916 8.68433 11.4955 9.77336 11.6693 10.4244V11.7262L3.22202 6.35639L3.75234 5.5678ZM1.21187 8.69123C1.16182 8.65925 1.14684 8.59293 1.17882 8.54266L2.33951 6.7148C2.37188 6.66436 2.43848 6.65016 2.48831 6.68175C14.7021 14.4478 10.4477 11.7426 11.3764 12.3331L9.15989 13.7428L1.21187 8.69123ZM2.95557 18.4806C3.00017 18.4523 13.6251 11.7029 21.5102 6.68001C21.5609 6.64758 21.6269 6.6634 21.6586 6.71283L22.821 8.54069C22.853 8.59063 22.8382 8.65711 22.788 8.68904C16.5431 12.6607 12.4962 15.234 7.39235 18.4806H2.95557ZM12.0028 16.3403L15.3676 18.4806H8.63742L12.0028 16.3403ZM16.6125 18.4806L12.6257 15.9448C12.6703 15.9164 14.9867 14.4424 14.8398 14.5358L21.0462 18.4806H16.6125Z"/>
</mask>
<path d="M25.81 18.4806H22.2919L15.4623 14.14L23.1464 9.25286C23.5082 9.02293 23.615 8.54378 23.3848 8.182L22.2224 6.35414C22.0335 6.05767 21.6761 5.93598 21.354 6.02861L20.7989 5.19733C20.5539 4.8305 20.0439 4.7336 19.6824 5.01262C18.8615 5.64669 16.0534 7.72815 14.3824 7.88525C13.3166 7.98377 12.4809 8.53716 11.9964 9.43835C11.5088 8.53693 10.6746 7.98377 9.61436 7.88525C7.93793 7.7282 5.13297 5.64652 4.31313 5.01223C3.95809 4.73753 3.44622 4.8241 3.19744 5.19514L2.6371 6.02861C2.31684 5.94024 1.96303 6.06171 1.77552 6.35644L0.614835 8.1843C0.385357 8.5454 0.492578 9.02568 0.853458 9.25493L8.53732 14.1388L1.71055 18.4806H-1.81017C-1.99465 18.4806 -2.14429 18.6303 -2.14429 18.8147C-2.14429 18.9992 -1.99465 19.1489 -1.81017 19.1489H25.81C25.9945 19.1489 26.1441 18.9992 26.1441 18.8147C26.1441 18.6303 25.9944 18.4806 25.81 18.4806ZM14.4447 8.55051C16.2442 8.38152 18.9928 6.38988 20.0909 5.54154C20.1389 5.50423 20.2085 5.51663 20.2434 5.56876L20.7698 6.35706L12.3375 11.7207V10.3895C12.5155 9.73594 13.02 8.68242 14.4447 8.55051ZM3.75234 5.5678C3.78719 5.51517 3.85637 5.50373 3.90439 5.54081C5.00112 6.38938 7.74694 8.38146 9.55236 8.55045C10.9916 8.68433 11.4955 9.77336 11.6693 10.4244V11.7262L3.22202 6.35639L3.75234 5.5678ZM1.21187 8.69123C1.16182 8.65925 1.14684 8.59293 1.17882 8.54266L2.33951 6.7148C2.37188 6.66436 2.43848 6.65016 2.48831 6.68175C14.7021 14.4478 10.4477 11.7426 11.3764 12.3331L9.15989 13.7428L1.21187 8.69123ZM2.95557 18.4806C3.00017 18.4523 13.6251 11.7029 21.5102 6.68001C21.5609 6.64758 21.6269 6.6634 21.6586 6.71283L22.821 8.54069C22.853 8.59063 22.8382 8.65711 22.788 8.68904C16.5431 12.6607 12.4962 15.234 7.39235 18.4806H2.95557ZM12.0028 16.3403L15.3676 18.4806H8.63742L12.0028 16.3403ZM16.6125 18.4806L12.6257 15.9448C12.6703 15.9164 14.9867 14.4424 14.8398 14.5358L21.0462 18.4806H16.6125Z" fill="white"/>
<path d="M22.2919 18.4806L22.1846 18.6494L22.2337 18.6806H22.2919V18.4806ZM15.4623 14.14L15.355 13.9712L15.0896 14.14L15.3551 14.3087L15.4623 14.14ZM23.1464 9.25286L23.0392 9.08406L23.0391 9.0841L23.1464 9.25286ZM23.3848 8.182L23.2161 8.28932L23.2161 8.28937L23.3848 8.182ZM22.2224 6.35414L22.3912 6.24682L22.3911 6.24669L22.2224 6.35414ZM21.354 6.02861L21.1877 6.13968L21.2689 6.26121L21.4093 6.22082L21.354 6.02861ZM20.7989 5.19733L20.9652 5.08626L20.9652 5.08624L20.7989 5.19733ZM19.6824 5.01262L19.5602 4.8543L19.5601 4.85434L19.6824 5.01262ZM14.3824 7.88525L14.4009 8.0844L14.4012 8.08437L14.3824 7.88525ZM11.9964 9.43835L11.8205 9.53352L11.997 9.8597L12.1726 9.53304L11.9964 9.43835ZM9.61436 7.88525L9.5957 8.08438L9.59585 8.08439L9.61436 7.88525ZM4.31313 5.01223L4.19075 5.17041L4.19075 5.17041L4.31313 5.01223ZM3.19744 5.19514L3.36342 5.30672L3.36356 5.30652L3.19744 5.19514ZM2.6371 6.02861L2.58391 6.2214L2.72273 6.25971L2.80308 6.1402L2.6371 6.02861ZM1.77552 6.35644L1.60678 6.24909L1.60669 6.24923L1.77552 6.35644ZM0.614835 8.1843L0.783634 8.29157L0.783672 8.29151L0.614835 8.1843ZM0.853458 9.25493L0.960741 9.08614L0.960701 9.08612L0.853458 9.25493ZM8.53732 14.1388L8.64466 14.3075L8.91008 14.1387L8.64461 13.97L8.53732 14.1388ZM1.71055 18.4806V18.6806H1.76876L1.81788 18.6494L1.71055 18.4806ZM14.4447 8.55051L14.4631 8.74966L14.4634 8.74963L14.4447 8.55051ZM20.0909 5.54154L20.2132 5.69981L20.2137 5.69941L20.0909 5.54154ZM20.2434 5.56876L20.4097 5.45769L20.4096 5.45749L20.2434 5.56876ZM20.7698 6.35706L20.8771 6.52581L21.0497 6.41606L20.9361 6.24599L20.7698 6.35706ZM12.3375 11.7207H12.1375V12.0849L12.4449 11.8894L12.3375 11.7207ZM12.3375 10.3895L12.1445 10.3369L12.1375 10.3627V10.3895H12.3375ZM3.75234 5.5678L3.91831 5.67941L3.91911 5.67821L3.75234 5.5678ZM3.90439 5.54081L4.02678 5.38263L4.02663 5.38252L3.90439 5.54081ZM9.55236 8.55045L9.53372 8.74958L9.53383 8.74959L9.55236 8.55045ZM11.6693 10.4244H11.8693V10.3982L11.8625 10.3729L11.6693 10.4244ZM11.6693 11.7262L11.562 11.895L11.8693 12.0904V11.7262H11.6693ZM3.22202 6.35639L3.05606 6.24478L2.94153 6.41507L3.11473 6.52517L3.22202 6.35639ZM1.21187 8.69123L1.10418 8.85976L1.10459 8.86002L1.21187 8.69123ZM1.17882 8.54266L1.34757 8.65001L1.34766 8.64987L1.17882 8.54266ZM2.33951 6.7148L2.17119 6.60677L2.17067 6.60759L2.33951 6.7148ZM2.48831 6.68175L2.59562 6.51298L2.5954 6.51284L2.48831 6.68175ZM11.3764 12.3331L11.4837 12.5018L11.7491 12.3331L11.4837 12.1643L11.3764 12.3331ZM9.15989 13.7428L9.05261 13.9116L9.15993 13.9798L9.26722 13.9116L9.15989 13.7428ZM2.95557 18.4806L2.84833 18.3118L2.26771 18.6806H2.95557V18.4806ZM21.5102 6.68001L21.6177 6.8487L21.6181 6.84846L21.5102 6.68001ZM21.6586 6.71283L21.8273 6.60551L21.827 6.605L21.6586 6.71283ZM22.821 8.54069L22.6522 8.64802L22.6526 8.64856L22.821 8.54069ZM22.788 8.68904L22.6807 8.52026L22.6806 8.52028L22.788 8.68904ZM7.39235 18.4806V18.6806H7.45057L7.49969 18.6494L7.39235 18.4806ZM12.0028 16.3403L12.1101 16.1715L12.0028 16.1032L11.8954 16.1715L12.0028 16.3403ZM15.3676 18.4806V18.6806H16.0546L15.4749 18.3119L15.3676 18.4806ZM8.63742 18.4806L8.53009 18.3119L7.95028 18.6806H8.63742V18.4806ZM16.6125 18.4806L16.5051 18.6494L16.5543 18.6806H16.6125V18.4806ZM12.6257 15.9448L12.5183 15.776L12.2532 15.9448L12.5184 16.1135L12.6257 15.9448ZM14.8398 14.5358L14.7325 14.3671L14.4671 14.5359L14.7325 14.7046L14.8398 14.5358ZM21.0462 18.4806V18.6806H21.7337L21.1535 18.3118L21.0462 18.4806ZM25.81 18.2806H22.2919V18.6806H25.81V18.2806ZM22.3991 18.3118L15.5696 13.9712L15.3551 14.3087L22.1846 18.6494L22.3991 18.3118ZM15.5697 14.3087L23.2538 9.42162L23.0391 9.0841L15.355 13.9712L15.5697 14.3087ZM23.2537 9.42165C23.7087 9.13249 23.8431 8.52969 23.5536 8.07463L23.2161 8.28937C23.3869 8.55787 23.3077 8.91337 23.0392 9.08406L23.2537 9.42165ZM23.5536 8.07467L22.3912 6.24682L22.0536 6.46147L23.2161 8.28932L23.5536 8.07467ZM22.3911 6.24669C22.1525 5.87213 21.7021 5.72037 21.2987 5.8364L21.4093 6.22082C21.65 6.15158 21.9146 6.24321 22.0537 6.4616L22.3911 6.24669ZM21.5204 5.91754L20.9652 5.08626L20.6326 5.3084L21.1877 6.13968L21.5204 5.91754ZM20.9652 5.08624C20.6579 4.62606 20.0162 4.50232 19.5602 4.8543L19.8046 5.17095C20.0716 4.96488 20.4499 5.03493 20.6326 5.30841L20.9652 5.08624ZM19.5601 4.85434C19.1523 5.16935 18.2515 5.84329 17.2469 6.45713C16.7446 6.76406 16.2193 7.0541 15.7188 7.27653C15.2159 7.50006 14.75 7.64981 14.3637 7.68613L14.4012 8.08437C14.8503 8.04214 15.3621 7.87279 15.8813 7.64205C16.403 7.4102 16.9443 7.11079 17.4555 6.79846C18.4778 6.17378 19.3916 5.48996 19.8046 5.1709L19.5601 4.85434ZM14.364 7.6861C13.2332 7.79063 12.3373 8.38186 11.8203 9.34365L12.1726 9.53304C12.6245 8.69245 13.4 8.17691 14.4009 8.0844L14.364 7.6861ZM12.1723 9.34318C11.6523 8.38193 10.7584 7.7907 9.63286 7.68611L9.59585 8.08439C10.5907 8.17684 11.3652 8.69193 11.8205 9.53352L12.1723 9.34318ZM9.63301 7.68612C9.2453 7.6498 8.77861 7.50002 8.27526 7.2765C7.77437 7.05407 7.24902 6.76401 6.74683 6.45706C5.74247 5.84317 4.84278 5.16914 4.43552 4.85404L4.19075 5.17041C4.60332 5.48961 5.51604 6.17357 6.53822 6.79835C7.0493 7.11074 7.59076 7.41019 8.11292 7.64207C8.63261 7.87285 9.1452 8.04217 9.5957 8.08438L9.63301 7.68612ZM4.43552 4.85405C3.98789 4.50771 3.34388 4.6176 3.03133 5.08376L3.36356 5.30652C3.54856 5.0306 3.92829 4.96735 4.19075 5.17041L4.43552 4.85405ZM3.03147 5.08355L2.47113 5.91702L2.80308 6.1402L3.36342 5.30672L3.03147 5.08355ZM2.6903 5.83581C2.28964 5.72526 1.84382 5.8765 1.60678 6.24909L1.94427 6.4638C2.08224 6.24693 2.34405 6.15522 2.58391 6.2214L2.6903 5.83581ZM1.60669 6.24923L0.445998 8.07709L0.783672 8.29151L1.94436 6.46365L1.60669 6.24923ZM0.446036 8.07703C0.157301 8.53138 0.292099 9.13527 0.746216 9.42375L0.960701 9.08612C0.693056 8.91609 0.613413 8.55943 0.783634 8.29157L0.446036 8.07703ZM0.746176 9.42373L8.43004 14.3076L8.64461 13.97L0.960741 9.08614L0.746176 9.42373ZM8.42999 13.97L1.60322 18.3119L1.81788 18.6494L8.64466 14.3075L8.42999 13.97ZM1.71055 18.2806H-1.81017V18.6806H1.71055V18.2806ZM-1.81017 18.2806C-2.10511 18.2806 -2.34429 18.5198 -2.34429 18.8147H-1.94429C-1.94429 18.7407 -1.88419 18.6806 -1.81017 18.6806V18.2806ZM-2.34429 18.8147C-2.34429 19.1097 -2.10511 19.3489 -1.81017 19.3489V18.9489C-1.88419 18.9489 -1.94429 18.8888 -1.94429 18.8147H-2.34429ZM-1.81017 19.3489H25.81V18.9489H-1.81017V19.3489ZM25.81 19.3489C26.1049 19.3489 26.3441 19.1097 26.3441 18.8147H25.9441C25.9441 18.8888 25.884 18.9489 25.81 18.9489V19.3489ZM26.3441 18.8147C26.3441 18.5198 26.1049 18.2806 25.81 18.2806V18.6806C25.884 18.6806 25.9441 18.7407 25.9441 18.8147H26.3441ZM14.4634 8.74963C15.4115 8.66059 16.5822 8.09868 17.6332 7.47261C18.6923 6.84173 19.6611 6.12635 20.2132 5.69981L19.9686 5.38327C19.4226 5.80508 18.4681 6.50968 17.4285 7.12896C16.3808 7.75303 15.2774 8.27143 14.426 8.35139L14.4634 8.74963ZM20.2137 5.69941C20.165 5.7373 20.1032 5.7189 20.0772 5.68003L20.4096 5.45749C20.3138 5.31437 20.1128 5.27116 19.9681 5.38367L20.2137 5.69941ZM20.0771 5.67982L20.6035 6.46812L20.9361 6.24599L20.4097 5.45769L20.0771 5.67982ZM20.6624 6.18831L12.2302 11.5519L12.4449 11.8894L20.8771 6.52581L20.6624 6.18831ZM12.5375 11.7207V10.3895H12.1375V11.7207H12.5375ZM12.5305 10.442C12.6995 9.82169 13.1615 8.87018 14.4631 8.74966L14.4262 8.35136C12.8785 8.49466 12.3316 9.65019 12.1445 10.3369L12.5305 10.442ZM3.91911 5.67821C3.8915 5.7199 3.82849 5.73489 3.78216 5.69911L4.02663 5.38252C3.88424 5.27256 3.68287 5.31044 3.58558 5.45739L3.91911 5.67821ZM3.78201 5.69899C4.33345 6.12566 5.30123 6.84123 6.36024 7.47228C7.41123 8.09855 8.58262 8.66056 9.53372 8.74958L9.571 8.35132C8.71668 8.27136 7.61245 7.75282 6.565 7.12866C5.52556 6.50928 4.57207 5.80453 4.02678 5.38263L3.78201 5.69899ZM9.53383 8.74959C10.8477 8.87181 11.3105 9.85567 11.476 10.476L11.8625 10.3729C11.6805 9.69106 11.1354 8.49684 9.57088 8.35131L9.53383 8.74959ZM11.4693 10.4244V11.7262H11.8693V10.4244H11.4693ZM11.7766 11.5574L3.32931 6.1876L3.11473 6.52517L11.562 11.895L11.7766 11.5574ZM3.38798 6.468L3.91831 5.67941L3.58638 5.45619L3.05606 6.24478L3.38798 6.468ZM1.31956 8.5227C1.3618 8.54968 1.37521 8.60655 1.34757 8.65001L1.01008 8.4353C0.91847 8.5793 0.96185 8.76881 1.10418 8.85976L1.31956 8.5227ZM1.34766 8.64987L2.50835 6.82201L2.17067 6.60759L1.00999 8.43544L1.34766 8.64987ZM2.50783 6.82283C2.48043 6.8655 2.42379 6.87765 2.38122 6.85066L2.5954 6.51284C2.45318 6.42267 2.26333 6.46321 2.1712 6.60677L2.50783 6.82283ZM2.38099 6.85052C8.48789 10.7335 10.4777 11.9987 11.057 12.367C11.2017 12.4591 11.2584 12.4951 11.2692 12.502C11.2699 12.5024 11.2704 12.5027 11.2707 12.5029C11.2709 12.503 11.2711 12.5031 11.2712 12.5032C11.2713 12.5033 11.2714 12.5033 11.2715 12.5034C11.2717 12.5035 11.5444 12.446 11.495 12.1719C11.4907 12.1689 11.4862 12.166 11.4861 12.1658C11.486 12.1658 11.4859 12.1657 11.4858 12.1657C11.4857 12.1656 11.4855 12.1655 11.4854 12.1654C11.485 12.1652 11.4846 12.1649 11.484 12.1645C11.4816 12.163 11.477 12.16 11.4708 12.1561C11.4585 12.1483 11.4401 12.1366 11.4207 12.1243C11.382 12.0996 11.3398 12.0728 11.3362 12.0706C11.3361 12.0705 11.3362 12.0705 11.3363 12.0706C11.3365 12.0707 11.3982 12.3451 11.1247 12.41C11.1232 12.4091 11.1217 12.4081 11.1216 12.4081C11.1215 12.408 11.1216 12.4081 11.1221 12.4084C11.1229 12.4089 11.1244 12.4099 11.1267 12.4114C11.1313 12.4143 11.139 12.4191 11.1504 12.4264C11.1733 12.4409 11.211 12.465 11.2691 12.5019L11.4837 12.1643C11.4257 12.1274 11.3879 12.1034 11.365 12.0889C11.3536 12.0816 11.3459 12.0767 11.3413 12.0738C11.339 12.0723 11.3375 12.0713 11.3366 12.0708C11.3362 12.0706 11.3359 12.0703 11.3356 12.0702C11.3355 12.0701 11.3339 12.0691 11.3324 12.0682C11.059 12.1331 11.1207 12.4075 11.1209 12.4076C11.1211 12.4078 11.1213 12.4079 11.1214 12.4079C11.125 12.4103 11.1674 12.4372 11.2061 12.4618C11.2254 12.4741 11.2439 12.4859 11.2562 12.4937C11.2623 12.4976 11.2669 12.5005 11.2692 12.502C11.2766 12.5066 11.2679 12.5012 11.2619 12.4969C11.2125 12.2228 11.4852 12.1653 11.4853 12.1654C11.4854 12.1654 11.4855 12.1655 11.4855 12.1654C11.4854 12.1654 11.4853 12.1654 11.4852 12.1653C11.4849 12.1651 11.4844 12.1648 11.4837 12.1644C11.473 12.1575 11.4164 12.1215 11.2716 12.0295C10.6924 11.6612 8.70251 10.396 2.59562 6.51298L2.38099 6.85052ZM11.2691 12.1643L9.05256 13.5741L9.26722 13.9116L11.4837 12.5018L11.2691 12.1643ZM9.26717 13.574L1.31915 8.52243L1.10459 8.86002L9.05261 13.9116L9.26717 13.574ZM3.0628 18.6494C3.1074 18.6211 13.7324 11.8716 21.6177 6.8487L21.4028 6.51133C13.5177 11.5341 2.89294 18.2835 2.84833 18.3118L3.0628 18.6494ZM21.6181 6.84846C21.5734 6.87702 21.5166 6.86199 21.4901 6.82067L21.827 6.605C21.7373 6.46482 21.5484 6.41815 21.4024 6.51156L21.6181 6.84846ZM21.4898 6.82016L22.6522 8.64802L22.9898 8.43337L21.8273 6.60551L21.4898 6.82016ZM22.6526 8.64856C22.6245 8.6047 22.638 8.54738 22.6807 8.52026L22.8953 8.85782C23.0384 8.76685 23.0815 8.57656 22.9894 8.43283L22.6526 8.64856ZM22.6806 8.52028C16.4358 12.4919 12.3889 15.0653 7.285 18.3119L7.49969 18.6494C12.6036 15.4028 16.6504 12.8295 22.8953 8.8578L22.6806 8.52028ZM7.39235 18.2806H2.95557V18.6806H7.39235V18.2806ZM11.8954 16.509L15.2602 18.6494L15.4749 18.3119L12.1101 16.1715L11.8954 16.509ZM15.3676 18.2806H8.63742V18.6806H15.3676V18.2806ZM8.74475 18.6494L12.1101 16.509L11.8954 16.1715L8.53009 18.3119L8.74475 18.6494ZM16.7198 18.3119L12.7331 15.776L12.5184 16.1135L16.5051 18.6494L16.7198 18.3119ZM12.7331 16.1135C12.7554 16.0993 13.3456 15.7237 13.912 15.3634C14.1951 15.1832 14.4723 15.0068 14.6695 14.8813C14.7681 14.8186 14.8467 14.7685 14.8961 14.7371C14.9208 14.7214 14.9381 14.7104 14.9471 14.7047C14.9502 14.7027 14.9546 14.6999 14.9561 14.6989C15.0154 14.4244 14.7409 14.3618 14.74 14.3623C14.7398 14.3624 14.7395 14.3626 14.7394 14.3627C14.7393 14.3628 14.7391 14.3629 14.739 14.363C14.7386 14.3632 14.7382 14.3635 14.7376 14.3638C14.7365 14.3645 14.7348 14.3656 14.7325 14.3671L14.9472 14.7046C14.9495 14.7031 14.9511 14.7021 14.9522 14.7014C14.9528 14.701 14.9531 14.7008 14.9534 14.7007C14.9535 14.7006 14.9535 14.7006 14.9535 14.7006C14.9534 14.7006 14.9532 14.7008 14.9531 14.7009C14.9522 14.7014 14.6777 14.6387 14.737 14.3643C14.7383 14.3634 14.7381 14.3636 14.7323 14.3672C14.7234 14.3729 14.706 14.384 14.6813 14.3997C14.632 14.4311 14.5533 14.4811 14.4547 14.5439C14.2575 14.6693 13.9804 14.8457 13.6972 15.0259C13.1309 15.3862 12.5407 15.7618 12.5183 15.776L12.7331 16.1135ZM14.7325 14.7046L20.9389 18.6494L21.1535 18.3118L14.9471 14.3671L14.7325 14.7046ZM21.0462 18.2806H16.6125V18.6806H21.0462V18.2806Z" fill="white" mask="url(#path-1-outside-1_344_7760)"/>
</g>
<defs>
<clipPath id="clip0_344_7760">
<rect width="24" height="24" fill="white"/>
</clipPath>
</defs>
</svg>
