<svg width="24" height="24" viewBox="0 0 24 24" fill="none" xmlns="http://www.w3.org/2000/svg">
<path d="M3.75 3.375H5.6625C7.275 3.375 8.85 3.6375 10.3875 4.2C10.425 4.2 10.4625 4.2375 10.5 4.2375C10.65 4.2375 10.8 4.125 10.8375 3.975C10.9125 3.7875 10.8 3.5625 10.6125 3.4875C9.0375 2.925 7.35 2.625 5.6625 2.625H3.75C3.525 2.625 3.375 2.775 3.375 3C3.375 3.225 3.525 3.375 3.75 3.375ZM20.25 2.625H18.3375C16.65 2.625 14.9625 2.925 13.35 3.4875C13.1625 3.5625 13.05 3.7875 13.125 3.975C13.1625 4.125 13.3125 4.2375 13.4625 4.2375C13.5 4.2375 13.5375 4.2375 13.575 4.2C15.15 3.6375 16.725 3.375 18.3375 3.375H20.25C20.475 3.375 20.625 3.225 20.625 3C20.625 2.775 20.475 2.625 20.25 2.625ZM3.75 6.375H5.6625C7.275 6.375 8.85 6.6375 10.3875 7.2C10.425 7.2 10.4625 7.2375 10.5 7.2375C10.65 7.2375 10.8 7.125 10.8375 6.975C10.9125 6.7875 10.8 6.5625 10.6125 6.4875C9 5.8875 7.35 5.625 5.625 5.625H3.75C3.525 5.625 3.375 5.775 3.375 6C3.375 6.225 3.525 6.375 3.75 6.375ZM20.25 5.625H18.3375C16.65 5.625 14.9625 5.925 13.35 6.4875C13.1625 6.5625 13.05 6.7875 13.125 6.975C13.1625 7.125 13.3125 7.2375 13.4625 7.2375C13.5 7.2375 13.5375 7.2375 13.575 7.2C15.1125 6.6375 16.6875 6.375 18.3 6.375H20.25C20.475 6.375 20.625 6.225 20.625 6C20.625 5.775 20.475 5.625 20.25 5.625ZM3.75 9.375H5.6625C7.275 9.375 8.85 9.6375 10.3875 10.2C10.425 10.2 10.4625 10.2375 10.5 10.2375C10.65 10.2375 10.8 10.125 10.8375 9.975C10.9125 9.7875 10.8 9.5625 10.6125 9.4875C9 8.8875 7.35 8.625 5.625 8.625H3.75C3.525 8.625 3.375 8.775 3.375 9C3.375 9.225 3.525 9.375 3.75 9.375ZM20.25 8.625H18.3375C16.65 8.625 14.9625 8.925 13.35 9.4875C13.1625 9.5625 13.05 9.7875 13.125 9.975C13.1625 10.125 13.3125 10.2375 13.4625 10.2375C13.5 10.2375 13.5375 10.2375 13.575 10.2C15.1125 9.6375 16.6875 9.375 18.3 9.375H20.25C20.475 9.375 20.625 9.225 20.625 9C20.625 8.775 20.475 8.625 20.25 8.625ZM3.75 12.375H5.6625C7.275 12.375 8.85 12.6375 10.3875 13.2C10.425 13.2 10.4625 13.2375 10.5 13.2375C10.65 13.2375 10.8 13.125 10.8375 12.975C10.9125 12.7875 10.8 12.5625 10.6125 12.4875C9 11.8875 7.35 11.625 5.625 11.625H3.75C3.525 11.625 3.375 11.775 3.375 12C3.375 12.225 3.525 12.375 3.75 12.375ZM20.25 11.625H18.3375C16.65 11.625 14.9625 11.925 13.35 12.4875C13.1625 12.5625 13.05 12.7875 13.125 12.975C13.1625 13.125 13.3125 13.2375 13.4625 13.2375C13.5 13.2375 13.5375 13.2375 13.575 13.2C15.1125 12.6375 16.6875 12.375 18.3 12.375H20.25C20.475 12.375 20.625 12.225 20.625 12C20.625 11.775 20.475 11.625 20.25 11.625ZM3.75 15.375H5.6625C7.275 15.375 8.85 15.6375 10.3875 16.2C10.425 16.2 10.4625 16.2375 10.5 16.2375C10.65 16.2375 10.8 16.125 10.8375 15.975C10.9125 15.7875 10.8 15.5625 10.6125 15.4875C9 14.8875 7.35 14.625 5.625 14.625H3.75C3.525 14.625 3.375 14.775 3.375 15C3.375 15.225 3.525 15.375 3.75 15.375ZM20.25 14.625H18.3375C16.65 14.625 14.9625 14.925 13.35 15.4875C13.1625 15.5625 13.05 15.7875 13.125 15.975C13.1625 16.125 13.3125 16.2375 13.4625 16.2375C13.5 16.2375 13.5375 16.2375 13.575 16.2C15.1125 15.6375 16.6875 15.375 18.3 15.375H20.25C20.475 15.375 20.625 15.225 20.625 15C20.625 14.775 20.475 14.625 20.25 14.625ZM22.5375 1.125H22.125V0.75C22.125 0.525 21.975 0.375 21.75 0.375H18.8625C18.6375 0.375 18.4875 0.525 18.4875 0.75C18.4875 0.975 18.6375 1.125 18.8625 1.125H21.375V17.625H18.3375C16.3125 17.625 14.25 18.075 12.375 18.9V2.475C13.9125 1.725 15.525 1.3125 17.2125 1.1625C17.4 1.1625 17.5875 0.975 17.55 0.75C17.55 0.525 17.3625 0.375 17.1375 0.4125C15.3375 0.5625 13.6125 1.05 12 1.8375C10.0125 0.8625 7.8375 0.375 5.6625 0.375H2.25C2.025 0.375 1.875 0.525 1.875 0.75V1.125H1.4625C0.8625 1.125 0.375 1.6125 0.375 2.2125V10.875C0.375 11.1 0.525 11.25 0.75 11.25C0.975 11.25 1.125 11.1 1.125 10.875V2.2125C1.125 2.025 1.275 1.875 1.4625 1.875H1.875V18C1.875 18.225 2.025 18.375 2.25 18.375H3.75C3.975 18.375 4.125 18.225 4.125 18C4.125 17.775 3.975 17.625 3.75 17.625H2.625V1.125H5.6625C7.725 1.125 9.75 1.6125 11.625 2.475V18.9C9.75 18.075 7.6875 17.625 5.6625 17.625H5.3625C5.1375 17.625 4.9875 17.775 4.9875 18C4.9875 18.225 5.1375 18.375 5.3625 18.375H5.6625C6.675 18.375 7.65 18.4875 8.6625 18.7125V18.75V23.25C8.6625 23.3625 8.7375 23.5125 8.85 23.5875C8.9625 23.6625 9.1125 23.6625 9.225 23.5875L10.575 22.9125L11.925 23.5875C11.8875 23.625 11.925 23.625 12 23.625C12.075 23.625 12.15 23.625 12.1875 23.5875C12.3 23.5125 12.375 23.4 12.375 23.25V19.725C14.25 18.825 16.275 18.375 18.3375 18.375H21.75C21.975 18.375 22.125 18.225 22.125 18V1.875H22.5375C22.725 1.875 22.875 2.025 22.875 2.2125V6C22.875 6.225 23.025 6.375 23.25 6.375C23.475 6.375 23.625 6.225 23.625 6V2.2125C23.625 1.6125 23.1375 1.125 22.5375 1.125ZM11.625 22.65L10.65 22.1625C10.5375 22.125 10.425 22.125 10.3125 22.1625L9.375 22.65V18.9C10.1625 19.125 10.9125 19.3875 11.625 19.7625V22.65ZM23.25 7.1625C23.025 7.1625 22.875 7.3125 22.875 7.5375V20.2875C22.875 20.475 22.725 20.625 22.5375 20.625H13.5C13.275 20.625 13.125 20.775 13.125 21C13.125 21.225 13.275 21.375 13.5 21.375H22.5375C23.1375 21.375 23.625 20.8875 23.625 20.2875V7.5375C23.625 7.3125 23.475 7.1625 23.25 7.1625ZM7.425 20.625H1.4625C1.275 20.625 1.125 20.475 1.125 20.2875V14.25C1.125 14.025 0.975 13.875 0.75 13.875C0.525 13.875 0.375 14.025 0.375 14.25V20.325C0.375 20.8875 0.8625 21.375 1.4625 21.375H7.425C7.65 21.375 7.8 21.225 7.8 21C7.8 20.775 7.6125 20.625 7.425 20.625ZM0.75 13.2375C0.975 13.2375 1.125 13.0875 1.125 12.8625V12.1875C1.125 11.9625 0.975 11.8125 0.75 11.8125C0.525 11.8125 0.375 11.9625 0.375 12.1875V12.8625C0.375 13.05 0.525 13.2375 0.75 13.2375ZM21.75 19.875C21.975 19.875 22.125 19.725 22.125 19.5C22.125 19.275 21.975 19.125 21.75 19.125H15.75C15.525 19.125 15.375 19.275 15.375 19.5C15.375 19.725 15.525 19.875 15.75 19.875H21.75ZM7.425 19.125H2.25C2.025 19.125 1.875 19.275 1.875 19.5C1.875 19.725 2.025 19.875 2.25 19.875H7.425C7.65 19.875 7.8 19.725 7.8 19.5C7.8 19.275 7.6125 19.125 7.425 19.125Z" fill="white"/>
</svg>
