<svg width="375" height="239" viewBox="0 0 375 239" fill="none" xmlns="http://www.w3.org/2000/svg">
<path d="M86.7669 -99.7743H76.477L69.2012 -106.456L61.9254 -99.7743H51.6355V-90.3259L47.0213 -86.0887L42.4072 -90.3259V-99.7743H32.1173L24.8415 -106.456L17.5657 -99.7743H7.2758V-90.3259L0 -83.6446L7.2758 -76.9632V-67.5141H17.5657L22.1798 -63.2769L17.5657 -59.0397H7.2758V-49.5913L0 -42.9101L7.2758 -36.2287V-26.7803H17.5657L24.8415 -20.099L32.1173 -26.7803H42.4072V-36.2287L47.0213 -40.4659L51.6355 -36.2287V-26.7803H61.9254L69.2012 -20.099L76.477 -26.7803H86.7669V-36.2287L94.0427 -42.9101L86.7669 -49.5913V-59.0397H76.477L71.8628 -63.2769L76.477 -67.5141H86.7669V-76.9632L94.0427 -83.6446L86.7669 -90.3259V-99.7743ZM19.1256 -70.9707H11.0417V-78.395L5.32501 -83.6446L11.0417 -88.8942V-96.3184H19.1256L24.8423 -101.568L30.559 -96.3184H38.643V-88.8942L44.3597 -83.6446L38.643 -78.395V-70.9707H30.559L24.8423 -65.7211L19.1256 -70.9707ZM38.6438 -37.6596V-30.2354H30.5599L24.8432 -24.9857L19.1265 -30.2354H11.0426V-37.6596L5.32586 -42.9093L11.0426 -48.1589V-55.5831H19.1265L24.8432 -60.8328L30.5599 -55.5831H38.6438V-48.1589L44.3605 -42.9093L38.6438 -37.6596ZM42.408 -49.5906V-59.039H32.1181L27.504 -63.2761L32.1181 -67.5133H42.408V-76.9625L47.0222 -81.1996L51.6363 -76.9625V-67.5133H61.9262L66.5404 -63.2761L61.9262 -59.039H51.6363V-49.5906L47.0222 -45.3535L42.408 -49.5906ZM74.9187 -55.5831H83.0027V-48.1589L88.7194 -42.9093L83.0027 -37.6596V-30.2354H74.9187L69.202 -24.9857L63.4853 -30.2354H55.4014V-37.6596L49.6847 -42.9093L55.4014 -48.1589V-55.5831H63.4853L69.202 -60.8328L74.9187 -55.5831ZM88.7194 -83.6438L83.0027 -78.3941V-70.9699H74.9187L69.202 -65.7203L63.4853 -70.9699H55.4014V-78.3941L49.6847 -83.6438L55.4014 -88.8934V-96.3176H63.4853L69.202 -101.567L74.9187 -96.3176H83.0027V-88.8934L88.7194 -83.6438Z" fill="#7DCDFF" fill-opacity="0.03"/>
<path d="M179.639 -99.7743H169.349L162.073 -106.456L154.797 -99.7743H144.508V-90.3259L139.893 -86.0887L135.279 -90.3259V-99.7743H124.989L117.714 -106.456L110.438 -99.7743H100.148V-90.3259L92.872 -83.6446L100.148 -76.9632V-67.5141H110.438L115.052 -63.2769L110.438 -59.0397H100.148V-49.5913L92.872 -42.9101L100.148 -36.2287V-26.7803H110.438L117.714 -20.099L124.989 -26.7803H135.279V-36.2287L139.893 -40.4659L144.508 -36.2287V-26.7803H154.797L162.073 -20.099L169.349 -26.7803H179.639V-36.2287L186.915 -42.9101L179.639 -49.5913V-59.0397H169.349L164.735 -63.2769L169.349 -67.5141H179.639V-76.9632L186.915 -83.6446L179.639 -90.3259V-99.7743ZM111.998 -70.9707H103.914V-78.395L98.1971 -83.6446L103.914 -88.8942V-96.3184H111.998L117.714 -101.568L123.431 -96.3184H131.515V-88.8942L137.232 -83.6446L131.515 -78.395V-70.9707H123.431L117.714 -65.7211L111.998 -70.9707ZM131.516 -37.6596V-30.2354H123.432L117.715 -24.9857L111.999 -30.2354H103.915V-37.6596L98.1979 -42.9093L103.915 -48.1589V-55.5831H111.999L117.715 -60.8328L123.432 -55.5831H131.516V-48.1589L137.233 -42.9093L131.516 -37.6596ZM135.28 -49.5906V-59.039H124.99L120.376 -63.2761L124.99 -67.5133H135.28V-76.9625L139.894 -81.1996L144.508 -76.9625V-67.5133H154.798L159.412 -63.2761L154.798 -59.039H144.508V-49.5906L139.894 -45.3535L135.28 -49.5906ZM167.791 -55.5831H175.875V-48.1589L181.591 -42.9093L175.875 -37.6596V-30.2354H167.791L162.074 -24.9857L156.357 -30.2354H148.273V-37.6596L142.557 -42.9093L148.273 -48.1589V-55.5831H156.357L162.074 -60.8328L167.791 -55.5831ZM181.591 -83.6438L175.875 -78.3941V-70.9699H167.791L162.074 -65.7203L156.357 -70.9699H148.273V-78.3941L142.557 -83.6438L148.273 -88.8934V-96.3176H156.357L162.074 -101.567L167.791 -96.3176H175.875V-88.8934L181.591 -83.6438Z" fill="#7DCDFF" fill-opacity="0.03"/>
<path d="M273.682 -99.7743H263.392L256.116 -106.456L248.84 -99.7743H238.55V-90.3259L233.936 -86.0887L229.322 -90.3259V-99.7743H219.032L211.756 -106.456L204.48 -99.7743H194.19V-90.3259L186.915 -83.6446L194.19 -76.9632V-67.5141H204.48L209.095 -63.2769L204.48 -59.0397H194.19V-49.5913L186.915 -42.9101L194.19 -36.2287V-26.7803H204.48L211.756 -20.099L219.032 -26.7803H229.322V-36.2287L233.936 -40.4659L238.55 -36.2287V-26.7803H248.84L256.116 -20.099L263.392 -26.7803H273.682V-36.2287L280.957 -42.9101L273.682 -49.5913V-59.0397H263.392L258.777 -63.2769L263.392 -67.5141H273.682V-76.9632L280.957 -83.6446L273.682 -90.3259V-99.7743ZM206.04 -70.9707H197.956V-78.395L192.24 -83.6446L197.956 -88.8942V-96.3184H206.04L211.757 -101.568L217.474 -96.3184H225.558V-88.8942L231.274 -83.6446L225.558 -78.395V-70.9707H217.474L211.757 -65.7211L206.04 -70.9707ZM225.559 -37.6596V-30.2354H217.475L211.758 -24.9857L206.041 -30.2354H197.957V-37.6596L192.241 -42.9093L197.957 -48.1589V-55.5831H206.041L211.758 -60.8328L217.475 -55.5831H225.559V-48.1589L231.275 -42.9093L225.559 -37.6596ZM229.323 -49.5906V-59.039H219.033L214.419 -63.2761L219.033 -67.5133H229.323V-76.9625L233.937 -81.1996L238.551 -76.9625V-67.5133H248.841L253.455 -63.2761L248.841 -59.039H238.551V-49.5906L233.937 -45.3535L229.323 -49.5906ZM261.833 -55.5831H269.917V-48.1589L275.634 -42.9093L269.917 -37.6596V-30.2354H261.833L256.117 -24.9857L250.4 -30.2354H242.316V-37.6596L236.599 -42.9093L242.316 -48.1589V-55.5831H250.4L256.117 -60.8328L261.833 -55.5831ZM275.634 -83.6438L269.917 -78.3941V-70.9699H261.833L256.117 -65.7203L250.4 -70.9699H242.316V-78.3941L236.599 -83.6438L242.316 -88.8934V-96.3176H250.4L256.117 -101.567L261.833 -96.3176H269.917V-88.8934L275.634 -83.6438Z" fill="#7DCDFF" fill-opacity="0.03"/>
<path d="M367.724 -99.7743H357.434L350.159 -106.456L342.883 -99.7743H332.593V-90.3259L327.979 -86.0887L323.365 -90.3259V-99.7743H313.075L305.799 -106.456L298.523 -99.7743H288.233V-90.3259L280.957 -83.6446L288.233 -76.9632V-67.5141H298.523L303.137 -63.2769L298.523 -59.0397H288.233V-49.5913L280.957 -42.9101L288.233 -36.2287V-26.7803H298.523L305.799 -20.099L313.075 -26.7803H323.365V-36.2287L327.979 -40.4659L332.593 -36.2287V-26.7803H342.883L350.159 -20.099L357.434 -26.7803H367.724V-36.2287L375 -42.9101L367.724 -49.5913V-59.0397H357.434L352.82 -63.2769L357.434 -67.5141H367.724V-76.9632L375 -83.6446L367.724 -90.3259V-99.7743ZM300.083 -70.9707H291.999V-78.395L286.282 -83.6446L291.999 -88.8942V-96.3184H300.083L305.8 -101.568L311.516 -96.3184H319.6V-88.8942L325.317 -83.6446L319.6 -78.395V-70.9707H311.516L305.8 -65.7211L300.083 -70.9707ZM319.601 -37.6596V-30.2354H311.517L305.801 -24.9857L300.084 -30.2354H292V-37.6596L286.283 -42.9093L292 -48.1589V-55.5831H300.084L305.801 -60.8328L311.517 -55.5831H319.601V-48.1589L325.318 -42.9093L319.601 -37.6596ZM323.365 -49.5906V-59.039H313.076L308.461 -63.2761L313.076 -67.5133H323.365V-76.9625L327.98 -81.1996L332.594 -76.9625V-67.5133H342.884L347.498 -63.2761L342.884 -59.039H332.594V-49.5906L327.98 -45.3535L323.365 -49.5906ZM355.876 -55.5831H363.96V-48.1589L369.677 -42.9093L363.96 -37.6596V-30.2354H355.876L350.159 -24.9857L344.443 -30.2354H336.359V-37.6596L330.642 -42.9093L336.359 -48.1589V-55.5831H344.443L350.159 -60.8328L355.876 -55.5831ZM369.677 -83.6438L363.96 -78.3941V-70.9699H355.876L350.159 -65.7203L344.443 -70.9699H336.359V-78.3941L330.642 -83.6438L336.359 -88.8934V-96.3176H344.443L350.159 -101.567L355.876 -96.3176H363.96V-88.8934L369.677 -83.6438Z" fill="#7DCDFF" fill-opacity="0.03"/>
<path d="M86.7669 -13.4176H76.477L69.2012 -20.099L61.9254 -13.4176H51.6355V-3.96924L47.0213 0.267914L42.4072 -3.96924V-13.4176H32.1173L24.8415 -20.099L17.5657 -13.4176H7.2758V-3.96924L0 2.7121L7.2758 9.39343V18.8426H17.5657L22.1798 23.0798L17.5657 27.3169H7.2758V36.7653L0 43.4467L7.2758 50.128V59.5764H17.5657L24.8415 66.2578L32.1173 59.5764H42.4072V50.128L47.0213 45.8908L51.6355 50.128V59.5764H61.9254L69.2012 66.2578L76.477 59.5764H86.7669V50.128L94.0427 43.4467L86.7669 36.7653V27.3169H76.477L71.8628 23.0798L76.477 18.8426H86.7669V9.39343L94.0427 2.7121L86.7669 -3.96924V-13.4176ZM19.1256 15.3859H11.0417V7.9617L5.32501 2.7121L11.0417 -2.53754V-9.96176H19.1256L24.8423 -15.2114L30.559 -9.96176H38.643V-2.53754L44.3597 2.7121L38.643 7.9617V15.3859H30.559L24.8423 20.6356L19.1256 15.3859ZM38.6438 48.697V56.1212H30.5599L24.8432 61.3709L19.1265 56.1212H11.0426V48.697L5.32586 43.4474L11.0426 38.1978V30.7736H19.1265L24.8432 25.5239L30.5599 30.7736H38.6438V38.1978L44.3605 43.4474L38.6438 48.697ZM42.408 36.7661V27.3177H32.1181L27.504 23.0805L32.1181 18.8434H42.408V9.3942L47.0222 5.15707L51.6363 9.3942V18.8434H61.9262L66.5404 23.0805L61.9262 27.3177H51.6363V36.7661L47.0222 41.0032L42.408 36.7661ZM74.9187 30.7736H83.0027V38.1978L88.7194 43.4474L83.0027 48.697V56.1212H74.9187L69.202 61.3709L63.4853 56.1212H55.4014V48.697L49.6847 43.4474L55.4014 38.1978V30.7736H63.4853L69.202 25.5239L74.9187 30.7736ZM88.7194 2.71286L83.0027 7.96252V15.3867H74.9187L69.202 20.6364L63.4853 15.3867H55.4014V7.96252L49.6847 2.71286L55.4014 -2.53671V-9.96097H63.4853L69.202 -15.2106L74.9187 -9.96097H83.0027V-2.53671L88.7194 2.71286Z" fill="#7DCDFF" fill-opacity="0.03"/>
<path d="M179.639 -13.4176H169.349L162.073 -20.099L154.797 -13.4176H144.508V-3.96924L139.893 0.267914L135.279 -3.96924V-13.4176H124.989L117.714 -20.099L110.438 -13.4176H100.148V-3.96924L92.872 2.7121L100.148 9.39343V18.8426H110.438L115.052 23.0798L110.438 27.3169H100.148V36.7653L92.872 43.4467L100.148 50.128V59.5764H110.438L117.714 66.2578L124.989 59.5764H135.279V50.128L139.893 45.8908L144.508 50.128V59.5764H154.797L162.073 66.2578L169.349 59.5764H179.639V50.128L186.915 43.4467L179.639 36.7653V27.3169H169.349L164.735 23.0798L169.349 18.8426H179.639V9.39343L186.915 2.7121L179.639 -3.96924V-13.4176ZM111.998 15.3859H103.914V7.9617L98.1971 2.7121L103.914 -2.53754V-9.96176H111.998L117.714 -15.2114L123.431 -9.96176H131.515V-2.53754L137.232 2.7121L131.515 7.9617V15.3859H123.431L117.714 20.6356L111.998 15.3859ZM131.516 48.697V56.1212H123.432L117.715 61.3709L111.999 56.1212H103.915V48.697L98.1979 43.4474L103.915 38.1978V30.7736H111.999L117.715 25.5239L123.432 30.7736H131.516V38.1978L137.233 43.4474L131.516 48.697ZM135.28 36.7661V27.3177H124.99L120.376 23.0805L124.99 18.8434H135.28V9.3942L139.894 5.15707L144.508 9.3942V18.8434H154.798L159.412 23.0805L154.798 27.3177H144.508V36.7661L139.894 41.0032L135.28 36.7661ZM167.791 30.7736H175.875V38.1978L181.591 43.4474L175.875 48.697V56.1212H167.791L162.074 61.3709L156.357 56.1212H148.273V48.697L142.557 43.4474L148.273 38.1978V30.7736H156.357L162.074 25.5239L167.791 30.7736ZM181.591 2.71286L175.875 7.96252V15.3867H167.791L162.074 20.6364L156.357 15.3867H148.273V7.96252L142.557 2.71286L148.273 -2.53671V-9.96097H156.357L162.074 -15.2106L167.791 -9.96097H175.875V-2.53671L181.591 2.71286Z" fill="#7DCDFF" fill-opacity="0.03"/>
<path d="M273.682 -13.4176H263.392L256.116 -20.099L248.84 -13.4176H238.55V-3.96924L233.936 0.267914L229.322 -3.96924V-13.4176H219.032L211.756 -20.099L204.48 -13.4176H194.19V-3.96924L186.915 2.7121L194.19 9.39343V18.8426H204.48L209.095 23.0798L204.48 27.3169H194.19V36.7653L186.915 43.4467L194.19 50.128V59.5764H204.48L211.756 66.2578L219.032 59.5764H229.322V50.128L233.936 45.8908L238.55 50.128V59.5764H248.84L256.116 66.2578L263.392 59.5764H273.682V50.128L280.957 43.4467L273.682 36.7653V27.3169H263.392L258.777 23.0798L263.392 18.8426H273.682V9.39343L280.957 2.7121L273.682 -3.96924V-13.4176ZM206.04 15.3859H197.956V7.9617L192.24 2.7121L197.956 -2.53754V-9.96176H206.04L211.757 -15.2114L217.474 -9.96176H225.558V-2.53754L231.274 2.7121L225.558 7.9617V15.3859H217.474L211.757 20.6356L206.04 15.3859ZM225.559 48.697V56.1212H217.475L211.758 61.3709L206.041 56.1212H197.957V48.697L192.241 43.4474L197.957 38.1978V30.7736H206.041L211.758 25.5239L217.475 30.7736H225.559V38.1978L231.275 43.4474L225.559 48.697ZM229.323 36.7661V27.3177H219.033L214.419 23.0805L219.033 18.8434H229.323V9.3942L233.937 5.15707L238.551 9.3942V18.8434H248.841L253.455 23.0805L248.841 27.3177H238.551V36.7661L233.937 41.0032L229.323 36.7661ZM261.833 30.7736H269.917V38.1978L275.634 43.4474L269.917 48.697V56.1212H261.833L256.117 61.3709L250.4 56.1212H242.316V48.697L236.599 43.4474L242.316 38.1978V30.7736H250.4L256.117 25.5239L261.833 30.7736ZM275.634 2.71286L269.917 7.96252V15.3867H261.833L256.117 20.6364L250.4 15.3867H242.316V7.96252L236.599 2.71286L242.316 -2.53671V-9.96097H250.4L256.117 -15.2106L261.833 -9.96097H269.917V-2.53671L275.634 2.71286Z" fill="#7DCDFF" fill-opacity="0.03"/>
<path d="M367.724 -13.4176H357.434L350.159 -20.099L342.883 -13.4176H332.593V-3.96924L327.979 0.267914L323.365 -3.96924V-13.4176H313.075L305.799 -20.099L298.523 -13.4176H288.233V-3.96924L280.957 2.7121L288.233 9.39343V18.8426H298.523L303.137 23.0798L298.523 27.3169H288.233V36.7653L280.957 43.4467L288.233 50.128V59.5764H298.523L305.799 66.2578L313.075 59.5764H323.365V50.128L327.979 45.8908L332.593 50.128V59.5764H342.883L350.159 66.2578L357.434 59.5764H367.724V50.128L375 43.4467L367.724 36.7653V27.3169H357.434L352.82 23.0798L357.434 18.8426H367.724V9.39343L375 2.7121L367.724 -3.96924V-13.4176ZM300.083 15.3859H291.999V7.9617L286.282 2.7121L291.999 -2.53754V-9.96176H300.083L305.8 -15.2114L311.516 -9.96176H319.6V-2.53754L325.317 2.7121L319.6 7.9617V15.3859H311.516L305.8 20.6356L300.083 15.3859ZM319.601 48.697V56.1212H311.517L305.801 61.3709L300.084 56.1212H292V48.697L286.283 43.4474L292 38.1978V30.7736H300.084L305.801 25.5239L311.517 30.7736H319.601V38.1978L325.318 43.4474L319.601 48.697ZM323.365 36.7661V27.3177H313.076L308.461 23.0805L313.076 18.8434H323.365V9.3942L327.98 5.15707L332.594 9.3942V18.8434H342.884L347.498 23.0805L342.884 27.3177H332.594V36.7661L327.98 41.0032L323.365 36.7661ZM355.876 30.7736H363.96V38.1978L369.677 43.4474L363.96 48.697V56.1212H355.876L350.159 61.3709L344.443 56.1212H336.359V48.697L330.642 43.4474L336.359 38.1978V30.7736H344.443L350.159 25.5239L355.876 30.7736ZM369.677 2.71286L363.96 7.96252V15.3867H355.876L350.159 20.6364L344.443 15.3867H336.359V7.96252L330.642 2.71286L336.359 -2.53671V-9.96097H344.443L350.159 -15.2106L355.876 -9.96097H363.96V-2.53671L369.677 2.71286Z" fill="#7DCDFF" fill-opacity="0.03"/>
<path d="M86.7669 -445.201H76.477L69.2012 -451.882L61.9254 -445.201H51.6355V-435.752L47.0213 -431.515L42.4072 -435.752V-445.201H32.1173L24.8415 -451.882L17.5657 -445.201H7.2758V-435.752L0 -429.071L7.2758 -422.39V-412.941H17.5657L22.1798 -408.703L17.5657 -404.466H7.2758V-395.018L0 -388.337L7.2758 -381.655V-372.207H17.5657L24.8415 -365.526L32.1173 -372.207H42.4072V-381.655L47.0213 -385.892L51.6355 -381.655V-372.207H61.9254L69.2012 -365.526L76.477 -372.207H86.7669V-381.655L94.0427 -388.337L86.7669 -395.018V-404.466H76.477L71.8628 -408.703L76.477 -412.941H86.7669V-422.39L94.0427 -429.071L86.7669 -435.752V-445.201ZM19.1256 -416.397H11.0417V-423.822L5.32501 -429.071L11.0417 -434.321V-441.745H19.1256L24.8423 -446.995L30.559 -441.745H38.643V-434.321L44.3597 -429.071L38.643 -423.822V-416.397H30.559L24.8423 -411.148L19.1256 -416.397ZM38.6438 -383.086V-375.662H30.5599L24.8432 -370.412L19.1265 -375.662H11.0426V-383.086L5.32586 -388.336L11.0426 -393.585V-401.01H19.1265L24.8432 -406.259L30.5599 -401.01H38.6438V-393.585L44.3605 -388.336L38.6438 -383.086ZM42.408 -395.017V-404.466H32.1181L27.504 -408.703L32.1181 -412.94H42.408V-422.389L47.0222 -426.626L51.6363 -422.389V-412.94H61.9262L66.5404 -408.703L61.9262 -404.466H51.6363V-395.017L47.0222 -390.78L42.408 -395.017ZM74.9187 -401.01H83.0027V-393.585L88.7194 -388.336L83.0027 -383.086V-375.662H74.9187L69.202 -370.412L63.4853 -375.662H55.4014V-383.086L49.6847 -388.336L55.4014 -393.585V-401.01H63.4853L69.202 -406.259L74.9187 -401.01ZM88.7194 -429.07L83.0027 -423.821V-416.397H74.9187L69.202 -411.147L63.4853 -416.397H55.4014V-423.821L49.6847 -429.07L55.4014 -434.32V-441.744H63.4853L69.202 -446.994L74.9187 -441.744H83.0027V-434.32L88.7194 -429.07Z" fill="#7DCDFF" fill-opacity="0.03"/>
<path d="M179.639 -445.201H169.349L162.073 -451.882L154.797 -445.201H144.508V-435.752L139.893 -431.515L135.279 -435.752V-445.201H124.989L117.714 -451.882L110.438 -445.201H100.148V-435.752L92.872 -429.071L100.148 -422.39V-412.941H110.438L115.052 -408.703L110.438 -404.466H100.148V-395.018L92.872 -388.337L100.148 -381.655V-372.207H110.438L117.714 -365.526L124.989 -372.207H135.279V-381.655L139.893 -385.892L144.508 -381.655V-372.207H154.797L162.073 -365.526L169.349 -372.207H179.639V-381.655L186.915 -388.337L179.639 -395.018V-404.466H169.349L164.735 -408.703L169.349 -412.941H179.639V-422.39L186.915 -429.071L179.639 -435.752V-445.201ZM111.998 -416.397H103.914V-423.822L98.1971 -429.071L103.914 -434.321V-441.745H111.998L117.714 -446.995L123.431 -441.745H131.515V-434.321L137.232 -429.071L131.515 -423.822V-416.397H123.431L117.714 -411.148L111.998 -416.397ZM131.516 -383.086V-375.662H123.432L117.715 -370.412L111.999 -375.662H103.915V-383.086L98.1979 -388.336L103.915 -393.585V-401.01H111.999L117.715 -406.259L123.432 -401.01H131.516V-393.585L137.233 -388.336L131.516 -383.086ZM135.28 -395.017V-404.466H124.99L120.376 -408.703L124.99 -412.94H135.28V-422.389L139.894 -426.626L144.508 -422.389V-412.94H154.798L159.412 -408.703L154.798 -404.466H144.508V-395.017L139.894 -390.78L135.28 -395.017ZM167.791 -401.01H175.875V-393.585L181.591 -388.336L175.875 -383.086V-375.662H167.791L162.074 -370.412L156.357 -375.662H148.273V-383.086L142.557 -388.336L148.273 -393.585V-401.01H156.357L162.074 -406.259L167.791 -401.01ZM181.591 -429.07L175.875 -423.821V-416.397H167.791L162.074 -411.147L156.357 -416.397H148.273V-423.821L142.557 -429.07L148.273 -434.32V-441.744H156.357L162.074 -446.994L167.791 -441.744H175.875V-434.32L181.591 -429.07Z" fill="#7DCDFF" fill-opacity="0.03"/>
<path d="M273.682 -445.201H263.392L256.116 -451.882L248.84 -445.201H238.55V-435.752L233.936 -431.515L229.322 -435.752V-445.201H219.032L211.756 -451.882L204.48 -445.201H194.19V-435.752L186.915 -429.071L194.19 -422.39V-412.941H204.48L209.095 -408.703L204.48 -404.466H194.19V-395.018L186.915 -388.337L194.19 -381.655V-372.207H204.48L211.756 -365.526L219.032 -372.207H229.322V-381.655L233.936 -385.892L238.55 -381.655V-372.207H248.84L256.116 -365.526L263.392 -372.207H273.682V-381.655L280.957 -388.337L273.682 -395.018V-404.466H263.392L258.777 -408.703L263.392 -412.941H273.682V-422.39L280.957 -429.071L273.682 -435.752V-445.201ZM206.04 -416.397H197.956V-423.822L192.24 -429.071L197.956 -434.321V-441.745H206.04L211.757 -446.995L217.474 -441.745H225.558V-434.321L231.274 -429.071L225.558 -423.822V-416.397H217.474L211.757 -411.148L206.04 -416.397ZM225.559 -383.086V-375.662H217.475L211.758 -370.412L206.041 -375.662H197.957V-383.086L192.241 -388.336L197.957 -393.585V-401.01H206.041L211.758 -406.259L217.475 -401.01H225.559V-393.585L231.275 -388.336L225.559 -383.086ZM229.323 -395.017V-404.466H219.033L214.419 -408.703L219.033 -412.94H229.323V-422.389L233.937 -426.626L238.551 -422.389V-412.94H248.841L253.455 -408.703L248.841 -404.466H238.551V-395.017L233.937 -390.78L229.323 -395.017ZM261.833 -401.01H269.917V-393.585L275.634 -388.336L269.917 -383.086V-375.662H261.833L256.117 -370.412L250.4 -375.662H242.316V-383.086L236.599 -388.336L242.316 -393.585V-401.01H250.4L256.117 -406.259L261.833 -401.01ZM275.634 -429.07L269.917 -423.821V-416.397H261.833L256.117 -411.147L250.4 -416.397H242.316V-423.821L236.599 -429.07L242.316 -434.32V-441.744H250.4L256.117 -446.994L261.833 -441.744H269.917V-434.32L275.634 -429.07Z" fill="#7DCDFF" fill-opacity="0.03"/>
<path d="M367.724 -445.201H357.434L350.159 -451.882L342.883 -445.201H332.593V-435.752L327.979 -431.515L323.365 -435.752V-445.201H313.075L305.799 -451.882L298.523 -445.201H288.233V-435.752L280.957 -429.071L288.233 -422.39V-412.941H298.523L303.137 -408.703L298.523 -404.466H288.233V-395.018L280.957 -388.337L288.233 -381.655V-372.207H298.523L305.799 -365.526L313.075 -372.207H323.365V-381.655L327.979 -385.892L332.593 -381.655V-372.207H342.883L350.159 -365.526L357.434 -372.207H367.724V-381.655L375 -388.337L367.724 -395.018V-404.466H357.434L352.82 -408.703L357.434 -412.941H367.724V-422.39L375 -429.071L367.724 -435.752V-445.201ZM300.083 -416.397H291.999V-423.822L286.282 -429.071L291.999 -434.321V-441.745H300.083L305.8 -446.995L311.516 -441.745H319.6V-434.321L325.317 -429.071L319.6 -423.822V-416.397H311.516L305.8 -411.148L300.083 -416.397ZM319.601 -383.086V-375.662H311.517L305.801 -370.412L300.084 -375.662H292V-383.086L286.283 -388.336L292 -393.585V-401.01H300.084L305.801 -406.259L311.517 -401.01H319.601V-393.585L325.318 -388.336L319.601 -383.086ZM323.365 -395.017V-404.466H313.076L308.461 -408.703L313.076 -412.94H323.365V-422.389L327.98 -426.626L332.594 -422.389V-412.94H342.884L347.498 -408.703L342.884 -404.466H332.594V-395.017L327.98 -390.78L323.365 -395.017ZM355.876 -401.01H363.96V-393.585L369.677 -388.336L363.96 -383.086V-375.662H355.876L350.159 -370.412L344.443 -375.662H336.359V-383.086L330.642 -388.336L336.359 -393.585V-401.01H344.443L350.159 -406.259L355.876 -401.01ZM369.677 -429.07L363.96 -423.821V-416.397H355.876L350.159 -411.147L344.443 -416.397H336.359V-423.821L330.642 -429.07L336.359 -434.32V-441.744H344.443L350.159 -446.994L355.876 -441.744H363.96V-434.32L369.677 -429.07Z" fill="#7DCDFF" fill-opacity="0.03"/>
<path d="M86.7669 -358.844H76.477L69.2012 -365.526L61.9254 -358.844H51.6355V-349.396L47.0213 -345.159L42.4072 -349.396V-358.844H32.1173L24.8415 -365.526L17.5657 -358.844H7.2758V-349.396L0 -342.714L7.2758 -336.033V-326.584H17.5657L22.1798 -322.347L17.5657 -318.11H7.2758V-308.661L0 -301.98L7.2758 -295.299V-285.85H17.5657L24.8415 -279.169L32.1173 -285.85H42.4072V-295.299L47.0213 -299.536L51.6355 -295.299V-285.85H61.9254L69.2012 -279.169L76.477 -285.85H86.7669V-295.299L94.0427 -301.98L86.7669 -308.661V-318.11H76.477L71.8628 -322.347L76.477 -326.584H86.7669V-336.033L94.0427 -342.714L86.7669 -349.396V-358.844ZM19.1256 -330.041H11.0417V-337.465L5.32501 -342.714L11.0417 -347.964V-355.388H19.1256L24.8423 -360.638L30.559 -355.388H38.643V-347.964L44.3597 -342.714L38.643 -337.465V-330.041H30.559L24.8423 -324.791L19.1256 -330.041ZM38.6438 -296.73V-289.305H30.5599L24.8432 -284.056L19.1265 -289.305H11.0426V-296.73L5.32586 -301.979L11.0426 -307.229V-314.653H19.1265L24.8432 -319.903L30.5599 -314.653H38.6438V-307.229L44.3605 -301.979L38.6438 -296.73ZM42.408 -308.661V-318.109H32.1181L27.504 -322.346L32.1181 -326.583H42.408V-336.032L47.0222 -340.27L51.6363 -336.032V-326.583H61.9262L66.5404 -322.346L61.9262 -318.109H51.6363V-308.661L47.0222 -304.423L42.408 -308.661ZM74.9187 -314.653H83.0027V-307.229L88.7194 -301.979L83.0027 -296.73V-289.305H74.9187L69.202 -284.056L63.4853 -289.305H55.4014V-296.73L49.6847 -301.979L55.4014 -307.229V-314.653H63.4853L69.202 -319.903L74.9187 -314.653ZM88.7194 -342.714L83.0027 -337.464V-330.04H74.9187L69.202 -324.79L63.4853 -330.04H55.4014V-337.464L49.6847 -342.714L55.4014 -347.963V-355.388H63.4853L69.202 -360.637L74.9187 -355.388H83.0027V-347.963L88.7194 -342.714Z" fill="#7DCDFF" fill-opacity="0.03"/>
<path d="M179.639 -358.844H169.349L162.073 -365.526L154.797 -358.844H144.508V-349.396L139.893 -345.159L135.279 -349.396V-358.844H124.989L117.714 -365.526L110.438 -358.844H100.148V-349.396L92.872 -342.714L100.148 -336.033V-326.584H110.438L115.052 -322.347L110.438 -318.11H100.148V-308.661L92.872 -301.98L100.148 -295.299V-285.85H110.438L117.714 -279.169L124.989 -285.85H135.279V-295.299L139.893 -299.536L144.508 -295.299V-285.85H154.797L162.073 -279.169L169.349 -285.85H179.639V-295.299L186.915 -301.98L179.639 -308.661V-318.11H169.349L164.735 -322.347L169.349 -326.584H179.639V-336.033L186.915 -342.714L179.639 -349.396V-358.844ZM111.998 -330.041H103.914V-337.465L98.1971 -342.714L103.914 -347.964V-355.388H111.998L117.714 -360.638L123.431 -355.388H131.515V-347.964L137.232 -342.714L131.515 -337.465V-330.041H123.431L117.714 -324.791L111.998 -330.041ZM131.516 -296.73V-289.305H123.432L117.715 -284.056L111.999 -289.305H103.915V-296.73L98.1979 -301.979L103.915 -307.229V-314.653H111.999L117.715 -319.903L123.432 -314.653H131.516V-307.229L137.233 -301.979L131.516 -296.73ZM135.28 -308.661V-318.109H124.99L120.376 -322.346L124.99 -326.583H135.28V-336.032L139.894 -340.27L144.508 -336.032V-326.583H154.798L159.412 -322.346L154.798 -318.109H144.508V-308.661L139.894 -304.423L135.28 -308.661ZM167.791 -314.653H175.875V-307.229L181.591 -301.979L175.875 -296.73V-289.305H167.791L162.074 -284.056L156.357 -289.305H148.273V-296.73L142.557 -301.979L148.273 -307.229V-314.653H156.357L162.074 -319.903L167.791 -314.653ZM181.591 -342.714L175.875 -337.464V-330.04H167.791L162.074 -324.79L156.357 -330.04H148.273V-337.464L142.557 -342.714L148.273 -347.963V-355.388H156.357L162.074 -360.637L167.791 -355.388H175.875V-347.963L181.591 -342.714Z" fill="#7DCDFF" fill-opacity="0.03"/>
<path d="M273.682 -358.844H263.392L256.116 -365.526L248.84 -358.844H238.55V-349.396L233.936 -345.159L229.322 -349.396V-358.844H219.032L211.756 -365.526L204.48 -358.844H194.19V-349.396L186.915 -342.714L194.19 -336.033V-326.584H204.48L209.095 -322.347L204.48 -318.11H194.19V-308.661L186.915 -301.98L194.19 -295.299V-285.85H204.48L211.756 -279.169L219.032 -285.85H229.322V-295.299L233.936 -299.536L238.55 -295.299V-285.85H248.84L256.116 -279.169L263.392 -285.85H273.682V-295.299L280.957 -301.98L273.682 -308.661V-318.11H263.392L258.777 -322.347L263.392 -326.584H273.682V-336.033L280.957 -342.714L273.682 -349.396V-358.844ZM206.04 -330.041H197.956V-337.465L192.24 -342.714L197.956 -347.964V-355.388H206.04L211.757 -360.638L217.474 -355.388H225.558V-347.964L231.274 -342.714L225.558 -337.465V-330.041H217.474L211.757 -324.791L206.04 -330.041ZM225.559 -296.73V-289.305H217.475L211.758 -284.056L206.041 -289.305H197.957V-296.73L192.241 -301.979L197.957 -307.229V-314.653H206.041L211.758 -319.903L217.475 -314.653H225.559V-307.229L231.275 -301.979L225.559 -296.73ZM229.323 -308.661V-318.109H219.033L214.419 -322.346L219.033 -326.583H229.323V-336.032L233.937 -340.27L238.551 -336.032V-326.583H248.841L253.455 -322.346L248.841 -318.109H238.551V-308.661L233.937 -304.423L229.323 -308.661ZM261.833 -314.653H269.917V-307.229L275.634 -301.979L269.917 -296.73V-289.305H261.833L256.117 -284.056L250.4 -289.305H242.316V-296.73L236.599 -301.979L242.316 -307.229V-314.653H250.4L256.117 -319.903L261.833 -314.653ZM275.634 -342.714L269.917 -337.464V-330.04H261.833L256.117 -324.79L250.4 -330.04H242.316V-337.464L236.599 -342.714L242.316 -347.963V-355.388H250.4L256.117 -360.637L261.833 -355.388H269.917V-347.963L275.634 -342.714Z" fill="#7DCDFF" fill-opacity="0.03"/>
<path d="M367.724 -358.844H357.434L350.159 -365.526L342.883 -358.844H332.593V-349.396L327.979 -345.159L323.365 -349.396V-358.844H313.075L305.799 -365.526L298.523 -358.844H288.233V-349.396L280.957 -342.714L288.233 -336.033V-326.584H298.523L303.137 -322.347L298.523 -318.11H288.233V-308.661L280.957 -301.98L288.233 -295.299V-285.85H298.523L305.799 -279.169L313.075 -285.85H323.365V-295.299L327.979 -299.536L332.593 -295.299V-285.85H342.883L350.159 -279.169L357.434 -285.85H367.724V-295.299L375 -301.98L367.724 -308.661V-318.11H357.434L352.82 -322.347L357.434 -326.584H367.724V-336.033L375 -342.714L367.724 -349.396V-358.844ZM300.083 -330.041H291.999V-337.465L286.282 -342.714L291.999 -347.964V-355.388H300.083L305.8 -360.638L311.516 -355.388H319.6V-347.964L325.317 -342.714L319.6 -337.465V-330.041H311.516L305.8 -324.791L300.083 -330.041ZM319.601 -296.73V-289.305H311.517L305.801 -284.056L300.084 -289.305H292V-296.73L286.283 -301.979L292 -307.229V-314.653H300.084L305.801 -319.903L311.517 -314.653H319.601V-307.229L325.318 -301.979L319.601 -296.73ZM323.365 -308.661V-318.109H313.076L308.461 -322.346L313.076 -326.583H323.365V-336.032L327.98 -340.27L332.594 -336.032V-326.583H342.884L347.498 -322.346L342.884 -318.109H332.594V-308.661L327.98 -304.423L323.365 -308.661ZM355.876 -314.653H363.96V-307.229L369.677 -301.979L363.96 -296.73V-289.305H355.876L350.159 -284.056L344.443 -289.305H336.359V-296.73L330.642 -301.979L336.359 -307.229V-314.653H344.443L350.159 -319.903L355.876 -314.653ZM369.677 -342.714L363.96 -337.464V-330.04H355.876L350.159 -324.79L344.443 -330.04H336.359V-337.464L330.642 -342.714L336.359 -347.963V-355.388H344.443L350.159 -360.637L355.876 -355.388H363.96V-347.963L369.677 -342.714Z" fill="#7DCDFF" fill-opacity="0.03"/>
<path d="M86.7669 72.939H76.477L69.2012 66.2578L61.9254 72.939H51.6355V82.3874L47.0213 86.6245L42.4072 82.3874V72.939H32.1173L24.8415 66.2578L17.5657 72.939H7.2758V82.3874L0 89.0687L7.2758 95.7501V105.199H17.5657L22.1798 109.436L17.5657 113.674H7.2758V123.122L0 129.803L7.2758 136.485V145.933H17.5657L24.8415 152.614L32.1173 145.933H42.4072V136.485L47.0213 132.247L51.6355 136.485V145.933H61.9254L69.2012 152.614L76.477 145.933H86.7669V136.485L94.0427 129.803L86.7669 123.122V113.674H76.477L71.8628 109.436L76.477 105.199H86.7669V95.7501L94.0427 89.0687L86.7669 82.3874V72.939ZM19.1256 101.743H11.0417V94.3183L5.32501 89.0687L11.0417 83.8191V76.3948H19.1256L24.8423 71.1452L30.559 76.3948H38.643V83.8191L44.3597 89.0687L38.643 94.3183V101.743H30.559L24.8423 106.992L19.1256 101.743ZM38.6438 135.054V142.478H30.5599L24.8432 147.727L19.1265 142.478H11.0426V135.054L5.32586 129.804L11.0426 124.554V117.13H19.1265L24.8432 111.881L30.5599 117.13H38.6438V124.554L44.3605 129.804L38.6438 135.054ZM42.408 123.123V113.674H32.1181L27.504 109.437L32.1181 105.2H42.408V95.7508L47.0222 91.5137L51.6363 95.7508V105.2H61.9262L66.5404 109.437L61.9262 113.674H51.6363V123.123L47.0222 127.36L42.408 123.123ZM74.9187 117.13H83.0027V124.554L88.7194 129.804L83.0027 135.054V142.478H74.9187L69.202 147.727L63.4853 142.478H55.4014V135.054L49.6847 129.804L55.4014 124.554V117.13H63.4853L69.202 111.881L74.9187 117.13ZM88.7194 89.0695L83.0027 94.3192V101.743H74.9187L69.202 106.993L63.4853 101.743H55.4014V94.3192L49.6847 89.0695L55.4014 83.8199V76.3957H63.4853L69.202 71.1461L74.9187 76.3957H83.0027V83.8199L88.7194 89.0695Z" fill="#7DCDFF" fill-opacity="0.03"/>
<path d="M179.639 72.939H169.349L162.073 66.2578L154.797 72.939H144.508V82.3874L139.893 86.6245L135.279 82.3874V72.939H124.989L117.714 66.2578L110.438 72.939H100.148V82.3874L92.872 89.0687L100.148 95.7501V105.199H110.438L115.052 109.436L110.438 113.674H100.148V123.122L92.872 129.803L100.148 136.485V145.933H110.438L117.714 152.614L124.989 145.933H135.279V136.485L139.893 132.247L144.508 136.485V145.933H154.797L162.073 152.614L169.349 145.933H179.639V136.485L186.915 129.803L179.639 123.122V113.674H169.349L164.735 109.436L169.349 105.199H179.639V95.7501L186.915 89.0687L179.639 82.3874V72.939ZM111.998 101.743H103.914V94.3183L98.1971 89.0687L103.914 83.8191V76.3948H111.998L117.714 71.1452L123.431 76.3948H131.515V83.8191L137.232 89.0687L131.515 94.3183V101.743H123.431L117.714 106.992L111.998 101.743ZM131.516 135.054V142.478H123.432L117.715 147.727L111.999 142.478H103.915V135.054L98.1979 129.804L103.915 124.554V117.13H111.999L117.715 111.881L123.432 117.13H131.516V124.554L137.233 129.804L131.516 135.054ZM135.28 123.123V113.674H124.99L120.376 109.437L124.99 105.2H135.28V95.7508L139.894 91.5137L144.508 95.7508V105.2H154.798L159.412 109.437L154.798 113.674H144.508V123.123L139.894 127.36L135.28 123.123ZM167.791 117.13H175.875V124.554L181.591 129.804L175.875 135.054V142.478H167.791L162.074 147.727L156.357 142.478H148.273V135.054L142.557 129.804L148.273 124.554V117.13H156.357L162.074 111.881L167.791 117.13ZM181.591 89.0695L175.875 94.3192V101.743H167.791L162.074 106.993L156.357 101.743H148.273V94.3192L142.557 89.0695L148.273 83.8199V76.3957H156.357L162.074 71.1461L167.791 76.3957H175.875V83.8199L181.591 89.0695Z" fill="#7DCDFF" fill-opacity="0.03"/>
<path d="M273.682 72.939H263.392L256.116 66.2578L248.84 72.939H238.55V82.3874L233.936 86.6245L229.322 82.3874V72.939H219.032L211.756 66.2578L204.48 72.939H194.19V82.3874L186.915 89.0687L194.19 95.7501V105.199H204.48L209.095 109.436L204.48 113.674H194.19V123.122L186.915 129.803L194.19 136.485V145.933H204.48L211.756 152.614L219.032 145.933H229.322V136.485L233.936 132.247L238.55 136.485V145.933H248.84L256.116 152.614L263.392 145.933H273.682V136.485L280.957 129.803L273.682 123.122V113.674H263.392L258.777 109.436L263.392 105.199H273.682V95.7501L280.957 89.0687L273.682 82.3874V72.939ZM206.04 101.743H197.956V94.3183L192.24 89.0687L197.956 83.8191V76.3948H206.04L211.757 71.1452L217.474 76.3948H225.558V83.8191L231.274 89.0687L225.558 94.3183V101.743H217.474L211.757 106.992L206.04 101.743ZM225.559 135.054V142.478H217.475L211.758 147.727L206.041 142.478H197.957V135.054L192.241 129.804L197.957 124.554V117.13H206.041L211.758 111.881L217.475 117.13H225.559V124.554L231.275 129.804L225.559 135.054ZM229.323 123.123V113.674H219.033L214.419 109.437L219.033 105.2H229.323V95.7508L233.937 91.5137L238.551 95.7508V105.2H248.841L253.455 109.437L248.841 113.674H238.551V123.123L233.937 127.36L229.323 123.123ZM261.833 117.13H269.917V124.554L275.634 129.804L269.917 135.054V142.478H261.833L256.117 147.727L250.4 142.478H242.316V135.054L236.599 129.804L242.316 124.554V117.13H250.4L256.117 111.881L261.833 117.13ZM275.634 89.0695L269.917 94.3192V101.743H261.833L256.117 106.993L250.4 101.743H242.316V94.3192L236.599 89.0695L242.316 83.8199V76.3957H250.4L256.117 71.1461L261.833 76.3957H269.917V83.8199L275.634 89.0695Z" fill="#7DCDFF" fill-opacity="0.03"/>
<path d="M367.724 72.939H357.434L350.159 66.2578L342.883 72.939H332.593V82.3874L327.979 86.6245L323.365 82.3874V72.939H313.075L305.799 66.2578L298.523 72.939H288.233V82.3874L280.957 89.0687L288.233 95.7501V105.199H298.523L303.137 109.436L298.523 113.674H288.233V123.122L280.957 129.803L288.233 136.485V145.933H298.523L305.799 152.614L313.075 145.933H323.365V136.485L327.979 132.247L332.593 136.485V145.933H342.883L350.159 152.614L357.434 145.933H367.724V136.485L375 129.803L367.724 123.122V113.674H357.434L352.82 109.436L357.434 105.199H367.724V95.7501L375 89.0687L367.724 82.3874V72.939ZM300.083 101.743H291.999V94.3183L286.282 89.0687L291.999 83.8191V76.3948H300.083L305.8 71.1452L311.516 76.3948H319.6V83.8191L325.317 89.0687L319.6 94.3183V101.743H311.516L305.8 106.992L300.083 101.743ZM319.601 135.054V142.478H311.517L305.801 147.727L300.084 142.478H292V135.054L286.283 129.804L292 124.554V117.13H300.084L305.801 111.881L311.517 117.13H319.601V124.554L325.318 129.804L319.601 135.054ZM323.365 123.123V113.674H313.076L308.461 109.437L313.076 105.2H323.365V95.7508L327.98 91.5137L332.594 95.7508V105.2H342.884L347.498 109.437L342.884 113.674H332.594V123.123L327.98 127.36L323.365 123.123ZM355.876 117.13H363.96V124.554L369.677 129.804L363.96 135.054V142.478H355.876L350.159 147.727L344.443 142.478H336.359V135.054L330.642 129.804L336.359 124.554V117.13H344.443L350.159 111.881L355.876 117.13ZM369.677 89.0695L363.96 94.3192V101.743H355.876L350.159 106.993L344.443 101.743H336.359V94.3192L330.642 89.0695L336.359 83.8199V76.3957H344.443L350.159 71.1461L355.876 76.3957H363.96V83.8199L369.677 89.0695Z" fill="#7DCDFF" fill-opacity="0.03"/>
<path d="M86.7669 159.296H76.477L69.2012 152.614L61.9254 159.296H51.6355V168.744L47.0213 172.981L42.4072 168.744V159.296H32.1173L24.8415 152.614L17.5657 159.296H7.2758V168.744L0 175.425L7.2758 182.107V191.556H17.5657L22.1798 195.793L17.5657 200.03H7.2758V209.479L0 216.16L7.2758 222.841V232.29H17.5657L24.8415 238.971L32.1173 232.29H42.4072V222.841L47.0213 218.604L51.6355 222.841V232.29H61.9254L69.2012 238.971L76.477 232.29H86.7669V222.841L94.0427 216.16L86.7669 209.479V200.03H76.477L71.8628 195.793L76.477 191.556H86.7669V182.107L94.0427 175.425L86.7669 168.744V159.296ZM19.1256 188.099H11.0417V180.675L5.32501 175.425L11.0417 170.176V162.752H19.1256L24.8423 157.502L30.559 162.752H38.643V170.176L44.3597 175.425L38.643 180.675V188.099H30.559L24.8423 193.349L19.1256 188.099ZM38.6438 221.41V228.835H30.5599L24.8432 234.084L19.1265 228.835H11.0426V221.41L5.32586 216.161L11.0426 210.911V203.487H19.1265L24.8432 198.237L30.5599 203.487H38.6438V210.911L44.3605 216.161L38.6438 221.41ZM42.408 209.479V200.031H32.1181L27.504 195.794L32.1181 191.557H42.408V182.107L47.0222 177.87L51.6363 182.107V191.557H61.9262L66.5404 195.794L61.9262 200.031H51.6363V209.479L47.0222 213.717L42.408 209.479ZM74.9187 203.487H83.0027V210.911L88.7194 216.161L83.0027 221.41V228.835H74.9187L69.202 234.084L63.4853 228.835H55.4014V221.41L49.6847 216.161L55.4014 210.911V203.487H63.4853L69.202 198.237L74.9187 203.487ZM88.7194 175.426L83.0027 180.676V188.1H74.9187L69.202 193.35L63.4853 188.1H55.4014V180.676L49.6847 175.426L55.4014 170.177V162.752H63.4853L69.202 157.503L74.9187 162.752H83.0027V170.177L88.7194 175.426Z" fill="#7DCDFF" fill-opacity="0.03"/>
<path d="M179.639 159.296H169.349L162.073 152.614L154.797 159.296H144.508V168.744L139.893 172.981L135.279 168.744V159.296H124.989L117.714 152.614L110.438 159.296H100.148V168.744L92.872 175.425L100.148 182.107V191.556H110.438L115.052 195.793L110.438 200.03H100.148V209.479L92.872 216.16L100.148 222.841V232.29H110.438L117.714 238.971L124.989 232.29H135.279V222.841L139.893 218.604L144.508 222.841V232.29H154.797L162.073 238.971L169.349 232.29H179.639V222.841L186.915 216.16L179.639 209.479V200.03H169.349L164.735 195.793L169.349 191.556H179.639V182.107L186.915 175.425L179.639 168.744V159.296ZM111.998 188.099H103.914V180.675L98.1971 175.425L103.914 170.176V162.752H111.998L117.714 157.502L123.431 162.752H131.515V170.176L137.232 175.425L131.515 180.675V188.099H123.431L117.714 193.349L111.998 188.099ZM131.516 221.41V228.835H123.432L117.715 234.084L111.999 228.835H103.915V221.41L98.1979 216.161L103.915 210.911V203.487H111.999L117.715 198.237L123.432 203.487H131.516V210.911L137.233 216.161L131.516 221.41ZM135.28 209.479V200.031H124.99L120.376 195.794L124.99 191.557H135.28V182.107L139.894 177.87L144.508 182.107V191.557H154.798L159.412 195.794L154.798 200.031H144.508V209.479L139.894 213.717L135.28 209.479ZM167.791 203.487H175.875V210.911L181.591 216.161L175.875 221.41V228.835H167.791L162.074 234.084L156.357 228.835H148.273V221.41L142.557 216.161L148.273 210.911V203.487H156.357L162.074 198.237L167.791 203.487ZM181.591 175.426L175.875 180.676V188.1H167.791L162.074 193.35L156.357 188.1H148.273V180.676L142.557 175.426L148.273 170.177V162.752H156.357L162.074 157.503L167.791 162.752H175.875V170.177L181.591 175.426Z" fill="#7DCDFF" fill-opacity="0.03"/>
<path d="M273.682 159.296H263.392L256.116 152.614L248.84 159.296H238.55V168.744L233.936 172.981L229.322 168.744V159.296H219.032L211.756 152.614L204.48 159.296H194.19V168.744L186.915 175.425L194.19 182.107V191.556H204.48L209.095 195.793L204.48 200.03H194.19V209.479L186.915 216.16L194.19 222.841V232.29H204.48L211.756 238.971L219.032 232.29H229.322V222.841L233.936 218.604L238.55 222.841V232.29H248.84L256.116 238.971L263.392 232.29H273.682V222.841L280.957 216.16L273.682 209.479V200.03H263.392L258.777 195.793L263.392 191.556H273.682V182.107L280.957 175.425L273.682 168.744V159.296ZM206.04 188.099H197.956V180.675L192.24 175.425L197.956 170.176V162.752H206.04L211.757 157.502L217.474 162.752H225.558V170.176L231.274 175.425L225.558 180.675V188.099H217.474L211.757 193.349L206.04 188.099ZM225.559 221.41V228.835H217.475L211.758 234.084L206.041 228.835H197.957V221.41L192.241 216.161L197.957 210.911V203.487H206.041L211.758 198.237L217.475 203.487H225.559V210.911L231.275 216.161L225.559 221.41ZM229.323 209.479V200.031H219.033L214.419 195.794L219.033 191.557H229.323V182.107L233.937 177.87L238.551 182.107V191.557H248.841L253.455 195.794L248.841 200.031H238.551V209.479L233.937 213.717L229.323 209.479ZM261.833 203.487H269.917V210.911L275.634 216.161L269.917 221.41V228.835H261.833L256.117 234.084L250.4 228.835H242.316V221.41L236.599 216.161L242.316 210.911V203.487H250.4L256.117 198.237L261.833 203.487ZM275.634 175.426L269.917 180.676V188.1H261.833L256.117 193.35L250.4 188.1H242.316V180.676L236.599 175.426L242.316 170.177V162.752H250.4L256.117 157.503L261.833 162.752H269.917V170.177L275.634 175.426Z" fill="#7DCDFF" fill-opacity="0.03"/>
<path d="M367.724 159.296H357.434L350.159 152.614L342.883 159.296H332.593V168.744L327.979 172.981L323.365 168.744V159.296H313.075L305.799 152.614L298.523 159.296H288.233V168.744L280.957 175.425L288.233 182.107V191.556H298.523L303.137 195.793L298.523 200.03H288.233V209.479L280.957 216.16L288.233 222.841V232.29H298.523L305.799 238.971L313.075 232.29H323.365V222.841L327.979 218.604L332.593 222.841V232.29H342.883L350.159 238.971L357.434 232.29H367.724V222.841L375 216.16L367.724 209.479V200.03H357.434L352.82 195.793L357.434 191.556H367.724V182.107L375 175.425L367.724 168.744V159.296ZM300.083 188.099H291.999V180.675L286.282 175.425L291.999 170.176V162.752H300.083L305.8 157.502L311.516 162.752H319.6V170.176L325.317 175.425L319.6 180.675V188.099H311.516L305.8 193.349L300.083 188.099ZM319.601 221.41V228.835H311.517L305.801 234.084L300.084 228.835H292V221.41L286.283 216.161L292 210.911V203.487H300.084L305.801 198.237L311.517 203.487H319.601V210.911L325.318 216.161L319.601 221.41ZM323.365 209.479V200.031H313.076L308.461 195.794L313.076 191.557H323.365V182.107L327.98 177.87L332.594 182.107V191.557H342.884L347.498 195.794L342.884 200.031H332.594V209.479L327.98 213.717L323.365 209.479ZM355.876 203.487H363.96V210.911L369.677 216.161L363.96 221.41V228.835H355.876L350.159 234.084L344.443 228.835H336.359V221.41L330.642 216.161L336.359 210.911V203.487H344.443L350.159 198.237L355.876 203.487ZM369.677 175.426L363.96 180.676V188.1H355.876L350.159 193.35L344.443 188.1H336.359V180.676L330.642 175.426L336.359 170.177V162.752H344.443L350.159 157.503L355.876 162.752H363.96V170.177L369.677 175.426Z" fill="#7DCDFF" fill-opacity="0.03"/>
<path d="M86.7669 -272.488H76.477L69.2012 -279.169L61.9254 -272.488H51.6355V-263.039L47.0213 -258.802L42.4072 -263.039V-272.488H32.1173L24.8415 -279.169L17.5657 -272.488H7.2758V-263.039L0 -256.358L7.2758 -249.677V-240.227H17.5657L22.1798 -235.99L17.5657 -231.753H7.2758V-222.305L0 -215.623L7.2758 -208.942V-199.494H17.5657L24.8415 -192.812L32.1173 -199.494H42.4072V-208.942L47.0213 -213.179L51.6355 -208.942V-199.494H61.9254L69.2012 -192.812L76.477 -199.494H86.7669V-208.942L94.0427 -215.623L86.7669 -222.305V-231.753H76.477L71.8628 -235.99L76.477 -240.227H86.7669V-249.677L94.0427 -256.358L86.7669 -263.039V-272.488ZM19.1256 -243.684H11.0417V-251.108L5.32501 -256.358L11.0417 -261.607V-269.032H19.1256L24.8423 -274.281L30.559 -269.032H38.643V-261.607L44.3597 -256.358L38.643 -251.108V-243.684H30.559L24.8423 -238.434L19.1256 -243.684ZM38.6438 -210.373V-202.949H30.5599L24.8432 -197.699L19.1265 -202.949H11.0426V-210.373L5.32586 -215.623L11.0426 -220.872V-228.296H19.1265L24.8432 -233.546L30.5599 -228.296H38.6438V-220.872L44.3605 -215.623L38.6438 -210.373ZM42.408 -222.304V-231.752H32.1181L27.504 -235.989L32.1181 -240.227H42.408V-249.676L47.0222 -253.913L51.6363 -249.676V-240.227H61.9262L66.5404 -235.989L61.9262 -231.752H51.6363V-222.304L47.0222 -218.067L42.408 -222.304ZM74.9187 -228.296H83.0027V-220.872L88.7194 -215.623L83.0027 -210.373V-202.949H74.9187L69.202 -197.699L63.4853 -202.949H55.4014V-210.373L49.6847 -215.623L55.4014 -220.872V-228.296H63.4853L69.202 -233.546L74.9187 -228.296ZM88.7194 -256.357L83.0027 -251.107V-243.683H74.9187L69.202 -238.434L63.4853 -243.683H55.4014V-251.107L49.6847 -256.357L55.4014 -261.607V-269.031H63.4853L69.202 -274.281L74.9187 -269.031H83.0027V-261.607L88.7194 -256.357Z" fill="#7DCDFF" fill-opacity="0.03"/>
<path d="M179.639 -272.488H169.349L162.073 -279.169L154.797 -272.488H144.508V-263.039L139.893 -258.802L135.279 -263.039V-272.488H124.989L117.714 -279.169L110.438 -272.488H100.148V-263.039L92.872 -256.358L100.148 -249.677V-240.227H110.438L115.052 -235.99L110.438 -231.753H100.148V-222.305L92.872 -215.623L100.148 -208.942V-199.494H110.438L117.714 -192.812L124.989 -199.494H135.279V-208.942L139.893 -213.179L144.508 -208.942V-199.494H154.797L162.073 -192.812L169.349 -199.494H179.639V-208.942L186.915 -215.623L179.639 -222.305V-231.753H169.349L164.735 -235.99L169.349 -240.227H179.639V-249.677L186.915 -256.358L179.639 -263.039V-272.488ZM111.998 -243.684H103.914V-251.108L98.1971 -256.358L103.914 -261.607V-269.032H111.998L117.714 -274.281L123.431 -269.032H131.515V-261.607L137.232 -256.358L131.515 -251.108V-243.684H123.431L117.714 -238.434L111.998 -243.684ZM131.516 -210.373V-202.949H123.432L117.715 -197.699L111.999 -202.949H103.915V-210.373L98.1979 -215.623L103.915 -220.872V-228.296H111.999L117.715 -233.546L123.432 -228.296H131.516V-220.872L137.233 -215.623L131.516 -210.373ZM135.28 -222.304V-231.752H124.99L120.376 -235.989L124.99 -240.227H135.28V-249.676L139.894 -253.913L144.508 -249.676V-240.227H154.798L159.412 -235.989L154.798 -231.752H144.508V-222.304L139.894 -218.067L135.28 -222.304ZM167.791 -228.296H175.875V-220.872L181.591 -215.623L175.875 -210.373V-202.949H167.791L162.074 -197.699L156.357 -202.949H148.273V-210.373L142.557 -215.623L148.273 -220.872V-228.296H156.357L162.074 -233.546L167.791 -228.296ZM181.591 -256.357L175.875 -251.107V-243.683H167.791L162.074 -238.434L156.357 -243.683H148.273V-251.107L142.557 -256.357L148.273 -261.607V-269.031H156.357L162.074 -274.281L167.791 -269.031H175.875V-261.607L181.591 -256.357Z" fill="#7DCDFF" fill-opacity="0.03"/>
<path d="M273.682 -272.488H263.392L256.116 -279.169L248.84 -272.488H238.55V-263.039L233.936 -258.802L229.322 -263.039V-272.488H219.032L211.756 -279.169L204.48 -272.488H194.19V-263.039L186.915 -256.358L194.19 -249.677V-240.227H204.48L209.095 -235.99L204.48 -231.753H194.19V-222.305L186.915 -215.623L194.19 -208.942V-199.494H204.48L211.756 -192.812L219.032 -199.494H229.322V-208.942L233.936 -213.179L238.55 -208.942V-199.494H248.84L256.116 -192.812L263.392 -199.494H273.682V-208.942L280.957 -215.623L273.682 -222.305V-231.753H263.392L258.777 -235.99L263.392 -240.227H273.682V-249.677L280.957 -256.358L273.682 -263.039V-272.488ZM206.04 -243.684H197.956V-251.108L192.24 -256.358L197.956 -261.607V-269.032H206.04L211.757 -274.281L217.474 -269.032H225.558V-261.607L231.274 -256.358L225.558 -251.108V-243.684H217.474L211.757 -238.434L206.04 -243.684ZM225.559 -210.373V-202.949H217.475L211.758 -197.699L206.041 -202.949H197.957V-210.373L192.241 -215.623L197.957 -220.872V-228.296H206.041L211.758 -233.546L217.475 -228.296H225.559V-220.872L231.275 -215.623L225.559 -210.373ZM229.323 -222.304V-231.752H219.033L214.419 -235.989L219.033 -240.227H229.323V-249.676L233.937 -253.913L238.551 -249.676V-240.227H248.841L253.455 -235.989L248.841 -231.752H238.551V-222.304L233.937 -218.067L229.323 -222.304ZM261.833 -228.296H269.917V-220.872L275.634 -215.623L269.917 -210.373V-202.949H261.833L256.117 -197.699L250.4 -202.949H242.316V-210.373L236.599 -215.623L242.316 -220.872V-228.296H250.4L256.117 -233.546L261.833 -228.296ZM275.634 -256.357L269.917 -251.107V-243.683H261.833L256.117 -238.434L250.4 -243.683H242.316V-251.107L236.599 -256.357L242.316 -261.607V-269.031H250.4L256.117 -274.281L261.833 -269.031H269.917V-261.607L275.634 -256.357Z" fill="#7DCDFF" fill-opacity="0.03"/>
<path d="M367.724 -272.488H357.434L350.159 -279.169L342.883 -272.488H332.593V-263.039L327.979 -258.802L323.365 -263.039V-272.488H313.075L305.799 -279.169L298.523 -272.488H288.233V-263.039L280.957 -256.358L288.233 -249.677V-240.227H298.523L303.137 -235.99L298.523 -231.753H288.233V-222.305L280.957 -215.623L288.233 -208.942V-199.494H298.523L305.799 -192.812L313.075 -199.494H323.365V-208.942L327.979 -213.179L332.593 -208.942V-199.494H342.883L350.159 -192.812L357.434 -199.494H367.724V-208.942L375 -215.623L367.724 -222.305V-231.753H357.434L352.82 -235.99L357.434 -240.227H367.724V-249.677L375 -256.358L367.724 -263.039V-272.488ZM300.083 -243.684H291.999V-251.108L286.282 -256.358L291.999 -261.607V-269.032H300.083L305.8 -274.281L311.516 -269.032H319.6V-261.607L325.317 -256.358L319.6 -251.108V-243.684H311.516L305.8 -238.434L300.083 -243.684ZM319.601 -210.373V-202.949H311.517L305.801 -197.699L300.084 -202.949H292V-210.373L286.283 -215.623L292 -220.872V-228.296H300.084L305.801 -233.546L311.517 -228.296H319.601V-220.872L325.318 -215.623L319.601 -210.373ZM323.365 -222.304V-231.752H313.076L308.461 -235.989L313.076 -240.227H323.365V-249.676L327.98 -253.913L332.594 -249.676V-240.227H342.884L347.498 -235.989L342.884 -231.752H332.594V-222.304L327.98 -218.067L323.365 -222.304ZM355.876 -228.296H363.96V-220.872L369.677 -215.623L363.96 -210.373V-202.949H355.876L350.159 -197.699L344.443 -202.949H336.359V-210.373L330.642 -215.623L336.359 -220.872V-228.296H344.443L350.159 -233.546L355.876 -228.296ZM369.677 -256.357L363.96 -251.107V-243.683H355.876L350.159 -238.434L344.443 -243.683H336.359V-251.107L330.642 -256.357L336.359 -261.607V-269.031H344.443L350.159 -274.281L355.876 -269.031H363.96V-261.607L369.677 -256.357Z" fill="#7DCDFF" fill-opacity="0.03"/>
<path d="M86.7669 -186.131H76.477L69.2012 -192.812L61.9254 -186.131H51.6355V-176.683L47.0213 -172.445L42.4072 -176.683V-186.131H32.1173L24.8415 -192.812L17.5657 -186.131H7.2758V-176.683L0 -170.001L7.2758 -163.32V-153.871H17.5657L22.1798 -149.634L17.5657 -145.396H7.2758V-135.948L0 -129.267L7.2758 -122.585V-113.137H17.5657L24.8415 -106.456L32.1173 -113.137H42.4072V-122.585L47.0213 -126.823L51.6355 -122.585V-113.137H61.9254L69.2012 -106.456L76.477 -113.137H86.7669V-122.585L94.0427 -129.267L86.7669 -135.948V-145.396H76.477L71.8628 -149.634L76.477 -153.871H86.7669V-163.32L94.0427 -170.001L86.7669 -176.683V-186.131ZM19.1256 -157.327H11.0417V-164.752L5.32501 -170.001L11.0417 -175.251V-182.675H19.1256L24.8423 -187.925L30.559 -182.675H38.643V-175.251L44.3597 -170.001L38.643 -164.752V-157.327H30.559L24.8423 -152.078L19.1256 -157.327ZM38.6438 -124.016V-116.592H30.5599L24.8432 -111.342L19.1265 -116.592H11.0426V-124.016L5.32586 -129.266L11.0426 -134.516V-141.94H19.1265L24.8432 -147.189L30.5599 -141.94H38.6438V-134.516L44.3605 -129.266L38.6438 -124.016ZM42.408 -135.947V-145.396H32.1181L27.504 -149.633L32.1181 -153.87H42.408V-163.319L47.0222 -167.556L51.6363 -163.319V-153.87H61.9262L66.5404 -149.633L61.9262 -145.396H51.6363V-135.947L47.0222 -131.71L42.408 -135.947ZM74.9187 -141.94H83.0027V-134.516L88.7194 -129.266L83.0027 -124.016V-116.592H74.9187L69.202 -111.342L63.4853 -116.592H55.4014V-124.016L49.6847 -129.266L55.4014 -134.516V-141.94H63.4853L69.202 -147.189L74.9187 -141.94ZM88.7194 -170L83.0027 -164.751V-157.327H74.9187L69.202 -152.077L63.4853 -157.327H55.4014V-164.751L49.6847 -170L55.4014 -175.25V-182.674H63.4853L69.202 -187.924L74.9187 -182.674H83.0027V-175.25L88.7194 -170Z" fill="#7DCDFF" fill-opacity="0.03"/>
<path d="M179.639 -186.131H169.349L162.073 -192.812L154.797 -186.131H144.508V-176.683L139.893 -172.445L135.279 -176.683V-186.131H124.989L117.714 -192.812L110.438 -186.131H100.148V-176.683L92.872 -170.001L100.148 -163.32V-153.871H110.438L115.052 -149.634L110.438 -145.396H100.148V-135.948L92.872 -129.267L100.148 -122.585V-113.137H110.438L117.714 -106.456L124.989 -113.137H135.279V-122.585L139.893 -126.823L144.508 -122.585V-113.137H154.797L162.073 -106.456L169.349 -113.137H179.639V-122.585L186.915 -129.267L179.639 -135.948V-145.396H169.349L164.735 -149.634L169.349 -153.871H179.639V-163.32L186.915 -170.001L179.639 -176.683V-186.131ZM111.998 -157.327H103.914V-164.752L98.1971 -170.001L103.914 -175.251V-182.675H111.998L117.714 -187.925L123.431 -182.675H131.515V-175.251L137.232 -170.001L131.515 -164.752V-157.327H123.431L117.714 -152.078L111.998 -157.327ZM131.516 -124.016V-116.592H123.432L117.715 -111.342L111.999 -116.592H103.915V-124.016L98.1979 -129.266L103.915 -134.516V-141.94H111.999L117.715 -147.189L123.432 -141.94H131.516V-134.516L137.233 -129.266L131.516 -124.016ZM135.28 -135.947V-145.396H124.99L120.376 -149.633L124.99 -153.87H135.28V-163.319L139.894 -167.556L144.508 -163.319V-153.87H154.798L159.412 -149.633L154.798 -145.396H144.508V-135.947L139.894 -131.71L135.28 -135.947ZM167.791 -141.94H175.875V-134.516L181.591 -129.266L175.875 -124.016V-116.592H167.791L162.074 -111.342L156.357 -116.592H148.273V-124.016L142.557 -129.266L148.273 -134.516V-141.94H156.357L162.074 -147.189L167.791 -141.94ZM181.591 -170L175.875 -164.751V-157.327H167.791L162.074 -152.077L156.357 -157.327H148.273V-164.751L142.557 -170L148.273 -175.25V-182.674H156.357L162.074 -187.924L167.791 -182.674H175.875V-175.25L181.591 -170Z" fill="#7DCDFF" fill-opacity="0.03"/>
<path d="M273.682 -186.131H263.392L256.116 -192.812L248.84 -186.131H238.55V-176.683L233.936 -172.445L229.322 -176.683V-186.131H219.032L211.756 -192.812L204.48 -186.131H194.19V-176.683L186.915 -170.001L194.19 -163.32V-153.871H204.48L209.095 -149.634L204.48 -145.396H194.19V-135.948L186.915 -129.267L194.19 -122.585V-113.137H204.48L211.756 -106.456L219.032 -113.137H229.322V-122.585L233.936 -126.823L238.55 -122.585V-113.137H248.84L256.116 -106.456L263.392 -113.137H273.682V-122.585L280.957 -129.267L273.682 -135.948V-145.396H263.392L258.777 -149.634L263.392 -153.871H273.682V-163.32L280.957 -170.001L273.682 -176.683V-186.131ZM206.04 -157.327H197.956V-164.752L192.24 -170.001L197.956 -175.251V-182.675H206.04L211.757 -187.925L217.474 -182.675H225.558V-175.251L231.274 -170.001L225.558 -164.752V-157.327H217.474L211.757 -152.078L206.04 -157.327ZM225.559 -124.016V-116.592H217.475L211.758 -111.342L206.041 -116.592H197.957V-124.016L192.241 -129.266L197.957 -134.516V-141.94H206.041L211.758 -147.189L217.475 -141.94H225.559V-134.516L231.275 -129.266L225.559 -124.016ZM229.323 -135.947V-145.396H219.033L214.419 -149.633L219.033 -153.87H229.323V-163.319L233.937 -167.556L238.551 -163.319V-153.87H248.841L253.455 -149.633L248.841 -145.396H238.551V-135.947L233.937 -131.71L229.323 -135.947ZM261.833 -141.94H269.917V-134.516L275.634 -129.266L269.917 -124.016V-116.592H261.833L256.117 -111.342L250.4 -116.592H242.316V-124.016L236.599 -129.266L242.316 -134.516V-141.94H250.4L256.117 -147.189L261.833 -141.94ZM275.634 -170L269.917 -164.751V-157.327H261.833L256.117 -152.077L250.4 -157.327H242.316V-164.751L236.599 -170L242.316 -175.25V-182.674H250.4L256.117 -187.924L261.833 -182.674H269.917V-175.25L275.634 -170Z" fill="#7DCDFF" fill-opacity="0.03"/>
<path d="M367.724 -186.131H357.434L350.159 -192.812L342.883 -186.131H332.593V-176.683L327.979 -172.445L323.365 -176.683V-186.131H313.075L305.799 -192.812L298.523 -186.131H288.233V-176.683L280.957 -170.001L288.233 -163.32V-153.871H298.523L303.137 -149.634L298.523 -145.396H288.233V-135.948L280.957 -129.267L288.233 -122.585V-113.137H298.523L305.799 -106.456L313.075 -113.137H323.365V-122.585L327.979 -126.823L332.593 -122.585V-113.137H342.883L350.159 -106.456L357.434 -113.137H367.724V-122.585L375 -129.267L367.724 -135.948V-145.396H357.434L352.82 -149.634L357.434 -153.871H367.724V-163.32L375 -170.001L367.724 -176.683V-186.131ZM300.083 -157.327H291.999V-164.752L286.282 -170.001L291.999 -175.251V-182.675H300.083L305.8 -187.925L311.516 -182.675H319.6V-175.251L325.317 -170.001L319.6 -164.752V-157.327H311.516L305.8 -152.078L300.083 -157.327ZM319.601 -124.016V-116.592H311.517L305.801 -111.342L300.084 -116.592H292V-124.016L286.283 -129.266L292 -134.516V-141.94H300.084L305.801 -147.189L311.517 -141.94H319.601V-134.516L325.318 -129.266L319.601 -124.016ZM323.365 -135.947V-145.396H313.076L308.461 -149.633L313.076 -153.87H323.365V-163.319L327.98 -167.556L332.594 -163.319V-153.87H342.884L347.498 -149.633L342.884 -145.396H332.594V-135.947L327.98 -131.71L323.365 -135.947ZM355.876 -141.94H363.96V-134.516L369.677 -129.266L363.96 -124.016V-116.592H355.876L350.159 -111.342L344.443 -116.592H336.359V-124.016L330.642 -129.266L336.359 -134.516V-141.94H344.443L350.159 -147.189L355.876 -141.94ZM369.677 -170L363.96 -164.751V-157.327H355.876L350.159 -152.077L344.443 -157.327H336.359V-164.751L330.642 -170L336.359 -175.25V-182.674H344.443L350.159 -187.924L355.876 -182.674H363.96V-175.25L369.677 -170Z" fill="#7DCDFF" fill-opacity="0.03"/>
</svg>
