<svg width="48" height="49" viewBox="0 0 48 49" fill="none" xmlns="http://www.w3.org/2000/svg">
<path d="M0 35.4596C0 33.5004 0.311689 31.8529 0.979593 30.5616C1.24675 30.0718 1.38034 29.8492 1.46939 29.8492C1.51392 29.8492 1.51392 29.8937 1.51392 29.9382C1.51392 30.0718 1.46939 30.339 1.33581 30.6952C0.801485 32.0755 0.534324 33.3223 0.534324 34.48C0.534324 35.5486 0.846013 36.6173 1.46939 37.5523C2.44898 39.0663 4.00743 39.7787 6.14472 39.7787C8.10391 39.7787 10.4638 38.9327 13.3136 37.2407C15.3618 35.9939 17.0538 34.7026 18.4787 33.4113C18.7013 33.1887 18.7904 32.8325 18.7904 32.2091C18.7904 31.1405 18.5677 27.6228 18.167 21.7453C17.7663 15.8232 17.5436 12.4837 17.5436 11.6822C17.5436 10.8362 17.41 10.1237 17.1429 9.63395C17.1429 9.32226 17.41 8.60983 17.8553 7.45213C17.9444 7.31855 17.9889 7.22949 18.0334 7.22949C18.0779 7.22949 18.167 7.31855 18.2115 7.45213C18.3451 7.76382 18.6568 8.60983 19.1911 9.94564C19.7254 11.326 20.0371 12.172 20.1262 12.5282C20.2152 12.7954 20.2152 12.9735 20.2152 13.0625C20.2152 13.4633 19.8145 13.1961 19.1021 12.3501C19.013 12.2165 18.9685 12.261 18.9685 12.5282C18.9685 12.4837 19.1466 14.7545 19.4583 19.3408C19.8145 23.8826 19.9481 26.5987 19.9481 27.4447C19.9481 29.8492 19.77 31.7193 19.4137 33.0106C19.1466 33.9902 18.7013 34.8362 18.1225 35.5486C17.2319 36.5728 15.8516 37.775 13.8924 39.1553C10.9091 41.2926 8.28201 42.3613 6.01114 42.3613C3.69574 42.3613 2.04824 41.4707 0.979593 39.6896C0.356216 38.5319 0 37.1071 0 35.4596Z" fill="#124D73"/>
<path d="M23.5103 34.4799C23.733 35.6822 24.1337 36.4836 24.7126 36.8844C25.0243 37.0625 25.5141 37.1516 26.1374 37.1516V39.7786C25.2024 39.7786 24.4454 39.6005 23.9556 39.1998C23.2432 38.6655 22.7089 37.6413 22.4417 36.1274C22.3081 35.1924 22.13 32.4762 21.9964 27.979C21.8628 23.0365 21.7293 20.0532 21.5957 18.94C21.373 17.1589 21.0614 15.4669 20.5716 13.8194C20.5716 13.3742 20.7497 12.7508 21.1059 11.9048C21.1949 11.6821 21.2395 11.5931 21.284 11.5931C21.3285 11.5931 21.4176 11.6821 21.5066 11.8602C22.041 12.9734 22.4862 14.799 22.7534 17.3816C22.9315 18.9846 23.0651 22.1905 23.1987 26.9994C23.3322 31.5857 23.4213 34.0792 23.5103 34.4799Z" fill="#124D73"/>
<path d="M23.9112 24.6395C26.3157 23.7489 28.8982 22.8139 31.6589 21.8343C31.7925 21.7897 31.8815 21.7452 31.8815 21.7897C31.9261 21.8343 31.9261 21.9233 31.837 22.0124C31.6589 22.4131 31.5698 22.6358 31.4363 22.6803C29.1654 23.4818 26.4938 24.5504 23.4214 25.7972C23.555 25.441 23.7331 25.0847 23.9112 24.6395Z" fill="#124D73"/>
<path d="M29.0315 26.376C28.987 26.3315 28.987 26.2869 29.0315 26.1979L29.8775 24.4613C29.922 24.3723 29.9666 24.3278 30.0556 24.3278C30.1447 24.3278 30.5009 24.5504 31.1688 24.9957C31.8367 25.4409 32.1484 25.7081 32.1484 25.7971C32.1484 26.0643 31.8367 26.6877 31.2579 27.6228C31.1688 27.7563 31.1243 27.7563 31.0352 27.7118C30.4564 27.2665 29.7439 26.7767 29.0315 26.376Z" fill="#124D73"/>
<path d="M34.1073 39.3334C31.8809 39.3334 30.2779 39.0217 29.2538 38.3983C28.0071 39.3334 26.9384 39.7787 25.9588 39.7787V37.1516C26.6267 37.1516 27.2501 37.018 27.7844 36.7508C27.5173 36.261 27.3837 35.5486 27.3837 34.7026C27.3837 33.5004 27.829 32.2536 28.7195 31.0068C29.5655 29.8937 30.2779 29.3148 30.9013 29.3148C31.4356 29.3148 31.8809 29.7156 32.1926 30.5616C32.4152 31.185 32.5488 31.8529 32.5488 32.5653C32.5488 34.2573 32.1481 35.5486 31.4356 36.4837C31.9254 36.6172 32.816 36.7063 34.1073 36.7063V39.3334ZM31.6138 34.3464C31.6138 33.9902 31.4802 33.5004 31.213 32.877C30.9458 32.2091 30.6787 31.8529 30.4561 31.8529C30.1889 31.8529 29.7881 32.1645 29.2093 32.7434C28.675 33.3222 28.2742 33.8566 28.0961 34.3464C28.1852 34.6135 28.3633 34.8807 28.675 35.1924C28.9867 35.5041 29.3429 35.7267 29.6546 35.8603C30.6342 35.3705 31.3021 34.8807 31.6138 34.3464Z" fill="#124D73"/>
<path d="M39.718 16.8918C39.718 17.1144 39.4953 17.5152 39.0055 18.1385C38.4712 18.8955 37.9369 19.4298 37.4471 19.786C37.1354 20.0087 36.1558 20.3204 34.4192 20.8102C34.1076 20.8547 33.9295 20.8992 33.9295 20.8992C33.974 20.8547 34.063 20.7656 34.2857 20.632C34.5083 20.4539 35.1317 20.0977 36.1113 19.6079C37.0909 19.0736 37.6252 18.7619 37.7588 18.6283C37.8033 18.5838 37.8033 18.5393 37.8033 18.5393C37.8033 18.3166 36.9573 18.2276 35.2207 18.2276C35.2207 18.2276 34.909 18.2276 34.2411 18.2721C33.9294 18.3166 33.7513 18.2721 33.7513 18.2276C33.7513 18.1831 33.7959 18.094 33.8849 17.9604L34.5083 16.9363C34.6864 16.6246 34.9981 16.4465 35.4879 16.3575C35.6215 16.3129 36.0222 16.3129 36.6456 16.3129C38.7384 16.2684 39.718 16.491 39.718 16.8918Z" fill="#124D73"/>
<path d="M33.2171 28.4688C33.1726 28.4242 33.1726 28.3797 33.2171 28.2907L34.0632 26.5541C34.1077 26.4651 34.1522 26.4205 34.2413 26.4205C34.3303 26.4205 34.6865 26.6432 35.3544 27.0884C36.0223 27.5337 36.334 27.8009 36.334 27.8899C36.334 28.1571 36.0223 28.7805 35.4435 29.7155C35.3544 29.8491 35.3099 29.8491 35.2209 29.8046C34.5975 29.3593 33.9296 28.8695 33.2171 28.4688Z" fill="#124D73"/>
<path d="M37.0467 34.7471C37.0467 36.261 36.735 37.4187 36.0671 38.2647C35.5328 38.9772 34.8649 39.3779 34.1079 39.3779V36.7508C35.1321 36.7508 35.8 36.5282 36.1117 36.0384C36.1117 35.7712 35.9335 35.3259 35.5773 34.7471C35.3992 34.4799 35.3102 34.2573 35.3102 34.0347C35.3102 33.9011 35.4883 33.2777 35.8 32.1645C35.889 31.9419 35.9335 31.8528 36.0226 31.8528C36.1117 31.8528 36.2452 31.9864 36.3343 32.2981C36.8241 33.1441 37.0467 33.9901 37.0467 34.7471Z" fill="#124D73"/>
<path d="M22.7982 8.8769C25.2027 7.98636 27.7852 7.05129 30.5459 6.0717C30.6795 6.02717 30.7685 5.98264 30.7685 6.02717C30.8131 6.0717 30.8131 6.16075 30.724 6.24981C30.5459 6.65055 30.4568 6.87318 30.3233 6.91771C28.0524 7.7192 25.3808 8.78784 22.3084 10.0346C22.442 9.67838 22.6201 9.32217 22.7982 8.8769Z" fill="#124D73"/>
<path d="M28.6752 10.6134C28.5861 10.9696 28.4971 11.1923 28.3635 11.3258C27.8737 11.6375 26.8496 12.35 25.2466 13.4186C25.1575 13.4631 25.113 13.5522 24.9794 13.5967C24.9794 13.5522 24.9349 13.5522 24.9349 13.5077L25.024 12.9288C25.024 12.7952 25.2911 12.5281 25.8254 12.1273C25.1575 11.9047 24.8459 11.6375 24.8459 11.2813C24.8459 10.8806 25.024 10.5244 25.3357 10.0791C26.0036 9.32213 26.5379 8.92139 26.9386 8.92139C27.3394 8.92139 27.5175 9.14402 27.5175 9.54476C27.5175 9.81192 27.4284 10.0791 27.2058 10.4353C27.1613 10.5244 27.1167 10.4798 27.0722 10.3908C26.9386 10.1236 26.805 9.99003 26.5824 9.99003C26.4488 9.99003 26.2707 10.0791 26.0481 10.2127C25.8254 10.3462 25.7364 10.4798 25.7364 10.6134C25.7364 10.747 25.87 10.8806 26.1371 11.0142C26.4043 11.1477 26.6269 11.2368 26.7605 11.2368C26.8941 11.2368 27.1613 11.1477 27.5175 10.9251C27.7846 10.747 28.0073 10.6134 28.2744 10.4353C28.4971 10.3462 28.6306 10.3017 28.6752 10.3017C28.6752 10.3463 28.6752 10.4353 28.6752 10.6134Z" fill="#124D73"/>
<path d="M42.6571 8.47619C42.6571 8.69883 42.4345 9.09957 41.9447 9.72295C41.4104 10.4799 40.8761 11.0142 40.3863 11.3704C40.0746 11.5931 39.095 11.9048 37.3584 12.3946C37.0467 12.4391 36.8686 12.4836 36.8686 12.4836C36.9132 12.4391 37.0022 12.35 37.2248 12.2165C37.4475 12.0383 38.0709 11.6821 39.0505 11.1923C40.03 10.658 40.5644 10.3463 40.6979 10.2127C40.7425 10.1682 40.7425 10.1237 40.7425 10.1237C40.7425 9.90105 39.8965 9.812 38.1599 9.812C38.1599 9.812 37.8482 9.812 37.1803 9.85653C36.8686 9.90106 36.6905 9.85653 36.6905 9.812C36.6905 9.76747 36.735 9.67842 36.8241 9.54484L37.4475 8.52072C37.6256 8.20903 37.9373 8.03092 38.4271 7.94187C38.5607 7.89734 38.9614 7.89734 39.5848 7.89734C41.633 7.80829 42.6571 8.03092 42.6571 8.47619Z" fill="#124D73"/>
<path d="M42.0779 33.8565C41.8998 35.4149 41.7662 36.2164 41.6771 36.2164C41.5881 36.2164 41.4545 35.5485 41.2764 34.2572C40.9647 32.1199 39.3617 29.6709 36.512 26.9548C35.3098 25.7971 34.063 24.5949 32.8608 23.4372C31.525 22.1459 30.5009 21.0772 29.7884 20.2312C29.2986 19.6078 28.8088 18.8954 28.2745 18.0494C27.9628 17.5596 27.6511 17.0253 27.3395 16.4909C27.1168 16.1793 26.8497 15.9121 26.627 15.7785C26.4934 15.6895 26.4489 15.5559 26.4489 15.3778V13.6412C26.4489 13.285 26.4934 13.1514 26.627 13.1514C26.7161 13.1514 26.8497 13.2405 27.0723 13.3741L30.4118 15.9121C30.679 16.0902 30.8126 16.2238 30.8126 16.3574C30.8126 16.4464 30.679 16.4909 30.5009 16.4909C30.2337 16.4909 29.7884 16.4019 29.1205 16.2683C29.5213 17.0698 30.768 18.4947 32.8163 20.5874C34.3747 22.1459 35.9332 23.6598 37.4916 25.2182C40.6085 28.3351 42.1224 31.0067 42.1224 33.2776C42.1224 33.4557 42.1224 33.6338 42.0779 33.8565Z" fill="#124D73"/>
<path d="M41.5883 15.3778C41.5883 15.0216 41.4992 14.6209 41.3656 14.1311C41.1875 13.6413 41.0985 13.4186 41.0985 13.3296C41.0985 13.2405 41.1875 12.8843 41.3656 12.3055C41.5437 11.7266 41.6328 11.3704 41.6773 11.3259C41.7664 11.1478 41.8109 11.1032 41.8554 11.0587C41.9 11.0587 41.989 11.1478 42.0335 11.2814C42.2562 11.6376 42.6124 12.3945 43.1467 13.5522C43.7701 14.8435 44.1263 15.6895 44.2599 16.0903C44.3489 16.3574 44.3489 16.5355 44.3489 16.6691C44.3489 16.7582 44.3044 16.8027 44.2599 16.8027C44.1263 16.8027 43.7701 16.491 43.2358 15.9122C43.1467 15.8231 43.1467 15.8676 43.1467 16.0903C43.1467 16.8027 43.3693 19.1181 43.8591 23.0365C44.3489 26.9548 44.5716 29.6265 44.5716 31.0068C44.5716 33.8565 43.9037 36.261 42.5679 38.1311C41.4992 39.556 40.3415 40.6246 39.0057 41.248C38.4714 41.4706 37.5808 41.7378 36.2896 42.094C34.9983 42.4057 34.0632 42.6283 33.4398 42.6728C33.1727 42.7174 33.0836 42.6728 33.0836 42.6283C33.0836 42.5393 33.2172 42.4502 33.4398 42.3166C34.5975 41.6487 36.5122 40.5356 39.1393 38.8881C39.9853 38.3537 40.7868 37.6413 41.6328 36.7062C42.7905 35.504 43.3693 34.4799 43.3693 33.6339C43.3693 31.8973 43.0577 28.6023 42.4788 23.6598C41.9 18.8064 41.5883 16.0012 41.5883 15.3778Z" fill="#124D73"/>
<path d="M45.3284 16.7582C45.3284 15.9122 45.1948 15.2443 44.9276 14.7099C44.9276 14.3982 45.1503 13.6858 45.6401 12.5281C45.7291 12.3945 45.7737 12.3055 45.8182 12.3055C45.8627 12.3055 45.9072 12.3945 45.9963 12.5281C46.1299 12.8398 46.4861 13.6413 46.9759 14.9771C47.5102 16.3574 47.8219 17.248 47.9109 17.5597C48 17.8268 48 18.0049 48 18.1385C48 18.5393 47.6438 18.2721 46.8868 17.4261C46.7978 17.2925 46.7533 17.337 46.7533 17.5597C46.7533 17.6487 46.9314 20.3203 47.3321 25.619C47.7328 30.9177 47.9109 33.901 47.9109 34.5244C47.9109 36.5727 47.5993 38.3537 47.0204 39.9122C46.8868 40.2239 46.7532 40.4465 46.7087 40.5801C46.5751 40.8027 46.4861 40.8473 46.4861 40.7137C46.4416 40.5356 46.4416 40.2239 46.5306 39.7341C46.6197 39.0216 46.6642 38.2202 46.6642 37.2851C46.6642 36.4391 46.4416 33.0105 45.9963 26.9548C45.551 20.8992 45.3284 17.4706 45.3284 16.7582Z" fill="#124D73"/>
</svg>
