<svg width="49" height="30" viewBox="0 0 49 30" fill="none" xmlns="http://www.w3.org/2000/svg">
<path d="M16.1737 28.5066C17.9814 27.8528 19.9429 27.122 22.0199 26.3912C22.1352 26.3528 22.1737 26.3528 22.2122 26.3528C22.2506 26.3912 22.2122 26.4297 22.2122 26.5451C22.0968 26.8143 21.9814 27.0066 21.9429 27.0451C20.2121 27.6605 18.2121 28.4682 15.866 29.4297C15.9044 29.122 16.0198 28.8143 16.1737 28.5066Z" fill="#124D73"/>
<path d="M15.4812 23.1604C14.8274 23.1604 14.2504 22.8912 13.7504 22.2758C13.2504 21.6604 12.9812 20.9296 12.9812 20.045C12.9812 18.8142 13.4812 17.2373 14.4812 15.2758C14.5966 15.0835 14.6735 14.9681 14.712 14.9681C14.7504 14.9681 14.7504 15.0065 14.7504 15.045C14.7504 15.2373 14.5197 15.9296 14.0966 17.0835C13.6735 18.2373 13.4427 19.1604 13.4427 19.8527C13.4427 20.3527 13.5581 20.7758 13.8274 21.0835C14.0966 21.4297 14.4427 21.5835 14.9043 21.5835C15.6351 21.5835 16.4428 21.1604 17.4043 20.2758C17.5197 20.1989 18.3658 19.2758 19.9428 17.545C22.2505 15.045 24.3659 13.7758 26.1736 13.7758C26.7121 13.7758 27.1736 13.9296 27.5198 14.2373C27.9044 14.545 28.0967 14.9296 28.0967 15.3527C28.0967 15.8912 27.9813 16.3527 27.8274 16.7373C27.789 16.8527 27.7121 16.9296 27.7121 16.9296C27.6736 16.9296 27.5967 16.8527 27.5198 16.7373C27.1351 16.045 26.5582 15.6988 25.789 15.6988C24.4043 15.6988 22.789 16.6219 20.9812 18.4681C19.9812 19.5835 18.9428 20.6604 17.9428 21.7758C17.0582 22.6989 16.2505 23.1604 15.4812 23.1604Z" fill="#124D73"/>
<path d="M26.0965 19.0065C26.2503 19.9296 26.558 20.545 27.0196 20.8142C27.2503 20.9296 27.5965 21.0065 28.0965 21.0065V23.0065C27.3657 23.0065 26.8273 22.8527 26.4427 22.5835C25.9042 22.1604 25.5196 21.3911 25.2888 20.2758C25.1734 19.5834 25.058 17.5065 24.9426 14.1219C24.8273 10.3911 24.7503 8.12183 24.6734 7.27567C24.5196 5.92951 24.2503 4.62181 23.9042 3.42949C23.9042 3.1218 24.0196 2.62179 24.2888 2.0064C24.3273 1.85256 24.4042 1.77563 24.4426 1.77563C24.4811 1.77563 24.558 1.85256 24.5965 1.96794C25.0196 2.8141 25.3273 4.19873 25.558 6.16028C25.6734 7.39106 25.8273 9.81415 25.9042 13.4296C25.9426 16.8142 26.0196 18.6988 26.0965 19.0065Z" fill="#124D73"/>
<path d="M33.4431 3.92949C35.2508 3.27564 37.2123 2.54487 39.2893 1.8141C39.4046 1.77563 39.4431 1.77563 39.4816 1.77563C39.52 1.8141 39.4816 1.85256 39.4816 1.96794C39.3662 2.23718 39.2508 2.42949 39.2123 2.46795C37.4816 3.08334 35.4815 3.89103 33.1354 4.85258C33.1738 4.54488 33.2892 4.23719 33.4431 3.92949Z" fill="#124D73"/>
<path d="M38.6354 10.3911C38.6354 10.6219 38.5969 10.8911 38.4815 11.1604C38.3277 11.5065 38.1354 11.6988 37.9046 11.6988C37.52 11.6988 37.2507 11.4296 37.1354 10.9296C36.943 11.5835 36.6354 11.9296 36.1738 11.9296C35.9815 11.9296 35.8277 11.8527 35.7123 11.6604C35.5584 11.4296 35.4815 11.1604 35.4815 10.8142V10.0065C35.4815 9.9296 35.443 9.89114 35.3277 9.85268C35.2123 9.81421 35.1738 9.77575 35.1738 9.66037C35.1738 9.50652 35.2507 9.31421 35.4046 9.1219C35.52 8.96805 35.6353 8.89113 35.7123 8.89113C35.8277 8.89113 35.8661 9.04498 35.8661 9.39114C35.8661 9.58344 35.8661 9.73729 35.8277 9.89114C35.7892 10.0065 35.7892 10.1219 35.7892 10.1988C35.7892 10.3911 35.8277 10.5835 35.9046 10.7373C35.9815 10.9296 36.0969 11.045 36.2507 11.045C36.443 11.045 36.5969 10.9681 36.7507 10.8142C36.9046 10.6604 36.9815 10.4681 36.9815 10.2758C36.9815 10.1604 36.943 9.9296 36.8661 9.62191C36.7892 9.31421 36.7507 9.1219 36.7507 9.04498C36.7507 8.96806 36.7892 8.85267 36.8661 8.73728C36.943 8.58344 36.9815 8.50651 37.02 8.50651C37.0969 8.50651 37.1738 8.69882 37.2507 9.1219C37.3277 9.50652 37.3661 9.81421 37.3661 10.0065C37.3661 10.5835 37.5969 10.8527 38.02 10.8527C38.2123 10.8527 38.3277 10.7758 38.3661 10.5835C37.9815 9.9296 37.8277 9.46806 37.8277 9.08344C37.8277 8.89113 37.8661 8.69882 37.9815 8.54497C38.0584 8.42959 38.0969 8.39113 38.0969 8.39113C38.1354 8.39113 38.1354 8.46805 38.1738 8.58344C38.1738 8.77575 38.2123 8.89113 38.2507 9.04498C38.2507 9.04498 38.3661 9.27575 38.52 9.73729C38.5969 10.0065 38.6354 10.2373 38.6354 10.3911ZM38.9815 18.7758C39.1738 18.6604 39.2123 18.5835 39.1354 18.4297C38.4815 17.0835 37.6738 16.3912 36.7123 16.3912C34.7123 16.3912 32.2892 17.9681 29.443 21.122C32.9046 21.122 36.0969 20.3143 38.9815 18.7758ZM28.7507 21.0451C29.3276 20.3912 29.7892 19.7758 30.2122 19.2374C30.3661 19.0835 30.443 18.7758 30.443 18.3912C30.443 18.3912 30.443 17.6989 30.443 16.2373C30.443 16.0066 30.3276 14.1219 30.0584 10.6219C29.7892 7.19881 29.6738 5.27572 29.6738 4.8911C29.7122 4.27572 29.5968 3.77571 29.3661 3.31417C29.3661 3.0834 29.5584 2.54494 29.9045 1.66032C29.943 1.54493 29.9815 1.50647 30.0199 1.50647C30.0584 1.50647 30.0969 1.54493 30.1738 1.66032C30.2892 1.89109 30.5199 2.50647 30.9045 3.50648C31.2892 4.54495 31.5584 5.1988 31.5969 5.46803C31.6353 5.66034 31.6738 5.77573 31.6738 5.85265C31.6738 6.16034 31.4046 5.96804 30.8276 5.31419C30.7892 5.23726 30.7507 5.27572 30.7122 5.42957C30.7122 5.46803 30.8276 6.85266 31.0584 9.54498C31.2892 12.2758 31.4046 13.8527 31.4046 14.1989C31.4046 14.9681 31.2507 16.3143 30.9815 18.3143C33.6353 15.6989 35.7892 14.3527 37.4431 14.3527C38.2507 14.3527 38.9431 14.7758 39.5585 15.6219C40.0585 16.3143 40.2892 16.8912 40.2892 17.3527C40.2892 17.8527 40.0585 18.3912 39.6354 19.0066C39.1354 19.6989 38.4431 20.3143 37.5969 20.8143C39.2123 20.5451 40.4431 20.2758 41.2892 19.9297V21.6989C40.8277 21.8912 39.9431 22.0835 38.6354 22.3143C35.1738 22.8143 32.7507 23.0451 31.2892 22.9681C29.8661 22.9297 28.7507 22.8912 27.943 22.8912V20.8912C28.1738 21.0451 28.443 21.0451 28.7507 21.0451Z" fill="#124D73"/>
<path d="M42.3659 3.92955C42.3659 3.2757 42.2505 2.7757 42.0582 2.35262C42.0582 2.12184 42.2505 1.54492 42.5967 0.698761C42.6351 0.621837 42.6736 0.583374 42.712 0.583374C42.7505 0.583374 42.789 0.621836 42.8659 0.737222C42.9813 0.967992 43.212 1.58338 43.5967 2.58339C43.9813 3.62185 44.2505 4.27571 44.289 4.54494C44.3274 4.73725 44.3659 4.85263 44.3659 4.92956C44.3659 5.23725 44.0967 5.04494 43.5197 4.42955C43.4428 4.31417 43.4044 4.35263 43.4044 4.54494C43.4044 4.5834 43.5197 6.31418 43.789 9.77574C44.0582 13.1988 44.1736 15.2373 44.1736 15.8912C44.1736 16.9681 43.9813 18.0066 43.5967 19.0066C43.0967 20.4297 42.289 21.3527 41.212 21.7758V20.0066C42.5197 19.4681 43.1736 18.622 43.1736 17.4681C43.1736 16.9296 43.0197 14.6988 42.7505 10.7757C42.4813 6.92957 42.3659 4.62186 42.3659 3.92955Z" fill="#124D73"/>
<path d="M46.0968 5.16026C46.0968 4.50641 45.9814 4.00641 45.7891 3.62179C45.7891 3.39102 45.9814 2.85256 46.3275 1.96793C46.366 1.85255 46.4429 1.81409 46.4429 1.81409C46.4814 1.81409 46.5198 1.85255 46.5583 1.96793C46.6737 2.19871 46.9045 2.8141 47.2891 3.8141C47.6737 4.85257 47.9429 5.50642 47.9814 5.77565C48.0198 5.96796 48.0583 6.12181 48.0583 6.19873C48.0583 6.46796 47.7891 6.31412 47.2121 5.66027C47.1352 5.54488 47.0968 5.6218 47.0968 5.77565C47.0968 5.81411 47.2506 7.85259 47.5198 11.8526C47.7891 15.8526 47.9429 18.0834 47.9429 18.5834C47.9429 20.1219 47.7122 21.4681 47.2506 22.6604C47.1352 22.8911 47.0583 23.045 47.0198 23.1604C46.9045 23.3142 46.866 23.3527 46.866 23.2373C46.8275 23.1219 46.866 22.8527 46.866 22.4681C46.9429 21.9296 46.9814 21.3142 46.9814 20.6219C46.9814 19.9681 46.8275 17.3911 46.4814 12.8142C46.2506 8.31413 46.0968 5.73719 46.0968 5.16026Z" fill="#124D73"/>
<path d="M8.89099 9.90437L9.26313 9.12627C9.29696 9.05861 9.33079 9.02478 9.36462 9.02478C9.43228 9.02478 9.63526 9.1601 10.0074 9.43075C10.3795 9.70139 10.5825 9.83671 10.5825 9.87054C10.5825 10.0397 10.4134 10.378 10.0751 10.9193C10.0412 10.9869 10.0074 10.9869 9.93973 10.9531C9.60143 10.7163 9.22929 10.4457 8.82333 10.2088C8.68801 10.5133 8.55269 10.784 8.41737 10.9869C8.38354 11.0546 8.34971 11.0884 8.28205 11.0546C7.90991 10.7501 7.53778 10.4795 7.13182 10.2427C7.09799 10.2427 7.09799 10.2088 7.13182 10.1412L7.63927 9.19393C7.6731 9.12627 7.70693 9.09244 7.74076 9.09244C7.77459 9.09244 7.94375 9.19393 8.28205 9.39691C8.58652 9.63372 8.7895 9.80288 8.89099 9.90437Z" fill="#124D73"/>
<path d="M10.6841 14.945C10.312 14.4037 9.93984 14.1331 9.46622 14.1331C9.12791 14.1331 8.99259 14.2346 8.99259 14.4714C8.99259 14.7082 9.19557 14.8435 9.60154 14.9112C9.83835 14.9112 10.1767 14.9112 10.6841 14.945ZM0.129061 17.3469C0.230552 16.7718 0.365873 16.2982 0.501194 15.8922C0.568854 15.7569 0.602685 15.6893 0.670345 15.6893C0.704175 15.6893 0.738005 15.7569 0.704175 15.9261C0.467363 17.1778 0.365873 17.8882 0.365873 18.0235C0.365873 18.7678 0.636515 19.4782 1.14397 20.0872C1.82057 20.9329 2.80165 21.3389 4.12103 21.3389C5.16977 21.3389 6.35383 21.0344 7.63938 20.3917C8.62046 19.918 9.60154 19.3091 10.5488 18.5648C11.3269 17.9559 11.7667 17.5161 11.8682 17.2793C11.8682 16.9748 11.699 16.7042 11.3607 16.535C11.0562 16.3659 10.7179 16.2644 10.2781 16.2644H9.29706C8.92493 16.2644 8.65429 16.1629 8.41748 15.8922C8.2145 15.6554 8.07917 15.351 8.07917 14.9788C8.07917 14.4714 8.24833 13.9639 8.62046 13.4226C8.95876 12.9152 9.33089 12.6445 9.70303 12.6445C10.312 12.6445 10.8871 12.9828 11.4284 13.6933C12.0035 14.4375 12.2741 15.351 12.2741 16.3659C12.2741 17.3808 12.0035 18.1589 11.496 18.7678C10.8194 19.5797 9.87218 20.3917 8.65429 21.1698C6.9966 22.2523 5.47424 22.7936 4.12103 22.7936C2.6325 22.7936 1.54993 22.2862 0.873326 21.2712C0.332042 20.527 0.0952303 19.5459 0.0952303 18.328C0.0275698 18.0235 0.0614002 17.6852 0.129061 17.3469Z" fill="#124D73"/>
</svg>
