<svg width="48" height="49" viewBox="0 0 48 49" fill="none" xmlns="http://www.w3.org/2000/svg">
<path d="M3.33275 39.5318C2.4671 39.5318 1.68802 39.1422 1.03878 38.3632C0.34626 37.5408 0 36.5453 0 35.42C0 33.8185 0.649238 31.6977 1.99099 29.1007C2.12084 28.841 2.25069 28.7112 2.29397 28.7112C2.33725 28.7545 2.33725 28.7545 2.33725 28.7977C2.33725 29.0574 2.03428 29.9664 1.4716 31.5245C0.908932 33.0827 0.605955 34.2946 0.605955 35.2035C0.605955 35.8961 0.779084 36.4155 1.08206 36.8483C1.42832 37.2811 1.90443 37.5408 2.51038 37.5408C3.4626 37.5408 4.58794 36.9781 5.84313 35.8095C5.97298 35.6797 7.09832 34.4677 9.17588 32.1738C12.2489 28.841 15.019 27.1963 17.4428 27.1963C18.1353 27.1963 18.7413 27.4127 19.2607 27.8022C19.7801 28.2351 19.9965 28.7112 19.9965 29.2738C19.9965 29.9664 19.8666 30.5723 19.6069 31.135C19.5204 31.3081 19.4771 31.3947 19.4338 31.3947C19.3905 31.3947 19.304 31.3081 19.2174 31.135C18.7413 30.2261 17.9622 29.7932 16.9234 29.7932C15.0623 29.7932 12.9415 31.0051 10.5609 33.429C9.21916 34.9006 7.87741 36.3722 6.53565 37.8005C5.45359 38.9691 4.32825 39.5318 3.33275 39.5318Z" fill="#124D73"/>
<path d="M23.5892 14.8174C23.5892 15.0339 23.3728 15.4234 22.8967 16.0726C22.3341 16.8084 21.8579 17.3711 21.3386 17.7174C21.0356 17.9338 20.0401 18.28 18.3088 18.7561C18.0058 18.7994 17.8327 18.8427 17.8327 18.8427C17.876 18.7994 17.9625 18.7129 18.1789 18.583C18.3953 18.4099 19.0013 18.0636 20.0401 17.5442C20.9923 17.0249 21.555 16.6786 21.7281 16.5487C21.7281 16.5055 21.7281 16.4622 21.7281 16.4189C21.7281 16.2025 20.8624 16.1159 19.1744 16.1159C19.1744 16.1159 18.8715 16.1159 18.2222 16.1592C17.876 16.2025 17.7028 16.1592 17.7028 16.1159C17.7028 16.0726 17.7461 15.9861 17.8327 15.8562L18.4386 14.8174C18.6118 14.5145 18.958 14.3413 19.4341 14.2548C19.6073 14.2115 19.9968 14.2115 20.6028 14.2115C22.5937 14.1682 23.5892 14.3846 23.5892 14.8174Z" fill="#124D73"/>
<path d="M14.8028 39.1856C16.7505 39.1856 18.8713 38.4065 21.122 36.8483C22.8966 35.6364 24.2816 34.3812 25.2338 33.0827C25.5368 32.6499 25.6666 32.4768 25.6666 32.4335C25.7532 32.2604 25.8398 32.0007 25.8398 31.6111C25.8398 30.7888 25.6234 29.4903 25.1473 27.7157C24.801 26.3307 23.9786 24.2531 22.6802 21.4398C22.6369 21.3532 22.6802 21.0069 22.7667 20.401C22.8533 19.795 22.9399 19.3622 23.0264 19.1025C23.113 18.7995 23.1996 18.7563 23.3727 18.9294C24.9309 20.9637 26.0562 23.7337 26.792 27.3262C27.095 28.9276 27.5278 31.135 28.0039 33.9917C28.2203 35.2036 28.6099 36.026 29.2158 36.4155C29.5188 36.5886 29.9949 36.7185 30.6441 36.7185V39.3154C29.7352 39.3154 28.9994 39.1423 28.48 38.7527C27.7442 38.1901 27.2248 37.1946 26.9651 35.6797C26.8786 35.1603 26.6621 34.1215 26.4457 32.5634C26.2293 33.8185 25.7965 34.814 25.1473 35.6364C23.8488 37.2379 22.2906 38.6229 20.4728 39.7482C18.3519 41.09 16.4475 41.7392 14.7162 41.7392C13.764 41.7392 13.1147 41.3497 12.6386 40.5706C12.2491 39.9647 12.0327 39.1856 12.0327 38.2334C12.0327 36.4155 12.4222 34.5544 13.2013 32.6499C13.3744 32.2171 13.5043 32.044 13.5908 32.044C13.6341 32.044 13.6341 32.0873 13.6341 32.1738C13.6341 32.3037 13.5908 32.4768 13.5043 32.7798C12.9416 34.6409 12.6819 36.0692 12.6819 37.0647C12.6819 38.4931 13.3744 39.1856 14.8028 39.1856Z" fill="#124D73"/>
<path d="M30.8604 20.7039C33.2842 19.8383 35.8379 18.8861 38.5647 17.8906C38.6945 17.8473 38.7811 17.804 38.7811 17.8473C38.8244 17.8906 38.8244 17.9771 38.7378 18.0637C38.5647 18.4532 38.4348 18.6696 38.3483 18.7562C36.0543 19.5786 33.3708 20.6174 30.341 21.8725C30.5141 21.5263 30.6873 21.1367 30.8604 20.7039Z" fill="#124D73"/>
<path d="M35.2322 25.2919L35.8815 23.9501C35.9247 23.8635 36.0113 23.777 36.0546 23.777C36.1411 23.777 36.5307 23.9934 37.1799 24.4695C37.8724 24.9456 38.1754 25.2053 38.1754 25.2486C38.1754 25.5516 37.8724 26.1575 37.3098 27.1097C37.2232 27.1963 37.1799 27.2396 37.0934 27.1963C36.5307 26.7635 35.8815 26.3306 35.1457 25.8545C34.9292 26.4172 34.6695 26.8933 34.4099 27.2396C34.3666 27.3694 34.28 27.4127 34.1934 27.3261C33.5442 26.8067 32.8517 26.3306 32.1592 25.8978C32.1159 25.8545 32.1159 25.8113 32.1592 25.7247L33.0248 24.0367C33.0681 23.9501 33.1114 23.8635 33.1979 23.8635C33.2845 23.8635 33.5875 24.0367 34.1502 24.4262C34.7128 24.859 35.0591 25.1187 35.2322 25.2919Z" fill="#124D73"/>
<path d="M38.6945 38.8392C36.4871 38.8392 34.8423 38.5363 33.8468 37.9303C32.6349 38.8392 31.5096 39.3153 30.5574 39.3153V36.6751C31.2066 36.6751 31.8558 36.5453 32.4185 36.2856C32.1588 35.8095 32.029 35.117 32.029 34.2513C32.029 33.0394 32.4618 31.7842 33.3707 30.5723C34.1931 29.4469 34.9289 28.8843 35.5349 28.8843C36.0975 28.8843 36.5304 29.3171 36.8333 30.0962C37.0497 30.7021 37.1796 31.3947 37.1796 32.0872C37.1796 33.7752 36.79 35.0737 36.0542 35.9826C36.5304 36.1557 37.396 36.199 38.6945 36.199V38.8392ZM36.1841 33.8618C36.1841 33.5155 36.0542 32.9961 35.7946 32.3902C35.4916 31.6976 35.2752 31.3514 35.0588 31.3514C34.7991 31.3514 34.3662 31.6544 33.8036 32.2603C33.2409 32.8663 32.8946 33.3857 32.6782 33.8618C32.7648 34.1215 32.9379 34.4244 33.2842 34.7274C33.5871 35.0304 33.9334 35.2468 34.2797 35.3766C35.2319 34.9005 35.8811 34.3811 36.1841 33.8618Z" fill="#124D73"/>
<path d="M42.0707 7.89227C42.0707 8.10868 41.8542 8.49823 41.3781 9.14746C40.8155 9.88327 40.3394 10.4459 39.82 10.7922C39.517 11.0086 38.5215 11.3549 36.7902 11.831C36.4872 11.8743 36.3141 11.9175 36.3141 11.9175C36.3574 11.8743 36.4439 11.7877 36.6604 11.6578C36.8768 11.4847 37.4827 11.1385 38.5215 10.6191C39.4737 10.0997 40.0364 9.75342 40.2095 9.62357C40.2528 9.58029 40.2528 9.53701 40.2528 9.53701C40.2528 9.32059 39.3871 9.23403 37.6991 9.23403C37.6991 9.23403 37.3962 9.23403 36.7469 9.27731C36.4007 9.3206 36.2275 9.27731 36.2275 9.23403C36.2275 9.19075 36.2708 9.10418 36.3574 8.97433L36.9633 7.93556C37.1365 7.63258 37.4827 7.45945 37.9588 7.37288C38.132 7.3296 38.5215 7.3296 39.1275 7.3296C41.0752 7.24304 42.0707 7.45945 42.0707 7.89227Z" fill="#124D73"/>
<path d="M42.8066 31.0917C42.8066 33.6021 42.3305 35.5931 41.4216 37.0647C40.6425 38.2766 39.7336 38.9258 38.6948 38.9258V36.2856C39.5171 36.2856 40.3395 35.9826 41.1186 35.3334C41.335 35.1602 41.4649 34.4677 41.4649 33.2558C41.4649 32.52 41.2917 29.5768 40.9022 24.4262C40.5559 19.2756 40.3395 16.2458 40.3395 15.3369C40.3395 14.5145 40.2097 13.822 39.95 13.2593C39.95 12.9563 40.1664 12.2205 40.6858 11.0519C40.7723 10.9221 40.8156 10.8788 40.8589 10.8788C40.9022 10.8788 40.9888 10.9653 41.032 11.0952C41.1619 11.3982 41.5081 12.2205 41.9842 13.5623C42.5036 14.9473 42.8499 15.813 42.9365 16.1592C43.023 16.4189 43.023 16.5921 43.023 16.6786C43.023 17.0682 42.6768 16.8518 41.8977 16.0294C41.8111 15.8995 41.7678 15.9428 41.7678 16.1592C41.7678 16.2025 41.941 18.4965 42.2439 23.0412C42.6335 27.4992 42.8066 30.1828 42.8066 31.0917Z" fill="#124D73"/>
<path d="M45.3164 15.3802C45.3164 14.5578 45.1865 13.8653 44.9268 13.3027C44.9268 12.9997 45.1432 12.2639 45.6626 11.1385C45.7492 11.0087 45.7925 10.9221 45.8358 10.9221C45.879 10.9221 45.9223 11.0087 46.0089 11.1385C46.182 11.4415 46.485 12.2639 46.9611 13.6056C47.4805 14.9907 47.8267 15.8563 47.9133 16.2026C47.9999 16.4623 47.9999 16.6354 47.9999 16.7653C47.9999 17.1548 47.6536 16.8951 46.8745 16.0727C46.788 15.9429 46.7447 15.9862 46.7447 16.2459C46.7447 16.3324 46.9178 19.0159 47.3074 24.2964C47.6969 29.5769 47.87 32.5633 47.87 33.2126C47.87 35.2469 47.5671 37.0647 46.9611 38.5796C46.8313 38.8826 46.7014 39.099 46.6581 39.2288C46.5283 39.4453 46.4417 39.4885 46.4417 39.3587C46.3984 39.1856 46.3984 38.8826 46.485 38.3632C46.5716 37.6707 46.6148 36.8483 46.6148 35.8961C46.6148 35.0737 46.3984 31.6111 45.9656 25.5516C45.5328 19.492 45.3164 16.116 45.3164 15.3802Z" fill="#124D73"/>
</svg>
