<svg width="49" height="49" viewBox="0 0 49 49" fill="none" xmlns="http://www.w3.org/2000/svg">
<path d="M17.9627 22.2847C17.9216 22.2437 17.9216 22.2027 17.9627 22.1616L18.7011 20.6847C18.7421 20.6027 18.7832 20.5616 18.8242 20.5616C18.9062 20.5616 19.2344 20.7668 19.7678 21.136C20.3421 21.5052 20.6293 21.7514 20.6293 21.8334C20.6293 22.0796 20.3832 22.6129 19.8498 23.3924C19.8088 23.4745 19.7267 23.5155 19.6857 23.4744C19.1524 23.0642 18.537 22.6539 17.9627 22.2847Z" fill="#124D73"/>
<path d="M20.5063 29.6693C20.5063 29.3821 20.3422 28.9308 20.014 28.3975C19.6448 27.7821 19.3166 27.4949 19.0704 27.4949C18.8243 27.4949 18.5781 27.618 18.373 27.9052C18.1679 28.1923 18.0448 28.4795 18.0448 28.8488C18.0448 29.0539 18.1269 29.4231 18.291 29.9154C18.4551 30.4077 18.6192 30.7769 18.8243 31.0231C19.1115 30.9 19.4807 30.6539 19.8499 30.3667C20.2602 30.0385 20.5063 29.7923 20.5063 29.6693ZM19.6858 32.2949C20.4653 33.3205 21.614 33.8539 23.214 33.8539V36.1103C22.1884 36.1103 21.3268 35.9461 20.6294 35.5769C19.7679 35.0846 19.0294 34.2641 18.414 33.0744C17.3474 33.7718 15.8705 34.4692 13.9423 35.2487C10.9064 36.4385 8.15768 37.0128 5.73718 37.0128C2.00387 37.0128 0.116699 35.1667 0.116699 31.3923C0.116699 29.9564 0.321827 28.7257 0.773107 27.7821C0.978234 27.3718 1.10131 27.1667 1.14233 27.1667C1.18336 27.1667 1.18336 27.2077 1.18336 27.2898C1.18336 27.4129 1.14234 27.618 1.10131 27.8641C0.814132 29.0949 0.650031 29.8744 0.650031 30.2846C0.650031 31.8846 1.30644 33.0744 2.57822 33.8539C3.56283 34.4692 4.75257 34.7564 6.10641 34.7564C8.52691 34.7564 11.1115 34.2641 13.8602 33.2795C15.4602 32.6641 16.773 32.0898 17.7987 31.4744C17.4294 30.4898 17.2243 29.7103 17.2243 29.177C17.2243 28.1103 17.4704 27.1667 17.9217 26.3872C18.332 25.6488 18.7833 25.2795 19.2756 25.2795C19.7679 25.2795 20.2191 25.6898 20.6704 26.4693C21.0807 27.2077 21.2858 27.9462 21.2858 28.6436C21.3268 30.3667 20.7935 31.5975 19.6858 32.2949Z" fill="#124D73"/>
<path d="M28.8757 18.3462C30.927 17.6077 33.1423 16.7872 35.4808 15.9257C35.6039 15.8846 35.6859 15.8846 35.6859 15.8846C35.7269 15.9257 35.6859 15.9667 35.6859 16.0898C35.5628 16.418 35.4398 16.6231 35.3577 16.6641C33.3885 17.3616 31.0911 18.2641 28.5065 19.3308C28.5475 19.0846 28.6706 18.7154 28.8757 18.3462Z" fill="#124D73"/>
<path d="M34.045 23.3923C34.045 23.6795 34.004 23.9667 33.8809 24.2949C33.7168 24.7051 33.4707 24.9103 33.2245 24.9103C32.8142 24.9103 32.486 24.6231 32.3219 24.0487C32.1168 24.7872 31.7476 25.1564 31.2143 25.1564C31.0091 25.1564 30.845 25.0744 30.6809 24.8692C30.5168 24.6231 30.4348 24.2949 30.4348 23.9257V23.0231C30.4348 22.9411 30.3937 22.9 30.2707 22.859C30.1476 22.818 30.1066 22.777 30.1066 22.6128C30.1066 22.4077 30.1886 22.2026 30.3937 21.9975C30.5578 21.8334 30.6809 21.7513 30.7219 21.7513C30.845 21.7513 30.8861 21.9564 30.8861 22.3257C30.8861 22.5308 30.8861 22.7359 30.845 22.859C30.804 22.9821 30.804 23.1052 30.804 23.2282C30.804 23.4744 30.845 23.6795 30.9271 23.8436C31.0091 24.0898 31.1322 24.1718 31.2963 24.1718C31.5014 24.1718 31.6655 24.0898 31.8707 23.8846C32.0348 23.7205 32.1168 23.4744 32.1168 23.2693C32.1168 23.1462 32.0758 22.9 31.9937 22.5308C31.9117 22.2026 31.8707 21.9564 31.8707 21.8744C31.8707 21.7923 31.9117 21.6693 31.9937 21.5052C32.0758 21.3411 32.1168 21.259 32.1578 21.259C32.2399 21.259 32.3219 21.4641 32.404 21.9564C32.486 22.4077 32.5681 22.7359 32.5681 22.9411C32.5681 23.5975 32.8142 23.8846 33.3066 23.8846C33.5117 23.8846 33.6348 23.8026 33.7168 23.5564C33.3066 22.818 33.1014 22.2846 33.1014 21.8744C33.1014 21.6693 33.1424 21.4641 33.2655 21.259C33.3476 21.1359 33.3886 21.0949 33.4296 21.0949C33.4707 21.0949 33.4707 21.177 33.5117 21.3411C33.5117 21.5462 33.5527 21.7103 33.5937 21.8334C33.5937 21.8334 33.7168 22.1205 33.9219 22.6128C33.963 22.9821 34.045 23.1872 34.045 23.3923Z" fill="#124D73"/>
<path d="M39.8705 31.2282C39.8705 31.1871 39.8705 31.1871 39.8705 31.1461C39.8705 30.8179 39.5012 30.3256 38.7217 29.7512C37.8602 29.0538 36.9987 28.7256 36.0961 28.7256C34.291 28.7256 32.3628 30.6128 30.3936 34.4281C30.8859 34.6333 31.5013 34.7153 32.3218 34.7153C33.7577 34.7153 35.3166 34.264 36.9577 33.4025C38.4756 32.623 39.4602 31.8846 39.8705 31.2282ZM29.5321 36.3153C29.2449 37.2179 28.9987 37.6691 28.8346 37.6691C28.7936 37.6691 28.7526 37.5871 28.7526 37.464C28.7526 37.1768 28.8346 36.7666 29.0397 36.1512C28.1782 35.6179 27.7269 34.7563 27.7269 33.5666C27.1116 34.223 26.4141 34.7563 25.6346 35.2076C24.65 35.823 23.8295 36.1102 23.0911 36.1102V33.8538C24.6911 33.8538 26.4141 33.1153 28.2603 31.6384C28.3423 31.5564 28.4244 31.5564 28.5064 31.5974C28.5474 31.6384 28.5885 31.7205 28.5064 31.8846C28.4244 32.1307 28.3833 32.3769 28.3833 32.541C28.3833 33.1564 28.8346 33.6897 29.6962 34.141C30.9679 31.8025 31.9115 30.1615 32.5679 29.3C33.9218 27.4948 35.2346 26.5923 36.5474 26.5923C37.7371 26.5923 38.7628 27.0025 39.6243 27.8641C40.3628 28.5615 40.691 29.2179 40.691 29.8333C40.691 30.5717 40.5679 31.1871 40.3217 31.7205C40.0346 32.3358 39.5012 33.0333 38.7628 33.7307C39.2961 33.6076 40.1166 33.2794 41.2243 32.8281V34.8384C38.1884 36.1102 35.1525 36.7666 31.9936 36.7666C31.2141 36.7666 30.3526 36.6025 29.5321 36.3153Z" fill="#124D73"/>
<path d="M42.4545 14.6129C42.4545 13.8745 42.3315 13.3001 42.1263 12.8488C42.1263 12.5616 42.3315 11.9463 42.7417 10.9616C42.7827 10.8796 42.8238 10.7975 42.8648 10.7975C42.9058 10.7975 42.9468 10.8386 43.0289 10.9616C43.152 11.2078 43.4391 11.9052 43.8494 13.0539C44.3007 14.2437 44.5878 14.9821 44.6699 15.2693C44.7109 15.4744 44.7519 15.6385 44.7519 15.7206C44.7519 16.0488 44.4238 15.8847 43.8084 15.1462C43.7263 15.0232 43.6853 15.0642 43.6853 15.2693C43.6853 15.3103 43.8084 17.2796 44.0955 21.177C44.3827 25.0744 44.5058 27.3718 44.5058 28.1103C44.5058 29.341 44.3007 30.5308 43.8494 31.6385C43.275 33.2384 42.3725 34.2641 41.1827 34.7974V32.7872C42.6597 32.1718 43.3981 31.1872 43.3981 29.9154C43.3981 29.3 43.234 26.7564 42.9058 22.3257C42.6186 17.977 42.4545 15.3514 42.4545 14.6129Z" fill="#124D73"/>
<path d="M45.8192 15.9256C45.8192 15.1872 45.6961 14.6128 45.491 14.1616C45.491 13.9154 45.6961 13.3 46.1063 12.3154C46.1474 12.1923 46.2294 12.1513 46.2294 12.1513C46.2705 12.1513 46.3115 12.1923 46.3935 12.3154C46.5166 12.5616 46.8038 13.259 47.214 14.4077C47.6653 15.5974 47.9525 16.3359 48.0345 16.6231C48.0756 16.8282 48.1166 16.9923 48.1166 17.1154C48.1166 17.4436 47.7884 17.2385 47.173 16.5C47.091 16.3769 47.0499 16.459 47.0499 16.6231C47.0499 16.6641 47.214 19.0026 47.5422 23.5153C47.8704 28.0281 48.0345 30.6127 48.0345 31.1461C48.0345 32.9102 47.7884 34.4281 47.2551 35.7409C47.132 35.9871 47.0499 36.1922 46.9679 36.3153C46.8448 36.5204 46.8038 36.5204 46.8038 36.3973C46.7628 36.2742 46.8038 35.9871 46.8038 35.5358C46.8858 34.9204 46.9269 34.223 46.9269 33.4435C46.9269 32.705 46.7217 29.7922 46.3525 24.582C46.0243 19.4538 45.8192 16.541 45.8192 15.9256Z" fill="#124D73"/>
<path d="M13.9251 20.3218C13.9251 20.5065 13.7404 20.8298 13.3247 21.384C12.8629 21.9843 12.4473 22.4461 12.0317 22.7232C11.8008 22.9079 10.9234 23.185 9.49179 23.5544C9.2147 23.6006 9.07616 23.6006 9.07616 23.6006C9.12234 23.5544 9.2147 23.5082 9.35324 23.3697C9.53796 23.2312 10.0459 22.9541 10.8772 22.4923C11.6623 22.0767 12.124 21.7996 12.2626 21.661C12.3088 21.6149 12.3088 21.6149 12.3088 21.5687C12.3088 21.384 11.6161 21.2916 10.1845 21.2916C10.1845 21.2916 9.9074 21.2916 9.35324 21.2916C9.07616 21.2916 8.93762 21.2916 8.93762 21.2454C8.93762 21.1992 8.9838 21.1531 9.07616 21.0145L9.58414 20.1833C9.72268 19.9062 9.99977 19.7677 10.4154 19.7215C10.5539 19.6753 10.8772 19.6753 11.3852 19.6753C13.0938 19.7677 13.9251 19.9524 13.9251 20.3218Z" fill="#124D73"/>
</svg>
