<svg width="49" height="48" viewBox="0 0 49 48" fill="none" xmlns="http://www.w3.org/2000/svg">
<path d="M0.0583496 33.3847C0.0583496 31.5385 0.366042 29.9561 0.981426 28.7254C1.20121 28.2418 1.37703 28.0221 1.46494 28.0221C1.5089 28.0221 1.5089 28.066 1.5089 28.1539C1.5089 28.3298 1.46494 28.5495 1.33307 28.9012C0.849557 30.2199 0.585821 31.4067 0.585821 32.5056C0.585821 33.6924 0.849557 34.7034 1.33307 35.5385C2.12428 36.8572 3.44296 37.4726 5.28911 37.4726C7.22317 37.4726 9.55283 36.5935 12.2341 34.8352C14.3001 33.4726 15.8385 32.1979 16.8495 30.9671C17.1572 30.6155 17.333 29.8682 17.377 28.8133C17.377 28.7254 17.377 27.8902 17.377 26.3957C17.377 22.2199 17.1572 18.4836 16.7616 15.2309C16.6297 14.088 16.41 12.5056 16.0583 10.4397C16.2781 9.25288 16.41 8.50563 16.4979 8.28585C16.5858 8.11002 16.6297 8.02211 16.6737 8.02211C16.7177 8.02211 16.8056 8.11002 16.8495 8.28585C17.4209 10.0441 17.8605 12.2858 18.1682 15.0111C18.388 16.8133 18.5638 19.6704 18.6517 23.5386C18.7396 26.9671 18.8715 29.121 19.0473 29.9561C19.2671 30.9232 19.5748 31.5825 19.9704 31.8902C20.2781 32.11 20.6737 32.2418 21.2451 32.2418V34.7473C20.0144 34.7473 19.0913 34.2638 18.5638 33.2968C18.2122 32.6814 17.9924 31.6265 17.8166 30.132C17.5968 31.6265 17.333 32.5495 17.0693 32.9451C16.7616 33.3847 15.9704 34.1319 14.7836 35.1869C13.2451 36.4616 11.7506 37.5166 10.2561 38.3517C8.32207 39.4506 6.60779 39.9781 5.15724 39.9781C3.13527 39.9781 1.72868 39.1869 0.893513 37.5166C0.366042 36.3737 0.0583496 35.0111 0.0583496 33.3847Z" fill="#124D73"/>
<path d="M22.0361 22.5715C24.3218 21.7363 26.7834 20.8572 29.3768 19.8902C29.5086 19.8462 29.5965 19.8023 29.5965 19.8462C29.6405 19.8902 29.6405 19.9781 29.5526 20.066C29.3768 20.4176 29.2888 20.6374 29.2009 20.7253C27.0471 21.5165 24.4976 22.4836 21.5966 23.7143C21.7284 23.3627 21.8603 22.9671 22.0361 22.5715Z" fill="#124D73"/>
<path d="M27.7943 17.9121C27.7943 18.2198 27.7064 18.5714 27.5745 18.9231C27.3987 19.3627 27.1349 19.5824 26.8272 19.5824C26.3437 19.5824 26.036 19.2747 25.8163 18.6154C25.5965 19.4506 25.2009 19.8462 24.5855 19.8462C24.3657 19.8462 24.1899 19.7143 24.0141 19.5385C23.8382 19.2747 23.7503 18.9231 23.7503 18.4835V17.4725C23.7503 17.3846 23.7064 17.3407 23.5745 17.2967C23.4426 17.2528 23.3987 17.1649 23.3987 17.033C23.3987 16.8132 23.4866 16.5934 23.7064 16.3737C23.8822 16.1978 24.0141 16.1099 24.102 16.1099C24.2338 16.1099 24.2778 16.3297 24.2778 16.7693C24.2778 17.033 24.2778 17.2088 24.2338 17.3846C24.1899 17.5605 24.1899 17.6923 24.1899 17.7802C24.1899 18.044 24.2338 18.2638 24.3657 18.4835C24.4536 18.7473 24.6294 18.8791 24.8053 18.8791C25.0251 18.8791 25.2448 18.7912 25.4207 18.5714C25.5965 18.3517 25.7283 18.1319 25.7283 17.8682C25.7283 17.6923 25.6844 17.4286 25.5965 17.0769C25.5086 16.6813 25.4646 16.4616 25.4646 16.3737C25.4646 16.2857 25.5086 16.1539 25.5965 15.978C25.6844 15.8022 25.7283 15.7143 25.7723 15.7143C25.8602 15.7143 25.9481 15.978 26.08 16.4616C26.2119 16.989 26.2558 17.3407 26.2558 17.5605C26.2558 18.2638 26.5196 18.6154 27.047 18.6154C27.3108 18.6154 27.4426 18.4835 27.4866 18.2638C27.047 17.4726 26.7833 16.8572 26.7833 16.4176C26.7833 16.1978 26.8272 15.978 26.9591 15.7583C27.047 15.6264 27.091 15.5385 27.1349 15.5385C27.1789 15.5385 27.2228 15.6264 27.2228 15.8022C27.2668 16.022 27.2668 16.1978 27.3108 16.3737C27.3547 16.3737 27.4426 16.6813 27.6624 17.2528C27.7064 17.4725 27.7943 17.7363 27.7943 17.9121Z" fill="#124D73"/>
<path d="M31.7947 29.0329C31.7947 29.8681 31.6628 30.6154 31.3991 31.2307C31.1793 31.8461 30.8716 32.1099 30.6079 32.1099C29.0694 32.1099 27.531 31.5384 25.9925 30.3516C25.5529 31.5824 24.8936 32.5934 24.0145 33.4285C23.1354 34.2637 22.1683 34.6593 21.2013 34.6593V32.1538C21.9485 32.1538 22.6958 31.978 23.3991 31.7143C24.2782 31.3187 24.8936 30.7912 25.2452 30.1758C25.3332 30 25.5969 29.4285 26.0364 28.4615C26.2562 28.022 26.4321 27.7582 26.5639 27.7582C26.8277 27.2308 27.2233 26.7472 27.6628 26.2637C28.3222 25.6044 28.9815 25.2527 29.5529 25.2527C30.3002 25.2527 30.9156 25.6923 31.3112 26.6593C31.6628 27.3626 31.7947 28.1538 31.7947 29.0329ZM30.2123 29.0769C30.1244 28.7253 29.9046 28.4176 29.5969 28.1538C29.2892 27.8901 28.9815 27.7582 28.6738 27.7582C28.2342 27.7582 27.9266 27.8461 27.6628 28.022C27.487 28.1538 27.3991 28.3296 27.3991 28.4615C28.0584 28.945 28.8936 29.3406 29.8167 29.6483C29.9485 29.6923 30.0364 29.6923 30.0804 29.6923C30.2123 29.6923 30.2562 29.6044 30.2562 29.4725C30.3002 29.3406 30.2562 29.2088 30.2123 29.0769Z" fill="#124D73"/>
<path d="M28.3219 13.9561C30.6077 13.1209 33.0692 12.2418 35.6626 11.2748C35.7945 11.2308 35.8824 11.1869 35.8824 11.2308C35.9263 11.2748 35.9263 11.3627 35.8384 11.4506C35.6626 11.8023 35.5747 12.0221 35.4868 12.11C33.3329 12.9012 30.7835 13.8682 27.8824 15.099C27.9703 14.7473 28.1022 14.3517 28.3219 13.9561Z" fill="#124D73"/>
<path d="M36.4099 20.4176C36.4099 20.7253 36.322 21.0769 36.1901 21.4286C36.0143 21.8681 35.7505 22.0879 35.4428 22.0879C34.9593 22.0879 34.6516 21.7802 34.4319 21.1209C34.2121 21.9561 33.8165 22.3517 33.2011 22.3517C32.9813 22.3517 32.8055 22.2198 32.6297 22.044C32.4538 21.7802 32.3659 21.4286 32.3659 20.989V19.978C32.3659 19.8901 32.322 19.8462 32.1901 19.8022C32.0582 19.7583 32.0143 19.6703 32.0143 19.5385C32.0143 19.3187 32.1022 19.0989 32.322 18.8791C32.4978 18.7033 32.6297 18.6154 32.7176 18.6154C32.8494 18.6154 32.8934 18.8352 32.8934 19.2747C32.8934 19.5385 32.8934 19.7143 32.8494 19.8901C32.8055 20.0659 32.8055 20.1978 32.8055 20.2857C32.8055 20.5495 32.8494 20.7692 32.9813 20.989C33.0692 21.2528 33.245 21.3846 33.4209 21.3846C33.6407 21.3846 33.8604 21.2967 34.0363 21.0769C34.2121 20.8572 34.3439 20.6374 34.3439 20.3736C34.3439 20.1978 34.3 19.9341 34.2121 19.5824C34.1242 19.1868 34.0802 18.9671 34.0802 18.8791C34.0802 18.7912 34.1242 18.6594 34.2121 18.4835C34.3 18.3077 34.3439 18.2198 34.3879 18.2198C34.4758 18.2198 34.5637 18.4835 34.6956 18.9671C34.8275 19.4945 34.8714 19.8462 34.8714 20.0659C34.8714 20.7692 35.1352 21.1209 35.6626 21.1209C35.9264 21.1209 36.0582 20.989 36.1022 20.7692C35.6626 19.978 35.3989 19.3627 35.3989 18.9231C35.3989 18.7033 35.4428 18.4835 35.5747 18.2638C35.6626 18.1319 35.7066 18.044 35.7505 18.044C35.7945 18.044 35.8384 18.1319 35.8384 18.3077C35.8824 18.5275 35.8824 18.7033 35.9264 18.8791C35.9703 18.8791 36.0582 19.1868 36.278 19.7583C36.3659 19.978 36.4099 20.2418 36.4099 20.4176Z" fill="#124D73"/>
<path d="M33.2894 28.022C33.2454 27.9781 33.2454 27.9341 33.2894 27.8462L34.0806 26.2199C34.1245 26.1319 34.1685 26.088 34.2564 26.088C34.3443 26.088 34.696 26.3078 35.3113 26.7473C35.9267 27.1869 36.2344 27.4506 36.2344 27.5385C36.2344 27.8023 35.9707 28.3737 35.3993 29.2528C35.3113 29.3847 35.2674 29.3847 35.1795 29.3407C34.6081 28.9012 33.9487 28.4616 33.2894 28.022Z" fill="#124D73"/>
<path d="M31.0912 37.9121C31.9703 36.9451 33.1132 36.0659 34.4758 35.3187C35.311 34.8791 36.7175 34.2198 38.7395 33.3407V35.5824C37.4648 36.1099 36.5417 36.5495 35.8824 36.8572C34.6516 37.4286 33.7725 37.9121 33.289 38.2637C32.4538 38.9231 31.1791 40.1978 29.5527 42.0879C28.5857 43.1868 27.6187 43.7582 26.6516 43.7582C25.8165 43.7582 25.1132 43.4066 24.4978 42.6593C23.8385 41.9121 23.5308 40.9451 23.5308 39.8462C23.5308 38.3077 24.1461 36.3297 25.4209 33.8681C25.5527 33.6044 25.6406 33.4725 25.7286 33.4725C25.7725 33.5165 25.7725 33.5165 25.7725 33.5605C25.7725 33.8242 25.5088 34.7033 24.9374 36.1539C24.4099 37.6484 24.1461 38.7912 24.1461 39.6264C24.1461 40.2857 24.278 40.8132 24.5857 41.1648C24.8934 41.6044 25.333 41.8242 25.9483 41.8242C26.9593 41.8242 28.0143 41.2967 29.0692 40.2418C29.7286 39.4506 30.4318 38.6593 31.0912 37.9121Z" fill="#124D73"/>
<path d="M43.4429 21.2089C43.5308 20.9891 43.5308 20.7253 43.4868 20.5056C43.4429 20.2418 43.311 20.11 43.1352 20.11C43.0473 20.11 42.9154 20.1539 42.7835 20.2418C42.6077 20.3297 42.5638 20.4176 42.5638 20.5056C42.5638 20.6814 42.8715 20.9451 43.4429 21.2089ZM43.0033 22.3078C42.2561 21.9121 41.8605 21.5165 41.8605 21.077C41.8605 20.5495 42.1242 20.066 42.6077 19.6264C43.0912 19.1869 43.4868 19.0111 43.8385 19.1429C44.1022 19.2308 44.2341 19.5385 44.2341 20.022C44.2341 20.4616 44.1462 20.9451 43.9704 21.5165C44.366 21.7363 44.5857 21.9561 44.6737 22.088C44.6737 22.3078 44.4978 22.6594 44.1462 23.1429C44.0583 22.9671 43.7945 22.7913 43.4429 22.5715C43.0033 23.1869 42.4759 23.7143 41.8165 24.1979C41.0693 24.7693 40.366 25.2088 39.7506 25.4726C39.6187 25.5605 38.8715 25.8242 37.5528 26.3077C37.333 26.3957 37.2011 26.4396 37.1132 26.4396C37.0693 26.4396 37.0693 26.4396 37.0693 26.3957C37.0693 26.3517 37.2011 26.2198 37.4209 26.088C38.4319 25.5165 39.3989 24.9012 40.366 24.3297C41.5528 23.5825 42.4319 22.9231 43.0033 22.3078Z" fill="#124D73"/>
<path d="M42.4757 36.1098C42.7834 36.1098 42.9592 36.0219 42.9592 35.8461C42.9592 35.5824 42.7394 35.3626 42.2559 35.1867C41.8603 35.0109 41.3328 35.0549 40.6295 35.2307C41.0251 35.8021 41.6405 36.1098 42.4757 36.1098ZM39.3987 33.1648C40.4976 32.7692 41.3328 32.5933 41.9921 32.5933C42.6954 32.5933 43.2669 32.901 43.6625 33.4725C44.0581 34.0439 44.2779 34.8351 44.2779 35.8021C44.2779 36.5933 44.102 37.2527 43.7504 37.7801C43.3987 38.3076 42.9592 38.5714 42.3877 38.5714C41.6405 38.5714 40.8932 38.2197 40.2339 37.5604C39.6625 36.9889 39.2229 36.3296 38.8713 35.5824H40.4097L38.2998 33.6043C38.2559 33.4725 38.3878 33.3406 38.7394 33.2087C39.0911 33.0329 39.3108 33.0329 39.3987 33.1648Z" fill="#124D73"/>
<path d="M40.014 4.85716C40.014 5.03299 39.7943 5.42859 39.3547 6.04397C38.8272 6.74727 38.3437 7.27474 37.9042 7.58243C37.6404 7.80221 36.6734 8.1099 35.047 8.54946C34.7393 8.59342 34.6075 8.63737 34.6075 8.63737C34.6514 8.59342 34.7393 8.50551 34.9151 8.37364C35.1349 8.19782 35.7064 7.89012 36.6734 7.36265C37.5965 6.87914 38.08 6.57144 38.2558 6.43958C38.2998 6.39562 38.2998 6.35167 38.2998 6.35167C38.2998 6.13189 37.5085 6.04397 35.8822 6.04397C35.8822 6.04397 35.5745 6.04397 34.9591 6.08793C34.6514 6.13189 34.4756 6.08793 34.4756 6.04397C34.4756 6.00002 34.5195 5.91211 34.6075 5.78024L35.1789 4.81321C35.3547 4.50552 35.6624 4.32969 36.102 4.28574C36.2338 4.24178 36.6294 4.24178 37.2009 4.24178C39.091 4.24178 40.014 4.46156 40.014 4.85716Z" fill="#124D73"/>
<path d="M38.4758 33.5604C37.9483 31.4945 37.5088 27.8901 37.1132 22.7472C36.8934 19.5824 36.7615 16.7692 36.7615 14.3517C36.7615 13.5605 36.6296 12.9011 36.3659 12.3736C36.3659 12.1099 36.6296 11.4066 37.0692 10.3077C37.1132 10.1758 37.1571 10.1319 37.2011 10.1319C37.245 10.1319 37.3329 10.2198 37.3769 10.3517C37.5088 10.6154 37.8165 11.4066 38.3 12.6813C38.7835 14 39.0912 14.8352 39.1791 15.1429C39.267 15.3626 39.267 15.5385 39.267 15.6703C39.267 16.0659 38.9153 15.8462 38.2121 15.011C38.1241 14.9231 38.0802 14.967 38.0802 15.1868C38.0802 16.2857 38.2121 18.8791 38.4318 22.967C38.7395 28.2417 39.1351 31.5824 39.6626 33.0769C39.6626 33.1648 39.4868 33.2527 39.1791 33.4285C38.8714 33.6044 38.6077 33.6483 38.4758 33.6483C38.5197 33.6044 38.4758 33.6044 38.4758 33.5604Z" fill="#124D73"/>
<path d="M45.5089 15.0111C45.5089 14.2199 45.377 13.5605 45.1133 13.077C45.1133 12.7693 45.3331 12.11 45.8166 11.0111C45.9045 10.8792 45.9484 10.7913 45.9924 10.7913C46.0364 10.7913 46.0803 10.8792 46.1682 11.0111C46.3001 11.3188 46.6078 12.066 47.0913 13.3407C47.6188 14.6594 47.8825 15.4946 47.9704 15.8023C48.0583 16.0221 48.0583 16.1979 48.0583 16.3297C48.0583 16.6814 47.7067 16.4616 47.0034 15.6704C46.9155 15.5385 46.8715 15.5825 46.8715 15.8023C46.8715 15.8902 47.0473 18.4396 47.4429 23.4506C47.7946 28.4616 47.9704 31.3187 47.9704 31.9341C47.9704 33.8682 47.7067 35.5824 47.0913 37.033C46.9594 37.3407 46.8715 37.5165 46.7836 37.6484C46.6517 37.8682 46.6078 37.9121 46.5638 37.7802C46.5199 37.6044 46.5199 37.2967 46.6078 36.8572C46.6957 36.1978 46.7397 35.4066 46.7397 34.5275C46.7397 33.7363 46.5199 30.4396 46.1243 24.6814C45.7287 18.9231 45.5089 15.7144 45.5089 15.0111Z" fill="#124D73"/>
<path d="M38.6957 33.956V35.6264H40.5419L38.6957 33.956Z" fill="#124D73"/>
</svg>
