<svg width="49" height="44" viewBox="0 0 49 44" fill="none" xmlns="http://www.w3.org/2000/svg">
<path d="M0.0583496 36.9943C0.0583496 34.0433 0.749996 31.5072 2.1794 29.2939C2.45606 28.8328 2.68661 28.6023 2.77883 28.6023C2.82494 28.6023 2.82494 28.6484 2.82494 28.6945C2.82494 28.8328 2.73272 29.1095 2.54828 29.4323C1.44164 31.7839 0.934437 33.7666 0.934437 35.3804C0.934437 36.7637 1.30331 37.9626 2.04107 38.9309C3.00938 40.222 4.48489 40.8214 6.46761 40.8214C7.94313 40.8214 9.74141 40.4064 11.9547 39.5303C13.6146 38.8387 15.3207 38.0087 16.9806 37.0404C18.4562 36.1643 19.1939 35.6571 19.1939 35.4265C19.1939 35.196 18.1795 34.781 16.1968 34.2277C14.8135 33.8588 13.4302 33.4899 12.0469 33.0749C11.7241 32.9366 11.5858 32.7061 11.6319 32.3833C11.7241 32.1066 11.8164 31.6917 12.0008 31.0461H14.7674C17.119 31.6917 18.5945 32.1528 19.24 32.5216C19.9778 32.9366 20.3467 33.4899 20.3467 34.1816C20.3467 34.6888 20.1622 35.2882 19.8395 36.026C19.4245 36.8559 18.8712 37.5937 18.2256 38.1931C16.9806 39.3459 15.044 40.4986 12.4619 41.6514C9.74141 42.8963 7.66647 43.4958 6.09873 43.4958C3.97768 43.4958 2.40995 42.8041 1.34942 41.4208C0.473338 40.3603 0.0583496 38.8387 0.0583496 36.9943Z" fill="#124D73"/>
<path d="M12.6466 3.88752C15.0904 3.01143 17.7186 2.04313 20.4852 1.02871C20.6235 0.9826 20.7158 0.936491 20.7158 0.9826C20.7619 1.02871 20.7619 1.12093 20.6697 1.21315C20.4852 1.58203 20.393 1.81258 20.3008 1.9048C17.9953 2.73477 15.2748 3.7953 12.1393 5.08637C12.2777 4.7636 12.4621 4.34862 12.6466 3.88752Z" fill="#124D73"/>
<path d="M18.8248 15.2305C18.5481 12.51 18.3176 10.8039 18.087 10.1123C18.2715 8.77508 18.4098 7.99122 18.502 7.80678C18.5943 7.62234 18.6404 7.48401 18.6865 7.48401C18.7326 7.48401 18.7787 7.57623 18.8248 7.80678C19.0092 8.4062 19.1937 9.00563 19.332 9.55895C19.5626 10.7117 19.7931 12.095 19.9776 13.6627C20.162 15.3227 20.3464 18.3198 20.577 22.608C20.7614 26.6657 20.8997 28.9251 20.9459 29.2939C21.2686 31.4611 22.1447 32.5216 23.6663 32.5216V35.1499C22.1908 35.1499 21.1764 34.5505 20.577 33.3516C19.9776 32.2911 19.6087 30.4928 19.4703 27.9568C18.5481 29.9395 17.2571 31.3228 15.551 32.0605L12.0928 31.0922C12.1389 31.0461 12.6461 30.8156 13.6605 30.4006C15.4127 29.7089 16.6576 29.1095 17.4415 28.5101C18.7326 27.5418 19.4242 26.5274 19.4242 25.3285C19.4242 24.6369 19.3781 23.023 19.2398 20.5331C19.0554 17.9048 18.917 16.1065 18.8248 15.2305Z" fill="#124D73"/>
<path d="M27.9087 16.8905C27.9087 17.0749 27.6782 17.536 27.2171 18.1815C26.6637 18.9193 26.1565 19.4726 25.6493 19.8415C25.3266 20.072 24.3121 20.3948 22.56 20.8559C22.2372 20.902 22.0989 20.9481 22.0989 20.9481C22.145 20.902 22.2372 20.8098 22.4678 20.6715C22.6983 20.487 23.2977 20.1643 24.3583 19.6109C25.3266 19.1037 25.8799 18.7349 26.0643 18.5965C26.1104 18.5504 26.1104 18.5043 26.1104 18.5043C26.1104 18.2738 25.2343 18.1815 23.4822 18.1815C23.4822 18.1815 23.1594 18.1815 22.5139 18.2276C22.1911 18.2738 22.0067 18.2276 22.0067 18.1815C22.0067 18.1354 22.0528 18.0432 22.145 17.9049L22.7905 16.8905C22.975 16.5677 23.2977 16.3833 23.8049 16.291C23.9433 16.2449 24.3583 16.2449 25.0038 16.2449C26.8943 16.1988 27.9087 16.4294 27.9087 16.8905Z" fill="#124D73"/>
<path d="M35.1942 29.294C35.0098 29.8935 34.687 30.5851 34.272 31.3229C32.7504 32.6139 31.5516 33.49 30.5833 34.0433C28.8772 34.9655 27.2172 35.4266 25.5112 35.4266C24.6351 35.4266 23.9896 35.3344 23.5746 35.1961L23.0674 32.5217C22.053 31.2306 21.4996 29.9857 21.4996 28.7407C21.4996 26.8502 22.0991 25.4208 23.2518 24.3603C24.2662 23.4842 25.4651 23.0692 26.9406 23.0692C28.8772 23.0692 30.6294 23.7148 32.151 24.9597C32.4277 25.1903 32.5199 25.3286 32.5199 25.4208C32.5199 25.4669 32.4738 25.513 32.3815 25.513C32.2432 25.513 32.0588 25.4669 31.7821 25.3286C30.7677 24.9597 29.8455 24.7753 29.0155 24.7753C27.8628 24.7753 26.6639 24.9597 25.419 25.2825C24.174 25.6053 23.2979 26.0664 22.7446 26.5736C22.7446 27.8185 23.1596 29.0635 24.0357 30.3085C25.0962 31.784 26.4795 32.5217 28.1394 32.5217C29.0155 32.5217 30.1222 32.1067 31.5055 31.3229C32.6121 30.6773 33.6726 29.9396 34.6409 29.1096C34.8254 28.9713 34.9637 28.879 35.0559 28.8329C35.2865 28.9252 35.2865 29.0635 35.1942 29.294Z" fill="#124D73"/>
<path d="M21.3611 3.79535C23.8049 2.91927 26.4332 1.95096 29.1998 0.936546C29.3381 0.890437 29.4303 0.844328 29.4303 0.890437C29.4764 0.936547 29.4764 1.02877 29.3842 1.12099C29.1998 1.48986 29.1075 1.72041 29.0153 1.81263C26.7098 2.64261 23.9893 3.70314 20.8539 4.99421C20.9922 4.62533 21.1766 4.21034 21.3611 3.79535Z" fill="#124D73"/>
<path d="M27.3093 4.48695C27.2171 4.85583 27.1249 5.08637 26.9865 5.17859C26.4793 5.50136 25.4188 6.19301 23.8049 7.29965C23.7127 7.34576 23.6666 7.43798 23.5744 7.48409C23.5744 7.43798 23.5283 7.43797 23.5283 7.39186L23.6205 6.79244C23.6205 6.65411 23.8972 6.42356 24.4505 6.00857C23.8049 5.77802 23.4822 5.50136 23.4822 5.13248C23.4822 4.76361 23.6666 4.34862 23.9894 3.93363C24.6349 3.14976 25.1882 2.78088 25.6032 2.78088C25.9721 2.78088 26.2027 3.01143 26.2027 3.42642C26.2027 3.65697 26.1104 3.97974 25.8799 4.34862C25.8338 4.44084 25.7877 4.39473 25.7416 4.30251C25.6032 4.02585 25.4649 3.88752 25.2805 3.88752C25.1421 3.88752 24.9577 3.97974 24.7271 4.11807C24.4966 4.2564 24.4044 4.39473 24.4044 4.53306C24.4044 4.67139 24.5427 4.80972 24.8194 4.94805C25.096 5.08637 25.2805 5.13248 25.4649 5.13248C25.6493 5.13248 25.8799 5.04026 26.2488 4.80972C26.4793 4.62528 26.756 4.48695 26.9865 4.30251C27.2171 4.21029 27.3554 4.16418 27.4015 4.16418C27.3554 4.2564 27.3554 4.34862 27.3093 4.48695Z" fill="#124D73"/>
<path d="M40.8657 1.3514C40.8657 1.53584 40.6351 1.99694 40.174 2.64248C39.6207 3.38023 39.1135 3.93355 38.6063 4.30243C38.2835 4.53298 37.2691 4.85575 35.5169 5.31684C35.1942 5.36295 35.0558 5.40906 35.0558 5.40906C35.102 5.36295 35.1942 5.27074 35.4247 5.13241C35.6553 4.94797 36.2547 4.6252 37.3152 4.07188C38.2835 3.56467 38.8368 3.19579 39.0213 3.05747C39.0674 3.01136 39.0674 2.96525 39.0674 2.96525C39.0674 2.7347 38.1913 2.64248 36.4391 2.64248C36.4391 2.64248 36.1164 2.64248 35.4708 2.68859C35.1481 2.7347 34.9636 2.68859 34.9636 2.64248C34.9636 2.59637 35.0097 2.50415 35.102 2.36582L35.7475 1.3514C35.9319 1.02863 36.2547 0.844194 36.7619 0.751975C36.9002 0.705865 37.3152 0.705864 37.9608 0.705864C39.8513 0.659754 40.8657 0.890304 40.8657 1.3514Z" fill="#124D73"/>
<path d="M40.9576 29.1556C40.7732 30.7694 40.6349 31.5533 40.5426 31.5533C40.4504 31.5533 40.3582 30.9078 40.1277 29.5706C39.8049 27.4034 38.191 24.9135 35.2861 22.1469C34.0412 20.948 32.7962 19.7492 31.5512 18.5964C30.1679 17.2593 29.1535 16.1987 28.4619 15.3226C28.0008 14.6771 27.4475 13.9394 26.9402 13.1094C26.6175 12.6022 26.2947 12.095 25.9719 11.5416C25.7414 11.2189 25.5108 10.9422 25.2342 10.8039C25.0959 10.7117 25.0497 10.6194 25.0497 10.3889V8.63673C25.0497 8.26785 25.0959 8.12952 25.2342 8.12952C25.3264 8.12952 25.4647 8.22174 25.6953 8.36007L29.0613 10.9422C29.338 11.1267 29.4763 11.265 29.4763 11.3572C29.4763 11.4494 29.338 11.4955 29.1535 11.4955C28.8769 11.4955 28.4158 11.4033 27.7702 11.265C28.1852 12.095 29.4302 13.5705 31.5512 15.6454C33.119 17.2131 34.7328 18.7809 36.3005 20.3486C39.436 23.5302 41.0037 26.2507 41.0037 28.5101C40.9576 28.7406 40.9576 28.9712 40.9576 29.1556Z" fill="#124D73"/>
<path d="M40.4507 10.3889C40.4507 10.02 40.3584 9.60502 40.2201 9.14392C40.0357 8.68283 39.9896 8.40617 39.9896 8.36006C39.9896 8.26784 40.0818 7.89896 40.2662 7.29953C40.4507 6.7001 40.5429 6.37733 40.589 6.28511C40.6812 6.10068 40.7273 6.05457 40.7734 6.05457C40.8195 6.05457 40.9118 6.14679 40.9579 6.28511C41.1884 6.65399 41.5573 7.39175 42.1106 8.59061C42.71 9.88168 43.0789 10.7578 43.2173 11.1728C43.3095 11.4494 43.3095 11.6339 43.3095 11.7722C43.3095 11.8644 43.2634 11.9105 43.2173 11.9105C43.0789 11.9105 42.71 11.5877 42.1567 10.9883C42.0645 10.8961 42.0645 10.9422 42.0645 11.1728C42.0645 11.8644 42.2951 14.216 42.8023 18.2276C43.2634 22.2391 43.54 24.9135 43.54 26.3429C43.54 29.2478 42.8484 31.6455 41.5112 33.5821C40.4507 35.0576 39.2057 36.1182 37.8685 36.7637C37.3152 36.9943 36.393 37.2709 35.148 37.6398C33.857 37.9626 32.8887 38.147 32.2892 38.2392C32.0587 38.2853 31.9203 38.2392 31.9203 38.1931C31.9203 38.147 32.0587 38.0087 32.2892 37.8703C33.4881 37.1787 35.3786 36.0259 38.053 34.4121C38.8829 33.8588 39.7129 33.121 40.589 32.1988C41.7417 30.9539 42.3412 29.8933 42.3412 29.0634C42.3412 27.3112 42.0184 23.9452 41.419 18.9192C40.7734 13.8471 40.4507 11.0344 40.4507 10.3889Z" fill="#124D73"/>
<path d="M45.3378 11.8184C45.3378 10.9424 45.1994 10.2507 44.9228 9.7435C44.9228 9.42073 45.1533 8.68298 45.6605 7.53023C45.7528 7.3919 45.7989 7.29968 45.845 7.29968C45.8911 7.29968 45.9372 7.3919 46.0294 7.53023C46.1678 7.853 46.4905 8.68298 46.9977 10.0202C47.551 11.4496 47.8738 12.3257 47.966 12.6484C48.0583 12.879 48.0583 13.1095 48.0583 13.2478C48.0583 13.6167 47.6894 13.3862 46.9055 12.5562C46.8133 12.4179 46.7672 12.464 46.7672 12.6945C46.7672 12.7867 46.9516 15.5072 47.3666 20.856C47.7355 26.2047 47.966 29.2479 47.966 29.8935C47.966 31.9684 47.6433 33.7667 47.0438 35.3344C46.9055 35.6572 46.8133 35.8417 46.7211 36.0261C46.5827 36.2566 46.5366 36.3027 46.4905 36.1644C46.4444 35.98 46.4444 35.6572 46.5366 35.15C46.6289 34.4584 46.675 33.6284 46.675 32.6601C46.675 31.784 46.4444 28.3258 46.0294 22.147C45.5222 16.0144 45.3378 12.5562 45.3378 11.8184Z" fill="#124D73"/>
</svg>
