<svg width="48" height="49" viewBox="0 0 48 49" fill="none" xmlns="http://www.w3.org/2000/svg">
<path d="M18.6621 27.9518C18.5724 27.7426 18.3931 27.5633 18.1839 27.3839C17.9448 27.1747 17.7356 27.0851 17.5264 27.0851C17.0482 27.0851 16.8389 27.2046 16.8389 27.4736C16.8389 27.7725 17.1378 27.9219 17.7655 27.9219C18.2138 27.892 18.5425 27.9219 18.6621 27.9518ZM13.2226 34.1385C13.9399 34.1385 14.8365 33.8396 15.8527 33.212C16.6895 32.7338 17.4965 32.1062 18.3034 31.3889C19.0207 30.7313 19.4392 30.283 19.5288 30.014C19.469 29.5956 18.9311 29.3864 17.885 29.3864C16.6297 29.3864 16.0021 28.968 16.0021 28.1012C16.0021 27.4437 16.2113 26.846 16.6297 26.3379C17.0183 25.8896 17.4367 25.6505 17.8551 25.6505C18.3333 25.6505 18.7816 25.9493 19.2299 26.577C19.5886 27.1149 19.8576 27.7127 19.9771 28.3702C20.0369 28.6392 20.0668 28.9381 20.0668 29.237C20.0668 30.2531 19.7978 31.09 19.2598 31.6877C18.5425 32.4648 17.7655 33.212 16.8688 33.9293C15.3745 35.1248 14.0893 35.7226 13.0731 35.7226C12.2064 35.7226 11.519 35.3938 11.0408 34.7662C10.6223 34.1983 10.4131 33.481 10.4131 32.6142C10.4131 31.5084 10.6522 30.3727 11.1304 29.2071C11.2201 28.968 11.3098 28.8185 11.3695 28.8185C11.3994 28.8185 11.3994 28.8484 11.3994 28.9082C11.3994 28.968 11.3695 29.1174 11.3098 29.2668C10.981 30.4026 10.8316 31.2693 10.8316 31.8671C10.8316 32.405 10.981 32.8832 11.25 33.2718C11.6684 33.8695 12.3259 34.1385 13.2226 34.1385Z" fill="#124D73"/>
<path d="M25.3154 24.4455C25.3752 24.296 25.3752 24.1466 25.3453 23.9971C25.3154 23.8178 25.2257 23.7282 25.1062 23.7282C25.0464 23.7282 24.9866 23.758 24.8671 23.8178C24.7774 23.8776 24.7176 23.9374 24.7176 23.9672C24.7475 24.0868 24.9269 24.2661 25.3154 24.4455ZM25.0165 25.1329C24.5383 24.8938 24.2693 24.6248 24.2693 24.3259C24.2693 23.9971 24.4188 23.6684 24.7475 23.3994C25.0464 23.1304 25.3154 23.0108 25.5246 23.1005C25.7039 23.1603 25.7936 23.3396 25.7936 23.6684C25.7936 23.9672 25.7338 24.2661 25.6143 24.6248C25.8534 24.7742 26.0028 24.8938 26.0626 25.0133C26.0626 25.1329 25.943 25.372 25.7338 25.6708C25.674 25.5812 25.5246 25.4616 25.2855 25.3122C25.0165 25.7007 24.6579 26.0295 24.2394 26.3284C23.7612 26.687 23.3129 26.956 22.9244 27.1353C22.8347 27.1652 22.3565 27.3445 21.5197 27.6733C21.3702 27.7331 21.2806 27.763 21.2507 27.763C21.2208 27.763 21.2208 27.763 21.2208 27.763C21.2208 27.7331 21.3105 27.6733 21.4599 27.5538C22.0875 27.1652 22.7152 26.8066 23.3428 26.418C24.09 25.9398 24.6579 25.5214 25.0165 25.1329Z" fill="#124D73"/>
<path d="M21.4599 33.8899C22.0278 33.2623 22.7451 32.7243 23.6417 32.2162C24.1797 31.9173 25.0763 31.4989 26.3914 30.9609V32.3955C25.5844 32.7542 24.9867 33.0232 24.5682 33.2025C23.7613 33.5612 23.2233 33.86 22.9244 34.0991C22.3864 34.5176 21.5795 35.3245 20.5334 36.5499C19.9058 37.2672 19.2781 37.6259 18.6804 37.6259C18.1424 37.6259 17.6941 37.3868 17.2757 36.9086C16.8572 36.4304 16.648 35.8027 16.648 35.0854C16.648 34.0991 17.0665 32.814 17.8734 31.2299C17.9631 31.0805 18.0229 30.9908 18.0826 30.9908C18.1125 30.9908 18.1125 31.0207 18.1125 31.0506C18.1125 31.2299 17.9332 31.7679 17.5745 32.6944C17.2159 33.6508 17.0665 34.3681 17.0665 34.936C17.0665 35.3544 17.1561 35.6832 17.3653 35.9223C17.5745 36.1913 17.8435 36.3407 18.2321 36.3407C18.8896 36.3407 19.5471 36.0119 20.2345 35.3245C20.6231 34.9061 21.0415 34.398 21.4599 33.8899Z" fill="#124D73"/>
<path d="M26.6305 35.713C28.095 35.1751 29.679 34.6072 31.3229 34.0094C31.4125 33.9796 31.4723 33.9796 31.4723 33.9796C31.5022 34.0094 31.4723 34.0393 31.4723 34.129C31.3826 34.3681 31.293 34.4876 31.2332 34.5474C29.8285 35.0555 28.2146 35.6831 26.3615 36.4602C26.3914 36.2211 26.511 35.982 26.6305 35.713Z" fill="#124D73"/>
<path d="M26.9893 22.8016C26.9594 22.7717 26.9594 22.7418 26.9893 22.7119L27.4973 21.6659C27.5272 21.6061 27.5571 21.5762 27.587 21.5762C27.6468 21.5762 27.856 21.7257 28.2744 21.9946C28.6928 22.2636 28.8722 22.443 28.8722 22.5027C28.8722 22.6821 28.6928 23.0407 28.3342 23.6086C28.3043 23.6683 28.2445 23.6982 28.2146 23.6683C27.8261 23.3695 27.4077 23.0706 26.9893 22.8016Z" fill="#124D73"/>
<path d="M26.9593 26.418C26.9593 26.687 27.1087 26.8065 27.4076 26.8065C27.5869 26.8065 27.7961 26.7766 28.0352 26.7467C28.2743 26.7169 28.4536 26.687 28.5134 26.687C28.8422 26.687 29.141 26.9261 29.4399 27.4342C29.7089 27.9422 29.8583 28.2112 29.8583 28.3009C29.8583 28.3308 29.8583 28.3607 29.8285 28.3607C29.7986 28.3607 29.679 28.3009 29.4997 28.2112C29.3204 28.1216 29.1709 28.0618 29.0215 28.0618C28.9019 28.0618 28.7226 28.0917 28.4237 28.1515C28.095 28.2112 27.826 28.271 27.6168 28.271C27.557 28.271 27.4972 28.271 27.4673 28.271C27.0489 28.271 26.7202 28.1216 26.5109 27.8526C26.2718 27.6135 26.1523 27.2847 26.1523 26.8663C26.1523 26.2685 26.3615 25.7007 26.75 25.1627C27.1386 24.6247 27.5271 24.3557 27.9455 24.3557C28.6628 24.3557 29.3503 24.7443 29.9779 25.5214C30.6354 26.3283 30.9642 27.2249 30.9642 28.2411C30.9642 29.1975 30.6354 30.0045 29.9779 30.662C29.7089 30.931 28.5134 31.5288 26.3615 32.4254V30.9908C27.1386 30.662 27.9455 30.3333 28.7226 30.0045C29.8583 29.4964 30.4262 29.1975 30.4262 29.0481C30.4262 28.2112 30.1572 27.464 29.5894 26.8065C29.0514 26.2088 28.4536 25.9099 27.8559 25.9099C27.6766 25.9099 27.4972 25.9697 27.3179 26.0892C27.019 26.2088 26.9593 26.2984 26.9593 26.418Z" fill="#124D73"/>
<path d="M32.3988 30.7218C32.5184 31.4689 32.7874 31.9471 33.146 32.1862C33.3253 32.3058 33.6242 32.3656 34.0128 32.3656V33.9795C33.4449 33.9795 32.9966 33.8599 32.6678 33.6208C32.2195 33.2921 31.9206 32.6644 31.7413 31.7379C31.6516 31.1701 31.562 29.5262 31.4723 26.7766C31.3827 23.7878 31.293 21.9348 31.2332 21.2773C31.1137 20.2013 30.9045 19.1553 30.6056 18.169C30.6056 17.9 30.7251 17.5115 30.9343 17.0034C30.9642 16.8838 31.024 16.7942 31.0539 16.7942C31.0838 16.7942 31.1436 16.8539 31.1734 16.9436C31.5022 17.6011 31.7712 18.7368 31.9505 20.3209C32.0701 21.3072 32.1597 23.2499 32.2195 26.1788C32.3092 28.9883 32.3391 30.4827 32.3988 30.7218Z" fill="#124D73"/>
<path d="M32.8474 16.2264C34.3119 15.6884 35.8959 15.1205 37.5397 14.5228C37.6294 14.4929 37.6891 14.4929 37.6891 14.4929C37.719 14.5228 37.6891 14.5527 37.6891 14.6423C37.5995 14.8814 37.5098 15.001 37.45 15.0608C36.0453 15.5688 34.4314 16.1965 32.5784 16.9736C32.6382 16.7345 32.7278 16.4954 32.8474 16.2264Z" fill="#124D73"/>
<path d="M38.1072 30.3034C37.8681 29.6159 37.1508 28.7791 35.9553 27.8526C34.6104 26.8065 33.2654 25.7604 31.9205 24.6845C31.8906 24.6546 31.8607 24.5649 31.8607 24.3856C31.8607 24.0569 31.9205 23.6384 32.0699 23.1901C32.1895 22.682 32.309 22.3832 32.4883 22.2337C33.385 21.4268 35.3277 20.3508 38.3164 19.0059C41.3351 17.6609 43.3076 16.9735 44.264 16.9735C44.533 16.9735 44.7422 17.0333 44.8618 17.1528C44.9813 17.2724 45.0112 17.4517 45.0112 17.7506C45.0112 18.3782 44.6227 19.1553 43.8755 20.1117C43.5766 20.4405 43.3076 20.7692 43.0386 21.0681C42.5903 21.6061 42.2915 22.0245 42.1121 22.3533C41.9926 22.5924 41.9328 22.7119 41.9029 22.7119C41.873 22.7119 41.873 22.5625 41.9328 22.2636C41.9627 22.0843 42.0822 21.8153 42.3213 21.4268C42.5306 21.0681 42.6501 20.829 42.7697 20.7095C43.6065 19.7531 44.1445 19.0955 44.2939 18.7966C44.2939 18.7668 44.2939 18.7369 44.2939 18.707C44.2939 18.5277 44.0548 18.438 43.5766 18.438C42.8294 18.438 41.0063 19.0955 38.1969 20.3807C35.3575 21.6957 33.4149 22.7717 32.3688 23.6085C32.309 23.6683 32.309 23.6982 32.3987 23.758C33.1459 24.1166 33.8931 24.5052 34.6104 24.8937C36.3438 25.88 37.898 26.9261 39.213 28.002C40.0499 28.6894 40.6178 29.1377 40.8569 29.2872C41.5144 29.7056 42.142 29.9148 42.7398 29.9148V31.5287C42.142 31.5287 41.604 31.4092 41.1258 31.1103C40.8568 30.931 40.4384 30.6022 39.8706 30.124C39.2728 29.5562 38.7348 29.1078 38.3164 28.8389C38.2267 28.7791 38.167 28.7193 38.1371 28.7193C38.1072 28.7193 38.1371 28.7791 38.1969 28.9285C38.436 29.4665 38.5555 29.8849 38.5555 30.1539C38.5555 31.2896 37.9876 32.2162 36.8519 32.9932C35.8656 33.6508 34.9092 34.0094 33.9229 34.0094V32.3955C34.6701 32.3955 35.4173 32.246 36.1645 31.9173C36.9416 31.5885 37.5692 31.1402 38.0175 30.6022C38.1072 30.4827 38.1371 30.393 38.1072 30.3034Z" fill="#124D73"/>
<path d="M45.5793 11.0558C45.5793 11.1753 45.4298 11.4443 45.1608 11.8329C44.8321 12.2812 44.5332 12.6099 44.2343 12.8192C44.055 12.9387 43.4274 13.1479 42.3813 13.4468C42.1721 13.4767 42.0824 13.5066 42.0824 13.5066C42.1123 13.4767 42.1721 13.4468 42.2916 13.3272C42.4112 13.2077 42.7997 12.9985 43.4274 12.6996C44.0251 12.3708 44.3539 12.1915 44.4435 12.1019C44.4734 12.072 44.4734 12.072 44.4734 12.0421C44.4734 11.9225 43.9653 11.8329 42.9193 11.8329C42.9193 11.8329 42.7101 11.8329 42.3215 11.8329C42.1123 11.8329 42.0226 11.8329 42.0226 11.803C42.0226 11.7731 42.0525 11.7133 42.1123 11.6237L42.5009 10.996C42.6204 10.8167 42.7997 10.6971 43.0986 10.6374C43.1883 10.6075 43.4274 10.6075 43.8159 10.6075C44.9815 10.6673 45.5793 10.7868 45.5793 11.0558Z" fill="#124D73"/>
<path d="M45.131 26.7169C45.131 28.271 44.862 29.4665 44.2941 30.3632C43.8159 31.1104 43.278 31.4989 42.6503 31.4989V29.885C43.1584 29.885 43.6665 29.6758 44.1148 29.2872C44.2643 29.1677 44.324 28.7492 44.324 28.0021C44.324 27.5537 44.2045 25.7605 43.9953 22.6223C43.7861 19.4841 43.6665 17.6311 43.6665 17.0931C43.6665 16.585 43.5768 16.1666 43.4274 15.8378C43.4274 15.6286 43.5768 15.2102 43.8757 14.4929C43.9056 14.4331 43.9355 14.3733 43.9654 14.3733C43.9953 14.3733 44.0252 14.4032 44.0849 14.4929C44.1746 14.6722 44.3838 15.1803 44.6827 15.9873C45.0114 16.8241 45.1908 17.3621 45.2505 17.5713C45.2804 17.7207 45.3103 17.8403 45.3103 17.9001C45.3103 18.1392 45.1011 18.0196 44.6229 17.4816C44.5631 17.392 44.5332 17.4219 44.5332 17.5713C44.5332 17.6012 44.6229 19.0059 44.8321 21.7854C45.0413 24.5351 45.131 26.2088 45.131 26.7169Z" fill="#124D73"/>
<path d="M46.3561 19.6037C46.3561 19.0956 46.2664 18.6771 46.117 18.3484C46.117 18.1691 46.2664 17.7207 46.5653 17.0333C46.5952 16.9437 46.6549 16.9138 46.6549 16.9138C46.6848 16.9138 46.7147 16.9437 46.7745 17.0333C46.8642 17.2126 47.0734 17.7207 47.3722 18.5277C47.701 19.3646 47.8803 19.9025 47.9401 20.1117C47.97 20.2612 47.9999 20.3807 47.9999 20.4704C47.9999 20.7095 47.7907 20.5601 47.3125 20.052C47.2527 19.9623 47.2228 20.0221 47.2228 20.1416C47.2228 20.1715 47.3424 21.8153 47.5815 25.0432C47.8206 28.271 47.9401 30.0942 47.9401 30.4827C47.9401 31.738 47.7608 32.8139 47.3722 33.7405C47.2826 33.9198 47.2228 34.0692 47.163 34.1589C47.0734 34.3083 47.0435 34.3083 47.0435 34.2187C47.0136 34.129 47.0435 33.9198 47.0435 33.6209C47.1033 33.2025 47.1331 32.6944 47.1331 32.1265C47.1331 31.6184 46.9837 29.5263 46.7446 25.8203C46.4756 22.1142 46.3561 20.052 46.3561 19.6037Z" fill="#124D73"/>
<path d="M4.86774 26.9935C4.8377 26.9635 4.8377 26.9334 4.86774 26.9034L5.34851 25.9419C5.37856 25.8818 5.4086 25.8517 5.43865 25.8517C5.49875 25.8517 5.70908 25.9719 6.06966 26.2423C6.43023 26.4827 6.64056 26.663 6.64056 26.6931C6.64056 26.8433 6.46028 27.2039 6.12975 27.7147C6.0997 27.7748 6.03961 27.8048 6.00956 27.7748C5.64899 27.5044 5.25836 27.2339 4.86774 26.9935ZM11.959 27.264C11.959 28.1654 11.7487 28.8565 11.3581 29.3373C10.7271 30.0885 9.76553 30.8096 8.50353 31.5308C6.91099 32.4021 5.43865 32.8529 4.02641 32.8529C2.19349 32.8529 0.931482 31.9514 0.210335 30.1486C0.0901436 29.788 0 29.3373 0 28.7964C0 28.4358 0.0300476 28.0452 0.0901432 27.6846C0.180287 27.1438 0.300478 26.663 0.450717 26.2423C0.510813 26.1222 0.570908 26.0621 0.600956 26.0621C0.631004 26.0621 0.661052 26.1522 0.631004 26.3024C0.570908 26.5729 0.510813 26.8133 0.450717 27.0536C0.360574 27.5344 0.300478 27.8649 0.300478 28.0753C0.300478 28.8265 0.54086 29.5176 1.05167 30.1486C1.74277 30.9899 2.7043 31.4106 3.99636 31.4106C5.13817 31.4106 6.34009 31.1401 7.57205 30.5993C8.59367 30.1786 9.52515 29.6378 10.3364 29.0067C11.0876 28.4358 11.4482 28.0452 11.4482 27.8048C11.4482 27.7748 11.298 27.4443 10.9674 26.8433C10.6069 26.1522 10.3364 25.4611 10.1562 24.8001C10.0961 24.5597 10.0059 24.4094 9.91577 24.3193C9.82563 24.2592 9.79558 24.169 9.79558 24.0789C9.79558 23.9888 9.85568 23.6282 10.0059 22.9671C10.036 22.8469 10.066 22.7868 10.0961 22.7868C10.1261 22.7868 10.1562 22.8169 10.2163 22.877C10.3965 23.0873 10.8172 23.4779 11.4182 24.109C11.5083 24.1991 11.5684 24.2892 11.5684 24.3493C11.5684 24.4094 11.5083 24.4395 11.3881 24.4395C11.2679 24.4395 11.0576 24.4094 10.8172 24.3193C10.8473 24.4094 11.0576 24.8301 11.4482 25.6113C11.8088 26.2423 11.959 26.7832 11.959 27.264Z" fill="#124D73"/>
</svg>
