<svg width="48" height="49" viewBox="0 0 48 49" fill="none" xmlns="http://www.w3.org/2000/svg">
<path d="M8.89032 32.1119L9.48916 30.8682C9.53523 30.776 9.58129 30.73 9.62736 30.73C9.71949 30.73 10.0419 30.9603 10.6408 31.3749C11.2396 31.7895 11.5621 32.0198 11.5621 32.1119C11.5621 32.3883 11.2857 32.9411 10.779 33.7703C10.7329 33.8624 10.6408 33.9085 10.5947 33.8624C10.088 33.4939 9.48916 33.0793 8.79819 32.6647C8.56786 33.1714 8.3836 33.586 8.15328 33.9545C8.10721 34.0467 8.01508 34.0927 7.96902 34.0467C7.37017 33.586 6.77133 33.1714 6.12642 32.7568C6.08036 32.7568 6.08036 32.7108 6.12642 32.6186L6.90952 31.0985C6.95559 31.0064 7.00165 30.9603 7.04772 30.9603C7.09378 30.9603 7.37017 31.1446 7.92295 31.467C8.47573 31.7895 8.75212 31.9277 8.89032 32.1119Z" fill="#124D73"/>
<path d="M15.1093 44.1349C14.2801 44.1349 13.7274 44.0889 13.3588 43.9967C12.5757 43.7664 11.9308 43.2597 11.4241 42.5227C11.1017 41.9699 10.7792 41.4632 10.4567 40.9104C10.1804 40.4497 9.90397 40.2655 9.62758 40.2655C8.75234 40.2655 7.78498 41.0486 6.81761 42.5227C6.63335 42.799 6.35696 43.49 5.89631 44.6416C5.43566 45.7472 5.06714 46.5764 4.69862 47.1291C4.19191 47.9122 3.63913 48.2808 3.04029 48.2808C2.16505 48.2808 1.42801 47.5898 0.829169 46.2078C0.276389 45.0102 0 43.7664 0 42.4766C0 40.9104 0.138195 39.6666 0.46065 38.6993C0.598844 38.3768 0.644909 38.1925 0.737039 38.1925C0.829168 38.1925 0.875234 38.3768 0.829169 38.8375C0.690974 39.8048 0.644908 40.6801 0.644908 41.371C0.644908 44.6877 1.42801 46.346 2.94816 46.346C3.59307 46.346 4.14585 45.8393 4.65256 44.918C5.20534 43.7664 5.71205 42.6148 6.26483 41.4632C6.72548 40.4958 7.32433 39.6666 7.96924 39.0217C8.70628 38.3307 9.30512 37.9622 9.90396 37.9622C10.3646 37.9622 10.7331 38.2386 11.1017 38.7914C11.4241 39.2981 11.7005 39.7588 12.023 40.2655C12.4836 40.8643 12.8982 41.2789 13.3588 41.5092C13.8195 41.7395 14.3723 41.8317 15.1093 41.8317V44.1349Z" fill="#124D73"/>
<path d="M16.8597 31.375C19.0709 30.5919 21.4202 29.7167 23.9077 28.7954C24.0459 28.7493 24.0919 28.7493 24.138 28.7493C24.1841 28.7954 24.138 28.8415 24.138 28.9797C23.9998 29.3021 23.8616 29.5324 23.8156 29.5785C21.7426 30.3155 19.3012 31.2829 16.5373 32.4345C16.5373 32.1121 16.6755 31.7436 16.8597 31.375Z" fill="#124D73"/>
<path d="M22.7559 38.515C22.2952 38.1926 21.466 38.0083 20.2684 38.0083C19.8077 38.0083 19.3931 38.0544 19.0707 38.1004C19.8538 38.6072 20.4066 39.0678 20.729 39.4824C21.3279 39.1599 22.0188 38.7914 22.7559 38.515ZM20.1302 41.8317C18.61 42.8451 17.6887 43.444 17.3202 43.6282C16.5832 43.9968 15.8001 44.2271 15.017 44.2271V41.8317C16.1225 41.8317 17.3663 41.4171 18.7482 40.5419C18.2876 40.0812 17.7808 39.6667 17.182 39.3442C16.6292 39.0678 16.1686 38.8835 15.8922 38.8835C15.3394 38.8835 14.8788 38.9757 14.6024 39.1139C14.5102 39.1599 14.4181 39.206 14.326 39.206C14.2338 39.206 14.1878 39.1599 14.1878 39.0678C14.1878 38.9757 14.2338 38.8835 14.2799 38.7914L15.017 37.1331C15.1551 36.8106 15.8461 36.5342 17.0899 36.2578C18.3336 35.9815 19.4853 35.8433 20.5908 35.8433C22.7559 35.8433 24.4142 36.3039 25.704 37.2713C26.0265 37.5016 26.2107 37.6859 26.2107 37.778C26.2107 37.8241 26.1647 37.9622 26.0725 38.1465L25.3816 39.5285C24.6445 39.8048 23.585 40.2194 22.2952 40.7722C23.0323 41.4632 24.0917 41.8317 25.4737 41.8317V44.2271C24.4142 44.2271 23.585 44.0889 23.0323 43.8586C22.2492 43.5361 21.3279 42.8912 20.1302 41.8317Z" fill="#124D73"/>
<path d="M30.9556 26.1236C31.0477 25.8932 31.0477 25.6629 31.0017 25.4326C30.9556 25.1562 30.8174 25.0641 30.6792 25.0641C30.5871 25.0641 30.495 25.1101 30.3107 25.2023C30.1725 25.2944 30.0804 25.3865 30.0804 25.4326C30.0804 25.6629 30.3568 25.8932 30.9556 26.1236ZM30.495 27.183C29.7579 26.8145 29.3894 26.3999 29.3894 25.9854C29.3894 25.4786 29.6197 25.018 30.0804 24.6034C30.541 24.1888 30.9096 24.0506 31.232 24.1428C31.5084 24.2349 31.6005 24.5113 31.6005 24.9719C31.6005 25.3865 31.5084 25.8472 31.3702 26.3999C31.7387 26.6303 31.969 26.8145 32.0612 26.9527C32.0612 27.137 31.8769 27.4594 31.5545 27.9662C31.4623 27.828 31.232 27.6437 30.8635 27.4134C30.4489 27.9661 29.9422 28.5189 29.2973 28.9335C28.5602 29.4863 27.9153 29.9009 27.3165 30.1312C27.1783 30.1773 26.4873 30.4537 25.1975 30.9143C25.0132 31.0064 24.875 31.0525 24.7829 31.0525C24.7368 31.0525 24.7368 31.0525 24.7368 31.0525C24.7368 31.0064 24.875 30.9143 25.0593 30.7761C26.0267 30.2233 26.948 29.6706 27.8693 29.0717C29.113 28.3807 29.9422 27.7819 30.495 27.183Z" fill="#124D73"/>
<path d="M33.3967 43.0294C33.7192 43.0294 33.9034 42.9373 33.9034 42.707C33.9034 42.4306 33.7192 42.2463 33.3046 42.1081C32.8439 41.9239 32.2451 41.8778 31.4159 42.016C32.0608 42.707 32.7057 43.0294 33.3967 43.0294ZM25.2893 44.2271V41.8317C26.3027 41.8317 27.5925 41.4171 29.1127 40.588C29.0666 40.4037 29.2048 40.2194 29.5272 40.0813C29.8497 39.9431 30.08 39.9891 30.1722 40.1734C31.2317 39.8049 32.1069 39.6206 32.7979 39.6206C33.4888 39.6206 33.9955 39.897 34.4101 40.4498C34.7787 41.0026 35.009 41.7857 35.009 42.707C35.009 43.4901 34.8247 44.0889 34.5023 44.5956C34.1798 45.1023 33.7192 45.3327 33.1664 45.3327C31.9226 45.3327 30.8171 44.3653 29.8036 42.5227C27.8689 43.6283 26.3948 44.2271 25.2893 44.2271Z" fill="#124D73"/>
<path d="M31.5085 15.9432C31.6006 15.7129 31.6006 15.4825 31.5545 15.2522C31.5085 14.9758 31.3703 14.8837 31.2321 14.8837C31.1399 14.8837 31.0478 14.9298 30.8636 15.0219C30.7254 15.114 30.6332 15.2062 30.6332 15.2522C30.6332 15.4365 30.9557 15.6668 31.5085 15.9432ZM31.0939 17.0027C30.3568 16.6342 29.9883 16.2196 29.9883 15.805C29.9883 15.2983 30.2187 14.8376 30.6793 14.4231C31.1399 14.0085 31.5085 13.8703 31.8309 13.9624C32.1073 14.0545 32.1994 14.3309 32.1994 14.7916C32.1994 15.2062 32.1073 15.6668 31.9691 16.2196C32.3376 16.4499 32.568 16.6342 32.6601 16.7724C32.6601 16.9566 32.4758 17.2791 32.1534 17.7858C32.0612 17.6476 31.8309 17.4633 31.4624 17.233C31.0478 17.7858 30.5411 18.3386 29.8962 18.7532C29.1592 19.3059 28.5142 19.7205 27.9154 19.9508C27.7772 19.9969 27.0862 20.2733 25.7964 20.7339C25.6122 20.8261 25.474 20.8721 25.3818 20.8721C25.3358 20.8721 25.3358 20.8721 25.3358 20.8721C25.3358 20.8261 25.474 20.7339 25.6582 20.5958C26.6256 20.043 27.5469 19.4902 28.4682 18.8913C29.7119 18.2004 30.5411 17.5555 31.0939 17.0027Z" fill="#124D73"/>
<path d="M38.0035 40.7722C37.9574 40.7261 37.9574 40.68 38.0035 40.634L38.7866 39.0678C38.8327 38.9756 38.8787 38.9296 38.9248 38.9296C39.0169 38.9296 39.3394 39.1138 39.9382 39.5745C40.5371 39.9891 40.8595 40.2194 40.8595 40.3115C40.8595 40.5879 40.5831 41.1407 40.0303 41.9699C39.9843 42.062 39.8921 42.108 39.8461 42.062C39.2933 41.6013 38.6484 41.1867 38.0035 40.7722Z" fill="#124D73"/>
<path d="M31.8772 35.3365C33.3052 34.7837 35.286 34.0467 37.8196 33.0793C37.2207 33.0333 35.6085 32.8029 33.0288 32.4344C30.7717 32.112 29.4818 31.9277 29.1594 31.9277C28.7909 31.9277 28.6527 31.8356 28.7448 31.6053C28.8369 31.2367 29.0673 30.684 29.3436 29.993H33.4434C34.8254 30.3154 36.5758 30.5918 38.787 30.8682C41.2284 31.1907 43.1631 31.3749 44.499 31.3749C45.0057 31.3749 45.19 31.5131 45.0979 31.7434L44.499 33.4018C44.4069 33.6321 44.1766 33.7703 43.8541 33.7703C42.5643 33.7703 40.952 34.0928 38.9712 34.6916C37.6353 35.1062 36.1152 35.705 34.3647 36.396C33.5356 36.7645 32.7064 37.087 31.8311 37.4555C31.2784 37.6858 30.7717 37.9622 30.311 38.2386C29.8504 38.515 29.62 38.6993 29.62 38.7914C29.62 39.0217 29.7582 39.3902 29.9886 39.943C29.7122 40.4497 29.3897 40.5879 28.9291 40.3576C28.883 40.0812 28.883 39.7587 28.883 39.5284C28.9751 37.5016 29.9425 36.1196 31.8772 35.3365Z" fill="#124D73"/>
<path d="M37.2665 1.01816C37.2665 1.20242 37.0361 1.57094 36.6215 2.16978C36.1148 2.86076 35.6542 3.3214 35.2396 3.64386C34.9632 3.82812 34.0419 4.15057 32.4757 4.56516C32.1993 4.61122 32.0611 4.65729 32.0611 4.65729C32.1072 4.61122 32.1993 4.56516 32.3836 4.42696C32.5678 4.2427 33.1206 3.96631 34.0419 3.4596C34.9171 2.99895 35.4239 2.6765 35.562 2.5383C35.6081 2.49224 35.6081 2.49224 35.6081 2.44617C35.6081 2.26191 34.825 2.16978 33.2588 2.16978C33.2588 2.16978 32.9824 2.16978 32.3836 2.16978C32.0611 2.16978 31.9229 2.16978 31.9229 2.12372C31.9229 2.07765 31.969 1.98552 32.0611 1.89339L32.6139 0.972091C32.7981 0.695702 33.0745 0.511442 33.5352 0.465378C33.6734 0.419313 34.0419 0.419312 34.5947 0.419312C36.3912 0.419312 37.2665 0.603573 37.2665 1.01816Z" fill="#124D73"/>
<path d="M33.4896 31.1908L29.2977 30.1773C29.3898 30.0852 29.9426 29.9009 30.956 29.6245C32.338 29.256 33.4435 28.8875 34.3188 28.519C34.7333 28.3347 34.9637 28.1505 35.0558 27.828C35.1019 27.6438 35.1019 26.7225 35.1019 25.0181C35.1019 24.3271 34.9637 22.116 34.6873 18.3847C34.4109 14.6534 34.2727 12.4423 34.2727 11.7513C34.2727 10.9682 34.1345 10.3694 33.9042 9.86268C33.9042 9.58629 34.1345 8.94138 34.5951 7.88189C34.6412 7.7437 34.6873 7.69763 34.7333 7.69763C34.7794 7.69763 34.8255 7.7437 34.9176 7.88189C35.0097 8.15828 35.3322 8.89532 35.7928 10.1391C36.2535 11.4289 36.5299 12.1659 36.622 12.4884C36.6681 12.7187 36.7141 12.903 36.7141 12.9951C36.7141 13.3176 36.3917 13.1333 35.7007 12.3502C35.6086 12.212 35.5625 12.3041 35.5625 12.4884C35.5625 12.5345 35.7007 14.1007 35.885 17.2331C36.1153 20.3655 36.2074 22.3002 36.2074 23.0833C36.2074 25.1562 36.0692 26.6764 35.885 27.5516C35.5625 29.1178 34.7794 30.3616 33.4896 31.1908Z" fill="#124D73"/>
<path d="M45.6046 22.6687C45.6046 21.8856 45.4664 21.2868 45.2361 20.78C45.2361 20.5037 45.4664 19.8587 45.881 18.7993C45.927 18.6611 46.0192 18.615 46.0192 18.615C46.0652 18.615 46.1113 18.6611 46.2034 18.7993C46.3416 19.0756 46.618 19.8127 47.0787 21.0564C47.5854 22.3463 47.8618 23.1294 47.9078 23.4057C47.9539 23.6361 48 23.8203 48 23.9125C48 24.2349 47.6775 24.0507 46.9865 23.2675C46.8944 23.1294 46.8483 23.2215 46.8483 23.4057C46.8483 23.4518 47.0326 25.8933 47.355 30.7301C47.6775 35.5208 47.8618 38.2387 47.8618 38.8375C47.8618 40.6801 47.5854 42.3384 47.0326 43.7204C46.8944 43.9968 46.8023 44.181 46.7562 44.3192C46.618 44.5035 46.5719 44.5496 46.5719 44.4114C46.5259 44.2732 46.5719 43.9507 46.5719 43.4901C46.6641 42.8452 46.7101 42.1081 46.7101 41.2789C46.7101 40.4958 46.5259 37.3634 46.1113 31.8817C45.7888 26.446 45.6046 23.3597 45.6046 22.6687Z" fill="#124D73"/>
</svg>
