<svg width="48" height="49" viewBox="0 0 48 49" fill="none" xmlns="http://www.w3.org/2000/svg">
<path d="M2.92959 45.1428C2.16339 45.1428 1.48733 44.7822 0.901413 44.1062C0.315494 43.3851 0 42.5287 0 41.4921C0 40.0949 0.585917 38.2019 1.75775 35.9484C1.89297 35.723 1.98311 35.5878 2.02818 35.5878C2.07325 35.5878 2.07325 35.6329 2.07325 35.678C2.07325 35.9033 1.80282 36.7146 1.30705 38.0667C0.81127 39.4639 0.540848 40.5005 0.540848 41.2667C0.540848 41.8977 0.676059 42.3935 0.946483 42.7541C1.26198 43.1597 1.66761 43.34 2.20846 43.34C3.01973 43.34 4.05636 42.709 5.27326 41.447C6.30989 40.2752 7.30144 39.0583 8.33807 37.8864C10.9071 34.9568 13.2057 33.4695 15.1888 33.4695V35.7681C13.5212 35.7681 11.6282 36.8498 9.55497 38.9681C8.92399 39.6442 8.06764 40.6357 7.03102 41.8977C6.1296 43.0245 5.45355 43.7907 4.95777 44.1963C4.32678 44.8273 3.65072 45.1428 2.92959 45.1428Z" fill="#124D73"/>
<path d="M25.8708 19.3173C25.8708 19.4976 25.6454 19.8582 25.2398 20.4441C24.744 21.1201 24.2933 21.5709 23.8877 21.8863C23.6172 22.0666 22.7158 22.3821 21.2285 22.7878C20.9581 22.8328 20.8229 22.8779 20.8229 22.8779C20.8679 22.8328 20.9581 22.7878 21.1384 22.6525C21.3186 22.5173 21.8595 22.2018 22.7609 21.7511C23.6172 21.3004 24.068 20.9849 24.2482 20.8948C24.2933 20.8497 24.2933 20.8497 24.2933 20.8047C24.2933 20.6244 23.5271 20.5342 22.0398 20.5342C22.0398 20.5342 21.7694 20.5342 21.1834 20.5342C20.913 20.5342 20.7327 20.5342 20.7327 20.4892C20.7327 20.4441 20.7778 20.3539 20.8679 20.2638L21.4088 19.3624C21.544 19.092 21.8595 18.9117 22.2651 18.8666C22.4003 18.8215 22.7609 18.8215 23.3018 18.8215C24.9694 18.7314 25.8708 18.9568 25.8708 19.3173Z" fill="#124D73"/>
<path d="M23.3017 28.7371L23.8876 27.5652C23.9327 27.4751 23.9777 27.43 24.0228 27.43C24.1129 27.43 24.4284 27.6103 25.0144 28.0159C25.6003 28.4216 25.9158 28.6469 25.9158 28.7371C25.9158 29.0075 25.6453 29.5483 25.1496 30.3596C25.1045 30.4498 25.0144 30.4948 24.9693 30.4498C24.4735 30.0892 23.8876 29.6836 23.2566 29.2779C23.0313 29.7737 22.851 30.1793 22.6256 30.4948C22.5805 30.63 22.4904 30.63 22.4453 30.585C21.8594 30.1343 21.2735 29.7286 20.6425 29.323C20.5974 29.323 20.5974 29.2779 20.6425 29.1878L21.4087 27.6554C21.4538 27.5652 21.4988 27.5202 21.5439 27.5202C21.589 27.5202 21.8594 27.7004 22.4003 28.0159C22.9411 28.3314 23.1214 28.5568 23.3017 28.7371Z" fill="#124D73"/>
<path d="M21.228 26.3934C21.1829 26.3934 21.1829 26.3483 21.228 26.2582L21.9491 24.7258C21.9942 24.6356 22.0392 24.5905 22.0843 24.5905C22.1744 24.5905 22.4899 24.7708 23.0759 25.1765C23.6618 25.5821 23.9322 25.8075 23.9322 25.8976C23.9322 26.168 23.6618 26.7089 23.166 27.5201C23.1209 27.6103 23.0308 27.6553 22.9857 27.5652C22.4449 27.2046 21.8589 26.7539 21.228 26.3934Z" fill="#124D73"/>
<path d="M19.6059 35.4977C20.4172 35.4977 21.0031 35.3174 21.4989 34.9118C21.544 34.8667 21.9045 34.5061 22.5806 33.8301C23.1665 33.1991 23.482 32.8836 23.5271 32.8836C23.6623 32.8836 23.7073 33.0188 23.6172 33.2892C23.482 33.6498 23.4369 33.8751 23.4369 34.0103C23.4369 34.2808 23.5721 34.5512 23.7524 34.9118C24.0228 35.3625 24.4285 35.5878 24.9243 35.5878C26.1862 35.5878 27.2679 34.6864 28.1693 32.8836C28.2595 32.7033 28.3947 32.6132 28.4848 32.6132C28.575 32.6132 28.62 32.7033 28.62 32.8836C28.62 32.9287 28.62 33.0639 28.575 33.1991C28.575 33.3343 28.575 33.4244 28.575 33.5146C28.575 34.0554 28.7553 34.5061 29.0707 34.8216C29.3862 35.1371 29.7919 35.3174 30.3327 35.3174V37.616C29.1609 37.616 28.3496 36.8949 27.8088 35.4075C27.7637 35.2273 27.6736 35.2273 27.5834 35.4075C26.9074 37.0752 26.0059 37.9315 24.789 37.9315C23.5721 37.9315 22.8059 37.1653 22.5806 35.6329C22.5806 35.4977 22.5355 35.4526 22.5355 35.4526C22.4904 35.4526 22.4454 35.5427 22.4003 35.6329C21.4989 37.1202 20.5073 37.8414 19.4256 37.8414C18.7045 37.8414 18.1186 37.6611 17.6228 37.3005C17.2172 36.985 16.8566 36.6695 16.496 36.3089C16.0904 35.9484 15.6397 35.7681 15.189 35.7681V33.4695C15.9101 33.4695 16.6313 33.8301 17.4425 34.5061C18.2087 35.1371 18.9299 35.4977 19.6059 35.4977Z" fill="#124D73"/>
<path d="M27.3128 21.3455C29.4312 20.5793 31.7298 19.768 34.1185 18.8666C34.2537 18.8215 34.2988 18.8215 34.3439 18.8215C34.3889 18.8666 34.3439 18.9117 34.3439 19.0469C34.2086 19.3624 34.0734 19.5877 34.0284 19.6328C32.0002 20.3539 29.6565 21.3004 26.9523 22.3821C26.9973 22.0666 27.1326 21.7061 27.3128 21.3455Z" fill="#124D73"/>
<path d="M45.3412 31.7118L44.4849 33.3343C44.3947 33.5146 44.3046 33.6048 44.1694 33.6048C41.6004 33.6048 39.3468 34.0104 37.4539 34.7766C37.0032 34.9569 35.8313 35.5879 33.8482 36.5794C32.5412 37.3006 31.2792 37.6611 30.0623 37.616V35.3174C31.9102 35.2724 34.1637 34.5062 36.8229 33.0639C34.4341 32.6583 32.0454 32.3879 29.7017 32.2076C29.251 32.1625 29.0257 32.1174 29.0257 32.0273C29.0257 32.0273 29.0257 31.9822 29.0707 31.9372C29.251 31.5315 29.5214 30.9907 29.882 30.3146H33.8482C34.344 30.4047 35.7412 30.6301 37.9497 30.9456C40.7891 31.3062 43.0426 31.4864 44.7102 31.4864C45.1609 31.4864 45.3863 31.5315 45.3863 31.6217C45.4314 31.5766 45.3863 31.6667 45.3412 31.7118Z" fill="#124D73"/>
<path d="M37.6793 3.72287C37.6793 3.90315 37.4539 4.26372 37.0483 4.84963C36.5525 5.52569 36.1018 5.9764 35.6961 6.2919C35.4257 6.47218 34.5243 6.78767 33.037 7.19331C32.7666 7.23838 32.6313 7.28345 32.6313 7.28345C32.6764 7.23838 32.7666 7.19331 32.9468 7.05809C33.1271 6.92288 33.668 6.60739 34.5694 6.15668C35.4257 5.70598 35.8764 5.39048 36.0567 5.30034C36.1018 5.25527 36.1018 5.25527 36.1018 5.2102C36.1018 5.02992 35.3356 4.93978 33.8482 4.93978C33.8482 4.93978 33.5778 4.93978 32.9919 4.93978C32.7215 4.93978 32.5412 4.93978 32.5412 4.8947C32.5412 4.84963 32.5863 4.75949 32.6764 4.66935L33.2173 3.76794C33.3525 3.49752 33.668 3.31723 34.0736 3.27216C34.2088 3.22709 34.5694 3.22709 35.1102 3.22709C36.8229 3.13695 37.6793 3.3623 37.6793 3.72287Z" fill="#124D73"/>
<path d="M34.0285 31.1708L29.9721 30.1793C30.0622 30.0891 30.6031 29.9088 31.5496 29.6384C32.8566 29.2779 33.9383 28.9173 34.7947 28.5567C35.2003 28.4215 35.4257 28.1962 35.5158 27.8807C35.5609 27.7004 35.5609 26.799 35.5609 25.1314C35.5609 24.4553 35.4257 22.2919 35.1552 18.6863C34.8848 15.0355 34.7496 12.9172 34.7496 12.2862C34.7496 11.5651 34.6144 10.9341 34.389 10.4834C34.389 10.213 34.6144 9.58199 35.0651 8.54536C35.1102 8.41015 35.1552 8.36508 35.2003 8.36508C35.2454 8.36508 35.2904 8.41015 35.3806 8.54536C35.4707 8.81579 35.7862 9.53692 36.2369 10.7088C36.6876 11.9257 36.9581 12.6919 37.0482 12.9623C37.0933 13.1876 37.1383 13.3679 37.1383 13.4581C37.1383 13.7736 36.8228 13.5933 36.1468 12.8271C36.0566 12.6919 36.0116 12.782 36.0116 12.9623C36.0116 13.0074 36.1468 14.5398 36.3271 17.5595C36.5524 20.5792 36.6426 22.4722 36.6426 23.2384C36.6426 25.2666 36.5074 26.7088 36.3271 27.5652C36.0116 29.1877 35.2454 30.3595 34.0285 31.1708Z" fill="#124D73"/>
<path d="M45.7015 18.8216C45.7015 18.1005 45.5663 17.4695 45.341 17.0188C45.341 16.7483 45.5663 16.1174 45.972 15.0807C46.017 14.9455 46.1072 14.9005 46.1072 14.9005C46.1522 14.9005 46.1973 14.9455 46.2424 15.0807C46.3776 15.3512 46.648 16.0723 47.0987 17.2441C47.5494 18.461 47.8649 19.2272 47.91 19.4977C47.9551 19.723 48.0001 19.9033 48.0001 19.9934C48.0001 20.3089 47.6846 20.1286 47.0086 19.3624C46.9184 19.2272 46.8734 19.3174 46.8734 19.4977C46.8734 19.5427 47.0537 21.9315 47.3692 26.6188C47.6846 31.3062 47.8649 33.9203 47.8649 34.5062C47.8649 36.309 47.5945 37.8865 47.0537 39.2386C46.9184 39.509 46.8283 39.6893 46.7832 39.8245C46.648 40.0048 46.603 40.0499 46.603 39.9147C46.5579 39.7794 46.603 39.4639 46.603 39.0583C46.6931 38.4273 46.7382 37.7062 46.7382 36.8949C46.7382 36.1738 46.5579 33.109 46.1522 27.7907C45.8818 22.4723 45.7015 19.4977 45.7015 18.8216Z" fill="#124D73"/>
</svg>
