<svg width="49" height="49" viewBox="0 0 49 49" fill="none" xmlns="http://www.w3.org/2000/svg">
<path d="M3.84647 44.8619C6.17787 44.8591 8.69465 43.9234 11.3968 42.055C13.4933 40.607 15.1701 39.1129 16.3339 37.5261C16.7063 37.0127 16.8925 36.7794 16.8924 36.7328C17.032 36.4994 17.0783 36.173 17.0778 35.7533C17.0766 34.7741 16.7949 33.2358 16.2328 31.0916C15.8112 29.4601 14.8289 26.9434 13.2861 23.588C13.2394 23.4948 13.2855 23.0751 13.4245 22.3289C13.5169 21.6294 13.6561 21.1163 13.7023 20.7898C13.7952 20.4167 13.935 20.3699 14.1218 20.6028C15.9432 23.0253 17.2994 26.3342 18.1906 30.6229C18.5659 32.5342 19.0355 35.1914 19.6458 38.5945C19.8807 40.0863 20.3948 41.0183 21.0947 41.4837C21.468 41.7164 22.0278 41.8556 22.7738 41.8547L22.7776 44.9788C21.6585 44.9801 20.8189 44.748 20.2122 44.2825C19.3255 43.6307 18.7178 42.4192 18.4359 40.6476C18.2952 39.995 18.1073 38.7829 17.8252 36.9181C17.5939 38.4105 17.0358 39.6235 16.2909 40.557C14.7545 42.4706 12.8914 44.1049 10.7016 45.5064C8.18559 47.0948 5.90184 47.9368 3.80358 47.9394C2.68451 47.9408 1.84464 47.4755 1.28397 46.5436C0.816785 45.7981 0.582511 44.8659 0.581151 43.7468C0.578486 41.5553 1.0421 39.3632 1.97188 37.0773C2.15777 36.5642 2.29737 36.3308 2.43726 36.3307C2.48388 36.3306 2.48394 36.3772 2.48411 36.5171C2.48428 36.657 2.43794 36.8902 2.34508 37.2167C1.69501 39.4557 1.37071 41.1813 1.37213 42.347C1.32754 44.0257 2.16786 44.8639 3.84647 44.8619Z" fill="#124D73"/>
<path d="M18.8815 23.861C21.7712 22.8316 24.8473 21.7088 28.1098 20.4925C28.2962 20.4457 28.3894 20.3989 28.3895 20.4455C28.4362 20.4921 28.4363 20.5854 28.3432 20.7254C28.1572 21.1919 28.0176 21.4252 27.8779 21.5186C25.1746 22.5011 21.9588 23.764 18.3237 25.2605C18.463 24.8406 18.649 24.3741 18.8815 23.861Z" fill="#124D73"/>
<path d="M25.6034 29.6813C25.6039 30.0543 25.5111 30.4741 25.3718 30.9405C25.1393 31.5004 24.8133 31.7805 24.4403 31.781C23.8341 31.7817 23.4139 31.3626 23.1798 30.5702C22.9013 31.5963 22.3891 32.1565 21.643 32.1574C21.3633 32.1577 21.13 32.0181 20.8965 31.7387C20.6629 31.3659 20.5225 30.9464 20.5219 30.4335L20.5203 29.1279C20.5202 29.0347 20.4268 28.9415 20.2869 28.8951C20.1469 28.8486 20.0536 28.7555 20.0533 28.569C20.053 28.2892 20.1925 28.0093 20.4253 27.7292C20.6582 27.4958 20.798 27.4024 20.8912 27.4023C21.0311 27.4021 21.1247 27.6817 21.1254 28.2413C21.1258 28.5677 21.126 28.8008 21.0796 28.9874C21.0332 29.1739 20.9868 29.3605 20.987 29.5004C20.9874 29.8268 21.081 30.1065 21.1746 30.3395C21.3148 30.6657 21.5015 30.8054 21.7347 30.8051C22.0144 30.8047 22.294 30.6645 22.5269 30.4311C22.7597 30.1977 22.8992 29.8711 22.8989 29.5913C22.8987 29.4048 22.8516 29.0319 22.7111 28.5657C22.6173 28.0996 22.5236 27.7733 22.5235 27.68C22.5234 27.5868 22.5698 27.4002 22.6628 27.167C22.7558 26.9337 22.8489 26.8403 22.8955 26.8403C22.9888 26.8402 23.1291 27.1664 23.2697 27.819C23.4104 28.4716 23.5042 28.9378 23.5046 29.2176C23.5057 30.1035 23.8326 30.5228 24.532 30.5219C24.8584 30.5215 24.9981 30.3815 25.091 30.1016C24.5302 29.0764 24.2496 28.3307 24.2489 27.7712C24.2485 27.4914 24.3415 27.2115 24.481 26.9316C24.574 26.745 24.6672 26.6982 24.7139 26.6982C24.7605 26.6981 24.8072 26.7913 24.8075 27.0245C24.8545 27.3042 24.9014 27.5373 24.9482 27.7237C24.9949 27.7237 25.1352 28.0965 25.4158 28.7956C25.5562 29.1685 25.6031 29.4482 25.6034 29.6813Z" fill="#124D73"/>
<path d="M33.2669 43.4273C33.7332 43.4267 33.9661 43.2866 33.9658 43.0068C33.9654 42.6804 33.6853 42.401 33.1722 42.2151C32.5657 41.9827 31.773 41.937 30.7007 42.0782C31.4945 42.9632 32.3343 43.4284 33.2669 43.4273ZM22.591 44.979L22.5872 41.8549C23.9394 41.8533 25.6173 41.2917 27.621 40.2168C27.5275 39.9838 27.7137 39.7504 28.1331 39.5634C28.5525 39.3764 28.8324 39.4227 28.9725 39.6556C30.3708 39.1877 31.5362 38.9531 32.4222 38.952C33.3081 38.9509 34.008 39.3231 34.5218 40.0685C35.0356 40.814 35.2699 41.7929 35.2714 43.0052C35.2726 44.031 35.0405 44.824 34.6216 45.4773C34.2027 46.1306 33.597 46.4577 32.8509 46.4586C31.219 46.4606 29.772 45.2034 28.4167 42.7338C26.0405 44.2288 24.0831 44.9772 22.591 44.979Z" fill="#124D73"/>
<path d="M23.2078 15.3694C26.0975 14.34 29.1736 13.2172 32.4361 12.0009C32.6225 11.9541 32.7157 11.9073 32.7158 11.954C32.7625 12.0005 32.7626 12.0938 32.6695 12.2338C32.4836 12.7003 32.344 12.9336 32.2042 13.027C29.501 14.0095 26.2852 15.2724 22.65 16.7689C22.7894 16.3491 22.9753 15.8826 23.2078 15.3694Z" fill="#124D73"/>
<path d="M31.2034 33.4981C33.0677 32.7964 35.6777 31.814 39.0334 30.551C38.2406 30.4587 36.142 30.1815 32.7376 29.7193C29.7529 29.3033 28.074 29.0722 27.6543 29.0727C27.1414 29.0733 26.9547 28.9337 27.0943 28.6537C27.2335 28.1407 27.4659 27.4876 27.8844 26.5545L33.2466 26.548C35.0189 26.9189 37.3508 27.3357 40.2422 27.7052C43.4601 28.1676 45.9783 28.3976 47.7502 28.3955C48.403 28.3947 48.6363 28.5343 48.5434 28.8608L47.7534 31.0067C47.6605 31.3332 47.3809 31.4734 46.9146 31.474C45.236 31.476 43.0916 31.8983 40.4814 32.6941C38.7102 33.2558 36.7062 34.0043 34.4225 34.9396C33.3506 35.4072 32.2321 35.8748 31.1136 36.2959C30.3679 36.6232 29.7155 36.9504 29.1098 37.3241C28.5041 37.6979 28.2246 37.9314 28.2248 38.0712C28.2251 38.351 28.4123 38.8637 28.7395 39.5627C28.4139 40.2159 27.9479 40.403 27.388 40.1239C27.3409 39.7509 27.3404 39.3779 27.2934 39.0049C27.3834 36.3936 28.6401 34.527 31.2034 33.4981Z" fill="#124D73"/>
<path d="M41.7525 4.57575C41.8454 4.29586 41.8916 3.96941 41.8446 3.6897C41.751 3.36342 41.6109 3.17708 41.3777 3.17736C41.2845 3.17747 41.1446 3.22427 40.9117 3.36444C40.7253 3.50455 40.6322 3.59792 40.6323 3.69117C40.5859 3.87774 40.9593 4.20369 41.7525 4.57575ZM41.1479 5.92869C40.1681 5.41698 39.7012 4.90464 39.7005 4.3451C39.6997 3.69231 40.0254 3.08575 40.6309 2.52547C41.2364 1.9652 41.749 1.77807 42.1689 1.91744C42.4954 2.05693 42.6824 2.42972 42.6831 2.98926C42.6838 3.5488 42.5912 4.15507 42.359 4.85478C42.8256 5.13398 43.1523 5.41335 43.2458 5.59975C43.2461 5.83289 43.0135 6.29945 42.5946 6.90612C42.4545 6.71978 42.1744 6.48698 41.7078 6.20778C41.1492 6.95451 40.4972 7.65472 39.6586 8.21528C38.7269 8.91583 37.8417 9.47644 37.0494 9.8038C36.863 9.89729 35.9774 10.2248 34.2996 10.833C34.0199 10.9266 33.8335 10.9734 33.7402 10.9735C33.6936 10.9736 33.6469 10.9736 33.6469 10.927C33.6468 10.8338 33.7865 10.7403 34.1127 10.5534C35.3708 9.80585 36.5822 9.05833 37.8402 8.31075C39.3314 7.51626 40.4494 6.67559 41.1479 5.92869Z" fill="#124D73"/>
<path d="M31.5673 26.177C31.2878 26.4105 30.8685 26.7374 30.3562 27.2043L27.7445 26.7878C28.0237 26.3212 28.769 25.6675 29.9335 24.7335C32.7751 22.4919 35.5242 20.9032 38.1344 20.0607C37.9475 19.7345 37.667 19.1754 37.3398 18.4763C37.1529 18.1502 37.0591 17.684 37.0584 17.1711C37.0575 16.3784 37.2898 15.6787 37.6621 15.1187C38.1742 14.4187 38.8732 14.0914 39.8524 14.0902C40.5984 14.0893 41.6714 14.5543 43.0715 15.5318C44.5182 16.5559 45.2652 17.3942 45.266 18.047C45.0806 18.9332 44.8018 19.7728 44.4764 20.5193C43.3111 20.8937 41.8662 21.3151 40.1882 21.8767C40.2361 22.8558 40.1434 23.3222 39.9102 23.3225C39.7237 23.3227 39.5367 22.95 39.3028 22.2508C38.557 22.4849 37.4385 22.9525 36.0871 23.6069C34.1298 24.4953 32.5921 25.3831 31.5673 26.177ZM41.956 18.5173C41.9557 18.2842 41.5357 17.9583 40.6959 17.5863C39.8562 17.2143 39.1565 17.0287 38.597 17.0293C38.2706 17.0297 38.1308 17.1232 38.1776 17.263C38.3647 17.729 38.6919 18.4281 39.2528 19.4998C40.6511 19.0318 41.5832 18.7043 41.956 18.5173Z" fill="#124D73"/>
</svg>
