<svg width="49" height="49" viewBox="0 0 49 49" fill="none" xmlns="http://www.w3.org/2000/svg">
<path d="M22.714 17.7176L23.3467 16.4523C23.3862 16.3337 23.4653 16.2942 23.5048 16.2942C23.5839 16.2942 23.9397 16.4919 24.5724 16.9268C25.205 17.3222 25.5213 17.599 25.5213 17.678C25.5213 17.9548 25.2445 18.5084 24.691 19.4177C24.6119 19.5364 24.5724 19.5364 24.4933 19.4968C23.9397 19.1014 23.3467 18.6665 22.6745 18.2316C22.4373 18.7456 22.2396 19.1805 22.0023 19.5364C21.9628 19.655 21.8837 19.6945 21.8046 19.655C21.2116 19.1805 20.5789 18.7456 19.9068 18.3502C19.8673 18.3502 19.8673 18.3107 19.9068 18.2316L20.6976 16.65C20.7371 16.5314 20.8162 16.4919 20.8557 16.4919C20.9348 16.4919 21.2116 16.65 21.7256 17.0059C22.2396 17.3617 22.5559 17.5594 22.714 17.7176Z" fill="#124D73"/>
<path d="M20.5396 15.2265C20.5001 15.2265 20.5001 15.1869 20.5396 15.1079L21.3304 13.5263C21.3699 13.4077 21.449 13.3682 21.4885 13.3682C21.5676 13.3682 21.9235 13.5659 22.5561 14.0008C23.1887 14.4357 23.4655 14.6729 23.4655 14.752C23.4655 15.0288 23.1887 15.5823 22.6747 16.4917C22.5956 16.6103 22.5561 16.6103 22.477 16.5708C21.8444 16.0963 21.2118 15.6614 20.5396 15.2265Z" fill="#124D73"/>
<path d="M6.70084 40.215C4.24945 40.215 2.47021 39.3847 1.36312 37.7636C0.493274 36.4983 0.0583496 34.8773 0.0583496 32.9399C0.0583496 32.3072 0.097888 31.7537 0.176965 31.1606C0.33512 30.2512 0.532814 29.4209 0.809585 28.7883C0.888662 28.5511 0.967739 28.4325 1.04682 28.4325C1.12589 28.4325 1.16543 28.5511 1.08635 28.8278C0.730506 30.8839 0.532814 32.0305 0.532814 32.2677C0.532814 33.4934 0.967739 34.64 1.79805 35.668C2.90513 37.0519 4.52622 37.724 6.6613 37.724C8.55916 37.724 10.5361 37.2891 12.6316 36.4193C14.3318 35.7076 15.9133 34.8377 17.2577 33.7702C18.4834 32.8212 19.116 32.1491 19.116 31.7537C19.116 30.5675 18.7601 29.3023 18.0089 27.8789C17.8507 27.6021 17.7717 27.3649 17.7717 27.1672C17.7717 27.0486 17.9298 26.4555 18.2461 25.4275C18.3252 25.2298 18.3647 25.1507 18.4438 25.1507C18.5229 25.1507 18.6415 25.2694 18.7601 25.5461C19.3928 26.8509 20.1835 27.4835 21.172 27.4835C21.8046 27.4835 22.2395 27.444 22.5558 27.3254C23.0303 27.1672 23.5048 26.8509 23.9792 26.3369C24.256 25.9811 24.6909 25.4275 25.284 24.6763C25.4026 24.5181 25.5608 24.4391 25.6794 24.4391C25.8376 24.4391 25.9166 24.5577 25.9166 24.7158C25.9166 24.7949 25.8771 24.9531 25.798 25.1903C25.7189 25.4275 25.6794 25.5857 25.6794 25.7438C25.6794 25.9811 25.798 26.2183 26.0748 26.4951C26.4306 26.8509 26.826 27.0091 27.34 27.0091C28.0913 27.0091 28.882 26.0601 29.7123 24.2018C29.7914 24.0041 29.8705 23.925 29.9891 23.925C30.1868 23.925 30.2263 24.0437 30.1868 24.3204C30.1473 24.5181 30.1473 24.6763 30.1473 24.8344C30.1473 25.9415 30.7799 26.4951 32.0451 26.4951V28.9069C30.8194 28.9069 29.9891 28.2743 29.5542 26.9695C29.5146 26.8114 29.4356 26.8114 29.396 26.9695C28.8029 28.5906 27.9726 29.3814 26.8656 29.3814C26.4702 29.3814 26.0352 29.2628 25.6399 28.9465C25.2049 28.6302 24.8491 28.1952 24.6909 27.6812C24.6514 27.5231 24.5723 27.5231 24.4537 27.6812C24.2165 28.0371 23.8211 28.4325 23.2675 28.8674C22.4768 29.5 21.686 29.7768 20.8952 29.7768C20.5394 29.7768 20.2231 29.7372 19.9858 29.6582C19.9858 31.7537 19.5509 33.2562 18.7206 34.2051C17.653 35.4703 16.0715 36.6565 14.0155 37.8031C11.4455 39.5033 8.99408 40.215 6.70084 40.215Z" fill="#124D73"/>
<path d="M34.9314 6.36994C34.9314 6.56763 34.6941 6.96302 34.2988 7.55609C33.7847 8.26779 33.3103 8.74225 32.8754 9.05856C32.5986 9.25626 31.6497 9.57257 30.0681 10.0075C29.7518 10.047 29.6332 10.0866 29.6332 10.0866C29.6727 10.047 29.7518 9.96795 29.9495 9.84934C30.1472 9.69118 30.7403 9.37487 31.6892 8.86087C32.5986 8.38641 33.0731 8.0701 33.2312 7.95148C33.2707 7.91194 33.2707 7.8724 33.2707 7.83287C33.2707 7.63517 32.48 7.51656 30.8589 7.51656C30.8589 7.51656 30.5426 7.51656 29.9495 7.55609C29.6332 7.59563 29.475 7.55609 29.475 7.51656C29.475 7.47702 29.5146 7.39794 29.5937 7.27932L30.1867 6.3304C30.3449 6.05363 30.6612 5.85593 31.0961 5.81639C31.2543 5.77685 31.6101 5.77686 32.2032 5.77686C34.022 5.77686 34.9314 5.97455 34.9314 6.36994Z" fill="#124D73"/>
<path d="M23.5441 36.3401L24.1767 35.0749C24.2162 34.9563 24.2953 34.9167 24.3348 34.9167C24.4139 34.9167 24.7697 35.154 25.4024 35.5494C26.035 35.9843 26.3513 36.2215 26.3513 36.3006C26.3513 36.5774 26.0745 37.1309 25.521 38.0403C25.4419 38.1589 25.4024 38.1589 25.3233 38.1194C24.7697 37.724 24.1767 37.2891 23.5045 36.8541C23.2673 37.3681 23.0696 37.8031 22.8324 38.1589C22.7928 38.2775 22.7137 38.3171 22.6347 38.2775C22.0416 37.8031 21.409 37.3681 20.7368 36.9728C20.6973 36.9332 20.6973 36.8937 20.7368 36.8146L21.5276 35.2331C21.5671 35.1144 21.6462 35.0749 21.6857 35.0749C21.7648 35.0749 22.0416 35.2331 22.5556 35.5889C23.0696 35.9448 23.3859 36.182 23.5441 36.3401Z" fill="#124D73"/>
<path d="M34.18 25.6251C34.18 25.3879 33.9823 24.9134 33.5869 24.1622C33.1125 23.2133 32.7566 22.4225 32.5589 21.8294C32.124 20.5642 31.8472 19.4176 31.7286 18.3105C31.6495 17.8756 31.61 17.6383 31.61 17.5197C31.5309 17.2825 31.4518 17.0453 31.2542 16.8476C31.3728 16.4522 31.5705 15.9382 31.8077 15.266C31.8868 15.0683 31.9658 14.9497 32.0449 14.9497C32.0845 14.9497 32.2031 15.0683 32.3217 15.266C32.9543 16.1359 33.5079 16.9662 33.9428 17.6779C34.1405 17.9546 34.2195 18.1523 34.2195 18.3105C34.2195 18.3896 34.18 18.4291 34.1009 18.4291C33.9428 18.4291 33.666 18.3105 33.2311 18.0337C33.1915 18.0337 33.152 18.0733 33.1125 18.1128C33.2706 18.6663 33.5079 19.378 33.8242 20.327C34.5359 22.4225 34.8917 23.925 34.8917 24.8739C34.8917 25.7042 34.694 26.5345 34.2986 27.4044C33.7451 28.5115 32.9939 29.065 32.0449 29.065V26.6136C33.1915 26.6136 33.9032 26.2973 34.18 25.6251Z" fill="#124D73"/>
<path d="M33.3105 13.2101C35.5642 12.3798 37.976 11.51 40.5065 10.6006C40.6251 10.5611 40.7042 10.5215 40.7437 10.5611C40.7833 10.6006 40.7833 10.6797 40.7042 10.7983C40.546 11.1541 40.4274 11.3518 40.3484 11.4309C38.2133 12.1821 35.7223 13.1706 32.8755 14.3568C32.9942 13.9614 33.1523 13.6055 33.3105 13.2101Z" fill="#124D73"/>
<path d="M33.6661 38.2777C34.4964 37.3288 35.643 36.4984 36.9873 35.7472C37.8176 35.3123 39.2015 34.6797 41.1784 33.8098V36.024C39.9132 36.538 39.0038 36.9729 38.3712 37.2892C37.1455 37.8428 36.3152 38.3172 35.8407 38.6731C35.0104 39.3057 33.7847 40.5709 32.2031 42.4292C31.2542 43.5363 30.3053 44.0899 29.3564 44.0899C28.526 44.0899 27.8539 43.734 27.2213 42.9828C26.5886 42.2315 26.2723 41.3222 26.2723 40.2151C26.2723 38.7126 26.905 36.7357 28.1307 34.3238C28.2493 34.0866 28.3679 33.968 28.447 33.968C28.4865 34.0075 28.4865 34.0075 28.4865 34.0866C28.4865 34.3238 28.2097 35.1937 27.6957 36.6171C27.1817 38.08 26.905 39.1871 26.905 40.0174C26.905 40.65 27.0631 41.164 27.3399 41.5199C27.6562 41.9548 28.0911 42.1525 28.6447 42.1525C29.6331 42.1525 30.6611 41.6385 31.6891 40.6105C32.3613 39.8197 33.0334 39.0685 33.6661 38.2777Z" fill="#124D73"/>
<path d="M44.3808 14.0009C44.4599 13.7636 44.4994 13.5264 44.4203 13.2892C44.3808 13.0124 44.2622 12.8938 44.0645 12.8938C43.9854 12.8938 43.8668 12.9333 43.7086 13.0124C43.5505 13.131 43.4714 13.1706 43.4714 13.2496C43.4714 13.4869 43.7482 13.7241 44.3808 14.0009ZM43.9063 15.0684C43.1551 14.673 42.7992 14.2776 42.7992 13.8427C42.7992 13.3287 43.0365 12.8543 43.5109 12.4193C43.9854 11.9844 44.3808 11.8262 44.6971 11.9449C44.9739 12.0635 45.0925 12.3403 45.0925 12.7752C45.0925 13.2101 45.0134 13.6846 44.8552 14.2381C45.2111 14.4753 45.4483 14.673 45.5669 14.8312C45.5669 15.0289 45.4088 15.3847 45.0529 15.8592C44.9343 15.701 44.7366 15.5429 44.3412 15.3057C43.9063 15.8987 43.3923 16.4127 42.7597 16.8872C42.0085 17.4407 41.3363 17.8757 40.7432 18.1524C40.6246 18.2315 39.9129 18.4687 38.6081 18.9432C38.4104 19.0223 38.2523 19.0618 38.1732 19.0618C38.1337 19.0618 38.1337 19.0618 38.1337 19.0223C38.1337 18.9827 38.2523 18.8641 38.4895 18.706C39.478 18.1129 40.4269 17.5594 41.3758 16.9663C42.4829 16.2941 43.3528 15.6615 43.9063 15.0684Z" fill="#124D73"/>
<path d="M43.5906 20.8016L44.2232 19.5363C44.2628 19.4177 44.3419 19.3782 44.3814 19.3782C44.4605 19.3782 44.8163 19.6154 45.4489 20.0108C46.0816 20.4457 46.3979 20.6829 46.3979 20.762C46.3979 21.0388 46.1211 21.5923 45.5676 22.5017C45.4885 22.6203 45.4489 22.6203 45.3699 22.5808C44.8163 22.1854 44.2232 21.7505 43.5511 21.3156C43.3139 21.8296 43.1162 22.2645 42.8789 22.6203C42.8394 22.739 42.7603 22.7785 42.6812 22.739C42.0882 22.2645 41.4555 21.8296 40.7834 21.4342C40.7438 21.3946 40.7438 21.3551 40.7834 21.276L41.5742 19.6945C41.6137 19.5759 41.6928 19.5363 41.7323 19.5363C41.8114 19.5363 42.0882 19.6945 42.6022 20.0503C43.1162 20.3666 43.4325 20.6434 43.5906 20.8016Z" fill="#124D73"/>
<path d="M42.0485 26.8115C42.0485 27.2069 42.2857 27.4046 42.7602 27.4046C43.037 27.4046 43.3533 27.3651 43.7091 27.286C44.065 27.2069 44.3417 27.1674 44.4604 27.1674C44.9744 27.1674 45.4488 27.5232 45.8442 28.2744C46.2791 29.0257 46.4768 29.4606 46.4768 29.5792C46.4768 29.6583 46.4373 29.6978 46.3977 29.6978C46.3187 29.6978 46.1605 29.6188 45.8837 29.4606C45.607 29.3025 45.3697 29.2234 45.1325 29.2234C44.9744 29.2234 44.658 29.2629 44.2231 29.3815C43.7487 29.5001 43.3137 29.5397 42.9579 29.5792C42.8788 29.5792 42.7997 29.5792 42.7206 29.5792C42.088 29.5792 41.6136 29.3815 41.2577 28.9466C40.9019 28.5908 40.7437 28.0768 40.7437 27.4441C40.7437 26.5347 41.06 25.6649 41.6531 24.8346C42.2462 24.0043 42.8393 23.6089 43.4719 23.6089C44.579 23.6089 45.607 24.202 46.5559 25.3881C47.5444 26.6138 48.0584 27.9977 48.0584 29.5792C48.0584 31.0422 47.5444 32.2678 46.5559 33.2563C46.121 33.6912 44.3022 34.5611 41.0205 35.9449V33.7308C42.2066 33.2168 43.4323 32.7423 44.6185 32.2283C46.3582 31.4375 47.2281 30.9631 47.2281 30.7654C47.2281 29.5001 46.7931 28.3535 45.9233 27.3255C45.093 26.4161 44.1836 25.9417 43.2742 25.9417C42.9974 25.9417 42.7206 26.0207 42.4439 26.1789C42.1671 26.4952 42.0485 26.6534 42.0485 26.8115Z" fill="#124D73"/>
</svg>
