<svg width="48" height="49" viewBox="0 0 48 49" fill="none" xmlns="http://www.w3.org/2000/svg">
<path d="M7.50001 32.8433C7.45947 32.8027 7.45947 32.7622 7.50001 32.7217L8.1892 31.3027C8.22974 31.2217 8.27028 31.1811 8.31082 31.1811C8.3919 31.1811 8.67568 31.3838 9.24325 31.7487C9.77028 32.1136 10.0541 32.3568 10.0541 32.4379C10.0541 32.6811 9.81082 33.1676 9.32433 33.9379C9.28379 34.019 9.20271 34.0595 9.16217 34.019C8.63514 33.6136 8.06758 33.2081 7.50001 32.8433ZM5.87838 41.7622C3.20271 41.7622 1.33784 40.4244 0.324324 37.7892C0.121621 37.2622 0 36.6136 0 35.8433C0 35.2757 0.0405403 34.7487 0.121621 34.2217C0.243243 33.4109 0.405405 32.7217 0.648649 32.1136C0.72973 31.9109 0.81081 31.7892 0.891892 31.7892C0.932432 31.7892 0.972974 31.9109 0.932433 32.1541C0.851352 32.519 0.77027 32.8838 0.689189 33.2487C0.527026 33.9379 0.445946 34.4244 0.445946 34.7082C0.445946 35.8027 0.810811 36.8163 1.54054 37.7082C2.51352 38.9244 3.97298 39.5325 5.83784 39.5325C7.50001 39.5325 9.20271 39.1271 11.027 38.3568C12.4054 37.7487 13.7433 36.9784 14.9595 36.0055C15.973 35.2352 16.5811 34.6271 16.7838 34.2622C16.7838 33.046 16.4189 31.7892 15.7297 30.4514C15.6081 30.2081 15.5676 29.9649 15.5676 29.8433C15.5676 29.7217 15.7297 29.2352 15.973 28.3433C16.0135 28.1811 16.0541 28.1 16.1351 28.1C16.2162 28.1 16.2973 28.2217 16.4189 28.4649C16.6216 28.9108 16.7433 29.1541 16.8243 29.2352C17.0676 29.4784 17.4324 29.6 17.9189 29.6V31.7487C17.6757 31.7487 17.5135 31.7487 17.3919 31.6676C17.3919 33.1271 17.3108 34.2622 17.1487 35.0325C16.9865 35.8838 16.6622 36.5325 16.2162 36.9379C15.0406 38.1136 13.6216 39.1271 11.9189 40.019C9.77028 41.2352 7.74325 41.7622 5.87838 41.7622Z" fill="#124D73"/>
<path d="M20.716 16.6271C20.7971 16.4244 20.7971 16.2217 20.7566 16.019C20.716 15.7758 20.5944 15.6542 20.4323 15.6542C20.3512 15.6542 20.2701 15.6947 20.1079 15.7758C19.9863 15.8569 19.9052 15.9379 19.9052 15.9785C19.9458 16.1812 20.189 16.3839 20.716 16.6271ZM20.3106 17.5596C19.662 17.2352 19.3377 16.8704 19.3377 16.465C19.3377 16.019 19.5404 15.5731 19.9863 15.2082C20.3917 14.8433 20.7566 14.6812 21.0404 14.8028C21.2836 14.8839 21.4052 15.1271 21.4052 15.5325C21.4052 15.9379 21.3241 16.3434 21.162 16.8298C21.4863 17.0325 21.689 17.1947 21.7701 17.3163C21.7701 17.4785 21.6079 17.8028 21.3241 18.2082C21.2431 18.0866 21.0404 17.9244 20.716 17.7217C20.3512 18.2488 19.8647 18.6947 19.2971 19.1001C18.6485 19.5866 18.0404 19.9515 17.5133 20.1947C17.3917 20.2352 16.7836 20.4785 15.6079 20.8839C15.4052 20.965 15.2836 21.0055 15.2431 21.0055C15.2025 21.0055 15.2025 21.0055 15.2025 21.0055C15.2025 20.965 15.3241 20.8839 15.5268 20.7623C16.3782 20.2758 17.2295 19.7488 18.0809 19.2217C19.0539 18.6542 19.8241 18.0866 20.3106 17.5596Z" fill="#124D73"/>
<path d="M17.9595 36.4513C17.9189 36.4108 17.9189 36.3703 17.9595 36.3297L18.6487 34.9108C18.6892 34.8297 18.7298 34.7892 18.7703 34.7892C18.8514 34.7892 19.1352 34.9919 19.7027 35.3568C20.2298 35.7216 20.5135 35.9649 20.5135 36.0459C20.5135 36.2892 20.2703 36.7757 19.7838 37.5459C19.7433 37.627 19.6622 37.6676 19.6216 37.627C19.0946 37.1811 18.5676 36.8162 17.9595 36.4513Z" fill="#124D73"/>
<path d="M20.3109 28.0189C20.3109 29.2351 20.0676 30.2081 19.5 30.8973C19.0541 31.5054 18.5271 31.7892 17.8784 31.7892V29.6405C18.7298 29.6405 19.2568 29.4378 19.5406 29.0324C19.5406 28.7892 19.3784 28.4243 19.0946 27.9784C18.973 27.7757 18.8919 27.573 18.8919 27.3703C18.8919 27.2487 19.0541 26.7216 19.2973 25.8297C19.3379 25.6676 19.419 25.5865 19.4595 25.5865C19.5406 25.5865 19.6217 25.7081 19.7433 25.9514C20.1081 26.6811 20.3109 27.3703 20.3109 28.0189Z" fill="#124D73"/>
<path d="M24.2435 31.5866C24.4056 32.6001 24.73 33.2487 25.2164 33.573C25.4597 33.7352 25.8651 33.8163 26.3921 33.8163V35.9649C25.6219 35.9649 25.0137 35.8028 24.5678 35.4785C23.9597 35.0325 23.5543 34.1812 23.3516 32.9649C23.23 32.1947 23.1083 29.9649 22.9867 26.2757C22.8651 22.2217 22.7435 19.7487 22.6624 18.8568C22.5002 17.3974 22.2164 15.9784 21.811 14.6811C21.811 14.3163 21.9732 13.7892 22.257 13.1001C22.2975 12.9379 22.3786 12.8568 22.4191 12.8568C22.4597 12.8568 22.5408 12.9379 22.5813 13.0595C23.0273 13.9514 23.3921 15.4514 23.6354 17.6001C23.7975 18.9379 23.9191 21.573 24.0002 25.5055C24.1218 29.1947 24.2029 31.2217 24.2435 31.5866Z" fill="#124D73"/>
<path d="M27.9324 18.8568C29.9189 18.1271 32.027 17.3568 34.2972 16.546C34.4189 16.5054 34.4999 16.5054 34.4999 16.5054C34.5405 16.546 34.4999 16.5865 34.4999 16.7081C34.3783 17.0325 34.2567 17.1946 34.1756 17.2757C32.3108 17.9649 30.1216 18.8162 27.5675 19.8703C27.6486 19.5054 27.7702 19.1811 27.9324 18.8568Z" fill="#124D73"/>
<path d="M29.7162 25.546C29.6757 25.5055 29.6757 25.4649 29.7162 25.4244L30.4054 24.0055C30.4459 23.9244 30.4865 23.8839 30.527 23.8839C30.6081 23.8839 30.8919 24.0866 31.4594 24.4514C31.9865 24.8163 32.2703 25.0595 32.2703 25.1406C32.2703 25.3839 32.027 25.8703 31.5405 26.6406C31.5 26.7217 31.4189 26.7622 31.3784 26.7217C30.8919 26.3163 30.3243 25.9109 29.7162 25.546Z" fill="#124D73"/>
<path d="M33.2431 30.8163C32.8377 30.5325 32.0674 30.3703 31.0134 30.3703C30.608 30.3703 30.2431 30.4109 29.9188 30.4514C30.608 30.9379 31.0945 31.3433 31.4188 31.7082C31.9863 31.3838 32.5945 31.0595 33.2431 30.8163ZM30.8917 33.7757C29.5134 34.7082 28.7026 35.2352 28.3782 35.3973C27.689 35.7622 26.9999 35.9244 26.2701 35.9244V33.7757C27.2836 33.7757 28.4188 33.4109 29.635 32.6406C29.2296 32.1946 28.7431 31.8298 28.2161 31.546C27.689 31.3027 27.3242 31.1406 27.0809 31.1406C26.5539 31.1406 26.189 31.2217 25.9458 31.3838C25.8647 31.4244 25.7836 31.4649 25.7026 31.4649C25.6215 31.4649 25.5809 31.4244 25.5809 31.3433C25.5809 31.2622 25.6215 31.1811 25.662 31.1L26.3107 29.6C26.4323 29.3163 27.0404 29.073 28.1755 28.8298C29.3107 28.5865 30.3242 28.4649 31.3377 28.4649C33.2836 28.4649 34.8242 28.9109 35.9593 29.7217C36.2431 29.9244 36.4053 30.0865 36.4053 30.1676C36.4053 30.2081 36.3647 30.3298 36.2836 30.4919L35.635 31.7487C34.9458 31.9919 34.0134 32.3568 32.8377 32.8838C33.5269 33.5325 34.4593 33.8163 35.7161 33.8163V35.9649C34.7836 35.9649 34.0134 35.8433 33.5269 35.6406C32.7972 35.3568 31.9458 34.7487 30.8917 33.7757Z" fill="#124D73"/>
<path d="M32.4731 9.28922C34.4596 8.55949 36.5677 7.78922 38.838 6.97841C38.9596 6.93787 39.0407 6.93787 39.0407 6.93787C39.0813 6.97841 39.0407 7.01895 39.0407 7.14057C38.9191 7.46489 38.7975 7.62706 38.7164 7.70814C36.8515 8.39733 34.6623 9.24868 32.1083 10.3027C32.1894 9.97841 32.311 9.65409 32.4731 9.28922Z" fill="#124D73"/>
<path d="M37.419 14.1135C37.419 14.3568 37.3784 14.6811 37.2568 14.9649C37.0946 15.3703 36.8919 15.5325 36.6081 15.5325C36.2027 15.5325 35.919 15.2487 35.7568 14.6811C35.5541 15.4108 35.2298 15.7757 34.7027 15.7757C34.5 15.7757 34.3379 15.6946 34.2163 15.4919C34.0541 15.2487 33.973 14.9649 33.973 14.6V13.7081C33.973 13.6271 33.9325 13.5865 33.8108 13.546C33.6892 13.5054 33.6487 13.4649 33.6487 13.3027C33.6487 13.1 33.7298 12.9379 33.8919 12.7352C34.0541 12.573 34.1352 12.4919 34.2163 12.4919C34.3379 12.4919 34.3784 12.6946 34.3784 13.0595C34.3784 13.2622 34.3784 13.4244 34.3379 13.5865C34.2973 13.7081 34.2973 13.8298 34.2973 13.9108C34.2973 14.1541 34.3379 14.3162 34.419 14.519C34.5 14.7622 34.6217 14.8433 34.7838 14.8433C34.9865 14.8433 35.1487 14.7622 35.3108 14.6C35.473 14.4379 35.5541 14.2352 35.5541 13.9919C35.5541 13.8703 35.5135 13.6271 35.4325 13.3027C35.3514 12.9784 35.3108 12.7757 35.3108 12.6946C35.3108 12.6135 35.3514 12.4919 35.4325 12.3703C35.5135 12.2081 35.5541 12.1271 35.5946 12.1271C35.6757 12.1271 35.7568 12.3298 35.8379 12.7757C35.919 13.2217 36 13.546 36 13.7487C36 14.3568 36.2433 14.6811 36.6892 14.6406C36.8919 14.6406 37.0136 14.5595 37.0541 14.3568C36.6487 13.6676 36.446 13.1406 36.446 12.7352C36.446 12.5325 36.4865 12.3298 36.6081 12.1676C36.6892 12.046 36.7298 12.0054 36.7703 12.0054C36.8108 12.0054 36.8108 12.0865 36.8514 12.2487C36.8514 12.4514 36.8919 12.6135 36.9325 12.7352C36.9325 12.7352 37.0541 12.9784 37.2568 13.4649C37.3784 13.7081 37.419 13.9514 37.419 14.1135Z" fill="#124D73"/>
<path d="M35.5947 21.0459L36.1218 19.9108C36.1623 19.8297 36.2028 19.7892 36.2434 19.7892C36.3245 19.7892 36.6488 19.9919 37.1758 20.3568C37.7434 20.7216 37.9866 20.9649 37.9866 21.0054C37.9866 21.2486 37.7434 21.7351 37.2569 22.5054C37.2164 22.5865 37.1353 22.627 37.0542 22.5865C36.5677 22.2216 36.0407 21.8568 35.4326 21.4919C35.2299 21.9378 35.0272 22.3432 34.8245 22.627C34.7839 22.7081 34.7028 22.7486 34.6623 22.7081C34.1353 22.3027 33.5677 21.8973 33.0001 21.5324C32.9596 21.5324 32.9596 21.4919 33.0001 21.4108L33.6893 20.0324C33.7299 19.9513 33.7704 19.9108 33.8109 19.9108C33.8515 19.9108 34.1353 20.073 34.5812 20.3568C35.0272 20.6405 35.4731 20.9243 35.5947 21.0459Z" fill="#124D73"/>
<path d="M37.6622 33.1271C37.5 34.019 37.2162 34.7082 36.8108 35.2352C36.4054 35.7217 36 35.965 35.5541 35.965V33.8163C36.6081 33.8163 37.1757 33.3298 37.1757 32.3974C37.1757 32.1542 37.0946 31.5866 36.8919 30.6542C36.6487 29.6812 36.446 28.8704 36.2433 28.2217C36.1622 27.8974 36.0811 27.7352 36.0811 27.7352C36.0811 26.9244 36.2027 26.2758 36.446 25.7893C36.5271 25.5866 36.6081 25.465 36.6081 25.465C36.6487 25.465 36.6892 25.546 36.7703 25.7082C37.2568 26.6406 37.7027 28.2623 38.1081 30.5325C38.3514 31.9109 38.6757 32.8433 39.1622 33.2893C39.4865 33.6136 39.9325 33.7758 40.5406 33.7758V35.9244C39.8919 35.9244 39.2838 35.7217 38.7568 35.2758C38.1892 34.7488 37.7838 34.0596 37.6622 33.1271Z" fill="#124D73"/>
<path d="M43.6624 29.4784C43.6624 31.546 43.2975 33.1676 42.5272 34.3838C41.8786 35.3973 41.1488 35.8838 40.2975 35.8838V33.7352C40.9867 33.7352 41.6353 33.4919 42.284 32.9244C42.4867 32.7622 42.5678 32.1946 42.5678 31.2216C42.5678 30.6135 42.4056 28.1811 42.1218 23.9649C41.838 19.7081 41.6759 17.2351 41.6759 16.5054C41.6759 15.8162 41.5542 15.2487 41.3515 14.8027C41.3515 14.5595 41.5542 13.9514 41.9596 12.9784C42.0002 12.8973 42.0407 12.8162 42.0813 12.8162C42.1218 12.8162 42.1624 12.8568 42.2434 12.9784C42.3651 13.2216 42.6488 13.9108 43.0542 15.0054C43.5002 16.1406 43.7434 16.8703 43.8245 17.1135C43.8651 17.3162 43.9056 17.4784 43.9056 17.5595C43.9056 17.8838 43.6218 17.7216 42.9732 17.0324C42.8921 16.9108 42.8515 16.9514 42.8515 17.1541C42.8515 17.1946 42.9732 19.1 43.2569 22.8297C43.5407 26.5189 43.6624 28.7487 43.6624 29.4784Z" fill="#124D73"/>
<path d="M45.7702 16.5459C45.7702 15.8567 45.6486 15.2892 45.4459 14.8432C45.4459 14.6 45.6486 13.9919 46.054 13.0594C46.0946 12.9378 46.1757 12.8973 46.1757 12.8973C46.2162 12.8973 46.2567 12.9378 46.3378 13.0594C46.4594 13.3027 46.7432 13.9919 47.1486 15.0865C47.5946 16.2216 47.8378 16.9513 47.9189 17.1946C47.9594 17.3973 48 17.5594 48 17.6811C48 18.0054 47.7162 17.8027 47.0675 17.1135C46.9865 16.9919 46.9459 17.073 46.9459 17.2351C46.9459 17.2757 47.1081 19.5054 47.4324 23.8432C47.7567 28.1811 47.9189 30.6541 47.9189 31.1811C47.9189 32.8432 47.6757 34.3432 47.1892 35.6C47.0675 35.8432 46.9865 36.0459 46.9459 36.127C46.8243 36.3297 46.7838 36.3297 46.7838 36.2081C46.7432 36.0865 46.7838 35.8027 46.7838 35.3973C46.8648 34.8297 46.9054 34.1405 46.9054 33.3703C46.9054 32.6811 46.7027 29.8432 46.3784 24.8568C45.9324 19.9513 45.7702 17.154 45.7702 16.5459Z" fill="#124D73"/>
</svg>
