<svg width="49" height="49" viewBox="0 0 49 49" fill="none" xmlns="http://www.w3.org/2000/svg">
<path d="M15.2358 22.0355C15.237 23.0232 14.843 23.8533 14.0932 24.5258C12.8698 25.6335 11.3303 26.623 9.5141 27.4943C7.53991 28.4054 5.88118 28.842 4.45897 28.8437C2.91824 28.8456 1.77199 28.3729 0.980619 27.3467C0.347514 26.5178 0.0301211 25.412 0.0284879 24.0688C0.0258459 21.896 0.537166 20.0386 1.56235 18.4176C1.7595 18.1013 1.91728 17.9036 1.99629 17.9035C2.0358 17.9035 2.03585 17.943 2.0359 17.9825C2.03604 18.101 1.95722 18.2591 1.83904 18.5358C1.05098 20.2355 0.657702 21.6977 0.659095 22.8434C0.660344 23.8705 0.937943 24.7393 1.45238 25.4498C2.16465 26.3971 3.23188 26.8699 4.6936 26.8681C5.87878 26.8667 7.26111 26.5489 8.87999 25.8359C10.1436 25.3207 11.407 24.6871 12.6702 23.8954C13.7756 23.2225 14.2886 22.7873 14.2884 22.6293C14.2882 22.4318 13.9719 22.2346 13.3396 22.0774C12.7073 21.9201 12.0355 21.7629 11.4032 21.6056C10.6129 21.4091 10.02 21.2123 9.62469 20.9757C9.07122 20.6603 8.79411 20.1866 8.79334 19.5545C8.7919 18.3693 9.18547 17.1442 9.9345 15.8395C10.5258 14.8117 11.2359 13.9812 12.0252 13.3086C12.8145 12.6361 13.4463 12.3192 13.9203 12.3187C14.2364 12.3183 14.5131 12.476 14.711 12.7523C14.9088 13.0286 15.0278 13.384 15.0283 13.779C15.0288 14.2531 14.9503 14.6088 14.7926 14.8855C14.6743 15.1227 14.556 15.2413 14.477 15.2414C14.4375 15.2415 14.3583 15.1231 14.2395 14.8862C14.081 14.4913 13.8042 14.2546 13.4486 14.255C12.8955 14.2557 12.1455 14.7702 11.1986 15.7985C10.7646 16.2731 10.3702 16.7872 10.0154 17.3802C9.7 17.9337 9.50291 18.2894 9.5031 18.4475C9.50372 18.961 10.4524 19.434 12.3887 19.8267C13.4952 20.0624 14.2066 20.2985 14.5625 20.5746C15.0371 21.0086 15.2351 21.443 15.2358 22.0355Z" fill="#124D73"/>
<path d="M17.8025 20.8472C19.5795 20.213 21.5145 19.4995 23.5284 18.7465C23.6468 18.7068 23.6863 18.7068 23.6863 18.7068C23.7259 18.7462 23.6864 18.7858 23.6865 18.8648C23.5683 19.1415 23.4895 19.2996 23.4106 19.3787C21.7126 19.9734 19.7382 20.7659 17.448 21.7168C17.5662 21.4401 17.6844 21.1634 17.8025 20.8472Z" fill="#124D73"/>
<path d="M10.0741 32.9849C9.44198 32.9857 8.84905 32.7099 8.37426 32.1179C7.85996 31.5259 7.62201 30.7756 7.62096 29.9065C7.61947 28.6818 8.09167 27.1405 9.07696 25.2035C9.19524 25.0058 9.27411 24.8872 9.31361 24.8871C9.35312 24.8871 9.35317 24.9266 9.35322 24.9661C9.35346 25.1636 9.15674 25.8355 8.72357 26.9817C8.2904 28.1279 8.09397 29.0368 8.09479 29.7084C8.09541 30.2219 8.21441 30.6169 8.45183 30.9326C8.68925 31.2484 9.04505 31.4455 9.51912 31.4449C10.2302 31.444 11.0593 31.0085 12.0064 30.1382C12.1248 30.059 12.9534 29.1494 14.492 27.4487C16.7803 24.9571 18.8332 23.7299 20.6109 23.7277C21.1245 23.7271 21.5593 23.8846 21.9547 24.2002C22.3502 24.5157 22.5086 24.8711 22.5091 25.3057C22.5098 25.8192 22.4313 26.2934 22.2343 26.6887C22.1949 26.8073 22.1555 26.8863 22.116 26.8864C22.0765 26.8864 22.0369 26.8075 21.9577 26.689C21.6014 26.0179 21.0083 25.663 20.2577 25.664C18.875 25.6656 17.2959 26.5762 15.5203 28.3956C14.534 29.503 13.5082 30.5709 12.5218 31.6388C11.6538 32.5485 10.8642 32.984 10.0741 32.9849Z" fill="#124D73"/>
<path d="M25.477 29.4503C25.0417 28.8582 24.6068 28.5427 24.2117 28.5432C23.6586 28.5438 23.3428 28.7022 23.3432 29.0183C23.3436 29.3738 23.7389 29.5709 24.529 29.5699C24.845 29.53 25.1216 29.5297 25.477 29.4503ZM26.4675 31.7799C26.4673 31.5824 26.4275 31.3454 26.3482 31.148C25.9533 31.267 25.4003 31.3071 24.6892 31.308C23.1484 31.3099 22.3972 30.7972 22.3959 29.7701C22.395 28.9799 22.6311 28.2685 23.1835 27.6358C23.6569 27.0821 24.17 26.7654 24.6836 26.7648C25.0787 26.7643 25.553 27.0008 25.9882 27.5138C26.3838 27.9479 26.7796 28.54 27.0965 29.2113C27.136 29.2112 27.1755 29.2112 27.2939 29.132L27.2961 30.9098L27.2171 30.9494C27.2175 31.3049 27.1391 31.7791 26.9818 32.3719C26.7457 33.1228 26.4303 33.7158 25.9964 34.1904C25.0101 35.2977 23.9446 36.2867 22.8395 37.1966C21.1423 38.4629 19.6419 39.0968 18.3777 39.0984C17.311 39.0997 16.4809 38.7056 15.8873 37.9162C15.3729 37.2057 15.0954 36.3764 15.0941 35.3098C15.0924 33.9271 15.3672 32.544 15.9581 31.1211C16.0763 30.8444 16.1946 30.6862 16.2341 30.6862C16.2736 30.6861 16.2737 30.7256 16.2737 30.7652C16.2739 30.8837 16.2345 31.0417 16.1558 31.2394C15.7624 32.6226 15.5662 33.6895 15.5671 34.4401C15.5679 35.1117 15.7266 35.6646 16.0827 36.1382C16.5576 36.8092 17.3877 37.1638 18.4938 37.1624C19.442 37.1613 20.6267 36.7648 21.9689 35.9335C23.0742 35.2606 24.1004 34.4692 25.0869 33.5199C25.9945 32.6496 26.4679 32.096 26.4675 31.7799Z" fill="#124D73"/>
<path d="M37.584 11.9344C37.6628 11.7367 37.6626 11.5787 37.6229 11.3812C37.5831 11.1837 37.504 11.0653 37.3459 11.0655C37.2669 11.0656 37.188 11.1052 37.0695 11.1844C36.9511 11.2635 36.8722 11.3426 36.8723 11.3821C36.8724 11.5402 37.1097 11.7374 37.584 11.9344ZM37.19 12.804C36.5971 12.4886 36.2806 12.173 36.2802 11.8174C36.2797 11.4224 36.4768 11.0271 36.8319 10.6711C37.2265 10.315 37.5424 10.1961 37.7795 10.2749C37.9772 10.3536 38.096 10.5905 38.0964 10.9461C38.0968 11.3016 38.0183 11.6573 37.9003 12.092C38.2166 12.2891 38.3747 12.4075 38.4539 12.5654C38.4541 12.7234 38.3359 13.0001 38.0599 13.3955C37.9807 13.2771 37.783 13.1193 37.5063 12.9616C37.1908 13.4361 36.7567 13.8317 36.2436 14.2273C35.6516 14.6626 35.0989 15.0189 34.6251 15.217C34.5066 15.2566 33.9538 15.4943 32.9271 15.8511C32.7692 15.9303 32.6506 15.9305 32.6111 15.9305C32.5716 15.9306 32.5716 15.9306 32.5716 15.9306C32.5716 15.8911 32.6505 15.812 32.8479 15.6932C33.6374 15.2182 34.3875 14.7827 35.1771 14.3076C36.0851 13.793 36.756 13.2786 37.19 12.804Z" fill="#124D73"/>
<path d="M37.7881 17.2279C37.7884 17.465 37.7492 17.7415 37.631 18.0182C37.4735 18.374 37.2761 18.5322 37.0391 18.5325C36.6835 18.533 36.4067 18.2963 36.248 17.7829C36.0908 18.4152 35.7752 18.7711 35.3011 18.7717C35.1431 18.7719 34.985 18.693 34.8267 18.5352C34.6684 18.2984 34.5891 18.0614 34.5887 17.7059L34.5877 16.9158C34.5876 16.8367 34.5481 16.7973 34.4295 16.7579C34.3505 16.7185 34.2714 16.6791 34.2713 16.5606C34.2711 16.4026 34.3498 16.2049 34.5077 16.0467C34.626 15.8886 34.7445 15.8489 34.8235 15.8488C34.9025 15.8487 34.9817 16.0066 34.9821 16.3622C34.9824 16.5597 34.9826 16.7177 34.9432 16.8363C34.9038 16.9549 34.904 17.0734 34.9041 17.1524C34.9043 17.3499 34.9441 17.5474 35.0233 17.7054C35.1025 17.9028 35.2212 18.0212 35.3397 18.021C35.4977 18.0208 35.6557 17.9416 35.8135 17.7834C35.9713 17.6252 36.0501 17.4276 36.0498 17.23C36.0497 17.1115 36.01 16.914 35.9306 16.5981C35.8512 16.2821 35.8115 16.1242 35.8114 16.0451C35.8113 15.9661 35.8507 15.8871 35.89 15.729C35.9688 15.5709 36.0083 15.5313 36.0478 15.5313C36.1268 15.5312 36.206 15.7286 36.2855 16.1236C36.365 16.5185 36.4049 16.795 36.4051 16.9926C36.4058 17.5456 36.6036 17.8219 37.0382 17.8214C37.2357 17.8212 37.3542 17.742 37.3934 17.5444C37.0371 16.9128 36.839 16.439 36.8386 16.0834C36.8383 15.8859 36.8776 15.7278 36.996 15.5696C37.0748 15.451 37.1143 15.4115 37.1143 15.4115C37.1538 15.4114 37.1539 15.4904 37.1935 15.6089C37.1937 15.7669 37.2334 15.9249 37.2731 16.0434C37.2731 16.0434 37.3919 16.2803 37.5504 16.7146C37.7482 16.8724 37.7879 17.0699 37.7881 17.2279Z" fill="#124D73"/>
<path d="M36.1365 23.7089L36.6093 22.7207C36.6487 22.6416 36.6882 22.602 36.7277 22.602C36.8067 22.6019 37.0834 22.7596 37.5579 23.1146C38.0719 23.43 38.3092 23.6272 38.3093 23.7062C38.3095 23.9038 38.1126 24.3781 37.6789 25.0897C37.6395 25.1688 37.5604 25.1689 37.5209 25.1689C37.086 24.8534 36.6115 24.5379 36.058 24.1831C35.9005 24.5783 35.7034 24.9341 35.5062 25.2109C35.4668 25.2899 35.4273 25.3295 35.3483 25.2901C34.8737 24.9351 34.3597 24.5802 33.8062 24.2253C33.7667 24.2253 33.7667 24.1858 33.8061 24.1463L34.4367 22.8813C34.4761 22.8023 34.5156 22.7627 34.5551 22.7627C34.5946 22.7626 34.8318 22.9204 35.2667 23.1964C35.741 23.3933 36.0177 23.551 36.1365 23.7089Z" fill="#124D73"/>
<path d="M34.3958 21.6962C34.3563 21.6962 34.3562 21.6567 34.3957 21.6172L35.0262 20.3522C35.0657 20.2731 35.1051 20.2336 35.1446 20.2335C35.2236 20.2335 35.5004 20.3911 35.9749 20.7461C36.4493 21.0616 36.7262 21.2983 36.7262 21.3378C36.7264 21.5353 36.49 22.0097 36.0958 22.7213C36.0564 22.8003 35.9774 22.8399 35.9378 22.761C35.4238 22.406 34.9098 22.0511 34.3958 21.6962Z" fill="#124D73"/>
<path d="M27.217 30.9493L27.2149 29.211C27.9256 28.8941 28.3994 28.696 28.6363 28.5377C29.0706 28.3001 29.5047 27.9835 29.8993 27.588C30.0177 27.4693 30.1361 27.3902 30.2546 27.39C30.4522 27.3898 30.4918 27.5082 30.4131 27.7454C30.3344 27.9825 30.2951 28.2196 30.2954 28.4171C30.2959 28.8517 30.4939 29.207 30.8497 29.4436C31.2056 29.6802 31.6403 29.7982 32.1934 29.7975C32.9835 29.7966 33.7337 29.4796 34.4441 28.9257C34.5231 28.8861 34.7993 28.5697 35.3517 28.0159C35.8251 27.4623 36.1013 27.2249 36.1408 27.2248C36.2593 27.2247 36.299 27.3432 36.2203 27.5803C36.1021 27.8965 36.0629 28.0941 36.063 28.1731C36.0632 28.3706 36.1426 28.6471 36.3404 28.9234C36.5779 29.2786 36.9337 29.4757 37.3287 29.4752C38.3954 29.4739 39.3031 28.7222 40.0914 27.1805C40.1307 27.062 40.2097 26.9829 40.3282 26.9827C40.4862 26.9825 40.5258 27.101 40.4866 27.2986C40.4473 27.4566 40.408 27.6147 40.4081 27.7332C40.4091 28.5629 40.9232 28.9968 41.9109 28.9956L41.9132 30.9314C40.807 30.9327 40.0953 30.3805 39.7779 29.2747C39.7382 29.1563 39.7381 29.0772 39.6986 29.0773C39.6986 29.0773 39.6592 29.1564 39.6199 29.2749C39.0685 30.6978 38.2397 31.4099 37.2521 31.4111C36.2249 31.4124 35.5921 30.781 35.393 29.4776C35.3928 29.3591 35.3533 29.3196 35.3533 29.3196C35.3137 29.3197 35.2743 29.3987 35.2349 29.4778C34.9984 29.8731 34.6038 30.3082 34.1303 30.7433C33.341 31.4159 32.5908 31.7723 31.8007 31.7733C30.9711 31.7743 30.3781 31.4985 30.022 30.9853C29.824 30.6695 29.705 30.2351 29.7042 29.603C29.7041 29.524 29.6646 29.4846 29.5856 29.4846C29.4671 29.4848 29.3881 29.5639 29.2698 29.6826C28.9542 30.078 28.2436 30.5134 27.217 30.9493Z" fill="#124D73"/>
<path d="M44.7506 25.1206C44.7529 27.0169 44.3992 28.4791 43.7289 29.5465C43.1769 30.4559 42.5059 30.9307 41.7157 30.9317L41.7134 28.9959C42.3455 28.9951 42.9378 28.7574 43.4903 28.2826C43.6481 28.1244 43.766 27.6107 43.765 26.7416C43.7643 26.1885 43.6036 24.0159 43.3619 20.1446C43.0807 16.3128 42.9594 14.0611 42.9586 13.3895C42.9578 12.7574 42.8387 12.244 42.6407 11.8492C42.6404 11.6121 42.7978 11.0589 43.1918 10.2288C43.2312 10.1497 43.2707 10.1101 43.3102 10.1101C43.3497 10.11 43.3892 10.1495 43.4684 10.2679C43.5872 10.5048 43.825 11.0971 44.1817 12.0843C44.578 13.111 44.8159 13.7823 44.8952 14.0193C44.9349 14.2167 44.9746 14.3352 44.9747 14.4142C44.975 14.6908 44.6983 14.5331 44.1445 13.9412C44.0654 13.8622 44.0654 13.8622 44.0655 14.0203C44.0656 14.0598 44.1862 15.7584 44.4273 19.1556C44.6289 22.4344 44.7498 24.449 44.7506 25.1206Z" fill="#124D73"/>
<path d="M46.0453 17.4548C46.0445 16.8227 45.9254 16.3093 45.7274 15.9145C45.7271 15.6775 45.8845 15.1637 46.2785 14.2941C46.3179 14.1755 46.3573 14.136 46.3968 14.1359C46.4363 14.1359 46.4759 14.1753 46.5155 14.2938C46.6343 14.5307 46.8721 15.123 47.2288 16.1102C47.6252 17.1369 47.863 17.8082 47.9423 18.0451C47.9821 18.2426 48.0217 18.3611 48.0219 18.4796C48.0222 18.7561 47.7455 18.5984 47.1916 17.967C47.1125 17.8881 47.1125 17.9276 47.1127 18.0856C47.1128 18.1251 47.2733 20.1398 47.5546 24.09C47.8359 28.0403 47.9967 30.2524 47.9972 30.7265C47.9991 32.2672 47.7637 33.5712 47.3305 34.7174C47.2123 34.9546 47.1334 35.1127 47.094 35.1918C47.0152 35.3499 46.9362 35.3895 46.9361 35.271C46.8964 35.1525 46.9357 34.9154 46.9352 34.5204C47.0136 34.0067 47.0523 33.3745 47.0515 32.7029C47.0507 32.0708 46.8896 29.5031 46.5681 24.9999C46.2071 20.5361 46.046 18.0079 46.0453 17.4548Z" fill="#124D73"/>
</svg>
