<svg width="49" height="49" viewBox="0 0 49 49" fill="none" xmlns="http://www.w3.org/2000/svg">
<path d="M15.3488 39.398C14.5352 39.399 13.9357 39.3569 13.593 39.2289C12.822 39.0157 12.1791 38.5027 11.6215 37.7326C11.3211 37.1763 10.9779 36.6629 10.6775 36.1066C10.4201 35.6788 10.12 35.4222 9.8203 35.4226C8.9211 35.4237 7.98002 36.1955 6.95424 37.7383C6.78333 38.0382 6.48443 38.7237 6.01482 39.8804C5.54517 40.9942 5.16084 41.8511 4.81891 42.3653C4.30602 43.1367 3.74985 43.5227 3.15038 43.5235C2.25119 43.5246 1.52243 42.8403 0.921247 41.4281C0.363143 40.2298 0.104719 38.9884 0.103105 37.661C0.101179 36.0767 0.270893 34.7919 0.569481 33.8495C0.697521 33.5068 0.783002 33.3782 0.825821 33.3782C0.911459 33.3781 0.954538 33.5921 0.91224 34.0204C0.784981 35.0054 0.700384 35.8618 0.701269 36.5898C0.70533 39.9296 1.4781 41.5986 3.0624 41.5967C3.70469 41.5959 4.26076 41.1243 4.77339 40.1388C5.32863 38.982 5.841 37.7825 6.39624 36.6257C6.86605 35.6403 7.46453 34.826 8.10598 34.1401C8.83301 33.4113 9.47488 33.0679 10.0743 33.0672C10.5025 33.0667 10.931 33.3231 11.2743 33.9221C11.5746 34.3928 11.9178 34.9062 12.1753 35.4197C12.6043 36.0186 13.0758 36.4463 13.5471 36.6598C13.9755 36.8734 14.5751 37.0011 15.3459 37.0002L15.3488 39.398Z" fill="#124D73"/>
<path d="M15.3108 43.2518L15.9087 42.0093C15.9515 41.9236 16.037 41.8379 16.0798 41.8378C16.1654 41.8377 16.5083 42.0514 17.1082 42.4789C17.751 42.9063 18.0511 43.1628 18.0511 43.2056C18.0515 43.4625 17.7952 44.0195 17.2397 44.9194C17.1541 45.0051 17.1114 45.048 17.0257 45.0053C16.5114 44.6205 15.9114 44.1931 15.2258 43.7657C15.0123 44.2798 14.7987 44.7083 14.5422 45.0511C14.4996 45.1796 14.4139 45.1797 14.3282 45.137C13.7282 44.6667 13.1282 44.2393 12.4426 43.8119C12.3997 43.7691 12.3997 43.7263 12.4424 43.6406L13.2541 42.0982C13.2968 42.0125 13.3396 41.9696 13.4252 41.9695C13.5108 41.9694 13.7679 42.1404 14.2822 42.4823C14.8393 42.867 15.1822 43.1235 15.3108 43.2518Z" fill="#124D73"/>
<path d="M22.7559 38.8323C21.3429 38.834 20.5712 38.0214 20.5263 36.3515C20.5262 36.2659 20.4833 36.2231 20.3977 36.2232C20.2692 36.2234 20.1409 36.3091 20.0126 36.4378C19.2002 37.3808 18.687 37.938 18.4732 38.1524C17.4466 39.01 16.3767 39.4823 15.2634 39.4837L15.2605 37.0858C16.4166 37.0844 17.4439 36.7834 18.3423 36.1401C18.7274 35.9255 19.4972 35.1538 20.7803 33.9105C20.9086 33.7819 21.0369 33.6961 21.2082 33.6959C21.3795 33.6957 21.4224 33.7813 21.4225 33.9097C21.4226 33.9954 21.4227 34.081 21.3801 34.2523C21.3375 34.4237 21.3377 34.5521 21.3378 34.6378C21.3384 35.1088 21.4673 35.494 21.639 35.8363C21.8964 36.2214 22.282 36.435 22.7958 36.4344L22.7559 38.8323Z" fill="#124D73"/>
<path d="M19.2947 45.0881C21.5203 44.2719 23.8743 43.4126 26.3995 42.4675C26.5279 42.4246 26.6135 42.3816 26.6135 42.4244C26.6564 42.4672 26.6565 42.5529 26.571 42.6386C26.4001 42.9814 26.3147 43.1956 26.2292 43.2813C24.132 44.0546 21.6497 44.9996 18.8678 46.1591C18.9531 45.8593 19.124 45.5165 19.2947 45.0881Z" fill="#124D73"/>
<path d="M24.1139 29.1108L24.7118 27.8683C24.7546 27.7826 24.8401 27.6969 24.8829 27.6968C24.9685 27.6967 25.3114 27.9104 25.9113 28.3379C26.5541 28.7225 26.8541 28.979 26.8542 29.0646C26.8546 29.3216 26.5983 29.8785 26.0428 30.7784C25.9572 30.8641 25.9145 30.907 25.8288 30.8643C25.3145 30.4795 24.7145 30.0521 24.0289 29.6247C23.8154 30.1388 23.6018 30.5673 23.3453 30.9101C23.3027 31.0386 23.2171 31.0816 23.1313 30.996C22.5313 30.5257 21.9313 30.0983 21.2457 29.6709C21.2029 29.671 21.2028 29.6282 21.2455 29.5425L22.0572 27.9572C22.0999 27.8715 22.1426 27.7858 22.2282 27.7857C22.3139 27.7856 22.571 27.9566 23.0852 28.2985C23.5996 28.726 23.9424 28.9397 24.1139 29.1108Z" fill="#124D73"/>
<path d="M21.9701 26.6727C21.9273 26.6727 21.9272 26.6299 21.9699 26.5442L22.7387 24.959C22.7814 24.8733 22.8242 24.7876 22.867 24.7876C22.9526 24.7875 23.2954 25.0011 23.8954 25.4286C24.4954 25.8561 24.7954 26.1126 24.7955 26.1554C24.7958 26.4123 24.5396 26.9693 23.984 27.8692C23.8985 27.9977 23.8557 27.9978 23.77 27.9551C23.2128 27.4847 22.6128 27.0573 21.9701 26.6727Z" fill="#124D73"/>
<path d="M25.3199 34.6329C25.3216 36.0031 25.0231 37.074 24.4246 37.8882C23.9117 38.574 23.3126 38.9173 22.6275 38.9181L22.6246 36.5202C23.5666 36.5191 24.1658 36.3043 24.465 35.8329C24.4647 35.576 24.2929 35.148 23.9925 34.6345C23.821 34.4206 23.7778 34.1638 23.7776 33.9497C23.7774 33.8212 23.948 33.2216 24.2465 32.2364C24.3319 32.0222 24.3746 31.9365 24.4602 31.9364C24.5459 31.9363 24.6317 32.0646 24.7604 32.3214C25.1468 33.1773 25.3191 33.9478 25.3199 34.6329Z" fill="#124D73"/>
<path d="M28.7464 35.4424C28.9618 36.5554 29.3053 37.3257 29.8624 37.6676C30.1623 37.8385 30.5906 37.9236 31.1901 37.9229L31.193 40.3208C30.3366 40.3218 29.6513 40.1514 29.1799 39.8094C28.4941 39.2964 28.0648 38.3549 27.8062 36.985C27.6767 36.1288 27.5024 33.6027 27.3689 29.4922C27.235 24.9536 27.1031 22.1705 27.0163 21.1858C26.843 19.5588 26.4986 17.975 26.0685 16.4768C26.0681 16.0914 26.2386 15.4918 26.5374 14.7207C26.6228 14.5065 26.6655 14.4208 26.7083 14.4207C26.7511 14.4207 26.8369 14.5062 26.9227 14.6774C27.4378 15.7044 27.8252 17.3739 28.085 19.7714C28.2581 21.2699 28.3902 24.2242 28.524 28.6344C28.6147 32.7878 28.7031 35.0999 28.7464 35.4424Z" fill="#124D73"/>
<path d="M26.7917 12.5793C29.0173 11.7631 31.3713 10.9038 33.8964 9.95874C34.0248 9.91577 34.1104 9.87284 34.1105 9.91566C34.1534 9.95843 34.1535 10.0441 34.0679 10.1298C33.8971 10.4726 33.8117 10.6868 33.7262 10.7725C31.629 11.5458 29.1466 12.4908 26.3648 13.6503C26.4501 13.3505 26.6209 12.9649 26.7917 12.5793Z" fill="#124D73"/>
<path d="M37.1484 43.6534C37.1055 43.6106 37.1055 43.5678 37.1482 43.4821L37.917 41.8969C37.9597 41.8112 38.0025 41.7683 38.0881 41.7682C38.1738 41.7681 38.5166 41.9818 39.1166 42.4093C39.7166 42.8367 40.0166 43.0933 40.0167 43.1789C40.017 43.4358 39.7608 43.9928 39.2052 44.8498C39.1197 44.9784 39.0769 44.9784 38.9912 44.9357C38.434 44.4654 37.7912 44.038 37.1484 43.6534Z" fill="#124D73"/>
<path d="M45.8296 34.2654L44.9753 35.9364C44.8898 36.1078 44.8043 36.1935 44.6758 36.1937C41.9782 36.197 39.6237 36.628 37.6978 37.4011C37.2271 37.6158 35.986 38.2168 33.932 39.2897C32.5627 39.9765 31.6211 40.3202 31.0216 40.3209L31.0187 37.9231C32.2176 37.9216 34.2292 37.1484 37.0105 35.6036C34.4837 35.1784 32.0426 34.8817 29.5589 34.7134C29.0879 34.6712 28.8309 34.6287 28.8307 34.5002C28.8307 34.4574 28.8307 34.4574 28.8735 34.4145C29.087 33.9861 29.3433 33.4291 29.7278 32.7435L33.8384 32.7385C34.3524 32.8236 35.8085 33.0359 38.1211 33.3756C41.076 33.7146 43.4313 33.9258 45.1869 33.9237C45.6579 33.9231 45.8721 33.9657 45.8722 34.0513C45.915 34.0941 45.8723 34.1798 45.8296 34.2654Z" fill="#124D73"/>
<path d="M34.0537 33.7659L29.8134 32.7434C29.8989 32.6577 30.4553 32.4429 31.4827 32.1848C32.8524 31.7977 34.0081 31.411 34.864 31.0674C35.292 30.8956 35.5487 30.6812 35.5911 30.3814C35.6337 30.21 35.6326 29.268 35.6304 27.5125C35.6296 26.8274 35.4984 24.5581 35.2369 20.7904C34.9753 16.9798 34.8442 14.7534 34.8434 14.1111C34.8425 13.3403 34.7132 12.6982 34.4557 12.2275C34.4554 11.9278 34.6687 11.2852 35.1384 10.2142C35.1811 10.0857 35.2238 9.99998 35.3094 9.99988C35.3522 9.99982 35.438 10.0854 35.4809 10.2138C35.6098 10.5133 35.8676 11.2409 36.3829 12.4821C36.8555 13.7661 37.1561 14.5364 37.2421 14.8361C37.328 15.0501 37.3283 15.2213 37.3284 15.3498C37.3288 15.6923 36.986 15.4787 36.3 14.7088C36.2142 14.5804 36.1714 14.6233 36.1717 14.8374C36.1717 14.8802 36.3021 16.4643 36.5201 19.6327C36.738 22.801 36.8689 24.7705 36.8698 25.5841C36.8724 27.6822 36.7458 29.181 36.5328 30.1233C36.1493 31.6653 35.3373 32.908 34.0537 33.7659Z" fill="#124D73"/>
<path d="M45.5973 19.1934C45.5963 18.4227 45.4671 17.7805 45.2096 17.3098C45.2093 17.0101 45.4226 16.3676 45.8923 15.2965C45.9778 15.168 46.0205 15.0823 46.0633 15.0822C46.1061 15.0822 46.149 15.1677 46.2348 15.2961C46.3636 15.5957 46.6643 16.3232 47.1368 17.5644C47.6094 18.8484 47.9101 19.6616 47.996 19.9184C48.0819 20.1324 48.0821 20.3037 48.0823 20.4321C48.0827 20.7747 47.7399 20.561 47.0539 19.7911C46.9681 19.6627 46.9253 19.7056 46.9255 19.9197C46.9257 20.0053 47.0999 22.4458 47.4484 27.3268C47.7969 32.2077 47.9715 34.9479 47.9722 35.5474C47.9745 37.4314 47.7196 39.0588 47.1219 40.5154C46.9938 40.8153 46.9083 40.9867 46.8229 41.1152C46.6947 41.3295 46.6519 41.3724 46.6089 41.244C46.5659 41.0727 46.5655 40.773 46.6507 40.3447C46.7355 39.7023 46.7774 38.9315 46.7764 38.0751C46.7754 37.3044 46.5575 34.1361 46.1653 28.5701C45.7732 23.0041 45.5981 19.8785 45.5973 19.1934Z" fill="#124D73"/>
<path d="M38.4716 3.90261C38.4718 4.05577 38.2808 4.36231 37.9368 4.89877C37.5163 5.47362 37.134 5.89526 36.7514 6.16374C36.5218 6.31718 35.7181 6.58618 34.4168 6.97065C34.1871 7.00922 34.034 7.04769 34.034 7.04769C34.0722 7.00935 34.1487 6.97097 34.3017 6.81763C34.4547 6.66429 34.9521 6.39566 35.7174 6.01185C36.4444 5.58979 36.8653 5.35954 37.0183 5.24449C37.0565 5.20615 37.0565 5.20615 37.0565 5.16786C37.0563 5.01471 36.4053 4.93892 35.0652 4.94055C35.0652 4.94055 34.8355 4.94083 34.2994 4.94148C34.0314 4.94181 33.9165 4.94195 33.9165 4.90366C33.9164 4.86537 33.9546 4.78875 34.0311 4.67379L34.4896 3.86917C34.6424 3.63925 34.872 3.48581 35.2548 3.44706C35.3696 3.40863 35.676 3.40826 36.1737 3.40765C37.7053 3.40579 38.4712 3.55802 38.4716 3.90261Z" fill="#124D73"/>
</svg>
