<svg width="49" height="49" viewBox="0 0 49 49" fill="none" xmlns="http://www.w3.org/2000/svg">
<path d="M9.03282 37.1562C10.0837 36.0149 11.4417 34.961 13.1067 34.0382C14.1145 33.5108 15.8235 32.7195 18.2337 31.6643L18.237 34.3827C16.7032 35.0423 15.5638 35.5259 14.819 35.9215C13.3291 36.6248 12.2775 37.1961 11.7518 37.5913C10.7443 38.3818 9.25541 39.9182 7.28513 42.2006C6.14674 43.5173 4.96377 44.2203 3.77994 44.2217C2.77149 44.2229 1.93789 43.7855 1.19145 42.9095C0.401106 41.9897 0.0489536 40.8501 0.0473009 39.4909C0.0450618 37.6494 0.787505 35.237 2.31853 32.2975C2.49354 31.9903 2.58107 31.8587 2.66876 31.8586C2.71266 31.9024 2.75656 31.9462 2.75661 31.99C2.75699 32.2969 2.45135 33.3496 1.79579 35.1042C1.14024 36.8589 0.835029 38.2623 0.836255 39.2707C0.837215 40.06 1.01334 40.6736 1.40849 41.1116C1.80374 41.6372 2.3302 41.8997 3.03173 41.8988C4.25941 41.8973 5.48634 41.282 6.75632 40.0089C7.41283 39.0435 8.20088 38.0779 9.03282 37.1562Z" fill="#124D73"/>
<path d="M19.5193 43.3257C22.2803 42.3139 25.2167 41.258 28.3283 40.1142C28.5036 40.0263 28.5913 40.0262 28.5913 40.0262C28.6352 40.07 28.6353 40.1577 28.5478 40.2894C28.3729 40.728 28.2417 40.9913 28.1103 41.0791C25.5246 42.0469 22.4568 43.2344 18.9509 44.6856C19.1258 44.2469 19.3006 43.8083 19.5193 43.3257Z" fill="#124D73"/>
<path d="M19.3115 16.3607C19.2676 16.317 19.2675 16.2731 19.3113 16.1854L20.2735 14.255C20.361 14.1233 20.4048 14.0794 20.4487 14.0794C20.5364 14.0793 20.9752 14.3418 21.7212 14.8671C22.4672 15.3923 22.8622 15.6987 22.8623 15.7864C22.8626 16.0934 22.5127 16.7953 21.8563 17.8484C21.7688 17.98 21.6812 18.024 21.5934 17.9803C20.8912 17.4111 20.1452 16.8859 19.3115 16.3607Z" fill="#124D73"/>
<path d="M19.2756 23.1131C19.2761 23.5954 19.5395 23.8581 20.1095 23.8574C20.4603 23.857 20.811 23.8127 21.2932 23.7244C21.7316 23.6362 22.0384 23.592 22.2138 23.5918C22.8276 23.591 23.3982 24.0288 23.9254 24.9489C24.4527 25.869 24.7165 26.4387 24.7166 26.5703C24.7167 26.6579 24.6729 26.7018 24.6291 26.7019C24.5414 26.702 24.3221 26.6146 24.0149 26.4396C23.664 26.2646 23.4008 26.1772 23.0939 26.1776C22.8746 26.1779 22.524 26.266 21.9979 26.3543C21.3843 26.4866 20.9021 26.5749 20.4637 26.6193C20.376 26.6194 20.2444 26.6195 20.1567 26.6196C19.3675 26.6206 18.7972 26.3582 18.3581 25.8326C17.9191 25.3947 17.6991 24.7373 17.6982 23.9919C17.6968 22.8519 18.0463 21.7992 18.7904 20.7898C19.4907 19.7805 20.2355 19.2973 20.9809 19.2964C22.3401 19.2948 23.6125 20.0386 24.7981 21.4841C26.0276 22.9733 26.6435 24.6825 26.6459 26.6118C26.648 28.3656 26.036 29.9009 24.8099 31.1301C24.2844 31.6569 22.0496 32.7557 18.0616 34.4267L18.0584 31.7521C19.5484 31.1365 20.9945 30.5209 22.4407 29.9053C24.588 28.9381 25.6396 28.3668 25.6392 28.1037C25.6373 26.5253 25.1095 25.1229 24.0557 23.8965C23.0459 22.7577 21.949 22.1891 20.809 22.1904C20.4583 22.1909 20.1515 22.2789 19.801 22.4986C19.4066 22.7183 19.2753 22.9377 19.2756 23.1131Z" fill="#124D73"/>
<path d="M32.1316 30.5074C32.3964 31.9101 32.836 32.8303 33.4942 33.268C33.8452 33.4868 34.3715 33.5738 35.1169 33.5729L35.1205 36.5544C34.0243 36.5558 33.191 36.3376 32.6205 35.8998C31.7867 35.287 31.2152 34.1038 30.9062 32.3942C30.7296 31.3421 30.5504 28.2293 30.3688 23.0996C30.1866 17.4876 30.0508 14.0239 29.9178 12.7964C29.6961 10.7798 29.2991 8.80721 28.7269 6.96639C28.7263 6.48408 28.9446 5.73844 29.338 4.77336C29.4254 4.51018 29.4692 4.42243 29.5568 4.42233C29.6007 4.42227 29.6885 4.50986 29.8203 4.72893C30.4357 5.9997 30.9205 8.05986 31.2749 11.0409C31.4963 12.8822 31.6762 16.565 31.8144 22.0455C31.9084 27.2192 32.0434 30.069 32.1316 30.5074Z" fill="#124D73"/>
<path d="M33.4664 10.556C36.2275 9.54418 39.1639 8.48831 42.2755 7.34454C42.4508 7.30048 42.5385 7.25653 42.5385 7.30038C42.5824 7.34417 42.5825 7.43186 42.495 7.5635C42.3202 8.00217 42.1889 8.26541 42.0575 8.35326C39.4717 9.27716 36.404 10.5086 32.8982 11.9597C33.073 11.5211 33.2479 11.0824 33.4664 10.556Z" fill="#124D73"/>
<path d="M36.0208 19.892C35.9769 19.8482 35.9769 19.8044 36.0206 19.7166L36.9828 17.7424C37.0703 17.6108 37.1141 17.5669 37.158 17.5668C37.2457 17.5667 37.6844 17.8292 38.4305 18.3545C39.1765 18.8797 39.5715 19.1862 39.5716 19.2739C39.5719 19.5808 39.222 20.2827 38.5656 21.3358C38.4781 21.4675 38.3905 21.5114 38.3027 21.4677C37.6005 20.9424 36.8106 20.3734 36.0208 19.892Z" fill="#124D73"/>
<path d="M47.9593 29.962C47.7408 30.6199 47.391 31.4096 46.9536 32.2432C45.2892 33.6921 43.8874 34.7023 42.792 35.3174C40.9079 36.372 38.9793 36.8567 37.0939 36.859C36.1293 36.8601 35.4277 36.7733 34.9013 36.5986L34.3277 33.6178C33.186 32.1722 32.5704 30.7699 32.5688 29.4107C32.5662 27.3061 33.2219 25.6392 34.5358 24.4976C35.6747 23.5316 37.0333 23.0477 38.6994 23.0456C40.8917 23.043 42.8656 23.7421 44.5773 25.1869C44.8846 25.4496 45.0163 25.6248 45.0164 25.7125C45.0165 25.7564 44.9727 25.8003 44.8412 25.8004C44.7096 25.8006 44.4903 25.7132 44.1833 25.6259C43.0428 25.2326 41.9902 25.0147 41.1133 25.0158C39.798 25.0174 38.4828 25.1943 37.0802 25.5907C35.7215 25.9869 34.7136 26.4704 34.0566 27.0412C34.0583 28.4443 34.5423 29.8468 35.5087 31.2487C36.7384 32.9133 38.274 33.7445 40.1593 33.7422C41.1239 33.741 42.3511 33.3011 43.9284 32.3784C45.1991 31.6753 46.338 30.8409 47.433 29.8749C47.652 29.6993 47.8273 29.6114 47.8711 29.5675C48.0464 29.5234 48.0904 29.6549 47.9593 29.962Z" fill="#124D73"/>
<path d="M11.753 16.7209C11.7533 16.9232 11.5562 17.2877 11.1224 17.8952C10.6096 18.5838 10.1757 19.1104 9.74153 19.4346C9.46523 19.6373 8.55699 19.9622 6.97724 20.3688C6.70075 20.4096 6.54277 20.4502 6.54277 20.4502C6.58223 20.4097 6.66114 20.3287 6.85852 20.207C7.05586 20.0449 7.60855 19.7205 8.5561 19.2337C9.42464 18.7471 9.93782 18.4227 10.0562 18.3012C10.0957 18.2607 10.0956 18.2202 10.0956 18.2202C10.0954 18.0179 9.30514 17.9379 7.76441 17.9398C7.76441 17.9398 7.48786 17.9401 6.89532 17.9813C6.57933 18.0221 6.42125 17.9819 6.4212 17.9414C6.42116 17.9009 6.46056 17.8199 6.53943 17.6984L7.09138 16.767C7.24906 16.4836 7.56491 16.3213 7.99938 16.2398C8.15735 16.1992 8.5129 16.1988 9.06599 16.1981C10.8832 16.1149 11.7525 16.3162 11.753 16.7209Z" fill="#124D73"/>
</svg>
