<svg width="48" height="41" viewBox="0 0 48 41" fill="none" xmlns="http://www.w3.org/2000/svg">
<path d="M6.38269 38.7632C6.33956 38.7201 6.33956 38.677 6.38269 38.6338L7.15897 37.0813C7.20209 36.995 7.24522 36.9519 7.28835 36.9519C7.3746 36.9519 7.71961 37.1675 8.32339 37.5557C8.92716 37.9438 9.22904 38.2026 9.22904 38.2888C9.22904 38.5476 8.97028 39.1082 8.40964 39.9276C8.36651 40.0139 8.28026 40.057 8.23713 40.0139C7.63336 39.5826 7.02959 39.1514 6.38269 38.7632Z" fill="#124D73"/>
<path d="M11.5148 11.9814C11.6873 11.8951 11.8167 11.852 11.8167 11.852C11.8167 11.8089 11.6442 11.7658 11.3423 11.7226C9.2291 11.4207 6.77088 11.2482 4.01078 11.2482C2.63073 11.2482 1.76819 11.2914 1.38005 11.4207C1.20755 11.4639 1.12129 11.507 1.12129 11.5501C1.12129 11.5932 1.25067 11.7226 1.46631 11.8951C2.11321 12.4127 2.76011 12.9302 3.40701 13.4046C4.57142 14.3102 5.26145 14.914 5.52021 15.259C7.59029 13.879 9.57412 12.7577 11.5148 11.9814ZM16.69 24.8331C16.69 24.1862 16.4744 23.5825 16 23.0218C15.4825 22.3749 14.8356 21.9436 13.973 21.728C13.2399 21.5124 11.9892 21.383 10.2641 21.3399C8.45282 21.2967 7.20215 21.2105 6.55525 21.038C5.30458 20.7361 4.09703 20.2617 2.88949 19.6148C2.50135 20.2186 2.11321 20.9086 1.76819 21.7711C1.25067 23.0218 1.03504 24.2294 1.03504 25.3938C1.03504 29.232 3.19137 31.1727 7.50404 31.1727C8.92721 31.1727 10.3935 30.7846 11.903 30.0083C13.2399 29.3183 14.4043 28.4558 15.31 27.4639C16.2587 26.4288 16.69 25.5663 16.69 24.8331ZM14.9649 12.3264C11.3423 13.8358 8.36657 15.3021 6.03773 16.6822C6.03773 17.5879 5.95148 18.0191 5.77897 18.0191C5.64959 18.0191 5.43396 17.7604 5.13207 17.1997C4.61455 17.6741 4.09703 18.1485 3.57951 18.7091C4.95956 18.8816 7.2884 19.0542 10.5229 19.1404C12.8517 19.2267 14.3612 19.4423 15.0081 19.7011C15.655 20.0029 16.2156 20.4342 16.6038 21.0811C17.035 21.8143 17.2938 22.6337 17.2938 23.5825C17.2938 26.1269 16.2156 28.4126 14.1024 30.4396C11.9892 32.4234 9.66037 33.4585 7.1159 33.4585C2.54447 33.4585 0.215633 30.914 0.215633 25.825C0.215633 23.4962 0.819407 21.2536 1.98383 19.0542C1.59569 18.8385 1.42318 18.666 1.42318 18.5798C1.42318 18.4935 1.50943 18.4504 1.68194 18.4504C1.85445 18.4504 2.02695 18.4504 2.32884 18.4935C2.67385 17.9329 3.27763 17.1566 4.14016 16.2509C3.62264 15.7334 2.84636 15.0865 1.76819 14.2671C0.991914 13.7065 0.517521 13.1889 0.258761 12.7577C0.0862543 12.4558 0 12.1539 0 11.7226C0 11.0326 0.258761 10.3857 0.819407 9.86818C1.46631 9.26441 2.41509 8.96252 3.62264 8.96252C5.00269 8.96252 7.24528 9.09191 10.3504 9.30754C13.1536 9.52317 14.8787 9.69568 15.5256 9.78193C15.7844 9.82506 15.9137 9.95444 15.8275 10.2132L15.3531 11.6795C15.2668 12.0676 15.1375 12.2402 14.9649 12.3264Z" fill="#124D73"/>
<path d="M23.0725 21.1243C22.9431 20.8224 22.6843 20.5205 22.3825 20.2617C22.0374 19.9598 21.7356 19.8305 21.3905 19.8305C20.7005 19.8305 20.3555 20.003 20.3555 20.3911C20.3555 20.8224 20.8299 21.038 21.7356 21.038C22.4256 21.0811 22.9 21.0811 23.0725 21.1243ZM15.0078 30.3102C16.086 30.3102 17.3798 29.8358 18.9323 28.9733C20.1399 28.2401 21.3474 27.3345 22.555 26.2563C23.6331 25.2644 24.2369 24.6175 24.3663 24.2294C24.28 23.5825 23.4606 23.2806 21.9512 23.2806C20.0967 23.2806 19.1911 22.6337 19.1911 21.383C19.1911 20.3911 19.493 19.5286 20.1399 18.7954C20.7436 18.1054 21.3043 17.7604 21.9512 17.7604C22.6843 17.7604 23.3312 18.2348 23.9781 19.1404C24.5388 19.9598 24.8838 20.8224 25.0994 21.8143C25.1857 22.2455 25.2288 22.6768 25.2288 23.1081C25.2288 24.6175 24.8407 25.8682 24.0644 26.7738C23.0294 27.9383 21.8218 29.0596 20.528 30.0946C18.2854 31.8628 16.431 32.7253 14.8784 32.7253C13.5846 32.7253 12.5927 32.2509 11.8596 31.3021C11.2127 30.4396 10.9108 29.4046 10.9108 28.1108C10.9108 26.472 11.2558 24.79 11.9458 23.065C12.0752 22.6768 12.2046 22.5043 12.2908 22.5043C12.3339 22.5043 12.3339 22.5474 12.3339 22.6337C12.3339 22.7199 12.2908 22.9356 12.2046 23.1512C11.7302 24.8331 11.4714 26.1269 11.4714 27.0326C11.4714 27.852 11.687 28.542 12.1183 29.1027C12.679 29.9221 13.6709 30.3102 15.0078 30.3102Z" fill="#124D73"/>
<path d="M28.6789 23.5394C28.7651 23.3238 28.7651 23.1082 28.722 22.8494C28.6789 22.5907 28.5495 22.4613 28.377 22.4613C28.2907 22.4613 28.2045 22.5044 28.032 22.5907C27.9026 22.6769 27.8163 22.7632 27.8163 22.8063C27.8163 23.0219 28.0751 23.2807 28.6789 23.5394ZM28.2045 24.5745C27.4713 24.1863 27.1263 23.7982 27.1263 23.4101C27.1263 22.8925 27.342 22.4613 27.8163 22.03C28.2907 21.5987 28.6789 21.4694 28.9808 21.5556C29.2395 21.6419 29.3689 21.9438 29.3689 22.375C29.3689 22.8063 29.2827 23.2807 29.1101 23.7982C29.4552 24.0138 29.7139 24.1863 29.8002 24.3589C29.8002 24.5314 29.6277 24.8764 29.3258 25.3508C29.2395 25.2214 29.0239 25.0489 28.6358 24.8332C28.2476 25.3939 27.7301 25.9114 27.0832 26.3427C26.35 26.8602 25.7031 27.2915 25.0994 27.5502C24.97 27.5933 24.28 27.8521 23.0293 28.3265C22.8137 28.4128 22.6843 28.4559 22.6411 28.4559C22.598 28.4559 22.598 28.4559 22.598 28.4559C22.598 28.4128 22.7274 28.3265 22.943 28.154C23.8918 27.5933 24.7975 27.0327 25.7463 26.4721C26.8676 25.7389 27.687 25.1351 28.2045 24.5745Z" fill="#124D73"/>
<path d="M22.6846 39.4532C21.9083 39.4532 21.2183 39.1081 20.6145 38.4181C20.0107 37.685 19.7089 36.7793 19.7089 35.7443C19.7089 34.278 20.3126 32.3804 21.5202 30.0516C21.6496 29.7928 21.7358 29.7065 21.8221 29.7065C21.8652 29.7065 21.8652 29.7497 21.8652 29.7928C21.8652 30.0084 21.6064 30.8278 21.0889 32.251C20.5714 33.6742 20.3126 34.7524 20.3126 35.5286C20.3126 36.1755 20.442 36.6499 20.7439 37.0381C21.0458 37.4262 21.4771 37.6418 22.0377 37.6418C22.9002 37.6418 23.9353 36.9949 25.1859 35.7011C26.221 34.4936 27.2991 33.286 28.2911 32.0354C30.9218 29.0165 33.2938 27.5071 35.2776 27.5071V29.879C33.5525 29.879 31.6549 31.0003 29.4986 33.1567C28.8517 33.8467 27.9892 34.8386 26.911 36.1755C25.9622 37.34 25.2722 38.1162 24.7978 38.5044C24.0647 39.1513 23.3746 39.4532 22.6846 39.4532Z" fill="#124D73"/>
<path d="M37.6492 17.7174C37.7354 17.5018 37.7354 17.2862 37.6923 17.0274C37.6492 16.7686 37.5198 16.6393 37.3473 16.6393C37.261 16.6393 37.1748 16.6824 37.0023 16.7686C36.8729 16.8549 36.7866 16.9411 36.7866 16.9843C36.7866 17.1999 37.0885 17.4587 37.6492 17.7174ZM37.2179 18.7525C36.4848 18.3643 36.1397 17.9762 36.1397 17.588C36.1397 17.0705 36.3554 16.6393 36.8298 16.208C37.3042 15.7767 37.6923 15.6473 37.9942 15.7336C38.253 15.8199 38.3823 16.1217 38.3823 16.553C38.3823 16.9843 38.2961 17.4587 38.1236 17.9762C38.4686 18.1918 38.7273 18.3643 38.8136 18.5368C38.8136 18.7093 38.6411 19.0543 38.3392 19.5287C38.253 19.3994 38.0373 19.2269 37.6492 19.0112C37.261 19.5719 36.7435 20.0894 36.0966 20.5207C35.3635 21.0382 34.7166 21.4694 34.1128 21.7282C33.9834 21.7713 33.2934 22.0301 32.0427 22.5045C31.8271 22.5907 31.6977 22.6339 31.6546 22.6339C31.6114 22.6339 31.6115 22.6339 31.6115 22.6339C31.6115 22.5907 31.7408 22.5045 31.9565 22.332C32.9052 21.7713 33.8109 21.2107 34.7597 20.65C35.8379 19.96 36.7004 19.3131 37.2179 18.7525Z" fill="#124D73"/>
<path d="M33.8112 38.5906C33.768 38.5475 33.768 38.5044 33.8112 38.4612L34.5874 36.9087C34.6306 36.8224 34.6737 36.7793 34.7168 36.7793C34.8031 36.7793 35.1481 36.9949 35.7519 37.3831C36.3556 37.7712 36.6575 38.03 36.6575 38.1162C36.6575 38.375 36.3988 38.9356 35.8381 39.755C35.795 39.8413 35.7087 39.8844 35.6656 39.8413C35.105 39.41 34.4581 38.9788 33.8112 38.5906Z" fill="#124D73"/>
<path d="M40.2371 29.6634V32.0354C39.3314 32.0354 38.5552 31.8629 37.9083 31.4748C37.7789 31.4316 37.3476 31.0866 36.5713 30.4397C36.0969 30.0947 35.6226 29.9222 35.1913 29.9222V27.464C35.9676 27.464 36.7438 27.809 37.5201 28.5422C38.3395 29.2753 39.2452 29.6634 40.2371 29.6634Z" fill="#124D73"/>
<path d="M44.7656 1.11357C44.7656 1.28608 44.55 1.67422 44.1187 2.27799C43.6443 2.96802 43.1699 3.44241 42.7387 3.7443C42.4799 3.91681 41.5743 4.26182 40.0217 4.64996C39.7198 4.69308 39.5904 4.73621 39.5904 4.73621C39.6336 4.69308 39.7198 4.64996 39.8923 4.47745C40.0648 4.30495 40.6255 4.00306 41.5743 3.52867C42.4368 3.05427 42.9112 2.75239 43.0837 2.62301C43.1268 2.57988 43.1268 2.57988 43.1268 2.53675C43.1268 2.36425 42.3505 2.23487 40.798 2.23487C40.798 2.23487 40.4961 2.23487 39.9354 2.23487C39.6336 2.23487 39.4611 2.23487 39.4611 2.19174C39.4611 2.14861 39.5042 2.06236 39.5904 1.93298L40.1511 1.02732C40.3236 0.768561 40.6255 0.596054 41.0567 0.509801C41.1861 0.466674 41.5311 0.466675 42.1349 0.466675C43.86 0.509801 44.7656 0.682308 44.7656 1.11357Z" fill="#124D73"/>
<path d="M43.8168 25.0488C43.8168 27.3346 43.3855 29.1027 42.5661 30.4397C41.8761 31.561 41.0567 32.1216 40.1079 32.1216V29.7496C40.8842 29.7496 41.5742 29.4478 42.3074 28.8871C42.523 28.7146 42.6092 28.0677 42.6092 26.9895C42.6092 26.3426 42.4367 23.6688 42.0917 19.0111C41.7467 14.3534 41.6173 11.5933 41.6173 10.8171C41.6173 10.0408 41.488 9.437 41.2723 8.96261C41.2723 8.66072 41.488 8.01382 41.9192 6.97878C41.9624 6.89253 42.0055 6.80627 42.0486 6.80627C42.0917 6.80627 42.1349 6.8494 42.2211 6.97878C42.3505 7.23754 42.6524 8.01382 43.0836 9.22137C43.558 10.472 43.8599 11.2483 43.9462 11.5502C43.9893 11.7658 44.0324 11.9383 44.0324 12.0246C44.0324 12.3696 43.6874 12.1971 42.9974 11.4208C42.9111 11.2914 42.868 11.3346 42.868 11.5502C42.868 11.5933 42.9974 13.6634 43.2993 17.7604C43.6874 21.8143 43.8168 24.2294 43.8168 25.0488Z" fill="#124D73"/>
<path d="M45.585 14.0515C45.585 13.2753 45.4556 12.6715 45.24 12.1971C45.24 11.9383 45.4556 11.2483 45.8869 10.2133C45.93 10.0839 46.0163 10.0408 46.0163 10.0408C46.0594 10.0408 46.1025 10.0839 46.1888 10.2133C46.3182 10.472 46.62 11.2483 47.0513 12.4559C47.5257 13.7065 47.8276 14.4828 47.9138 14.7847C47.957 15.0003 48.0001 15.1728 48.0001 15.3022C48.0001 15.6472 47.6551 15.4316 46.9651 14.6553C46.8788 14.5259 46.8357 14.6122 46.8357 14.7847C46.8357 14.8278 47.0082 17.286 47.3532 22.0731C47.6982 26.8602 47.8707 29.534 47.8707 30.1378C47.8707 31.9922 47.612 33.5879 47.0513 34.968C46.9219 35.2267 46.8357 35.4424 46.7494 35.5717C46.62 35.7874 46.5769 35.7874 46.5769 35.658C46.5338 35.5286 46.5769 35.2267 46.5769 34.7523C46.6632 34.1054 46.7063 33.3723 46.7063 32.5529C46.7063 31.7766 46.4907 28.6715 46.1025 23.1944C45.7575 17.8036 45.585 14.7416 45.585 14.0515Z" fill="#124D73"/>
</svg>
