<svg width="48" height="49" viewBox="0 0 48 49" fill="none" xmlns="http://www.w3.org/2000/svg">
<path d="M12.6692 23.2532C12.6692 23.3902 12.4951 23.7024 12.1457 24.1899C11.7546 24.7343 11.382 25.1336 11.0268 25.3878C10.8005 25.5456 10.046 25.794 8.76574 26.1329C8.58118 26.1805 8.47092 26.2026 8.43726 26.2014V26.184C8.46743 26.155 8.54172 26.0923 8.66359 25.9983C8.82726 25.8706 9.28226 25.6118 10.0274 25.2206C10.7413 24.8399 11.1591 24.5961 11.281 24.4905C11.3031 24.4696 11.3135 24.4487 11.3135 24.4278C11.3135 24.2584 10.6786 24.1737 9.40877 24.1737C9.40297 24.1737 9.16038 24.1841 8.67868 24.205C8.57538 24.2096 8.49413 24.2096 8.43726 24.2038V23.9264L8.86904 23.1975C9.00136 22.9758 9.24279 22.8353 9.591 22.7773C9.71868 22.7564 10.0123 22.7448 10.472 22.7448C11.9368 22.7448 12.6692 22.9143 12.6692 23.2532Z" fill="#124D73"/>
<path d="M43.7707 12.8381C43.8438 12.599 43.8612 12.3611 43.8194 12.122C43.7707 11.8585 43.6511 11.7273 43.4619 11.7273C43.3714 11.7273 43.2484 11.7703 43.0917 11.8562C42.9361 11.9432 42.8572 12.028 42.8572 12.1092C42.8572 12.2996 43.1613 12.541 43.7707 12.8381ZM43.3018 13.899C42.5368 13.5044 42.1538 13.0888 42.1538 12.6524C42.1538 12.1266 42.3964 11.6449 42.8816 11.2085C43.3668 10.7732 43.7695 10.613 44.091 10.728C44.3626 10.8266 44.4984 11.1191 44.4984 11.6043C44.4984 12.0396 44.4079 12.5294 44.2268 13.0726C44.6134 13.2943 44.8559 13.4835 44.9546 13.6402C44.9546 13.8456 44.7817 14.195 44.4369 14.6883C44.3383 14.5328 44.1038 14.3424 43.7335 14.1207C43.3052 14.7127 42.7632 15.2524 42.1039 15.7376C41.3564 16.2878 40.6693 16.7033 40.0436 16.983C39.9125 17.0492 39.1882 17.3243 37.8719 17.8095C37.6665 17.8838 37.5318 17.9209 37.4657 17.9209C37.432 17.9209 37.4158 17.9128 37.4158 17.8965C37.4158 17.8478 37.5318 17.7491 37.7617 17.6005C38.732 17.0248 39.707 16.4445 40.6855 15.8606C41.8532 15.1538 42.726 14.4991 43.3018 13.899Z" fill="#124D73"/>
<path d="M35.2837 7.18078C35.6969 7.18078 36.0671 7.42569 36.3956 7.91551C36.7229 8.40533 36.9539 9.04605 37.0863 9.83417C37.1013 9.91542 37.1083 9.96301 37.1083 9.9781C37.1234 10.0002 37.1338 10.0002 37.142 9.9781C37.1489 9.96301 37.1675 9.91542 37.1965 9.83417C37.2638 9.36176 37.4252 8.65837 37.6829 7.72283C37.9637 7.05078 38.269 6.71649 38.601 6.71649C38.7704 6.71649 38.9399 6.83024 39.1105 7.0589C39.2568 7.25738 39.3311 7.41988 39.3311 7.54524C39.3311 7.64042 39.3055 7.76694 39.2533 7.92131C39.1871 8.12792 39.1105 8.23122 39.0212 8.23122C38.984 8.23122 38.9039 8.15113 38.7786 7.99328C38.6532 7.83426 38.5232 7.75533 38.3909 7.75533C38.0961 7.75533 37.8233 8.45176 37.5726 9.84578C37.4623 10.4494 37.3404 10.8777 37.2081 11.1284C37.1118 11.2978 37.0305 11.3826 36.9644 11.3826C36.9052 11.3826 36.8762 11.3048 36.8762 11.1504C36.8762 10.9067 36.7357 10.4331 36.456 9.72855C36.1762 9.02515 35.9766 8.67346 35.8594 8.67346C35.7781 8.67346 35.7259 8.69899 35.7038 8.75006C35.6818 8.8023 35.6156 8.82783 35.5054 8.82783C35.38 8.82783 35.2152 8.73613 35.0132 8.55158C34.8101 8.36703 34.7091 8.21962 34.7091 8.10935C34.7091 8.05712 34.7938 7.88997 34.9633 7.6056C35.1328 7.32239 35.2396 7.18078 35.2837 7.18078Z" fill="#124D73"/>
<path d="M42.2742 27.4631C41.5941 26.5693 40.9626 26.1213 40.3788 26.1213C39.5245 26.1213 39.0962 26.3453 39.0962 26.7922C39.0962 27.3563 39.6893 27.6372 40.8744 27.6372C41.3027 27.6372 41.7693 27.5791 42.2742 27.4631ZM44.9392 27.1056C45.9792 26.6587 46.6362 26.2072 46.9078 25.7487C46.9078 25.4573 46.519 24.6704 45.7413 23.3878C44.8963 21.988 44.3902 20.9294 44.2254 20.2097C44.1766 19.9962 44.0408 19.8557 43.8168 19.7872C43.6323 19.7188 43.5545 19.583 43.5835 19.3787L43.876 17.0897C43.905 16.8472 43.9677 16.7253 44.0652 16.7253C44.1337 16.7253 44.2405 16.7891 44.3856 16.9156L46.6594 18.9272C46.9322 19.1697 47.068 19.3543 47.068 19.4808C47.068 19.7339 46.6014 19.7431 45.6682 19.5098C47.1074 21.7941 47.8271 23.3588 47.8271 24.2038C47.8271 27.0719 46.8637 28.9128 44.9392 29.7288L44.8696 29.7659C44.8696 30.33 44.7338 31.0299 44.461 31.8656C44.1116 32.9741 43.6253 33.8876 43.0032 34.6061C41.5453 36.2973 39.9609 37.7946 38.2512 39.0957C35.7046 41.0202 33.4795 41.9836 31.5736 41.9836C29.9799 41.9836 28.7461 41.3905 27.8709 40.2042C27.0932 39.1735 26.7056 37.8723 26.7056 36.2973C26.7056 34.2753 27.1327 32.2057 27.9882 30.0874C28.182 29.6208 28.319 29.3875 28.3956 29.3875C28.435 29.4061 28.4548 29.456 28.4548 29.5326C28.4548 29.6893 28.4153 29.9122 28.3375 30.2035C27.7351 32.3032 27.4345 33.8969 27.4345 34.9856C27.4345 35.9769 27.6864 36.8312 28.1924 37.5508C28.9307 38.5618 30.1262 39.0667 31.7791 39.0667C33.216 39.0667 34.9466 38.455 36.9686 37.2305C38.6203 36.2392 40.1942 35.0239 41.6916 33.5858C43.0519 32.2835 43.7321 31.4188 43.7321 30.9916C43.7321 30.6794 43.6741 30.359 43.558 30.0282C42.9741 30.2232 42.1477 30.3196 41.0799 30.3196C38.7851 30.3196 37.6383 29.5326 37.6383 27.9587C37.6383 26.7539 38.0179 25.6941 38.7758 24.7806C39.4955 23.9252 40.2523 23.4981 41.0497 23.4981C41.6521 23.4981 42.3032 23.8764 43.0032 24.6344C43.6253 25.3157 44.179 26.1607 44.6653 27.1717C44.7013 27.1717 44.7918 27.1531 44.9392 27.1056Z" fill="#124D73"/>
<path d="M6.87027 40.6767C4.35268 40.6767 2.5083 39.8213 1.3383 38.1127C0.445714 36.815 0 35.1564 0 33.1356C0 32.5041 0.0452673 31.8936 0.138124 31.3039C0.290178 30.344 0.500268 29.5222 0.769553 28.8409C0.862411 28.6053 0.950625 28.4869 1.03536 28.4869C1.12009 28.4869 1.13634 28.6262 1.08527 28.9036C0.69875 31.0184 0.504911 32.2047 0.504911 32.4658C0.504911 33.7461 0.937857 34.9242 1.80607 36.0025C2.96795 37.4348 4.6475 38.1498 6.84589 38.1498C8.79938 38.1498 10.8666 37.6995 13.0476 36.7988C14.8154 36.0582 16.416 35.1436 17.8471 34.0572C19.1274 33.081 19.767 32.3822 19.767 31.9609C19.767 30.7561 19.3804 29.4131 18.6051 27.9321C18.453 27.6454 18.3776 27.4097 18.3776 27.224C18.3776 27.0894 18.5424 26.4963 18.8709 25.4435C18.9301 25.2404 18.9974 25.1394 19.0729 25.1394C19.1483 25.1394 19.2539 25.2787 19.3886 25.5572C20.0281 26.8874 20.8615 27.5525 21.8899 27.5525C22.5213 27.5525 22.9926 27.5014 23.3048 27.4005C23.8016 27.2496 24.2972 26.913 24.7952 26.3906C25.0726 26.0111 25.5148 25.4389 26.1207 24.6728C26.2554 24.5126 26.3946 24.4325 26.5374 24.4325C26.715 24.4325 26.8032 24.5254 26.8032 24.7099C26.8032 24.8028 26.7638 24.9653 26.6837 25.1974C26.6024 25.4284 26.563 25.6072 26.563 25.7337C26.563 25.9693 26.7022 26.2305 26.9796 26.5172C27.3255 26.8781 27.7585 27.0604 28.2808 27.0604C29.0724 27.0604 29.8896 26.0912 30.7311 24.1551C30.8077 23.9775 30.8994 23.8893 31.0085 23.8893C31.2035 23.8893 31.2743 24.0239 31.2244 24.2932C31.1907 24.4871 31.1733 24.6681 31.1733 24.8364C31.1733 25.9902 31.8338 26.5647 33.1477 26.5647C34.327 26.5647 35.0594 26.2247 35.3449 25.5422C35.3449 25.3065 35.1476 24.8016 34.7518 24.0263C34.2469 23.0408 33.8882 22.233 33.6781 21.6015C33.2487 20.305 32.9573 19.0921 32.8064 17.9639C32.7472 17.5263 32.7055 17.2558 32.6799 17.1548C32.6207 16.9192 32.507 16.6882 32.3387 16.4607C32.4571 16.073 32.6416 15.5298 32.8946 14.8311C32.9782 14.6291 33.0548 14.5281 33.1221 14.5281C33.1813 14.5281 33.287 14.6291 33.4379 14.8311C34.103 15.7573 34.6624 16.5861 35.1174 17.3197C35.3031 17.6226 35.396 17.8373 35.396 17.9639C35.396 18.0555 35.3542 18.102 35.2695 18.102C35.1012 18.102 34.7982 17.9639 34.3595 17.6853C34.3188 17.6853 34.284 17.7155 34.2585 17.7747C34.4105 18.3214 34.6555 19.0758 34.9921 20.0346C35.75 22.1912 36.1284 23.7616 36.1284 24.7459C36.1284 25.6048 35.9137 26.4731 35.4842 27.3482C34.912 28.5101 34.1331 29.0916 33.1477 29.0916C31.8581 29.0916 30.9922 28.4161 30.5546 27.0604C30.5036 26.9002 30.449 26.9002 30.3898 27.0604C29.7839 28.7434 28.9169 29.5861 27.7887 29.5861C27.3755 29.5861 26.9541 29.4387 26.5246 29.1439C26.0453 28.8072 25.7133 28.3685 25.5276 27.8299C25.4765 27.6697 25.4011 27.6697 25.3001 27.8299C25.0645 28.2176 24.6559 28.6343 24.0744 29.0812C23.2491 29.7126 22.4459 30.0283 21.6624 30.0283C21.2829 30.0283 20.959 29.9865 20.6897 29.9018C20.6897 32.0828 20.2638 33.6614 19.4141 34.6387C18.2859 35.9352 16.6516 37.1864 14.5124 38.3901C11.7847 39.9141 9.23697 40.6767 6.87027 40.6767Z" fill="#124D73"/>
<path d="M46.0269 35.92L46.4726 35.0031C46.5074 34.9334 46.5446 34.8986 46.5852 34.8986C46.6432 34.8986 46.8939 35.0495 47.3362 35.3525C47.7784 35.6554 48.0001 35.833 48.0001 35.8852C48.0001 36.0825 47.8051 36.4958 47.4151 37.1249C47.3687 37.2003 47.3188 37.2212 47.2665 37.1864C46.8823 36.9009 46.4482 36.6014 45.9654 36.2868C45.8029 36.6536 45.6427 36.9647 45.4848 37.2212C45.4384 37.3025 45.3885 37.3234 45.3363 37.2827C44.8998 36.9508 44.4495 36.6385 43.9829 36.3472C43.9597 36.3298 43.9597 36.295 43.9829 36.2427L44.5423 35.0994C44.5772 35.0286 44.6155 34.9938 44.6561 34.9938C44.7083 34.9938 44.9207 35.1192 45.2933 35.3699C45.6659 35.6206 45.9108 35.804 46.0269 35.92Z" fill="#124D73"/>
<path d="M28.4679 14.2913C28.4446 14.2738 28.4446 14.239 28.4679 14.1868L29.0273 13.0435C29.0621 12.9727 29.0993 12.9379 29.1411 12.9379C29.1991 12.9379 29.4487 13.0888 29.8909 13.3917C30.3331 13.6947 30.5548 13.8722 30.5548 13.9245C30.5548 14.123 30.3598 14.5362 29.9698 15.1653C29.9234 15.2465 29.8735 15.2663 29.8212 15.2256C29.3848 14.8937 28.9345 14.5826 28.4679 14.2913Z" fill="#124D73"/>
</svg>
