<svg width="48" height="49" viewBox="0 0 48 49" fill="none" xmlns="http://www.w3.org/2000/svg">
<path d="M36.5754 10.6893C36.5754 9.65657 36.4248 8.839 36.102 8.15052C36.102 7.78477 36.3602 6.90265 36.9842 5.56873C37.0272 5.41812 37.0917 5.31055 37.1348 5.31055C37.2423 5.31055 37.2854 5.41812 37.3929 5.56873C37.5435 5.93448 37.9093 6.90265 38.5332 8.51628C39.2002 10.216 39.566 11.2487 39.6735 11.6575C39.7811 11.9156 39.7811 12.1738 39.7811 12.2814C39.7811 12.7547 39.3723 12.4965 38.4472 11.4638C38.3396 11.3132 38.2966 11.4208 38.2966 11.679C38.2966 11.7866 38.5547 14.9923 39.0281 21.3822C39.5014 27.7291 39.695 31.3006 39.695 32.1182C39.695 34.5494 39.3293 36.7224 38.6193 38.5727C38.4041 38.9384 38.3181 39.1966 38.2105 39.3903C38.0599 39.6484 37.9954 39.6484 37.9523 39.4978C37.9093 39.2827 37.9523 38.8739 37.9954 38.3145C38.1029 37.4324 38.146 36.4642 38.146 35.367C38.146 34.3342 37.8878 30.2034 37.3714 22.9313C36.8335 15.6592 36.5754 11.5714 36.5754 10.6893Z" fill="#124D73"/>
<path d="M28.5292 28.4177L22.9568 27.0192C22.9998 26.9116 23.7313 26.6535 25.0653 26.2877C26.8725 25.7713 28.3786 25.298 29.4974 24.8462C30.0567 24.6311 30.3795 24.3298 30.487 23.9641C30.5301 23.7059 30.5946 22.458 30.5946 20.199C30.5946 19.0156 30.487 17.2514 30.3364 14.9278C30.1213 12.6042 30.0783 11.2057 30.0783 10.7539C30.0783 9.76421 29.9277 8.94664 29.6049 8.27967C29.6049 7.91392 29.9061 7.03181 30.487 5.65485C30.5946 5.50424 30.6376 5.4397 30.7022 5.4397C30.7452 5.4397 30.8528 5.48273 30.9173 5.65485C31.0679 6.06363 31.4767 7.05332 32.1007 8.64543C32.7246 10.3021 33.0904 11.3348 33.241 11.7436C33.284 12.0448 33.3485 12.2599 33.3485 12.4105C33.3485 12.8839 32.8752 12.5612 32.0146 11.5284C31.907 11.3778 31.864 11.4854 31.864 11.7436C31.864 11.8512 31.907 12.6687 32.0146 14.3254C32.1222 15.982 32.2298 17.1223 32.2298 17.6817C32.2298 20.6293 32.0146 22.8023 31.6058 24.1362C31.0464 25.922 30.0137 27.3204 28.5292 28.4177Z" fill="#124D73"/>
<path d="M47.8925 31.0425L46.8168 33.2155C46.7092 33.4307 46.5586 33.5813 46.408 33.5167C46.408 33.5598 45.9992 33.5167 45.2677 33.4737C44.4931 33.4737 43.7616 33.4307 43.0947 33.4307C40.2547 33.4307 37.8235 33.7319 35.8656 34.3558C33.585 35.1303 31.2614 35.8619 28.9378 36.6364C24.9575 37.8197 21.7088 38.4436 19.127 38.4436C15.8782 38.4436 13.2319 38.0349 11.274 37.2603V34.1191C12.9307 34.8937 15.62 35.3025 19.2346 35.3025C23.4085 35.3025 28.6366 34.1622 34.9405 31.9461C34.6823 31.9461 32.7675 31.4728 29.153 30.6122C26.0118 29.8807 24.0324 29.4719 23.2579 29.4719C22.2682 29.4719 21.8163 29.4289 21.8163 29.2568C21.8163 29.2137 21.8594 29.1062 21.967 28.9986C22.1176 28.5898 22.4833 27.9228 22.8921 27.0837H28.3139C35.4353 29.0416 41.6962 30.1819 47.118 30.5907C47.6773 30.6337 48.0001 30.6983 48.0001 30.8489C48.0001 30.8919 47.9355 30.9349 47.8925 31.0425Z" fill="#124D73"/>
<path d="M11.2735 34.0332V37.2389C7.61599 35.6898 5.80873 33.4092 5.80873 30.3756C5.80873 29.9668 5.85176 29.4505 5.95934 28.7835C6.06691 27.8584 6.26054 27.4496 6.47569 27.4496C6.58327 27.4496 6.69084 27.6002 6.69084 28.009C6.69084 30.6338 8.17538 32.6347 11.2735 34.0332Z" fill="#124D73"/>
<path d="M2.90452 36.0986C2.90452 38.7879 3.72209 40.8964 5.37874 42.51C7.44418 44.5324 10.7575 45.5006 15.2971 45.5006C16.588 45.5006 18.4383 45.4576 20.8265 45.2854C23.774 45.1348 25.9471 44.9197 27.324 44.7261C27.6898 44.683 27.9479 44.683 28.1416 44.683C28.3998 44.683 28.5073 44.683 28.5073 44.7906C28.5073 44.9412 28.2061 45.0918 27.4746 45.35C26.5495 45.7157 23.5589 46.7485 18.5459 48.3406C17.4056 48.5987 16.3729 48.7063 15.4477 48.7063C6.36843 48.7063 1.80726 45.2424 1.80726 38.3791C1.80726 34.0331 2.99058 30.3325 5.3142 27.1698C6.97085 24.8462 9.14386 23.039 11.7257 21.6405C8.99326 21.3823 7.44418 21.2317 7.12145 21.2317C6.13176 21.2317 5.57238 21.3823 5.42177 21.6405C5.3142 21.8556 5.27117 21.9417 5.20662 22.0062C5.16359 22.0062 4.94844 22.0493 4.64723 22.1138C3.05512 22.329 1.76423 22.372 0.731508 22.372C0.258178 22.372 0 22.2644 0 22.0708C0 21.9632 0 21.8126 0.107575 21.5975L0.623933 20.0484C0.731508 19.6826 0.925141 19.4245 1.14029 19.3169C2.21604 18.8435 3.35633 18.4993 4.53966 18.2411C5.35723 18.0905 6.45449 18.0905 7.78842 18.2411C10.0045 18.4993 14.5011 18.6499 21.1707 18.6499C21.4719 18.6499 21.6441 18.6929 21.6871 18.7575C21.6871 18.8651 21.6871 19.0157 21.6441 19.1663L21.0847 20.7153C20.9341 21.1241 20.7835 21.3393 20.5253 21.3823C16.545 22.2644 13.0811 23.5984 10.0905 25.3626C5.33571 28.2456 2.90452 31.8171 2.90452 36.0986Z" fill="#124D73"/>
<path d="M11.2307 30.0098C11.1877 29.9668 11.1877 29.9022 11.2307 29.7947L12.2204 27.7292C12.2634 27.6216 12.371 27.5786 12.4355 27.5786C12.5431 27.5786 12.9949 27.8368 13.7695 28.3532C14.587 28.9125 15.0173 29.2353 15.0173 29.3428C15.0173 29.7086 14.6516 30.4186 13.9416 31.5589C13.834 31.7095 13.791 31.774 13.6834 31.7095C12.8873 31.0855 12.0483 30.5262 11.2307 30.0098Z" fill="#124D73"/>
<path d="M14.9962 13.6369C18.9765 12.1954 23.1074 10.6464 27.4319 9.03274C27.5825 8.98971 27.6901 8.92516 27.7331 8.98971C27.7331 8.98971 27.7331 9.09728 27.6901 9.24789C27.4749 9.72122 27.3243 9.9794 27.2167 10.0655C23.6022 11.3994 19.3207 13.056 14.4584 15.0784C14.5875 14.6266 14.7381 14.1533 14.9962 13.6369Z" fill="#124D73"/>
<path d="M12.0482 13.7875C12.0482 14.1963 11.9407 14.6697 11.747 15.0784C11.4889 15.6378 11.1876 15.9606 10.8219 15.9606C10.198 15.9606 9.78917 15.5518 9.53099 14.7127C9.22978 15.7454 8.71342 16.3048 7.93888 16.3048C7.6807 16.3048 7.42252 16.1542 7.20737 15.8315C6.94919 15.5303 6.84162 15.0569 6.84162 14.5406V13.2066C6.84162 13.0991 6.73404 13.056 6.62647 12.9915C6.47586 12.9485 6.41132 12.8409 6.41132 12.6903C6.41132 12.3891 6.51889 12.1309 6.71253 11.8727C6.92768 11.6145 7.07828 11.507 7.18586 11.507C7.33646 11.507 7.44404 11.7651 7.44404 12.3245C7.44404 12.6257 7.40101 12.8839 7.40101 13.0991C7.35798 13.3142 7.35798 13.4648 7.35798 13.6154C7.35798 13.9166 7.40101 14.2394 7.50858 14.4975C7.65919 14.7988 7.87434 15.0139 8.06797 15.0139C8.36918 15.0139 8.62736 14.8633 8.88554 14.6051C9.14372 14.3469 9.29433 14.0457 9.29433 13.68C9.29433 13.4648 9.18675 13.1636 9.07918 12.6473C8.92857 12.1739 8.86403 11.8727 8.86403 11.7651C8.86403 11.6576 8.90706 11.507 9.01463 11.2488C9.12221 11.0336 9.22978 10.9476 9.27281 10.9476C9.38038 10.9476 9.48796 11.2488 9.63856 11.8727C9.78917 12.5397 9.89675 13.013 9.89675 13.3142C9.89675 14.1963 10.198 14.6481 10.8864 14.6481C11.1876 14.6481 11.4028 14.4975 11.4458 14.1748C10.8864 13.1421 10.5637 12.3676 10.5637 11.8082C10.5637 11.507 10.6067 11.2488 10.8219 10.9906C10.9295 10.84 10.9725 10.7324 11.037 10.7324C11.1016 10.7324 11.1446 10.84 11.1446 11.0336C11.1876 11.2918 11.2522 11.55 11.2952 11.7651C11.2952 11.7651 11.4458 12.1309 11.704 12.8409C11.9407 13.2712 12.0482 13.5939 12.0482 13.7875Z" fill="#124D73"/>
<path d="M44.536 39.4548C44.536 40.0142 44.2779 40.6382 43.8691 41.3051C43.3957 41.9721 42.8363 42.596 42.1048 43.1124C41.8036 43.3275 41.6315 43.4136 41.5885 43.4136V43.3706C41.5885 43.3275 41.6961 43.22 41.8897 42.9618C43.073 41.6709 43.6969 40.8533 43.6969 40.38C43.6969 40.0142 43.4818 39.8206 43.1376 39.8206C42.9224 39.8206 42.7288 39.8636 42.5782 39.9712C42.4276 40.0142 42.363 40.0788 42.32 40.0788C42.32 40.0788 42.277 40.0788 42.277 40.0358C42.277 40.0358 42.277 39.9282 42.32 39.7345C42.5351 38.8524 42.9439 38.4436 43.6539 38.4436C44.2133 38.4221 44.536 38.7879 44.536 39.4548Z" fill="#124D73"/>
<path d="M36.6847 1.61631C36.6847 1.82933 36.4717 2.21276 36.0031 2.85182C35.4492 3.57609 34.9806 4.12994 34.512 4.47077C34.2137 4.68379 33.2338 5.02462 31.5297 5.45065C31.2315 5.49326 31.061 5.53586 31.061 5.53586C31.1036 5.49326 31.1888 5.40805 31.4019 5.28024C31.6149 5.10983 32.2113 4.76899 33.2338 4.25775C34.1711 3.7465 34.725 3.40567 34.8528 3.27786C34.8954 3.23525 34.8954 3.19265 34.8954 3.19265C34.8954 2.97963 34.0433 2.89442 32.3818 2.89442C32.3818 2.89442 32.0835 2.89443 31.4445 2.93703C31.1036 2.97963 30.9332 2.93703 30.9332 2.89442C30.9332 2.85182 30.9758 2.76661 31.061 2.6388L31.6575 1.65891C31.8279 1.36069 32.1687 1.19027 32.6374 1.10506C32.8078 1.06246 33.1912 1.06246 33.7877 1.06246C35.7475 0.977253 36.6847 1.19027 36.6847 1.61631Z" fill="#124D73"/>
</svg>
