<svg width="49" height="49" viewBox="0 0 49 49" fill="none" xmlns="http://www.w3.org/2000/svg">
<path d="M12.5358 38.1145C12.4918 38.0705 12.4918 38.0265 12.5358 37.9386L13.3714 36.2234C13.4154 36.1354 13.4594 36.0915 13.5473 36.0915C13.6353 36.0915 13.9871 36.3114 14.6468 36.7512C15.3065 37.1909 15.6143 37.4548 15.6143 37.5428C15.6143 37.8066 15.3065 38.4223 14.7347 39.3459C14.6468 39.4778 14.6028 39.4778 14.5148 39.4339C13.8991 38.9941 13.2395 38.5543 12.5358 38.1145ZM10.6007 48.8453C7.3463 48.8453 5.14736 47.2621 3.91595 44.0516C3.65208 43.4359 3.52014 42.6443 3.52014 41.7208C3.52014 41.0611 3.56412 40.4014 3.69606 39.7417C3.82799 38.7742 4.04789 37.9386 4.31176 37.2349C4.39972 36.971 4.53165 36.8391 4.57563 36.8391C4.61961 36.8391 4.66359 36.971 4.61961 37.2789C4.53165 37.7187 4.39972 38.1585 4.31176 38.5983C4.13584 39.4339 4.04789 40.0056 4.04789 40.3574C4.04789 41.6768 4.48767 42.8642 5.36725 43.9637C6.55468 45.459 8.31383 46.1626 10.5568 46.1626C12.5358 46.1626 14.6028 45.6789 16.8017 44.7553C18.4729 44.0516 20.0562 43.0841 21.5075 41.9407C22.7389 41.0171 23.4865 40.3134 23.6624 39.8297C23.6624 38.3784 23.2227 36.8391 22.431 35.2119C22.2991 34.904 22.2111 34.6402 22.2111 34.5082C22.2111 34.3763 22.3871 33.7606 22.6949 32.6611C22.7389 32.4412 22.8268 32.3533 22.8708 32.3533C22.9588 32.3533 23.0907 32.4852 23.2227 32.7931C23.4425 33.3208 23.6185 33.6287 23.7064 33.7166C23.9703 34.0245 24.4101 34.1564 25.0258 34.1564V36.7512C24.7619 36.7512 24.542 36.7072 24.4101 36.6632C24.4101 38.4223 24.3221 39.7857 24.1022 40.7092C23.8823 41.7208 23.5305 42.5124 23.0028 42.9961C21.5954 44.4035 19.8363 45.6349 17.8133 46.7343C15.3065 48.1856 12.8437 48.8453 10.6007 48.8453Z" fill="#124D73"/>
<path d="M24.1023 47.746C26.4772 46.8664 29.0279 45.9428 31.7546 44.9753C31.8866 44.9313 31.9745 44.8873 31.9745 44.9313C32.0185 44.9753 32.0185 45.0632 31.9305 45.1512C31.7546 45.547 31.6667 45.7669 31.5347 45.8109C29.2918 46.6465 26.6531 47.658 23.6185 48.9334C23.7505 48.5376 23.9264 48.1418 24.1023 47.746Z" fill="#124D73"/>
<path d="M26.0375 42.2926C25.9936 42.2486 25.9936 42.2046 26.0375 42.1166L26.8731 40.4015C26.9171 40.3135 26.9611 40.2695 27.049 40.2695C27.137 40.2695 27.4888 40.4894 28.1485 40.9292C28.8082 41.369 29.116 41.6329 29.116 41.7208C29.116 41.9847 28.8082 42.6004 28.2365 43.524C28.1485 43.6559 28.1045 43.6559 28.0166 43.6119C27.4009 43.1721 26.7412 42.6884 26.0375 42.2926Z" fill="#124D73"/>
<path d="M42.6611 30.3301L41.7375 32.1333C41.6496 32.3092 41.5176 32.4411 41.3857 32.3971C38.4831 32.3971 35.9763 32.8369 33.8653 33.7165C33.3815 33.9364 32.0182 34.5961 29.8192 35.7395C28.3679 36.4872 26.7847 36.839 25.0256 36.839V34.2442C27.4444 34.2442 30.1271 33.4086 33.1616 31.7375C30.4789 31.2977 27.7962 30.9458 25.1575 30.7699C24.6737 30.7259 24.4099 30.682 24.4099 30.55C24.4099 30.506 24.4099 30.506 24.4538 30.4621C24.6737 30.0223 24.9816 29.4066 25.3774 28.6589H29.8192C30.391 28.7469 31.9302 29.0108 34.393 29.3626C37.5595 29.7584 40.1103 29.9343 41.9574 29.9343C42.4412 29.9343 42.705 29.9783 42.705 30.0663C42.749 30.1542 42.705 30.2422 42.6611 30.3301Z" fill="#124D73"/>
<path d="M30.4793 1.52419C30.4793 1.74408 30.2594 2.13989 29.7756 2.75559C29.2479 3.50323 28.7201 4.03098 28.2364 4.38281C27.9285 4.6027 26.917 4.95454 25.2458 5.39432C24.9379 5.4383 24.762 5.48228 24.762 5.48228C24.806 5.4383 24.894 5.35034 25.1139 5.21841C25.3338 5.04249 25.9495 4.69066 26.961 4.20689C27.9285 3.67915 28.4563 3.3713 28.6322 3.23936C28.6761 3.19538 28.6761 3.1514 28.6761 3.1514C28.6761 2.93151 27.8405 2.84355 26.1254 2.84355C26.1254 2.84355 25.8175 2.84355 25.1578 2.88753C24.85 2.93151 24.6741 2.88753 24.6741 2.84355C24.6741 2.79957 24.7181 2.71161 24.806 2.57968L25.4217 1.56816C25.5976 1.26031 25.9055 1.0844 26.3892 0.99644C26.5212 0.952462 26.917 0.952462 27.5327 0.952462C29.5117 0.864505 30.4793 1.0844 30.4793 1.52419Z" fill="#124D73"/>
<path d="M26.5208 32.0014L21.947 30.9019C22.0349 30.814 22.6506 30.5941 23.7061 30.2862C25.2014 29.8904 26.3888 29.4946 27.3564 29.0988C27.7961 28.9229 28.06 28.659 28.148 28.3512C28.192 28.1752 28.192 27.1198 28.192 25.2726C28.192 24.525 28.06 22.1062 27.7522 18.0601C27.4443 13.9701 27.3124 11.5952 27.3124 10.8476C27.3124 10.012 27.1804 9.35231 26.9166 8.82456C26.9166 8.51671 27.1804 7.81305 27.6642 6.6696C27.7082 6.53766 27.7522 6.44971 27.8401 6.44971C27.8841 6.44971 27.9721 6.53766 28.016 6.6696C28.148 6.97745 28.4558 7.76907 28.9836 9.13241C29.5113 10.4958 29.8192 11.3753 29.8631 11.6832C29.9511 11.9471 29.9511 12.123 29.9511 12.2549C29.9511 12.6507 29.5993 12.3868 28.8516 11.5513C28.7637 11.4193 28.7197 11.4633 28.7197 11.6832C28.7197 11.7272 28.8516 13.4423 29.1155 16.8287C29.3794 20.2151 29.5113 22.3261 29.5113 23.2056C29.5113 25.4925 29.3794 27.0758 29.1155 28.0433C28.7637 29.7585 27.8841 31.0779 26.5208 32.0014Z" fill="#124D73"/>
<path d="M41.9578 12.519C41.9578 11.6834 41.8259 11.0237 41.562 10.4959C41.562 10.1881 41.7819 9.48444 42.2657 8.34099C42.3536 8.20905 42.3976 8.12109 42.4416 8.12109C42.4856 8.12109 42.5296 8.20905 42.6175 8.34099C42.7494 8.64884 43.1013 9.44046 43.585 10.7598C44.1128 12.1232 44.4206 13.0027 44.5086 13.3106C44.5966 13.5745 44.5966 13.7504 44.5966 13.8823C44.5966 14.2781 44.2447 14.0143 43.4971 13.1787C43.4091 13.0467 43.3651 13.0907 43.3651 13.3106C43.3651 13.3986 43.5411 16.0373 43.9369 21.2708C44.3327 26.5042 44.5086 29.4508 44.5086 30.1105C44.5086 32.1335 44.2007 33.8927 43.629 35.4319C43.4971 35.7398 43.3651 35.9597 43.3212 36.0916C43.1892 36.3115 43.1013 36.3555 43.1013 36.2236C43.0573 36.0476 43.0573 35.7398 43.1453 35.256C43.2332 34.5524 43.2772 33.7607 43.2772 32.8372C43.2772 32.0016 43.0573 28.6152 42.6175 22.5901C42.1777 16.609 41.9578 13.2666 41.9578 12.519Z" fill="#124D73"/>
<path d="M14.1567 24.4858C14.1567 24.6262 13.9812 24.907 13.6653 25.3633C13.2792 25.8898 12.9282 26.2759 12.5772 26.4865C12.3666 26.6269 11.6647 26.8726 10.4713 27.1884C10.2607 27.2235 10.1554 27.2586 10.1554 27.2586C10.1905 27.2236 10.2607 27.1885 10.4011 27.0832C10.5415 26.9428 10.9627 26.7322 11.6998 26.3461C12.3666 25.9951 12.7527 25.7494 12.858 25.6441C12.8931 25.609 12.8931 25.609 12.8931 25.5739C12.8931 25.4335 12.2964 25.3633 11.1031 25.3633C11.1031 25.3633 10.8925 25.3633 10.4362 25.3633C10.1905 25.3633 10.0852 25.3633 10.0852 25.3282C10.0852 25.2931 10.1203 25.2229 10.1905 25.1527L10.6117 24.4507C10.7521 24.2401 10.9627 24.0997 11.3137 24.0646C11.419 24.0295 11.6998 24.0295 12.1209 24.0295C13.4898 24.0295 14.1567 24.205 14.1567 24.4858Z" fill="#124D73"/>
</svg>
