<svg width="49" height="49" viewBox="0 0 49 49" fill="none" xmlns="http://www.w3.org/2000/svg">
<path d="M13.927 12.6989C13.8895 12.6615 13.8895 12.6241 13.9269 12.5867L14.5611 11.2769C14.5984 11.2021 14.6357 11.1646 14.6731 11.1646C14.7479 11.1645 15.0099 11.3512 15.5339 11.6871C16.0205 12.0231 16.2826 12.2472 16.2827 12.322C16.283 12.5464 16.0591 12.9955 15.6112 13.7066C15.5739 13.7814 15.4991 13.8189 15.4617 13.7816C14.975 13.3708 14.4509 12.9974 13.927 12.6989Z" fill="#124D73"/>
<path d="M16.5515 18.0439C16.0645 17.3339 15.5404 16.9605 14.942 16.9612C14.5307 16.9617 14.3064 17.1116 14.3068 17.3734C14.3071 17.6726 14.5691 17.8593 15.0928 17.9334C15.3921 17.9705 15.8783 17.9699 16.5515 18.0439ZM6.27482 24.7134C8.36918 24.7109 10.7995 24.2218 13.4911 23.2461C15.5098 22.5331 17.0424 21.858 18.0513 21.1836C18.0508 20.7722 17.826 20.4359 17.3769 20.1746C16.9652 19.9507 16.4789 19.8391 15.9553 19.8398L14.6464 19.8414C14.1602 19.8419 13.786 19.6928 13.4864 19.3566C13.2242 19.0577 13.0741 18.6465 13.0735 18.1603C13.0727 17.4871 13.2963 16.8136 13.7816 16.1025C14.2296 15.4287 14.7153 15.0542 15.2389 15.0535C16.0617 15.0525 16.8102 15.5004 17.522 16.4345C18.2712 17.4434 18.6466 18.6397 18.6483 19.9861C18.6492 20.7341 18.6124 21.2577 18.5006 21.557C18.3514 21.9312 18.0528 22.3804 17.5298 22.8672C16.8948 23.5038 15.3623 24.2536 12.895 25.1168C10.0539 26.13 7.58612 26.6192 5.49176 26.6218C3.43479 26.6243 1.93814 26.0651 1.00184 24.9817C0.365094 24.197 0.0273634 23.2625 0.0259083 22.0657C0.0244076 20.8315 0.322192 19.6718 0.881908 18.6239C1.1059 18.287 1.21787 18.0999 1.29266 18.0998C1.29266 18.0998 1.29271 18.1372 1.29276 18.1746C1.29289 18.2868 1.25572 18.4739 1.14389 18.7732C0.994743 19.1474 0.845601 19.5215 0.733858 19.8957C0.547452 20.3821 0.47329 20.9058 0.473972 21.4668C0.474836 22.1773 0.812203 22.8127 1.52343 23.3354C2.57179 24.3066 4.14306 24.716 6.27482 24.7134Z" fill="#124D73"/>
<path d="M20.1112 23.2754C20.1858 23.0883 20.1856 22.9013 20.1479 22.7144C20.1103 22.49 19.9979 22.3779 19.8483 22.3781C19.7735 22.3782 19.6988 22.4157 19.5493 22.4907C19.4372 22.5656 19.3625 22.6405 19.3625 22.6779C19.4001 22.8649 19.6247 23.0516 20.1112 23.2754ZM19.7383 24.136C19.1395 23.8376 18.8399 23.5013 18.8395 23.1273C18.839 22.7159 19.0254 22.3043 19.4364 21.9672C19.81 21.6302 20.1464 21.4802 20.4084 21.5921C20.6328 21.6666 20.7453 21.8908 20.7458 22.2648C20.7462 22.6388 20.6719 23.0129 20.5228 23.4619C20.8223 23.6485 21.0094 23.7979 21.0844 23.91C21.0845 24.0596 20.9353 24.359 20.674 24.7333C20.599 24.6212 20.4119 24.4718 20.1124 24.2852C19.7764 24.7718 19.3281 25.1837 18.805 25.5583C18.2072 26.0079 17.6466 26.3451 17.1607 26.5701C17.0485 26.6077 16.4878 26.8327 15.4037 27.208C15.2168 27.2831 15.1046 27.3206 15.0672 27.3207C15.0298 27.3207 15.0298 27.3207 15.0298 27.3207C15.0298 27.2833 15.1419 27.2084 15.3287 27.0959C16.1136 26.6462 16.8984 26.159 17.6832 25.6719C18.5801 25.1472 19.2901 24.6228 19.7383 24.136Z" fill="#124D73"/>
<path d="M17.9914 33.6003C18.6636 32.8141 19.5978 32.1397 20.6816 31.54C21.3543 31.1652 22.4757 30.6777 24.083 29.9651L24.0852 31.7603C23.0759 32.1729 22.3284 32.5478 21.8051 32.7728C20.7959 33.2229 20.1231 33.5977 19.7495 33.8973C19.0769 34.4217 18.1058 35.4327 16.7986 36.9303C16.0143 37.8288 15.2669 38.2785 14.4815 38.2795C13.8083 38.2803 13.247 37.9818 12.7601 37.384C12.2357 36.7862 11.973 36.0385 11.9719 35.141C11.9704 33.9068 12.4547 32.3354 13.4621 30.352C13.5741 30.1649 13.6487 30.0526 13.6861 30.0526C13.7235 30.0525 13.7236 30.0899 13.7236 30.1273C13.7239 30.3517 13.5003 31.0252 13.0903 32.1851C12.6803 33.3449 12.4571 34.2802 12.4579 34.9534C12.4585 35.477 12.5712 35.8882 12.8334 36.1871C13.0956 36.5234 13.4324 36.71 13.9186 36.7094C14.7414 36.7084 15.5637 36.296 16.3855 35.4722C16.9457 34.8357 17.4685 34.2367 17.9914 33.6003Z" fill="#124D73"/>
<path d="M26.5353 16.5357C26.5355 16.6853 26.3488 16.9847 26.0129 17.5087C25.6022 18.0702 25.2287 18.4821 24.855 18.7443C24.6308 18.8942 23.8457 19.1569 22.5746 19.5325C22.3502 19.5701 22.2007 19.6077 22.2007 19.6077C22.238 19.5703 22.3128 19.5328 22.4622 19.383C22.6116 19.2332 23.0975 18.9709 23.845 18.5959C24.5551 18.1837 24.9662 17.9588 25.1157 17.8464C25.153 17.809 25.1531 17.809 25.153 17.7716C25.1528 17.622 24.5169 17.5479 23.208 17.5495C23.208 17.5495 22.9836 17.5498 22.46 17.5504C22.1982 17.5508 22.086 17.5509 22.0859 17.5135C22.0859 17.4761 22.1232 17.4013 22.1979 17.289L22.6457 16.503C22.795 16.2785 23.0192 16.1286 23.3932 16.0907C23.5053 16.0532 23.8045 16.0528 24.2907 16.0522C25.7867 16.0504 26.5349 16.1991 26.5353 16.5357Z" fill="#124D73"/>
<path d="M23.9237 21.6626C23.8862 21.6253 23.8862 21.5879 23.9236 21.5504L24.5577 20.2407C24.5951 20.1658 24.6324 20.1284 24.6698 20.1283C24.7446 20.1282 25.0066 20.3149 25.5306 20.6509C26.0172 20.9869 26.2793 21.211 26.2794 21.2858C26.2797 21.5101 26.0558 21.9592 25.6079 22.6703C25.5706 22.7452 25.4958 22.7827 25.4584 22.7453C24.9717 22.3719 24.4851 21.9985 23.9237 21.6626Z" fill="#124D73"/>
<path d="M36.1963 26.2104L35.7491 27.5573C35.7119 27.707 35.6372 27.7818 35.5999 27.8193C35.5625 27.8567 35.5251 27.8942 35.413 27.9317C32.721 28.5708 30.0667 29.3968 27.4126 30.4472C27.4505 30.8585 27.4883 31.1577 27.4885 31.3821C27.4889 31.7187 27.4517 31.8683 27.3395 31.8685C27.1899 31.8686 26.9277 31.495 26.478 30.7475C25.992 30.8977 25.1322 31.2354 23.936 31.7604L23.9339 29.9652C24.3076 29.7778 24.831 29.5902 25.429 29.2902C25.3541 29.2155 24.9049 28.8421 24.0438 28.1325C23.2951 27.5351 22.8083 27.0495 22.6209 26.7131C22.4335 26.3767 22.3209 26.0403 22.3205 25.7037C22.3198 25.1053 22.5809 24.5814 23.0666 24.132C23.5522 23.6826 24.1877 23.4574 24.8983 23.4566C26.2447 23.4549 28.4143 23.8263 31.3323 24.5333C31.4446 24.5706 33.0158 24.9801 35.9713 25.7619C36.2333 25.9112 36.2709 26.0233 36.1963 26.2104ZM32.8688 27.0372C32.1578 26.7389 31.0354 26.4037 29.5016 26.0315C27.5563 25.5851 25.9852 25.3252 24.7884 25.3267C23.8534 25.3278 23.3673 25.4032 23.3675 25.5528C23.3676 25.6276 23.5174 25.777 23.7795 26.0385C24.3036 26.4867 24.8278 26.9348 25.3893 27.3829C26.1755 28.0551 26.6997 28.5407 26.9244 28.8396C29.0179 28.0517 30.9993 27.4509 32.8688 27.0372Z" fill="#124D73"/>
<path d="M38.3533 16.5214C38.4279 16.3343 38.4277 16.1473 38.39 15.9603C38.3524 15.736 38.24 15.6239 38.0904 15.6241C38.0156 15.6242 37.9409 15.6617 37.7914 15.7367C37.6793 15.8116 37.6046 15.8865 37.6046 15.9239C37.6048 16.1109 37.8669 16.2976 38.3533 16.5214ZM37.9804 17.382C37.3816 17.0835 37.082 16.7473 37.0816 16.3733C37.0811 15.9619 37.2676 15.5503 37.6785 15.2132C38.0521 14.8762 38.3885 14.7261 38.6505 14.838C38.8749 14.9126 38.9874 15.1368 38.9879 15.5108C38.9883 15.8848 38.914 16.2589 38.7649 16.7079C39.0644 16.8945 39.2515 17.0439 39.3265 17.156C39.3266 17.3056 39.1774 17.6049 38.9161 17.9793C38.8411 17.8671 38.654 17.7178 38.3545 17.5311C38.0185 18.0177 37.5702 18.4297 37.0471 18.8043C36.4493 19.2538 35.8887 19.5911 35.4028 19.8161C35.2906 19.8536 34.7299 20.0787 33.6458 20.454C33.4589 20.529 33.3467 20.5666 33.3093 20.5666C33.2719 20.5667 33.2719 20.5667 33.2719 20.5667C33.2719 20.5293 33.384 20.4543 33.5708 20.3419C34.3557 19.8922 35.1405 19.405 35.9253 18.9179C36.8222 18.3932 37.5322 17.8687 37.9804 17.382Z" fill="#124D73"/>
<path d="M38.6603 22.9911C38.6606 23.2155 38.6236 23.5147 38.5117 23.7766C38.3625 24.1508 38.1757 24.3006 37.9139 24.301C37.5399 24.3014 37.2778 24.0399 37.1276 23.5165C36.9414 24.1899 36.6426 24.5269 36.1564 24.5275C35.9694 24.5277 35.8197 24.4531 35.7073 24.2662C35.5575 24.042 35.4823 23.7803 35.4819 23.4437L35.4809 22.6209C35.4808 22.5461 35.4434 22.5088 35.3311 22.4715C35.2189 22.4343 35.1815 22.3969 35.1813 22.2473C35.181 22.0603 35.2557 21.9106 35.405 21.7235C35.5545 21.5737 35.6292 21.4988 35.704 21.4987C35.8162 21.4986 35.8538 21.6855 35.8542 22.0221C35.8544 22.2091 35.8546 22.3587 35.8174 22.5083C35.7801 22.6206 35.7803 22.7328 35.7803 22.8076C35.7806 23.032 35.8182 23.1815 35.8932 23.3684C35.9683 23.5927 36.0806 23.6674 36.2302 23.6672C36.4172 23.667 36.5667 23.592 36.7161 23.4422C36.8655 23.2925 36.9401 23.1054 36.9398 22.881C36.9397 22.7688 36.902 22.5444 36.8268 22.2453C36.7517 21.9462 36.7141 21.7593 36.714 21.6845C36.7139 21.6097 36.7511 21.4974 36.8258 21.3851C36.9004 21.2354 36.9377 21.1606 36.9751 21.1606C37.0499 21.1605 37.1249 21.3474 37.2002 21.7587C37.2755 22.17 37.3507 22.4691 37.3509 22.6561C37.3516 23.2171 37.5763 23.4786 37.9877 23.4781C38.1747 23.4779 38.2868 23.4029 38.324 23.2159C37.9492 22.5805 37.7616 22.0946 37.7612 21.7206C37.761 21.5336 37.7981 21.3465 37.9102 21.1968C37.9848 21.0845 38.0222 21.0471 38.0596 21.047C38.097 21.047 38.0971 21.1218 38.1346 21.2713C38.1349 21.4583 38.1724 21.6079 38.21 21.72C38.21 21.72 38.3225 21.9443 38.51 22.3929C38.6225 22.6545 38.6601 22.8415 38.6603 22.9911Z" fill="#124D73"/>
<path d="M36.3109 28.1177C36.2734 28.0803 36.2734 28.0429 36.3108 28.0055L36.945 26.6957C36.9823 26.6209 37.0196 26.5835 37.057 26.5834C37.1318 26.5833 37.3938 26.77 37.9178 27.1059C38.4044 27.442 38.6665 27.666 38.6666 27.7408C38.6669 27.9652 38.443 28.4143 37.9951 29.1254C37.9578 29.2003 37.883 29.2378 37.8456 29.2004C37.3589 28.7896 36.8349 28.4536 36.3109 28.1177Z" fill="#124D73"/>
<path d="M34.5625 35.9736C35.2347 35.1874 36.1689 34.513 37.2527 33.9133C37.9255 33.5385 39.0468 33.051 40.6542 32.3384L40.6563 34.1336C39.6471 34.5462 38.8995 34.9211 38.3762 35.1461C37.367 35.5962 36.6942 35.971 36.3206 36.2706C35.6481 36.795 34.6769 37.806 33.3697 39.3036C32.5855 40.2021 31.838 40.6518 31.0526 40.6527C30.3794 40.6536 29.8181 40.3551 29.3312 39.7573C28.8068 39.1595 28.5441 38.4118 28.5431 37.5143C28.5416 36.2801 29.0258 34.7087 30.0332 32.7253C30.1452 32.5382 30.2198 32.4259 30.2572 32.4259C30.2946 32.4258 30.2947 32.4632 30.2947 32.5006C30.295 32.725 30.0714 33.3985 29.6614 34.5583C29.2515 35.7182 29.0282 36.6535 29.029 37.3267C29.0297 37.8503 29.1423 38.2615 29.4045 38.5604C29.6667 38.8967 30.0035 39.0833 30.4897 39.0827C31.3125 39.0817 32.1348 38.6693 32.9566 37.8455C33.5168 37.209 34.0396 36.5726 34.5625 35.9736Z" fill="#124D73"/>
<path d="M41.6439 16.2555C41.6431 15.6197 41.5303 15.0962 41.3428 14.6851C41.3425 14.4607 41.5289 13.8995 41.9018 13.0388C41.9391 12.964 41.9764 12.8891 42.0138 12.8891C42.0512 12.8891 42.0887 12.9264 42.1636 13.0385C42.2761 13.2628 42.5386 13.8982 42.9139 14.9076C43.3265 15.9542 43.5517 16.6272 43.6268 16.8515C43.6644 17.0384 43.702 17.188 43.7021 17.2628C43.7025 17.562 43.4405 17.4127 42.8413 16.7776C42.7664 16.6655 42.729 16.703 42.7293 16.89C42.7293 16.9274 42.8436 18.685 43.1096 22.088C43.3756 25.5284 43.4902 27.5479 43.491 28.221C43.4924 29.3056 43.3066 30.353 42.9338 31.3259C42.412 32.7477 41.6277 33.6462 40.581 34.0963L40.5788 32.3011C41.8871 31.7385 42.5219 30.915 42.5206 29.793C42.5199 29.232 42.3676 27.0256 42.101 23.099C41.7972 19.2473 41.6447 16.9287 41.6439 16.2555Z" fill="#124D73"/>
<path d="M41.9746 10.9444C43.8063 10.269 45.7502 9.55602 47.8063 8.80553C47.9184 8.76799 47.9932 8.7679 47.9932 8.7679C48.0307 8.80526 47.9933 8.8427 47.9934 8.9549C47.8816 9.25423 47.7696 9.40396 47.6949 9.47885C45.9753 10.1167 43.9567 10.9046 41.6391 11.8424C41.7135 11.5431 41.8254 11.2812 41.9746 10.9444Z" fill="#124D73"/>
<path d="M46.8008 12.4345C46.7263 12.6964 46.6517 12.8835 46.577 12.9584C46.2033 13.1832 45.4186 13.7078 44.2228 14.532C44.1854 14.5695 44.1107 14.607 44.036 14.6819C44.036 14.6819 43.9985 14.6445 43.9985 14.6071L44.0728 14.1956C44.0727 14.1208 44.2968 13.8962 44.6704 13.5965C44.184 13.4101 43.922 13.2234 43.9217 12.9616C43.9213 12.6624 44.0705 12.3631 44.2946 12.0636C44.78 11.4646 45.1911 11.2023 45.5277 11.2019C45.8269 11.2015 45.9393 11.351 45.9397 11.6876C45.9399 11.8746 45.8654 12.0991 45.7161 12.3611C45.6788 12.3985 45.6414 12.3985 45.6039 12.3612C45.5288 12.1369 45.3792 12.0623 45.2296 12.0625C45.1174 12.0626 44.9678 12.1002 44.8184 12.2499C44.6689 12.3623 44.5943 12.4746 44.5944 12.5494C44.5945 12.6616 44.7068 12.7737 44.8939 12.8482C45.1185 12.9602 45.2681 12.9974 45.3429 12.9973C45.4177 12.9972 45.642 12.9221 45.9036 12.7722C46.0905 12.6598 46.2773 12.5474 46.4641 12.3975C46.6137 12.3226 46.7258 12.285 46.7632 12.285C46.838 12.2475 46.838 12.3223 46.8008 12.4345Z" fill="#124D73"/>
<path d="M44.9369 17.7475C44.9361 17.1117 44.8233 16.5883 44.6358 16.1771C44.6355 15.9527 44.8219 15.3915 45.1948 14.5309C45.2321 14.4186 45.3068 14.3811 45.3068 14.3811C45.3442 14.3811 45.3817 14.4184 45.4566 14.5306C45.5691 14.7548 45.8316 15.3903 46.2069 16.3996C46.6195 17.4463 46.8447 18.1192 46.9198 18.3435C46.9574 18.5305 46.995 18.68 46.9951 18.7548C46.9955 19.054 46.7334 18.8673 46.1343 18.2323C46.0594 18.1202 46.022 18.195 46.0222 18.3446C46.0223 18.382 46.1744 20.4388 46.4784 24.4401C46.7825 28.4415 46.8974 30.6853 46.898 31.1715C46.8999 32.7049 46.6772 34.0889 46.2298 35.2489C46.1179 35.4734 46.0433 35.6605 46.006 35.7353C45.894 35.9225 45.8566 35.9225 45.8565 35.8103C45.8189 35.6982 45.856 35.4363 45.8556 35.0623C45.9297 34.5386 45.9663 33.9028 45.9655 33.1922C45.9647 32.5564 45.7745 29.9387 45.4698 25.3764C45.1277 20.8514 44.9376 18.3085 44.9369 17.7475Z" fill="#124D73"/>
</svg>
