<svg width="48" height="28" viewBox="0 0 48 28" fill="none" xmlns="http://www.w3.org/2000/svg">
<path d="M45.933 8.08492C45.933 7.41902 45.8359 6.89185 45.6278 6.44792C45.6278 6.21208 45.7943 5.64329 46.1966 4.78317C46.2243 4.68606 46.2659 4.6167 46.2937 4.6167C46.363 4.6167 46.3908 4.68606 46.4602 4.78317C46.5573 5.01901 46.7931 5.64329 47.1954 6.68376C47.6255 7.77971 47.8613 8.44561 47.9307 8.7092C48 8.87567 48 9.04215 48 9.11151C48 9.41671 47.7365 9.25024 47.1399 8.58434C47.0706 8.48723 47.0428 8.5566 47.0428 8.72307C47.0428 8.79244 47.2093 10.8595 47.5145 14.9797C47.8197 19.0722 47.9446 21.3751 47.9446 21.9023C47.9446 23.4699 47.7087 24.8711 47.2509 26.0642C47.1122 26.3 47.0567 26.4665 46.9873 26.5913C46.8902 26.7578 46.8486 26.7578 46.8208 26.6607C46.7931 26.522 46.8209 26.2584 46.8486 25.8977C46.918 25.3289 46.9457 24.7046 46.9457 23.9971C46.9457 23.3312 46.7792 20.6676 46.4463 15.9786C46.0995 11.2757 45.933 8.65371 45.933 8.08492Z" fill="#124D73"/>
<path d="M45.0455 20.4217C45.0455 22.3904 44.6547 23.9155 43.8882 25.0523C43.242 25.9812 42.4755 26.4803 41.6189 26.4803V24.4562C42.3102 24.4562 42.9865 24.1927 43.6327 23.6936C43.8131 23.555 43.9183 23.0004 43.9183 22.0577C43.9183 21.4892 43.7379 19.2017 43.4073 15.2088C43.0767 11.216 42.9414 8.8591 42.9414 8.12431C42.9414 7.48656 42.8362 6.95973 42.6108 6.52995C42.6108 6.29426 42.8212 5.72583 43.227 4.83853C43.257 4.74148 43.3021 4.69989 43.3773 4.69989C43.4073 4.69989 43.4524 4.72762 43.5275 4.86626C43.6327 5.10195 43.9183 5.72583 44.3541 6.76563C44.79 7.86089 45.0455 8.52637 45.1507 8.76206C45.1807 8.95615 45.2258 9.12252 45.2258 9.19184C45.2258 9.49685 44.8952 9.33048 44.294 8.66501C44.2189 8.59569 44.1888 8.63728 44.1888 8.80365C44.1888 8.83138 44.3391 10.6337 44.6247 14.1552C44.8952 17.6212 45.0455 19.7285 45.0455 20.4217Z" fill="#124D73"/>
<path d="M41.8963 26.4665C41.1333 26.4665 40.3703 26.1336 39.5657 25.4677C39.1634 25.1347 38.8304 24.7324 38.5946 24.3301L36.3611 25.3012V23.47L37.9981 22.7763C37.7622 22.1104 37.6651 21.4445 37.6651 20.7786C37.6651 19.7798 37.8038 18.9474 38.0952 18.3509C38.4004 17.7127 38.7888 17.4214 39.2882 17.4214C39.7183 17.4214 40.1483 17.7821 40.5229 18.5173C40.8836 19.1555 41.0501 19.752 41.0501 20.2792C41.0501 21.611 40.6478 22.707 39.8848 23.5809C40.4119 24.1497 41.0778 24.4411 41.8825 24.4411V26.4665H41.8963ZM40.5368 21.1393C40.5368 20.9035 40.3703 20.5705 40.0374 20.1127C39.6767 19.6133 39.3437 19.3497 39.0385 19.3497C38.8443 19.3497 38.6362 19.4884 38.442 19.752C38.2061 20.0156 38.109 20.2515 38.109 20.4873C38.109 20.6815 38.2478 21.0145 38.442 21.5139C38.6362 21.9439 38.8027 22.2075 38.9137 22.374C39.2189 22.2353 39.5102 22.0411 39.8848 21.7775C40.3287 21.4723 40.5368 21.2642 40.5368 21.1393Z" fill="#124D73"/>
<path d="M35.9444 18.2399C35.9444 18.004 35.5837 17.574 34.8068 17.0052C33.9467 16.3393 33.0449 16.0063 32.2126 16.0063C30.4507 16.0063 28.6889 17.4769 26.9825 20.404C27.6761 20.5983 28.342 20.737 28.9524 20.737C30.0207 20.737 31.1444 20.5428 32.3513 20.1405C33.2808 19.8353 34.1132 19.4746 34.9178 19.0029C35.6114 18.6006 35.9444 18.337 35.9444 18.2399ZM26.1779 22.2075C26.0114 22.6098 25.942 22.9705 25.942 23.3451C25.942 24.7046 27.1351 25.4122 29.5074 25.4122C30.7004 25.4122 31.8657 25.1763 33.1004 24.774C34.1964 24.3439 35.2646 23.8723 36.3606 23.4422V25.2734C34.8345 25.9393 33.7247 26.3694 33.1004 26.6052C31.5328 27.174 30.2704 27.4376 29.2715 27.4376C26.6357 27.4376 25.3039 26.3 25.3039 24.0387C25.3039 23.3728 25.401 22.7069 25.6646 22.041C24.638 21.4723 24.0692 20.6399 23.9027 19.5162C23.3339 20.3763 22.8345 21.0145 22.4322 21.3751C21.7385 22.0133 20.9617 22.3462 20.1709 22.3462V20.3208C21.031 20.3208 21.9328 19.9601 22.8068 19.2249C23.2784 18.7254 23.7779 18.2538 24.2357 17.7959C24.3328 17.6988 24.4021 17.6572 24.4715 17.6572C24.5686 17.6572 24.638 17.8514 24.638 18.2537C24.638 18.559 24.7351 18.8503 24.9987 19.1832C25.3039 19.5855 25.7617 19.9462 26.3582 20.2098C27.6623 18.1844 28.5224 16.8803 28.9524 16.3532C30.2149 14.8272 31.4773 14.0225 32.6842 14.0225C33.7525 14.0225 34.7097 14.4526 35.5837 15.3543C36.3189 16.0896 36.6519 16.7139 36.6519 17.2549C36.6519 17.4491 36.5548 17.8514 36.3467 18.448C36.1108 19.1139 35.9166 19.5439 35.7085 19.7798C35.2369 20.3069 34.4738 20.8757 33.3779 21.4723C31.7825 22.3046 30.1455 22.7069 28.4808 22.7069C27.8842 22.7069 27.1212 22.5405 26.1779 22.2075Z" fill="#124D73"/>
<path d="M20.1852 20.3069V22.3324C19.0893 22.3324 18.3818 21.9023 18.0488 21.0283C17.9101 20.7231 17.8823 20.3624 17.8823 19.8908C17.8823 19.5856 17.9101 19.2526 17.9795 18.8642C18.0488 18.2954 18.1459 18.0318 18.3124 18.0318C18.3818 18.0318 18.4095 18.1705 18.4511 18.4619C18.4511 18.6283 18.4511 18.8226 18.4511 18.989C18.5205 19.4607 18.6454 19.7937 18.9228 19.9879C19.1586 20.2098 19.5887 20.3069 20.1852 20.3069Z" fill="#124D73"/>
<path d="M26.6498 13.9393C26.6498 13.7034 26.2891 13.3011 25.5538 12.7462C24.6521 12.0526 23.792 11.7196 22.918 11.7196C21.2532 11.7196 19.5191 13.2179 17.8266 16.145C18.4232 16.3393 19.0613 16.4502 19.6856 16.4502C20.7538 16.4502 21.8498 16.256 23.0428 15.8815C23.9723 15.5763 24.8463 15.1878 25.6093 14.7439C26.3168 14.3416 26.6498 14.078 26.6498 13.9393ZM5.53528 26.9659C3.50984 26.9659 2.01157 26.2722 1.06821 24.8988C0.332949 23.8306 0 22.4988 0 20.8757C0 20.3763 0.0277453 19.9046 0.0971097 19.4052C0.235838 18.6422 0.402313 17.9763 0.596533 17.4352C0.665897 17.241 0.763008 17.13 0.832372 17.13C0.901737 17.13 0.901736 17.2688 0.860118 17.463C0.527169 19.1555 0.38844 20.1266 0.38844 20.3208C0.38844 21.3474 0.721389 22.3185 1.41503 23.1786C2.34452 24.3162 3.71793 24.9127 5.47978 24.9127C7.07517 24.9127 8.73991 24.552 10.474 23.8167C11.9029 23.2202 13.207 22.485 14.3723 21.6248C15.3989 20.8202 15.8983 20.2653 15.8983 19.9323C15.8983 18.7948 15.5654 17.6017 14.9272 16.2977C14.7885 16.0618 14.733 15.8676 14.733 15.7289C14.733 15.6318 14.8717 15.1601 15.1353 14.3C15.2047 14.1335 15.2324 14.0641 15.3018 14.0641C15.3711 14.0641 15.4683 14.1612 15.5654 14.3971C15.8706 15.063 16.3977 15.5624 17.0914 15.8676C18.3954 13.8005 19.2555 12.5104 19.6579 12.0387C20.8925 10.5127 22.155 9.73578 23.4174 9.73578C24.444 9.73578 25.4151 10.0965 26.2752 10.8734C27.0105 11.5393 27.3712 12.1358 27.3712 12.6768C27.3712 13.0791 27.2741 13.6063 27.066 14.1751C26.8718 14.7716 26.6637 15.2017 26.4001 15.5069C25.97 16.0341 25.1654 16.6029 24.0694 17.1716C22.5018 18.004 20.8371 18.4341 19.1723 18.4341C18.3122 18.4341 17.4382 18.2399 16.5087 17.8375C16.5087 19.974 16.2035 21.4029 15.5792 22.0965C14.7191 23.1231 13.3873 24.122 11.6532 25.0931C9.50292 26.3277 7.43586 26.9659 5.53528 26.9659Z" fill="#124D73"/>
<path d="M39.302 15.1046L39.8291 14.0087C39.8569 13.9393 39.8985 13.9116 39.9679 13.9116C40.0372 13.9116 40.3008 14.078 40.828 14.4387C41.3274 14.7717 41.591 14.9659 41.591 15.0353C41.591 15.2711 41.3551 15.7705 40.9251 16.5058C40.8557 16.6029 40.7864 16.6029 40.7309 16.5752C40.3008 16.2422 39.8014 15.9093 39.2326 15.5486C39.0384 15.9509 38.8719 16.3116 38.6638 16.6168C38.6361 16.7139 38.5667 16.7555 38.4973 16.7139C37.9979 16.3116 37.4707 15.9509 36.9297 15.6179C36.902 15.5902 36.902 15.5486 36.9297 15.4792L37.5679 14.1474C37.5956 14.078 37.665 14.0087 37.7066 14.0087C37.7759 14.0087 38.0118 14.1751 38.4418 14.4803C38.8719 14.7439 39.1632 14.9798 39.302 15.1046Z" fill="#124D73"/>
<path d="M29.4521 11.4144C32.0185 10.4849 34.6821 9.48609 37.4706 8.44562C37.5677 8.41788 37.6371 8.37626 37.6648 8.41788C37.6648 8.41788 37.6648 8.48724 37.6371 8.58435C37.4983 8.88955 37.4012 9.05603 37.3319 9.11152C35.0012 9.97164 32.2405 11.0399 29.1052 12.3439C29.1746 12.0526 29.2856 11.7474 29.4521 11.4144Z" fill="#124D73"/>
<path d="M25.0824 5.51851C25.0824 5.8792 24.9159 6.28152 24.6524 6.71158C24.3472 7.14164 23.9865 7.54395 23.5148 7.8769C23.3206 8.01563 23.2096 8.07112 23.1818 8.07112V8.04337C23.1818 8.01563 23.2512 7.94626 23.3761 7.77979C24.1391 6.94742 24.5414 6.42025 24.5414 6.11504C24.5414 5.8792 24.4027 5.75435 24.1807 5.75435C24.042 5.75435 23.9171 5.78209 23.82 5.85146C23.7229 5.8792 23.6813 5.92082 23.6535 5.92082C23.6535 5.92082 23.6258 5.92082 23.6258 5.89308C23.6258 5.89308 23.6258 5.82371 23.6535 5.69886C23.7922 5.13007 24.0558 4.86648 24.5136 4.86648C24.8882 4.85261 25.0824 5.08845 25.0824 5.51851Z" fill="#124D73"/>
<path d="M44.8001 0.8937C44.8001 1.09604 44.6025 1.46025 44.168 2.06726C43.6544 2.75521 43.2198 3.28129 42.7852 3.60503C42.5087 3.80737 41.6001 4.1311 40.0198 4.53578C39.7433 4.57625 39.5852 4.61672 39.5852 4.61672C39.6247 4.57625 39.7038 4.49531 39.9013 4.37391C40.0988 4.21204 40.6519 3.8883 41.6001 3.40269C42.4692 2.91708 42.9828 2.59334 43.1013 2.47193C43.1408 2.43147 43.1408 2.391 43.1408 2.391C43.1408 2.18866 42.3507 2.10773 40.8099 2.10773C40.8099 2.10773 40.5334 2.10773 39.9408 2.1482C39.6247 2.18866 39.4667 2.14819 39.4667 2.10773C39.4667 2.06726 39.5062 1.98632 39.5852 1.86492L40.1383 0.93417C40.2963 0.650897 40.6124 0.489025 41.047 0.40809C41.205 0.367623 41.5605 0.367623 42.1136 0.367623C43.9309 0.286688 44.8001 0.489024 44.8001 0.8937Z" fill="#124D73"/>
</svg>
