<svg width="49" height="48" viewBox="0 0 49 48" fill="none" xmlns="http://www.w3.org/2000/svg">
<path d="M2.51242 31.5285C4.30098 31.5285 6.25591 30.8214 8.33563 29.4072C9.95781 28.3258 11.2056 27.1611 12.1207 25.9549C12.4119 25.5805 12.5367 25.3726 12.5367 25.3726C12.6198 25.2062 12.703 24.9566 12.703 24.6239C12.703 23.8752 12.4951 22.6689 12.0791 21.0468C11.7464 19.7989 10.9977 17.8856 9.79143 15.2651C9.74984 15.182 9.79143 14.8908 9.87462 14.3085C9.95781 13.7677 10.041 13.3934 10.0826 13.1438C10.1658 12.8527 10.249 12.8111 10.4153 13.0191C11.8296 14.8908 12.8694 17.4281 13.5349 20.714C13.8261 22.1698 14.2004 24.2079 14.658 26.8284C14.8659 27.9514 15.2403 28.7001 15.781 29.0329C16.0722 29.1993 16.4881 29.324 17.0704 29.324V31.6949C16.2386 31.6949 15.573 31.5285 15.0739 31.1542C14.3668 30.6551 13.9093 29.6984 13.7013 28.3258C13.6181 27.8266 13.4517 26.87 13.2438 25.4558C13.0358 26.6204 12.6614 27.5355 12.0791 28.2842C10.9145 29.74 9.45868 31.0294 7.7949 32.0693C5.88156 33.2755 4.093 33.8994 2.51242 33.8994C1.63894 33.8994 1.01502 33.5251 0.599076 32.818C0.224727 32.2356 0.0583496 31.5285 0.0583496 30.6967C0.0583496 29.0329 0.4327 27.3275 1.1398 25.5805C1.26459 25.2062 1.38937 24.9982 1.47256 24.9982C1.51415 24.9982 1.51415 25.0398 1.51415 25.123C1.51415 25.2478 1.47256 25.4142 1.38937 25.6637C0.890237 27.3691 0.640671 28.7001 0.640671 29.5736C0.599077 30.863 1.22299 31.5285 2.51242 31.5285Z" fill="#124D73"/>
<path d="M9.83303 36.1871L10.4569 34.9393C10.4985 34.8561 10.5817 34.7729 10.6233 34.7729C10.7065 34.7729 11.0393 34.9809 11.6632 35.3968C12.2871 35.8127 12.5783 36.0623 12.5783 36.1039C12.5783 36.3535 12.3287 36.9358 11.788 37.8093C11.7048 37.8925 11.6632 37.9341 11.58 37.8925C11.0393 37.5181 10.4569 37.1022 9.79144 36.6862C9.58347 37.1854 9.37549 37.6013 9.12593 37.9757C9.08433 38.1004 9.00115 38.1004 8.91796 38.0588C8.33564 37.6013 7.71172 37.1438 7.04621 36.7694C7.00462 36.7278 7.00462 36.6862 7.04621 36.603L7.8365 35.0641C7.8781 34.9809 7.91969 34.9393 8.00288 34.9393C8.08607 34.9393 8.33564 35.1056 8.87636 35.4384C9.3755 35.7712 9.70825 36.0207 9.83303 36.1871Z" fill="#124D73"/>
<path d="M19.5246 27.5355C19.5246 28.7001 19.3582 29.6152 18.9838 30.1975C18.4847 31.1126 17.8192 31.5701 16.9873 31.5701V29.1577C17.9024 29.1577 18.4847 28.8249 18.7759 28.2426C18.7759 27.9098 18.4431 27.2027 17.7776 26.1629C17.736 26.0797 17.6944 25.9965 17.6944 25.8717C17.6944 25.2478 17.8192 24.6655 18.1104 24.0416C18.1935 23.8752 18.3183 23.8752 18.4431 24.0416C18.8591 24.6239 19.1086 25.123 19.2334 25.4974C19.3998 26.0797 19.5246 26.7452 19.5246 27.5355Z" fill="#124D73"/>
<path d="M13.8263 44.5892C16.0308 43.7989 18.4017 42.9254 20.8974 42.0104C21.0221 41.9688 21.1053 41.9272 21.1053 41.9688C21.1469 42.0104 21.1469 42.0935 21.0637 42.1767C20.8974 42.5095 20.8142 42.7175 20.731 42.8007C18.6513 43.5494 16.1972 44.506 13.3688 45.6707C13.4936 45.3379 13.6599 45.0052 13.8263 44.5892Z" fill="#124D73"/>
<path d="M15.8645 38.8908C17.653 38.8908 19.608 38.1837 21.6877 36.7695C23.3099 35.6881 24.5577 34.5234 25.4728 33.3172C25.7639 32.9428 25.8887 32.7349 25.8887 32.7349C25.9719 32.5685 26.0551 32.3189 26.0551 31.9862C26.0551 31.2375 25.8471 30.0312 25.4312 28.409C25.0984 27.1612 24.3497 25.2479 23.1435 22.6274C23.1019 22.5442 23.1435 22.2531 23.2267 21.6708C23.3099 21.13 23.393 20.7557 23.4346 20.5061C23.5178 20.215 23.601 20.1734 23.7674 20.3813C25.1816 22.2531 26.2215 24.7903 26.887 28.0763C27.1781 29.5321 27.5525 31.5702 28.01 34.1907C28.218 35.3137 28.5923 36.0624 29.1331 36.3952C29.4242 36.5615 29.8402 36.6863 30.4225 36.6863V39.0572C29.5906 39.0572 28.9251 38.8908 28.426 38.5165C27.7189 38.0173 27.2613 37.0607 27.0533 35.6881C26.9702 35.1889 26.8038 34.2323 26.5958 32.818C26.3878 33.9827 26.0135 34.8978 25.4312 35.6465C24.2665 37.1023 22.8107 38.3917 21.147 39.4316C19.2336 40.6378 17.4451 41.2617 15.8645 41.2617C14.991 41.2617 14.3671 40.8874 13.9511 40.1803C13.5768 39.5979 13.4104 38.8908 13.4104 38.0589C13.4104 36.3952 13.7847 34.6898 14.4919 32.9428C14.6166 32.5685 14.7414 32.3605 14.8246 32.3605C14.8662 32.3605 14.8662 32.4021 14.8662 32.4853C14.8662 32.6101 14.8246 32.7765 14.7414 33.026C14.2423 34.7314 13.9927 36.0624 13.9927 36.9359C13.9511 38.2253 14.575 38.8908 15.8645 38.8908Z" fill="#124D73"/>
<path d="M26.9281 20.6724C29.1326 19.8821 31.5035 19.0086 33.9992 18.0935C34.1239 18.0519 34.2071 18.0103 34.2071 18.0519C34.2487 18.0935 34.2487 18.1767 34.1655 18.2599C33.9992 18.5927 33.916 18.8006 33.8328 18.8838C31.7531 19.6325 29.299 20.5892 26.4706 21.7538C26.5954 21.4211 26.7201 21.0467 26.9281 20.6724Z" fill="#124D73"/>
<path d="M45.1051 32.9012L44.2316 34.565C44.1484 34.7314 44.0652 34.8562 43.8988 34.8146C41.1952 34.8146 38.8659 35.2305 36.911 36.0208C36.4534 36.2288 35.2056 36.8527 33.1675 37.8926C31.8365 38.5581 30.8382 38.9324 30.2975 38.9324V36.5615C31.5037 36.5615 33.5002 35.7712 36.287 34.2323C33.7914 33.8163 31.3373 33.5251 28.8833 33.3172C28.4257 33.2756 28.1761 33.234 28.1761 33.1092C28.1761 33.0676 28.1761 33.0676 28.2177 33.026C28.4257 32.6101 28.7169 32.0693 29.0912 31.3622H33.2091C33.7498 31.4454 35.164 31.695 37.4517 31.9862C40.4049 32.3605 42.7342 32.5269 44.4811 32.5269C44.9387 32.5269 45.1466 32.5685 45.1466 32.6517C45.1882 32.7765 45.1882 32.818 45.1051 32.9012Z" fill="#124D73"/>
<path d="M37.202 2.91165C37.202 3.07803 36.994 3.49397 36.5781 4.07629C36.079 4.7418 35.6214 5.24094 35.1639 5.57369C34.8727 5.78166 33.9576 6.07282 32.3771 6.48877C32.0859 6.53036 31.9611 6.57196 31.9611 6.57196C32.0027 6.53036 32.0859 6.44717 32.2939 6.32239C32.5018 6.15601 33.0426 5.86485 33.9992 5.36572C34.8727 4.90818 35.3719 4.57543 35.5382 4.45064C35.5798 4.40905 35.5798 4.36745 35.5798 4.36745C35.5798 4.15948 34.7895 4.07629 33.2089 4.07629C33.2089 4.07629 32.9178 4.07629 32.3355 4.11789C32.0443 4.15948 31.8779 4.11789 31.8779 4.07629C31.8779 4.0347 31.9195 3.95151 32.0027 3.82673L32.585 2.91165C32.7514 2.62049 33.0426 2.45411 33.5001 2.37092C33.6249 2.32933 33.9992 2.32933 34.5816 2.32933C36.2869 2.32933 37.202 2.5373 37.202 2.91165Z" fill="#124D73"/>
<path d="M33.4168 32.4021L29.1742 31.4038C29.2574 31.3206 29.7981 31.1126 30.838 30.8215C32.2106 30.4471 33.3336 30.0728 34.2071 29.6984C34.6231 29.5321 34.8726 29.3241 34.9558 28.9913C34.9974 28.825 34.9974 27.8683 34.9974 26.1213C34.9974 25.4142 34.8726 23.1681 34.5815 19.4246C34.2903 15.6396 34.1655 13.435 34.1655 12.7279C34.1655 11.9376 34.0407 11.3137 33.7912 10.8562C33.7912 10.565 33.9991 9.89953 34.4567 8.85967C34.4983 8.73489 34.5399 8.6517 34.6231 8.6517C34.6646 8.6517 34.7478 8.73489 34.7894 8.85967C34.9142 9.15083 35.2054 9.89953 35.6629 11.1474C36.1205 12.4368 36.4116 13.2271 36.4948 13.5182C36.578 13.7262 36.578 13.9342 36.578 14.059C36.578 14.3917 36.2452 14.1837 35.5797 13.435C35.4965 13.3103 35.4549 13.3519 35.4549 13.5598C35.4549 13.6014 35.5797 15.182 35.7877 18.3432C35.9957 21.5044 36.1205 23.4593 36.1205 24.2496C36.1205 26.3709 35.9957 27.8683 35.7877 28.7418C35.4965 30.3224 34.6646 31.5286 33.4168 32.4021Z" fill="#124D73"/>
<path d="M45.6043 17.0122C45.6043 16.2219 45.4795 15.598 45.23 15.1404C45.23 14.8493 45.438 14.1838 45.8955 13.1439C45.9787 13.0191 46.0203 12.9359 46.0619 12.9359C46.1035 12.9359 46.1451 13.0191 46.2282 13.1439C46.353 13.4351 46.6442 14.1838 47.1017 15.39C47.6009 16.6794 47.892 17.4697 47.9752 17.7609C48.0584 17.9688 48.0584 18.1768 48.0584 18.3016C48.0584 18.6344 47.7256 18.4264 47.0185 17.6777C46.9354 17.5529 46.8938 17.5945 46.8938 17.8025C46.8938 17.8857 47.0601 20.3397 47.4345 25.2063C47.7672 30.0728 47.9752 32.7764 47.9752 33.4004C47.9752 35.2721 47.6841 36.9359 47.1433 38.3501C47.0185 38.6412 46.9354 38.8076 46.8522 38.974C46.7274 39.182 46.6858 39.2236 46.6442 39.0988C46.6026 38.9324 46.6026 38.6412 46.6858 38.1837C46.769 37.5598 46.8106 36.8111 46.8106 35.9376C46.8106 35.1473 46.6026 32.0277 46.2282 26.4541C45.8123 20.7973 45.6043 17.6777 45.6043 17.0122Z" fill="#124D73"/>
</svg>
