<svg width="49" height="49" viewBox="0 0 49 49" fill="none" xmlns="http://www.w3.org/2000/svg">
<path d="M19.819 15.8217C20.1206 15.6925 20.2499 15.6494 20.2499 15.6063C20.2499 15.5632 20.0344 15.477 19.5173 15.4339C16.4145 15.003 12.8377 14.7444 8.82993 14.7444C6.8045 14.7444 5.55477 14.8306 4.99454 15.003C4.77907 15.0461 4.64979 15.1322 4.64979 15.1753C4.64979 15.2615 4.82216 15.4339 5.16692 15.6925C6.11499 16.4251 7.06307 17.1577 7.96805 17.9334C9.64872 19.2693 10.683 20.1312 11.0277 20.6052C14.0874 18.5367 16.9747 16.9422 19.819 15.8217ZM27.3605 34.4816C27.3605 33.5335 27.0157 32.6716 26.3693 31.8528C25.6367 30.9478 24.6455 30.3014 23.3958 29.9567C22.3184 29.655 20.5085 29.4395 17.9659 29.3964C15.2941 29.3533 13.4841 29.181 12.5791 28.9655C10.7692 28.5346 8.95921 27.8451 7.23544 26.897C6.63212 27.7589 6.11499 28.7931 5.59786 30.0429C4.86526 31.8959 4.5205 33.6628 4.5205 35.3435C4.5205 40.9457 7.66638 43.7468 13.9581 43.7468C16.0698 43.7468 18.1814 43.1866 20.3792 42.0662C22.3615 41.0319 23.9991 39.8253 25.3781 38.3601C26.7141 36.8518 27.3605 35.602 27.3605 34.4816ZM24.8179 16.3389C19.5173 18.5367 15.2079 20.6483 11.8034 22.6737C11.8034 23.9666 11.6742 24.613 11.4156 24.613C11.2432 24.613 10.8985 24.2251 10.5106 23.4494C9.73491 24.1389 9.00231 24.8715 8.26971 25.6903C10.2951 25.9489 13.6996 26.1644 18.3969 26.3368C21.8013 26.466 23.9991 26.7677 24.9472 27.1555C25.8953 27.5865 26.671 28.2329 27.3174 29.1379C27.9638 30.2152 28.3085 31.4219 28.3085 32.8009C28.3085 36.507 26.7571 39.8253 23.6544 42.7988C20.5947 45.7292 17.1902 47.1944 13.4841 47.1944C6.8045 47.1944 3.44315 43.4883 3.44315 36.0761C3.44315 32.6716 4.30503 29.3964 6.0288 26.2075C5.46858 25.8627 5.21001 25.6472 5.21001 25.518C5.21001 25.3887 5.3393 25.3456 5.59786 25.3456C5.81333 25.3456 6.11499 25.3887 6.50284 25.4318C7.01997 24.5699 7.92495 23.4925 9.13159 22.1566C8.35589 21.3809 7.23544 20.4328 5.68405 19.2693C4.5636 18.4505 3.831 17.7179 3.44315 17.0715C3.18458 16.6405 3.0553 16.1665 3.0553 15.6063C3.0553 14.572 3.44315 13.667 4.26194 12.9344C5.21001 12.0295 6.58903 11.5985 8.35589 11.5985C10.3813 11.5985 13.6565 11.7709 18.1814 12.1156C22.2753 12.4604 24.7748 12.6759 25.7229 12.8051C26.1107 12.8913 26.2831 13.1068 26.1538 13.4085L25.4643 15.5632C25.2919 15.951 25.1196 16.2096 24.8179 16.3389Z" fill="#124D73"/>
<path d="M37.4445 31.7667C36.6688 30.6894 35.8931 30.1722 35.2036 30.1722C34.1693 30.1722 33.6953 30.4308 33.6953 30.991C33.6953 31.6374 34.3848 31.9391 35.8069 31.9391C36.324 31.9391 36.8411 31.896 37.4445 31.7667ZM39.1682 35.9469C39.1682 35.559 39.1251 35.2143 38.9528 34.8264C38.2633 35.0419 37.2721 35.1281 36.0224 35.1281C33.3074 35.1281 31.9715 34.2231 31.9715 32.37C31.9715 30.9479 32.4024 29.6982 33.3505 28.6208C34.2124 27.5866 35.0743 27.1125 35.9793 27.1125C36.7119 27.1125 37.4876 27.5435 38.3064 28.4485C39.039 29.2242 39.6854 30.2584 40.2887 31.422C40.3318 31.422 40.4611 31.3789 40.6334 31.2927V34.3955L40.5042 34.4817C40.5042 35.1281 40.3749 35.99 40.0732 36.9811C39.6423 38.274 39.0821 39.3513 38.3494 40.2132C36.6257 42.1955 34.7295 43.9624 32.7041 45.5138C29.6875 47.7547 27.0587 48.8752 24.8178 48.8752C22.9217 48.8752 21.4565 48.1857 20.4222 46.8066C19.5172 45.5569 19.0432 44.0486 19.0432 42.1955C19.0432 39.7823 19.5603 37.2828 20.5515 34.8264C20.767 34.3093 20.9394 34.0507 21.0686 34.0507C21.1117 34.0507 21.1548 34.0938 21.1548 34.18C21.1548 34.3955 21.1117 34.654 20.9825 34.9988C20.2929 37.4552 19.9051 39.3513 19.9051 40.6442C19.9051 41.8077 20.2068 42.7989 20.8101 43.6177C21.672 44.8243 23.0941 45.4707 25.0333 45.4707C26.714 45.4707 28.7825 44.7381 31.1958 43.2729C33.135 42.1094 34.9881 40.6872 36.755 39.0066C38.3494 37.4552 39.1682 36.4209 39.1682 35.9469Z" fill="#124D73"/>
<path d="M41.3229 3.84162C41.4522 3.49686 41.4522 3.1952 41.4091 2.85045C41.3229 2.4626 41.1936 2.29022 40.892 2.29022C40.7627 2.29022 40.5903 2.33332 40.3748 2.4626C40.1594 2.59188 40.0301 2.72116 40.0301 2.80735C40.0732 3.10901 40.461 3.45377 41.3229 3.84162ZM40.6765 5.34992C39.5992 4.78969 39.082 4.22946 39.082 3.62614C39.082 2.89354 39.4268 2.20403 40.1163 1.60071C40.8058 0.997393 41.366 0.781921 41.797 0.911204C42.1848 1.04049 42.3572 1.47143 42.3572 2.11784C42.3572 2.72116 42.2279 3.41067 42.0124 4.18637C42.5296 4.53112 42.8743 4.78969 43.0036 5.00516C43.0036 5.30682 42.7881 5.78086 42.271 6.47037C42.1417 6.25489 41.797 5.99633 41.2798 5.69467C40.6765 6.51346 39.9439 7.28916 39.0389 7.93557C38.0047 8.71127 37.0566 9.31459 36.1516 9.70244C35.9792 9.78862 34.945 10.1765 33.0919 10.8229C32.7903 10.9522 32.5748 10.9953 32.4886 10.9953C32.4455 10.9953 32.4024 10.9953 32.4024 10.9522C32.4024 10.866 32.5748 10.7367 32.9195 10.5212C34.2986 9.70244 35.6345 8.88365 37.0135 8.06485C38.6942 7.07369 39.9008 6.16871 40.6765 5.34992Z" fill="#124D73"/>
<path d="M38.2634 13.3222C38.2203 13.2791 38.2203 13.193 38.2634 13.1068L39.3839 10.8659C39.47 10.7366 39.5131 10.6504 39.5993 10.6504C39.7286 10.6504 40.2026 10.9521 41.0645 11.5554C41.9264 12.1587 42.3574 12.5034 42.3574 12.6327C42.3574 13.0206 41.9695 13.7963 41.1938 15.046C41.1076 15.2184 41.0214 15.2615 40.8922 15.1753C40.1165 14.5289 39.2115 13.8825 38.2634 13.3222Z" fill="#124D73"/>
<path d="M40.5473 31.3357C42.6158 30.4738 43.7363 29.8274 43.9518 29.4827C43.9518 29.1379 43.5639 28.1898 42.8313 26.6815C42.0125 25.0009 41.4954 23.7511 41.323 22.9323C41.2799 22.6738 41.1075 22.5014 40.8059 22.4583C40.5904 22.3721 40.5042 22.1997 40.5042 21.9412L40.849 19.2262C40.8921 18.9246 40.9783 18.7953 41.1075 18.7953C41.1506 18.7953 41.2799 18.8815 41.4523 19.0108L44.1672 21.424C44.512 21.7257 44.6413 21.9412 44.6413 22.0705C44.6413 22.3721 44.081 22.3721 43.0037 22.1135C44.3396 24.5699 45.0291 26.423 45.0291 27.6727C45.0291 30.9048 43.5208 33.1457 40.5473 34.4385V31.3357Z" fill="#124D73"/>
</svg>
