<svg width="49" height="49" viewBox="0 0 49 49" fill="none" xmlns="http://www.w3.org/2000/svg">
<path d="M24.0281 41.9076C24.3887 41.9072 24.5688 41.8168 24.5685 41.5915C24.5682 41.321 24.3877 41.141 23.9819 40.9612C23.5309 40.7364 22.8999 40.7372 22.0888 40.8733C22.6305 41.5487 23.307 41.9085 24.0281 41.9076ZM9.52315 48.2802C8.71189 48.2812 7.99032 47.9215 7.40353 47.2011C6.77161 46.4356 6.45497 45.4895 6.45371 44.4529C6.4519 42.9656 7.08047 40.9817 8.29447 38.5915C8.42941 38.366 8.51938 38.2307 8.60952 38.2306C8.65459 38.2305 8.65465 38.2756 8.6547 38.3207C8.65498 38.546 8.3856 39.4027 7.84651 40.8456C7.30741 42.2885 7.03836 43.4156 7.03935 44.2269C7.04012 44.8579 7.17599 45.3985 7.49192 45.7587C7.8079 46.164 8.25888 46.3888 8.79972 46.3881C9.70113 46.387 10.6022 46.0704 11.4127 45.4835C12.4032 44.626 13.3937 43.7684 14.3842 42.9109C16.3653 41.2409 18.1216 40.0669 19.6081 39.344C19.5628 39.1637 19.6978 39.0284 20.0582 38.8927C20.4186 38.7571 20.5989 38.7569 20.6892 38.892C21.7705 38.5301 22.6716 38.3487 23.3477 38.3479C24.0688 38.347 24.6101 38.6618 25.0164 39.2473C25.4227 39.8327 25.604 40.5987 25.6051 41.5451C25.606 42.3113 25.4266 42.9876 25.1117 43.4838C24.7517 43.98 24.3014 44.2509 23.7605 44.2516C22.4985 44.2531 21.3706 43.308 20.3317 41.3713C19.0252 41.8686 17.539 42.8169 15.7829 44.1712C14.5222 45.2093 13.3066 46.2474 12.0458 47.2405C11.1002 47.9177 10.2893 48.2793 9.52315 48.2802Z" fill="#124D73"/>
<path d="M22.2835 15.7688C22.2837 15.9491 22.0588 16.355 21.6539 16.9414C21.1139 17.6181 20.6638 18.1595 20.2135 18.4756C19.9433 18.6562 18.9972 18.9728 17.4203 19.4254C17.1049 19.4709 16.9697 19.5161 16.9697 19.5161C17.0147 19.471 17.1048 19.4258 17.2849 19.2453C17.4649 19.0648 18.0505 18.7486 18.9964 18.2968C19.8972 17.7999 20.3926 17.4838 20.5277 17.3935C20.5727 17.3484 20.5727 17.3484 20.5727 17.3033C20.5724 17.123 19.761 16.9888 18.1836 16.9907C18.1836 16.9907 17.8681 16.9911 17.2821 16.9918C16.9667 16.9922 16.8314 16.9924 16.8314 16.9473C16.8313 16.9022 16.8763 16.812 16.9663 16.6767L17.551 15.7295C17.731 15.4589 18.0012 15.2783 18.4518 15.1876C18.5869 15.1423 18.9475 15.1419 19.5334 15.1412C21.3813 15.1389 22.283 15.3632 22.2835 15.7688Z" fill="#124D73"/>
<path d="M28.7128 39.8286C28.6677 39.7836 28.6677 39.7385 28.7127 39.6934L29.522 38.115C29.567 38.0248 29.612 37.9796 29.6571 37.9796C29.7472 37.9795 30.108 38.2044 30.6945 38.6093C31.3259 39.0142 31.5967 39.2843 31.5968 39.3744C31.5971 39.6448 31.3274 40.186 30.7876 41.0881C30.7426 41.1783 30.6526 41.2234 30.6074 41.1784C29.9758 40.6383 29.3443 40.2335 28.7128 39.8286Z" fill="#124D73"/>
<path d="M22.3963 34.2476C23.8379 33.705 25.8651 32.9363 28.478 31.9416C27.847 31.8973 26.2242 31.6739 23.6097 31.3165C21.3107 31.0038 20.0034 30.8251 19.6879 30.8255C19.2823 30.826 19.147 30.736 19.2368 30.5106C19.3265 30.1048 19.5512 29.6088 19.8659 28.8873L24.0123 28.8822C25.4099 29.196 27.2131 29.5093 29.4669 29.777C31.9913 30.1345 33.9296 30.3124 35.3267 30.3107C35.8225 30.3101 36.048 30.4451 35.9582 30.6705L35.3292 32.3389C35.2394 32.6094 35.0142 32.6998 34.6987 32.7002C33.3916 32.7018 31.7244 33.0193 29.697 33.6528C28.3454 34.1051 26.7686 34.6479 25.0118 35.3712C24.1559 35.7328 23.3 36.0944 22.4441 36.456C21.8585 36.7271 21.363 36.9531 20.9127 37.2691C20.4623 37.5401 20.2372 37.7657 20.2373 37.8558C20.2376 38.0812 20.3733 38.4867 20.6444 39.0272C20.3746 39.5233 20.0142 39.6589 19.5632 39.4341C19.5177 39.1187 19.5174 38.8483 19.5171 38.5778C19.4695 36.5047 20.4142 35.0612 22.3963 34.2476Z" fill="#124D73"/>
<path d="M25.1074 2.92032C27.3599 2.10631 29.7476 1.24707 32.2704 0.297522C32.4056 0.252288 32.4957 0.252177 32.4957 0.252177C32.5408 0.297193 32.4958 0.342318 32.496 0.477529C32.3612 0.838256 32.2262 1.0187 32.1362 1.10895C30.0188 1.87773 27.5411 2.87229 24.7031 4.04757C24.7928 3.6869 24.9276 3.32617 25.1074 2.92032Z" fill="#124D73"/>
<path d="M30.9732 8.27655C30.9736 8.59204 30.9289 8.90759 30.7941 9.22325C30.6143 9.67417 30.3441 9.85478 30.0737 9.85511C29.623 9.85566 29.2621 9.5406 29.1261 8.90978C28.9017 9.72132 28.4966 10.1274 27.9107 10.1282C27.6853 10.1284 27.5049 10.0385 27.3244 9.81338C27.1438 9.54318 27.0532 9.18272 27.0527 8.77709L27.0515 7.78554C27.0514 7.6954 27.0062 7.65039 26.871 7.60548C26.7357 7.56057 26.6906 7.51556 26.6904 7.33528C26.6901 7.10992 26.78 6.88446 27.0051 6.70391C27.1852 6.52341 27.3203 6.4331 27.3653 6.43305C27.5005 6.43288 27.5459 6.65818 27.5464 7.06381C27.5466 7.28917 27.5469 7.51452 27.502 7.64978C27.4571 7.78505 27.4573 7.92026 27.4574 8.05547C27.4578 8.32589 27.5031 8.50612 27.5935 8.73136C27.6839 9.00168 27.8193 9.09165 27.9995 9.09143C28.2249 9.09116 28.4051 9.0008 28.6301 8.77517C28.8102 8.59467 28.9 8.32414 28.8997 8.09879C28.8996 7.96358 28.8542 7.69321 28.7635 7.28769C28.673 6.92723 28.6276 6.70193 28.6275 6.56672C28.6273 6.47658 28.6723 6.34132 28.7622 6.16093C28.8521 5.98053 28.8971 5.89034 28.9421 5.89028C29.0323 5.89017 29.1227 6.11542 29.2135 6.65615C29.3042 7.15182 29.3948 7.51227 29.3951 7.73762C29.3959 8.41368 29.6668 8.77391 30.2076 8.77325C30.433 8.77298 30.5681 8.68268 30.6579 8.41214C30.2062 7.64649 29.9801 7.01578 29.9796 6.56508C29.9793 6.33973 30.0241 6.11432 30.1591 5.93388C30.2491 5.79855 30.2941 5.75343 30.3391 5.75337C30.3842 5.75332 30.3843 5.84346 30.4296 6.02369C30.4299 6.24904 30.4752 6.42926 30.5204 6.56442C30.5204 6.56442 30.656 6.87975 30.882 7.42032C30.8825 7.82595 30.9729 8.0512 30.9732 8.27655Z" fill="#124D73"/>
<path d="M27.4211 15.5823C27.376 15.5373 27.376 15.4922 27.421 15.4471L28.2303 13.8686C28.2753 13.7784 28.3203 13.7333 28.3654 13.7332C28.4555 13.7331 28.8163 13.958 29.4028 14.363C30.0342 14.7678 30.305 15.0379 30.3051 15.1281C30.3054 15.3985 30.0357 15.9397 29.4959 16.8417C29.4509 16.9319 29.3609 16.9771 29.3157 16.9321C28.7292 16.392 28.0526 15.9421 27.4211 15.5823Z" fill="#124D73"/>
<path d="M33.34 27.6089C31.5372 27.6111 30.2745 27.0267 29.5519 25.8107C29.2809 25.3603 29.0548 24.7296 28.8734 23.8284C28.7374 23.1525 28.6017 22.7921 28.5116 22.7922C28.2863 22.7925 28.0613 23.1533 27.7467 23.8298C27.2973 24.912 26.8926 25.7238 26.5327 26.265C25.8129 27.3476 24.9577 28.25 23.8769 28.9725L19.6853 28.9776C19.7753 28.8873 20.5409 28.3906 21.9822 27.5776C23.5586 26.6743 24.7744 25.7714 25.5846 24.869C26.2147 24.1471 26.9345 23.1096 27.654 21.7566C28.1937 20.8095 28.5988 20.3583 28.9143 20.3579C29.3199 20.3574 29.5456 20.6726 29.6366 21.3035C29.818 22.2498 29.9991 22.9707 30.225 23.376C30.496 23.8715 30.9021 24.2766 31.3983 24.5915C31.9847 24.9964 32.661 25.1759 33.337 25.1751L33.34 27.6089Z" fill="#124D73"/>
<path d="M36.892 20.3933C36.8949 22.737 36.4464 24.5854 35.6368 25.9385C34.9171 27.0661 34.1065 27.6531 33.1149 27.6543L33.112 25.2205C33.8782 25.2195 34.644 24.9031 35.3644 24.3163C35.5895 24.1358 35.6789 23.5047 35.6775 22.3779C35.6767 21.7018 35.4931 18.9528 35.1717 14.1306C34.8054 9.3536 34.6667 6.51433 34.6657 5.70306C34.6648 4.93686 34.5288 4.30604 34.3028 3.76547C34.3024 3.44998 34.527 2.77365 34.9764 1.73648C35.0214 1.64629 35.0663 1.55609 35.1114 1.55604C35.1565 1.55598 35.2016 1.601 35.2919 1.7361C35.4274 2.00636 35.7439 2.77217 36.1961 4.03359C36.6935 5.34003 37.0099 6.15091 37.0553 6.42128C37.1007 6.64658 37.146 6.82681 37.1461 6.91695C37.1465 7.27751 36.7857 7.09767 36.1087 6.28722C36.0184 6.15212 35.9734 6.19724 35.9736 6.4226C35.9737 6.46767 36.1115 8.63088 36.4321 12.822C36.7077 17.0583 36.8911 19.5821 36.892 20.3933Z" fill="#124D73"/>
<path d="M39.1465 21.1568C39.1455 20.3906 39.0096 19.7598 38.7836 19.2643C38.7833 18.9939 39.0078 18.3175 39.4572 17.2353C39.5021 17.1 39.5922 17.0549 39.5922 17.0549C39.6373 17.0548 39.6824 17.0998 39.7727 17.2349C39.9082 17.5052 40.2247 18.271 40.6769 19.5324C41.1743 20.8389 41.4907 21.6497 41.5361 21.9201C41.5815 22.1454 41.6268 22.3256 41.6269 22.4608C41.6274 22.8214 41.2665 22.5965 40.5895 21.8311C40.4992 21.696 40.4543 21.7862 40.4545 21.9665C40.4546 22.0116 40.6379 24.5353 41.0044 29.4475C41.371 34.3598 41.5547 37.1539 41.5554 37.7398C41.5577 39.6328 41.2893 41.3007 40.7051 42.7437C40.5702 43.0142 40.4804 43.2397 40.3904 43.375C40.2555 43.6006 40.2104 43.6006 40.2102 43.4654C40.165 43.3302 40.2097 43.0147 40.2091 42.564C40.2985 41.9329 40.3426 41.1666 40.3415 40.2652C40.3406 39.499 40.1114 36.2993 39.744 30.666C39.3765 24.9875 39.1473 21.8329 39.1465 21.1568Z" fill="#124D73"/>
</svg>
