<svg width="49" height="49" viewBox="0 0 49 49" fill="none" xmlns="http://www.w3.org/2000/svg">
<path d="M7.8243 23.6897L8.36131 22.6157C8.40262 22.533 8.44393 22.4917 8.48524 22.4917C8.56785 22.4917 8.85701 22.6983 9.39402 23.0287C9.93103 23.4005 10.1789 23.6071 10.1789 23.6484C10.1789 23.8549 9.97234 24.3506 9.47663 25.1355C9.43533 25.2181 9.35271 25.2594 9.3114 25.2181C8.85701 24.8876 8.32 24.5158 7.74169 24.1441C7.53514 24.5985 7.36991 24.9702 7.16337 25.2594C7.12206 25.342 7.03944 25.3833 6.99813 25.342C6.46113 24.9289 5.92412 24.5571 5.3458 24.2267C5.30449 24.2267 5.30449 24.1854 5.3458 24.1028L6.04804 22.7396C6.08935 22.657 6.13066 22.6157 6.17197 22.6157C6.21328 22.6157 6.46113 22.7396 6.91552 23.07C7.36991 23.3592 7.65907 23.5657 7.8243 23.6897Z" fill="#124D73"/>
<path d="M13.277 34.3059C12.5748 34.3059 12.0378 34.2646 11.7486 34.182C11.0877 33.9755 10.5094 33.5624 10.055 32.8602C9.76581 32.4058 9.51796 31.9101 9.2288 31.4557C8.98095 31.0839 8.77441 30.8774 8.48525 30.8774C7.7004 30.8774 6.87423 31.5383 6.00675 32.8602C5.84152 33.108 5.59367 33.7276 5.18059 34.719C4.7675 35.7104 4.43704 36.4127 4.14788 36.8671C3.69349 37.528 3.19778 37.8585 2.70208 37.8585C1.91723 37.8585 1.2976 37.2388 0.760592 36.0409C0.3062 35.0082 0.0583496 33.8929 0.0583496 32.7775C0.0583496 31.4144 0.182275 30.299 0.471433 29.4729C0.595358 29.1837 0.636667 29.0598 0.719284 29.0598C0.801901 29.0598 0.843208 29.225 0.8019 29.6381C0.677975 30.5056 0.636667 31.2491 0.636667 31.8688C0.636667 34.7603 1.2976 36.2474 2.66078 36.2474C3.23909 36.2474 3.73479 35.8344 4.14788 34.9669C4.60227 33.9755 5.09797 32.9428 5.55236 31.9101C5.96544 31.0839 6.46114 30.3403 7.03946 29.762C7.65909 29.1424 8.2374 28.8532 8.7331 28.8532C9.10488 28.8532 9.47665 29.1011 9.76581 29.5968C10.055 30.0099 10.3028 30.4643 10.5507 30.8774C10.9224 31.4144 11.3355 31.7861 11.7073 31.9514C12.0791 32.1579 12.6161 32.2405 13.277 32.2405V34.3059Z" fill="#124D73"/>
<path d="M11.666 10.0992C13.6075 9.397 15.6729 8.65345 17.8622 7.86859C17.9862 7.82728 18.0275 7.82728 18.0688 7.82728C18.1101 7.86859 18.0688 7.90989 18.0688 8.03382C17.9449 8.32298 17.8622 8.52952 17.7796 8.57083C15.9621 9.23176 13.814 10.0579 11.3768 11.0906C11.3768 10.7602 11.5008 10.4297 11.666 10.0992Z" fill="#124D73"/>
<path d="M16.4578 28.1096C16.4578 30.1337 16.086 31.7034 15.3425 32.8601C14.7229 33.8515 14.0206 34.3472 13.1945 34.3472V32.2405C13.8554 32.2405 14.5163 31.9926 15.136 31.4556C15.3425 31.2904 15.4251 30.7534 15.4251 29.762C15.4251 29.1836 15.2599 26.8291 14.9707 22.6982C14.6816 18.5674 14.5163 16.1302 14.5163 15.428C14.5163 14.767 14.3924 14.1887 14.1859 13.7756C14.1859 13.5278 14.3924 12.9495 14.7642 11.9994C14.8055 11.9168 14.8468 11.8754 14.8881 11.8754C14.9294 11.8754 14.9707 11.9168 15.0533 12.0407C15.1773 12.2885 15.4251 12.9495 15.8382 14.0235C16.2513 15.1388 16.4991 15.841 16.5817 16.0889C16.6231 16.2954 16.6644 16.4194 16.6644 16.502C16.6644 16.8324 16.3752 16.6259 15.7556 15.965C15.673 15.841 15.6317 15.8824 15.6317 16.0889C15.6317 16.1302 15.7556 17.9891 16.0447 21.5829C16.3339 25.218 16.4578 27.4074 16.4578 28.1096Z" fill="#124D73"/>
<path d="M15.797 44.4264C17.7385 43.7242 19.8039 42.9806 21.9932 42.1958C22.1172 42.1545 22.1585 42.1545 22.1998 42.1545C22.2411 42.1958 22.1998 42.2371 22.1998 42.361C22.0758 42.6502 21.9932 42.8567 21.9106 42.898C20.093 43.559 17.945 44.3851 15.5078 45.4178C15.5078 45.0874 15.6317 44.7982 15.797 44.4264Z" fill="#124D73"/>
<path d="M17.408 41.2871C15.9622 41.2871 15.2186 40.337 15.2186 38.3955C15.2186 36.9497 15.5491 35.4626 16.1274 33.9342C16.2513 33.6037 16.334 33.4385 16.4166 33.4385C16.4579 33.4385 16.4579 33.4798 16.4579 33.5624C16.4579 33.645 16.4166 33.8102 16.334 34.0168C15.8796 35.5039 15.673 36.6605 15.673 37.4454C15.673 38.0237 15.8383 38.4781 16.21 38.7672C16.4992 39.0564 16.871 39.1803 17.284 39.1803C18.1928 39.1803 20.0104 38.3128 22.6541 36.6192C25.05 35.0495 26.4132 34.0994 26.785 33.7276C26.9502 33.6037 27.0328 33.4385 27.0328 33.3145C27.0328 33.1493 26.8263 32.9015 26.4545 32.6536C26.0001 32.3231 25.2979 31.9101 24.3065 31.4144C23.2324 30.9187 22.4063 30.4643 21.8693 30.0925C20.9192 29.4316 20.093 28.6467 19.3908 27.6553C19.3082 27.5314 19.1016 27.4074 18.8125 27.2422C18.6472 27.1596 18.5646 26.9531 18.5646 26.6226V25.342C18.5646 25.2181 18.5646 25.1355 18.6059 25.0942C18.6472 25.0529 18.7298 25.0942 18.9364 25.1768L21.0844 26.2095C21.167 26.2508 21.2496 26.2921 21.3323 26.3334C21.6627 26.54 21.7867 26.6639 21.704 26.7878C21.5801 26.9117 21.167 26.9531 20.4648 26.9117C21.2496 27.6966 22.3237 28.3988 23.6042 28.9772C25.1739 29.7207 26.124 30.2164 26.4132 30.423C27.1154 30.9187 27.4459 31.7448 27.4459 32.9015C27.4459 33.1493 27.4459 33.3972 27.3633 33.645C27.2394 34.3059 27.1154 34.7603 26.9915 35.0082C26.8676 35.2147 26.661 35.4626 26.3306 35.7517C25.7109 36.3301 24.3478 37.2801 22.2824 38.6433C19.8865 40.4196 18.1928 41.2871 17.408 41.2871Z" fill="#124D73"/>
<path d="M29.5525 34.3472C29.7177 35.3386 30.0482 35.9582 30.5026 36.2887C30.7504 36.4126 31.1222 36.4952 31.6179 36.4952V38.602C30.8744 38.602 30.2547 38.4367 29.8417 38.1476C29.2633 37.6932 28.8503 36.9083 28.6437 35.6691C28.5198 34.9255 28.3959 32.7362 28.2719 29.1423C28.148 25.218 28.0654 22.7809 27.9828 21.9134C27.8175 20.4676 27.5284 19.1044 27.1566 17.8239C27.1566 17.4934 27.2805 16.9564 27.5697 16.2954C27.611 16.1302 27.6936 16.0476 27.7349 16.0476C27.7762 16.0476 27.8589 16.1302 27.9002 16.2541C28.3546 17.1216 28.685 18.6087 28.8916 20.6741C29.0155 21.9547 29.1394 24.5158 29.2633 28.3575C29.4286 32.0752 29.5112 34.0167 29.5525 34.3472Z" fill="#124D73"/>
<path d="M29.9659 23.1114C31.9074 22.4091 33.9728 21.6656 36.1622 20.8807C36.2861 20.8394 36.3274 20.8394 36.3687 20.8394C36.41 20.8807 36.3687 20.922 36.3687 21.046C36.2448 21.3351 36.1622 21.5417 36.0796 21.583C34.262 22.2439 32.114 23.0701 29.6768 24.1028C29.6768 23.7723 29.8007 23.4832 29.9659 23.1114Z" fill="#124D73"/>
<path d="M38.021 41.4109C37.9797 41.3696 37.9797 41.3283 38.021 41.287L38.6819 39.9238C38.7232 39.8412 38.7645 39.7999 38.8058 39.7999C38.8885 39.7999 39.1776 39.9651 39.7146 40.3369C40.2516 40.7087 40.4995 40.9152 40.4995 40.9979C40.4995 41.2044 40.2516 41.7001 39.7972 42.4436C39.7559 42.5263 39.6733 42.5676 39.632 42.5263C39.1363 42.1545 38.5993 41.7827 38.021 41.4109Z" fill="#124D73"/>
<path d="M44.4238 33.3558L43.6803 34.8016C43.5977 34.9668 43.5151 35.0495 43.3911 35.0082C41.0366 35.0082 39.0124 35.3799 37.3188 36.0822C36.9057 36.2474 35.8317 36.7844 34.0554 37.6932C32.8988 38.2715 32.0313 38.602 31.5356 38.602V36.4953C32.5683 36.4953 34.3033 35.8343 36.7405 34.4711C34.5511 34.0994 32.4031 33.8515 30.2964 33.6863C29.8833 33.645 29.6768 33.6037 29.6768 33.5211C29.6768 33.5211 29.6768 33.4797 29.6768 33.4384C29.842 33.0667 30.0898 32.6123 30.4203 31.9926H34.0141C34.4685 32.0753 35.7078 32.2818 37.7319 32.571C40.293 32.9014 42.3171 33.0254 43.8868 33.0254C44.2999 33.0254 44.4651 33.0667 44.4651 33.1493C44.5065 33.2319 44.4651 33.2732 44.4238 33.3558Z" fill="#124D73"/>
<path d="M37.1947 14.1888C37.2774 13.9823 37.2774 13.7757 37.2361 13.6105C37.1947 13.4039 37.1121 13.28 36.9469 13.28C36.8643 13.28 36.7817 13.3213 36.6164 13.4039C36.4925 13.4866 36.4099 13.5692 36.4099 13.6105C36.4512 13.7344 36.699 13.9409 37.1947 14.1888ZM36.823 15.0976C36.162 14.7671 35.8729 14.4366 35.8729 14.0649C35.8729 13.6105 36.0794 13.1974 36.4925 12.8256C36.9056 12.4538 37.2361 12.3299 37.5252 12.4125C37.7318 12.4952 37.8557 12.743 37.8557 13.1561C37.8557 13.5279 37.7731 13.9409 37.6491 14.3953C37.9796 14.6019 38.1861 14.7671 38.2688 14.891C38.2688 15.0563 38.1448 15.3454 37.8144 15.7585C37.7318 15.6346 37.5252 15.4694 37.2361 15.3041C36.8643 15.7998 36.4099 16.2542 35.8729 16.6673C35.2533 17.1217 34.6749 17.4935 34.1379 17.7413C34.014 17.7826 33.3944 18.0305 32.2791 18.4436C32.1138 18.5262 31.9899 18.5675 31.9073 18.5675C31.866 18.5675 31.866 18.5675 31.866 18.5675C31.866 18.5262 31.9899 18.4436 32.1551 18.3196C32.9813 17.8239 33.8075 17.3282 34.6336 16.8325C35.5837 16.1303 36.3273 15.5933 36.823 15.0976Z" fill="#124D73"/>
<path d="M45.2084 28.9359C45.2084 29.5968 45.0845 30.1751 44.754 30.6295C44.4236 31.0839 44.0518 31.2904 43.5974 31.2904C42.5234 31.2904 41.532 30.4643 40.6232 28.7706C38.3925 29.5555 36.0793 30.6708 33.7247 31.9927H30.5439C30.6679 31.8274 31.9071 31.1252 34.2204 29.8859C36.6576 28.6054 38.5991 27.6553 40.0862 27.0357C40.0862 26.8704 40.2101 26.7465 40.4166 26.6226C40.6645 26.4987 40.871 26.54 40.995 26.6639C41.945 26.3334 42.6886 26.2095 43.3082 26.2095C43.9279 26.2095 44.3822 26.4574 44.7127 26.9531C45.0432 27.4901 45.2084 28.151 45.2084 28.9359ZM43.8039 29.225C44.0931 29.225 44.2583 29.1424 44.2583 28.9359C44.2583 28.7293 44.0931 28.5228 43.7213 28.3988C43.3082 28.2336 42.7712 28.1923 42.1103 28.3162C42.6473 28.9359 43.2256 29.225 43.8039 29.225Z" fill="#124D73"/>
<path d="M41.3667 3.20073C41.3667 3.36597 41.1601 3.69643 40.7884 4.19213C40.334 4.77045 39.9622 5.22484 39.5491 5.514C39.3012 5.67923 38.5164 5.96839 37.1119 6.34017C36.8641 6.38148 36.7401 6.42278 36.7401 6.42278C36.7814 6.38148 36.8641 6.34017 37.0293 6.21624C37.1945 6.09232 37.6902 5.80316 38.5164 5.39008C39.3012 4.97699 39.7143 4.72914 39.8383 4.60522C39.8796 4.56391 39.8796 4.56391 39.8796 4.5226C39.8796 4.35737 39.2186 4.27475 37.8142 4.27475C37.8142 4.27475 37.5663 4.27475 37.0293 4.27475C36.7814 4.27475 36.6162 4.27475 36.6162 4.23344C36.6162 4.19213 36.6575 4.10952 36.7401 4.0269L37.2358 3.20073C37.3598 2.95288 37.6489 2.78765 38.0207 2.74634C38.1446 2.70503 38.4751 2.70503 38.9708 2.70503C40.5405 2.66373 41.3667 2.82896 41.3667 3.20073Z" fill="#124D73"/>
<path d="M40.0446 26.953C39.6316 25.218 39.2598 22.2025 38.9293 17.8651C38.7228 15.2214 38.6402 12.8668 38.6402 10.8014C38.6402 10.1405 38.5162 9.56214 38.3097 9.10775C38.3097 8.8599 38.5162 8.28158 38.9293 7.3728C38.9706 7.24887 39.0119 7.20757 39.0532 7.20757C39.0946 7.20757 39.1359 7.24887 39.2185 7.3728C39.3424 7.57934 39.5903 8.28158 40.0033 9.3556C40.4164 10.4709 40.6643 11.1732 40.7469 11.421C40.7882 11.6276 40.8295 11.7515 40.8295 11.8341C40.8295 12.1646 40.5403 11.958 39.962 11.2558C39.8794 11.1732 39.8381 11.2145 39.8381 11.3797C39.8381 12.2885 39.9207 14.4778 40.1273 17.9064C40.3751 22.3264 40.7469 25.1767 41.16 26.4159C41.16 26.4986 41.036 26.5812 40.7469 26.7051C40.4577 26.829 40.2925 26.9116 40.1273 26.9116C40.086 26.953 40.0446 26.953 40.0446 26.953Z" fill="#124D73"/>
<path d="M45.9517 19.7654C45.9517 19.1045 45.8278 18.5262 45.6212 18.1131C45.6212 17.8653 45.8278 17.2869 46.1995 16.3782C46.2408 16.2542 46.3235 16.2129 46.3235 16.2129C46.3648 16.2129 46.4061 16.2542 46.4474 16.3782C46.5713 16.626 46.8192 17.2869 47.2322 18.361C47.6453 19.4763 47.8932 20.1785 47.9758 20.4264C48.0171 20.6329 48.0584 20.7568 48.0584 20.8808C48.0584 21.1699 47.7692 21.0047 47.1496 20.3024C47.067 20.1785 47.0257 20.2611 47.0257 20.4264C47.0257 20.4677 47.1909 22.6157 47.4801 26.8705C47.7693 31.0839 47.9345 33.4798 47.9345 34.0168C47.9345 35.6692 47.6866 37.0736 47.1909 38.3129C47.067 38.5607 46.9844 38.726 46.9431 38.8499C46.8192 39.0151 46.7778 39.0564 46.7778 38.9325C46.7365 38.8086 46.7778 38.5194 46.7778 38.1477C46.8605 37.5693 46.9018 36.9497 46.9018 36.2062C46.9018 35.5452 46.7365 32.7776 46.3648 27.9445C46.1169 23.0288 45.9517 20.3438 45.9517 19.7654Z" fill="#124D73"/>
</svg>
