<svg width="49" height="49" viewBox="0 0 49 49" fill="none" xmlns="http://www.w3.org/2000/svg">
<path d="M10.2995 21.2722L10.8851 20.0619C10.9241 19.9838 11.0022 19.9058 11.0413 19.9058C11.1193 19.9058 11.4707 20.101 12.0564 20.5304C12.681 20.9599 12.9543 21.1942 12.9543 21.2332C12.9543 21.5065 12.681 22.0531 12.1735 22.912C12.0954 22.9901 12.0564 23.0291 11.9783 22.9901C11.4707 22.5997 10.8851 22.2093 10.2214 21.7798C10.0262 22.2873 9.79191 22.7168 9.55765 23.0291C9.51861 23.1463 9.44053 23.1853 9.36244 23.1072C8.77681 22.6387 8.15213 22.2093 7.52745 21.8188C7.48841 21.7798 7.48841 21.7408 7.52745 21.6627L8.3083 20.14C8.34734 20.0619 8.38638 19.9838 8.46447 19.9838C8.54255 19.9838 8.81585 20.14 9.3234 20.4914C9.83095 20.8428 10.1433 21.1161 10.2995 21.2722Z" fill="#124D73"/>
<path d="M13.8521 34.8199C13.8521 35.1322 13.7741 35.4836 13.6569 35.9911C13.5398 36.4987 13.3836 36.8501 13.2275 37.0453C12.9151 37.4747 12.3685 37.9823 11.6267 38.4508C10.8068 38.9583 10.1041 39.2316 9.51844 39.2316C8.58142 39.2316 8.11291 38.5679 8.11291 37.1624C8.11291 36.2254 8.26908 35.2884 8.62046 34.4294C8.89376 33.6876 9.44035 32.7116 10.2212 31.5013C9.90886 31.1499 9.59652 30.8375 9.36227 30.5642C8.07387 32.165 6.6293 33.3362 5.02857 34C4.71623 34.1561 4.52102 34.2342 4.48197 34.2342C4.48197 34.2342 4.44293 34.2342 4.44293 34.1952C4.44293 34.1561 4.63814 33.9609 5.06761 33.6095C5.80941 32.9458 6.31696 32.5164 6.55122 32.2821C7.41015 31.5013 8.15195 30.7204 8.81567 29.9396C8.62046 29.6663 8.34717 29.2758 7.95674 28.7683C7.87866 28.6512 7.68345 28.456 7.37111 28.1436C7.21494 27.9874 7.13685 27.7922 7.13685 27.558C7.13685 27.2066 7.1759 26.8162 7.29302 26.3477C7.37111 25.9182 7.44919 25.684 7.48823 25.684C7.56632 25.684 7.95674 25.8792 8.58142 26.3086C9.2061 26.6991 9.67461 27.0504 10.026 27.2847C10.2212 27.4018 10.2993 27.5189 10.2993 27.558C10.2993 27.6361 10.1431 27.6361 9.90886 27.6361C9.40131 27.6361 9.16705 27.6751 9.16705 27.6751C9.16705 27.7532 9.40131 28.0655 9.86982 28.534C10.4555 27.597 11.2753 26.4258 12.3295 25.0202C13.3446 23.888 14.0864 23.3024 14.5159 23.3024C14.7892 23.3024 14.9063 23.5366 14.9063 24.0051C14.9063 24.4736 14.7501 25.0983 14.4768 25.9182C14.2426 26.6991 13.9693 27.2847 13.696 27.7532C13.3055 28.4169 12.7199 29.3149 11.9391 30.4471C12.7199 31.3451 13.2665 32.1259 13.5008 32.8287C13.7741 33.3753 13.8521 34.039 13.8521 34.8199ZM13.3836 25.723C12.7589 26.1134 11.7829 27.2456 10.4555 29.1197C10.8068 29.4711 11.0801 29.7053 11.3144 29.8615C11.4706 29.6272 12.0171 28.8854 12.8761 27.558C13.696 26.2696 13.9693 25.6449 13.6569 25.6059C13.5788 25.6059 13.5008 25.6449 13.3836 25.723ZM13.1884 34.8199C12.7589 33.9219 12.0171 33.063 11.0411 32.165C10.7287 32.5164 10.2993 33.102 9.86982 33.8438C9.36227 34.7027 9.01089 35.4055 8.85472 35.9911C8.85472 36.0692 8.81567 36.1083 8.81567 36.1863C8.81567 36.6158 9.16705 36.8501 9.83077 36.8501C10.1041 36.8501 10.5335 36.7329 11.0411 36.5377C11.7438 36.2644 12.3685 35.835 12.9151 35.2884C13.1494 35.0541 13.2275 34.8979 13.1884 34.8199Z" fill="#124D73"/>
<path d="M17.2882 29.7054C19.4746 28.9245 21.7781 28.0656 24.2377 27.1676C24.3549 27.1286 24.433 27.0896 24.433 27.1286C24.472 27.1676 24.472 27.2457 24.3939 27.3238C24.2377 27.6752 24.1206 27.8704 24.0425 27.9485C21.9733 28.6903 19.5527 29.6273 16.8197 30.7595C16.9759 30.4472 17.093 30.0958 17.2882 29.7054Z" fill="#124D73"/>
<path d="M19.7084 34.3904C19.6693 34.3513 19.6693 34.3123 19.7084 34.2342L20.4892 32.6725C20.5282 32.5944 20.5673 32.5164 20.6454 32.5164C20.7235 32.5164 21.0748 32.7116 21.6605 33.141C22.2461 33.5315 22.5584 33.8048 22.5584 33.8828C22.5584 34.1561 22.2852 34.6637 21.7776 35.5226C21.6995 35.6397 21.6605 35.6788 21.5824 35.6007C20.9577 35.2103 20.333 34.7808 19.7084 34.3904Z" fill="#124D73"/>
<path d="M18.0687 43.2921C18.8886 42.3551 19.9818 41.5352 21.3092 40.8324C22.0901 40.4029 23.4565 39.7783 25.3696 38.9584V41.1057C24.1593 41.6133 23.2613 42.0427 22.6757 42.316C21.5044 42.8626 20.6845 43.2921 20.216 43.6435C19.3961 44.2681 18.2249 45.4784 16.7022 47.2744C15.7652 48.3285 14.8672 48.8751 13.9302 48.8751C13.1494 48.8751 12.4466 48.5237 11.861 47.821C11.2363 47.0792 10.924 46.1812 10.924 45.1271C10.924 43.6825 11.5096 41.7694 12.7199 39.4269C12.837 39.1926 12.9542 39.0755 12.9932 39.0755C13.0322 39.1145 13.0322 39.1145 13.0322 39.1536C13.0322 39.3878 12.7589 40.2077 12.2514 41.6133C11.7438 43.0188 11.4705 44.112 11.4705 44.9319C11.4705 45.5565 11.6267 46.0641 11.9 46.4155C12.2123 46.8059 12.6418 47.0401 13.1884 47.0401C14.1645 47.0401 15.1405 46.5326 16.1166 45.5565C16.8193 44.7757 17.444 44.0339 18.0687 43.2921Z" fill="#124D73"/>
<path d="M23.5737 31.2672C25.7601 30.4863 28.0636 29.6274 30.5233 28.7294C30.6404 28.6904 30.7185 28.6513 30.7185 28.6904C30.7575 28.7294 30.7575 28.8075 30.6794 28.8856C30.5233 29.237 30.4061 29.4322 30.3281 29.5103C28.2588 30.2521 25.8382 31.1891 23.1052 32.3213C23.2614 32.009 23.3785 31.6576 23.5737 31.2672Z" fill="#124D73"/>
<path d="M28.8833 41.5742C29.1957 41.5742 29.3518 41.4961 29.3518 41.34C29.3518 41.1057 29.1566 40.9105 28.6881 40.7153C28.3367 40.5591 27.8292 40.5591 27.1264 40.7543C27.5169 41.3009 28.1025 41.5742 28.8833 41.5742ZM25.9942 38.8022C27.0093 38.4508 27.8292 38.2556 28.4539 38.2556C29.1176 38.2556 29.6642 38.5289 30.0546 39.1145C30.445 39.6611 30.6402 40.4029 30.6402 41.34C30.6402 42.0818 30.4841 42.7455 30.1327 43.214C29.8203 43.7215 29.3909 43.9558 28.8443 43.9558C28.1415 43.9558 27.4388 43.6435 26.775 42.9797C26.2285 42.4331 25.799 41.8085 25.4866 41.1057H26.9703L24.9791 39.2317C24.9401 39.1145 25.0572 38.9974 25.4086 38.8412C25.7209 38.6851 25.9161 38.6851 25.9942 38.8022Z" fill="#124D73"/>
<path d="M32.2801 17.8365C32.3582 17.6022 32.3582 17.407 32.3191 17.1727C32.2801 16.8994 32.163 16.7823 31.9677 16.7823C31.8897 16.7823 31.7725 16.8214 31.6164 16.8994C31.4602 16.9775 31.3821 17.0556 31.3821 17.1337C31.4211 17.3289 31.6944 17.5632 32.2801 17.8365ZM31.8506 18.8516C31.1088 18.4611 30.7574 18.0707 30.7574 17.6803C30.7574 17.1727 30.9917 16.7042 31.4602 16.2748C31.9287 15.8453 32.3191 15.7282 32.6315 15.8063C32.9048 15.8843 33.0219 16.1967 33.0219 16.6261C33.0219 17.0556 32.9438 17.5241 32.7876 18.0317C33.139 18.2659 33.3733 18.4221 33.4513 18.5783C33.4513 18.7735 33.2952 19.0858 32.9438 19.5543C32.8657 19.3982 32.6315 19.242 32.2801 19.0077C31.8897 19.5543 31.3431 20.1009 30.7184 20.5304C30.0156 21.077 29.3519 21.4674 28.7663 21.7407C28.6491 21.8188 27.9464 22.053 26.697 22.5215C26.5018 22.5996 26.3456 22.6387 26.3066 22.6387C26.2285 22.7167 26.2285 22.6777 26.2285 22.6777C26.2285 22.6387 26.3456 22.5215 26.5799 22.4044C27.5169 21.8578 28.4539 21.3112 29.3909 20.7256C30.4841 20.0619 31.304 19.4372 31.8506 18.8516Z" fill="#124D73"/>
<path d="M39.6981 32.2431C40.0104 32.0869 40.1666 31.9308 40.1666 31.7746C40.1666 31.5794 40.0104 31.3061 39.62 30.9938C39.4248 30.8376 38.8782 30.6033 38.0193 30.33C37.1604 30.0177 36.4966 29.6663 36.0281 29.2759C36.0281 29.8225 35.8329 30.5643 35.4425 31.3842C35.1302 32.0869 34.7788 32.6726 34.3884 33.1411C34.7007 33.2192 35.0521 33.2192 35.4425 33.2192C36.7699 33.1801 38.1755 32.8678 39.6981 32.2431ZM35.0521 30.33C35.0521 29.7444 34.974 29.2369 34.8178 28.8464C34.6616 28.495 34.5055 28.3389 34.3103 28.3389C33.7637 28.5341 33.2171 28.8464 32.6705 29.2759C32.0458 29.7834 31.6163 30.291 31.4211 30.8376C31.4211 31.7356 31.7725 32.3212 32.4753 32.5945C33.8808 31.9698 34.7397 31.228 35.0521 30.33ZM27.9073 34.1952C28.493 34 29.43 33.6877 30.7184 33.2192C30.6403 32.8678 30.6012 32.5164 30.6012 32.126C30.6012 30.9547 30.9136 29.8615 31.5773 28.8074C32.6705 27.0895 33.8027 26.2306 34.974 26.2306C35.1692 26.2306 35.4035 26.2696 35.6377 26.3477L36.6138 26.7772C36.6138 26.7772 36.6528 26.8553 36.6918 26.9334C36.9651 27.3238 37.6679 27.7142 38.7611 28.1437C39.7762 28.5341 40.4009 28.9245 40.5961 29.3149C40.8694 29.7444 40.9865 30.252 40.9865 30.7985C40.9865 31.4232 40.8303 32.0479 40.518 32.6726C40.2447 33.2192 39.9714 33.6096 39.6591 33.8829C39.2296 34.2733 38.4878 34.6247 37.3946 34.937C36.4186 35.2103 35.5987 35.3275 34.8569 35.3275C33.5294 35.3275 32.5534 35.1713 31.9677 34.7809C31.4211 35.0932 30.6403 35.4055 29.5471 35.7569C29.0005 35.9521 28.4539 36.1083 27.9073 36.3035C27.3607 36.5378 26.8532 36.8111 26.4237 37.0844C25.9942 37.3577 25.76 37.5529 25.76 37.631C25.76 37.8652 25.8771 38.2556 26.1504 38.8022C25.8771 39.0755 25.5257 39.1926 25.0963 39.1926C25.0572 38.9194 25.0182 38.6461 25.0182 38.3337C25.0182 36.3426 25.9942 34.9761 27.9073 34.1952Z" fill="#124D73"/>
<path d="M36.9262 1.39964C36.9262 1.59485 36.731 1.94623 36.3016 2.53187C35.794 3.19559 35.3645 3.70314 34.896 4.01548C34.6227 4.21069 33.7248 4.52303 32.1631 4.95249C31.8898 4.99153 31.7336 5.03058 31.7336 5.03058C31.7726 4.99153 31.8507 4.91345 32.0459 4.79632C32.2412 4.64015 32.7877 4.32782 33.7248 3.85931C34.5837 3.3908 35.0912 3.07846 35.2474 2.96133C35.2865 2.92229 35.2865 2.88325 35.2865 2.88325C35.2865 2.68804 34.5056 2.60995 32.983 2.60995C32.983 2.60995 32.7097 2.60995 32.124 2.64899C31.8117 2.68804 31.6555 2.64899 31.6555 2.60995C31.6555 2.57091 31.6946 2.49283 31.7726 2.3757L32.3192 1.43868C32.4754 1.16538 32.7877 1.00922 33.2172 0.931131C33.3734 0.892089 33.7248 0.892089 34.2714 0.892089C36.0673 0.814005 36.9262 1.00922 36.9262 1.39964Z" fill="#124D73"/>
<path d="M35.4816 27.0895C35.0131 25.1374 34.5837 21.7407 34.1932 16.8213C33.959 13.8151 33.8419 11.1602 33.8419 8.85671C33.8419 8.1149 33.7247 7.45118 33.4905 6.98268C33.4905 6.70938 33.7247 6.04566 34.1542 5.03056C34.1932 4.91343 34.2323 4.87439 34.3104 4.87439C34.3494 4.87439 34.4275 4.95247 34.4665 5.0696C34.5837 5.3429 34.857 6.0847 35.3255 7.29501C35.794 8.54437 36.0673 9.32521 36.1454 9.63755C36.2234 9.87181 36.2234 10.028 36.2234 10.1061C36.2234 10.4574 35.9111 10.2622 35.2474 9.48139C35.1693 9.4033 35.1303 9.44234 35.1303 9.63755C35.1303 10.6917 35.2474 13.1123 35.4816 17.0166C35.7549 22.014 36.1454 25.2154 36.6529 26.621C36.6529 26.6991 36.4967 26.7771 36.1844 26.9333C35.8721 27.0895 35.6378 27.1285 35.4816 27.0895C35.5207 27.1285 35.4816 27.1285 35.4816 27.0895Z" fill="#124D73"/>
<path d="M41.221 21.5846C41.221 20.8428 41.1039 20.2181 40.8696 19.7106C40.8696 19.4373 41.0648 18.7735 41.5333 17.7584C41.6114 17.6413 41.6505 17.5632 41.6895 17.5632C41.7286 17.5632 41.7676 17.6413 41.8457 17.7584C42.0019 18.0317 42.2752 18.7735 42.7046 19.9839C43.1731 21.2332 43.4855 22.0141 43.5635 22.3264C43.6416 22.5607 43.6416 22.7168 43.6416 22.8339C43.6416 23.1853 43.3293 22.9511 42.6265 22.2093C42.5484 22.0921 42.5094 22.1312 42.5094 22.3654C42.5094 22.4435 42.6656 24.8642 43.017 29.6273C43.3683 34.3905 43.5245 37.0844 43.5245 37.67C43.5245 39.505 43.2512 41.1448 42.7046 42.5113C42.5875 42.7846 42.4704 42.9798 42.4313 43.0969C42.3142 43.2921 42.2361 43.3312 42.2361 43.2141C42.1971 43.0579 42.1971 42.7846 42.2752 42.3161C42.3532 41.6914 42.3923 40.9496 42.3923 40.0907C42.3923 39.3489 42.1971 36.2255 41.8066 30.7595C41.4162 25.2936 41.221 22.2483 41.221 21.5846Z" fill="#124D73"/>
<path d="M25.3695 39.6221V41.1057H26.9312L25.3695 39.6221Z" fill="#124D73"/>
</svg>
