<svg width="48" height="35" viewBox="0 0 48 35" fill="none" xmlns="http://www.w3.org/2000/svg">
<path d="M45.6582 5.08966C45.6582 4.33524 45.5481 3.738 45.3124 3.23505C45.3124 2.96786 45.501 2.32346 45.9568 1.349C45.9882 1.23899 46.0354 1.1604 46.0668 1.1604C46.1454 1.1604 46.1768 1.23899 46.2554 1.349C46.3654 1.61619 46.6326 2.32346 47.0884 3.50224C47.5756 4.74389 47.8428 5.49831 47.9214 5.79693C48 5.98554 48 6.17414 48 6.25272C48 6.5985 47.7014 6.40989 47.0255 5.65548C46.947 5.54546 46.9155 5.62404 46.9155 5.81265C46.9155 5.89123 47.1041 8.23307 47.4499 12.901C47.7957 17.5376 47.9371 20.1466 47.9371 20.7438C47.9371 22.5199 47.6699 24.1073 47.1513 25.459C46.9941 25.7262 46.9312 25.9148 46.8526 26.0562C46.7426 26.2448 46.6955 26.2448 46.664 26.1348C46.6326 25.9776 46.664 25.679 46.6955 25.2704C46.7741 24.626 46.8055 23.9187 46.8055 23.1171C46.8055 22.3627 46.6169 19.345 46.2397 14.0327C45.8468 8.70458 45.6582 5.73406 45.6582 5.08966Z" fill="#124D73"/>
<path d="M44.448 15.4943C44.448 17.7262 44.0394 19.455 43.2378 20.7438C42.562 21.7969 41.7604 22.3627 40.8646 22.3627V20.068C41.5875 20.068 42.2948 19.7694 42.9706 19.2036C43.1593 19.0464 43.2693 18.4177 43.2693 17.349C43.2693 16.6731 43.1121 14.5199 42.8606 10.9364C42.5934 7.32147 42.4834 5.16823 42.4834 4.52384C42.4834 3.80085 42.3262 3.2036 42.1062 2.71637C42.1062 2.44918 42.3262 1.80479 42.782 0.798894C42.8135 0.688875 42.8606 0.641724 42.8921 0.641724C42.9706 0.641724 43.0021 0.673158 43.0807 0.798894C43.1907 1.09752 43.4893 1.8205 43.9137 2.98356C44.4009 4.19378 44.6681 4.9482 44.7781 5.24682C44.8095 5.46686 44.8567 5.62403 44.8567 5.73405C44.8567 6.07982 44.5109 5.84407 43.8822 5.08965C43.8036 5.01107 43.7722 5.05822 43.7722 5.24682C43.7722 5.27825 43.8822 6.83424 44.118 9.85192C44.338 12.8224 44.448 14.7085 44.448 15.4943Z" fill="#124D73"/>
<path d="M26.6876 20.288C26.2318 20.288 25.6346 20.6966 24.8802 21.5296C23.7171 22.8499 22.6169 23.9029 21.6425 24.7045H17.6818C17.8389 24.4059 18.279 24.1387 19.0806 23.84C20.3694 23.3528 21.1552 23.007 21.4224 22.8656C22.4755 22.3784 23.3085 21.734 23.9843 20.9795C24.5816 20.2566 25.1945 19.5493 25.7918 18.8263C26.279 18.2605 26.7348 17.9933 27.112 17.9933C27.4106 17.9933 27.6464 18.2133 27.7564 18.7163C27.945 19.5021 28.055 19.9579 28.1336 20.0365C28.3536 20.5238 28.8094 20.7909 29.4538 20.7909C30.3654 20.7909 31.2299 20.4137 32.0943 19.7379C32.1729 19.7065 32.5501 19.3293 33.1473 18.6377C33.7446 18.0405 34.0589 17.7261 34.1218 17.7261C34.2318 17.7261 34.279 17.8361 34.1532 18.1033C34.0432 18.4805 33.9646 18.7006 33.9646 18.8263C33.9646 19.0935 34.0746 19.3921 34.3104 19.7379C34.609 20.1937 34.9862 20.4137 35.4735 20.4137C36.7151 20.4137 37.8153 19.5021 38.7112 17.6947C38.7898 17.5061 38.8998 17.4275 39.0098 17.4275C39.167 17.4275 39.1984 17.5375 39.167 17.8361C39.1355 17.9933 39.1355 18.1348 39.1355 18.2919C39.1355 18.8263 39.2927 19.235 39.6228 19.5336C39.9685 19.8793 40.3772 20.068 40.8644 20.0208V22.3155C39.7014 22.3155 38.8684 21.5925 38.3811 20.1308C38.3025 19.9422 38.224 19.9422 38.1925 20.1308C37.5167 21.8283 36.5737 22.6927 35.3635 22.6927C34.1532 22.6927 33.3988 21.9069 33.1788 20.3509C33.1788 20.2408 33.1473 20.1623 33.1473 20.1623C33.1159 20.1623 33.0688 20.2408 32.9902 20.3509C32.6916 20.8381 32.2672 21.3253 31.7014 21.8597C30.7584 22.6455 29.8468 23.0699 28.9509 23.0699C27.9293 23.0699 27.2849 22.4255 27.0334 21.1839C26.9077 20.5866 26.7977 20.288 26.6876 20.288Z" fill="#124D73"/>
<path d="M32.9903 26.1348L32.2044 27.7222C32.0944 27.9108 32.0158 27.9894 31.8586 27.9894C29.2968 27.9894 27.0649 28.3666 25.1789 29.1525C24.7231 29.3411 23.56 29.9069 21.5954 30.9285C20.2752 31.6043 19.3636 31.9501 18.8449 31.9501V29.6554C19.9765 29.6554 21.894 28.901 24.5816 27.3921C22.1612 27.0149 19.7879 26.7477 17.4461 26.5591C16.9903 26.5277 16.7703 26.4491 16.7703 26.3705C16.7703 26.3391 16.7703 26.2919 16.8017 26.2605C16.9903 25.8833 17.2575 25.3489 17.5876 24.6731H21.5482C22.0826 24.7831 23.4343 24.9717 25.6661 25.2703C28.4637 25.6476 30.727 25.8047 32.4244 25.8047C32.8331 25.8047 33.0688 25.8362 33.0688 25.9619C33.0531 25.9776 33.0531 26.0562 32.9903 26.1348Z" fill="#124D73"/>
<path d="M4.88783 31.7929C6.61671 31.7929 8.47132 31.117 10.4674 29.7496C12.0077 28.6966 13.2179 27.5964 14.0823 26.4333C14.3809 26.0561 14.4909 25.8675 14.4909 25.8675C14.601 25.6789 14.6481 25.4589 14.6481 25.1445C14.6481 24.4216 14.4281 23.2899 14.0509 21.7182C13.7522 20.508 12.9978 18.7006 11.8662 16.2173C11.8348 16.1387 11.8662 15.8401 11.9762 15.2742C12.0548 14.7399 12.0862 14.3627 12.1648 14.1426C12.2434 13.8754 12.3534 13.7968 12.5106 13.9854C13.8308 15.7615 14.8524 18.2448 15.4968 21.3725C15.764 22.7713 16.1412 24.7359 16.5499 27.2192C16.7385 28.3194 17.0843 28.9952 17.6029 29.3253C17.8701 29.5139 18.3259 29.5925 18.8917 29.5925V31.8872C18.0587 31.8872 17.4143 31.73 16.9742 31.3999C16.2984 30.9127 15.8741 30.0011 15.6226 28.6809C15.544 28.2251 15.4025 27.3292 15.2139 25.9304C15.0253 27.0306 14.6481 27.9265 14.0823 28.6494C12.9507 30.0483 11.5519 31.2585 9.96444 32.2644C8.10983 33.4274 6.41238 34.0404 4.87211 34.0404C4.08626 34.0404 3.44186 33.6946 3.0175 33.0188C2.67173 32.453 2.53027 31.7771 2.53027 30.9441C2.53027 29.3567 2.87605 27.7064 3.50473 26.0404C3.6619 25.6946 3.77192 25.506 3.8505 25.506C3.88194 25.506 3.88194 25.5375 3.88194 25.6161C3.88194 25.7261 3.8505 25.9147 3.77192 26.1504C3.31613 27.8164 3.09609 29.0581 3.09609 29.9225C3.06465 31.1956 3.67762 31.7929 4.88783 31.7929Z" fill="#124D73"/>
<path d="M7.29271 12.3981C7.29271 12.9953 6.99409 13.8283 6.38112 14.8499C6.00391 15.4943 5.4381 16.3588 4.68368 17.4904C5.4381 18.3548 5.97248 19.1564 6.22395 19.8322C6.38112 20.3195 6.49114 20.9639 6.49114 21.6868C6.49114 21.9855 6.41256 22.3627 6.2711 22.8499C6.16109 23.3057 6.00391 23.6358 5.86246 23.8715C5.56384 24.3273 5.07661 24.7831 4.32219 25.2232C3.53634 25.7576 2.84479 26.009 2.27897 26.009C1.36738 26.009 0.927306 25.3332 0.927306 23.9658C0.927306 23.0542 1.08448 22.1584 1.3831 21.3253C1.68172 20.6024 2.16895 19.6593 2.97052 18.4177C2.29469 17.7733 1.57171 16.8774 0.785853 15.7458C0.707267 15.6358 0.518663 15.4472 0.220039 15.1485C0.0628684 14.9914 0 14.8028 0 14.5827C0 14.237 0.0314348 13.8598 0.11002 13.4197C0.220039 12.9639 0.298625 12.7753 0.330059 12.7753C0.440078 12.7753 0.785854 12.9639 1.43025 13.3725C2.0275 13.7812 2.53045 14.0955 2.82907 14.347C3.01767 14.457 3.09626 14.567 3.09626 14.567V14.5985C3.09626 14.6299 2.98624 14.677 2.71905 14.677C2.23182 14.677 1.96463 14.7085 1.96463 14.7556C1.96463 14.7871 2.04322 14.8656 2.18467 15.0542C2.78192 15.8087 3.39488 16.3745 4.03928 16.8303C4.19645 16.6102 4.71512 15.8558 5.54812 14.567C6.2711 13.4668 6.67975 12.7124 6.86835 12.2723C7.05696 11.8165 7.16698 11.6279 7.24556 11.6279C7.26128 11.6436 7.29271 11.8794 7.29271 12.3981ZM5.83103 21.6868C5.42238 20.8538 4.6994 19.9894 3.72494 19.1564C3.37917 19.5022 2.97052 20.1309 2.43614 21.0424C1.83889 22.0641 1.57171 22.7084 1.57171 23.0385C1.57171 23.4943 1.87033 23.7143 2.54616 23.7143C2.84479 23.7143 3.222 23.6043 3.70922 23.4157C4.38506 23.1171 5.02946 22.6927 5.56384 22.1741C5.78388 21.954 5.86246 21.7969 5.83103 21.6868Z" fill="#124D73"/>
<path d="M3.67793 10.072L4.27518 8.83036C4.30661 8.75177 4.35376 8.72034 4.43235 8.72034C4.51093 8.72034 4.80956 8.90894 5.4068 9.31759C5.97262 9.69479 6.27124 9.91483 6.27124 9.99342C6.27124 10.2606 6.00405 10.8264 5.51682 11.6594C5.43824 11.7694 5.35965 11.7694 5.29678 11.738C4.80955 11.3608 4.24374 10.9836 3.59934 10.5749C3.3793 11.0307 3.1907 11.4394 2.95494 11.7852C2.92351 11.8952 2.84492 11.9423 2.76634 11.8952C2.20052 11.4394 1.60328 11.0307 0.990311 10.6535C0.958877 10.6221 0.958877 10.5749 0.990311 10.4964L1.7133 8.98753C1.74473 8.90894 1.82331 8.83036 1.87047 8.83036C1.94905 8.83036 2.21624 9.01896 2.70347 9.36474C3.1907 9.64764 3.52076 9.91483 3.67793 10.072Z" fill="#124D73"/>
<path d="M26.8292 31.6043C26.7977 31.5728 26.7977 31.5257 26.8292 31.4471L27.5522 29.9383C27.5836 29.8597 27.6622 29.8282 27.7093 29.8282C27.7879 29.8282 28.118 30.0169 28.6838 30.3941C29.281 30.8027 29.5954 31.0385 29.5954 31.117C29.5954 31.3842 29.3282 31.9029 28.8095 32.7359C28.7309 32.8459 28.6995 32.8931 28.6209 32.8459C28.0394 32.3901 27.4421 31.9815 26.8292 31.6043Z" fill="#124D73"/>
<path d="M34.562 11.6437C34.562 11.9423 34.4834 12.2881 34.342 12.5867C34.1534 12.9954 33.9333 13.2311 33.6661 13.2311C33.2104 13.2311 32.9117 12.9325 32.7231 12.3195C32.5031 13.0739 32.1259 13.4826 31.5601 13.4826C31.3715 13.4826 31.1829 13.3726 31.0257 13.1368C30.8371 12.9168 30.7585 12.571 30.7585 12.1938V11.2193C30.7585 11.1407 30.6799 11.1093 30.6013 11.0622C30.4913 11.0307 30.4442 10.9521 30.4442 10.8421C30.4442 10.6221 30.5227 10.4335 30.6642 10.2449C30.8214 10.0563 30.9314 9.97768 31.01 9.97768C31.12 9.97768 31.1986 10.1663 31.1986 10.5749C31.1986 10.795 31.1671 10.9836 31.1671 11.1407C31.1357 11.2979 31.1357 11.4079 31.1357 11.5179C31.1357 11.738 31.1671 11.9737 31.2457 12.1623C31.3557 12.3824 31.5129 12.5396 31.6544 12.5396C31.8744 12.5396 32.063 12.4295 32.2516 12.2409C32.4402 12.0523 32.5502 11.8323 32.5502 11.5651C32.5502 11.4079 32.4717 11.1879 32.3931 10.8107C32.283 10.4649 32.2359 10.2449 32.2359 10.1663C32.2359 10.0877 32.2673 9.97768 32.3459 9.78907C32.4245 9.6319 32.5031 9.56904 32.5345 9.56904C32.6131 9.56904 32.6917 9.78907 32.8017 10.2449C32.9117 10.7321 32.9903 11.0779 32.9903 11.2979C32.9903 11.9423 33.2104 12.2724 33.7133 12.2724C33.9333 12.2724 34.0905 12.1623 34.1219 11.9266C33.7133 11.1722 33.4775 10.6064 33.4775 10.1977C33.4775 9.97768 33.509 9.78907 33.6661 9.60047C33.7447 9.49045 33.7762 9.41187 33.8233 9.41187C33.8548 9.41187 33.9019 9.49045 33.9019 9.6319C33.9333 9.82051 33.9805 10.0091 34.0119 10.1663C34.0119 10.1663 34.1219 10.4335 34.3105 10.9521C34.4992 11.2665 34.562 11.5022 34.562 11.6437Z" fill="#124D73"/>
<path d="M19.9767 9.34904C26.3578 6.92861 32.8332 4.52391 39.4816 2.02489C39.5916 1.99346 39.6702 1.94631 39.6702 1.99346C39.7016 1.99346 39.7016 2.07205 39.6702 2.18206C39.513 2.52784 39.403 2.71644 39.3244 2.77931C33.2576 5.04257 26.6564 7.57301 19.5995 10.4021C19.6624 10.072 19.7881 9.72625 19.9767 9.34904Z" fill="#124D73"/>
<path d="M3.89799 28.0522C5.40683 27.5179 7.02569 26.9206 8.77028 26.3234C8.92745 26.2919 8.95888 26.2448 8.99032 26.2919C9.02175 26.2919 9.02175 26.3705 8.95888 26.4805C8.84886 26.8263 8.73884 27.0149 8.66026 27.0778C7.15142 27.6122 5.45398 28.2408 3.5365 29.121C3.59937 28.7752 3.70939 28.4294 3.89799 28.0522Z" fill="#124D73"/>
<path d="M16.8017 13.7969C17.2575 13.7969 17.6348 14.0169 17.9648 14.5513C18.3106 15.0385 18.5621 15.7144 18.6878 16.5474C18.7192 16.626 18.7192 16.6574 18.7192 16.7045H18.7507C18.7507 16.6731 18.7821 16.626 18.7821 16.5474C18.8607 16.0601 19.0493 15.3057 19.3165 14.3156C19.6151 13.6397 19.9137 13.2939 20.2595 13.2939C20.4481 13.2939 20.6367 13.404 20.7939 13.6397C20.951 13.8598 21.0139 14.0169 21.0139 14.1741C21.0139 14.2527 21.0139 14.3941 20.9353 14.5513C20.8567 14.7713 20.7782 14.8971 20.7153 14.8971C20.6839 14.8971 20.6053 14.7871 20.4481 14.6299C20.3381 14.4727 20.1809 14.4099 20.0395 14.4099C19.7408 14.4099 19.4736 15.1328 19.2065 16.5631C19.0964 17.2075 18.9393 17.6633 18.8292 17.9148C18.7192 18.0719 18.6406 18.1819 18.5621 18.1819C18.4835 18.1819 18.4835 18.0719 18.452 17.9148C18.4835 17.6476 18.342 17.1603 18.0434 16.4374C17.7448 15.6829 17.5562 15.3372 17.399 15.3372C17.3204 15.3372 17.289 15.3372 17.2418 15.4157C17.2104 15.4472 17.1632 15.4943 17.0532 15.4943C16.896 15.4943 16.7546 15.3843 16.5188 15.1957C16.2988 15.0071 16.2202 14.8499 16.2202 14.7399C16.2202 14.7085 16.2988 14.5199 16.4874 14.2055C16.6446 13.9069 16.7703 13.7969 16.8017 13.7969Z" fill="#124D73"/>
</svg>
