<svg width="48" height="28" viewBox="0 0 48 28" fill="none" xmlns="http://www.w3.org/2000/svg">
<path d="M9.60653 9.99017L10.0113 9.14389C10.0481 9.0703 10.0849 9.03351 10.1217 9.03351C10.1952 9.03351 10.416 9.18069 10.8208 9.47504C11.2255 9.7694 11.4463 9.91658 11.4463 9.95337C11.4463 10.1373 11.2623 10.5053 10.8943 11.094C10.8575 11.1676 10.8208 11.1676 10.7472 11.1308C10.3792 10.8732 9.97448 10.5789 9.53294 10.3213C9.38577 10.6525 9.23859 10.9468 9.09141 11.1676C9.05462 11.2412 9.01782 11.278 8.94423 11.2412C8.53949 10.91 8.13475 10.6157 7.69322 10.3581C7.65642 10.3581 7.65642 10.3213 7.69322 10.2477L8.24513 9.21748C8.28193 9.14389 8.31873 9.1071 8.35552 9.1071C8.39231 9.1071 8.57629 9.21748 8.94423 9.43825C9.27538 9.69581 9.49615 9.87978 9.60653 9.99017Z" fill="#124D73"/>
<path d="M11.5568 15.4727C11.1521 14.884 10.7473 14.5896 10.2322 14.5896C9.86425 14.5896 9.71708 14.7 9.71708 14.9575C9.71708 15.2151 9.93784 15.3623 10.3794 15.4359C10.6369 15.4359 11.0049 15.4359 11.5568 15.4727ZM0.0769069 18.0851C0.187291 17.4596 0.334469 16.9445 0.481647 16.5029C0.555236 16.3557 0.592031 16.2822 0.66562 16.2822C0.702414 16.2822 0.739208 16.3557 0.702414 16.5397C0.444852 17.9011 0.334469 18.6738 0.334469 18.821C0.334469 19.6305 0.628826 20.4031 1.18074 21.0654C1.91663 21.9853 2.98368 22.4268 4.41866 22.4268C5.55929 22.4268 6.8471 22.0957 8.24529 21.3966C9.31234 20.8815 10.3794 20.2192 11.4096 19.4097C12.2559 18.7474 12.7342 18.2691 12.8446 18.0115C12.8446 17.6803 12.6606 17.386 12.2927 17.202C11.9615 17.018 11.5936 16.9077 11.1153 16.9077H10.0482C9.64349 16.9077 9.34913 16.7973 9.09157 16.5029C8.8708 16.2454 8.72362 15.9142 8.72362 15.5095C8.72362 14.9575 8.9076 14.4056 9.31234 13.8169C9.68028 13.265 10.085 12.9706 10.4898 12.9706C11.1521 12.9706 11.7776 13.3386 12.3663 14.1113C12.9918 14.9208 13.2861 15.9142 13.2861 17.018C13.2861 18.1219 12.9918 18.9682 12.4399 19.6305C11.704 20.5135 10.6737 21.3966 9.34913 22.2429C7.5462 23.4203 5.89044 24.009 4.41866 24.009C2.7997 24.009 1.62228 23.4571 0.886386 22.3532C0.297674 21.5438 0.0401123 20.4767 0.0401123 19.1521C-0.0334768 18.821 0.00331785 18.453 0.0769069 18.0851Z" fill="#124D73"/>
<path d="M15.2366 19.8143C15.3838 20.5502 15.6045 21.0654 15.9725 21.3229C16.1565 21.4333 16.4508 21.5069 16.8556 21.5069V23.1259C16.2668 23.1259 15.8253 23.0155 15.4942 22.7579C15.0526 22.4268 14.7215 21.8012 14.5743 20.8446C14.4639 20.2559 14.3903 18.6001 14.2799 15.8037C14.2064 12.7498 14.096 10.9101 14.0592 10.211C13.9488 9.10714 13.728 8.04009 13.3969 7.04664C13.3969 6.78908 13.5073 6.38434 13.728 5.86921C13.7648 5.72204 13.8016 5.68524 13.8384 5.68524C13.8752 5.68524 13.912 5.72204 13.9856 5.83242C14.3167 6.49472 14.5743 7.63535 14.7583 9.25431C14.8687 10.2478 14.979 12.2347 15.0526 15.215C15.1262 18.0482 15.163 19.5568 15.2366 19.8143Z" fill="#124D73"/>
<path d="M16.745 10.7996C18.2536 10.2477 19.8357 9.69581 21.5283 9.0703C21.6019 9.03351 21.6754 9.03351 21.6754 9.03351C21.7122 9.0703 21.6754 9.1071 21.6754 9.18069C21.5651 9.40145 21.4915 9.54863 21.4547 9.58543C20.0565 10.1005 18.4007 10.7261 16.4874 11.5355C16.5242 11.3148 16.6346 11.0572 16.745 10.7996Z" fill="#124D73"/>
<path d="M19.6517 14.4423L20.0564 13.596C20.0932 13.5225 20.13 13.4857 20.1668 13.4857C20.2404 13.4857 20.4612 13.6328 20.8659 13.9272C21.2707 14.2215 21.4914 14.3687 21.4914 14.4055C21.4914 14.5895 21.3075 14.9574 20.9395 15.5462C20.9027 15.6197 20.8659 15.6197 20.7923 15.5829C20.4244 15.3254 20.0196 15.031 19.5781 14.7735C19.4309 15.1046 19.2837 15.399 19.1366 15.6197C19.0998 15.6933 19.063 15.7301 18.9894 15.6933C18.5847 15.3622 18.1799 15.0678 17.7384 14.8103C17.7016 14.8103 17.7016 14.7735 17.7384 14.6999L18.2903 13.6696C18.3271 13.596 18.3639 13.5592 18.4007 13.5592C18.4375 13.5592 18.6215 13.6696 18.9894 13.8904C19.3573 14.1112 19.5413 14.3319 19.6517 14.4423Z" fill="#124D73"/>
<path d="M21.7855 22.8315C20.4241 22.8315 19.4307 22.6475 18.7684 22.2428C17.9957 22.8315 17.3334 23.0891 16.7447 23.0891V21.5069C17.1494 21.5069 17.5174 21.4333 17.8853 21.2494C17.7381 20.955 17.6278 20.5135 17.6278 19.9983C17.6278 19.2624 17.9221 18.4898 18.474 17.7171C18.9892 17.018 19.4307 16.6868 19.7986 16.6868C20.1298 16.6868 20.4241 16.9444 20.6081 17.4595C20.7553 17.8643 20.8289 18.269 20.8289 18.7105C20.8289 19.7408 20.6081 20.5503 20.1298 21.139C20.4241 21.2494 20.9761 21.2861 21.7855 21.2861V22.8315ZM20.2402 19.7408C20.2402 19.52 20.1666 19.2257 19.9826 18.8209C19.7986 18.4162 19.6515 18.1954 19.5043 18.1954C19.3203 18.1954 19.0627 18.3794 18.7316 18.7473C18.4004 19.1153 18.1429 19.4464 18.0325 19.7408C18.0693 19.888 18.2165 20.0719 18.4004 20.2927C18.5844 20.4767 18.8052 20.6238 19.026 20.6974C19.6147 20.3663 20.0194 20.0719 20.2402 19.7408Z" fill="#124D73"/>
<path d="M27.121 25.5543C28.6296 25.0024 30.2117 24.4137 31.9043 23.8249C31.9779 23.7881 32.0515 23.7881 32.0515 23.7881C32.0883 23.8249 32.0515 23.8617 32.0515 23.9353C31.9411 24.1561 31.8675 24.3033 31.8307 24.3401C30.4325 24.8552 28.7767 25.4807 26.8634 26.2902C26.9002 26.0694 26.9738 25.8118 27.121 25.5543Z" fill="#124D73"/>
<path d="M30.5429 16.0981L30.9476 15.2887C30.9844 15.2151 31.0212 15.1783 31.058 15.1783C31.1316 15.1783 31.3524 15.3255 31.7571 15.583C32.1618 15.8406 32.3826 16.0246 32.3826 16.0981C32.3826 16.2821 32.1986 16.6501 31.8307 17.2388C31.7939 17.3124 31.7571 17.3124 31.6835 17.2756C31.3156 17.018 30.9108 16.7237 30.4693 16.4293C30.3221 16.7604 30.1749 17.0548 30.0278 17.2756C29.991 17.3492 29.9542 17.386 29.8806 17.3492C29.4758 17.0548 29.0711 16.7604 28.6296 16.4661C28.5928 16.4661 28.5928 16.4293 28.6296 16.3925L29.1815 15.3255C29.2183 15.2519 29.2551 15.2151 29.2919 15.2151C29.3287 15.2151 29.5126 15.3255 29.8806 15.583C30.2117 15.8038 30.4325 15.9878 30.5429 16.0981Z" fill="#124D73"/>
<path d="M29.1077 14.4424C29.0709 14.4424 29.0709 14.4056 29.1077 14.3688L29.6228 13.3017C29.6596 13.2281 29.6964 13.1913 29.7332 13.1913C29.8068 13.1913 30.0276 13.3385 30.4323 13.5961C30.8371 13.8536 31.0578 14.0376 31.0578 14.1112C31.0578 14.2952 30.8738 14.6631 30.5059 15.2518C30.4691 15.3254 30.4323 15.3254 30.3587 15.2886C29.954 14.9943 29.5492 14.6999 29.1077 14.4424Z" fill="#124D73"/>
<path d="M27.3785 20.955C28.0408 20.955 28.6663 20.6974 29.2918 20.2191C29.3286 20.1823 29.5862 19.9248 30.0277 19.4464C30.4324 19.0049 30.6532 18.7841 30.69 18.7841C30.8004 18.7841 30.8004 18.8945 30.7268 19.0785C30.6532 19.3361 30.5796 19.52 30.5796 19.5936C30.5796 19.7776 30.6532 19.9984 30.8004 20.2191C31.0211 20.5135 31.2787 20.6974 31.6099 20.6974C32.4929 20.6974 33.2656 20.0719 33.8911 18.7841C33.9647 18.637 34.0383 18.6002 34.1119 18.6002C34.1855 18.6002 34.2223 18.6737 34.2223 18.7841C34.2223 18.8209 34.2223 18.8945 34.2223 19.0049C34.2223 19.1153 34.1855 19.1889 34.1855 19.2257C34.1855 19.5936 34.2959 19.888 34.5534 20.1087C34.7742 20.3295 35.0685 20.4399 35.4365 20.4399V22.0588C34.627 22.0588 34.0383 21.5437 33.6703 20.5135C33.6336 20.3663 33.56 20.3663 33.5232 20.5135C33.0448 21.7277 32.4193 22.3164 31.5731 22.3164C30.7268 22.3164 30.2117 21.7645 30.0277 20.6607C30.0277 20.5871 29.9909 20.5135 29.9909 20.5135C29.9541 20.5135 29.9541 20.5503 29.8805 20.6607C29.6597 20.9918 29.3654 21.3597 28.9606 21.6909C28.2983 22.2796 27.6728 22.5372 27.0473 22.5372C26.3482 22.5372 25.8699 22.3164 25.5755 21.9117C25.3916 21.6541 25.318 21.2494 25.2812 20.7342C25.2812 20.6974 25.2444 20.6607 25.2076 20.6607C25.134 20.6607 25.0236 20.6974 24.95 20.8078C24.3981 21.4333 24.067 21.8381 23.9198 21.9485C23.2207 22.5372 22.5216 22.8315 21.7489 22.8315V21.2126C22.5584 21.2126 23.2207 20.9918 23.8094 20.5871C24.067 20.4031 24.5821 19.9248 25.4284 19.0785C25.5388 18.9681 25.6123 18.9313 25.7227 18.9313C25.8699 18.9313 25.9067 19.0417 25.8699 19.2257C25.7963 19.4096 25.7595 19.5936 25.7595 19.7776C25.7595 20.1455 25.9067 20.4399 26.2378 20.6239C26.569 20.8446 26.9369 20.955 27.3785 20.955Z" fill="#124D73"/>
<path d="M33.0816 4.02946C33.0816 4.13984 32.9344 4.3974 32.6401 4.80214C32.3089 5.28047 31.9778 5.61162 31.6834 5.7956C31.4995 5.94277 30.8739 6.12675 29.8069 6.4211C29.6229 6.4579 29.5125 6.4579 29.5125 6.4579C29.5493 6.4211 29.5861 6.38431 29.7333 6.27392C29.8805 6.16354 30.2484 5.94277 30.8739 5.61162C31.4627 5.28047 31.7938 5.0965 31.9042 4.98611C31.941 4.94932 31.941 4.94932 31.941 4.91253C31.941 4.76535 31.4259 4.72855 30.3588 4.72855C30.3588 4.72855 30.1748 4.72855 29.7701 4.72855C29.5493 4.72855 29.439 4.72855 29.439 4.69176C29.439 4.65497 29.4758 4.61817 29.5125 4.50779L29.8805 3.88228C29.9909 3.69831 30.2116 3.58792 30.506 3.51433C30.6164 3.47754 30.8372 3.47754 31.2419 3.47754C32.4561 3.62472 33.0816 3.7351 33.0816 4.02946Z" fill="#124D73"/>
<path d="M32.3826 10.8733C32.3458 10.8365 32.3458 10.7997 32.3826 10.7629L32.8977 9.69583C32.9345 9.62224 32.9713 9.58545 33.0081 9.58545C33.0817 9.58545 33.3024 9.73263 33.7072 10.027C34.1119 10.3213 34.3327 10.4685 34.3327 10.5421C34.3327 10.7261 34.1487 11.094 33.7808 11.6827C33.744 11.7563 33.7072 11.7931 33.6336 11.7563C33.2289 11.4252 32.8241 11.1308 32.3826 10.8733Z" fill="#124D73"/>
<path d="M36.8716 19.8144C36.8716 19.6672 36.7244 19.3361 36.5036 18.8577C36.1725 18.2322 35.9517 17.7171 35.8413 17.3124C35.547 16.4661 35.363 15.6934 35.2894 14.9943C35.2526 14.6999 35.2158 14.5528 35.2158 14.4792C35.179 14.332 35.1054 14.1848 34.9951 14.0376C35.0687 13.7801 35.179 13.4121 35.363 13.0074C35.3998 12.8602 35.4734 12.8234 35.5102 12.8234C35.547 12.8234 35.6206 12.897 35.6942 13.0074C36.1357 13.5961 36.4668 14.1112 36.7612 14.5896C36.8716 14.7735 36.9452 14.9207 36.9452 14.9943C36.9452 15.0679 36.9084 15.0679 36.8716 15.0679C36.7612 15.0679 36.5772 14.9943 36.2829 14.8103C36.2461 14.8103 36.2461 14.8471 36.2093 14.8471C36.3197 15.2151 36.4668 15.6934 36.6876 16.3189C37.1659 17.7171 37.3867 18.7106 37.3867 19.3361C37.3867 19.888 37.2395 20.4399 36.982 21.0286C36.614 21.7645 36.0989 22.1324 35.4734 22.1324V20.5135C36.2093 20.4767 36.6876 20.2559 36.8716 19.8144Z" fill="#124D73"/>
<path d="M39.8151 26.9157C41.3237 26.3638 42.9058 25.7751 44.5984 25.1864C44.672 25.1496 44.7456 25.1496 44.7456 25.1496C44.7824 25.1864 44.7456 25.2232 44.7456 25.2968C44.6352 25.5175 44.5616 25.6647 44.5248 25.7015C43.1266 26.2166 41.4709 26.8421 39.5575 27.6516C39.5943 27.4309 39.7047 27.1733 39.8151 26.9157Z" fill="#124D73"/>
<path d="M43.5678 24.1929C43.531 24.4137 43.4574 24.5609 43.3838 24.6344C43.0895 24.8184 42.4272 25.2599 41.4337 25.9222C41.3969 25.959 41.3233 25.9958 41.2865 26.0326C41.2865 26.0326 41.2497 25.9958 41.2497 25.959L41.3233 25.5911C41.3233 25.5175 41.5073 25.3703 41.8384 25.1128C41.4337 24.9656 41.2497 24.7816 41.2497 24.5976C41.2497 24.3769 41.3601 24.1193 41.5809 23.8618C41.9856 23.3834 42.3168 23.1627 42.5743 23.1627C42.7951 23.1627 42.9423 23.3098 42.9423 23.5674C42.9423 23.7146 42.8687 23.8985 42.7583 24.1193C42.7215 24.1561 42.7215 24.1561 42.6847 24.1193C42.6111 23.9353 42.5007 23.8618 42.3904 23.8618C42.3168 23.8618 42.1696 23.8986 42.0592 24.0089C41.912 24.1193 41.8752 24.1929 41.8752 24.2665C41.8752 24.3401 41.9488 24.4505 42.1328 24.5241C42.3168 24.5976 42.4271 24.6344 42.5007 24.6344C42.5743 24.6344 42.7583 24.5609 42.9791 24.4505C43.1262 24.3401 43.2734 24.2665 43.4574 24.1561C43.6046 24.0825 43.6782 24.0457 43.715 24.0825C43.5678 24.0089 43.5678 24.0825 43.5678 24.1929Z" fill="#124D73"/>
<path d="M42.4273 1.4907C42.4273 1.60108 42.2801 1.85864 41.9858 2.26338C41.6546 2.74171 41.3234 3.07287 41.0291 3.25684C40.8451 3.40402 40.2196 3.58799 39.1526 3.88234C38.9686 3.91914 38.8582 3.91914 38.8582 3.91914C38.895 3.88234 38.9318 3.84555 39.079 3.73517C39.2262 3.62478 39.5941 3.40402 40.2196 3.07287C40.8083 2.74172 41.1395 2.55774 41.2499 2.44736C41.2867 2.41056 41.2867 2.41056 41.2867 2.37377C41.2867 2.22659 40.7715 2.1898 39.7045 2.1898C39.7045 2.1898 39.5205 2.1898 39.1158 2.1898C38.895 2.1898 38.7846 2.1898 38.7846 2.153C38.7846 2.11621 38.8214 2.07941 38.8582 1.96903L39.2262 1.34352C39.3365 1.15955 39.5573 1.04917 39.8517 0.975577C39.9621 0.938783 40.1828 0.938782 40.5876 0.938782C41.8018 1.08596 42.4273 1.23314 42.4273 1.4907Z" fill="#124D73"/>
<path d="M42.5746 18.4897C42.4642 19.4464 42.3906 19.9615 42.317 19.9615C42.2802 19.9615 42.2066 19.5568 42.0594 18.7473C41.8755 17.4227 40.882 15.9141 39.1159 14.2216C38.38 13.4857 37.6073 12.7866 36.8346 12.0507C35.9884 11.2412 35.3628 10.5789 34.9213 10.0638C34.627 9.69584 34.2958 9.21751 34.0014 8.70238C33.8175 8.37123 33.5967 8.07688 33.4127 7.74573C33.2656 7.52496 33.1184 7.37778 32.9712 7.30419C32.8976 7.2674 32.8608 7.19381 32.8608 7.04663V5.97959C32.8608 5.75882 32.8976 5.64844 32.9712 5.64844C33.008 5.64844 33.1184 5.68523 33.2656 5.79562L35.326 7.37778C35.4732 7.48816 35.5836 7.59855 35.5836 7.63534C35.5836 7.67214 35.51 7.70893 35.3628 7.70893C35.2157 7.70893 34.9213 7.67214 34.5166 7.56175C34.7741 8.07688 35.5468 8.95995 36.7978 10.2478C37.7545 11.2044 38.7111 12.1611 39.6678 13.1177C41.5811 15.0678 42.5378 16.7236 42.5378 18.085C42.6114 18.2322 42.6114 18.3793 42.5746 18.4897Z" fill="#124D73"/>
<path d="M42.2804 7.0834C42.2804 6.86264 42.2436 6.60507 42.1332 6.31071C42.0228 6.01636 41.9861 5.86918 41.9861 5.83239C41.9861 5.79559 42.0596 5.57482 42.17 5.17008C42.2804 4.80214 42.3172 4.58137 42.354 4.54458C42.3908 4.4342 42.4276 4.3974 42.4644 4.3974C42.5012 4.3974 42.538 4.4342 42.5748 4.54458C42.7219 4.76535 42.9427 5.24367 43.2739 5.94277C43.6418 6.71545 43.8626 7.26737 43.9362 7.52494C43.973 7.67211 44.0098 7.81929 44.0098 7.89288C44.0098 7.96647 44.0097 8.00327 43.973 8.00327C43.8626 8.00327 43.6418 7.81929 43.3107 7.45135C43.2739 7.41455 43.2371 7.45135 43.2371 7.56173C43.2371 8.00326 43.3842 9.43825 43.6786 11.8667C43.973 14.2951 44.1201 15.9509 44.1201 16.7972C44.1201 18.5633 43.7154 20.0351 42.9059 21.2125C42.2436 22.0956 41.5077 22.7579 40.6982 23.1258C40.3671 23.273 39.8152 23.457 39.0425 23.6409C38.2698 23.8617 37.6811 23.9721 37.2763 24.0089C37.1292 24.0457 37.0556 24.0089 37.0556 23.9721C37.0556 23.9353 37.1292 23.8617 37.2763 23.7881C38.0122 23.3834 39.1897 22.6843 40.8086 21.6908C41.3238 21.3597 41.8389 20.9181 42.354 20.3662C43.0531 19.6303 43.421 18.968 43.421 18.4529C43.421 17.3859 43.2371 15.3254 42.8691 12.2714C42.4644 9.18069 42.2804 7.45135 42.2804 7.0834Z" fill="#124D73"/>
<path d="M43.0531 2.11618C44.5617 1.56426 46.1438 1.01234 47.8364 0.386831C47.91 0.350036 47.9836 0.350037 47.9836 0.350037C48.0204 0.386831 47.9836 0.423626 47.9836 0.497215C47.8732 0.717983 47.7996 0.86516 47.7628 0.901955C46.3646 1.41708 44.7089 2.04259 42.7955 2.85207C42.8323 2.6313 42.9427 2.41053 43.0531 2.11618Z" fill="#124D73"/>
<path d="M46.6955 3.33042C46.6587 3.55118 46.5851 3.69836 46.5115 3.77195C46.2172 3.95593 45.5549 4.39746 44.5614 5.05976C44.5246 5.09656 44.451 5.13335 44.4142 5.17014C44.4142 5.17014 44.3774 5.13335 44.3774 5.09656L44.451 4.72861C44.451 4.65502 44.635 4.50784 44.9662 4.25028C44.5614 4.1031 44.3774 3.91913 44.3774 3.73516C44.3774 3.51439 44.4878 3.25683 44.7086 2.99926C45.1133 2.52094 45.4445 2.30017 45.702 2.30017C45.9228 2.30017 46.07 2.44735 46.07 2.70491C46.07 2.85209 45.9964 3.03606 45.886 3.25683C45.8492 3.29362 45.8492 3.29362 45.8124 3.25683C45.7388 3.07286 45.6285 2.99926 45.5181 2.99926C45.4445 2.99926 45.2973 3.03606 45.1869 3.14644C45.0765 3.25683 45.0029 3.33042 45.0029 3.40401C45.0029 3.4776 45.0765 3.58798 45.2605 3.66157C45.4445 3.73516 45.5549 3.77195 45.6285 3.77195C45.702 3.77195 45.886 3.69836 46.1068 3.58798C46.254 3.4776 46.4011 3.40401 46.5851 3.29362C46.7323 3.22003 46.8059 3.18324 46.8427 3.22003C46.6955 3.18324 46.6955 3.25683 46.6955 3.33042Z" fill="#124D73"/>
<path d="M45.15 7.92975C45.15 7.41462 45.0764 6.97309 44.8925 6.64194C44.8925 6.45796 45.0396 6.01643 45.334 5.28054C45.3708 5.20695 45.4076 5.13336 45.4444 5.13336C45.4812 5.13336 45.518 5.17016 45.5548 5.28054C45.6651 5.46451 45.8491 5.97964 46.1435 6.78912C46.4746 7.63539 46.6586 8.18731 46.7322 8.37128C46.769 8.51846 46.8058 8.62884 46.8058 8.73923C46.8058 8.95999 46.585 8.81281 46.1067 8.29769C46.0699 8.2241 46.0331 8.2609 46.0331 8.40808C46.0331 8.44487 46.1435 10.1006 46.401 13.3753C46.6218 16.6501 46.769 18.4898 46.769 18.8945C46.769 20.1455 46.585 21.2494 46.2171 22.206C46.1435 22.39 46.0699 22.5372 46.0331 22.6108C45.9595 22.7579 45.9227 22.7579 45.8859 22.6844C45.8491 22.574 45.8859 22.39 45.8859 22.0588C45.9595 21.6173 45.9595 21.139 45.9595 20.5503C45.9595 20.0351 45.8123 17.9011 45.5548 14.148C45.2972 10.4686 45.15 8.37128 45.15 7.92975Z" fill="#124D73"/>
</svg>
