<svg width="49" height="49" viewBox="0 0 49 49" fill="none" xmlns="http://www.w3.org/2000/svg">
<path d="M44.4119 11.8848C44.4119 11.1087 44.2987 10.4942 44.0562 9.97681C44.0562 9.70193 44.2502 9.03897 44.7191 8.03645C44.7514 7.92326 44.8 7.84241 44.8323 7.84241C44.9131 7.84241 44.9455 7.92326 45.0263 8.03645C45.1395 8.31133 45.4144 9.03897 45.8833 10.2517C46.3846 11.5291 46.6595 12.3053 46.7403 12.6125C46.8212 12.8065 46.8212 13.0006 46.8212 13.0814C46.8212 13.4371 46.514 13.2431 45.8187 12.467C45.7378 12.3538 45.7055 12.4346 45.7055 12.6287C45.7055 12.7095 45.8995 15.1188 46.2552 19.9212C46.611 24.6913 46.7565 27.3755 46.7565 27.9899C46.7565 29.8171 46.4816 31.4502 45.948 32.8408C45.7863 33.1157 45.7216 33.3097 45.6408 33.4553C45.5276 33.6493 45.4791 33.6493 45.4467 33.5361C45.4144 33.3744 45.4467 33.0672 45.4791 32.6468C45.5599 31.9838 45.5923 31.2562 45.5923 30.4315C45.5923 29.6554 45.3982 26.5508 45.0102 21.0854C44.6059 15.6039 44.4119 12.5316 44.4119 11.8848Z" fill="#124D73"/>
<path d="M42.3263 26.001C42.3263 27.3593 42.0191 28.4103 41.437 29.1865C40.9357 29.8494 40.3536 30.189 39.6907 30.189V27.8282C40.58 27.8282 41.2106 27.6018 41.4693 27.1329C41.4693 26.9065 41.3076 26.5185 41.0004 26.001C40.8387 25.7747 40.8064 25.5321 40.8064 25.3057C40.8064 25.1925 40.9681 24.6428 41.2268 23.6402C41.3076 23.4785 41.3885 23.3654 41.4208 23.3654C41.5017 23.3654 41.6149 23.5271 41.7281 23.7534C42.1323 24.5619 42.3263 25.3057 42.3263 26.001Z" fill="#124D73"/>
<path d="M25.0889 36.3658C25.0889 34.7003 25.4446 33.0348 26.0914 31.2885C26.2531 30.9328 26.3663 30.7387 26.4471 30.7387C26.4795 30.7387 26.4795 30.7711 26.4795 30.8519C26.4795 30.9651 26.4471 31.1592 26.3663 31.4017C25.8974 33.1157 25.671 34.3931 25.671 35.2824C25.671 36.0586 25.8974 36.8024 26.4148 37.4492C26.9969 38.3062 27.773 38.6943 28.6624 38.6943C29.7458 38.6943 31.104 38.2738 32.7048 37.4168C33.9822 36.7215 35.2273 35.8646 36.5047 34.862C37.5881 33.9242 38.251 33.3097 38.4127 32.954C38.4127 31.6281 38.0247 30.2375 37.2808 28.766C37.1192 28.4912 37.0545 28.2648 37.0545 28.1031C37.0545 27.9899 37.2162 27.4078 37.5234 26.4376C37.5557 26.2436 37.6366 26.1304 37.7174 26.1304C37.7983 26.1304 37.8791 26.2921 37.9923 26.5184C38.2187 27.0197 38.3804 27.2946 38.4936 27.3754C38.72 27.6827 39.1565 27.7959 39.6901 27.7959V30.1566C39.4153 30.1566 39.2212 30.1566 39.108 30.0758C39.108 32.954 38.6876 34.8944 37.8306 35.8646C36.9736 36.9156 35.6962 37.9666 34.0631 39.0015C32.0095 40.3274 30.2147 40.9742 28.7432 40.9742C27.385 40.9742 26.3824 40.3921 25.7518 39.1955C25.2829 38.387 25.0889 37.4168 25.0889 36.3658Z" fill="#124D73"/>
<path d="M33.352 12.1113C33.352 11.3351 33.2388 10.7207 32.9962 10.2033C32.9962 9.92837 33.1903 9.26541 33.6592 8.26288C33.6915 8.1497 33.74 8.06885 33.7724 8.06885C33.8532 8.06885 33.8856 8.1497 33.9664 8.26288C34.0796 8.53777 34.3545 9.26541 34.8234 10.4781C35.3247 11.7555 35.5995 12.5317 35.6804 12.8389C35.7612 13.033 35.7612 13.227 35.7612 13.3078C35.7612 13.6636 35.454 13.4695 34.7587 12.6934C34.6779 12.5802 34.6455 12.6611 34.6455 12.8551C34.6455 12.9359 34.8396 15.3452 35.1953 20.1476C35.551 24.9177 35.6966 27.6019 35.6966 28.2163C35.6966 30.0435 35.4217 31.6767 34.8881 33.0673C34.7264 33.3421 34.6617 33.5362 34.5809 33.6817C34.4677 33.8757 34.4192 33.8757 34.3868 33.7626C34.3545 33.6009 34.3868 33.2936 34.4192 32.8732C34.5 32.2103 34.5323 31.4826 34.5323 30.658C34.5323 29.8818 34.3383 26.7772 33.9502 21.3119C33.546 15.8303 33.352 12.7742 33.352 12.1113Z" fill="#124D73"/>
<path d="M31.9292 21.3117C31.9292 22.201 31.7352 22.9448 31.4279 23.5269C31.2016 23.915 30.9267 24.1899 30.6841 24.3354C30.2961 24.5295 29.7463 24.6427 28.9701 24.6427C27.7736 24.6427 26.5608 24.4486 25.3966 24.0929C24.8145 24.5618 24.1516 24.9499 23.4239 25.2571C22.6154 25.6128 21.9525 25.8069 21.3704 25.8069V23.4461C22.1465 23.4461 22.8095 23.2844 23.3431 23.058C23.0358 22.4759 22.8741 21.8938 22.8741 21.3117C22.8741 20.1475 23.1005 19.0964 23.618 18.1748C23.9737 17.4795 24.3941 16.8974 24.9439 16.4284C24.863 16.008 24.9115 15.4259 25.0571 14.6821C25.0894 14.4557 25.1379 14.3749 25.2188 14.3749C25.2996 14.3749 25.4128 14.4072 25.6392 14.5366L27.8868 15.6685C28.1617 15.8302 28.2748 15.9433 28.2748 16.0565C28.2748 16.2182 28.0808 16.2829 27.6927 16.2829C27.531 16.2829 27.337 16.2506 27.143 16.2021C27.8868 16.8974 28.5821 17.3986 29.245 17.7544C30.102 18.2233 30.6356 18.6113 30.9105 18.8377C31.5735 19.4845 31.9292 20.293 31.9292 21.3117ZM30.9105 21.2632C30.7488 21.0368 30.2961 20.7134 29.5199 20.2607C28.7114 19.7917 28.1293 19.4037 27.8059 19.0964C27.8059 19.9534 27.6119 20.956 27.143 22.1687C28.0808 22.4436 28.9216 22.5568 29.6978 22.5568C30.7003 22.5568 31.2177 22.3627 31.2177 22.0555C31.2177 21.8453 31.1045 21.6189 30.9105 21.2632ZM27.0298 19.9858C27.0298 19.4845 26.8357 18.9833 26.48 18.4011C26.1728 17.8999 25.8979 17.625 25.6715 17.625C25.2834 17.625 24.863 17.9322 24.3133 18.5628C23.7635 19.1773 23.5371 19.7594 23.5371 20.2768C23.5371 20.6972 23.7635 21.053 24.2809 21.3602C24.669 21.6351 25.0894 21.7806 25.6068 21.8615C26.5285 21.2632 27.0298 20.6487 27.0298 19.9858Z" fill="#124D73"/>
<path d="M17.7642 20.0668C17.9906 20.0668 18.2331 20.374 18.4595 20.9238C18.8152 21.7323 19.0739 22.282 19.3488 22.5569C19.8501 23.139 20.513 23.4462 21.37 23.4139V25.8232C20.3675 25.8232 19.5914 25.516 18.9608 24.9339C18.6535 24.6266 18.2978 24.0769 17.9906 23.3007C17.7157 22.7509 17.4893 22.4437 17.2953 22.4437C16.988 22.4437 16.5515 22.7509 15.9694 23.3816C15.3064 24.0445 14.9992 24.5781 14.9992 25.047C14.9992 25.4675 15.1932 25.8555 15.5813 26.2921C15.5813 26.4053 15.4681 26.5185 15.2255 26.6479C14.9507 26.761 14.7566 26.8419 14.6111 26.8419C14.5302 26.8419 14.4979 26.8096 14.4979 26.8096C14.3039 26.2274 14.223 25.7585 14.223 25.3704C14.3847 23.9313 14.8375 22.6539 15.6945 21.522C16.4383 20.568 17.1336 20.0668 17.7642 20.0668Z" fill="#124D73"/>
<path d="M3.04975 36.5921C2.24126 36.5921 1.5298 36.204 0.947685 35.5087C0.333235 34.7649 0.0583496 33.8756 0.0583496 32.8246C0.0583496 31.3531 0.64046 29.4451 1.83702 27.1166C1.95021 26.8903 2.0634 26.7609 2.14424 26.7609C2.17658 26.7609 2.17658 26.7609 2.17658 26.8418C2.17658 27.0681 1.9017 27.8928 1.40044 29.2834C0.850665 30.674 0.62429 31.8059 0.62429 32.6144C0.62429 33.2288 0.737477 33.7462 1.0447 34.1343C1.35193 34.5224 1.78851 34.7164 2.32211 34.7164C3.21145 34.7164 4.06844 34.4092 4.84459 33.8271C5.81477 32.9701 6.78496 32.1616 7.75514 31.3046C9.33978 30.0272 10.8597 29.0085 12.2988 28.2809C13.3822 27.7796 14.2069 27.5047 14.7405 27.5047C14.6596 27.343 14.5788 27.1166 14.4656 26.7286C14.4656 26.6154 14.6273 26.5022 14.9668 26.3728C15.2741 26.2111 15.5166 26.1788 15.5813 26.2596C15.6945 26.486 16.0017 26.8094 16.5515 27.149C17.2144 27.6179 17.9097 27.9575 18.6859 28.2324C19.0416 28.3455 19.1871 28.5881 19.1063 28.8953L18.8314 30.4476C18.7991 30.6416 18.6374 30.6416 18.3302 30.4476C17.4732 29.9787 16.4221 29.7523 15.1932 29.7523C13.4792 29.7523 11.4742 30.6902 9.09723 32.5497C7.85216 33.5522 6.6556 34.5709 5.44287 35.5411C4.5697 36.2525 3.74505 36.5921 3.04975 36.5921Z" fill="#124D73"/>
<path d="M40.1106 35.3633C40.0782 35.331 40.0782 35.2825 40.1106 35.2016L40.8544 33.6493C40.8867 33.5685 40.9676 33.5361 41.0161 33.5361C41.0969 33.5361 41.4365 33.7302 42.0186 34.1182C42.633 34.5387 42.9564 34.7812 42.9564 34.8621C42.9564 35.1369 42.6815 35.6705 42.1479 36.5275C42.0671 36.6407 42.0348 36.6892 41.9539 36.6407C41.3556 36.1718 40.725 35.7514 40.1106 35.3633Z" fill="#124D73"/>
<path d="M48.0342 35.622C47.9534 35.9778 47.8726 36.1718 47.7594 36.285C47.339 36.5599 46.3688 37.1743 44.8811 38.193C44.8488 38.2254 44.768 38.2739 44.6871 38.3547C44.6548 38.3224 44.6548 38.3224 44.6548 38.2415L44.7356 37.7403C44.768 37.6271 45.0105 37.3845 45.4794 37.045C44.8973 36.8509 44.6224 36.576 44.6224 36.2688C44.6224 35.9131 44.7356 35.5735 45.0428 35.2178C45.625 34.5225 46.1262 34.1667 46.5143 34.1667C46.87 34.1667 47.0156 34.3608 47.0156 34.7489C47.0156 34.9752 46.9347 35.2178 46.7407 35.525C46.7083 35.6059 46.6598 35.6059 46.579 35.4927C46.4981 35.2986 46.3526 35.2178 46.1586 35.2178C46.0454 35.2178 45.8837 35.2501 45.6896 35.4118C45.4956 35.525 45.3824 35.6382 45.3824 35.719C45.3824 35.8322 45.4956 35.9454 45.7381 36.0748C45.9645 36.2365 46.1586 36.2688 46.3203 36.2688C46.4334 36.2688 46.676 36.188 47.0156 35.9939C47.2419 35.8322 47.436 35.6867 47.6785 35.525C47.8726 35.4442 47.9857 35.3633 48.0342 35.4118C48.0666 35.3956 48.0666 35.4765 48.0342 35.622Z" fill="#124D73"/>
<path d="M27.1911 28.1355C28.7434 27.5857 30.4089 26.9713 32.2037 26.3568C32.3654 26.3245 32.3978 26.276 32.4301 26.3245C32.4624 26.3245 32.4625 26.4053 32.3978 26.5185C32.2846 26.8742 32.1714 27.0683 32.0905 27.133C30.5383 27.6827 28.7919 28.3295 26.8192 29.235C26.8839 28.8793 26.9971 28.5236 27.1911 28.1355Z" fill="#124D73"/>
<path d="M22.3724 30.965C23.4558 31.5795 24.0056 31.9676 24.0056 32.1293C24.0056 32.4041 23.7307 32.9377 23.1971 33.7947C23.1162 33.9079 23.0839 33.9564 23.0031 33.9079C22.4209 33.439 21.8065 33.0186 21.1759 32.6305C21.1435 32.5982 21.1435 32.5497 21.1759 32.4688L21.9197 30.9165C21.3699 30.5285 20.8363 30.1727 20.335 29.8332C20.3027 29.8008 20.3027 29.7523 20.335 29.6715L21.0789 28.1192C21.1112 28.0383 21.192 28.006 21.2406 28.006C21.3214 28.006 21.661 28.2 22.2431 28.5881C22.8575 29.0085 23.1809 29.251 23.1809 29.3319C23.1486 29.6068 22.8737 30.1242 22.3724 30.965Z" fill="#124D73"/>
<path d="M17.958 10.8662C18.4269 10.8662 18.815 11.0926 19.1546 11.6423C19.5103 12.1436 19.769 12.8389 19.8984 13.6959C19.9307 13.7767 19.9307 13.8091 19.9307 13.8576H19.9631C19.9631 13.8253 19.9954 13.7767 19.9954 13.6959C20.0763 13.1946 20.2703 12.4185 20.5452 11.3998C20.8524 10.7045 21.1596 10.3488 21.5154 10.3488C21.7094 10.3488 21.9034 10.4619 22.0651 10.7045C22.2268 10.9309 22.2915 11.0926 22.2915 11.2543C22.2915 11.3351 22.2915 11.4806 22.2107 11.6423C22.1298 11.8687 22.049 11.9981 21.9843 11.9981C21.9519 11.9981 21.8711 11.8849 21.7094 11.7232C21.5962 11.5615 21.4345 11.4968 21.289 11.4968C20.9818 11.4968 20.7069 12.2406 20.432 13.7121C20.3188 14.375 20.1571 14.8439 20.0439 15.1027C19.9307 15.2644 19.8499 15.3775 19.769 15.3775C19.6882 15.3775 19.6882 15.2644 19.6558 15.1027C19.6882 14.8278 19.5427 14.3265 19.2354 13.5827C18.9282 12.8066 18.7342 12.4508 18.5725 12.4508C18.4916 12.4508 18.4593 12.4508 18.4108 12.5317C18.3784 12.564 18.3299 12.6125 18.2167 12.6125C18.055 12.6125 17.9095 12.4993 17.667 12.3053C17.4406 12.1113 17.3597 11.9496 17.3597 11.8364C17.3597 11.804 17.4406 11.61 17.6346 11.2866C17.7963 10.9794 17.9095 10.8662 17.958 10.8662Z" fill="#124D73"/>
<path d="M11.7491 16.9621C13.3014 16.4124 14.9669 15.7979 16.7617 15.1835C16.9234 15.1511 16.9558 15.1026 16.9881 15.1511C17.0204 15.1511 17.0204 15.232 16.9558 15.3452C16.8426 15.7009 16.7294 15.8949 16.6485 15.9596C15.0962 16.5094 13.3499 17.1562 11.3772 18.0617C11.4257 17.706 11.5551 17.3502 11.7491 16.9621Z" fill="#124D73"/>
<path d="M43.1431 16.9481C43.1431 17.1611 42.9301 17.5445 42.4615 18.1836C41.9076 18.9079 41.439 19.4617 40.9703 19.8026C40.6721 20.0156 39.6922 20.3564 37.9881 20.7824C37.6898 20.825 37.5194 20.8676 37.5194 20.8676C37.562 20.825 37.6472 20.7398 37.8602 20.612C38.0733 20.4416 38.6697 20.1008 39.6922 19.5895C40.6295 19.0783 41.1833 18.7375 41.3111 18.6096C41.3538 18.567 41.3538 18.5244 41.3538 18.5244C41.3538 18.3114 40.5017 18.2262 38.8401 18.2262C38.8401 18.2262 38.5419 18.2262 37.9028 18.2688C37.562 18.3114 37.3916 18.2688 37.3916 18.2262C37.3916 18.1836 37.4342 18.0984 37.5194 17.9706L38.1159 16.9907C38.2863 16.6925 38.6271 16.5221 39.0958 16.4369C39.2662 16.3942 39.6496 16.3942 40.2461 16.3942C42.2058 16.309 43.1431 16.5221 43.1431 16.9481Z" fill="#124D73"/>
</svg>
