<svg width="48" height="49" viewBox="0 0 48 49" fill="none" xmlns="http://www.w3.org/2000/svg">
<path d="M5.06312 40.5958C3.22924 40.5958 1.87375 39.958 0.996678 38.7221C0.318937 37.7653 0 36.5693 0 35.0942C0 34.6158 0.0398674 34.1772 0.0797345 33.7387C0.199336 33.0211 0.358805 32.4231 0.55814 31.9447C0.637874 31.7852 0.677742 31.6656 0.757476 31.6656C0.797343 31.6656 0.837209 31.7852 0.797342 31.9845C0.518273 33.5394 0.398671 34.4164 0.398671 34.5759C0.398671 35.4929 0.717609 36.3699 1.35548 37.1673C2.19269 38.2038 3.42857 38.7221 5.06312 38.7221C6.49834 38.7221 8.01329 38.4032 9.60798 37.7254C10.8837 37.1673 12.0797 36.5294 13.1163 35.7321C14.0332 35.0144 14.5116 34.4962 14.5116 34.1772C14.5116 33.3002 14.2326 32.3035 13.6744 31.2271C13.5548 31.0277 13.515 30.8284 13.515 30.7088C13.515 30.5892 13.6346 30.1905 13.8738 29.3932C13.9136 29.2337 13.9934 29.1938 14.0332 29.1938C14.0731 29.1938 14.1927 29.3135 14.2724 29.5128C14.7508 30.5095 15.3488 30.9879 16.1063 30.9879C16.5847 30.9879 16.9037 30.948 17.1429 30.8683C17.5017 30.7487 17.8605 30.5095 18.2193 30.1507C18.4186 29.8716 18.7774 29.4729 19.216 28.9148C19.3356 28.7952 19.4153 28.7154 19.5349 28.7154C19.6545 28.7154 19.7342 28.7952 19.7342 28.9148C19.7342 28.9945 19.6944 29.1141 19.6545 29.2736C19.6146 29.4331 19.5748 29.5925 19.5748 29.6723C19.5748 29.8317 19.6944 30.0311 19.8937 30.2304C20.1329 30.5095 20.4518 30.6291 20.8505 30.6291C21.4086 30.6291 22.0465 29.9115 22.6445 28.5161C22.6844 28.3566 22.7641 28.3168 22.8439 28.3168C23.0033 28.3168 23.0432 28.4364 23.0033 28.6357C22.9635 28.7952 22.9635 28.9148 22.9635 29.0344C22.9635 29.8716 23.4419 30.3101 24.3987 30.3101V32.144C23.4817 32.144 22.8439 31.6656 22.4851 30.6689C22.4452 30.5493 22.4053 30.5493 22.3655 30.6689C21.9269 31.9048 21.289 32.5028 20.4518 32.5028C20.1329 32.5028 19.8538 32.3832 19.5349 32.1839C19.1761 31.9447 18.9369 31.6257 18.8173 31.2271C18.7774 31.1075 18.6977 31.1075 18.6578 31.2271C18.4983 31.5061 18.1794 31.7852 17.7807 32.144C17.1827 32.6224 16.5847 32.8616 15.9867 32.8616C15.7076 32.8616 15.4684 32.8218 15.309 32.7819C15.309 34.3766 14.99 35.5327 14.3522 36.2105C13.515 37.1673 12.3588 38.0842 10.7641 38.9613C8.65116 40.0377 6.77741 40.5958 5.06312 40.5958Z" fill="#124D73"/>
<path d="M29.1029 21.6192C29.1029 21.7786 28.9435 22.0577 28.6245 22.4963C28.2259 23.0145 27.8671 23.4132 27.5481 23.6524C27.3488 23.8119 26.6312 24.0511 25.3953 24.37C25.1561 24.4099 25.0764 24.4099 25.0764 24.4099C25.1162 24.37 25.196 24.3301 25.3156 24.2105C25.475 24.0909 25.9136 23.8517 26.6312 23.4929C27.3089 23.1341 27.7076 22.8949 27.8272 22.7753C27.8671 22.7355 27.8671 22.7355 27.8671 22.6956C27.8671 22.5361 27.2691 22.4564 26.073 22.4564C26.073 22.4564 25.8338 22.4564 25.3953 22.4564C25.1561 22.4564 25.0365 22.4564 25.0365 22.4165C25.0365 22.3766 25.0764 22.3368 25.1561 22.2172L25.5946 21.4996C25.7142 21.3002 25.9534 21.1408 26.3122 21.1009C26.4318 21.061 26.7109 21.061 27.1495 21.061C28.4252 21.1408 29.1029 21.3002 29.1029 21.6192Z" fill="#124D73"/>
<path d="M30.538 31.2271C30.8171 31.2271 30.9367 31.1474 30.9367 30.9879C30.9367 30.7886 30.7772 30.6291 30.4583 30.5095C30.0995 30.35 29.6211 30.35 29.0231 30.4298C29.5015 30.948 29.9799 31.2271 30.538 31.2271ZM24.239 32.144V30.3102C25.0364 30.3102 26.033 29.9912 27.229 29.3533C27.1892 29.2337 27.3088 29.1141 27.5879 29.0344C27.8271 28.9148 27.9865 28.9547 28.0663 29.0344C28.9035 28.7553 29.5812 28.6357 30.0995 28.6357C30.6178 28.6357 31.0563 28.8351 31.3354 29.3135C31.6543 29.752 31.7739 30.35 31.7739 31.0676C31.7739 31.6656 31.6543 32.144 31.3752 32.5427C31.136 32.9414 30.7772 33.1407 30.3387 33.1407C29.3819 33.1407 28.5048 32.4231 27.7075 30.948C26.2722 31.7055 25.1161 32.144 24.239 32.144Z" fill="#124D73"/>
<path d="M33.0901 12.37C34.8043 11.772 36.5984 11.0943 38.5519 10.3767C38.6715 10.3368 38.7113 10.3368 38.7113 10.3368C38.7512 10.3767 38.7113 10.4165 38.7113 10.4963C38.5917 10.7753 38.512 10.9348 38.4322 10.9747C36.8376 11.5328 34.9239 12.2903 32.7711 13.1674C32.8509 12.968 32.9705 12.689 33.0901 12.37Z" fill="#124D73"/>
<path d="M37.515 15.2005C37.515 15.4397 37.4751 15.6789 37.3555 15.9181C37.1961 16.2371 37.0366 16.3965 36.7974 16.3965C36.4386 16.3965 36.1994 16.1573 36.0798 15.6789C35.9203 16.2769 35.6014 16.5959 35.1628 16.5959C35.0034 16.5959 34.8439 16.5161 34.7243 16.3567C34.5648 16.1573 34.525 15.8783 34.525 15.5992V14.8417C34.525 14.762 34.4851 14.7221 34.4054 14.7221C34.3256 14.6823 34.2858 14.6424 34.2858 14.5228C34.2858 14.3633 34.3655 14.2038 34.525 14.0444C34.6446 13.9248 34.7642 13.845 34.804 13.845C34.8838 13.845 34.9236 14.0045 34.9236 14.3234C34.9236 14.5228 34.9236 14.6424 34.8838 14.762C34.8439 14.8816 34.8439 14.9613 34.8439 15.0411C34.8439 15.2404 34.8838 15.3999 34.9635 15.5593C35.0432 15.7587 35.1628 15.8384 35.2824 15.8384C35.4419 15.8384 35.6014 15.7587 35.7609 15.5992C35.9203 15.4397 35.9602 15.2803 35.9602 15.0809C35.9602 14.9613 35.9203 14.762 35.8406 14.4829C35.7609 14.2038 35.721 14.0045 35.721 13.9646C35.721 13.8849 35.7609 13.8052 35.8007 13.6856C35.8805 13.566 35.9203 13.4862 35.9203 13.4862C36.0001 13.4862 36.0399 13.6856 36.1197 14.0444C36.1994 14.4032 36.2393 14.6823 36.2393 14.8816C36.2393 15.3999 36.4386 15.6789 36.8373 15.6391C37.0366 15.6391 37.1163 15.5593 37.1562 15.3999C36.7974 14.8019 36.6379 14.3633 36.6379 14.0045C36.6379 13.845 36.6778 13.6457 36.7575 13.5261C36.7974 13.4065 36.8771 13.3666 36.8771 13.3666C36.917 13.3666 36.917 13.4464 36.917 13.566C36.917 13.7254 36.9569 13.8849 36.9967 13.9646C36.9967 13.9646 37.1163 14.2038 37.2758 14.6025C37.4751 14.8816 37.515 15.0411 37.515 15.2005Z" fill="#124D73"/>
<path d="M35.9201 21.34L36.3986 20.3832C36.4384 20.3035 36.4783 20.2636 36.5182 20.2636C36.5979 20.2636 36.8371 20.4231 37.3155 20.742C37.7939 21.061 38.0331 21.2603 38.0331 21.3002C38.0331 21.4995 37.8338 21.938 37.4351 22.6158C37.3952 22.6955 37.3155 22.6955 37.2756 22.6556C36.877 22.3367 36.3986 22.0576 35.8803 21.6988C35.7208 22.0975 35.5613 22.4164 35.362 22.6955C35.3221 22.7752 35.2823 22.8151 35.2025 22.7752C34.7241 22.4164 34.2856 22.0975 33.7673 21.7786C33.7275 21.7786 33.7275 21.7387 33.7673 21.6988L34.3653 20.5028C34.4052 20.4231 34.4451 20.3832 34.4849 20.3832C34.5248 20.3832 34.764 20.5028 35.1627 20.7819C35.5613 21.0211 35.8005 21.2204 35.9201 21.34Z" fill="#124D73"/>
<path d="M34.2853 19.4264C34.2454 19.4264 34.2454 19.3866 34.2853 19.3467L34.8833 18.1507C34.9231 18.0709 34.963 18.0311 35.0029 18.0311C35.0826 18.0311 35.3218 18.1905 35.8002 18.5095C36.2786 18.8284 36.5178 19.0277 36.5178 19.0676C36.5178 19.267 36.3185 19.7055 35.9198 20.3832C35.88 20.463 35.8002 20.5028 35.7604 20.4231C35.2421 20.1042 34.7637 19.7454 34.2853 19.4264Z" fill="#124D73"/>
<path d="M29.2621 25.9647C29.0229 25.9647 28.704 26.2039 28.2255 26.6823C27.7471 27.2006 27.4681 27.5992 27.4681 27.9979C27.4681 28.3168 27.6275 28.6358 27.9066 28.9547C27.9066 29.0344 27.787 29.1142 27.5877 29.2338C27.3883 29.3534 27.2289 29.3932 27.1093 29.3932C27.0694 29.3932 27.0694 29.3932 27.0295 29.3932C26.8701 28.9547 26.8302 28.556 26.8302 28.277C26.9498 27.1607 27.3086 26.164 27.9465 25.2869C28.5046 24.5295 29.0628 24.1706 29.5412 24.1706C29.7405 24.1706 29.9398 24.4099 30.1392 24.8484C30.4581 25.4863 30.6574 25.8849 30.7372 26.0444C31.0561 26.4829 31.4548 26.6823 31.9332 26.6823C32.6907 26.6823 33.4083 26.4032 34.1259 25.8451C34.2056 25.8052 34.4847 25.5261 34.9631 24.968C35.4415 24.4497 35.6807 24.2105 35.7206 24.2105C35.8402 24.2105 35.8402 24.3301 35.7604 24.5693C35.6408 24.8484 35.601 25.0477 35.601 25.1275C35.601 25.3268 35.6807 25.566 35.88 25.8451C36.1192 26.2039 36.3983 26.4032 36.797 26.4032C37.7937 26.4032 38.6707 25.6856 39.3883 24.2105C39.4681 24.051 39.5478 23.9713 39.6275 23.9713C39.7073 23.9713 39.7471 24.051 39.7471 24.1706C39.7471 24.2105 39.7471 24.2902 39.7471 24.4099C39.7471 24.5295 39.7073 24.6092 39.7073 24.6491C39.7073 25.0876 39.8269 25.4065 40.1059 25.6856C40.3451 25.9647 40.704 26.0843 41.1026 26.0843V27.9182C40.1857 27.9182 39.5079 27.3202 39.1093 26.164C39.0694 26.0045 38.9897 26.0045 38.9498 26.164C38.4315 27.5195 37.6741 28.1972 36.6774 28.1972C35.6807 28.1972 35.1226 27.5992 34.9232 26.3633C34.9232 26.2437 34.8834 26.2039 34.8834 26.2039C34.8834 26.2039 34.8435 26.2437 34.7638 26.3633C34.5246 26.762 34.1657 27.1607 33.7272 27.5594C32.9697 28.2371 32.2521 28.556 31.5345 28.556C31.0561 28.556 30.6176 28.3567 30.2588 27.8783C30.0594 27.6391 29.8601 27.2404 29.581 26.6424C29.5412 26.164 29.3817 25.9647 29.2621 25.9647Z" fill="#124D73"/>
<path d="M44.0131 22.3766C44.0131 24.1706 43.6942 25.566 43.0563 26.6025C42.4982 27.4796 41.8603 27.9181 41.1427 27.9181V26.0843C41.7407 26.0843 42.2988 25.8451 42.857 25.4065C43.0165 25.2869 43.0962 24.7686 43.0962 23.9314C43.0962 23.4132 42.9766 21.3401 42.6975 17.6723C42.4583 14.0444 42.2988 11.8916 42.2988 11.2537C42.2988 10.6557 42.1792 10.1773 42.0198 9.77861C42.0198 9.5394 42.1792 9.02113 42.538 8.22379C42.5779 8.14405 42.6178 8.10419 42.6577 8.10419C42.6975 8.10419 42.7374 8.14405 42.7772 8.26366C42.8968 8.46299 43.0962 9.061 43.455 10.0178C43.8138 11.0145 44.053 11.6125 44.1327 11.8517C44.1726 12.0112 44.2125 12.1706 44.2125 12.2105C44.2125 12.4896 43.9733 12.3301 43.4151 11.7321C43.3753 11.6524 43.3354 11.6922 43.3354 11.8118C43.3354 11.8517 43.455 13.4862 43.6942 16.6756C43.8935 19.865 44.0131 21.7786 44.0131 22.3766Z" fill="#124D73"/>
<path d="M46.0864 18.948C46.0864 18.35 45.9668 17.8716 45.8074 17.5128C45.8074 17.3135 45.9668 16.7952 46.3256 15.958C46.3655 15.8384 46.4054 15.7985 46.4452 15.7985C46.4851 15.7985 46.525 15.8384 46.5648 15.958C46.6844 16.1573 46.8838 16.7553 47.2426 17.7121C47.6014 18.7088 47.8406 19.3068 47.9203 19.546C47.9602 19.7055 48.0001 19.865 48.0001 19.9447C48.0001 20.2238 47.7609 20.0643 47.2027 19.4663C47.1629 19.3866 47.123 19.4264 47.123 19.5859C47.123 19.6258 47.2426 21.5394 47.5217 25.2869C47.8007 29.0344 47.9203 31.1075 47.9203 31.5859C47.9203 33.0211 47.721 34.2969 47.2825 35.3733C47.1629 35.5726 47.123 35.7321 47.0433 35.8517C46.9635 36.0112 46.8838 36.051 46.8838 35.9314C46.8439 35.8118 46.8838 35.5726 46.8838 35.2138C46.9635 34.7354 47.0034 34.1374 47.0034 33.4995C47.0034 32.9015 46.8439 30.4696 46.525 26.2038C46.2459 21.8583 46.0864 19.4663 46.0864 18.948Z" fill="#124D73"/>
</svg>
