<svg width="48" height="48" viewBox="0 0 48 48" fill="none" xmlns="http://www.w3.org/2000/svg">
<path d="M20.6214 29.3774C20.1756 28.783 19.7298 28.4858 19.3583 28.4858C18.764 28.4858 18.5039 28.6344 18.5039 28.9316C18.5039 29.3031 18.9126 29.4888 19.6927 29.4888C19.9527 29.4888 20.2499 29.4517 20.6214 29.3774ZM21.5873 31.7549C21.5873 31.532 21.5501 31.3463 21.4758 31.1234C21.0672 31.2348 20.51 31.3091 19.8041 31.3091C18.281 31.3091 17.5009 30.789 17.5009 29.7489C17.5009 28.9316 17.7609 28.2258 18.281 27.5942C18.764 26.9998 19.2469 26.7398 19.8041 26.7398C20.2128 26.7398 20.6586 26.9998 21.1415 27.5199C21.5501 27.9657 21.9216 28.523 22.256 29.2288C22.2931 29.2288 22.3303 29.2288 22.4417 29.1545V30.9376L22.3674 30.9748C22.3674 31.3463 22.2931 31.8292 22.1074 32.3864C21.8845 33.1294 21.5501 33.7238 21.1415 34.2067C20.1385 35.3212 19.0983 36.3242 17.9467 37.2158C16.2378 38.516 14.7519 39.1475 13.4517 39.1475C12.3744 39.1475 11.5571 38.7389 10.9627 37.9588C10.4426 37.2529 10.1826 36.3985 10.1826 35.3583C10.1826 33.9838 10.4798 32.5722 11.037 31.1605C11.1484 30.8633 11.2599 30.7147 11.3342 30.7147C11.3713 30.7147 11.3713 30.7519 11.3713 30.789C11.3713 30.9005 11.3342 31.0491 11.2599 31.272C10.8512 32.6836 10.6655 33.7609 10.6655 34.4668C10.6655 35.1355 10.8512 35.6927 11.1856 36.1756C11.6685 36.8815 12.4858 37.2158 13.6003 37.2158C14.5661 37.2158 15.7549 36.8072 17.0923 35.9527C18.2067 35.284 19.2469 34.4668 20.2499 33.5381C21.1415 32.6093 21.5873 32.0521 21.5873 31.7549Z" fill="#124D73"/>
<path d="M26.082 11.2487C26.1563 11.063 26.1563 10.8772 26.1191 10.6915C26.082 10.4686 25.9705 10.3572 25.8219 10.3572C25.7476 10.3572 25.6733 10.3943 25.5247 10.4686C25.4133 10.5429 25.339 10.6172 25.339 10.6543C25.339 10.8401 25.599 11.0258 26.082 11.2487ZM25.7105 12.1031C25.1161 11.806 24.8189 11.4716 24.8189 11.1373C24.8189 10.7286 25.0047 10.3572 25.4133 9.98566C25.7848 9.65132 26.1191 9.50273 26.3792 9.61417C26.6021 9.68847 26.7135 9.91136 26.7135 10.2829C26.7135 10.6543 26.6392 11.0258 26.5278 11.4716C26.825 11.6574 27.0107 11.806 27.085 11.9174C27.085 12.066 26.9364 12.3632 26.6764 12.7347C26.6021 12.6232 26.4163 12.4746 26.1191 12.2889C25.7848 12.7718 25.339 13.1805 24.8189 13.552C24.2245 13.9977 23.6673 14.3321 23.1844 14.555C23.0729 14.5921 22.5157 14.815 21.4384 15.1865C21.2526 15.2608 21.1412 15.2979 21.104 15.2979C21.0669 15.2979 21.0669 15.2979 21.0669 15.2979C21.0669 15.2608 21.1783 15.1865 21.3641 15.0751C22.1442 14.6293 22.9243 14.1463 23.7044 13.7005C24.5589 13.1062 25.2647 12.5861 25.7105 12.1031Z" fill="#124D73"/>
<path d="M32.9547 24.8081C33.2147 24.6966 33.3633 24.6966 33.3633 24.8081C33.3633 24.8824 33.3262 24.9938 33.2519 25.1053L32.5832 26.294C32.5089 26.4426 32.3974 26.5541 32.2488 26.5912C29.2026 27.9286 25.8964 29.3774 22.3301 30.9005V29.1173C22.4787 29.0802 23.3331 28.7087 24.9677 28.0772C24.1875 27.6314 23.5188 27.0741 22.9988 26.3683C22.3301 25.4767 21.9957 24.4737 21.9957 23.3964C21.9957 22.2819 22.4044 21.3904 23.1474 20.6845C24.0389 19.8673 25.1163 19.4958 26.3422 19.4958C27.1223 19.4958 27.9024 19.6444 28.7197 19.9787C29.3512 20.2387 29.8713 20.4988 30.2799 20.8331C30.6143 21.0932 30.7629 21.2418 30.7629 21.2789C30.7629 21.3161 30.7257 21.3161 30.7257 21.3161C30.6514 21.3161 30.5028 21.2789 30.2799 21.2046C29.6113 21.0189 28.8311 20.9074 27.9767 20.9074C26.788 20.9074 25.6363 21.056 24.5219 21.3904C23.4817 21.7247 22.8873 22.0219 22.813 22.3562C22.9245 23.2107 23.4074 24.1022 24.2618 25.031C25.2648 26.1083 26.4165 26.6284 27.6052 26.6284C28.1253 26.6284 28.8311 26.4426 29.7227 26.1083C30.8372 25.6996 31.8773 25.2538 32.9547 24.8081Z" fill="#124D73"/>
<path d="M35.0724 30.2318C35.221 31.1605 35.5182 31.7549 35.9639 32.0521C36.1868 32.2007 36.5583 32.2378 37.0413 32.2378V34.2067C36.3354 34.2067 35.7782 34.0581 35.4067 33.7981C34.8495 33.3895 34.478 32.6093 34.2922 31.4949C34.1808 30.789 34.0694 28.7459 33.9579 25.4025C33.8465 21.7247 33.7722 19.4586 33.6607 18.6414C33.5121 17.304 33.2521 16.0409 32.8806 14.815C32.8806 14.4807 33.0292 14.0349 33.2892 13.4034C33.3264 13.2548 33.4007 13.1805 33.4378 13.1805C33.475 13.1805 33.5493 13.2548 33.5864 13.3662C33.9951 14.1835 34.3294 15.558 34.5523 17.4897C34.7009 18.6785 34.8123 21.0932 34.8866 24.6966C34.9238 28.0772 34.9981 29.9346 35.0724 30.2318Z" fill="#124D73"/>
<path d="M38.4157 23.0249C40.236 22.3562 42.1677 21.6504 44.2109 20.9074C44.3223 20.8703 44.3966 20.8703 44.3966 20.8703C44.4338 20.9074 44.3966 20.9446 44.3966 21.056C44.2852 21.3532 44.1737 21.5018 44.0994 21.5761C42.3906 22.1705 40.3846 22.9878 38.0813 23.9165C38.1556 23.6564 38.2671 23.3593 38.4157 23.0249Z" fill="#124D73"/>
<path d="M43.6164 33.2409C43.9136 33.2409 44.025 33.1666 44.025 32.9809C44.025 32.758 43.8393 32.6094 43.5421 32.4608C43.1706 32.3122 42.6505 32.2751 41.9818 32.3865C42.5019 32.9809 43.022 33.2409 43.6164 33.2409ZM36.9296 34.2068V32.2379C37.784 32.2379 38.8242 31.9036 40.0872 31.1977C40.0501 31.0491 40.1615 30.9005 40.4216 30.7891C40.6816 30.6777 40.8674 30.7148 40.9417 30.8634C41.8332 30.5662 42.5391 30.4176 43.0963 30.4176C43.6535 30.4176 44.0993 30.6405 44.4337 31.1234C44.768 31.6064 44.9166 32.2008 44.9166 32.9809C44.9166 33.6124 44.768 34.1325 44.508 34.5411C44.2479 34.9498 43.8764 35.1727 43.3935 35.1727C42.3905 35.1727 41.4617 34.3925 40.6073 32.8323C39.0842 33.761 37.8212 34.2068 36.9296 34.2068Z" fill="#124D73"/>
<path d="M40.4217 9.27987C40.4217 9.42846 40.236 9.72565 39.9016 10.2457C39.493 10.803 39.1215 11.2116 38.75 11.4717C38.5271 11.6202 37.7841 11.8803 36.4839 12.2518C36.261 12.2889 36.1124 12.3261 36.1124 12.3261C36.1496 12.2889 36.2239 12.2518 36.3725 12.1403C36.5211 11.9917 37.004 11.7317 37.747 11.3602C38.4528 10.9516 38.8614 10.7287 39.01 10.6172C39.0472 10.5801 39.0472 10.5801 39.0472 10.5429C39.0472 10.3943 38.4157 10.32 37.1154 10.32C37.1154 10.32 36.8926 10.32 36.3725 10.32C36.1124 10.32 36.001 10.32 36.001 10.2829C36.001 10.2457 36.0381 10.1714 36.1124 10.0971L36.5582 9.31701C36.7068 9.09412 36.9297 8.94553 37.3012 8.90838C37.4126 8.87123 37.7098 8.87123 38.1928 8.87123C39.6787 8.79693 40.4217 8.94553 40.4217 9.27987Z" fill="#124D73"/>
<path d="M40.0132 31.1977C39.6046 29.5631 39.2703 26.7398 38.9359 22.6906C38.7502 20.2016 38.6387 17.9727 38.6387 16.0781C38.6387 15.4466 38.5273 14.9265 38.3415 14.5179C38.3415 14.295 38.5273 13.7377 38.8988 12.8833C38.9359 12.7719 38.9731 12.7347 39.0102 12.7347C39.0474 12.7347 39.0845 12.7719 39.1588 12.8833C39.2703 13.1062 39.4932 13.7006 39.9018 14.7407C40.3104 15.7809 40.4962 16.4496 40.5705 16.6725C40.6076 16.8582 40.6448 17.0068 40.6448 17.0811C40.6448 17.3783 40.3847 17.1926 39.8275 16.561C39.7532 16.4867 39.716 16.5239 39.716 16.6725C39.716 17.5269 39.7903 19.5701 40.0132 22.8021C40.2361 26.9627 40.5705 29.6003 40.9791 30.7891C40.9791 30.8634 40.8305 30.9377 40.6076 31.0491C40.3476 31.1605 40.1618 31.2348 40.0132 31.1977C40.0504 31.2348 40.0132 31.2348 40.0132 31.1977Z" fill="#124D73"/>
<path d="M45.9569 18.567C45.9569 17.9355 45.8454 17.4154 45.6597 17.0068C45.6597 16.7839 45.8454 16.2267 46.2169 15.3722C46.2541 15.2608 46.3284 15.2236 46.3284 15.2236C46.3655 15.2236 46.4027 15.2608 46.477 15.3722C46.5884 15.5951 46.8485 16.2267 47.2199 17.2297C47.6286 18.2698 47.8515 18.9385 47.9258 19.1614C47.9629 19.3472 48.0001 19.4958 48.0001 19.5701C48.0001 19.8672 47.74 19.6815 47.1456 19.05C47.0713 18.9385 47.0342 19.0128 47.0342 19.1614C47.0342 19.1986 47.1828 21.2418 47.48 25.2167C47.7772 29.1916 47.8886 31.4205 47.8886 31.9035C47.8886 33.4266 47.6657 34.7639 47.2199 35.9156C47.1085 36.1385 47.0342 36.3242 46.9971 36.3985C46.8856 36.5842 46.8485 36.5842 46.8485 36.4728C46.8113 36.3614 46.8485 36.1013 46.8485 35.7298C46.9228 35.2097 46.9599 34.5782 46.9599 33.9095C46.9599 33.278 46.7742 30.7147 46.477 26.1454C46.1426 21.6504 45.9569 19.1243 45.9569 18.567Z" fill="#124D73"/>
<path d="M5.06846 30.9986C5.03717 30.9674 5.03717 30.9361 5.06846 30.9048L5.56904 29.9036C5.60033 29.841 5.63162 29.8098 5.6629 29.8098C5.72548 29.8098 5.94448 29.9349 6.31993 30.2165C6.69537 30.4668 6.91437 30.6545 6.91437 30.6858C6.91437 30.8422 6.72665 31.2177 6.3825 31.7495C6.35121 31.8121 6.28864 31.8434 6.25735 31.8121C5.88191 31.5305 5.47518 31.2489 5.06846 30.9986ZM12.4521 31.2802C12.4521 32.2188 12.2331 32.9384 11.8264 33.439C11.1694 34.2212 10.1682 34.9721 8.85415 35.723C7.19595 36.6303 5.6629 37.0996 4.19243 37.0996C2.28393 37.0996 0.96989 36.161 0.219008 34.2838C0.0938605 33.9083 0 33.439 0 32.8759C0 32.5004 0.0312865 32.0937 0.09386 31.7182C0.18772 31.1551 0.312868 30.6545 0.469301 30.2165C0.531875 30.0913 0.594448 30.0288 0.625735 30.0288C0.657022 30.0288 0.688309 30.1226 0.657022 30.2791C0.594449 30.5606 0.531875 30.8109 0.469301 31.0612C0.375441 31.5618 0.312868 31.906 0.312868 32.125C0.312868 32.9071 0.563162 33.6267 1.09504 34.2838C1.81463 35.1598 2.81581 35.5978 4.16114 35.5978C5.35004 35.5978 6.60151 35.3162 7.88426 34.7531C8.94801 34.315 9.9179 33.7519 10.7626 33.0949C11.5448 32.5004 11.9203 32.0937 11.9203 31.8434C11.9203 31.8121 11.7638 31.4679 11.4197 30.8422C11.0442 30.1226 10.7626 29.403 10.5749 28.7147C10.5124 28.4644 10.4185 28.308 10.3246 28.2141C10.2308 28.1516 10.1995 28.0577 10.1995 27.9638C10.1995 27.87 10.2621 27.4945 10.4185 26.8062C10.4498 26.6811 10.4811 26.6185 10.5124 26.6185C10.5436 26.6185 10.5749 26.6498 10.6375 26.7124C10.8252 26.9314 11.2632 27.3381 11.889 27.9951C11.9828 28.089 12.0454 28.1828 12.0454 28.2454C12.0454 28.308 11.9828 28.3393 11.8577 28.3393C11.7325 28.3393 11.5135 28.308 11.2632 28.2141C11.2945 28.308 11.5135 28.746 11.9203 29.5595C12.2957 30.2165 12.4521 30.7796 12.4521 31.2802Z" fill="#124D73"/>
</svg>
