<svg width="49" height="49" viewBox="0 0 49 49" fill="none" xmlns="http://www.w3.org/2000/svg">
<path d="M4.00581 41.9915C6.08979 41.9915 8.35902 41.158 10.8135 39.4908C12.7122 38.1941 14.1942 36.8511 15.2593 35.4154C15.5835 34.9523 15.7224 34.7208 15.7224 34.7208C15.815 34.5355 15.9077 34.2576 15.9077 33.8409C15.9077 32.9609 15.6761 31.5716 15.1667 29.6729C14.7962 28.1909 13.9163 25.9217 12.527 22.9115C12.4807 22.8189 12.527 22.4484 12.6196 21.8001C12.7122 21.1517 12.8048 20.6886 12.8975 20.4107C12.9901 20.0866 13.0827 19.9939 13.268 20.2255C14.9351 22.4021 16.1392 25.4123 16.9265 29.2561C17.2507 30.9696 17.7138 33.3777 18.2232 36.4343C18.4548 37.7773 18.8716 38.6109 19.5199 39.0277C19.8441 39.2129 20.3535 39.3518 21.0482 39.3518V42.1305C20.0756 42.1305 19.2884 41.9452 18.7326 41.5284C17.899 40.9264 17.3896 39.8149 17.1117 38.2404C17.0191 37.6846 16.7876 36.5269 16.556 34.8597C16.3245 36.2027 15.8614 37.3142 15.1667 38.1478C13.7774 39.8613 12.1102 41.3432 10.1188 42.5936C7.8496 44.0292 5.81192 44.7702 3.91318 44.7702C2.89435 44.7702 2.15337 44.3534 1.64396 43.5198C1.22716 42.8251 0.995605 42.0379 0.995605 41.019C0.995605 39.074 1.4124 37.0363 2.24599 34.9986C2.43124 34.5355 2.57017 34.304 2.66279 34.304C2.7091 34.304 2.7091 34.3503 2.7091 34.4429C2.7091 34.5818 2.66279 34.7671 2.57017 35.0912C1.96813 37.0826 1.69027 38.6572 1.69027 39.7223C1.78289 41.2506 2.52386 41.9915 4.00581 41.9915Z" fill="#124D73"/>
<path d="M20.539 10.5002C23.1324 9.57398 25.911 8.55514 28.8749 7.48999C29.0138 7.44368 29.1065 7.39737 29.1065 7.44368C29.1528 7.48999 29.1528 7.58261 29.0601 7.67524C28.8749 8.09203 28.736 8.32359 28.6433 8.41621C26.1889 9.29611 23.3176 10.4076 20.0295 11.7969C20.1685 11.4264 20.3537 11.0096 20.539 10.5002Z" fill="#124D73"/>
<path d="M30.0325 41.621C28.5968 41.621 27.578 41.0653 26.976 40.0001C26.5592 39.3055 26.3276 38.2403 26.1424 36.6658C26.0034 38.7034 25.2625 40.1854 23.9195 41.1579C23.0396 41.8063 22.0207 42.1304 20.9556 42.1304V39.3055C22.808 39.3055 24.1047 38.7498 24.8457 37.6846C25.4014 36.851 25.6793 35.508 25.6793 33.563C25.6793 28.0983 25.4477 23.4672 24.9383 19.6697C24.892 19.1603 24.6141 17.3079 24.0584 14.2051C24.2436 13.0473 24.4289 12.2137 24.6141 11.7506C24.7067 11.5653 24.7531 11.4727 24.7994 11.4727C24.8457 11.4727 24.9383 11.5653 24.9846 11.7969C25.5866 13.7883 26.0961 16.3353 26.4665 19.3919C26.6981 21.4758 26.8833 24.6713 27.0223 29.0245C27.1149 32.9146 27.3001 35.3691 27.4854 36.2953C27.7169 37.3604 28.0411 38.1014 28.5042 38.4719C28.8284 38.7498 29.3378 38.8887 29.9399 38.8887V41.621H30.0325Z" fill="#124D73"/>
<path d="M28.7818 27.1721C31.3752 26.2459 34.1538 25.227 37.1177 24.1619C37.2566 24.1156 37.3492 24.0692 37.3492 24.1156C37.3956 24.1619 37.3956 24.2545 37.3029 24.3471C37.1177 24.7639 36.9788 24.9955 36.8861 25.0881C34.4317 25.968 31.5604 27.0794 28.2723 28.4688C28.4113 28.052 28.5965 27.6352 28.7818 27.1721Z" fill="#124D73"/>
<path d="M29.1986 46.8079C29.1522 46.7616 29.1522 46.7153 29.1986 46.6226L30.1248 44.7702C30.1711 44.6776 30.2174 44.585 30.31 44.585C30.4026 44.585 30.8194 44.8165 31.5141 45.3259C32.2088 45.789 32.5792 46.1132 32.5792 46.2058C32.5792 46.53 32.2551 47.1784 31.6067 48.1509C31.5141 48.2898 31.4678 48.3361 31.3752 48.2435C30.6805 47.7804 29.9395 47.271 29.1986 46.8079Z" fill="#124D73"/>
<path d="M38.6462 40.9264C36.979 40.9264 36.0991 39.9539 36.0528 38.0088C36.0528 37.9162 36.0065 37.8699 35.9138 37.8699C35.7749 37.8699 35.5897 37.9625 35.4507 38.1014C34.5245 39.2129 33.9225 39.8612 33.6446 40.0928C32.4405 41.1116 31.1901 41.6211 29.8934 41.6211V38.7961C31.2364 38.7961 32.4868 38.4256 33.5057 37.6846C33.9225 37.4068 34.895 36.5732 36.3306 35.0912C36.4696 34.9523 36.6548 34.8597 36.7937 34.8597C36.9327 34.8597 37.0253 34.9523 37.0253 35.0912C37.0253 35.1839 37.0253 35.2765 36.979 35.508C36.9327 35.6933 36.9327 35.8322 36.9327 35.9711C36.9327 36.5269 37.0716 36.9437 37.3032 37.3605C37.6273 37.8236 38.0441 38.0551 38.6462 38.0551V40.9264Z" fill="#124D73"/>
<path d="M43.7866 0.913853C43.7866 1.14541 43.5087 1.5622 43.0456 2.25687C42.4436 3.04415 41.9342 3.64619 41.3784 4.01667C41.0543 4.24823 39.9428 4.61871 38.1367 5.12813C37.8125 5.17444 37.6273 5.22076 37.6273 5.22076C37.6736 5.17444 37.7662 5.08182 37.9977 4.94289C38.2293 4.75765 38.8777 4.38716 39.9891 3.83143C41.0079 3.2757 41.61 2.90522 41.7952 2.76628C41.8415 2.71997 41.8415 2.67366 41.8415 2.67366C41.8415 2.44211 40.9153 2.34949 39.0629 2.34949C39.0629 2.34949 38.7387 2.34949 37.9977 2.3958C37.6273 2.44211 37.442 2.3958 37.442 2.34949C37.442 2.30318 37.4883 2.21055 37.581 2.07162L38.2293 0.960165C38.4145 0.635989 38.785 0.404436 39.2944 0.358125C39.4797 0.311814 39.8965 0.311813 40.5448 0.311813C42.7678 0.219192 43.7866 0.450745 43.7866 0.913853Z" fill="#124D73"/>
<path d="M42.9066 32.5904C42.9066 35.3227 42.3972 37.453 41.4247 39.0276C40.5911 40.3706 39.6185 41.0189 38.5071 41.0189V38.194C39.4333 38.194 40.2669 37.8698 41.1005 37.1288C41.332 36.9436 41.471 36.1563 41.471 34.8596C41.471 34.0723 41.2857 30.8769 40.8689 25.3196C40.4521 19.7623 40.2669 16.4742 40.2669 15.548C40.2669 14.6218 40.128 13.9271 39.8501 13.3251C39.8501 13.0009 40.0816 12.2136 40.6374 10.9633C40.73 10.8243 40.7763 10.778 40.8226 10.778C40.8689 10.778 40.9616 10.8706 41.0079 11.0096C41.1468 11.3337 41.5173 12.2136 42.073 13.6493C42.6287 15.1312 42.9992 16.1038 43.0918 16.4279C43.1845 16.7058 43.1845 16.891 43.1845 16.9837C43.1845 17.4005 42.7677 17.1689 41.9804 16.289C41.8878 16.1501 41.8415 16.1964 41.8415 16.4279C41.8415 16.4742 42.0267 18.975 42.3972 23.8377C42.7214 28.7466 42.9066 31.6642 42.9066 32.5904Z" fill="#124D73"/>
<path d="M44.2035 16.3353C44.2035 15.4091 44.0646 14.7144 43.7867 14.1124C43.7867 13.7882 44.0646 13.0009 44.574 11.7505C44.6666 11.6116 44.713 11.519 44.7593 11.519C44.8056 11.519 44.8519 11.6116 44.9445 11.7505C45.1298 12.0747 45.4539 12.9546 46.0097 14.3902C46.5654 15.8722 46.9359 16.8447 47.0285 17.1689C47.1211 17.4468 47.1211 17.632 47.1211 17.7709C47.1211 18.1877 46.7043 17.9099 45.917 17.03C45.8244 16.891 45.7781 16.9373 45.7781 17.2152C45.7781 17.3078 45.9633 20.1791 46.3801 25.8753C46.7969 31.5715 46.9822 34.767 46.9822 35.4616C46.9822 37.6846 46.658 39.5833 46.0097 41.2505C45.8707 41.5747 45.7318 41.8062 45.6855 41.9452C45.5465 42.1767 45.4539 42.223 45.4539 42.0841C45.4076 41.8988 45.4076 41.5284 45.5002 41.0189C45.5929 40.278 45.6392 39.3981 45.6392 38.3792C45.6392 37.453 45.4076 33.7481 44.9445 27.2646C44.4351 20.7811 44.2035 17.1226 44.2035 16.3353Z" fill="#124D73"/>
</svg>
