<svg width="49" height="49" viewBox="0 0 49 49" fill="none" xmlns="http://www.w3.org/2000/svg">
<path d="M13.0196 20.121C14.0133 21.7627 15.6551 24.8735 17.9449 29.3667C20.0619 33.5575 21.4013 36.0634 22.0061 36.9274C22.7838 38.094 23.5183 38.9148 24.1663 39.3037C24.9008 39.7789 25.9377 39.9949 27.1906 39.9949V42.4144C25.8945 42.4144 24.7712 42.112 23.8639 41.5503C22.7406 40.859 21.6173 39.6061 20.5804 37.8347C20.0619 36.9706 19.5003 35.9337 18.8954 34.7672C18.8954 35.7609 18.7658 36.6682 18.4634 37.5323C17.9449 39.0012 16.5624 40.427 14.359 41.8527C11.7235 43.5809 8.87202 44.4018 5.89092 44.4018C3.68751 44.4018 2.08895 43.7537 1.09525 42.4144C0.403984 41.5071 0.0583496 40.427 0.0583496 39.1309C0.0583496 37.6187 0.403984 36.193 1.13846 34.8968C1.39768 34.4648 1.5705 34.292 1.65691 34.292C1.65691 34.292 1.70011 34.3352 1.70011 34.3784C1.70011 34.508 1.65691 34.724 1.5273 35.0697C1.35448 35.5449 1.18166 36.0202 1.00884 36.4954C0.792822 37.1003 0.706414 37.7051 0.706414 38.3964C0.706414 39.1741 1.09525 39.9085 1.82973 40.5566C2.86663 41.4639 4.33557 41.9391 6.36617 41.9391C8.56959 41.9391 10.8594 41.3343 13.1924 40.1678C15.4391 39.0445 16.9944 37.7051 17.9881 36.2362C18.1609 35.8905 18.2473 35.5017 18.2473 35.0265C18.2473 34.1624 17.9449 33.0823 17.3833 31.7861C17.0376 30.9221 16.26 29.3235 15.0502 26.9905C13.8837 24.787 13.0628 23.0589 12.6308 21.8924C12.5444 21.7195 12.5444 21.4171 12.5444 20.9851C12.5444 19.3433 12.7604 18.3064 13.2357 17.9176C14.6182 16.6646 17.5561 14.9797 22.0925 12.9491C26.7154 10.8321 29.6965 9.79517 31.1654 9.79517C31.5975 9.79517 31.8999 9.88157 32.0727 10.0544C32.2455 10.2272 32.3319 10.5296 32.3319 10.9617C32.3319 11.9122 31.7703 13.1219 30.6038 14.5476C30.1717 15.0229 29.7397 15.5413 29.2644 16.0166C28.5732 16.8375 28.1411 17.4855 27.8819 18.004C27.7523 18.3496 27.6227 18.5224 27.5795 18.5224C27.5363 18.5224 27.5795 18.3064 27.6659 17.8312C27.7091 17.5719 27.9251 17.1399 28.2275 16.535C28.53 15.9734 28.746 15.5845 28.9188 15.4549C30.2149 13.986 30.9926 12.9923 31.2518 12.5602C31.295 12.517 31.295 12.4738 31.295 12.3874C31.295 12.1282 30.9494 11.9554 30.2149 11.9554C29.0916 11.9554 26.3697 12.9491 22.1357 14.8933C17.9017 16.8807 14.9206 18.5224 13.2357 19.8186C12.9764 19.8618 12.9332 19.9914 13.0196 20.121Z" fill="#124D73"/>
<path d="M32.9369 5.21542C32.9369 5.38824 32.7209 5.77708 32.2888 6.38194C31.7704 7.07321 31.2951 7.59166 30.8631 7.89409C30.6039 8.11011 29.6534 8.41254 28.0548 8.84458C27.7524 8.88778 27.6228 8.93099 27.6228 8.93099C27.666 8.88778 27.7524 8.80138 27.9252 8.67176C28.1412 8.49895 28.7029 8.19652 29.6534 7.72127C30.5607 7.24602 31.0359 6.94359 31.2087 6.81398C31.2519 6.77078 31.2519 6.72757 31.2519 6.72757C31.2519 6.51155 30.4743 6.42514 28.8757 6.42514C28.8757 6.42514 28.5733 6.42514 27.9684 6.46835C27.666 6.51155 27.4932 6.46835 27.4932 6.42514C27.4932 6.38194 27.5364 6.29553 27.6228 6.16592L28.1844 5.21542C28.3572 4.91299 28.6597 4.74018 29.0917 4.69697C29.2213 4.65377 29.6102 4.65377 30.1718 4.65377C32.0296 4.61056 32.9369 4.82658 32.9369 5.21542Z" fill="#124D73"/>
<path d="M34.9242 41.9822C33.7145 41.9822 32.8072 41.507 32.2888 40.5997C31.9431 40.038 31.7271 39.0443 31.5975 37.7482C31.4679 39.5196 30.8198 40.7725 29.6965 41.5934C28.9188 42.155 28.0547 42.4143 27.1042 42.4143V39.9948C28.7028 39.9948 29.8261 39.5196 30.431 38.5691C30.9062 37.8778 31.1654 36.6681 31.1654 34.9831C31.1654 30.2739 30.9494 26.2559 30.5606 22.9723C30.5174 22.5403 30.2582 20.9417 29.8261 18.2631C29.9989 17.2694 30.1285 16.5349 30.3014 16.1461C30.3878 15.9732 30.431 15.8868 30.4742 15.8868C30.5174 15.8868 30.6038 15.9732 30.647 16.1461C31.1655 17.8742 31.5975 20.0777 31.9431 22.7131C32.1591 24.4845 32.332 27.2496 32.4184 31.0083C32.5048 34.3783 32.6344 36.4953 32.8072 37.273C33.0232 38.1802 33.2825 38.8283 33.7145 39.1739C34.0169 39.39 34.4058 39.5196 34.9674 39.5196L34.9242 41.9822Z" fill="#124D73"/>
<path d="M42.2257 25.3918C42.3121 25.1758 42.3121 24.9166 42.2689 24.7005C42.2257 24.4413 42.096 24.3117 41.9232 24.3117C41.8368 24.3117 41.7072 24.3549 41.5776 24.4413C41.4048 24.5277 41.3616 24.6141 41.3616 24.7005C41.3184 24.8733 41.6208 25.0894 42.2257 25.3918ZM41.7504 26.4287C41.0159 26.0399 40.6271 25.651 40.6271 25.219C40.6271 24.7005 40.8863 24.2253 41.3616 23.7932C41.8368 23.3612 42.2257 23.2316 42.5281 23.318C42.7873 23.4044 42.9169 23.7068 42.9169 24.1821C42.9169 24.6141 42.8305 25.0894 42.6577 25.651C43.0465 25.867 43.2626 26.0831 43.349 26.2127C43.349 26.4287 43.1762 26.7311 42.8305 27.2496C42.7441 27.0768 42.4849 26.9039 42.1393 26.6879C41.7072 27.2496 41.1888 27.8112 40.5407 28.2433C39.8062 28.8049 39.115 29.1938 38.5101 29.4962C38.3805 29.5826 37.646 29.8418 36.3499 30.3171C36.1339 30.4035 36.0042 30.4467 35.9178 30.4467C35.8746 30.4467 35.8746 30.4467 35.8746 30.4035C35.8746 30.3603 36.0042 30.2307 36.2203 30.1011C37.1708 29.5394 38.1645 28.9778 39.115 28.3729C40.3679 27.6816 41.1888 27.0336 41.7504 26.4287Z" fill="#124D73"/>
<path d="M43.1327 40.8158C43.4784 40.8158 43.6512 40.6862 43.6512 40.5134C43.6512 40.2542 43.4352 40.0382 43.0463 39.9085C42.5711 39.6925 41.9662 39.6925 41.1453 39.8221C41.7502 40.4702 42.3983 40.8158 43.1327 40.8158ZM34.8375 41.9824V39.5629C35.8744 39.5629 37.1706 39.1309 38.7691 38.31C38.7259 38.094 38.8555 37.9644 39.158 37.8347C39.5036 37.7051 39.7196 37.7051 39.806 37.9212C40.8861 37.5755 41.7934 37.3595 42.4847 37.3595C43.1759 37.3595 43.7376 37.6619 44.1264 38.2236C44.5153 38.7852 44.7313 39.5629 44.7313 40.5134C44.7313 41.2911 44.5585 41.9392 44.2129 42.4576C43.8672 42.9761 43.392 43.2353 42.8303 43.2353C41.5774 43.2353 40.4109 42.2848 39.374 40.3406C37.5162 41.4207 35.9608 41.9824 34.8375 41.9824Z" fill="#124D73"/>
<path d="M40.1948 10.4431C40.1948 10.6159 39.9788 11.0047 39.5468 11.6096C39.0283 12.3009 38.5531 12.8193 38.121 13.1217C37.8618 13.3378 36.9113 13.6402 35.3128 14.0722C35.0103 14.1154 34.8807 14.1587 34.8807 14.1587C34.9239 14.1154 35.0103 14.029 35.1831 13.8994C35.3992 13.7266 35.9608 13.4242 36.9113 12.9489C37.8186 12.4737 38.2938 12.1713 38.4667 12.0416C38.5099 11.9984 38.5099 11.9552 38.5099 11.9552C38.5099 11.7392 37.7322 11.6528 36.1336 11.6528C36.1336 11.6528 35.8312 11.6528 35.2263 11.696C34.9239 11.7392 34.7511 11.696 34.7511 11.6528C34.7511 11.6096 34.7943 11.5232 34.8807 11.3936L35.4424 10.4431C35.6152 10.1407 35.9176 9.96784 36.3497 9.92463C36.4793 9.88143 36.8681 9.88143 37.4298 9.88143C39.2875 9.83822 40.1948 10.0542 40.1948 10.4431Z" fill="#124D73"/>
<path d="M38.6827 38.2667C38.2074 36.2361 37.7322 32.7365 37.3434 27.7248C37.1273 24.6573 36.9977 21.8923 36.9977 19.516C36.9977 18.7383 36.8681 18.0903 36.6089 17.5718C36.6089 17.3126 36.8681 16.6213 37.3002 15.5412C37.3434 15.4116 37.3866 15.3684 37.4298 15.3684C37.473 15.3684 37.5594 15.4548 37.6026 15.5844C37.7322 15.8437 38.0346 16.6213 38.5099 17.8743C38.9851 19.1704 39.2876 19.9913 39.374 20.2505C39.4604 20.4665 39.4604 20.6393 39.4604 20.7257C39.4604 21.1146 39.1147 20.8986 38.4235 20.0777C38.3371 19.9913 38.2939 20.0345 38.2939 20.2505C38.2939 21.3306 38.4235 23.8364 38.6395 27.8544C38.9419 32.9957 39.3308 36.2793 39.8492 37.7482C39.8492 37.8346 39.6764 37.921 39.374 38.0938C39.0715 38.2667 38.8123 38.3099 38.6827 38.3099C38.7259 38.2667 38.6827 38.2667 38.6827 38.2667Z" fill="#124D73"/>
<path d="M45.5524 20.9849C45.5524 20.2072 45.4228 19.5591 45.1636 19.0839C45.1636 18.7815 45.3796 18.1334 45.8548 17.0533C45.9413 16.9237 45.9845 16.8373 46.0277 16.8373C46.0709 16.8373 46.1141 16.9237 46.2005 17.0533C46.3301 17.3557 46.6325 18.0902 47.1078 19.3431C47.583 20.6393 47.8854 21.4601 47.9719 21.7194C48.0583 21.9354 48.0583 22.1082 48.0583 22.2378C48.0583 22.5834 47.7126 22.3674 47.0214 21.5897C46.935 21.4601 46.8917 21.5033 46.8917 21.7194C46.8917 21.8058 47.0646 24.2684 47.4102 29.1937C47.7558 34.119 47.9286 36.8841 47.9286 37.4889C47.9286 39.3899 47.6694 41.0317 47.0646 42.4574C46.9349 42.7598 46.8485 42.9327 46.7621 43.0623C46.6325 43.2783 46.5893 43.3215 46.5461 43.1919C46.5029 43.0191 46.5029 42.7166 46.5893 42.2846C46.6757 41.6365 46.7189 40.8589 46.7189 39.9948C46.7189 39.2171 46.5029 36.02 46.1141 30.4034C45.7252 24.7869 45.5524 21.633 45.5524 20.9849Z" fill="#124D73"/>
</svg>
