<svg width="48" height="49" viewBox="0 0 48 49" fill="none" xmlns="http://www.w3.org/2000/svg">
<path d="M6.01269 38.8042C3.82626 38.8042 2.22548 38.0623 1.1713 36.5787C0.390435 35.4464 0 34.0018 0 32.2449C0 31.6982 0.0390432 31.1516 0.11713 30.6441C0.273304 29.8242 0.429478 29.0823 0.702782 28.4967C0.780869 28.3015 0.858957 28.1843 0.937044 28.1843C1.01513 28.1843 1.01513 28.3015 0.976086 28.5357C0.663739 30.3708 0.468522 31.4249 0.468522 31.6592C0.468522 32.7915 0.858955 33.8066 1.60078 34.7436C2.61591 35.993 4.06052 36.6177 6.01269 36.6177C7.73061 36.6177 9.48756 36.2273 11.4007 35.4464C12.9624 34.7827 14.3289 34.0018 15.5783 33.0648C16.7106 32.2058 17.2572 31.6202 17.2572 31.2297C17.2572 30.1756 16.9058 29.0042 16.2421 27.7549C16.0859 27.4816 16.0469 27.2863 16.0469 27.1302C16.0469 27.013 16.203 26.5055 16.4763 25.5684C16.5544 25.4123 16.5935 25.3342 16.6716 25.3342C16.7496 25.3342 16.8277 25.4513 16.9449 25.6856C17.4915 26.8569 18.2333 27.4425 19.1313 27.4425C19.6779 27.4425 20.1074 27.4035 20.3807 27.2863C20.8102 27.1692 21.2396 26.8569 21.6691 26.4274C21.9424 26.076 22.3329 25.6075 22.8404 24.9437C22.9576 24.7876 23.0747 24.7095 23.1918 24.7095C23.348 24.7095 23.4261 24.7876 23.4261 24.9437C23.4261 25.0218 23.387 25.178 23.3089 25.3732C23.2309 25.5684 23.1918 25.7246 23.1918 25.8417C23.1918 26.0369 23.3089 26.2712 23.5432 26.5055C23.8556 26.8178 24.246 26.974 24.6755 26.974C25.3782 26.974 26.081 26.115 26.8229 24.4362C26.9009 24.28 26.979 24.2019 27.0571 24.2019C27.2133 24.2019 27.2914 24.319 27.2523 24.5533C27.2133 24.7095 27.2133 24.8656 27.2133 25.0218C27.2133 26.0369 27.7989 26.5445 28.9312 26.5445V28.7309C27.7989 28.7309 27.0571 28.1453 26.6667 26.974C26.6276 26.8178 26.5886 26.8178 26.5496 26.974C26.0029 28.4186 25.2611 29.1604 24.285 29.1604C23.9336 29.1604 23.5432 29.0433 23.1918 28.77C22.8014 28.4967 22.489 28.1063 22.3329 27.6377C22.2938 27.4816 22.2157 27.4816 22.1376 27.6377C21.9424 27.9501 21.552 28.3405 21.0835 28.7309C20.3416 29.2776 19.6389 29.5509 18.9361 29.5509C18.6237 29.5509 18.3114 29.5118 18.1162 29.4337C18.1162 31.3078 17.7257 32.7134 16.9839 33.5333C16.0078 34.6656 14.6023 35.7588 12.7282 36.8129C10.2684 38.1404 8.082 38.8042 6.01269 38.8042Z" fill="#124D73"/>
<path d="M25.7686 13.0746C27.7988 12.3328 29.9853 11.5519 32.2498 10.693C32.3669 10.6539 32.445 10.6149 32.445 10.6539C32.4841 10.693 32.4841 10.7711 32.406 10.8491C32.2498 11.1615 32.1717 11.3567 32.0936 11.4348C30.1805 12.1376 27.916 12.9965 25.3391 14.0898C25.4562 13.7774 25.5734 13.426 25.7686 13.0746Z" fill="#124D73"/>
<path d="M29.8683 33.4943C29.8293 33.4552 29.8293 33.4162 29.8683 33.3381L30.5711 31.8935C30.6102 31.8154 30.6492 31.7764 30.7273 31.7764C30.8054 31.7764 31.1177 31.9716 31.6643 32.362C32.2109 32.7525 32.4842 32.9867 32.4842 33.0648C32.4842 33.2991 32.25 33.8066 31.7424 34.5875C31.6643 34.7046 31.6253 34.7046 31.5472 34.6656C31.0396 34.2751 30.454 33.8457 29.8683 33.4943Z" fill="#124D73"/>
<path d="M31.0395 25.8418C30.8833 26.7398 30.61 27.4426 30.1805 27.9892C29.7901 28.4968 29.3606 28.7311 28.8921 28.7311V26.5056C29.9853 26.5056 30.5319 26.0371 30.5319 25.061C30.5319 24.8267 30.4538 24.2411 30.2586 23.265C30.0243 22.2498 29.8291 21.4299 29.5949 20.7662C29.4777 20.4538 29.4387 20.2977 29.4387 20.2586C29.4387 19.3997 29.5558 18.7359 29.7901 18.2284C29.8682 18.0331 29.9463 17.916 29.9853 17.916C30.0244 17.916 30.1024 17.9941 30.1805 18.1503C30.6881 19.1264 31.1176 20.7662 31.547 23.1088C31.7813 24.5144 32.1327 25.4514 32.6403 25.959C32.9526 26.3104 33.4602 26.4665 34.0458 26.4665V28.692C33.3821 28.692 32.7574 28.4577 32.2498 28.0283C31.6251 27.5207 31.2347 26.8179 31.0395 25.8418Z" fill="#124D73"/>
<path d="M35.5294 12.3327C37.5597 11.5909 39.7461 10.81 42.0106 9.95109C42.1277 9.91205 42.2058 9.873 42.2058 9.91205C42.2449 9.95109 42.2449 10.0292 42.1668 10.1073C42.0106 10.4196 41.9325 10.6148 41.8544 10.6929C39.9413 11.3957 37.6768 12.2547 35.0999 13.3479C35.2561 13.0355 35.3732 12.6841 35.5294 12.3327Z" fill="#124D73"/>
<path d="M47.9065 21.9375L47.1647 23.4602C47.0866 23.6163 46.9695 23.7335 46.7743 23.8116C45.7591 24.202 44.4317 24.7876 42.7528 25.5685C40.1759 26.7398 38.8094 27.3645 38.6923 27.4036C36.7401 28.3016 35.1003 28.731 33.8509 28.731V26.5056C35.3736 26.5056 36.662 26.2713 37.7162 25.7637C36.8182 25.2952 36.0764 24.6315 35.4517 23.8116C34.6708 22.7574 34.2413 21.6251 34.2413 20.4148C34.2413 19.1654 34.6708 18.1893 35.5298 17.3694C36.5449 16.4714 37.7552 16.0029 39.1218 16.0029C39.9807 16.0029 40.8787 16.1981 41.8158 16.5495C42.5185 16.8228 43.1042 17.1742 43.5727 17.4865C43.9631 17.7989 44.1584 17.955 44.1584 18.0331C44.1584 18.0722 44.1193 18.0722 44.0803 18.0722C44.0022 18.0722 43.846 18.0331 43.5727 17.955C42.8309 17.7598 41.9719 17.6427 40.9958 17.6427C39.6684 17.6427 38.3409 17.8379 37.1305 18.1893C35.9592 18.5407 35.2955 18.8921 35.2174 19.2825C35.3345 20.2586 35.9202 21.2737 36.9744 22.367C38.1847 23.6163 39.4732 24.2801 40.8397 24.241C41.2301 24.241 42.1281 23.9677 43.4556 23.3821C46.0325 22.2498 47.399 21.6642 47.5161 21.6251C47.7504 21.508 47.9065 21.508 47.9456 21.547C48.0237 21.5861 48.0237 21.7032 47.9065 21.9375Z" fill="#124D73"/>
</svg>
