<svg width="48" height="31" viewBox="0 0 48 31" fill="none" xmlns="http://www.w3.org/2000/svg">
<path d="M45.8759 4.44024C45.8759 3.75595 45.7761 3.21422 45.5622 2.75802C45.5622 2.51567 45.7333 1.93117 46.1467 1.04729C46.1752 0.947501 46.218 0.876221 46.2465 0.876221C46.3178 0.876221 46.3463 0.947501 46.4176 1.04729C46.5174 1.28965 46.7597 1.93117 47.1732 3.00038C47.6151 4.12661 47.8575 4.8109 47.9287 5.08177C48 5.25284 48 5.42391 48 5.49519C48 5.80883 47.7292 5.63775 47.1161 4.95346C47.0449 4.85367 47.0163 4.92495 47.0163 5.09602C47.0163 5.1673 47.1874 7.29146 47.5011 11.5255C47.8147 15.7311 47.943 18.0976 47.943 18.6393C47.943 20.2502 47.7006 21.6901 47.2302 22.9161C47.0876 23.1585 47.0306 23.3296 46.9593 23.4579C46.8595 23.6289 46.8168 23.6289 46.7882 23.5291C46.7597 23.3866 46.7883 23.1157 46.8168 22.7451C46.888 22.1606 46.9166 21.519 46.9166 20.792C46.9166 20.1077 46.7455 17.3705 46.4033 12.552C46.0469 7.7334 45.8759 5.02474 45.8759 4.44024Z" fill="#124D73"/>
<path d="M44.5288 16.4478C44.5288 18.4709 44.1427 20.038 43.3853 21.2063C42.7468 22.1608 41.9894 22.6737 41.143 22.6737V20.5937C41.8261 20.5937 42.4943 20.323 43.1329 19.8101C43.3111 19.6676 43.415 19.0977 43.415 18.1289C43.415 17.5448 43.2368 15.1941 42.9101 11.0909C42.5834 6.98778 42.4498 4.56579 42.4498 3.8107C42.4498 3.15534 42.3458 2.61395 42.1231 2.17229C42.1231 1.93009 42.331 1.34597 42.7319 0.434157C42.7616 0.334428 42.8062 0.291687 42.8804 0.291687C42.9101 0.291687 42.9547 0.320181 43.0289 0.462651C43.1329 0.70485 43.415 1.34597 43.8457 2.41449C44.2763 3.54 44.5288 4.22386 44.6327 4.46606C44.6624 4.66552 44.707 4.83648 44.707 4.90772C44.707 5.22115 44.3803 5.05019 43.7863 4.36633C43.712 4.2951 43.6823 4.33784 43.6823 4.5088C43.6823 4.5373 43.8308 6.38941 44.113 10.0081C44.3803 13.5699 44.5288 15.7212 44.5288 16.4478Z" fill="#124D73"/>
<path d="M30.8221 21.2374C31.6809 21.2374 32.5111 20.9205 33.2984 20.2723C33.37 20.2435 33.6705 19.8978 34.2574 19.2641C34.7727 18.7167 35.0876 18.4286 35.1162 18.4286C35.2594 18.4286 35.2594 18.5295 35.1878 18.8031C35.0447 19.12 35.016 19.3217 35.016 19.4225C35.016 19.6674 35.1162 19.941 35.3309 20.2579C35.5743 20.6756 35.9464 20.8773 36.3615 20.8773C37.5353 20.8773 38.4943 20.0419 39.3102 18.3854C39.4104 18.2126 39.4819 18.1118 39.6251 18.1118C39.6967 18.1118 39.7682 18.2126 39.7682 18.3566C39.7682 18.4286 39.7396 18.5295 39.7396 18.6303C39.711 18.7743 39.711 18.8752 39.711 18.904C39.711 19.3937 39.8827 19.797 40.1547 20.1139C40.4696 20.3876 40.8418 20.5604 41.2855 20.5604V22.6634C40.2549 22.6634 39.4963 21.972 39.0239 20.618C38.9953 20.4452 38.9237 20.4452 38.8521 20.618C38.2366 22.1736 37.3778 22.9658 36.2757 22.9658C35.1735 22.9658 34.5294 22.2457 34.286 20.8197C34.286 20.7188 34.2574 20.6468 34.2574 20.6468C34.2288 20.6468 34.1858 20.7188 34.1143 20.8197C33.8423 21.2662 33.4558 21.7127 32.9405 22.2024C32.0817 22.9226 31.2515 23.3115 30.4356 23.3115C29.5482 23.3115 28.9184 23.0379 28.5462 22.4761C28.3458 22.1304 28.2027 21.6119 28.174 20.9493C28.174 20.8773 28.1454 20.8485 28.0738 20.8053C27.9737 20.8341 27.8735 20.8773 27.7589 21.0069C27.0433 21.8423 26.5852 22.3177 26.3848 22.4905C25.4974 23.2827 24.567 23.6716 23.6079 23.6716V21.5687C24.6385 21.5687 25.526 21.295 26.2846 20.7333C26.5995 20.5316 27.2866 19.869 28.3744 18.7599C28.5176 18.6159 28.6178 18.5871 28.7466 18.5583C28.9184 18.5871 28.9899 18.7023 28.9184 18.9328C28.8182 19.2064 28.7752 19.4513 28.7752 19.653C28.7752 20.1427 28.9756 20.5172 29.3621 20.7909C29.7199 21.0933 30.2352 21.2374 30.8221 21.2374Z" fill="#124D73"/>
<path d="M19.1884 21.7186C18.6467 22.0607 17.3066 22.6737 15.1825 23.5719V21.6901C15.8668 21.4192 16.7934 21.0343 17.9482 20.5211C16.993 19.5232 16.1661 19.0099 15.4106 19.0099C14.8974 19.0099 14.5267 19.0812 14.2843 19.2523C14.1846 19.2808 14.1133 19.3236 14.042 19.3236C13.9707 19.3236 13.9422 19.2951 13.9422 19.181C13.9422 19.1097 13.9422 19.0384 14.0135 18.9387L14.6265 17.4988C14.7263 17.2279 15.3393 16.9571 16.4085 16.7147C17.4635 16.4724 18.4614 16.3726 19.4165 16.3726C20.3432 16.3726 21.2698 16.5151 22.225 16.8145C22.9093 17.0569 23.451 17.3277 23.9072 17.5986C24.1781 17.7697 24.3491 17.9407 24.3491 18.012C24.3491 18.0833 24.2779 18.2116 24.2066 18.3542L23.4938 19.6229C22.9093 19.8653 22.0539 20.236 20.9562 20.7919C21.4979 21.3337 22.4246 21.6188 23.6649 21.576V23.7002C22.7382 23.7002 22.0254 23.6004 21.612 23.4293C21.0417 23.2297 20.2434 22.6452 19.1884 21.7186ZM21.4837 18.7818C21.0417 18.4682 20.2149 18.2971 18.9889 18.2971C18.6467 18.2971 18.3331 18.3256 18.0622 18.3684C18.9176 18.9529 19.4593 19.3663 19.7444 19.6657C20.1864 19.4376 20.7566 19.1525 21.4837 18.7818Z" fill="#124D73"/>
<path d="M8.72498 25.4822C9.43779 24.6554 10.4072 23.9426 11.6047 23.2868C12.289 22.9161 13.4865 22.3601 15.1972 21.6473V23.5291C14.0995 24.0139 13.3154 24.356 12.8022 24.5841C11.7473 25.0973 11.0202 25.468 10.6496 25.7816C9.93675 26.3233 8.86754 27.3925 7.49896 28.9607C6.67211 29.9159 5.85951 30.4006 5.03266 30.4006C4.34836 30.4006 3.73535 30.0869 3.22213 29.4454C2.6804 28.8324 2.43805 28.0056 2.43805 27.0789C2.43805 25.8101 2.95127 24.1422 4.00622 22.0465C4.10601 21.8469 4.2058 21.7329 4.27708 21.7329C4.27708 21.7329 4.3056 21.7614 4.3056 21.8042C4.3056 22.0037 4.06324 22.7308 3.6213 23.9568C3.1366 25.2256 2.9085 26.1808 2.9085 26.8936C2.9085 27.4353 3.05106 27.8915 3.32193 28.1909C3.59279 28.5615 3.97771 28.7326 4.44816 28.7326C5.30352 28.7326 6.1874 28.2907 7.04277 27.4353C7.62726 26.8223 8.16899 26.138 8.72498 25.4822Z" fill="#124D73"/>
<path d="M7.65534 5.92287C7.65534 5.26709 7.55555 4.72536 7.34171 4.28342C7.34171 4.04106 7.51278 3.45656 7.92621 2.54417C7.95472 2.44438 7.99749 2.40161 8.026 2.40161C8.09728 2.40161 8.12579 2.43013 8.19707 2.57269C8.29686 2.81504 8.53922 3.45656 8.95264 4.52577C9.39458 5.652 9.63694 6.33629 9.70822 6.57865C9.7795 6.77823 9.80801 6.92079 9.80801 7.02058C9.80801 7.33422 9.49438 7.16315 8.92413 6.47885C8.85285 6.37906 8.82434 6.40757 8.82434 6.62141C8.82434 6.64993 8.9669 8.5745 9.26628 12.3381C9.57991 16.1302 9.75099 18.2544 9.75099 18.8104C9.75099 20.4213 9.48012 21.8612 8.99541 23.0872C8.89562 23.3295 8.79583 23.5006 8.72455 23.6289C8.62475 23.7715 8.58198 23.8 8.55347 23.7002C8.52496 23.5576 8.52496 23.2868 8.58198 22.8734C8.65326 22.3316 8.68178 21.6758 8.68178 20.963C8.68178 20.2787 8.5107 17.7839 8.16856 13.4073C7.82641 9.00218 7.65534 6.49311 7.65534 5.92287Z" fill="#124D73"/>
<path d="M6.52918 17.2137C6.52918 17.3135 6.35811 17.6556 6.04448 18.2401C5.80212 18.4112 5.21762 18.7533 4.30523 19.2666C3.10772 19.9223 2.05277 20.5353 1.15464 21.0771C0.841004 21.2481 0.669931 21.3479 0.612906 21.3479C0.541626 21.3479 0.541626 21.3194 0.541626 21.2482C0.541626 21.0771 0.684186 20.6637 1.02633 20.0221C1.16889 19.8796 1.53955 19.6087 2.08128 19.238C1.71063 18.9957 1.46827 18.8674 1.36848 18.7533C1.09761 18.511 0.955052 18.2116 0.955052 17.8695C0.955052 17.285 1.36848 16.6007 2.18108 15.8451C2.93665 15.1323 3.54966 14.7474 3.9916 14.7474C4.23395 14.7474 4.43354 14.8472 4.60461 15.061C4.74717 15.2321 4.84696 15.5029 4.84696 15.8166C4.84696 16.0874 4.74717 16.3583 4.53333 16.6719C4.36226 16.9143 4.19118 17.0426 4.04862 17.0426C4.02011 17.0426 3.90606 16.9428 3.80627 16.6719C3.70648 16.4011 3.56392 16.3013 3.39284 16.3013C3.15049 16.3013 2.85111 16.3726 2.4662 16.5722C2.05277 16.7717 1.85319 16.9143 1.85319 16.9856C1.85319 17.1567 2.05277 17.3562 2.50897 17.5986C3.02219 17.8695 3.5354 18.012 4.02011 18.012C4.33374 17.9835 4.77568 17.7697 5.3887 17.4988C5.90191 17.2279 6.24406 17.0854 6.34385 17.0854C6.4579 17.0711 6.52918 17.0996 6.52918 17.2137Z" fill="#124D73"/>
<path d="M33.9724 15.0895L34.5141 13.9917C34.5426 13.892 34.5854 13.8492 34.6566 13.8492C34.7279 13.8492 34.9988 14.0203 35.5405 14.3909C36.0537 14.7616 36.3246 14.9754 36.3246 15.0467C36.3246 15.289 36.0823 15.7595 35.6403 16.5151C35.569 16.6149 35.4978 16.6149 35.4407 16.5864C34.9988 16.2442 34.4856 15.9021 33.9011 15.5314C33.7015 15.9448 33.5304 16.3155 33.3166 16.6291C33.2881 16.7289 33.2168 16.7717 33.1455 16.7289C32.6323 16.3155 32.0906 15.9448 31.5346 15.6027C31.5061 15.5742 31.5061 15.5314 31.5346 15.4601L32.1903 14.0915C32.2189 14.0203 32.2901 13.949 32.3329 13.949C32.4042 13.949 32.6465 14.12 33.0885 14.4337C33.5304 14.7045 33.8298 14.9469 33.9724 15.0895ZM32.0906 12.9653C32.062 12.9368 32.062 12.894 32.0906 12.8227L32.7748 11.4542C32.8034 11.3829 32.8461 11.3544 32.9174 11.3544C32.9887 11.3544 33.2596 11.5254 33.8013 11.8676C34.3145 12.2382 34.5854 12.4521 34.5854 12.5234C34.5854 12.7657 34.343 13.2362 33.9011 13.9917C33.8298 14.0915 33.7585 14.1343 33.7015 14.063C33.1883 13.6781 32.6323 13.3075 32.0906 12.9653Z" fill="#124D73"/>
<path d="M33.8295 8.00422C33.8295 8.27509 33.7582 8.58872 33.6299 8.85959C33.4589 9.23025 33.2593 9.44409 33.0169 9.44409C32.6035 9.44409 32.3326 9.17322 32.1616 8.61723C31.962 9.30153 31.6198 9.67218 31.1066 9.67218C30.9355 9.67218 30.7645 9.57239 30.6219 9.35855C30.4508 9.15897 30.3795 8.84533 30.3795 8.50319V7.61931C30.3795 7.54803 30.3083 7.51952 30.237 7.47675C30.1372 7.44824 30.0944 7.37696 30.0944 7.27716C30.0944 7.07758 30.1657 6.9065 30.294 6.73543C30.4366 6.56436 30.5364 6.49308 30.6076 6.49308C30.7074 6.49308 30.7787 6.66415 30.7787 7.03481C30.7787 7.23439 30.7502 7.40547 30.7502 7.54803C30.7217 7.69059 30.7217 7.79038 30.7217 7.89017C30.7217 8.08976 30.7502 8.3036 30.8215 8.47467C30.9213 8.67426 31.0638 8.81682 31.1921 8.81682C31.3917 8.81682 31.5628 8.71703 31.7339 8.54595C31.9049 8.37488 32.0047 8.1753 32.0047 7.93294C32.0047 7.79038 31.9335 7.5908 31.8622 7.24865C31.7624 6.93502 31.7196 6.73543 31.7196 6.66415C31.7196 6.59287 31.7481 6.49308 31.8194 6.322C31.8907 6.17944 31.962 6.12242 31.9905 6.12242C32.0618 6.12242 32.133 6.322 32.2328 6.73543C32.3326 7.17737 32.4039 7.491 32.4039 7.69059C32.4039 8.27509 32.6035 8.57447 33.0597 8.57447C33.2593 8.57447 33.4018 8.47467 33.4303 8.26083C33.0597 7.57654 32.8458 7.06332 32.8458 6.69266C32.8458 6.49308 32.8744 6.322 33.0169 6.15093C33.0882 6.05114 33.1167 5.97986 33.1595 5.97986C33.188 5.97986 33.2308 6.05114 33.2308 6.17944C33.2593 6.35052 33.302 6.52159 33.3306 6.66415C33.3306 6.66415 33.4303 6.9065 33.6014 7.37696C33.7582 7.66208 33.8295 7.86166 33.8295 8.00422Z" fill="#124D73"/>
<path d="M31.3351 2.87204C31.4064 2.67245 31.4064 2.45861 31.3637 2.25902C31.3352 2.05944 31.2211 1.94539 31.05 1.94539C30.9787 1.94539 30.879 1.9739 30.7364 2.04518C30.5938 2.11646 30.5368 2.18775 30.5368 2.24477C30.5511 2.4301 30.8219 2.62968 31.3351 2.87204ZM30.9217 3.75591C30.2659 3.41377 29.9666 3.07162 29.9666 2.70096C29.9666 2.25903 30.1662 1.8456 30.5796 1.50345C30.993 1.1328 31.3351 0.990233 31.606 1.09003C31.8484 1.16131 31.9482 1.40366 31.9482 1.80283C31.9482 2.17349 31.8769 2.58692 31.7058 3.07162C32.048 3.2427 32.2475 3.41377 32.3188 3.55633C32.3188 3.7274 32.1763 4.04104 31.8769 4.44021C31.8056 4.29765 31.606 4.12657 31.2924 3.9555C30.9217 4.46872 30.4655 4.91066 29.9238 5.32408C29.268 5.76602 28.6978 6.15094 28.1846 6.35052C28.042 6.4218 27.429 6.66416 26.3313 7.06333C26.1602 7.13461 26.0176 7.16312 25.9891 7.16312C25.9606 7.16312 25.9606 7.13461 25.9606 7.13461C25.9606 7.1061 26.0319 6.99204 26.2315 6.89225C27.0583 6.37903 27.8709 5.89433 28.7263 5.42388C29.7242 4.82512 30.4513 4.26913 30.9217 3.75591Z" fill="#124D73"/>
<path d="M17.5495 12.2811C20.9994 10.9838 24.592 9.68649 28.2985 8.3179C28.3983 8.28939 28.4696 8.24663 28.4696 8.2894C28.4981 8.2894 28.4981 8.36067 28.4696 8.46047C28.3271 8.7741 28.2273 8.94518 28.156 9.0022C28.1275 9.03071 26.374 9.68649 22.9953 10.9553C19.5453 12.2241 17.5922 13.0082 17.2073 13.2505C17.2786 12.9369 17.3784 12.6232 17.5495 12.2811Z" fill="#124D73"/>
<path d="M0.270867 22.4742C2.35226 21.6901 4.5762 20.8632 6.87143 20.0506C6.94271 20.0221 7.01399 19.9794 7.01399 20.0221C7.04251 20.0221 7.04251 20.0506 7.01399 20.1647C6.9142 20.407 6.81441 20.5353 6.77164 20.6066C4.81856 21.2909 2.5661 22.1748 0 23.244C0.0285122 22.9874 0.128306 22.745 0.270867 22.4742Z" fill="#124D73"/>
<path d="M39.6459 10.7414C39.6459 10.7129 39.6745 10.6701 39.6745 10.6701C39.703 10.6416 39.703 10.6416 39.703 10.6701C39.7315 10.6986 39.7315 10.7414 39.703 10.7699C39.5319 11.7963 39.2183 12.3095 38.7763 12.3095C38.3344 12.3095 38.1205 11.9389 38.1205 11.1833C38.1205 10.2567 38.3629 9.273 38.9046 8.27508C39.0472 8.03272 39.1042 7.90442 39.147 7.90442C39.147 7.93293 39.1185 8.07549 39.0472 8.31784C38.705 9.37279 38.534 10.0999 38.534 10.5418C38.534 11.0835 38.6765 11.3972 38.9759 11.3972C39.204 11.3972 39.4036 11.1548 39.6459 10.7414Z" fill="#124D73"/>
<path d="M13.6144 6.83526C13.5146 7.00633 13.4719 7.10612 13.4148 7.10612C13.3436 7.10612 13.3436 6.96356 13.3863 6.76398C13.4148 6.5929 13.4576 6.32204 13.4576 6.05117C13.4576 5.05325 12.9159 4.09809 11.7754 3.11442C11.7041 3.08591 11.7041 2.97186 11.7754 2.91483L12.089 2.3731C12.1175 2.30182 12.1603 2.30182 12.2316 2.3731C13.3293 3.15719 13.871 4.25491 13.871 5.62349C13.8568 6.05117 13.7427 6.4646 13.6144 6.83526Z" fill="#124D73"/>
</svg>
