<svg width="49" height="49" viewBox="0 0 49 49" fill="none" xmlns="http://www.w3.org/2000/svg">
<path d="M21.6459 14.5819C21.6459 13.9356 21.5382 13.433 21.3228 13.0021C21.3228 12.7508 21.5023 12.2122 21.8614 11.3504C21.9332 11.2427 21.9691 11.1709 22.005 11.1709C22.0409 11.1709 22.0768 11.2427 22.1486 11.3504C22.2563 11.6018 22.5077 12.2122 22.9026 13.2175C23.2976 14.2947 23.5489 14.941 23.6207 15.1923C23.6925 15.3719 23.6925 15.5155 23.6925 15.6232C23.6925 15.9104 23.4053 15.7309 22.8308 15.0846C22.759 14.9769 22.7231 15.0128 22.7231 15.1923C22.7231 15.2641 22.8667 17.2749 23.154 21.3322C23.4412 25.3536 23.5848 27.6157 23.5848 28.1184C23.5848 29.6623 23.3694 31.0267 22.9026 32.2116C22.7949 32.463 22.7231 32.6066 22.6513 32.7143C22.5436 32.8938 22.5077 32.9297 22.4717 32.822C22.4358 32.6784 22.4358 32.4271 22.5077 32.068C22.5795 31.5294 22.6154 30.919 22.6154 30.2009C22.6154 29.5546 22.4358 26.9335 22.1127 22.3376C21.8254 17.7416 21.6459 15.1564 21.6459 14.5819Z" fill="#124D73" stroke="#124D73" stroke-width="0.3"/>
<path d="M24.4823 27.867C26.3135 27.1848 28.2883 26.5026 30.3708 25.7126C30.4785 25.6767 30.5504 25.6408 30.5504 25.6767C30.5863 25.7126 30.5863 25.7845 30.5144 25.8563C30.3708 26.1435 30.299 26.323 30.2272 26.3589C28.5037 26.9693 26.4571 27.7952 24.1232 28.7287C24.195 28.5133 24.3028 28.226 24.4823 27.867Z" fill="#124D73" stroke="#124D73" stroke-width="0.3"/>
<path d="M26.0263 36.1612C26.7085 35.3713 27.6421 34.6891 28.7551 34.0787C29.4374 33.7196 30.5504 33.181 32.1662 32.4988V34.2941C31.1608 34.725 30.4068 35.084 29.9041 35.2995C28.8988 35.7663 28.2166 36.1253 27.8575 36.4126C27.1753 36.9511 26.1699 37.9565 24.8773 39.4645C24.0874 40.3622 23.3334 40.793 22.5435 40.793C21.8613 40.793 21.2868 40.5058 20.82 39.8954C20.3173 39.285 20.0301 38.531 20.0301 37.6333C20.0301 36.4126 20.5327 34.7968 21.5381 32.822C21.6458 32.6066 21.7176 32.4988 21.7894 32.4988C21.8254 32.5347 21.8253 32.5347 21.8253 32.5707C21.8253 32.7861 21.6099 33.4683 21.179 34.6532C20.7482 35.8381 20.5327 36.7716 20.5327 37.4538C20.5327 37.9924 20.6405 38.3874 20.8918 38.7105C21.1431 39.0696 21.5022 39.2132 21.969 39.2132C22.7948 39.2132 23.6206 38.7823 24.4465 37.9565C24.9491 37.4179 25.4877 36.7716 26.0263 36.1612Z" fill="#124D73" stroke="#124D73" stroke-width="0.3"/>
<path d="M32.0585 18.3879C32.0585 18.5315 31.879 18.8546 31.5199 19.3573C31.089 19.9318 30.73 20.3268 30.335 20.614C30.1196 20.7935 29.3297 21.0449 28.0371 21.4039C27.7857 21.4399 27.678 21.4758 27.678 21.4758C27.7139 21.4399 27.7857 21.368 27.9293 21.2603C28.1089 21.1167 28.5756 20.8654 29.3297 20.4704C30.0478 20.0754 30.4786 19.8241 30.5864 19.7164C30.6223 19.6805 30.6223 19.6446 30.6223 19.6446C30.6223 19.465 29.976 19.3932 28.6834 19.3932C28.6834 19.3932 28.432 19.3932 27.9293 19.4291C27.678 19.465 27.5344 19.4291 27.5344 19.3932C27.5344 19.3573 27.5703 19.2855 27.6421 19.1778L28.1089 18.3879C28.2525 18.1365 28.5038 17.9929 28.8629 17.957C28.9706 17.9211 29.2938 17.9211 29.7605 17.9211C31.3045 17.8852 32.0585 18.0647 32.0585 18.3879Z" fill="#124D73" stroke="#124D73" stroke-width="0.3"/>
<path d="M40.7475 29.9137C40.6039 30.3805 40.3525 30.8832 40.0653 31.4217C38.9522 32.3912 38.0187 33.0734 37.3006 33.4684C36.0439 34.1506 34.7872 34.5096 33.4946 34.5096C32.8483 34.5096 32.3815 34.4378 32.0583 34.3301L31.6634 32.3194C30.8734 31.3499 30.5144 30.4164 30.5144 29.4828C30.5144 28.0825 30.9453 26.9694 31.807 26.2154C32.561 25.5691 33.4946 25.246 34.5717 25.246C36.0439 25.246 37.3365 25.7127 38.4855 26.6822C38.7009 26.8617 38.7727 26.9694 38.7727 27.0413C38.7727 27.0772 38.7368 27.1131 38.665 27.1131C38.5573 27.1131 38.4495 27.0772 38.2341 26.9694C37.4442 26.6822 36.762 26.5745 36.1875 26.5745C35.3258 26.5745 34.4281 26.7181 33.4946 26.9694C32.561 27.2208 31.9147 27.5439 31.4838 27.9389C31.4838 28.8724 31.807 29.806 32.4533 30.7395C33.2791 31.8526 34.2845 32.4271 35.5412 32.4271C36.1875 32.4271 37.0133 32.1399 38.0546 31.5295C38.8804 31.0627 39.6703 30.4882 40.3885 29.8778C40.5321 29.7701 40.6398 29.6983 40.7116 29.6624C40.7834 29.6265 40.8193 29.6983 40.7475 29.9137Z" fill="#124D73" stroke="#124D73" stroke-width="0.3"/>
<path d="M28.8625 11.0632C30.6937 10.3809 32.6685 9.69874 34.7511 8.90881C34.8588 8.87291 34.9306 8.837 34.9306 8.8729C34.9665 8.90881 34.9665 8.98062 34.8947 9.05243C34.7511 9.33968 34.6793 9.51921 34.6075 9.55511C32.884 10.1655 30.8374 10.9913 28.5035 11.9249C28.6112 11.6735 28.7189 11.3863 28.8625 11.0632Z" fill="#124D73" stroke="#124D73" stroke-width="0.3"/>
<path d="M33.3156 12.8225C33.2437 13.1097 33.1719 13.2893 33.0642 13.3611C32.7052 13.6124 31.9152 14.1151 30.6944 14.9409C30.6226 14.9768 30.5867 15.0486 30.5149 15.0846C30.5149 15.0486 30.479 15.0486 30.479 15.0127L30.5508 14.5819C30.5508 14.4742 30.7662 14.2946 31.1612 13.9715C30.6585 13.7919 30.4072 13.5765 30.4072 13.3252C30.4072 13.0379 30.5508 12.7507 30.8022 12.4275C31.3048 11.853 31.6998 11.5658 32.0229 11.5658C32.3102 11.5658 32.4538 11.7453 32.4538 12.0685C32.4538 12.248 32.382 12.4993 32.2025 12.7507C32.1666 12.8225 32.1307 12.7866 32.0948 12.7148C31.987 12.4993 31.8793 12.3916 31.7357 12.3916C31.628 12.3916 31.4844 12.4634 31.3048 12.5712C31.1253 12.6789 31.0535 12.7866 31.0535 12.8584C31.0535 12.9661 31.1612 13.0738 31.3766 13.1816C31.5921 13.2893 31.7357 13.3252 31.8434 13.3252C31.9511 13.3252 32.1307 13.2534 32.4179 13.0738C32.5974 12.9302 32.8129 12.8225 32.9924 12.7148C33.1719 12.643 33.2796 12.6071 33.3156 12.6071C33.3515 12.643 33.3515 12.7148 33.3156 12.8225Z" fill="#124D73" stroke="#124D73" stroke-width="0.3"/>
<path d="M43.9789 8.26247C43.9789 8.40609 43.7994 8.72924 43.4403 9.23192C43.0094 9.80641 42.6504 10.2014 42.2554 10.4886C42.04 10.6681 41.2501 10.9195 39.9575 11.2785C39.7061 11.3145 39.5984 11.3504 39.5984 11.3504C39.6343 11.3144 39.7061 11.2426 39.8497 11.1349C40.0293 10.9913 40.496 10.74 41.2501 10.345C41.9682 9.95004 42.399 9.6987 42.5068 9.59098C42.5427 9.55507 42.5427 9.51917 42.5427 9.51917C42.5427 9.33964 41.8964 9.26783 40.6038 9.26783C40.6038 9.26783 40.3524 9.26783 39.8497 9.30373C39.5984 9.33964 39.4548 9.30373 39.4548 9.26783C39.4548 9.23192 39.4907 9.16011 39.5625 9.05239L40.0293 8.26247C40.1729 8.01113 40.4242 7.86751 40.7833 7.8316C40.891 7.7957 41.2142 7.79569 41.6809 7.79569C43.2249 7.75979 43.9789 7.90341 43.9789 8.26247Z" fill="#124D73" stroke="#124D73" stroke-width="0.3"/>
<path d="M43.5483 30.7035C43.4047 31.8884 43.2969 32.4988 43.2251 32.4988C43.1533 32.4988 43.0815 31.9961 42.902 31.0267C42.6506 29.375 41.4299 27.5079 39.2755 25.4613C38.342 24.5637 37.4084 23.666 36.4749 22.7684C35.4336 21.763 34.6796 20.9731 34.141 20.3268C33.7819 19.86 33.387 19.2855 32.992 18.6392C32.7407 18.2443 32.5252 17.8493 32.2739 17.4543C32.0944 17.203 31.9148 17.0235 31.7353 16.9158C31.6276 16.844 31.5917 16.7721 31.5917 16.5926V15.2641C31.5917 15.0128 31.6276 14.8691 31.7353 14.8691C31.8071 14.8691 31.9148 14.941 32.0944 15.0487L34.6437 16.9876C34.8591 17.1312 34.9668 17.2389 34.9668 17.3107C34.9668 17.3825 34.8591 17.4184 34.7155 17.4184C34.5001 17.4184 34.1769 17.3466 33.6742 17.2389C33.9974 17.8493 34.9309 18.9624 36.5108 20.5422C37.6957 21.7271 38.8805 22.8761 40.0654 24.061C42.4352 26.4308 43.5842 28.4774 43.5842 30.2009C43.5842 30.3804 43.5483 30.5599 43.5483 30.7035Z" fill="#124D73" stroke="#124D73" stroke-width="0.3"/>
<path d="M43.189 16.6286C43.189 16.3413 43.1172 16.0541 43.0095 15.695C42.8659 15.336 42.83 15.1205 42.83 15.0846C42.83 15.0128 42.9018 14.7615 43.0454 14.2947C43.189 13.8279 43.2608 13.5766 43.2608 13.5407C43.3326 13.3971 43.3685 13.3611 43.4045 13.3611C43.4404 13.3611 43.5122 13.433 43.5481 13.5407C43.7276 13.8279 44.0149 14.4024 44.4098 15.2641C44.8766 16.2336 45.1638 16.8799 45.2356 17.2031C45.3075 17.4185 45.3075 17.5621 45.3075 17.6698C45.3075 17.7416 45.2715 17.7775 45.2356 17.7775C45.1279 17.7775 44.8407 17.5621 44.4457 17.0953C44.3739 17.0235 44.3739 17.0594 44.3739 17.239C44.3739 17.7775 44.5534 19.5369 44.9125 22.5171C45.2715 25.5332 45.4511 27.5439 45.4511 28.5851C45.4511 30.7754 44.9484 32.5707 43.943 34.0069C43.1531 35.12 42.2196 35.9099 41.2142 36.3767C40.8192 36.5562 40.137 36.7716 39.1676 37.023C38.1981 37.2743 37.48 37.4179 37.0132 37.4538C36.8337 37.4898 36.726 37.4538 36.726 37.4179C36.726 37.382 36.8337 37.2743 37.0132 37.1666C37.9109 36.6639 39.3471 35.8022 41.3578 34.5814C42.0041 34.1864 42.6145 33.6119 43.2608 32.9297C44.1226 31.9962 44.5534 31.2063 44.5534 30.5959C44.5534 29.3033 44.338 26.754 43.8712 23.0198C43.4045 19.2138 43.189 17.0953 43.189 16.6286Z" fill="#124D73" stroke="#124D73" stroke-width="0.3"/>
<path d="M45.9534 17.6696C45.9534 17.0233 45.8456 16.5207 45.6302 16.0898C45.6302 15.8385 45.8097 15.2999 46.1688 14.4381C46.2406 14.3304 46.2765 14.2586 46.3124 14.2586C46.3483 14.2586 46.3842 14.3304 46.456 14.4381C46.5638 14.6895 46.8151 15.2999 47.2101 16.3052C47.605 17.3824 47.8564 18.0287 47.9282 18.28C48 18.4596 48 18.6032 48 18.7109C48 18.9982 47.7127 18.8186 47.1382 18.1723C47.0664 18.0646 47.0305 18.1005 47.0305 18.28C47.0305 18.3519 47.1741 20.3626 47.4614 24.4199C47.7486 28.4413 47.8923 30.7034 47.8923 31.2061C47.8923 32.75 47.6768 34.1144 47.2101 35.2993C47.1023 35.5507 47.0305 35.6943 46.9587 35.802C46.851 35.9815 46.8151 36.0174 46.7792 35.9097C46.7433 35.7661 46.7433 35.5148 46.8151 35.1557C46.8869 34.6171 46.9228 34.0067 46.9228 33.2886C46.9228 32.6423 46.7433 30.0212 46.4201 25.4253C46.097 20.8293 45.9534 18.2441 45.9534 17.6696Z" fill="#124D73" stroke="#124D73" stroke-width="0.3"/>
<path d="M14.8424 25.9475C14.8025 25.9076 14.8025 25.8677 14.8424 25.8278L15.5207 24.4313C15.5606 24.3515 15.6005 24.3116 15.6404 24.3116C15.7202 24.3116 15.9995 24.5111 16.5581 24.8702C17.0767 25.2293 17.356 25.4687 17.356 25.5485C17.356 25.7879 17.1166 26.2667 16.6379 27.0248C16.598 27.1046 16.5182 27.1445 16.4783 27.1046C15.9596 26.6657 15.401 26.2667 14.8424 25.9475Z" fill="#124D73"/>
<path d="M17.6354 31.6531C17.1167 30.895 16.5582 30.496 15.9198 30.496C15.4809 30.496 15.2415 30.6556 15.2415 30.9349C15.2415 31.2541 15.5208 31.4536 16.0794 31.5334C16.3986 31.5733 16.9172 31.5733 17.6354 31.6531ZM6.66316 38.7552C8.89751 38.7552 11.491 38.2365 14.3637 37.1991C16.5183 36.441 18.1541 35.7228 19.2314 35.0046C19.2314 34.5658 18.992 34.2067 18.5132 33.9274C18.0743 33.688 17.5556 33.5683 16.997 33.5683H15.6006C15.0819 33.5683 14.6829 33.4087 14.3637 33.0496C14.0844 32.7304 13.9248 32.2915 13.9248 31.7728C13.9248 31.0546 14.1642 30.3364 14.6829 29.5784C15.1617 28.8602 15.6804 28.4612 16.239 28.4612C17.1167 28.4612 17.9147 28.94 18.6728 29.9374C19.4708 31.0147 19.8698 32.2915 19.8698 33.7279C19.8698 34.5259 19.8299 35.0844 19.7102 35.4036C19.5506 35.8026 19.2314 36.2814 18.6728 36.8001C17.9945 37.4784 16.3587 38.2764 13.7253 39.1941C10.693 40.2713 8.05963 40.79 5.82528 40.79C3.63082 40.79 2.03486 40.1915 1.03738 39.0345C0.359093 38.1966 0 37.1991 0 35.9223C0 34.6057 0.319193 33.3688 0.91768 32.2516C1.15708 31.8925 1.27677 31.693 1.35657 31.693C1.35657 31.693 1.35657 31.7329 1.35657 31.7728C1.35657 31.8925 1.31667 32.092 1.19697 32.4112C1.03738 32.8102 0.877781 33.2092 0.758084 33.6082C0.558588 34.1269 0.478789 34.6854 0.478789 35.2839C0.478789 36.042 0.837882 36.7203 1.59597 37.2789C2.71314 38.3163 4.38891 38.7552 6.66316 38.7552Z" fill="#124D73"/>
</svg>
