<svg width="48" height="49" viewBox="0 0 48 49" fill="none" xmlns="http://www.w3.org/2000/svg">
<path d="M6.877 9.58769L7.59143 8.19285C7.63609 8.06208 7.72539 8.01849 7.77004 8.01849C7.85935 8.01849 8.26121 8.28003 8.97565 8.71592C9.69008 9.19539 10.0473 9.45693 10.0473 9.5441C10.0473 9.84923 9.73473 10.4595 9.1096 11.462C9.0203 11.5928 8.97564 11.5928 8.88634 11.5492C8.26121 11.1133 7.59144 10.6338 6.83235 10.1543C6.56444 10.721 6.34118 11.2005 6.07327 11.5928C6.02862 11.7235 5.93931 11.7671 5.85001 11.7235C5.18023 11.2005 4.4658 10.721 3.66207 10.2415C3.61741 10.1979 3.61741 10.1543 3.66207 10.0672L4.5551 8.32362C4.59976 8.19285 4.68906 8.14926 4.73371 8.14926C4.82302 8.14926 5.13558 8.32362 5.71605 8.71592C6.34118 9.1518 6.6984 9.41334 6.877 9.58769Z" fill="#124D73"/>
<path d="M11.0737 25.672C11.0737 26.0207 10.9844 26.4566 10.8058 27.0232C10.6718 27.5899 10.4932 27.9822 10.3146 28.2437C9.95738 28.7668 9.33225 29.2898 8.43921 29.8565C7.45687 30.4231 6.65314 30.7283 5.98336 30.7283C4.86706 30.7283 4.33124 29.9437 4.33124 28.3745C4.33124 27.2847 4.50984 26.2386 4.91171 25.2361C5.26893 24.4079 5.89405 23.2746 6.78709 21.8797C6.38523 21.4874 6.07266 21.1387 5.80475 20.79C4.28659 22.6207 2.58981 23.972 0.714432 24.713C0.357216 24.8874 0.133957 24.9745 0.044653 24.9745C0.044653 24.9745 0 24.9745 0 24.931C0 24.8874 0.223261 24.6694 0.714432 24.2771C1.56282 23.5361 2.18794 23.013 2.45586 22.7515C3.4382 21.8361 4.33124 20.9644 5.13497 20.049C4.95636 19.7439 4.6438 19.308 4.19728 18.6977C4.10798 18.567 3.88472 18.349 3.5275 17.9567C3.3489 17.7824 3.25959 17.5644 3.25959 17.3029C3.25959 16.9106 3.30424 16.4311 3.4382 15.908C3.57215 15.4286 3.61681 15.167 3.70611 15.167C3.84007 15.167 4.24193 15.4286 5.00102 15.908C5.7601 16.3875 6.29592 16.7362 6.69779 17.0414C6.92105 17.1721 7.01035 17.3029 7.01035 17.3465C7.01035 17.4337 6.83175 17.4772 6.51918 17.4772C5.93871 17.4772 5.62614 17.5208 5.62614 17.5208C5.62614 17.608 5.89405 17.9567 6.47453 18.5234C7.14431 17.4772 8.12665 16.126 9.37691 14.4696C10.5825 13.162 11.4309 12.5081 11.9221 12.5081C12.2346 12.5081 12.3686 12.7696 12.3686 13.3363C12.3686 13.8594 12.19 14.6004 11.8774 15.5593C11.6095 16.4311 11.2969 17.1285 10.9844 17.6952C10.5379 18.4362 9.82342 19.4823 8.93039 20.79C9.86808 21.7926 10.4932 22.7079 10.8058 23.5361C10.9844 24.0156 11.0737 24.7566 11.0737 25.672ZM10.4932 15.2106C9.73412 15.6901 8.61782 16.9542 7.05501 19.09C7.45687 19.4823 7.81409 19.7439 8.082 19.9618C8.26061 19.7003 8.88573 18.8285 9.91273 17.3029C10.8951 15.8209 11.163 15.0799 10.8058 15.0799C10.7611 15.0799 10.6272 15.1234 10.4932 15.2106ZM10.2699 25.672C9.73412 24.6258 8.93039 23.6233 7.72478 22.6643C7.32292 23.1002 6.8764 23.7105 6.34057 24.6258C5.7601 25.5848 5.35823 26.413 5.13497 27.0668C5.13497 27.154 5.09032 27.1976 5.09032 27.2847C5.09032 27.8078 5.49219 28.0258 6.29592 28.0258C6.65314 28.0258 7.09966 27.895 7.72478 27.677C8.52852 27.3283 9.2876 26.8489 9.95738 26.2386C10.2253 25.9335 10.3592 25.7591 10.2699 25.672Z" fill="#124D73"/>
<path d="M12.6365 15.9517C15.1817 15.0363 17.9054 14.0774 20.8078 13.0312C20.9418 12.9876 21.0311 12.944 21.0757 12.9876C21.1204 13.0312 21.1204 13.1184 21.0311 13.2492C20.8525 13.6415 20.7185 13.8594 20.6292 13.9466C18.218 14.7748 15.3603 15.8645 12.1453 17.1722C12.2346 16.8235 12.4132 16.4311 12.6365 15.9517Z" fill="#124D73"/>
<path d="M10.4038 37.8766C12.4578 37.8766 14.6903 37.092 17.1016 35.4792C18.9769 34.2587 20.4504 32.951 21.4774 31.5562C21.79 31.1203 21.9686 30.9023 21.9686 30.9023C22.1026 30.728 22.1472 30.4229 22.1472 30.0741C22.1472 29.246 21.8793 27.8947 21.3881 26.064C21.0309 24.6255 20.1379 22.4897 18.7537 19.5692C18.709 19.482 18.7537 19.1333 18.8876 18.4795C18.9769 17.8693 19.0662 17.4334 19.1555 17.1283C19.2448 16.7795 19.3342 16.7359 19.5128 16.9539C21.1649 19.0462 22.3258 21.923 23.1296 25.6281C23.4868 27.2845 23.8886 29.5511 24.4245 32.5151C24.6477 33.7792 25.0942 34.6074 25.7194 34.9997C26.0319 35.174 26.5678 35.3048 27.2375 35.3048V38.0073C26.2552 38.0073 25.4961 37.833 24.9603 37.4407C24.1566 36.874 23.6207 35.8279 23.3528 34.2587C23.2189 33.692 23.0403 32.6459 22.817 31.0331C22.5937 32.3408 22.1472 33.3869 21.4328 34.2151C20.0486 35.8715 18.4411 37.2663 16.4764 38.4868C14.2438 39.8816 12.2345 40.5791 10.3591 40.5791C9.37677 40.5791 8.66234 40.1868 8.12651 39.3586C7.72465 38.7047 7.50139 37.9201 7.50139 36.9612C7.50139 35.0869 7.90326 33.169 8.75164 31.2075C8.93025 30.7716 9.0642 30.5536 9.15351 30.5536C9.19816 30.5536 9.19816 30.5972 9.19816 30.6844C9.19816 30.8152 9.15351 31.0331 9.06421 31.2946C8.48373 33.2125 8.21582 34.6946 8.21582 35.7407C8.17117 37.1791 8.8856 37.8766 10.4038 37.8766Z" fill="#124D73"/>
<path d="M21.8345 42.497C24.3797 41.5817 27.1035 40.6227 30.0058 39.5766C30.1398 39.533 30.2291 39.4894 30.2737 39.533C30.3184 39.5766 30.3184 39.6637 30.2291 39.7945C30.0505 40.1868 29.9165 40.4048 29.8272 40.4919C27.416 41.3637 24.5583 42.4098 21.3434 43.7175C21.4773 43.3252 21.6113 42.9329 21.8345 42.497Z" fill="#124D73"/>
<path d="M29.381 24.4947C29.2917 24.887 29.2024 25.1049 29.0238 25.2357C28.4879 25.5408 27.4163 26.2818 25.7195 27.4152C25.6302 27.4587 25.5409 27.5459 25.4516 27.5895C25.4516 27.5459 25.4069 27.5459 25.4069 27.4587L25.5409 26.8921C25.5409 26.7613 25.8535 26.4998 26.3893 26.0639C25.7195 25.846 25.3623 25.5408 25.3623 25.1921C25.3623 24.7998 25.5409 24.4075 25.8981 23.9716C26.5679 23.187 27.1484 22.7947 27.5949 22.7947C27.9968 22.7947 28.1754 23.0127 28.1754 23.4486C28.1754 23.7101 28.0414 24.0152 27.8182 24.3639C27.7735 24.4511 27.7288 24.4075 27.6842 24.3203C27.5502 24.0588 27.3716 23.8845 27.193 23.8845C27.0591 23.8845 26.8358 23.9716 26.6125 24.1024C26.3893 24.2768 26.2553 24.4075 26.2553 24.4947C26.2553 24.6255 26.3893 24.7998 26.7019 24.9306C26.9698 25.0614 27.193 25.1485 27.3716 25.1485C27.5502 25.1485 27.7735 25.0178 28.1754 24.7998C28.4433 24.6255 28.7112 24.4511 28.9791 24.2768C29.2024 24.146 29.3363 24.1024 29.4256 24.146C29.4256 24.2768 29.4256 24.3639 29.381 24.4947Z" fill="#124D73"/>
<path d="M30.0505 33.4308C30.0505 34.7384 29.8273 35.741 29.4254 36.4384C28.8449 37.4845 28.0859 38.0076 27.1035 38.0076V35.3051C28.1752 35.3051 28.8449 34.9564 29.1575 34.259C29.1575 33.9102 28.7556 33.0821 27.9966 31.9052C27.9519 31.818 27.9073 31.7308 27.9073 31.6C27.9073 30.9026 28.0859 30.2488 28.3984 29.5514C28.5324 29.377 28.6217 29.377 28.7556 29.5514C29.2022 30.2052 29.5147 30.7718 29.6487 31.2077C29.9166 31.7744 30.0505 32.5154 30.0505 33.4308Z" fill="#124D73"/>
<path d="M31.8822 33.7792C32.1055 35.0433 32.552 35.8714 33.1771 36.2637C33.4897 36.4381 34.0255 36.5253 34.6953 36.5253V39.2278C33.7129 39.2278 32.9092 39.0534 32.3734 38.6611C31.6143 38.0945 31.0785 37.0483 30.7659 35.4791C30.5873 34.5202 30.4534 31.6869 30.2748 27.0665C30.1408 21.9666 30.0068 18.8718 29.8729 17.6949C29.6496 15.8641 29.2924 14.077 28.7566 12.4206C28.7566 11.9847 28.9352 11.3309 29.3371 10.4591C29.4264 10.2412 29.471 10.1104 29.5157 10.1104C29.5603 10.1104 29.6496 10.1976 29.7389 10.3719C30.3194 11.5053 30.7659 13.4232 31.0785 16.0821C31.2571 17.7385 31.4357 21.0948 31.5697 26.0639C31.7036 30.7715 31.7929 33.3433 31.8822 33.7792Z" fill="#124D73"/>
<path d="M43.9816 37.9203C44.3835 37.9203 44.5621 37.7895 44.5621 37.5716C44.5621 37.2664 44.3388 37.0485 43.8923 36.8741C43.3565 36.6562 42.642 36.6126 41.7043 36.7434C42.4188 37.5716 43.1332 37.9203 43.9816 37.9203ZM34.5154 39.2715V36.569C35.721 36.569 37.1945 36.0895 38.9806 35.1306C38.9359 34.9126 39.0699 34.7383 39.4271 34.5639C39.7843 34.4332 40.0522 34.4332 40.1862 34.6511C41.4364 34.2588 42.4634 34.0409 43.2225 34.0409C44.0262 34.0409 44.6514 34.346 45.0979 34.9998C45.5444 35.6537 45.7677 36.5254 45.7677 37.5716C45.7677 38.4433 45.5891 39.1408 45.1872 39.7074C44.7853 40.2741 44.2942 40.5792 43.6244 40.5792C42.1955 40.5792 40.9006 39.4895 39.695 37.3536C37.5517 38.6177 35.8103 39.2715 34.5154 39.2715Z" fill="#124D73"/>
<path d="M40.143 5.40298C40.143 5.62092 39.8751 6.05681 39.3839 6.71065C38.8035 7.49525 38.2676 8.0619 37.7318 8.41061C37.4193 8.62856 36.3476 8.97727 34.5169 9.45674C34.1597 9.50033 34.0257 9.54392 34.0257 9.54392C34.0704 9.50033 34.1597 9.41316 34.3829 9.28239C34.6062 9.10803 35.276 8.75932 36.3476 8.19267C37.3746 7.6696 37.9551 7.32089 38.1337 7.14653C38.1783 7.10295 38.1783 7.05936 38.1783 7.01577C38.1783 6.79782 37.2853 6.66706 35.4546 6.66706C35.4546 6.66706 35.0974 6.66706 34.4276 6.71065C34.0704 6.75423 33.8918 6.71065 33.8918 6.66706C33.8918 6.62347 33.9364 6.53629 34.0257 6.40552L34.6955 5.35939C34.8741 5.05427 35.2313 4.83632 35.7671 4.79273C35.9457 4.74914 36.3476 4.74915 37.0174 4.74915C39.116 4.74915 40.143 4.96709 40.143 5.40298Z" fill="#124D73"/>
<path d="M38.8911 35.0872C38.3106 32.8642 37.8194 28.9412 37.3729 23.3182C37.105 19.8747 36.971 16.8235 36.971 14.2081C36.971 13.3363 36.8371 12.5953 36.5245 12.0287C36.5245 11.7236 36.7924 10.9825 37.3282 9.80564C37.3729 9.67488 37.4622 9.63129 37.5068 9.63129C37.5515 9.63129 37.6408 9.71846 37.6855 9.84923C37.8194 10.1544 38.1766 10.9825 38.7125 12.3774C39.2483 13.8158 39.5608 14.7312 39.6948 15.0363C39.7841 15.2978 39.8287 15.4722 39.8287 15.603C39.8287 16.0389 39.4269 15.7773 38.6678 14.862C38.5785 14.7312 38.5338 14.8184 38.5338 15.0363C38.5338 16.2132 38.6678 19.0465 38.9357 23.4926C39.2929 29.2027 39.7394 32.9078 40.3199 34.5205C40.3199 34.6077 40.1413 34.6949 39.7841 34.8693C39.4269 35.0436 39.159 35.1308 38.9804 35.1308C38.9357 35.1308 38.8911 35.1308 38.8911 35.0872Z" fill="#124D73"/>
<path d="M45.187 14.8618C45.187 13.99 45.053 13.2926 44.7404 12.7259C44.7404 12.4208 45.0083 11.6798 45.4995 10.4593C45.5888 10.3285 45.6335 10.2413 45.6781 10.2413C45.7228 10.2413 45.8121 10.3285 45.8567 10.4593C46.0353 10.7644 46.3479 11.6362 46.8837 12.9874C47.4642 14.4259 47.7768 15.3412 47.8661 15.6464C47.9554 15.9079 48 16.0822 48 16.213C48 16.6053 47.5982 16.3438 46.7944 15.472C46.7051 15.3412 46.6605 15.3848 46.6605 15.6464C46.6605 15.7335 46.8391 18.4796 47.2856 23.9718C47.6875 29.464 47.8661 32.5153 47.8661 33.2127C47.8661 35.3485 47.5535 37.1793 46.8837 38.7485C46.7498 39.0536 46.6158 39.2715 46.5265 39.4459C46.3926 39.6638 46.3033 39.7074 46.3033 39.5767C46.2586 39.4023 46.2586 39.0536 46.3479 38.5305C46.4372 37.7895 46.4819 36.9613 46.4819 36.0024C46.4819 35.1306 46.2586 31.5563 45.8121 25.3231C45.4102 19.1335 45.187 15.6028 45.187 14.8618Z" fill="#124D73"/>
</svg>
