<svg width="48" height="49" viewBox="0 0 48 49" fill="none" xmlns="http://www.w3.org/2000/svg">
<path d="M24.9233 40.6273C23.8058 40.6273 22.6461 40.3321 21.4231 39.8261V36.7897C22.4352 37.2536 23.7425 37.5067 25.3239 37.5067C26.8843 37.5067 28.5079 37.1482 30.2369 36.4524C31.7972 35.8409 33.1678 35.0396 34.3908 34.0697C34.6016 33.9221 34.7914 33.8167 34.8968 33.8167C35.1499 33.8167 35.192 34.0275 35.0444 34.4281C34.8968 34.892 34.7914 35.3348 34.7914 35.6933C34.7914 36.8108 35.6559 37.3591 37.3217 37.3591C38.5868 37.3591 39.6411 36.8108 40.4635 35.7355C41.0117 34.9342 41.5177 34.1119 42.0238 33.3106C42.2347 33.0997 42.3823 33.0154 42.5299 32.9521C42.7407 32.9943 42.7829 33.2052 42.6775 33.6058C42.4666 34.4703 42.3823 34.8709 42.3823 34.8288C42.3823 35.1872 42.5931 35.5457 43.0359 35.8831C43.4998 36.2415 44.0059 36.4313 44.5541 36.4313C45.2077 36.4313 45.6716 36.2204 45.9247 35.8831C45.9247 35.8409 45.8192 35.6722 45.6294 35.5246C45.4186 35.3137 45.3343 35.1661 45.3343 35.0607C45.3343 34.9553 45.5451 34.2595 45.9457 32.9311C46.0512 32.7202 46.0933 32.6359 46.1988 32.6359C46.4096 32.6359 46.5572 32.8889 46.747 33.3949C46.9579 33.901 47.0422 34.3016 47.0422 34.5125C47.0422 35.8198 46.7892 36.8952 46.2831 37.7597C45.6295 38.8772 44.7228 39.4254 43.4998 39.4254C42.5931 39.4254 41.7708 38.7718 41.0749 37.4434C39.9574 39.4676 38.5025 40.4797 36.7313 40.4797C34.7071 40.4797 33.6528 39.4254 33.5474 37.2958C33.5474 37.1904 33.5052 37.1482 33.3998 37.1482C33.2943 37.1482 33.1467 37.2536 32.8937 37.4012C31.9238 38.2025 30.8695 38.8772 29.6043 39.4254C27.9175 40.2056 26.3993 40.6273 24.9233 40.6273Z" fill="#124D73"/>
<path d="M21.4443 36.7265V39.805C20.0316 39.2567 18.9562 38.6453 18.3026 38.0338C17.5013 37.3169 16.8898 36.3048 16.4259 35.0396C16.3838 34.892 16.2783 34.892 16.1729 35.0396C15.5614 36.0517 14.9499 37.0638 14.2963 38.0759C13.3263 39.4887 12.1666 40.2056 10.9015 40.2056V37.1271C12.2721 37.1271 13.4318 36.5156 14.3385 35.3981C15.1397 34.2805 15.8988 33.163 16.7211 32.0033C16.932 31.8557 17.0796 31.7502 17.185 31.7502C17.3959 31.7502 17.438 31.8978 17.438 32.2985C17.438 33.2684 17.6911 34.0275 18.1971 34.5757C18.7664 35.2505 19.8207 35.9674 21.4443 36.7265Z" fill="#124D73"/>
<path d="M7.78042 33.9431C8.03344 35.3558 8.5395 36.3258 9.25641 36.7686C9.61487 36.9794 10.1631 37.127 10.9222 37.127V40.2056C9.80464 40.2056 8.94013 39.9525 8.34973 39.4886C7.44304 38.835 6.87373 37.6753 6.57853 35.9041C6.36768 34.9341 6.22007 32.6569 6.11465 29.0723C6.00922 25.0239 5.81945 21.8399 5.60859 19.5627C5.35556 17.4963 4.95493 15.4721 4.38562 13.5954C4.38562 13.0894 4.59648 12.3303 4.99711 11.3182C5.10254 11.0651 5.14471 10.9597 5.25013 10.9597C5.29231 10.9597 5.39773 11.0651 5.50316 11.2549C6.15682 12.5201 6.6207 14.6919 6.97916 17.7915C7.19002 19.7735 7.37979 22.8942 7.48521 27.1957C7.56956 31.1598 7.73824 33.3738 7.78042 33.9431Z" fill="#124D73"/>
<path d="M8.85598 4.52295C8.85598 4.67055 8.60296 5.1766 8.13907 6.04111C7.78062 6.29414 6.9161 6.8002 5.56662 7.55928C3.79542 8.52923 2.23508 9.43591 0.906685 10.2372C0.4428 10.4902 0.189771 10.6378 0.105428 10.6378C0 10.6378 0 10.5956 0 10.4902C0 10.2372 0.210859 9.62568 0.716915 8.67682C0.927772 8.46597 1.476 8.06534 2.27725 7.51711C1.72903 7.15865 1.37057 6.96888 1.22297 6.8002C0.822342 6.44174 0.611487 5.99895 0.611487 5.49289C0.611487 4.62838 1.22297 3.61626 2.42485 2.49872C3.54239 1.44444 4.44908 0.875122 5.10274 0.875122C5.46119 0.875122 5.75639 1.02272 6.00942 1.33901C6.22027 1.59204 6.36788 1.99266 6.36788 2.45655C6.36788 2.85718 6.22027 3.2578 5.90399 3.72169C5.65096 4.08014 5.39793 4.26992 5.18708 4.26992C5.14491 4.26992 4.97622 4.12232 4.82862 3.72169C4.68102 3.32106 4.47016 3.17347 4.21714 3.17347C3.85868 3.17347 3.41588 3.27889 2.84657 3.57409C2.23508 3.86929 1.93988 4.08015 1.93988 4.18558C1.93988 4.4386 2.23508 4.7338 2.90982 5.09226C3.66891 5.49289 4.42799 5.70375 5.14491 5.70375C5.60879 5.66158 6.26245 5.34529 7.16913 4.94466C7.92822 4.54403 8.43427 4.33318 8.58187 4.33318C8.75056 4.33318 8.85598 4.37535 8.85598 4.52295Z" fill="#124D73"/>
<path d="M15.1181 47.1849C15.076 47.1428 15.076 47.0795 15.1181 46.9741L16.0881 44.9498C16.1303 44.8444 16.2357 44.8022 16.2989 44.8022C16.4044 44.8022 16.8472 45.0553 17.6063 45.5613C18.4075 46.1096 18.8292 46.4258 18.8292 46.5313C18.8292 46.8897 18.4708 47.5856 17.7749 48.7031C17.6695 48.8507 17.6273 48.914 17.5219 48.8507C16.7417 48.2603 15.9194 47.691 15.1181 47.1849Z" fill="#124D73"/>
<path d="M20.2846 29.4309C28.8454 26.1837 37.5327 22.9576 46.4519 19.6049C46.5995 19.5628 46.7049 19.4995 46.7049 19.5628C46.7471 19.5628 46.7471 19.6682 46.7049 19.8158C46.4941 20.2797 46.3465 20.5327 46.2411 20.6171C38.102 23.6534 29.246 27.0482 19.7785 30.8436C19.8629 30.4008 20.0316 29.9369 20.2846 29.4309Z" fill="#124D73"/>
<path d="M14.4646 16.7372C14.317 16.9903 14.2538 17.1379 14.1695 17.1379C14.064 17.1379 14.064 16.927 14.1273 16.6318C14.1694 16.3788 14.2327 15.9782 14.2327 15.5775C14.2327 14.1015 13.4315 12.6888 11.7446 11.2339C11.6392 11.1917 11.6392 11.023 11.7446 10.9387L12.2085 10.1374C12.2507 10.032 12.3139 10.032 12.4193 10.1374C14.0429 11.2971 14.8442 12.9207 14.8442 14.945C14.802 15.5564 14.6544 16.1679 14.4646 16.7372Z" fill="#124D73"/>
</svg>
