<svg width="49" height="35" viewBox="0 0 49 35" fill="none" xmlns="http://www.w3.org/2000/svg">
<path d="M46.0734 10.489C46.0734 9.84954 45.9801 9.34329 45.7803 8.91698C45.7803 8.6905 45.9401 8.14429 46.3265 7.31831C46.3531 7.22506 46.3931 7.15845 46.4197 7.15845C46.4864 7.15845 46.513 7.22506 46.5796 7.31831C46.6729 7.54479 46.8993 8.14429 47.2857 9.14346C47.6987 10.1959 47.9252 10.8354 47.9918 11.0885C48.0584 11.2484 48.0584 11.4082 48.0584 11.4749C48.0584 11.7679 47.8053 11.6081 47.2324 10.9686C47.1658 10.8754 47.1391 10.942 47.1391 11.1018C47.1391 11.1684 47.299 13.1535 47.5921 17.1102C47.8852 21.0402 48.0051 23.2517 48.0051 23.758C48.0051 25.2634 47.7786 26.6089 47.339 27.7546C47.2058 27.9811 47.1525 28.141 47.0859 28.2609C46.9926 28.4207 46.9526 28.4207 46.926 28.3275C46.8993 28.1943 46.926 27.9411 46.9526 27.5948C47.0192 27.0485 47.0459 26.449 47.0459 25.7696C47.0459 25.1301 46.886 22.5723 46.5663 18.0694C46.2332 13.5664 46.0734 11.0352 46.0734 10.489Z" fill="#124D73"/>
<path d="M43.0359 11.5147C43.0359 11.2616 42.9693 10.9419 42.8494 10.5822C42.7162 10.2358 42.6629 10.036 42.6629 10.0093C42.6629 9.94271 42.7295 9.68959 42.8494 9.23663C42.9826 8.78368 43.0359 8.53055 43.0759 8.46394C43.1425 8.33072 43.1691 8.30408 43.2091 8.30408C43.249 8.30408 43.3023 8.33072 43.3689 8.4373C43.5022 8.73039 43.7819 9.26328 44.1949 10.1292C44.6479 11.0884 44.9276 11.7279 45.0209 12.021C45.0875 12.2475 45.1142 12.3674 45.1142 12.4739C45.1142 12.7271 44.8211 12.5672 44.2882 11.9277C44.2216 11.8611 44.1949 11.9277 44.1949 12.0876C44.1949 12.6605 44.3814 14.7387 44.8077 18.2958C45.2207 21.8395 45.4472 24.1442 45.4472 25.1434C45.4472 27.2883 44.941 29.0734 43.9418 30.4456C43.1425 31.5647 42.2499 32.3374 41.2507 32.777C40.8644 32.9635 40.1982 33.1634 39.2657 33.4165C38.3065 33.6696 37.6004 33.8028 37.1608 33.8695C37.0009 33.8695 36.9077 33.8695 36.9077 33.8028C36.9077 33.7762 36.9743 33.6696 37.1608 33.5497C38.0267 33.0701 39.4256 32.2441 41.3839 31.0185C42.0234 30.6322 42.6362 30.0859 43.2757 29.3932C44.1017 28.5006 44.5546 27.7279 44.5546 27.1284C44.5546 25.8228 44.3015 23.0385 43.7819 18.7887C43.2624 14.4856 43.0359 12.0876 43.0359 11.5147ZM31.0192 12.8603C30.8594 12.6338 30.6995 12.4473 30.513 12.354C30.4197 12.2874 30.3798 12.1942 30.3798 12.0343V10.7554C30.3798 10.5022 30.4064 10.369 30.513 10.369C30.5796 10.369 30.6995 10.4356 30.8594 10.5289L33.324 12.4473C33.5105 12.5805 33.6171 12.7004 33.6171 12.767C33.6171 12.8336 33.5505 12.8603 33.3906 12.8603C33.2041 12.8603 32.8444 12.7937 32.3648 12.6738C32.6579 13.18 35.2424 15.8711 40.1316 20.7604C42.4364 23.0651 43.5821 25.0768 43.5821 26.7687C43.5821 26.9019 43.5821 27.0618 43.5555 27.2217C43.4222 28.4073 43.329 28.9802 43.2624 28.9802C43.1958 28.9802 43.1025 28.5006 42.9693 27.5147C42.7162 25.9427 41.5305 24.1309 39.4256 22.0793C36.0417 18.8819 33.6437 16.3907 32.2316 14.6321C31.9385 14.2858 31.6853 13.9261 31.4589 13.5797C31.339 13.3399 31.1791 13.1134 31.0192 12.8603Z" fill="#124D73"/>
<path d="M38.0802 22.3857L37.6272 23.6913C37.5606 23.8512 37.534 23.9444 37.494 23.9844C37.4674 24.051 37.4008 24.0776 37.3341 24.0776C34.683 24.7171 32.0585 25.5431 29.4341 26.5689C29.4607 26.9552 29.5007 27.275 29.5007 27.5014C29.5007 27.8212 29.4341 27.981 29.3408 27.981C29.2076 27.981 28.9278 27.6347 28.5148 26.862C28.0352 27.0218 27.2092 27.3682 26.0236 27.8878V26.1293C26.3699 25.9694 26.8895 25.7429 27.489 25.4631C27.4224 25.3965 26.9828 25.0102 26.1168 24.3174C25.3841 23.7446 24.9311 23.265 24.7446 22.9452C24.5581 22.6522 24.4515 22.3058 24.4515 21.9594C24.4515 21.3466 24.7047 20.8403 25.1843 20.4273C25.6639 19.9744 26.2767 19.7612 27.0094 19.7612C28.315 19.7612 30.4599 20.1476 33.3375 20.8537C33.4707 20.8803 35.0027 21.3066 37.947 22.1059C38.1202 22.1059 38.1468 22.2258 38.0802 22.3857ZM34.7896 23.185C34.0835 22.9319 32.9644 22.5722 31.459 22.2258C29.514 21.7462 27.9686 21.5198 26.7963 21.5198C25.8637 21.5198 25.3841 21.5864 25.3841 21.7462C25.3841 21.8129 25.544 21.9727 25.7971 22.2258C26.3433 22.6388 26.8895 23.0918 27.3958 23.5314C28.1951 24.1709 28.6747 24.6505 28.9012 24.9436C31.0194 24.2109 32.9644 23.598 34.7896 23.185Z" fill="#124D73"/>
<path d="M19.9887 29.673C20.6548 28.9003 21.5607 28.2342 22.6798 27.6214C23.3193 27.275 24.4383 26.7555 26.037 26.0894V27.8612C25.0112 28.3142 24.2785 28.6339 23.7989 28.8471C22.813 29.3267 22.1336 29.673 21.7872 29.9661C21.1211 30.4724 20.1219 31.4715 18.843 32.937C18.0703 33.8296 17.3109 34.2825 16.5382 34.2825C15.8988 34.2825 15.3259 33.9894 14.8463 33.3899C14.3401 32.8171 14.1136 32.0444 14.1136 31.1784C14.1136 29.9928 14.5932 28.4341 15.579 26.4757C15.6723 26.2892 15.7655 26.1826 15.8322 26.1826C15.8322 26.1826 15.8588 26.2093 15.8588 26.2492C15.8588 26.4357 15.6323 27.1152 15.2193 28.2609C14.7664 29.4466 14.5532 30.3391 14.5532 31.0053C14.5532 31.5115 14.6864 31.9378 14.9396 32.2176C15.1927 32.564 15.5524 32.7238 15.992 32.7238C16.7914 32.7238 17.6173 32.3108 18.4167 31.5115C18.9629 30.9253 19.4691 30.2859 19.9887 29.673Z" fill="#124D73"/>
<path d="M18.7363 12.767C18.7363 12.1542 18.6431 11.648 18.4432 11.235C18.4432 11.0085 18.6031 10.4623 18.9894 9.60966C19.0161 9.51641 19.0561 9.47644 19.1227 9.47644C19.1493 9.47644 19.1893 9.50308 19.2559 9.63631C19.3492 9.86278 19.5756 10.4623 19.962 11.4615C20.375 12.5139 20.6014 13.1534 20.6681 13.3799C20.7347 13.5664 20.7347 13.6996 20.7347 13.7928C20.7347 14.0859 20.4815 13.9261 19.9087 13.2866C19.8421 13.1933 19.8154 13.26 19.8154 13.4198C19.8154 13.4465 19.9486 15.0451 20.1618 18.1492C20.3883 21.2533 20.5082 23.0385 20.5082 23.5581C20.5082 25.0635 20.2817 26.409 19.8021 27.5547C19.7088 27.7812 19.6422 27.9677 19.5756 28.061C19.4824 28.2208 19.4158 28.2208 19.3891 28.1276C19.3891 27.9944 19.3891 27.7812 19.4158 27.3949C19.4824 26.8886 19.509 26.2758 19.509 25.5697C19.509 24.9302 19.3758 22.7854 19.1227 19.1084C18.8695 15.4182 18.7363 13.3132 18.7363 12.767Z" fill="#124D73"/>
<path d="M6.1999 26.902C8.30482 26.902 10.6762 26.4491 13.3939 25.6231C15.5654 24.917 16.9776 24.3442 17.6171 23.8646C17.6837 23.8379 17.6837 23.7713 17.6837 23.678C17.6837 23.4249 17.2973 22.7455 16.4713 21.733C16.3115 21.5465 16.2449 21.32 16.3115 21.0935C16.4047 20.6406 16.538 20.2676 16.6978 19.9478C16.7911 19.7213 16.8843 19.6014 16.9509 19.6014C16.9776 19.6014 17.1108 19.6947 17.2707 19.8945C17.4972 20.121 17.7236 20.4674 17.9368 20.987C18.2832 21.5998 18.443 22.1327 18.443 22.5856C18.443 24.091 17.9634 25.2101 16.9776 25.8762C16.3381 26.3558 14.8993 26.9287 12.6878 27.6081C9.90348 28.4741 7.50548 28.887 5.40057 28.887C3.34894 28.887 1.91014 28.3408 0.990906 27.2617C0.351439 26.529 0.0583496 25.5698 0.0583496 24.4108C0.0583496 23.1984 0.351439 22.0794 0.924295 21.0269C1.11081 20.7072 1.24403 20.5207 1.31064 20.5207C1.31064 20.5207 1.33728 20.5473 1.33728 20.6139C1.33728 20.7072 1.27067 20.907 1.17742 21.1868C1.0442 21.5731 0.884329 21.9195 0.764429 22.3059C0.604562 22.7855 0.53795 23.2917 0.53795 23.8379C0.53795 24.544 0.857684 25.1435 1.56376 25.6897C2.56293 26.4757 4.09499 26.902 6.1999 26.902Z" fill="#124D73"/>
<path d="M21.6804 24.464C21.6537 24.4374 21.6537 24.3974 21.6804 24.3308L22.2932 23.0519C22.3199 22.9853 22.3865 22.9586 22.4264 22.9586C22.493 22.9586 22.7728 23.1185 23.2524 23.4382C23.7587 23.7846 24.0251 23.9844 24.0251 24.051C24.0251 24.2775 23.7986 24.7172 23.359 25.4232C23.2924 25.5165 23.2657 25.5565 23.1991 25.5165C22.7062 25.1435 22.1866 24.7838 21.6804 24.464Z" fill="#124D73"/>
<path d="M8.50491 30.6055C8.47826 30.5789 8.47826 30.5389 8.50491 30.4723L9.11773 29.1934C9.14438 29.1267 9.21099 29.1001 9.25095 29.1001C9.31757 29.1001 9.59733 29.26 10.0769 29.5797C10.5832 29.9261 10.8496 30.1259 10.8496 30.1925C10.8496 30.419 10.6231 30.8586 10.1835 31.5647C10.1169 31.658 10.0903 31.6979 10.0236 31.658C9.53072 31.2716 9.02448 30.9252 8.50491 30.6055Z" fill="#124D73"/>
<path d="M31.2992 8.35745C31.2325 8.65054 31.1659 8.8104 31.0727 8.90366C30.7263 9.13014 29.927 9.63638 28.7013 10.4757C28.6747 10.5023 28.6081 10.5423 28.5414 10.6089C28.5148 10.5823 28.5148 10.5823 28.5148 10.5157L28.5814 10.1027C28.6081 10.0094 28.8079 9.80957 29.1942 9.5298C28.7146 9.36994 28.4882 9.14346 28.4882 8.89034C28.4882 8.59725 28.5814 8.31748 28.8345 8.02439C29.3141 7.45154 29.7271 7.15845 30.0469 7.15845C30.34 7.15845 30.4599 7.31831 30.4599 7.63805C30.4599 7.82456 30.3932 8.02439 30.2334 8.27751C30.2067 8.34413 30.1668 8.34413 30.1002 8.25087C30.0335 8.091 29.9136 8.02439 29.7538 8.02439C29.6605 8.02439 29.5273 8.05104 29.3674 8.18426C29.2076 8.27752 29.1143 8.37077 29.1143 8.43738C29.1143 8.53064 29.2076 8.62389 29.4074 8.73047C29.5939 8.86369 29.7538 8.89034 29.887 8.89034C29.9802 8.89034 30.1801 8.82373 30.4599 8.66386C30.6464 8.53064 30.8062 8.41074 31.0061 8.27751C31.1659 8.2109 31.2592 8.14429 31.2992 8.18426C31.3391 8.15761 31.3391 8.22423 31.2992 8.35745Z" fill="#124D73"/>
<path d="M21.2939 15.2584C23.7585 14.3658 26.3164 13.4066 28.9942 12.4074C29.0874 12.3808 29.1541 12.3408 29.1807 12.3808C29.1807 12.3808 29.1807 12.4474 29.1541 12.5407C29.0208 12.8338 28.9276 12.9936 28.861 13.0469C26.6228 13.8729 23.9717 14.8987 20.9609 16.151C21.0408 15.8712 21.1341 15.5781 21.2939 15.2584Z" fill="#124D73"/>
<path d="M29.1914 3.65293C31.656 2.76034 34.2139 1.80114 36.8917 0.801975C36.9849 0.775331 37.0515 0.735364 37.0782 0.775331C37.0782 0.775331 37.0782 0.841942 37.0515 0.935198C36.9183 1.22829 36.825 1.38815 36.7584 1.44144C34.5203 2.26742 31.8692 3.29323 28.8583 4.54553C28.9383 4.26576 29.0315 3.97267 29.1914 3.65293Z" fill="#124D73"/>
<path d="M21.9732 8.5706C22.3596 8.5706 22.6793 8.75711 22.9591 9.21007C23.2521 9.62306 23.4653 10.1959 23.5719 10.902C23.5985 10.9686 23.5985 10.9952 23.5985 11.0352H23.6252C23.6252 11.0086 23.6518 10.9686 23.6518 10.902C23.7184 10.489 23.8783 9.84953 24.1048 9.01023C24.3579 8.43738 24.611 8.14429 24.9041 8.14429C25.064 8.14429 25.2238 8.23754 25.3571 8.43738C25.4903 8.62389 25.5436 8.75711 25.5436 8.89033C25.5436 8.95694 25.5436 9.07684 25.477 9.21007C25.4103 9.39658 25.3437 9.50315 25.2904 9.50315C25.2638 9.50315 25.1972 9.4099 25.064 9.27668C24.9707 9.14346 24.8375 9.09017 24.7176 9.09017C24.4645 9.09017 24.238 9.70299 24.0115 10.9153C23.9183 11.4615 23.785 11.8479 23.6918 12.061C23.5985 12.1942 23.5319 12.2875 23.4653 12.2875C23.3987 12.2875 23.3987 12.1942 23.372 12.061C23.3987 11.8345 23.2788 11.4216 23.0257 10.8087C22.7725 10.1693 22.6127 9.87618 22.4795 9.87618C22.4128 9.87618 22.3862 9.87618 22.3462 9.94279C22.3196 9.96943 22.2796 10.0094 22.1864 10.0094C22.0531 10.0094 21.9332 9.91615 21.7334 9.75628C21.5469 9.59641 21.4803 9.46319 21.4803 9.36993C21.4803 9.34329 21.5469 9.18342 21.7068 8.91698C21.84 8.67718 21.9332 8.5706 21.9732 8.5706Z" fill="#124D73"/>
<path d="M10.7251 11.9687C10.7251 12.171 10.5275 12.5353 10.093 13.1423C9.57938 13.8302 9.14481 14.3563 8.71024 14.68C8.4337 14.8824 7.52506 15.2061 5.94481 15.6108C5.66827 15.6512 5.51024 15.6917 5.51024 15.6917C5.54975 15.6513 5.62876 15.5703 5.82629 15.4489C6.02382 15.287 6.57691 14.9633 7.52506 14.4777C8.3942 13.9921 8.90777 13.6683 9.02629 13.5469C9.0658 13.5065 9.0658 13.466 9.0658 13.466C9.0658 13.2637 8.27568 13.1827 6.73493 13.1827C6.73493 13.1827 6.45839 13.1827 5.8658 13.2232C5.54975 13.2637 5.39172 13.2232 5.39172 13.1827C5.39172 13.1423 5.43123 13.0613 5.51024 12.9399L6.06333 12.0092C6.22135 11.7259 6.5374 11.564 6.97197 11.4831C7.13 11.4426 7.48555 11.4426 8.03864 11.4426C9.85592 11.3617 10.7251 11.564 10.7251 11.9687Z" fill="#124D73"/>
<path d="M45.925 2.36874C45.925 2.57107 45.7275 2.93528 45.2929 3.54229C44.7793 4.23024 44.3448 4.75632 43.9102 5.08006C43.6337 5.28239 42.725 5.60613 41.1448 6.01081C40.8682 6.05127 40.7102 6.09174 40.7102 6.09174C40.7497 6.05127 40.8287 5.97034 41.0262 5.84894C41.2238 5.68707 41.7769 5.36333 42.725 4.87772C43.5941 4.39211 44.1077 4.06837 44.2262 3.94697C44.2657 3.9065 44.2657 3.86603 44.2657 3.86603C44.2657 3.6637 43.4756 3.58276 41.9349 3.58276C41.9349 3.58276 41.6583 3.58276 41.0657 3.62323C40.7497 3.6637 40.5917 3.62323 40.5917 3.58276C40.5917 3.54229 40.6312 3.46136 40.7102 3.33995L41.2633 2.4092C41.4213 2.12593 41.7374 1.96406 42.1719 1.88313C42.3299 1.84266 42.6855 1.84266 43.2386 1.84266C45.0559 1.76173 45.925 1.96406 45.925 2.36874Z" fill="#124D73"/>
</svg>
