<svg width="49" height="49" viewBox="0 0 49 49" fill="none" xmlns="http://www.w3.org/2000/svg">
<path d="M42.5143 36.1124C42.841 35.9491 42.911 35.7857 42.7943 35.5058C41.6277 33.1492 40.2278 31.9826 38.5945 31.9826C35.0713 31.9826 30.9182 34.7358 26.0417 40.1489C32.0381 40.1489 37.5446 38.7956 42.5143 36.1124ZM24.8285 40.0789C25.8317 38.9123 26.6717 37.8857 27.395 36.9524C27.6283 36.6724 27.7217 36.1591 27.7917 35.5058C27.7917 35.5524 27.7917 34.3391 27.7917 31.8193C27.7917 31.4226 27.5117 28.1794 27.0684 22.0664C26.625 16.14 26.3917 12.8268 26.3917 12.2201C26.4384 11.2169 26.2751 10.3069 25.8784 9.53693C25.8784 9.09361 26.2051 8.18365 26.835 6.69039C26.9517 6.52706 26.9984 6.4104 27.0684 6.4104C27.115 6.4104 27.185 6.52706 27.3017 6.69039C27.465 7.08704 27.9083 8.13699 28.585 9.88691C29.2616 11.7302 29.6582 12.8501 29.7516 13.2934C29.8682 13.5734 29.9149 13.8534 29.9149 14.0167C29.9149 14.53 29.4016 14.1801 28.4683 13.0601C28.3516 12.9434 28.305 13.0134 28.305 13.2934C28.305 13.3401 28.4683 15.7666 28.9116 20.4098C29.3083 25.1696 29.5182 27.8528 29.5182 28.4127C29.5182 29.766 29.2383 32.0992 28.7249 35.5291C33.3214 31.0026 37.0779 28.7627 39.9244 28.7627C41.3244 28.7627 42.561 29.4394 43.5643 30.886C44.4042 32.0526 44.8476 33.0792 44.8476 33.9192C44.8476 34.8058 44.5676 35.7157 44.0543 36.719C43.3776 37.8857 42.491 38.8423 41.301 39.5189C39.0611 40.9188 36.4946 41.9221 33.4614 42.6454C31.0582 43.2054 28.8649 43.4854 26.8584 43.4854C24.8518 43.4854 23.3819 43.3221 22.4252 42.9254V39.5189C23.2652 39.8689 24.0352 40.0789 24.8285 40.0789Z" fill="#124D73"/>
<path d="M7.5857 48.7584C6.34909 48.7584 5.29914 47.7551 4.38918 45.7952C3.59588 44.0686 3.26923 42.272 3.26923 40.4288C3.26923 38.1422 3.50255 36.3456 3.87586 34.9923C4.03919 34.549 4.20252 34.269 4.27251 34.269C4.43584 34.269 4.43584 34.5957 4.38918 35.2257C4.22585 36.6256 4.10919 37.7922 4.10919 38.8655C4.10919 43.6253 5.22914 45.9818 7.46904 45.9818C8.35566 45.9818 9.14896 45.3052 9.87226 43.9053C10.6656 42.2253 11.4355 40.5921 12.2288 38.9122C12.9055 37.5122 13.7454 36.3456 14.702 35.389C15.7053 34.4324 16.6153 33.9424 17.4553 33.9424C18.2486 33.9424 19.0885 34.7823 20.0218 36.5089C20.8618 38.0722 21.7017 39.0755 22.495 39.4721V42.8786C21.4917 42.4353 20.5818 41.7587 19.8585 40.7554C19.7418 40.6387 19.2985 39.8688 18.4119 38.3988C17.9686 37.6755 17.5252 37.2789 17.1286 37.2789C15.8453 37.2789 14.4921 38.3522 13.0455 40.5221C12.8121 40.9187 12.3688 41.922 11.6922 43.5553C11.0855 45.1885 10.5256 46.3552 10.0123 47.0785C9.26562 48.1984 8.42566 48.7584 7.5857 48.7584Z" fill="#124D73"/>
<path d="M36.0275 26.3594C35.8641 26.6394 35.7941 26.8027 35.7008 26.8027C35.5841 26.8027 35.5841 26.5694 35.6541 26.2427C35.7008 25.9627 35.7708 25.5194 35.7708 25.0761C35.7708 23.4428 34.8842 21.8796 33.0176 20.2696C32.9009 20.223 32.9009 20.0363 33.0176 19.943L33.5309 19.0564C33.5776 18.9397 33.6476 18.9397 33.7642 19.0564C35.5608 20.3396 36.4474 22.1362 36.4474 24.3761C36.4241 25.0761 36.2374 25.7527 36.0275 26.3594Z" fill="#124D73"/>
<path d="M20.2784 18.4731C20.1151 18.7531 20.0451 18.9165 19.9517 18.9165C19.8351 18.9165 19.8351 18.6831 19.9051 18.3565C19.9517 18.0765 20.0217 17.6332 20.0217 17.1899C20.0217 15.5566 19.1351 13.9933 17.2685 12.3834C17.1519 12.3368 17.1519 12.1501 17.2685 12.0568L17.7818 11.1701C17.8285 11.0535 17.8985 11.0535 18.0152 11.1701C19.8117 12.4534 20.6984 14.25 20.6984 16.4899C20.675 17.1899 20.5117 17.8432 20.2784 18.4731Z" fill="#124D73"/>
<path d="M43.9843 23.3495C43.9843 23.3029 44.0309 23.2329 44.0309 23.2329C44.0776 23.1862 44.0776 23.1862 44.0776 23.2329C44.1243 23.2795 44.1243 23.3495 44.0776 23.3962C43.7976 25.0761 43.2843 25.9161 42.561 25.9161C41.8377 25.9161 41.4877 25.3095 41.4877 24.0728C41.4877 22.5562 41.8844 20.9463 42.771 19.3131C43.0043 18.9164 43.0977 18.7064 43.1677 18.7064C43.1677 18.7531 43.121 18.9864 43.0043 19.3831C42.4444 21.1096 42.1644 22.2996 42.1644 23.0229C42.1644 23.9095 42.3977 24.4228 42.8877 24.4228C43.2377 24.3995 43.5876 24.0028 43.9843 23.3495Z" fill="#124D73"/>
<path d="M18.535 5.75491C22.7894 4.21412 27.2048 2.55836 31.8271 0.833603C31.9881 0.787609 32.1031 0.71862 32.1491 0.78761C32.1491 0.78761 32.1491 0.902593 32.1031 1.06357C31.8731 1.5695 31.7121 1.84546 31.5972 1.93745C27.7337 3.36325 23.1573 5.134 17.9601 7.29569C18.0751 6.81276 18.259 6.30683 18.535 5.75491Z" fill="#124D73"/>
</svg>
