<svg width="48" height="49" viewBox="0 0 48 49" fill="none" xmlns="http://www.w3.org/2000/svg">
<path d="M3.26794 42.7055C3.26794 40.2015 3.86211 37.9946 5.09288 36.1697C5.34752 35.7877 5.51728 35.5755 5.60216 35.5755C5.6446 35.5755 5.6446 35.5755 5.6446 35.6604C5.6446 35.7877 5.55972 35.9999 5.4324 36.297C4.49871 38.3341 4.03187 39.9893 4.03187 41.3898C4.03187 42.5782 4.32895 43.5967 4.96556 44.4031C5.81436 45.5065 7.04513 46.0158 8.74275 46.0158C9.97351 46.0158 11.5438 45.6339 13.4112 44.9124C14.8542 44.3182 16.2547 43.6392 17.6977 42.7904C18.9284 42.0264 19.565 41.602 19.565 41.4323C19.565 41.2201 18.7162 40.8805 16.9762 40.4137C15.7878 40.1166 14.5995 39.7771 13.4536 39.4376C13.1565 39.3527 13.0292 39.1405 13.1141 38.8434C13.1565 38.6312 13.2839 38.2492 13.4112 37.6975H15.7878C17.7825 38.2492 19.0557 38.6736 19.6075 38.9707C20.2441 39.3103 20.5412 39.8195 20.5412 40.4137C20.5412 40.8381 20.4138 41.3474 20.1167 41.984C19.7772 42.7055 19.3104 43.2996 18.7587 43.8089C17.6977 44.785 16.0425 45.7612 13.8356 46.7797C11.5438 47.8408 9.71887 48.35 8.40322 48.35C6.62073 48.35 5.26264 47.7559 4.37139 46.5675C3.64991 45.5914 3.26794 44.2758 3.26794 42.7055Z" fill="#124D73"/>
<path d="M15.8306 22.419C17.9101 21.6551 20.1595 20.8487 22.5361 19.9999C22.6635 19.9575 22.7483 19.9575 22.7483 19.9575C22.7908 19.9999 22.7483 20.0423 22.7483 20.1697C22.621 20.5092 22.4937 20.6789 22.4088 20.7638C20.4141 21.4853 18.1223 22.3766 15.4486 23.48C15.5335 23.1405 15.6608 22.801 15.8306 22.419Z" fill="#124D73"/>
<path d="M30.7267 33.411L30.1326 34.9813C30.0901 35.151 29.9628 35.2359 29.8779 35.2359C29.0716 35.2359 26.5251 35.7876 22.2811 36.8911C17.9946 37.9945 15.3209 38.8009 14.3023 39.2678L13.4535 37.7823C13.5808 37.4428 14.9389 36.9335 17.4854 36.2545C19.2254 35.7876 20.9655 35.3208 22.6631 34.854C22.0689 34.8115 20.7533 34.6418 18.7586 34.3022C16.6365 33.9203 15.3633 33.7081 14.9389 33.7081C14.4721 33.6656 14.2599 33.5807 14.3023 33.411C14.4296 33.0715 14.5994 32.5197 14.8965 31.8407H18.801C20.6684 32.2227 23.045 32.5622 25.8461 32.8168C27.9257 32.9866 29.4111 33.1139 30.3448 33.1139C30.7267 33.029 30.8116 33.1563 30.7267 33.411Z" fill="#124D73"/>
<path d="M30.2174 6.24928C30.3023 6.03708 30.3023 5.82488 30.2599 5.61268C30.2174 5.35804 30.0901 5.23072 29.9203 5.23072C29.8355 5.23072 29.7506 5.27316 29.5808 5.35804C29.4535 5.44292 29.3686 5.5278 29.3686 5.57024C29.3686 5.74 29.6657 5.9522 30.2174 6.24928ZM29.793 7.22541C29.114 6.88589 28.732 6.50392 28.732 6.07952C28.732 5.61268 28.9442 5.14584 29.4111 4.76387C29.8355 4.38191 30.2174 4.21215 30.5145 4.33947C30.7692 4.42435 30.8965 4.67899 30.8965 5.14584C30.8965 5.57024 30.8116 5.99464 30.6418 6.50392C30.9814 6.71613 31.1936 6.88589 31.2784 7.05565C31.2784 7.22541 31.1087 7.56493 30.8116 7.98934C30.7267 7.86201 30.5145 7.69225 30.175 7.48005C29.793 8.03178 29.2837 8.49862 28.6896 8.96546C28.0105 9.47475 27.3739 9.85671 26.8222 10.1114C26.6949 10.1538 26.0158 10.4084 24.8275 10.8753C24.6153 10.9602 24.488 11.0026 24.4455 11.0026C24.4031 11.0026 24.4031 11.0026 24.4031 11.0026C24.4031 10.9602 24.5304 10.8753 24.7426 10.7055C25.6339 10.1538 26.5251 9.64451 27.4588 9.09278C28.4774 8.3713 29.2837 7.77713 29.793 7.22541Z" fill="#124D73"/>
<path d="M30.472 13.3368C30.472 13.6339 30.4295 13.931 30.3022 14.228C30.1324 14.6525 29.9202 14.8222 29.6232 14.8222C29.1988 14.8222 28.9017 14.5251 28.7319 13.931C28.5197 14.6949 28.1377 15.0769 27.6285 15.0769C27.4163 15.0769 27.2465 14.992 27.0767 14.7798C26.907 14.5251 26.8221 14.1856 26.8221 13.8461V12.9124C26.8221 12.8275 26.7797 12.7851 26.6523 12.7426C26.525 12.7002 26.4826 12.6578 26.4826 12.488C26.4826 12.2758 26.5675 12.106 26.7797 11.8938C26.9494 11.7241 27.0767 11.6392 27.1192 11.6392C27.2465 11.6392 27.2889 11.8514 27.2889 12.2334C27.2889 12.4456 27.2889 12.6153 27.2465 12.7851C27.2041 12.9124 27.2041 13.0397 27.2041 13.1246C27.2041 13.3792 27.2465 13.549 27.3314 13.7612C27.4163 14.0158 27.5436 14.1007 27.7133 14.1007C27.9255 14.1007 28.0953 14.0158 28.3075 13.8036C28.4773 13.6339 28.5622 13.4217 28.5622 13.167C28.5622 13.0397 28.5197 12.7851 28.4348 12.4456C28.35 12.106 28.3075 11.8938 28.3075 11.8089C28.3075 11.7241 28.35 11.5967 28.4348 11.4694C28.5197 11.2997 28.5622 11.2148 28.6046 11.2148C28.6895 11.2148 28.7744 11.427 28.8592 11.8938C28.9441 12.3607 29.029 12.7002 29.029 12.9124C29.029 13.549 29.2836 13.8885 29.7505 13.8461C29.9627 13.8461 30.09 13.7612 30.1324 13.549C29.708 12.8275 29.4958 12.2758 29.4958 11.8514C29.4958 11.6392 29.5383 11.427 29.6656 11.2572C29.7505 11.1299 29.7929 11.0875 29.8354 11.0875C29.8778 11.0875 29.8778 11.1723 29.9202 11.3421C29.9202 11.5543 29.9627 11.7241 30.0051 11.8514C30.0051 11.8514 30.1324 12.1485 30.3446 12.6578C30.4295 12.9124 30.472 13.167 30.472 13.3368Z" fill="#124D73"/>
<path d="M27.3316 18.9813C27.2892 18.9389 27.2892 18.8964 27.3316 18.854L28.0531 17.3686C28.0955 17.2837 28.138 17.2413 28.1804 17.2413C28.2653 17.2413 28.5624 17.4535 29.1565 17.8354C29.7507 18.2174 30.0053 18.472 30.0053 18.5569C30.0053 18.8116 29.7507 19.3208 29.2414 20.1272C29.199 20.2121 29.1141 20.2545 29.0717 20.2121C28.5624 19.7877 27.9258 19.3633 27.3316 18.9813Z" fill="#124D73"/>
<path d="M35.7773 25.1351C35.7773 24.7531 35.3953 24.2863 34.6314 23.6497C33.7401 22.9707 32.8489 22.5887 31.9577 22.5887C30.0903 22.5887 28.1805 24.5409 26.1858 28.403C26.6526 28.5728 27.3317 28.7001 28.138 28.7001C29.581 28.7001 31.1513 28.2757 32.8489 27.3844C34.3343 26.5781 35.3104 25.8566 35.7773 25.1351ZM25.337 30.3128C24.9974 31.289 24.7852 31.7982 24.6155 31.7982C24.573 31.7982 24.573 31.7134 24.573 31.5436C24.573 31.289 24.6579 30.8221 24.8277 30.1006C24.2335 29.7611 23.7667 29.2943 23.4696 28.785C23.2574 28.4455 23.1301 28.0635 23.0452 27.6391C23.0027 27.2996 22.9603 27.1298 22.9179 27.1298C22.7057 27.1298 22.3661 27.5542 21.8144 28.3606C21.4749 28.9123 21.1354 29.464 20.7959 30.0582C20.2441 30.7797 19.5651 31.3738 18.8436 31.7558H14.9391C15.0664 31.586 15.4059 31.3738 16.0001 31.1616C16.8913 30.8221 17.825 30.3553 18.7587 29.7611C19.3953 29.3367 20.2017 28.5303 21.0505 27.342C21.4749 26.7478 21.8569 26.1961 22.2813 25.602C22.6632 25.1351 23.0452 24.8805 23.3847 24.8805C23.5969 24.8805 23.7667 25.0927 23.8516 25.4746C23.894 25.7717 23.9789 26.1112 24.0213 26.4508C24.1911 27.0874 24.6579 27.6391 25.4643 28.1059C26.7375 25.6868 27.7136 24.0741 28.3502 23.2253C29.7508 21.4004 31.0664 20.4667 32.3821 20.4667C33.5704 20.4667 34.589 20.8911 35.4802 21.7823C36.2441 22.5038 36.5836 23.1404 36.5836 23.777C36.5836 24.4985 36.4563 25.1351 36.2017 25.6868C35.9046 26.3234 35.3953 27.0025 34.6314 27.724C35.1831 27.5542 35.9895 27.2571 37.0929 26.8327V28.8699C34.0372 30.1855 30.9391 30.8221 27.7985 30.8221C27.0346 30.7797 26.1858 30.6523 25.337 30.3128Z" fill="#124D73"/>
<path d="M41.0824 0.986641C41.0824 1.1564 40.8702 1.53837 40.4883 2.09009C40.0214 2.7267 39.597 3.19354 39.1726 3.49062C38.918 3.66038 38.0267 3.95746 36.5413 4.38187C36.2442 4.42431 36.1169 4.46675 36.1169 4.46675C36.1594 4.42431 36.2442 4.38187 36.414 4.21211C36.5838 4.04235 37.1355 3.74526 38.0267 3.32086C38.8755 2.85402 39.3424 2.59937 39.4697 2.47205C39.5122 2.42961 39.5121 2.42961 39.5121 2.38717C39.5121 2.21741 38.7907 2.09009 37.3053 2.09009C37.3053 2.09009 37.0082 2.09009 36.4564 2.09009C36.1594 2.09009 36.032 2.09009 36.032 2.04765C36.032 2.00521 36.0745 1.92033 36.1594 1.79301L36.7111 0.901762C36.8809 0.64712 37.1355 0.477359 37.5599 0.392478C37.6872 0.350038 38.0267 0.350037 38.5785 0.350037C40.2336 0.434917 41.0824 0.604679 41.0824 0.986641Z" fill="#124D73"/>
<path d="M38.1961 8.45613C38.1961 7.73464 38.0688 7.14048 37.8566 6.67363C37.8566 6.37655 38.0688 5.78238 38.4932 4.76382C38.5356 4.67894 38.5781 4.59406 38.6205 4.59406C38.6629 4.59406 38.7054 4.6365 38.7903 4.76382C38.9176 5.01846 39.2147 5.73994 39.6391 6.88583C40.1059 8.1166 40.3605 8.83809 40.4454 9.13517C40.4879 9.34737 40.5303 9.51713 40.5303 9.60201C40.5303 9.94154 40.2332 9.77177 39.5542 9.00785C39.4693 8.88053 39.4269 8.92297 39.4269 9.13517C39.4269 9.17761 39.5542 11.1723 39.8513 15.1193C40.1483 19.0662 40.2757 21.4004 40.2757 22.1643C40.2757 23.3951 40.0635 24.5834 39.6391 25.7293C39.0449 27.3421 38.1537 28.4031 36.9229 28.9124V26.8752C38.4083 26.2386 39.1722 25.2625 39.1722 23.9893C39.1722 23.3527 39.0025 20.8063 38.7054 16.3076C38.3234 11.8513 38.1961 9.22005 38.1961 8.45613Z" fill="#124D73"/>
<path d="M42.3979 21.6551C42.3979 20.9336 42.2706 20.3394 42.0584 19.8726C42.0584 19.6179 42.2706 18.9813 42.695 18.0052C42.7375 17.8779 42.8223 17.8354 42.8223 17.8354C42.8648 17.8354 42.9072 17.8779 42.9921 18.0052C43.1194 18.2598 43.4165 18.9813 43.8409 20.1272C44.3078 21.358 44.5624 22.0795 44.6473 22.3766C44.6897 22.5888 44.7322 22.7585 44.7322 22.8858C44.7322 23.2254 44.4351 23.0132 43.756 22.2917C43.6711 22.1644 43.6287 22.2492 43.6287 22.419C43.6287 22.4614 43.7985 24.7957 44.138 29.3792C44.4775 33.9628 44.6473 36.5516 44.6473 37.1034C44.6473 38.8858 44.3926 40.4137 43.8409 41.7718C43.7136 42.0264 43.6287 42.2386 43.5438 42.366C43.4165 42.5782 43.3741 42.5782 43.3741 42.4508C43.3316 42.3235 43.3741 42.0264 43.3741 41.602C43.4589 41.0079 43.5014 40.2864 43.5014 39.48C43.5014 38.7585 43.2892 35.7877 42.9497 30.5251C42.5677 25.2201 42.3979 22.2917 42.3979 21.6551Z" fill="#124D73"/>
</svg>
