<svg width="48" height="49" viewBox="0 0 48 49" fill="none" xmlns="http://www.w3.org/2000/svg">
<path d="M11.0136 23.0522L11.5478 21.9426C11.5889 21.8604 11.63 21.8193 11.6711 21.8193C11.7533 21.8193 12.041 22.0248 12.5752 22.3536C13.1095 22.7234 13.3971 22.9289 13.3971 23.0111C13.3971 23.2577 13.1506 23.7508 12.6985 24.4906C12.6574 24.5728 12.5752 24.6139 12.5341 24.5728C12.0821 24.244 11.5478 23.8741 10.9725 23.5043C10.767 23.9563 10.6026 24.3262 10.3971 24.6139C10.356 24.6961 10.2739 24.7371 10.2328 24.6961C9.69851 24.2851 9.16426 23.9152 8.58892 23.5454C8.54782 23.5454 8.54782 23.5043 8.58892 23.4221L9.28755 22.0659C9.32864 21.9837 9.36974 21.9426 9.41084 21.9426C9.45193 21.9426 9.69851 22.0659 10.1917 22.3947C10.6026 22.7234 10.8903 22.9289 11.0136 23.0522Z" fill="#124D73"/>
<path d="M15.0822 28.4767C14.5891 27.6959 14.0137 27.326 13.3973 27.326C12.9452 27.326 12.6986 27.4904 12.6986 27.7781C12.6986 28.1069 12.9863 28.3123 13.5206 28.3945C13.8904 28.3945 14.3836 28.4356 15.0822 28.4767ZM0.164384 31.8466C0.287672 31.0658 0.493151 30.3671 0.698631 29.7918C0.780823 29.5863 0.821919 29.5041 0.904111 29.5041C0.986303 29.5041 0.986304 29.6274 0.945208 29.8329C0.61644 31.6 0.452056 32.5863 0.452056 32.7918C0.452056 33.8603 0.821919 34.8466 1.52055 35.7507C2.46576 36.9425 3.86302 37.5589 5.71234 37.5589C7.19179 37.5589 8.87672 37.1069 10.6849 36.2439C12.0822 35.5863 13.4795 34.7233 14.7945 33.6959C15.9041 32.8329 16.5206 32.2165 16.6439 31.8877C16.6439 31.4767 16.3973 31.1069 15.9452 30.8192C15.5343 30.5726 15 30.4493 14.4247 30.4493H13.0274C12.4932 30.4493 12.1233 30.2849 11.7945 29.9562C11.5069 29.6274 11.3425 29.1754 11.3425 28.6822C11.3425 27.9836 11.5891 27.2438 12.0822 26.5041C12.5754 25.7644 13.1096 25.3945 13.6439 25.3945C14.5069 25.3945 15.3288 25.8877 16.0685 26.874C16.8904 27.9425 17.2603 29.2165 17.2603 30.6548C17.2603 32.0932 16.8904 33.2028 16.1507 34.0247C15.1644 35.1754 13.8493 36.285 12.1644 37.3945C9.82193 38.9151 7.64384 39.6959 5.71234 39.6959C3.61644 39.6959 2.09589 38.9973 1.10959 37.5589C0.369864 36.4904 0 35.0932 0 33.4082C0.0410959 32.874 0.0821925 32.3397 0.164384 31.8466Z" fill="#124D73"/>
<path d="M17.589 11.422C19.5205 10.7233 21.6164 9.98362 23.7945 9.1617C23.9178 9.1206 23.9589 9.12061 24 9.12061C24.0411 9.1617 24 9.2028 24 9.32609C23.8767 9.61376 23.7534 9.81924 23.7123 9.86033C21.863 10.5179 19.726 11.3809 17.2603 12.3672C17.3014 12.0795 17.4247 11.7918 17.589 11.422Z" fill="#124D73"/>
<path d="M22.3151 31.7645C22.1507 33.0796 22.0685 33.7371 21.9863 33.7371C21.9452 33.7371 21.8219 33.2029 21.6575 32.1344C21.4109 30.4083 20.137 28.4357 17.8356 26.2576C15.0411 23.5042 12.9863 21.4083 11.6712 19.8056C11.3424 19.3124 10.8904 18.696 10.315 17.8741C10.1096 17.5864 9.94518 17.422 9.7397 17.2987C9.61641 17.2165 9.57532 17.1343 9.57532 16.97V15.5727C9.57532 15.285 9.61641 15.1617 9.7397 15.1617C9.7808 15.1617 9.90408 15.2439 10.1096 15.3672L12.7808 17.422C12.9863 17.5864 13.1096 17.7097 13.1096 17.7508C13.1096 17.833 13.0274 17.8741 12.863 17.8741C12.6575 17.8741 12.2876 17.833 11.7534 17.7097C12.1644 18.285 13.2329 19.4357 14.9178 21.1617C16.1507 22.3946 17.3835 23.6275 18.5753 24.8193C21.0822 27.3672 22.3151 29.5042 22.3151 31.3124C22.3151 31.3946 22.3151 31.559 22.3151 31.7645Z" fill="#124D73"/>
<path d="M22.9317 18.9015C22.8495 17.9563 22.644 16.6002 22.3153 14.833C22.4797 13.8056 22.6029 13.1892 22.6851 13.0248C22.7262 12.9015 22.8084 12.8193 22.8495 12.8193C22.8906 12.8193 22.9317 12.9015 23.0139 13.0248C23.466 14.5043 23.8358 16.4358 24.1235 18.7372C24.329 20.2988 24.4523 22.6824 24.5345 25.97C24.6166 28.8878 24.7399 30.6961 24.8632 31.3947C25.0276 32.2166 25.3153 32.7509 25.644 33.0385C25.8906 33.244 26.2605 33.3262 26.7125 33.3262V35.4221C25.644 35.4221 24.9043 35.0111 24.4112 34.1892C24.1235 33.655 23.8769 32.8331 23.7947 31.6002C23.4249 33.5317 23.0139 34.7235 22.644 35.2577C21.8221 36.4084 20.8769 37.2714 19.8084 37.7235C19.3975 37.9289 18.6577 38.1755 17.6303 38.4221C16.6029 38.6687 15.8632 38.8331 15.3701 38.8742C15.1646 38.9153 15.0824 38.8742 15.0824 38.8331C15.0824 38.792 15.2057 38.6687 15.3701 38.5454C16.3153 38.0111 17.8358 37.107 19.9317 35.792C22.2742 34.2714 23.466 32.0111 23.466 29.0522C23.5071 25.1892 23.3016 21.7782 22.9317 18.9015Z" fill="#124D73"/>
<path d="M33.123 17.2575C35.0545 16.5589 37.1504 15.8192 39.3284 14.9973C39.4517 14.9562 39.4928 14.9562 39.5339 14.9562C39.575 14.9973 39.5339 15.0384 39.5339 15.1617C39.4106 15.4493 39.2873 15.6548 39.2463 15.6959C37.3969 16.3534 35.2599 17.2164 32.7942 18.2028C32.8353 17.9151 32.9586 17.5863 33.123 17.2575Z" fill="#124D73"/>
<path d="M37.9725 21.9425C37.9725 22.1891 37.9314 22.4768 37.8081 22.7645C37.6437 23.1343 37.4382 23.3398 37.1917 23.3398C36.7807 23.3398 36.493 23.0521 36.3697 22.5179C36.1643 23.2165 35.8355 23.5864 35.3423 23.5864C35.1369 23.5864 34.9725 23.5042 34.8492 23.2987C34.6848 23.0521 34.6026 22.7645 34.6026 22.3946V21.5316C34.6026 21.4494 34.5615 21.4083 34.4382 21.3672C34.315 21.3261 34.2739 21.285 34.2739 21.1617C34.2739 20.9973 34.356 20.7919 34.5204 20.5864C34.6437 20.422 34.767 20.3398 34.8492 20.3398C34.9725 20.3398 35.0136 20.5042 35.0136 20.874C35.0136 21.0795 35.0136 21.2439 34.9725 21.4083C34.9314 21.5316 34.9314 21.6549 34.9314 21.7371C34.9314 21.9425 34.9725 22.148 35.0547 22.3124C35.1369 22.5179 35.2602 22.6412 35.4245 22.6412C35.63 22.6412 35.7944 22.559 35.9588 22.3946C36.1232 22.2302 36.2054 22.0247 36.2054 21.8193C36.2054 21.696 36.1643 21.4494 36.0821 21.1206C35.9999 20.7919 35.9588 20.5864 35.9588 20.5042C35.9588 20.422 35.9999 20.2987 36.0821 20.1754C36.1643 20.011 36.2054 19.9288 36.2465 19.9288C36.3287 19.9288 36.4108 20.1343 36.493 20.5864C36.5752 20.9973 36.6163 21.3261 36.6163 21.5316C36.6163 22.148 36.8629 22.4357 37.315 22.4357C37.5204 22.4357 37.6437 22.3535 37.6848 22.148C37.315 21.4905 37.1095 20.9562 37.1095 20.5864C37.1095 20.3809 37.1506 20.2165 37.2739 20.011C37.3561 19.8877 37.3971 19.8466 37.3971 19.8466C37.4382 19.8466 37.4382 19.9288 37.4793 20.0521C37.4793 20.2576 37.5204 20.3809 37.5615 20.5453C37.5615 20.5453 37.6848 20.7919 37.8492 21.285C37.9314 21.5727 37.9725 21.7782 37.9725 21.9425ZM38.3423 30.8604C38.5478 30.7371 38.5889 30.6549 38.5067 30.4905C37.8081 29.0521 36.9451 28.3124 35.9177 28.3124C33.7807 28.3124 31.1917 29.9973 28.1917 33.3672C31.8492 33.3672 35.2602 32.5453 38.3423 30.8604ZM27.4519 33.3261C28.0684 32.6275 28.5615 32.011 29.0136 31.3946C29.178 31.2302 29.2602 30.9015 29.2602 30.4905C29.2602 30.4905 29.2602 29.7508 29.2602 28.1891C29.2602 27.9425 29.1369 25.9288 28.8492 22.1891C28.5615 18.5316 28.4382 16.4768 28.4382 16.1069C28.4793 15.4494 28.356 14.9151 28.1095 14.422C28.1095 14.1754 28.3149 13.6001 28.6848 12.6549C28.7259 12.5316 28.767 12.4905 28.8081 12.4905C28.8492 12.4905 28.8903 12.5316 28.9725 12.6549C29.0958 12.9014 29.3423 13.559 29.7533 14.6275C30.1643 15.7371 30.4519 16.4357 30.493 16.7234C30.5341 16.9288 30.5752 17.0521 30.5752 17.1343C30.5752 17.4631 30.2876 17.2576 29.6711 16.559C29.63 16.4768 29.5889 16.5179 29.5478 16.6823C29.5478 16.7234 29.6711 18.2028 29.9177 21.0795C30.1643 23.9973 30.2876 25.6412 30.2876 26.011C30.2876 26.833 30.1232 28.2713 29.8355 30.4083C32.63 27.6138 34.9314 26.2165 36.6985 26.2165C37.5615 26.2165 38.3013 26.6686 38.9588 27.5727C39.493 28.3124 39.7396 28.8878 39.7396 29.422C39.7396 29.9562 39.493 30.5316 39.041 31.1891C38.5067 31.9289 37.767 32.5864 36.8629 33.1206C38.5889 32.8741 39.904 32.5453 40.8081 32.1754V34.0658C40.315 34.2713 39.3698 34.4768 37.9725 34.7234C34.2739 35.2576 31.6848 35.5042 30.1643 35.422C28.6437 35.3809 27.4519 35.3398 26.5889 35.3398V33.2439C26.8355 33.3261 27.1232 33.3261 27.4519 33.3261Z" fill="#124D73"/>
<path d="M41.9182 15.1206C41.9182 14.4631 41.7949 13.8878 41.5895 13.4357C41.5895 13.1891 41.7949 12.5727 42.1648 11.6686C42.2059 11.5864 42.247 11.5453 42.2881 11.5453C42.3292 11.5453 42.3703 11.5864 42.4525 11.7097C42.5758 11.9562 42.8223 12.6138 43.2333 13.6823C43.6443 14.7919 43.9319 15.4905 43.973 15.7371C44.0141 15.9426 44.0552 16.0658 44.0552 16.148C44.0552 16.4768 43.7676 16.2713 43.1511 15.6138C43.0689 15.4905 43.0278 15.5316 43.0278 15.7371C43.0278 15.7782 43.1511 17.6275 43.4388 21.285C43.6854 24.9426 43.8497 27.1206 43.8497 27.8193C43.8497 28.97 43.6443 30.0795 43.2333 31.148C42.6991 32.6686 41.836 33.6138 40.7264 34.107V32.2165C42.1237 31.6412 42.7812 30.7371 42.7812 29.5453C42.7812 28.97 42.6169 26.5864 42.3292 22.4357C42.0826 18.285 41.9182 15.8193 41.9182 15.1206Z" fill="#124D73"/>
<path d="M45.904 16.4357C45.904 15.7782 45.7807 15.2028 45.5752 14.7919C45.5752 14.5453 45.7807 13.9699 46.1506 13.0247C46.1916 12.9014 46.2738 12.8604 46.2738 12.8604C46.3149 12.8604 46.356 12.9014 46.3971 13.0247C46.5204 13.2713 46.767 13.9288 47.1779 14.9973C47.5889 16.1069 47.8766 16.8056 47.9177 17.0521C47.9588 17.2576 47.9999 17.422 47.9999 17.5042C47.9999 17.7919 47.7122 17.6275 47.0958 16.9288C47.0136 16.8056 46.9725 16.8878 46.9725 17.0521C46.9725 17.0932 47.1369 19.2713 47.4245 23.5453C47.7122 27.8193 47.8766 30.2028 47.8766 30.7371C47.8766 32.3809 47.63 33.8193 47.1369 35.0522C47.0136 35.2987 46.9314 35.4631 46.8903 35.5864C46.767 35.7508 46.7259 35.7919 46.7259 35.6686C46.6848 35.5453 46.7259 35.2576 46.7259 34.8878C46.8081 34.3124 46.8492 33.6549 46.8492 32.9152C46.8492 32.2576 46.6848 29.4631 46.3149 24.6138C46.0684 19.7645 45.904 17.011 45.904 16.4357Z" fill="#124D73"/>
</svg>
