<svg width="49" height="49" viewBox="0 0 49 49" fill="none" xmlns="http://www.w3.org/2000/svg">
<g opacity="0.9">
<path d="M8.7507 28.515L9.28231 27.4485C9.32029 27.3723 9.35831 27.3342 9.39637 27.3342C9.4725 27.3341 9.77725 27.524 10.2725 27.866C10.8058 28.2079 11.0726 28.436 11.0726 28.4741C11.0729 28.7025 10.8451 29.1595 10.3892 29.9214C10.3512 29.9976 10.2752 30.0357 10.199 29.9977C9.74178 29.6557 9.24652 29.3137 8.67512 28.9718C8.48531 29.3908 8.29544 29.7717 8.10549 30.0764C8.06752 30.1526 7.99143 30.1907 7.95332 30.1527C7.45801 29.7727 6.92464 29.3927 6.35324 29.0508C6.31518 29.0508 6.31513 29.0128 6.35311 28.9366L7.03666 27.6035C7.07463 27.5273 7.11265 27.4892 7.15071 27.4891C7.18878 27.4891 7.45542 27.641 7.87446 27.907C8.2935 28.1729 8.5983 28.4009 8.7507 28.515ZM6.5112 33.7326C9.6706 33.7288 13.6661 32.62 18.4978 30.4825C18.7641 30.368 18.9163 30.2917 19.0305 30.2915C19.1446 30.2914 19.1828 30.3294 19.1829 30.4436C19.183 30.5197 19.1831 30.5959 19.1452 30.7101C19.1074 30.9766 19.0697 31.2431 19.0699 31.4334C19.0712 32.5373 19.6429 33.0695 20.7848 33.0681L20.7873 35.1237C19.6834 35.125 18.9597 34.7072 18.578 33.8702C18.3872 33.4517 18.2723 32.9189 18.2716 32.2718C18.2715 32.2338 18.2715 32.1957 18.1954 32.2339C13.2117 34.5619 9.02595 35.747 5.63815 35.7511C3.50651 35.7537 1.98321 35.1846 1.03024 34.0819C0.38216 33.2833 0.0384159 32.3321 0.0369348 31.114C0.0353612 29.8198 0.338447 28.6394 0.908128 27.5729C1.1361 27.23 1.25007 27.0395 1.3262 27.0394C1.3262 27.0394 1.32624 27.0775 1.32629 27.1156C1.32643 27.2298 1.28859 27.4201 1.17477 27.7248C1.02297 28.1056 0.871221 28.5245 0.757488 28.9053C0.567764 29.4004 0.492282 29.9334 0.492976 30.5044C0.493855 31.2276 0.837228 31.8743 1.56116 32.4444C2.70418 33.3185 4.30342 33.7353 6.5112 33.7326Z" fill="#124D73"/>
<path d="M20.3017 11.6761C22.1661 10.9887 24.1827 10.263 26.3133 9.461C26.4275 9.4228 26.5036 9.4227 26.5036 9.4227C26.5417 9.46072 26.5037 9.49883 26.5039 9.61303C26.39 9.91769 26.276 10.0701 26.2 10.1463C24.4117 10.7956 22.3572 11.5975 19.9603 12.5901C20.0361 12.3235 20.1499 12.0189 20.3017 11.6761Z" fill="#124D73"/>
<path d="M27.258 34.7352C26.2303 34.7364 25.5066 34.3567 25.0488 33.5579C24.7817 33.0633 24.5524 32.2642 24.4749 31.1605C24.3625 32.6451 23.8309 33.7116 22.8801 34.3979C22.2336 34.8555 21.5106 35.0848 20.7112 35.0857L20.7087 33.0302C22.041 33.0286 22.9541 32.6468 23.4861 31.8468C23.9041 31.2753 24.0932 30.2474 24.0914 28.8389C24.0866 24.8802 23.8922 21.5307 23.5463 18.7904C23.5078 18.4098 23.2778 17.1159 22.9325 14.8324C23.0837 13.9947 23.1972 13.3856 23.311 13.0809C23.3489 12.9286 23.4249 12.8524 23.463 12.8523C23.501 12.8523 23.5392 12.9284 23.6155 13.0805C24.074 14.5265 24.4188 16.3532 24.7261 18.5986C24.9182 20.0829 25.0352 22.4048 25.1152 25.5641C25.1948 28.3808 25.3111 30.1317 25.4642 30.8167C25.6174 31.5778 25.8845 32.1104 26.2274 32.4145C26.4561 32.6045 26.7988 32.7183 27.2936 32.7177L27.2961 34.7351L27.258 34.7352Z" fill="#124D73"/>
<path d="M33.1633 38.9913C35.0277 38.3038 37.0442 37.5781 39.1749 36.7762C39.2891 36.738 39.3652 36.7379 39.3652 36.7379C39.4033 36.7759 39.3653 36.814 39.3654 36.9282C39.2516 37.2329 39.1376 37.3853 39.0616 37.4615C37.2733 38.1108 35.2187 38.9126 32.8218 39.9053C32.8595 39.6007 32.9734 39.296 33.1633 38.9913Z" fill="#124D73"/>
<path d="M42.326 30.3013C42.3259 30.2633 42.3259 30.2633 42.3259 30.2252C42.3255 29.9207 41.9824 29.5024 41.2966 28.9703C40.4965 28.3622 39.6967 28.0206 38.8973 28.0216C37.2605 28.0236 35.5116 29.7386 33.7268 33.2047C34.1457 33.3946 34.7549 33.47 35.4781 33.4691C36.7723 33.4675 38.1803 33.0851 39.7019 32.2839C41.0714 31.559 41.9461 30.9108 42.326 30.3013ZM32.9676 34.9186C32.7021 35.7183 32.4742 36.1373 32.36 36.1374C32.3219 36.1375 32.2838 36.0614 32.2836 35.9472C32.2833 35.6807 32.359 35.3 32.5487 34.7669C31.7487 34.273 31.3291 33.5122 31.3278 32.4464C30.7575 33.018 30.1491 33.5517 29.4263 33.9332C28.5515 34.5053 27.7905 34.7726 27.1054 34.7735L27.1029 32.718C28.5493 32.7162 30.1092 32.0291 31.7824 30.6948C31.8584 30.6186 31.9346 30.6185 32.0108 30.6565C32.0489 30.6945 32.087 30.7706 32.0111 30.9229C31.9352 31.1514 31.8974 31.3798 31.8976 31.5321C31.8983 32.065 32.3176 32.5594 33.1175 32.9771C34.2568 30.8441 35.1305 29.3585 35.7386 28.5964C36.9547 26.9581 38.1718 26.1192 39.3518 26.1178C40.4176 26.1165 41.3317 26.496 42.132 27.2564C42.7798 27.9027 43.1231 28.4732 43.1238 29.0442C43.1246 29.6913 43.0111 30.2624 42.7833 30.7576C42.5176 31.3289 42.0615 31.9385 41.3771 32.5864C41.8338 32.4717 42.5948 32.2043 43.5839 31.7844L43.5862 33.6115C40.8469 34.7568 38.0688 35.3692 35.214 35.3727C34.4907 35.3355 33.6911 35.1842 32.9676 34.9186Z" fill="#124D73"/>
<path d="M45.0122 16.4423C45.0881 16.2519 45.0879 16.0616 45.0496 15.8713C45.0112 15.643 44.8969 15.5289 44.7446 15.5291C44.6685 15.5292 44.5924 15.5673 44.4403 15.6437C44.3262 15.7199 44.2501 15.7961 44.2502 15.8342C44.2504 16.0245 44.479 16.2146 45.0122 16.4423ZM44.6326 17.3183C44.0232 17.0145 43.6802 16.6723 43.6797 16.2917C43.6792 15.873 43.8691 15.454 44.2874 15.1109C44.6676 14.7679 45.01 14.6152 45.2766 14.7291C45.5051 14.8049 45.6195 15.0332 45.6201 15.4519C45.6205 15.8325 45.5448 16.2133 45.3931 16.6703C45.6979 16.8602 45.8884 17.0122 45.9647 17.1644C45.9649 17.3167 45.813 17.6214 45.547 18.0023C45.4708 17.8882 45.2802 17.7362 44.9755 17.5463C44.6335 18.0415 44.1772 18.4608 43.6448 18.8802C43.0363 19.3377 42.4658 19.681 41.9712 19.91C41.8571 19.9482 41.2483 20.1773 40.183 20.5973C39.9928 20.6737 39.8786 20.7119 39.8405 20.7119C39.8025 20.712 39.8025 20.712 39.8025 20.712C39.8024 20.6739 39.9165 20.5976 40.1067 20.4451C40.9054 19.9493 41.7043 19.4916 42.5411 18.9957C43.4158 18.3475 44.1384 17.8137 44.6326 17.3183Z" fill="#124D73"/>
<path d="M43.4196 21.545C43.3815 21.507 43.3814 21.4689 43.4195 21.4308L44.065 20.0977C44.1029 20.0216 44.1409 19.9835 44.179 19.9834C44.2551 19.9833 44.5218 20.1733 45.0552 20.5153C45.5885 20.8572 45.8172 21.0853 45.8172 21.1614C45.8175 21.3898 45.5897 21.8469 45.1338 22.5707C45.0958 22.6469 45.0197 22.685 44.9816 22.647C44.5243 22.2288 43.991 21.8488 43.4196 21.545Z" fill="#124D73"/>
<path d="M45.9758 26.4522C45.48 25.7296 44.9466 25.3496 44.3376 25.3503C43.8808 25.3509 43.6526 25.5034 43.6529 25.7699C43.6533 26.0744 43.9201 26.3025 44.4911 26.3399C44.7956 26.3776 45.2905 26.415 45.9758 26.4522ZM43.546 31.7463C44.6493 31.2501 45.2961 30.9828 45.4483 30.9065C46.3613 30.4486 47.0459 30.0291 47.5022 29.6098C47.5012 28.7724 46.7774 28.3165 45.3309 28.3182L43.9606 28.3199C43.4657 28.3205 43.0468 28.1687 42.78 27.8265C42.475 27.4843 42.3222 27.0657 42.3216 26.5709C42.3208 25.8476 42.5483 25.1622 43.0423 24.4384C43.5363 23.7145 44.0307 23.3713 44.5255 23.3707C45.363 23.3697 46.1629 23.8255 46.8873 24.7763C47.6498 25.8031 48.032 27.0207 48.0337 28.4291C48.0353 29.7995 47.77 30.7514 47.2759 31.323C46.6676 31.9709 45.3743 32.7337 43.4721 33.5354L43.4699 31.7464L43.546 31.7463Z" fill="#124D73"/>
<path d="M35.4102 18.9316C35.4105 19.2063 35.3386 19.5244 35.2089 19.7993C35.0358 20.1754 34.8337 20.3925 34.5879 20.3928C34.1686 20.3933 33.8936 20.119 33.7194 19.5553C33.5178 20.2496 33.1713 20.6259 32.6508 20.6265C32.4773 20.6267 32.3037 20.5257 32.1589 20.309C31.9851 20.1068 31.9124 19.7889 31.912 19.4419L31.9109 18.5455C31.9108 18.4732 31.8385 18.4444 31.7662 18.4011C31.6649 18.3723 31.6215 18.3001 31.6214 18.1988C31.6211 17.9964 31.6932 17.8229 31.8231 17.6492C31.9675 17.4755 32.0686 17.4031 32.1409 17.403C32.2421 17.4029 32.3146 17.5763 32.315 17.9522C32.3153 18.1546 32.2866 18.3282 32.2867 18.4727C32.258 18.6173 32.2581 18.7186 32.2583 18.8198C32.2585 19.0222 32.2877 19.239 32.3602 19.4124C32.4616 19.6147 32.6064 19.7591 32.7365 19.7589C32.9389 19.7587 33.1123 19.6573 33.2856 19.4836C33.4589 19.3099 33.5598 19.1073 33.5595 18.8615C33.5593 18.717 33.4868 18.5146 33.4141 18.1677C33.3125 17.8498 33.2689 17.6474 33.2688 17.5752C33.2687 17.5029 33.2975 17.4016 33.3696 17.228C33.4417 17.0834 33.5139 17.0255 33.5428 17.0254C33.6151 17.0253 33.6876 17.2277 33.7894 17.6468C33.8911 18.0949 33.9638 18.4129 33.964 18.6153C33.9648 19.208 34.1675 19.5114 34.6302 19.5109C34.8326 19.5106 34.9771 19.4092 35.0057 19.1923C34.629 18.4988 34.4115 17.9786 34.411 17.6027C34.4108 17.4003 34.4395 17.2267 34.5838 17.0531C34.656 16.9518 34.6848 16.8795 34.7282 16.8794C34.7571 16.8794 34.8006 16.9516 34.8007 17.0817C34.8299 17.2552 34.8734 17.4286 34.9025 17.5732C34.9025 17.5732 35.004 17.8188 35.1781 18.2957C35.3375 18.5847 35.41 18.787 35.4102 18.9316Z" fill="#124D73"/>
<path d="M30.2561 23.7402C32.9297 22.7682 35.7043 21.7239 38.609 20.636C38.7102 20.607 38.7824 20.5635 38.8114 20.6069C38.8114 20.6069 38.8115 20.6792 38.7827 20.7804C38.6385 21.0986 38.5375 21.2723 38.4653 21.3302C36.0375 22.2295 33.1617 23.3463 29.8959 24.7093C29.9822 24.3911 30.0831 24.0874 30.2561 23.7402Z" fill="#124D73"/>
<path d="M11.7512 15.3177C11.7515 15.52 11.5544 15.8845 11.1206 16.492C10.6078 17.1806 10.1739 17.7072 9.73972 18.0315C9.46342 18.2341 8.55517 18.559 6.97541 18.9656C6.69892 19.0064 6.54094 19.047 6.54094 19.047C6.5804 19.0065 6.65931 18.9255 6.8567 18.8039C7.05403 18.6418 7.60673 18.3173 8.55429 17.8306C9.42283 17.3439 9.93602 17.0195 10.0544 16.898C10.0938 16.8575 10.0938 16.817 10.0938 16.817C10.0936 16.6147 9.30333 16.5347 7.76259 16.5366C7.76259 16.5366 7.48604 16.5369 6.8935 16.5781C6.5775 16.619 6.41942 16.5787 6.41937 16.5382C6.41932 16.4977 6.45873 16.4168 6.5376 16.2953L7.08955 15.3638C7.24723 15.0804 7.56309 14.9181 7.99756 14.8366C8.15553 14.796 8.51109 14.7956 9.06418 14.7949C10.8814 14.7117 11.7508 14.913 11.7512 15.3177Z" fill="#124D73"/>
</g>
</svg>
