<svg width="49" height="49" viewBox="0 0 49 49" fill="none" xmlns="http://www.w3.org/2000/svg">
<path d="M2.46257 38.2499C4.19192 38.2499 6.08999 37.575 8.11459 36.1831C9.67523 35.1286 10.9406 33.9898 11.8264 32.8088C12.0794 32.4292 12.2482 32.2605 12.2482 32.2183C12.3325 32.0496 12.4169 31.7965 12.4169 31.5012C12.4169 30.7842 12.206 29.6032 11.7842 28.0425C11.4889 26.8193 10.7297 24.9634 9.59087 22.4327C9.54869 22.3483 9.59087 22.0531 9.67523 21.5047C9.75959 20.9564 9.84395 20.5768 9.88612 20.3659C9.97048 20.0706 10.0548 20.0285 10.1814 20.2394C11.5733 22.0531 12.5856 24.5416 13.2183 27.7473C13.5135 29.1814 13.851 31.1638 14.3149 33.6945C14.5258 34.7912 14.8633 35.5083 15.4116 35.8457C15.7069 36.0144 16.1287 36.0988 16.677 36.0988V38.4186C15.8334 38.4186 15.2007 38.2499 14.7367 37.9125C14.0619 37.4063 13.5979 36.5206 13.387 35.1708C13.3026 34.7069 13.1339 33.7789 12.923 32.387C12.7121 33.5258 12.3325 34.4116 11.7842 35.1286C10.6454 36.5627 9.25344 37.7859 7.60844 38.8404C5.71037 40.0214 4.0232 40.6541 2.46257 40.6541C1.61898 40.6541 1.02847 40.3167 0.606682 39.5996C0.269247 39.0513 0.0583496 38.3343 0.0583496 37.5329C0.0583496 35.8879 0.395784 34.2429 1.11283 32.5557C1.23937 32.1761 1.36591 32.0074 1.45027 32.0074C1.49245 32.0074 1.49245 32.0496 1.49245 32.1339C1.49245 32.2604 1.45027 32.4292 1.36591 32.6822C0.859757 34.3694 0.64886 35.6348 0.64886 36.5206C0.606681 37.6172 1.19719 38.2499 2.46257 38.2499Z" fill="#124D73"/>
<path d="M23.5524 27.0723C25.7036 26.2709 28.0234 25.4695 30.4698 24.5416C30.5963 24.4994 30.6807 24.4572 30.6807 24.4994C30.7229 24.5416 30.7229 24.6259 30.6385 24.7103C30.4698 25.0477 30.3855 25.2586 30.3011 25.3008C28.2765 26.0178 25.8723 26.988 23.1306 28.0846C23.215 27.8316 23.3837 27.4941 23.5524 27.0723Z" fill="#124D73"/>
<path d="M24.6489 35.5503C25.5768 35.5503 26.5048 35.2129 27.3905 34.4959C27.4749 34.4115 27.8123 34.0741 28.4872 33.3992C29.0777 32.7665 29.4152 32.4291 29.4573 32.4291C29.6261 32.4291 29.626 32.5556 29.5417 32.8509C29.4152 33.2305 29.3308 33.4836 29.3308 33.5679C29.3308 33.821 29.4573 34.1162 29.6682 34.4959C29.9635 34.9598 30.3853 35.1707 30.8492 35.1707C32.1146 35.1707 33.2113 34.2428 34.1392 32.4291C34.2658 32.2182 34.3501 32.1338 34.4767 32.1338C34.561 32.1338 34.6454 32.2182 34.6454 32.3869C34.6454 32.4713 34.6454 32.5556 34.6032 32.6822C34.561 32.8087 34.561 32.9352 34.561 33.0196C34.561 33.5679 34.7297 33.9897 35.0672 34.3271C35.4046 34.6646 35.8264 34.8333 36.3326 34.8333V37.1953C35.1515 37.1953 34.3079 36.4361 33.8018 34.9598C33.7174 34.7489 33.6753 34.7489 33.5909 34.9598C32.916 36.6892 31.9881 37.5328 30.7649 37.5328C29.4995 37.5328 28.7825 36.7314 28.5294 35.1707C28.4872 35.0442 28.4872 34.9598 28.4872 34.9598C28.445 34.9598 28.4028 35.0442 28.3607 35.1707C28.0654 35.6769 27.6014 36.183 27.0531 36.6892C26.1252 37.5328 25.1972 37.9546 24.2693 37.9546C23.257 37.9546 22.5399 37.6593 22.1603 37.0266C21.9072 36.647 21.7807 36.0987 21.7385 35.3394C21.7385 35.2551 21.6963 35.2129 21.612 35.2129C21.4854 35.2129 21.3589 35.2973 21.2324 35.4238C20.4731 36.3517 19.967 36.9001 19.7139 37.0688C18.7016 37.9124 17.6893 38.3342 16.5927 38.3342V35.9721C17.7315 35.9721 18.7438 35.6769 19.5874 35.0864C19.967 34.8333 20.7262 34.1162 21.9494 32.893C22.076 32.7243 22.2447 32.6822 22.3712 32.6822C22.5821 32.6822 22.6665 32.8087 22.5821 33.1039C22.4978 33.3992 22.4556 33.6523 22.4556 33.9054C22.4556 34.4537 22.6665 34.8755 23.1304 35.1707C23.4257 35.4238 23.974 35.5503 24.6489 35.5503Z" fill="#124D73"/>
<path d="M36.4588 26.0601C38.6099 25.2587 40.9298 24.4573 43.3762 23.5293C43.5027 23.4872 43.5871 23.445 43.5871 23.4872C43.6293 23.5293 43.6293 23.6137 43.5449 23.6981C43.3762 24.0355 43.2918 24.2464 43.2075 24.2886C41.1829 25.0056 38.7786 25.9757 36.037 27.0724C36.1635 26.7772 36.2901 26.4397 36.4588 26.0601Z" fill="#124D73"/>
<path d="M44.262 36.0144C44.5995 36.0144 44.7682 35.8878 44.7682 35.7191C44.7682 35.4661 44.5573 35.2552 44.1777 35.1286C43.7137 34.9177 43.1232 34.9177 42.3218 35.0443C42.9545 35.677 43.5872 36.0144 44.262 36.0144ZM36.2902 37.1954V34.8334C37.3025 34.8334 38.5678 34.4116 40.0441 33.6102C40.0019 33.4414 40.1707 33.3149 40.4659 33.1884C40.8033 33.0618 40.9721 33.0618 41.0564 33.1884C42.1109 32.8509 42.9545 32.64 43.6294 32.64C44.3042 32.64 44.8104 32.9353 45.2322 33.4836C45.6118 34.032 45.8227 34.7912 45.8227 35.677C45.8227 36.4362 45.654 37.0267 45.3165 37.5328C44.9791 38.039 44.5573 38.2921 44.009 38.2921C42.7858 38.2921 41.6891 37.3641 40.719 35.5082C38.8631 36.6049 37.3868 37.1954 36.2902 37.1954Z" fill="#124D73"/>
<path d="M41.3939 8.13387C41.3939 8.30259 41.183 8.6822 40.7612 9.27271C40.2551 9.94758 39.8333 10.4116 39.3693 10.749C39.1163 10.9599 38.1883 11.2551 36.6699 11.6769C36.3746 11.7191 36.2481 11.7613 36.2481 11.7613C36.2902 11.7191 36.3746 11.6348 36.5433 11.5082C36.7542 11.3395 37.3025 11.0442 38.1883 10.5803C39.0319 10.1163 39.538 9.82104 39.6646 9.6945C39.7068 9.65232 39.7068 9.61015 39.7068 9.61015C39.7068 9.39925 38.9475 9.31489 37.4291 9.31489C37.4291 9.31489 37.1338 9.31489 36.5433 9.35707C36.2481 9.39925 36.0793 9.35707 36.0793 9.31489C36.0793 9.27271 36.1215 9.18835 36.2059 9.06181L36.7542 8.13387C36.9229 7.83861 37.2182 7.6699 37.64 7.62772C37.7665 7.58554 38.1461 7.58554 38.6945 7.58554C40.5082 7.54336 41.3939 7.71208 41.3939 8.13387Z" fill="#124D73"/>
<path d="M39.918 33.6101C39.454 31.6699 39.0322 28.2955 38.6526 23.4449C38.4417 20.4923 38.3152 17.835 38.3152 15.5574C38.3152 14.7981 38.1886 14.1655 37.9355 13.7015C37.9355 13.4484 38.1886 12.7735 38.6104 11.7612C38.6526 11.6347 38.6948 11.5925 38.737 11.5925C38.7791 11.5925 38.8635 11.6769 38.9057 11.8034C39.0322 12.0565 39.3275 12.8157 39.7914 13.9967C40.2554 15.2621 40.5085 16.0213 40.5928 16.3166C40.6772 16.5275 40.6772 16.6962 40.6772 16.7806C40.6772 17.1602 40.3398 16.9493 39.7071 16.1479C39.6227 16.0635 39.5805 16.1057 39.5805 16.3166C39.5805 17.3289 39.7071 19.7753 39.918 23.6136C40.2132 28.5486 40.5928 31.7542 41.099 33.1461C41.099 33.2305 40.9303 33.3148 40.635 33.4836C40.3398 33.6523 40.0867 33.6945 39.9602 33.6945C39.9602 33.6523 39.918 33.6523 39.918 33.6101Z" fill="#124D73"/>
<path d="M45.6543 16.9072C45.6543 16.1479 45.5277 15.5574 45.2747 15.0513C45.2747 14.756 45.4856 14.1233 45.9073 13.111C45.9917 12.9845 46.0339 12.9001 46.0761 12.9001C46.1182 12.9001 46.1604 12.9845 46.2448 13.111C46.3713 13.4063 46.6666 14.1233 47.1305 15.3044C47.5945 16.5697 47.8898 17.329 47.9741 17.6242C48.0585 17.8351 48.0585 18.0038 48.0585 18.1304C48.0585 18.4678 47.7211 18.2569 47.0462 17.4977C46.9618 17.3711 46.9196 17.4133 46.9196 17.6242C46.9196 17.7086 47.0884 20.0706 47.4258 24.8369C47.7632 29.561 47.932 32.2182 47.932 32.8088C47.932 34.6225 47.6789 36.2253 47.1305 37.6172C47.004 37.9124 46.9196 38.0812 46.8353 38.2077C46.7088 38.4186 46.6666 38.4608 46.6244 38.3342C46.5822 38.1655 46.5822 37.8703 46.6666 37.4485C46.7509 36.8158 46.7931 36.0987 46.7931 35.2552C46.7931 34.4959 46.5822 31.4168 46.2026 26.0179C45.8652 20.6189 45.6543 17.582 45.6543 16.9072Z" fill="#124D73"/>
</svg>
