<svg width="49" height="49" viewBox="0 0 49 49" fill="none" xmlns="http://www.w3.org/2000/svg">
<path d="M26.57 40.2673C26.5728 42.5179 25.6439 44.4981 23.7835 46.3241C21.9619 48.0725 19.9064 48.9675 17.6558 48.9702C13.6202 48.9751 11.5997 46.7269 11.5943 42.2645C11.5918 40.208 12.1326 38.2283 13.1392 36.3257C12.8285 36.1321 12.6343 35.9771 12.6342 35.8995C12.6341 35.8219 12.7117 35.783 12.8669 35.7828C13.0221 35.7826 13.1773 35.7824 13.4102 35.8209C14.6883 33.8404 16.4713 32.2473 18.7981 31.0803C17.5952 31.0818 16.3923 31.0833 15.2281 31.0071C14.064 30.9697 12.9774 30.9322 12.0073 30.9334C11.5029 30.934 11.27 30.8955 11.2699 30.7791C11.2698 30.7403 11.2697 30.6627 11.3472 30.5462C11.5019 30.0803 11.6564 29.5369 11.9273 28.9157L15.4972 28.9114C16.6613 28.9099 18.0194 28.9083 19.5717 28.984C21.1239 29.0209 22.1716 29.0585 22.676 29.0578C23.2969 29.0571 23.9177 29.0175 24.4609 28.9781C24.8489 28.9388 25.0818 28.9773 25.0819 29.0937C25.082 29.1325 25.0821 29.2489 25.0046 29.3654L24.5018 30.7242C24.4632 30.8794 24.3081 30.9572 24.1529 30.9962C22.7177 31.386 21.7867 31.6588 21.3601 31.8145C20.3128 32.165 19.3044 32.5931 18.2961 33.0599C16.7061 33.8379 15.4656 34.8095 14.4968 35.936C15.7388 36.0897 17.7567 36.2425 20.6283 36.3166C22.685 36.3917 24.0045 36.5841 24.5869 36.8162C25.1692 37.0872 25.6353 37.4746 26.024 38.0174C26.3741 38.6766 26.569 39.4137 26.57 40.2673ZM26.028 41.2769C26.0273 40.6948 25.8327 40.1906 25.4052 39.6867C24.9777 39.144 24.3564 38.7567 23.6188 38.5248C22.9589 38.3316 21.8723 38.2165 20.3201 38.1796C18.7291 38.1427 17.6037 38.0664 17.0215 37.9119C15.9347 37.6416 14.8865 37.2549 13.8381 36.6741C13.4895 37.179 13.141 37.839 12.8703 38.5766C12.4448 39.7025 12.2133 40.7504 12.2145 41.7593C12.2186 45.1352 14.1221 46.8403 17.9248 46.8357C19.2053 46.8341 20.4854 46.4833 21.8039 45.8221C23.0061 45.1997 23.9753 44.4613 24.8279 43.5678C25.6417 42.7131 26.0288 41.9366 26.028 41.2769Z" fill="#124D73"/>
<path d="M21.9164 10.666C21.9166 10.8212 21.723 11.1707 21.3744 11.6755C20.9483 12.2581 20.5219 12.6855 20.173 12.9575C19.9404 13.113 19.1259 13.3856 17.7682 13.7753C17.4966 13.8145 17.3803 13.8534 17.3803 13.8534C17.419 13.8145 17.4966 13.7757 17.6516 13.6202C17.8066 13.4648 18.3107 13.1926 19.1252 12.8036C19.9007 12.3758 20.3273 12.1425 20.4435 12.0259C20.4823 11.9871 20.4823 11.9871 20.4822 11.9483C20.482 11.793 19.8222 11.6774 18.4253 11.6791C18.4253 11.6791 18.1537 11.6795 17.6492 11.6801C17.3776 11.6804 17.2612 11.6805 17.2612 11.6417C17.2611 11.6029 17.2998 11.5253 17.3773 11.4088L17.8807 10.5933C18.0357 10.3603 18.2683 10.2048 18.6563 10.1267C18.7726 10.0878 19.083 10.0874 19.5875 10.0868C21.1397 10.1625 21.916 10.3168 21.9164 10.666Z" fill="#124D73"/>
<path d="M19.8677 16.9934L20.4096 15.9062C20.4483 15.8285 20.487 15.7897 20.5259 15.7896C20.6035 15.7896 20.9141 15.9832 21.419 16.3318C21.9627 16.6804 22.2346 16.9129 22.2346 16.9517C22.2349 17.1845 22.0027 17.6504 21.538 18.4271C21.4992 18.5047 21.4217 18.5436 21.344 18.5049C20.878 18.1562 20.3731 17.8076 19.7906 17.4591C19.5971 17.8862 19.4036 18.2744 19.2099 18.5851C19.1712 18.6628 19.0937 18.7017 19.0548 18.6629C18.5499 18.2755 18.0062 17.8881 17.4237 17.5396C17.3849 17.5396 17.3848 17.5008 17.4236 17.4232L18.1204 16.0642C18.1591 15.9865 18.1978 15.9477 18.2366 15.9476C18.2754 15.9476 18.5472 16.1025 18.9744 16.3736C19.4404 16.6446 19.7123 16.8383 19.8677 16.9934Z" fill="#124D73"/>
<path d="M23.6444 27.7373C22.131 27.7392 21.0439 27.236 20.383 26.1892C20.1497 25.8402 19.955 25.2584 19.7989 24.5213C19.6818 23.9394 19.565 23.6291 19.4874 23.6292C19.2934 23.6294 19.0997 23.9401 18.8288 24.5225C18.4419 25.4542 18.0935 26.1531 17.8224 26.5803C17.2027 27.5123 16.4664 28.2893 15.5358 28.9113L11.9659 28.9156C12.0434 28.8379 12.7026 28.4103 13.9434 27.7103C15.3006 26.9326 16.3086 26.1553 17.0061 25.3784C17.5486 24.7569 18.1684 23.8636 18.7878 22.7376C19.2525 21.9221 19.6012 21.5337 19.8341 21.5334C20.1445 21.533 20.3776 21.8044 20.4559 22.3475C20.6121 23.1622 20.7681 23.7829 20.9625 24.1319C21.1959 24.5584 21.5455 24.9072 21.9727 25.1783C22.4775 25.4881 23.021 25.6815 23.6419 25.6807L23.6444 27.7373Z" fill="#124D73"/>
<path d="M23.8577 11.6337C25.7582 10.9329 27.8139 10.1932 29.9859 9.37565C30.1023 9.33671 30.1799 9.33661 30.1799 9.33661C30.2188 9.37537 30.18 9.41422 30.1801 9.53063C30.0641 9.8412 29.9479 9.99655 29.8704 10.0743C28.0474 10.7361 25.9142 11.5536 23.5096 12.5654C23.5869 12.2937 23.7029 11.9831 23.8577 11.6337Z" fill="#124D73"/>
<path d="M25.96 17.2188C25.9211 17.1801 25.9211 17.1413 25.9598 17.1024L26.6178 15.7435C26.6565 15.6658 26.6953 15.627 26.7341 15.627C26.8117 15.6269 27.0836 15.8205 27.6272 16.1691C28.1709 16.5177 28.404 16.7502 28.4041 16.8278C28.4044 17.0607 28.1721 17.5266 27.7074 18.2644C27.6687 18.3421 27.5911 18.381 27.5523 18.3422C27.0473 17.916 26.5036 17.5286 25.96 17.2188Z" fill="#124D73"/>
<path d="M29.9302 27.4193C28.1841 27.4214 26.8645 27.1902 26.0878 26.6867C25.1186 27.4251 24.2265 27.7754 23.4505 27.7764L23.4479 25.681C23.9912 25.6803 24.4567 25.5633 24.9221 25.3688C24.7276 24.981 24.6105 24.4378 24.6097 23.7394C24.6085 22.7693 24.9565 21.7988 25.6926 20.8278C26.3512 19.9345 26.9327 19.4682 27.3983 19.4676C27.8252 19.4671 28.1748 19.7771 28.4472 20.4364C28.6418 20.9406 28.7201 21.4838 28.7207 22.027C28.7224 23.3852 28.4132 24.3944 27.832 25.1324C28.2202 25.2483 28.9188 25.3251 29.9277 25.3239L29.9302 27.4193ZM27.9464 23.4249C27.946 23.1145 27.8292 22.7654 27.6345 22.2612C27.4011 21.7182 27.2067 21.4468 27.0515 21.447C26.8187 21.4473 26.5085 21.6805 26.0823 22.1466C25.656 22.6128 25.3461 23.04 25.1913 23.4283C25.2304 23.6222 25.4247 23.8548 25.6578 24.1261C25.9298 24.3974 26.1628 24.5524 26.4345 24.6685C27.1713 24.2407 27.6753 23.8521 27.9464 23.4249Z" fill="#124D73"/>
<path d="M33.5854 1.53293C33.5856 1.68815 33.392 2.03762 33.0434 2.54249C32.6173 3.12506 32.191 3.55241 31.8421 3.82446C31.6094 3.97996 30.7949 4.25258 29.4372 4.64226C29.1657 4.6814 29.0493 4.72034 29.0493 4.72034C29.0881 4.68149 29.1656 4.64259 29.3206 4.48719C29.4757 4.33179 29.9798 4.05955 30.7942 3.67052C31.5697 3.24274 31.9963 3.0094 32.1126 2.89285C32.1513 2.854 32.1513 2.854 32.1513 2.8152C32.1511 2.65998 31.4913 2.54437 30.0944 2.54607C30.0944 2.54607 29.8227 2.5464 29.3183 2.54702C29.0467 2.54735 28.9302 2.54749 28.9302 2.50868C28.9302 2.46988 28.9689 2.39223 29.0463 2.27572L29.5498 1.46023C29.7047 1.22722 29.9373 1.07173 30.3253 0.993647C30.4416 0.954702 30.7521 0.954325 31.2565 0.953712C32.8088 1.02943 33.585 1.1837 33.5854 1.53293Z" fill="#124D73"/>
<path d="M33.1047 21.207C33.1072 23.2248 32.7598 24.7773 32.024 25.9423C31.4043 26.9132 30.7064 27.4185 29.8916 27.4194L29.889 25.3241C30.5487 25.3233 31.208 25.0508 31.7894 24.5457C31.9833 24.3902 32.0602 23.8469 32.059 22.8768C32.0583 22.2947 31.9003 19.9667 31.6237 15.8539C31.3082 11.7411 31.1889 9.3354 31.188 8.63694C31.1872 7.97728 31.0702 7.43417 30.8756 7.00757C30.8753 6.73594 31.0686 6.15365 31.4556 5.2607C31.4943 5.18305 31.533 5.10539 31.5718 5.10535C31.6106 5.1053 31.6494 5.14406 31.7272 5.26037C31.8439 5.49305 32.1163 6.15238 32.5056 7.1996C32.9338 8.32439 33.1675 8.98376 33.2454 9.25529C33.2844 9.44926 33.3234 9.60443 33.3235 9.68204C33.3239 9.99247 33.0133 9.83763 32.4304 9.13987C32.3526 9.02356 32.3139 9.06241 32.3141 9.25643C32.3142 9.29523 32.4328 11.1189 32.7088 14.7273C32.946 18.3745 33.1039 20.5085 33.1047 21.207Z" fill="#124D73"/>
<path d="M34.6527 17.9067C34.6519 17.2471 34.5348 16.704 34.3403 16.2773C34.34 16.0445 34.5333 15.4622 34.9202 14.5305C34.9589 14.414 35.0364 14.3751 35.0364 14.3751C35.0752 14.3751 35.1141 14.4138 35.1918 14.5302C35.3085 14.7628 35.581 15.4222 35.9703 16.4694C36.3985 17.5942 36.6321 18.2535 36.71 18.5251C36.7491 18.719 36.7881 18.8742 36.7882 18.9906C36.7886 19.3011 36.4779 19.1074 35.8951 18.4485C35.8173 18.3321 35.7786 18.4098 35.7788 18.565C35.7788 18.6038 35.9367 20.7378 36.2522 24.967C36.5677 29.1574 36.7258 31.5243 36.7265 32.0675C36.7285 33.6973 36.4974 35.1333 35.9944 36.3368C35.8783 36.5698 35.8009 36.7639 35.7235 36.8804C35.6073 37.0745 35.5685 37.0746 35.5683 36.9582C35.5294 36.8418 35.5679 36.5701 35.5674 36.1821C35.6443 35.6387 35.6823 34.979 35.6814 34.2418C35.6806 33.5821 35.4833 30.8273 35.167 26.016C34.8119 21.166 34.6534 18.4888 34.6527 17.9067Z" fill="#124D73"/>
</svg>
