<svg width="49" height="49" viewBox="0 0 49 49" fill="none" xmlns="http://www.w3.org/2000/svg">
<path d="M9.1214 17.1344L9.58817 16.123C9.62707 16.0452 9.66597 16.0063 9.70487 16.0063C9.78266 16.0063 10.0549 16.1619 10.5217 16.512C11.0274 16.8621 11.2608 17.0566 11.2608 17.0955C11.2608 17.29 11.0663 17.7568 10.6384 18.4569C10.5995 18.5347 10.5217 18.5736 10.4828 18.5347C10.0549 18.2235 9.58817 17.9123 9.0436 17.5623C8.88801 17.9512 8.69352 18.3013 8.49903 18.5736C8.46013 18.6514 8.42123 18.6903 8.34344 18.6514C7.87666 18.2624 7.37099 17.9512 6.82641 17.6012C6.78752 17.6012 6.78752 17.5623 6.82641 17.4845L7.44878 16.2397C7.48768 16.1619 7.52658 16.123 7.56548 16.123C7.60437 16.123 7.83776 16.2397 8.26564 16.512C8.73242 16.8232 8.9658 17.0177 9.1214 17.1344Z" fill="#124D73"/>
<path d="M6.08754 22.7357C7.48787 22.7357 9.04379 22.5023 10.7942 22.0355C12.0389 21.7243 13.4004 21.2576 14.8396 20.6741C15.6176 20.3629 16.3955 20.0128 17.1346 19.7016C17.9514 19.3905 18.5738 19.2349 18.9628 19.2349C19.7018 19.2349 20.0519 19.546 20.0519 20.2462C20.0519 20.713 19.8185 21.2576 19.3907 21.9188C19.274 22.0744 18.9628 22.5023 18.4182 23.2025C18.107 23.5525 17.7958 23.9026 17.4847 24.2527C17.0957 24.6806 16.7845 25.1085 16.59 25.4974C16.2399 26.1198 16.0454 26.4699 16.0065 26.4699V26.431C16.0065 26.3143 16.0843 26.042 16.2399 25.4974C16.4733 24.7195 17.0179 23.8637 17.8736 22.8913C18.6516 21.9966 19.0406 21.452 19.0406 21.2965C19.0406 21.1798 18.9239 21.102 18.6905 21.102C18.3404 21.102 17.6402 21.2965 16.6289 21.6854C14.3339 22.5801 12.9725 23.0858 12.5057 23.2414C9.62726 24.1749 7.25448 24.6417 5.34848 24.6417C3.32578 24.6417 1.88656 24.136 0.991902 23.0858C0.369534 22.3467 0.0583496 21.4131 0.0583496 20.2851C0.0583496 19.0793 0.330636 17.9512 0.914106 16.9399C1.1086 16.5898 1.22529 16.4342 1.30309 16.4342C1.30309 16.4342 1.30309 16.4731 1.30309 16.512C1.30309 16.6287 1.26419 16.8232 1.14749 17.0566C0.991901 17.4456 0.875207 17.7956 0.758513 18.1457C0.602921 18.6514 0.525126 19.1571 0.525126 19.7016C0.525126 20.3629 0.875207 20.9853 1.53647 21.5298C2.50892 22.3467 4.02595 22.7357 6.08754 22.7357Z" fill="#124D73"/>
<path d="M15.3844 26.47C15.54 27.3646 15.8512 27.9481 16.2791 28.2204C16.5125 28.3371 16.8625 28.4149 17.3293 28.4149V30.3209C16.6292 30.3209 16.0846 30.1653 15.7345 29.893C15.1899 29.504 14.8399 28.726 14.6454 27.6369C14.5287 26.9367 14.412 24.9529 14.3342 21.6466C14.2175 18.0291 14.1397 15.8508 14.0619 15.0339C13.9063 13.7114 13.6729 12.4667 13.2839 11.2997C13.2839 10.9885 13.4006 10.5218 13.6729 9.8994C13.7118 9.74381 13.7507 9.66602 13.8285 9.66602C13.8674 9.66602 13.9063 9.74381 13.9841 9.86051C14.3731 10.6774 14.6843 11.9999 14.9177 13.9059C15.0343 15.0728 15.151 17.4456 15.2288 20.9464C15.2677 24.3306 15.3455 26.1588 15.3844 26.47Z" fill="#124D73"/>
<path d="M16.2787 32.3435L16.7455 31.3321C16.7844 31.2544 16.8233 31.2155 16.8622 31.2155C16.94 31.2155 17.2123 31.371 17.6791 31.7211C18.1847 32.0712 18.4181 32.2657 18.4181 32.3046C18.4181 32.4991 18.2236 32.9659 17.7958 33.666C17.7569 33.7438 17.6791 33.7827 17.6402 33.7438C17.2123 33.4326 16.7455 33.1215 16.201 32.7714C16.0454 33.1604 15.8509 33.5104 15.6564 33.7827C15.6175 33.8605 15.5786 33.8994 15.5008 33.8605C15.034 33.4715 14.5283 33.1604 13.9838 32.8103C13.9449 32.8103 13.9449 32.7714 13.9838 32.6936L14.6061 31.4488C14.645 31.371 14.6839 31.3321 14.7228 31.3321C14.7617 31.3321 14.9951 31.4488 15.423 31.7211C15.8898 31.9934 16.1621 32.1879 16.2787 32.3435Z" fill="#124D73"/>
<path d="M19.2351 27.0923C19.2351 28.0259 19.0795 28.726 18.8072 29.2317C18.4182 29.9708 17.8737 30.3209 17.2124 30.3209V28.4149C17.9515 28.4149 18.4182 28.1815 18.6127 27.6758C18.6127 27.4035 18.3404 26.8589 17.7959 26.0032C17.757 25.9254 17.7181 25.8476 17.7181 25.7698C17.7181 25.303 17.8348 24.7973 18.0682 24.3306C18.146 24.175 18.2237 24.175 18.3015 24.3306C18.6127 24.7973 18.8461 25.1863 18.9239 25.4975C19.1573 25.9254 19.2351 26.47 19.2351 27.0923Z" fill="#124D73"/>
<path d="M17.8351 38.7616C19.5855 38.1393 21.4915 37.4391 23.4753 36.7C23.592 36.6611 23.6309 36.6611 23.6309 36.6611C23.6698 36.7 23.6309 36.7389 23.6309 36.8167C23.5142 37.089 23.4364 37.2446 23.3586 37.3224C21.686 37.9448 19.7411 38.6838 17.485 39.6174C17.6017 39.384 17.6795 39.0728 17.8351 38.7616Z" fill="#124D73"/>
<path d="M20.7135 35.8055C19.3521 35.8055 18.6908 34.9108 18.6908 33.1604C18.6908 31.8379 18.9631 30.4764 19.5466 29.0761C19.6632 28.7649 19.741 28.6093 19.8188 28.6093C19.8577 28.6093 19.8577 28.6482 19.8577 28.726C19.8577 28.8038 19.8188 28.9594 19.7799 29.1539C19.391 30.5153 19.1965 31.5656 19.1965 32.3046C19.1965 32.8492 19.3521 33.2382 19.6632 33.5105C19.9355 33.7439 20.2467 33.8994 20.6357 33.8994C21.4915 33.8994 23.1252 33.1215 25.5368 31.5267C27.7151 30.0874 28.9988 29.2317 29.31 28.8816C29.4655 28.7649 29.5433 28.6482 29.5433 28.4926C29.5433 28.337 29.3878 28.1036 29.0377 27.8703C28.6487 27.5591 27.9874 27.1701 27.0539 26.7422C26.0425 26.2754 25.3035 25.8865 24.8367 25.5364C23.9809 24.9529 23.203 24.2138 22.5417 23.3192C22.4639 23.2025 22.3083 23.0858 22.036 22.9302C21.8804 22.8524 21.8026 22.6579 21.8026 22.3467V21.1798C21.8026 21.0631 21.8026 21.0242 21.8415 20.9464C21.8804 20.9075 21.9582 20.9464 22.1527 21.0242L24.1365 21.9578C24.2143 21.9967 24.2921 22.0356 24.3699 22.0745C24.6811 22.2689 24.7978 22.3856 24.72 22.5023C24.6422 22.6579 24.2532 22.6968 23.6308 22.6579C24.3699 23.3581 25.3035 24.0194 26.5093 24.5639C27.9485 25.2641 28.8043 25.692 29.0766 25.8865C29.6989 26.3532 30.049 27.0923 30.049 28.1814C30.049 28.4148 30.049 28.6482 29.9712 28.8427C29.8545 29.4262 29.7378 29.8541 29.6211 30.0874C29.5433 30.243 29.31 30.4764 28.9988 30.7876C28.4153 31.2933 27.2095 32.1879 25.3035 33.4327C22.9696 35.0275 21.4137 35.8055 20.7135 35.8055Z" fill="#124D73"/>
<path d="M31.2157 29.6206C31.3713 30.5152 31.6825 31.0987 32.1104 31.371C32.3438 31.4877 32.6939 31.5655 33.1606 31.5655V33.4715C32.4605 33.4715 31.9159 33.3159 31.5658 33.0436C31.0212 32.6546 30.6712 31.8767 30.4767 30.7875C30.36 30.0874 30.2433 28.1036 30.1655 24.7972C30.0488 21.1797 29.971 19.0014 29.8932 18.1846C29.7376 16.862 29.5042 15.6173 29.1152 14.4504C29.1152 14.1392 29.2319 13.6724 29.5042 13.05C29.5431 12.8944 29.582 12.8167 29.6598 12.8167C29.6987 12.8167 29.7376 12.8944 29.8154 13.0111C30.2044 13.828 30.5156 15.1505 30.7489 17.0565C30.8656 18.2235 30.9823 20.5963 31.0601 24.0971C31.099 27.5201 31.1379 29.3094 31.2157 29.6206Z" fill="#124D73"/>
<path d="M39.2287 28.9593C38.8786 28.6871 38.1785 28.5704 37.2449 28.5704C36.8948 28.5704 36.5447 28.6093 36.2724 28.6482C36.8948 29.076 37.3227 29.4261 37.6339 29.7762C38.1007 29.465 38.6452 29.1927 39.2287 28.9593ZM37.1282 31.6044C35.9224 32.4213 35.1444 32.9269 34.8721 33.0436C34.2887 33.3548 33.6663 33.5104 33.005 33.5104V31.6044C33.8997 31.6044 34.911 31.2543 36.0002 30.5931C35.6501 30.2041 35.2222 29.8929 34.7165 29.6206C34.2498 29.3872 33.8997 29.2705 33.7052 29.2705C33.2384 29.2705 32.8883 29.3483 32.6938 29.465C32.616 29.5039 32.5382 29.5428 32.4604 29.5428C32.3826 29.5428 32.3438 29.5039 32.3438 29.4261C32.3438 29.3483 32.3826 29.2705 32.4215 29.1927L33.005 27.8313C33.0828 27.5979 33.6663 27.3645 34.6776 27.1311C35.689 26.8977 36.6225 26.8199 37.4783 26.8199C39.1898 26.8199 40.5901 27.2089 41.6015 27.948C41.8738 28.1425 41.9905 28.2592 41.9905 28.337C41.9905 28.3759 41.9516 28.4926 41.8738 28.6482L41.3292 29.7762C40.7068 29.9707 39.89 30.3208 38.8397 30.7875C39.4232 31.3321 40.2789 31.6433 41.407 31.6433V33.5493C40.5512 33.5493 39.89 33.4715 39.4232 33.2381C38.8397 33.0047 38.0618 32.4602 37.1282 31.6044Z" fill="#124D73"/>
<path d="M43.6633 11.1829C43.6633 11.3385 43.5077 11.6497 43.1576 12.1165C42.7686 12.661 42.3796 13.05 42.0295 13.3223C41.7962 13.4779 41.0571 13.7113 39.8124 14.0614C39.579 14.1003 39.4623 14.1392 39.4623 14.1392C39.5012 14.1003 39.579 14.0614 39.6957 13.9447C39.8513 13.828 40.318 13.5557 41.0571 13.1667C41.7573 12.7777 42.1462 12.5444 42.2629 12.4277C42.3018 12.3888 42.3018 12.3888 42.3018 12.3499C42.3018 12.1943 41.6795 12.1165 40.4347 12.1165C40.4347 12.1165 40.2013 12.1165 39.7346 12.1165C39.5012 12.1165 39.3456 12.1165 39.3456 12.0776C39.3456 12.0387 39.3845 11.9998 39.4623 11.8831L39.9291 11.144C40.0457 10.9106 40.318 10.7939 40.6681 10.7161C40.7848 10.6772 41.0571 10.6772 41.5239 10.6772C42.9631 10.6772 43.6633 10.8328 43.6633 11.1829Z" fill="#124D73"/>
<path d="M44.2469 27.7925C44.2469 29.6596 43.8968 31.0988 43.2355 32.1491C42.6909 33.0437 42.0297 33.5105 41.2517 33.5105V31.6045C41.8741 31.6045 42.4575 31.3711 43.0021 30.9043C43.1577 30.7487 43.2744 30.2431 43.2744 29.3873C43.2744 28.8427 43.1188 26.7033 42.8854 22.8913C42.6131 19.1182 42.4964 16.901 42.4964 16.2398C42.4964 15.6174 42.3798 15.1117 42.1853 14.7227C42.1853 14.4894 42.3409 13.9448 42.7298 13.1279C42.7687 13.0501 42.8076 13.0112 42.8465 13.0112C42.8854 13.0112 42.9243 13.0501 43.0021 13.1668C43.1188 13.4002 43.3522 13.9837 43.7023 14.9561C44.0913 15.9675 44.3247 16.6287 44.4024 16.8621C44.4413 17.0566 44.4802 17.1733 44.4802 17.2511C44.4802 17.5234 44.208 17.3678 43.6634 16.7843C43.5856 16.7065 43.5856 16.7065 43.5856 16.8621C43.5856 16.901 43.7023 18.5736 43.9357 21.9189C44.1302 25.1863 44.2469 27.1701 44.2469 27.7925Z" fill="#124D73"/>
<path d="M46.1136 16.2398C46.1136 15.6175 45.9969 15.1118 45.8024 14.7228C45.8024 14.4894 45.958 13.9838 46.3469 13.128C46.3858 13.0113 46.4247 12.9724 46.4636 12.9724C46.5025 12.9724 46.5414 13.0113 46.5803 13.128C46.697 13.3614 46.9304 13.9449 47.2805 14.9173C47.6695 15.9287 47.9029 16.5899 47.9807 16.8233C48.0196 17.0178 48.0585 17.1345 48.0585 17.2512C48.0585 17.5235 47.7862 17.3679 47.2416 16.7455C47.1638 16.6677 47.1638 16.7066 47.1638 16.8622C47.1638 16.9011 47.3194 18.8849 47.5917 22.7747C47.864 26.6645 48.0196 28.8428 48.0196 29.3096C48.0196 30.8266 47.7862 32.1102 47.3583 33.2383C47.2416 33.4717 47.1638 33.6273 47.1249 33.7051C47.0471 33.8606 46.9693 33.8995 46.9693 33.7828C46.9304 33.6662 46.9693 33.4328 46.9693 33.0438C47.0471 32.5381 47.086 31.9157 47.086 31.2545C47.086 30.6321 46.9304 28.1037 46.6192 23.6694C46.2691 19.2739 46.1136 16.7844 46.1136 16.2398Z" fill="#124D73"/>
</svg>
