<svg width="49" height="31" viewBox="0 0 49 31" fill="none" xmlns="http://www.w3.org/2000/svg">
<path d="M6.50347 22.2975C6.4651 22.2591 6.4651 22.2207 6.50347 22.1824L7.07901 21.0697C7.11738 20.9929 7.15575 20.9545 7.19412 20.9545C7.27086 20.9545 7.50108 21.108 7.92314 21.415C8.34521 21.7219 8.57543 21.8754 8.57543 21.9522C8.57543 22.144 8.38358 22.5277 7.99988 23.1416C7.96151 23.2184 7.92314 23.2567 7.84641 23.2184C7.42434 22.873 6.96391 22.5661 6.50347 22.2975ZM5.19891 29.4342C3.05021 29.4342 1.5538 28.3599 0.74804 26.2495C0.594561 25.8275 0.517822 25.3287 0.517822 24.6764C0.517822 24.216 0.556192 23.7939 0.632931 23.3718C0.70967 22.7195 0.863149 22.1824 1.055 21.6836C1.13174 21.5301 1.17011 21.4534 1.24684 21.4534C1.28521 21.4534 1.28521 21.5685 1.28521 21.7603C1.20847 22.0673 1.13173 22.3359 1.09337 22.6428C0.978257 23.18 0.901518 23.602 0.901518 23.8323C0.901518 24.7148 1.20847 25.5205 1.78402 26.2495C2.58978 27.2472 3.74086 27.7076 5.23728 27.7076C6.54184 27.7076 7.92314 27.4006 9.38119 26.7484C10.4939 26.2879 11.5299 25.6356 12.5275 24.8682C13.3716 24.2543 13.8321 23.7939 13.9855 23.4869C13.9855 22.5277 13.7169 21.4917 13.1414 20.4174C13.0647 20.2255 12.9879 20.0337 12.9879 19.9186C12.9879 19.8418 13.103 19.4198 13.3332 18.6907C13.3716 18.5373 13.41 18.4989 13.4484 18.4989C13.5251 18.4989 13.6018 18.5756 13.6786 18.7675C13.8321 19.1128 13.9472 19.3047 14.0239 19.3814C14.2157 19.5732 14.5227 19.6884 14.9064 19.6884V21.415C14.7146 21.415 14.5611 21.415 14.4843 21.3766C14.4843 22.5661 14.4076 23.4486 14.2925 24.0625C14.139 24.7531 13.9088 25.2519 13.5635 25.5973C12.6042 26.5181 11.4531 27.3623 10.1102 28.0913C8.34521 28.9738 6.73369 29.4342 5.19891 29.4342Z" fill="#124D73"/>
<path d="M16.6715 28.3215L17.0936 27.439C17.132 27.3622 17.1703 27.3239 17.2087 27.3239C17.2854 27.3239 17.5157 27.4773 17.9377 27.7843C18.3982 28.0912 18.59 28.2447 18.59 28.3215C18.59 28.5133 18.3982 28.897 18.0145 29.5493C17.9761 29.626 17.9377 29.626 17.861 29.5877C17.4773 29.3191 17.0552 29.0121 16.5564 28.7052C16.4029 29.0888 16.2495 29.3574 16.096 29.626C16.0576 29.7028 16.0193 29.7411 15.9425 29.7028C15.5204 29.3574 15.06 29.0505 14.5996 28.7819C14.5612 28.7819 14.5612 28.7435 14.5996 28.6668L15.1751 27.5541C15.2135 27.4773 15.2519 27.439 15.2902 27.439C15.3286 27.439 15.5204 27.5541 15.9041 27.8227C16.3262 28.0529 16.5564 28.2063 16.6715 28.3215Z" fill="#124D73"/>
<path d="M19.434 24.7147C18.5899 24.7147 18.0143 24.4461 17.669 23.8705C17.4388 23.4869 17.247 22.7962 17.1702 21.837C17.0551 20.5708 16.94 19.765 16.8249 19.3813C16.7482 18.9976 16.633 18.8441 16.5179 18.8441C16.4412 18.8441 16.3645 18.9592 16.3261 19.1895C16.0575 20.6859 15.5971 21.4149 14.868 21.4149V19.7266C15.7122 19.7266 16.1342 19.036 16.211 17.693C16.2493 17.1559 16.3645 16.9257 16.5947 16.9257C16.8249 16.9257 17.0167 17.1175 17.1702 17.5396C17.4004 18.1919 17.6306 19.1127 17.7458 20.2254C17.8609 21.2614 18.0143 21.9137 18.1678 22.2207C18.398 22.7578 18.8585 23.0264 19.5108 23.0264V24.7147H19.434Z" fill="#124D73"/>
<path d="M19.549 29.8179C21.1221 29.2423 22.8488 28.6284 24.6521 27.9761C24.7289 27.9377 24.8056 27.9377 24.8056 27.9377C24.844 27.9761 24.8056 28.0145 24.8056 28.0912C24.6905 28.3214 24.6138 28.4749 24.5754 28.5517C23.079 29.0888 21.314 29.7795 19.2804 30.6236C19.3188 30.355 19.3955 30.1248 19.549 29.8179Z" fill="#124D73"/>
<path d="M21.429 15.928C21.3907 15.8896 21.3907 15.8513 21.429 15.8129L22.0046 14.7002C22.043 14.6235 22.0813 14.5851 22.1197 14.5851C22.1964 14.5851 22.4267 14.7386 22.8487 15.0455C23.2708 15.3525 23.501 15.506 23.501 15.5827C23.501 15.7745 23.3092 16.1582 22.9255 16.7721C22.8871 16.8489 22.8487 16.8873 22.772 16.8489C22.3499 16.5419 21.8895 16.1966 21.429 15.928Z" fill="#124D73"/>
<path d="M24.7292 24.4077C23.2711 24.4077 22.1968 24.2159 21.5445 23.7938C20.7387 24.4077 20.0097 24.7147 19.3574 24.7147V22.9881C19.7795 22.9881 20.2016 22.9113 20.5852 22.7195C20.4318 22.3742 20.3167 21.9521 20.3167 21.3766C20.3167 20.5708 20.6236 19.765 21.1992 18.9593C21.7363 18.2303 22.2351 17.8466 22.6188 17.8466C23.0025 17.8466 23.2711 18.1151 23.5013 18.6523C23.6548 19.0744 23.7315 19.4964 23.7315 19.9953C23.7315 21.108 23.5013 21.9521 23.0025 22.566C23.3095 22.6811 23.885 22.7195 24.7292 22.7195V24.4077ZM23.0409 21.108C23.0409 20.8778 22.9642 20.5324 22.7723 20.1487C22.5805 19.6883 22.427 19.4964 22.2735 19.4964C22.0817 19.4964 21.8131 19.6883 21.4677 20.072C21.0841 20.4557 20.8538 20.801 20.7387 21.108C20.7771 21.2614 20.9306 21.4917 21.1224 21.6835C21.3143 21.8754 21.5445 22.0288 21.7747 22.1056C22.427 21.7603 22.849 21.4533 23.0409 21.108Z" fill="#124D73"/>
<path d="M25.2661 12.9353C26.8393 12.3597 28.5659 11.7458 30.3693 11.0935C30.446 11.0552 30.5228 11.0552 30.5228 11.0552C30.5611 11.0935 30.5228 11.1319 30.5228 11.2087C30.4077 11.4389 30.3309 11.5923 30.2926 11.6691C28.7961 12.2063 27.0311 12.8969 24.9976 13.741C25.0359 13.4725 25.1127 13.2039 25.2661 12.9353Z" fill="#124D73"/>
<path d="M29.2567 9.71222C29.2567 9.90407 29.2183 10.1727 29.1032 10.4029C28.9881 10.7098 28.7962 10.8633 28.6044 10.8633C28.259 10.8633 28.0288 10.6331 27.9137 10.211C27.7602 10.7866 27.4917 11.0935 27.0696 11.0935C26.9161 11.0935 26.7626 11.0168 26.6475 10.8633C26.5324 10.6715 26.4557 10.4412 26.4557 10.1343V9.3669C26.4557 9.29016 26.4173 9.25179 26.3406 9.25179C26.2638 9.21342 26.2255 9.17505 26.2255 9.05994C26.2255 8.90646 26.3022 8.75299 26.4173 8.59951C26.5324 8.4844 26.6092 8.40766 26.6859 8.40766C26.7626 8.40766 26.801 8.56114 26.801 8.86809C26.801 9.02157 26.801 9.17505 26.7626 9.29016C26.7243 9.40527 26.7243 9.48201 26.7243 9.55875C26.7243 9.75059 26.7626 9.90407 26.8394 10.0192C26.9161 10.211 26.9929 10.2878 27.1463 10.2878C27.2998 10.2878 27.4533 10.211 27.5684 10.0959C27.6835 9.94244 27.7602 9.78896 27.7602 9.63548C27.7602 9.52038 27.7219 9.32853 27.6451 9.05994C27.5684 8.79135 27.5684 8.63788 27.5684 8.56114C27.5684 8.4844 27.6068 8.40766 27.6451 8.29255C27.7219 8.17744 27.7602 8.1007 27.7602 8.1007C27.837 8.1007 27.8754 8.25418 27.9521 8.63788C28.0288 8.9832 28.0672 9.25179 28.0672 9.40527C28.0672 9.90407 28.259 10.1343 28.6427 10.1343C28.7962 10.1343 28.9113 10.0576 28.9497 9.90407C28.6427 9.3669 28.4893 8.90646 28.4893 8.59951C28.4893 8.44603 28.5276 8.29255 28.6044 8.13907C28.6427 8.06234 28.6811 7.9856 28.7195 7.9856C28.7579 7.9856 28.7579 8.06233 28.7579 8.17744C28.7579 8.33092 28.7962 8.44603 28.8346 8.56114C28.8346 8.56114 28.9113 8.75299 29.0648 9.17505C29.1799 9.40527 29.2567 9.55875 29.2567 9.71222Z" fill="#124D73"/>
<path d="M26.7242 15.6595C26.6858 15.6212 26.6858 15.5828 26.7242 15.5444L27.2998 14.4317C27.3381 14.355 27.3765 14.3166 27.4149 14.3166C27.4916 14.3166 27.7218 14.4701 28.1439 14.777C28.566 15.084 28.7962 15.2375 28.7962 15.3142C28.7962 15.506 28.6043 15.8897 28.2206 16.5037C28.1823 16.5804 28.1439 16.6188 28.0671 16.5804C27.6451 16.2351 27.1846 15.9281 26.7242 15.6595Z" fill="#124D73"/>
<path d="M30.0238 24.1007C28.5658 24.1007 27.4914 23.9089 26.8392 23.4868C26.0334 24.1007 25.3044 24.4077 24.6521 24.4077V22.6811C25.0742 22.6811 25.4962 22.6043 25.8799 22.4125C25.7264 22.0672 25.6113 21.6451 25.6113 21.0695C25.6113 20.2638 25.9183 19.458 26.4938 18.6523C27.031 17.9232 27.5298 17.5396 27.9135 17.5396C28.2972 17.5396 28.5658 17.8081 28.796 18.3453C28.9495 18.7674 29.0262 19.1894 29.0262 19.6882C29.0262 20.801 28.796 21.6451 28.2972 22.259C28.6042 22.3741 29.1797 22.4125 30.0238 22.4125V24.1007ZM28.3739 20.801C28.3739 20.5707 28.2972 20.2254 28.1054 19.8417C27.9135 19.3813 27.76 19.1894 27.6066 19.1894C27.4147 19.1894 27.1461 19.3813 26.8008 19.765C26.4171 20.1487 26.1869 20.494 26.0718 20.801C26.1101 20.9544 26.2636 21.1847 26.4555 21.3765C26.6473 21.5684 26.8775 21.7218 27.1078 21.7986C27.7217 21.4916 28.1437 21.1463 28.3739 20.801Z" fill="#124D73"/>
<path d="M34.8971 13.7026C36.4702 13.1271 38.1968 12.5132 40.0002 11.8609C40.0769 11.8225 40.1537 11.8225 40.1537 11.8225C40.1921 11.8609 40.1537 11.8993 40.1537 11.976C40.0386 12.2062 39.9618 12.3597 39.9235 12.4364C38.4271 12.9736 36.6621 13.6643 34.6285 14.5084C34.6285 14.2398 34.7436 13.9712 34.8971 13.7026ZM38.9259 20.3406C39.0793 20.2638 39.1177 20.1487 39.041 20.0336C38.4654 18.8442 37.7364 18.2302 36.9306 18.2302C35.1656 18.2302 33.0553 19.6115 30.5997 22.3741C33.6309 22.4125 36.3935 21.7219 38.9259 20.3406ZM29.9474 22.4125C30.4846 21.7986 30.9066 21.2614 31.2903 20.801C31.4054 20.6475 31.4822 20.4173 31.4822 20.072C31.4822 20.072 31.4822 19.4581 31.4822 18.1919C31.4822 18 31.3671 16.3501 31.1368 13.2806C30.9066 10.2877 30.7915 8.59948 30.7915 8.29253C30.8299 7.75535 30.7148 7.33329 30.5229 6.91122C30.5229 6.71938 30.6764 6.22057 30.9834 5.49155C31.0217 5.41481 31.0601 5.33807 31.0985 5.33807C31.1368 5.33807 31.1752 5.37644 31.2136 5.49155C31.3287 5.6834 31.5205 6.22057 31.8659 7.10307C32.2112 8.02394 32.4414 8.59948 32.4798 8.8297C32.5181 8.98318 32.5565 9.09829 32.5565 9.17503C32.5565 9.44361 32.3263 9.29014 31.8275 8.71459C31.7891 8.63786 31.7508 8.67622 31.7508 8.8297C31.7508 8.86807 31.8659 10.0575 32.0577 12.4364C32.2496 14.8153 32.3647 16.1583 32.3647 16.4652C32.3647 17.1175 32.2496 18.307 31.981 20.0336C34.2831 17.7314 36.1633 16.5803 37.6213 16.5803C38.3119 16.5803 38.9259 16.964 39.463 17.6931C39.8851 18.2686 40.0769 18.7674 40.0769 19.1895C40.0769 19.6115 39.8851 20.1103 39.5014 20.6091C39.041 21.2231 38.4654 21.7602 37.7364 22.1823C39.1561 21.9905 40.1921 21.7219 40.9594 21.4149V22.9497C40.5374 23.1032 39.77 23.295 38.6573 23.4869C35.3959 23.9089 33.2088 24.1391 32.1345 24.1008C31.0601 24.0624 30.3311 24.0624 29.9858 24.0624L29.9474 22.4125Z" fill="#124D73"/>
<path d="M44.374 12.9352C44.4507 12.7817 44.4507 12.5898 44.4124 12.4364C44.374 12.2445 44.2973 12.1678 44.1822 12.1678C44.1438 12.1678 44.0287 12.2061 43.9136 12.2445C43.7985 12.3213 43.7601 12.3596 43.7601 12.398C43.7217 12.5898 43.9519 12.7433 44.374 12.9352ZM44.0287 13.7026C43.4915 13.434 43.2229 13.127 43.2229 12.8201C43.2229 12.4364 43.3764 12.1294 43.7217 11.8224C44.067 11.5155 44.3356 11.4004 44.5659 11.4771C44.7577 11.5539 44.8344 11.7457 44.8344 12.091C44.8344 12.398 44.7577 12.7433 44.6426 13.127C44.9112 13.2805 45.0647 13.434 45.1414 13.5491C45.1414 13.7026 45.0263 13.9328 44.7961 14.2781C44.7193 14.163 44.5658 14.0479 44.2973 13.8944C43.9903 14.3165 43.645 14.7002 43.1845 15.0071C42.6474 15.3908 42.1869 15.6978 41.7649 15.8896C41.6881 15.928 41.151 16.1198 40.2301 16.4652C40.0766 16.5035 39.9999 16.5419 39.9231 16.5419C39.8848 16.5419 39.8848 16.5419 39.8848 16.5419C39.8848 16.5035 39.9615 16.4268 40.115 16.3501C40.8056 15.928 41.4963 15.5443 42.1486 15.1222C43.0311 14.5851 43.645 14.1246 44.0287 13.7026Z" fill="#124D73"/>
<path d="M46.8684 22.1822C46.8684 22.7194 46.7533 23.1799 46.5231 23.5635C46.2929 23.9089 45.9475 24.1007 45.5639 24.1007C44.6814 24.1007 43.8756 23.4101 43.1082 22.0288C42.9547 22.1055 42.2257 22.4508 40.9211 23.0264V21.4916C41.4583 21.2614 42.0339 20.9928 42.6478 20.6475C42.6094 20.5324 42.7245 20.4172 42.9547 20.3405C43.1849 20.2638 43.3384 20.2638 43.4152 20.3789C44.1826 20.1103 44.8348 19.9952 45.2953 19.9952C45.7941 19.9952 46.1778 20.187 46.4464 20.6091C46.7149 20.9544 46.8684 21.4916 46.8684 22.1822ZM45.7557 22.4125C45.9859 22.4125 46.1394 22.3357 46.1394 22.1822C46.1394 21.9904 45.9859 21.8369 45.7173 21.7218C45.372 21.6067 44.9499 21.5683 44.3744 21.6834C44.7581 22.1439 45.2185 22.4125 45.7557 22.4125Z" fill="#124D73"/>
<path d="M43.6838 0.84884C43.6838 0.963949 43.5303 1.27091 43.2233 1.69297C42.878 2.19177 42.5327 2.5371 42.2257 2.76732C42.0339 2.9208 41.3432 3.15101 40.2305 3.4196C40.0386 3.45797 39.9235 3.45797 39.9235 3.45797C39.9619 3.4196 40.0003 3.38123 40.1538 3.26612C40.3072 3.15101 40.6909 2.9208 41.3816 2.57547C41.9955 2.23015 42.3792 1.99993 42.4943 1.92319C42.5327 1.88482 42.5327 1.88482 42.5327 1.84645C42.5327 1.69297 41.9571 1.6546 40.8444 1.6546C40.8444 1.6546 40.6526 1.6546 40.1921 1.6546C39.9619 1.6546 39.8468 1.6546 39.8468 1.61623C39.8468 1.57786 39.8852 1.53949 39.9235 1.42438L40.3456 0.772101C40.4607 0.580253 40.6909 0.426775 40.9979 0.388406C41.113 0.350036 41.3432 0.350037 41.7653 0.350037C43.0315 0.388406 43.6838 0.541884 43.6838 0.84884Z" fill="#124D73"/>
<path d="M42.6092 20.6092C42.2639 19.1895 41.957 16.6955 41.6884 13.1271C41.5349 10.94 41.4582 8.98319 41.4582 7.29493C41.4582 6.75776 41.3814 6.29732 41.1896 5.91363C41.1896 5.72178 41.3431 5.22298 41.6884 4.49396C41.7267 4.41722 41.7651 4.37885 41.8035 4.37885C41.8419 4.37885 41.8802 4.41722 41.9186 4.53232C41.9953 4.72417 42.2255 5.26134 42.5709 6.14384C42.9162 7.06471 43.1081 7.64026 43.1848 7.8321C43.2232 7.98558 43.2615 8.10069 43.2615 8.17743C43.2615 8.44602 43.0313 8.29254 42.5325 7.71699C42.4941 7.64025 42.4558 7.67863 42.4558 7.8321C42.4558 8.59949 42.5325 10.3645 42.686 13.2038C42.8778 16.8489 43.1848 19.1895 43.5685 20.2255C43.5685 20.2638 43.4534 20.3406 43.2232 20.4557C42.9929 20.5708 42.8395 20.6092 42.7244 20.6092C42.6476 20.6092 42.6092 20.6092 42.6092 20.6092Z" fill="#124D73"/>
<path d="M46.753 9.21339C46.753 8.67621 46.6762 8.21578 46.4844 7.87045C46.4844 7.67861 46.6379 7.1798 46.9448 6.45078C46.9832 6.37404 47.0215 6.2973 47.0599 6.2973C47.0983 6.2973 47.1367 6.33567 47.175 6.45078C47.2901 6.64263 47.482 7.1798 47.8273 8.0623C48.1726 8.98317 48.4028 9.55871 48.4412 9.75056C48.4796 9.90404 48.518 10.0575 48.518 10.1343C48.518 10.3645 48.2877 10.211 47.7889 9.67382C47.7506 9.59708 47.7122 9.63545 47.7122 9.78893C47.7122 9.8273 47.8273 11.5923 48.0959 15.0839C48.3261 18.5756 48.4796 20.5324 48.4796 20.9545C48.4796 22.2974 48.2877 23.4869 47.8657 24.4845C47.7889 24.6763 47.7122 24.8298 47.6738 24.9065C47.5971 25.06 47.5587 25.06 47.5204 24.9833C47.482 24.8682 47.5204 24.6379 47.5204 24.331C47.5971 23.8706 47.5971 23.3334 47.5971 22.7195C47.5971 22.1823 47.4436 19.8801 47.175 15.8897C46.9064 11.9376 46.753 9.71219 46.753 9.21339Z" fill="#124D73"/>
</svg>
