<svg width="49" height="49" viewBox="0 0 49 49" fill="none" xmlns="http://www.w3.org/2000/svg">
<path d="M17.2991 15.9624C20.2024 14.925 23.3026 13.7889 26.6488 12.5541C26.7965 12.5046 26.9441 12.4552 26.9441 12.5045C26.9934 12.5536 26.9936 12.6521 26.8953 12.7999C26.6989 13.2432 26.5516 13.5388 26.4532 13.6374C23.6975 14.6253 20.4498 15.9093 16.7593 17.44C16.9064 16.9475 17.0535 16.455 17.2991 15.9624Z" fill="#124D73"/>
<path d="M27.1543 23.4828C27.154 23.2367 26.7106 22.9418 25.8732 22.549C24.9866 22.1562 24.2971 21.9601 23.7555 21.9608C23.4109 21.9612 23.2633 22.0598 23.3128 22.2075C23.5102 22.6503 23.8558 23.4376 24.3987 24.52C25.8257 23.9767 26.7607 23.6802 27.1543 23.4828ZM14.9034 29.7501C17.8053 27.4819 20.6095 25.9031 23.2177 25.0138C23.0696 24.6693 22.7736 24.1774 22.428 23.3901C22.2799 23.0457 22.1809 22.6027 22.1803 22.0612C22.1792 21.2242 22.3753 20.5348 22.7685 19.9927C23.2601 19.3521 23.9981 19.0066 24.9827 19.0054C25.7212 19.0045 26.8049 19.4955 28.2337 20.4292C29.7119 21.4612 30.4514 22.2973 30.4522 22.9865C30.2564 23.8729 30.0112 24.7101 29.6676 25.4982C28.4372 25.8443 27.0101 26.2892 25.2876 26.8328C25.3381 27.8174 25.2402 28.3098 24.994 28.3101C24.8463 28.3103 24.5997 27.9167 24.4019 27.2277C23.6146 27.5241 22.5321 27.9685 21.1544 28.6101C19.137 29.548 17.612 30.436 16.5791 31.225C15.1036 32.4083 13.3332 33.9858 11.4155 35.9574C9.35036 38.0276 8.02268 39.3093 7.43244 39.7531C6.15369 40.7885 5.02204 41.3314 4.03742 41.3326C3.00356 41.3338 2.06757 40.8427 1.27874 39.9082C0.440615 38.9246 0.0453301 37.7436 0.043654 36.3651C0.0413194 34.4451 0.825904 31.8841 2.4467 28.7313C2.59403 28.4358 2.74148 28.2387 2.83995 28.2386C2.88918 28.2385 2.88924 28.2877 2.88936 28.3862C2.88972 28.6816 2.54642 29.7651 1.85946 31.6367C1.1725 33.5083 0.829676 34.9857 0.830993 36.0688C0.83201 36.9057 1.02971 37.5454 1.42422 38.0865C1.86796 38.6275 2.40986 38.9222 3.14832 38.9213C4.18218 38.9201 5.46152 38.377 6.88785 37.2429C7.77317 36.5526 9.15014 35.3202 10.9202 33.4965C12.7395 31.6235 14.0673 30.3911 14.9034 29.7501Z" fill="#124D73"/>
<path d="M35.7536 10.3277C35.8517 10.0322 35.9006 9.73671 35.8018 9.44144C35.7521 9.09689 35.6042 8.94937 35.3581 8.94967C35.2596 8.94979 35.112 8.99921 34.866 9.09797C34.6692 9.2459 34.5709 9.34448 34.5709 9.39371C34.5712 9.63987 34.9655 9.98401 35.7536 10.3277ZM35.1645 11.7069C34.1793 11.2157 33.6863 10.6748 33.6857 10.1333C33.6848 9.44402 33.9795 8.85289 34.6188 8.26134C35.2089 7.71908 35.7502 7.52149 36.1442 7.66871C36.489 7.81598 36.6371 8.16042 36.6379 8.75119C36.6386 9.34196 36.5408 9.93286 36.2955 10.6224C36.7882 10.9172 37.0839 11.163 37.2318 11.3597C37.2321 11.6059 37.0357 12.0492 36.5934 12.6897C36.4455 12.493 36.1498 12.2472 35.7064 11.9523C35.1657 12.6915 34.4773 13.3815 33.6412 14.0226C32.7067 14.7622 31.8212 15.3048 31.0339 15.6504C30.8863 15.749 29.9514 16.0948 28.229 16.6876C27.9337 16.7865 27.7861 16.8359 27.6876 16.836C27.6384 16.836 27.6384 16.836 27.6383 16.7868C27.6383 16.7376 27.7858 16.5897 28.0809 16.3924C29.36 15.6524 30.5899 14.9124 31.8197 14.1232C33.3449 13.2845 34.427 12.4954 35.1645 11.7069Z" fill="#124D73"/>
<path d="M36.552 19.0898C36.5524 19.4837 36.4545 19.9269 36.3074 20.3701C36.0619 20.9612 35.7668 21.2077 35.373 21.2082C34.7822 21.2089 34.3387 20.8156 34.0915 19.979C33.7974 21.0132 33.3057 21.5553 32.518 21.5563C32.2226 21.5566 31.9763 21.4092 31.7791 21.1633C31.5325 20.819 31.4335 20.376 31.4328 19.8345L31.4313 18.5545C31.4312 18.456 31.3818 18.3576 31.1848 18.3086C31.0371 18.2596 30.9385 18.1612 30.9382 17.9643C30.9379 17.6689 31.0853 17.4226 31.3311 17.1269C31.5277 16.8805 31.7245 16.7818 31.823 16.7817C31.9707 16.7815 32.0695 17.0768 32.0701 17.6183C32.0705 17.9137 32.0708 18.1599 32.0219 18.4061C31.9729 18.6031 31.9731 18.8 31.9732 18.8985C31.9737 19.2431 32.0232 19.4892 32.1712 19.7844C32.3194 20.1288 32.4672 20.2763 32.7134 20.276C33.0088 20.2757 33.2547 20.1277 33.5006 19.8812C33.7465 19.6348 33.8938 19.3392 33.8934 18.9946C33.8931 18.7977 33.8435 18.4531 33.6952 17.961C33.5961 17.4688 33.5465 17.1735 33.5464 17.0258C33.5462 16.9273 33.5952 16.7303 33.6934 16.5333C33.7916 16.287 33.89 16.1884 33.9392 16.1884C34.0376 16.1882 34.1857 16.4834 34.3342 17.1725C34.4827 17.8123 34.5325 18.3046 34.5329 18.6C34.534 19.4861 34.8791 19.9288 35.5684 19.9279C35.8637 19.9276 36.0605 19.7796 36.1094 19.4842C35.5173 18.4511 35.221 17.6637 35.2203 17.1222C35.22 16.8268 35.2688 16.5314 35.4655 16.285C35.5637 16.1371 35.6129 16.0386 35.6621 16.0386C35.7113 16.0385 35.7607 16.1369 35.761 16.3831C35.8106 16.6784 35.8108 16.8753 35.9096 17.1213C35.9588 17.1213 36.0577 17.515 36.354 18.2039C36.5021 18.5483 36.5517 18.8437 36.552 19.0898Z" fill="#124D73"/>
<path d="M32.0316 26.6276C31.9823 26.5785 31.9823 26.5292 32.0314 26.4307L33.0627 24.3618C33.1118 24.214 33.2102 24.1647 33.2594 24.1646C33.3579 24.1645 33.8013 24.4593 34.6389 24.9998C35.4272 25.5404 35.8215 25.8846 35.8216 25.983C35.822 26.3276 35.4783 27.0665 34.7412 28.1997C34.643 28.3476 34.5938 28.3968 34.4953 28.3477C33.756 27.7086 32.9184 27.1681 32.0316 26.6276Z" fill="#124D73"/>
<path d="M29.2904 39.1849C30.372 37.9528 31.8476 36.8679 33.6187 35.8812C34.6519 35.2891 36.4724 34.4992 39.0311 33.3638L39.0346 36.2192C37.4108 36.9104 36.2299 37.4534 35.4427 37.8482C33.8682 38.5886 32.7858 39.1807 32.1956 39.6245C31.1135 40.4627 29.5401 42.0893 27.4753 44.5041C26.2463 45.9333 25.0163 46.624 23.7856 46.6255C22.7517 46.6268 21.8157 46.1356 21.0269 45.2012C20.1888 44.2176 19.7935 43.0365 19.7917 41.6088C19.7894 39.6888 20.574 37.1278 22.1948 33.975C22.3421 33.6795 22.4896 33.4824 22.588 33.4823C22.6373 33.5314 22.6373 33.5314 22.6374 33.6299C22.6379 33.9745 22.2946 35.058 21.6076 36.9296C20.9206 38.8012 20.5778 40.2786 20.5791 41.3617C20.5802 42.1986 20.7779 42.8384 21.1723 43.3302C21.5668 43.8713 22.1579 44.1659 22.8964 44.165C24.1764 44.1635 25.5049 43.5219 26.8325 42.191C27.6189 41.1562 28.4547 40.1706 29.2904 39.1849Z" fill="#124D73"/>
<path d="M40.5752 7.71254C40.574 6.67869 40.4253 5.89117 40.0799 5.20235C40.0794 4.80851 40.3737 3.92199 40.9628 2.5428C41.0611 2.39499 41.1102 2.3457 41.1595 2.34564C41.2087 2.34558 41.3073 2.44392 41.4059 2.59149C41.554 2.93593 41.9984 3.96924 42.5911 5.54392C43.2331 7.21699 43.6282 8.25037 43.7271 8.6441C43.826 8.93936 43.8754 9.13623 43.8756 9.28392C43.8762 9.77623 43.4328 9.48138 42.4962 8.4979C42.3976 8.35033 42.3484 8.39962 42.3487 8.64577C42.3487 8.695 42.5491 11.5009 42.9496 16.9651C43.3501 22.4293 43.551 25.7275 43.5523 26.7614C43.5544 28.4844 43.261 30.1587 42.6229 31.7348C41.7887 34.0005 40.5598 35.4789 38.8375 36.1702L38.834 33.3148C40.9007 32.4262 41.9329 31.0957 41.9307 29.2741C41.9296 28.388 41.6791 24.8436 41.2285 18.5918C40.7779 12.4385 40.5765 8.79562 40.5752 7.71254Z" fill="#124D73"/>
<path d="M44.7623 10.0705C44.761 9.03669 44.6124 8.24917 44.2669 7.56036C44.2664 7.16651 44.5608 6.32922 45.1499 4.95003C45.2482 4.80222 45.2973 4.7037 45.3465 4.70364C45.3957 4.70358 45.4943 4.80192 45.5437 4.94955C45.7411 5.34316 46.1362 6.32731 46.7289 7.90198C47.3709 9.57506 47.766 10.6084 47.865 11.0022C47.9638 11.2974 48.0133 11.5435 48.0135 11.6912C48.014 12.1343 47.5706 11.8394 46.634 10.856C46.5354 10.7084 46.4862 10.7577 46.4865 11.0531C46.4867 11.1515 46.7368 14.4005 47.1876 20.8C47.6385 27.1995 47.889 30.793 47.89 31.5807C47.893 34.0423 47.551 36.2089 46.8148 38.0806C46.6676 38.4746 46.5202 38.7209 46.4219 38.8687C46.2746 39.1643 46.1761 39.1644 46.1759 39.0167C46.1265 38.8199 46.126 38.426 46.2237 37.8351C46.3212 36.9981 46.3692 36.0134 46.3678 34.8811C46.3666 33.8472 46.0662 29.7122 45.5649 22.3773C45.0637 15.0425 44.7633 10.9567 44.7623 10.0705Z" fill="#124D73"/>
<path d="M15.0702 19.6141C15.0704 19.8411 14.8556 20.2501 14.3827 20.9318C13.8239 21.7044 13.3509 22.2953 12.8776 22.6591C12.5765 22.8865 11.5864 23.251 9.86446 23.7072C9.56307 23.753 9.39087 23.7986 9.39087 23.7986C9.43388 23.7531 9.51989 23.6622 9.73505 23.5257C9.95014 23.3438 10.5526 22.9798 11.5854 22.4337C12.5322 21.8876 13.0916 21.5237 13.2206 21.3873C13.2636 21.3418 13.2635 21.2964 13.2635 21.2964C13.2633 21.0694 12.4019 20.9796 10.7224 20.9816C10.7224 20.9816 10.421 20.982 9.77507 21.0282C9.43062 21.074 9.25831 21.0288 9.25826 20.9834C9.2582 20.938 9.30115 20.8471 9.38711 20.7108L9.98873 19.6657C10.1606 19.3476 10.5049 19.1655 10.9785 19.0742C11.1507 19.0285 11.5382 19.0281 12.1411 19.0273C14.1219 18.9341 15.0696 19.16 15.0702 19.6141Z" fill="#124D73"/>
</svg>
