<svg width="48" height="49" viewBox="0 0 48 49" fill="none" xmlns="http://www.w3.org/2000/svg">
<path d="M16.8697 16.2559C16.8296 16.2158 16.8296 16.1756 16.8697 16.1354L17.5526 14.7296C17.5927 14.6492 17.6329 14.6091 17.6731 14.6091C17.7534 14.6091 18.0346 14.8099 18.5969 15.1714C19.1191 15.5329 19.4003 15.7739 19.4003 15.8141C19.4003 16.0551 19.1593 16.5371 18.6773 17.3003C18.6371 17.3806 18.5568 17.4208 18.5166 17.3806C17.9944 16.979 17.4321 16.5773 16.8697 16.2559Z" fill="#124D73"/>
<path d="M19.2804 23.2452C19.2804 22.9641 19.1197 22.5624 18.7984 22.0402C18.4771 21.4779 18.1557 21.1967 17.8745 21.1967C17.6335 21.1967 17.4327 21.3172 17.2319 21.5984C17.031 21.8795 16.9105 22.1607 16.9105 22.482C16.9105 22.6829 16.9909 23.0042 17.1515 23.4862C17.3122 23.9682 17.4729 24.3298 17.6335 24.5306C17.9147 24.4101 18.2361 24.2093 18.5976 23.8879C19.0796 23.5666 19.2804 23.3657 19.2804 23.2452ZM18.4771 25.7356C19.2001 26.7398 20.3248 27.2218 21.811 27.2218V29.3507C20.8469 29.3507 20.0436 29.19 19.3607 28.8285C18.5574 28.3867 17.8745 27.5833 17.272 26.4586C16.2678 27.1013 14.862 27.7842 13.0544 28.5072C10.1624 29.6319 7.59166 30.1942 5.30211 30.1942C1.76737 30.1942 0 28.4268 0 24.8921C0 23.5264 0.200837 22.3615 0.64268 21.4779C0.843517 21.1164 0.964021 20.9155 1.00419 20.9155C1.04436 20.9155 1.04436 20.9557 1.04436 21.036C1.04436 21.1565 1.00419 21.3172 0.96402 21.5582C0.682847 22.7231 0.522178 23.4461 0.522178 23.8477C0.522178 25.3741 1.12469 26.4988 2.36988 27.2218C3.29374 27.7842 4.41843 28.0653 5.70379 28.0653C7.99334 28.0653 10.4034 27.5833 13.0143 26.6595C14.5406 26.0971 15.7858 25.5348 16.7499 24.9323C16.3883 24.0084 16.2277 23.2854 16.2277 22.7632C16.2277 21.759 16.4285 20.8753 16.8704 20.1122C17.272 19.4293 17.7139 19.0678 18.1557 19.0678C18.6377 19.0678 19.0394 19.4293 19.4411 20.1925C19.8428 20.9155 20.0436 21.5984 20.0436 22.241C20.0436 23.8879 19.5214 25.0528 18.4771 25.7356Z" fill="#124D73"/>
<path d="M34.2229 16.8586C34.3032 16.6577 34.3032 16.4569 34.2631 16.2561C34.2229 16.0151 34.1024 15.8945 33.9417 15.8945C33.8614 15.8945 33.7811 15.9347 33.6204 16.0151C33.4999 16.0954 33.4196 16.1757 33.4196 16.2159C33.4196 16.4167 33.7007 16.6176 34.2229 16.8586ZM33.8212 17.7824C33.1786 17.4611 32.8572 17.0996 32.8572 16.7381C32.8572 16.2962 33.0581 15.8945 33.4999 15.4929C33.9016 15.1314 34.2631 14.9707 34.5443 15.0912C34.7853 15.1715 34.9058 15.4125 34.9058 15.8142C34.9058 16.2159 34.8254 16.6176 34.7049 17.0594C35.0263 17.2602 35.2271 17.4209 35.3074 17.5414C35.3074 17.7021 35.1468 18.0234 34.8656 18.4251C34.7853 18.3046 34.5844 18.1439 34.2631 17.9431C33.9016 18.4653 33.4196 18.9071 32.8572 19.3088C32.2145 19.7908 31.612 20.1523 31.0898 20.3933C30.9693 20.4335 30.3668 20.6745 29.202 21.0762C29.0011 21.1565 28.8806 21.1967 28.8405 21.1967C28.8003 21.1967 28.8003 21.1967 28.8003 21.1967C28.8003 21.1565 28.9208 21.0762 29.1216 20.9557C29.9652 20.4736 30.8087 19.9515 31.6522 19.4695C32.576 18.8669 33.3392 18.3046 33.8212 17.7824Z" fill="#124D73"/>
<path d="M28.6792 28.949C27.7553 28.949 27.1127 28.6678 26.7913 28.1055C26.5905 27.744 26.4298 27.2619 26.4298 26.5791C26.4298 26.4988 26.3897 26.4586 26.3093 26.4586C26.1888 26.4586 26.0683 26.5389 25.9478 26.6594C25.265 27.5029 24.7829 27.985 24.5821 28.1456C23.6984 28.9088 22.7344 29.3105 21.7704 29.3105V27.1816C22.8147 27.1816 23.6984 26.9004 24.5018 26.3783C24.8231 26.1774 25.5461 25.4946 26.6307 24.41C26.7512 24.2895 26.8717 24.2092 26.9922 24.2092C27.193 24.2092 27.2332 24.3297 27.1528 24.5707C27.0725 24.8117 27.0323 25.0527 27.0323 25.2937C27.0323 25.7757 27.2332 26.1372 27.6348 26.4184C27.9964 26.6594 28.5185 26.8201 29.121 26.8201C30.0047 26.8201 30.7277 26.4586 31.2901 25.7356C31.6516 25.1732 32.0131 24.6109 32.3746 24.0485C32.4951 23.928 32.6156 23.8477 32.696 23.8477C32.8165 23.8477 32.8566 23.928 32.8566 24.0485C32.8566 24.1289 32.8566 24.2092 32.8566 24.2494C32.696 24.8519 32.6558 25.1331 32.6558 25.0929C32.6558 25.3339 32.8165 25.5749 33.0976 25.8159C33.419 26.0971 33.7805 26.2176 34.142 26.2176C34.624 26.2176 34.9453 26.0971 35.0658 25.8159C35.0658 25.7757 34.9855 25.6954 34.865 25.5749C34.7445 25.4544 34.6642 25.3741 34.6642 25.2937C34.6642 25.2134 34.8248 24.6912 35.106 23.8075C35.1462 23.6469 35.2265 23.5665 35.2667 23.5665C35.3872 23.5665 35.5077 23.7674 35.6683 24.169C35.7889 24.4904 35.829 24.7314 35.829 24.8921C35.829 25.7757 35.6684 26.5389 35.3068 27.1414C34.865 27.9046 34.2223 28.3063 33.3788 28.3063C32.7763 28.3063 32.2541 27.8645 31.7319 26.9406C30.8884 28.3063 29.8842 28.949 28.6792 28.949Z" fill="#124D73"/>
<path d="M41.9753 26.4986C41.4933 25.8559 41.0113 25.5346 40.6096 25.5346C39.9669 25.5346 39.6858 25.6953 39.6858 26.0166C39.6858 26.4183 40.1276 26.6191 40.9711 26.6191C41.2523 26.6191 41.6138 26.579 41.9753 26.4986ZM43.0197 29.0693C43.0197 28.8283 42.9795 28.6275 42.8992 28.3865C42.4975 28.507 41.8548 28.5873 41.0916 28.5873C39.4447 28.5873 38.6012 28.025 38.6012 26.9003C38.6012 26.0166 38.8824 25.2534 39.4448 24.5706C39.9669 23.9279 40.4891 23.6467 41.0916 23.6467C41.5335 23.6467 42.0155 23.9279 42.5377 24.4902C42.9795 24.9723 43.3812 25.5748 43.7427 26.338C43.7828 26.338 43.823 26.338 43.9435 26.2576V28.1857L43.8632 28.2258C43.8632 28.6275 43.7828 29.1497 43.582 29.7522C43.341 30.5555 42.9795 31.1982 42.5377 31.7204C41.4531 32.9254 40.3284 34.0099 39.0832 34.974C37.2355 36.3798 35.6288 37.0627 34.223 37.0627C33.0581 37.0627 32.1744 36.661 31.5317 35.7773C30.9694 35.0141 30.6882 34.0903 30.6882 32.9656C30.6882 31.4794 31.0096 29.953 31.6121 28.4267C31.7326 28.1053 31.8531 27.9447 31.9334 27.9447C31.9736 27.9447 31.9736 27.9848 31.9736 28.025C31.9736 28.1455 31.9334 28.3062 31.8531 28.5472C31.4112 30.0735 31.2104 31.2384 31.2104 32.0016C31.2104 32.7246 31.4112 33.3271 31.7728 33.8493C32.2949 34.6125 33.1786 34.974 34.3836 34.974C35.428 34.974 36.7134 34.5321 38.1594 33.6083C39.3644 32.8853 40.4891 32.0016 41.5736 30.9974C42.5376 29.9932 43.0197 29.3907 43.0197 29.0693Z" fill="#124D73"/>
<path d="M45.9113 13.4443C45.9916 13.2434 45.9916 13.0426 45.9514 12.8417C45.9113 12.6007 45.7908 12.4802 45.6301 12.4802C45.5497 12.4802 45.4694 12.5204 45.3087 12.6007C45.1882 12.6811 45.1079 12.7614 45.1079 12.8016C45.1481 13.0024 45.4292 13.2033 45.9113 13.4443ZM45.5497 14.3681C44.9071 14.0468 44.5857 13.6853 44.5857 13.3238C44.5857 12.8819 44.7866 12.4802 45.2284 12.0786C45.6301 11.7171 45.9916 11.5564 46.2728 11.6769C46.5138 11.7572 46.6343 11.9982 46.6343 12.3999C46.6343 12.8016 46.5539 13.2033 46.4334 13.6451C46.7548 13.8459 46.9556 14.0066 47.0359 14.1271C47.0359 14.2878 46.8753 14.6091 46.5941 15.0108C46.5138 14.8903 46.3129 14.7296 45.9916 14.5288C45.6301 15.051 45.1481 15.4928 44.5857 15.8945C43.943 16.3765 43.3405 16.738 42.8184 16.979C42.6979 17.0192 42.0953 17.2602 40.9305 17.6619C40.7296 17.7422 40.6091 17.7824 40.569 17.7824C40.5288 17.7824 40.5288 17.7824 40.5288 17.7824C40.5288 17.7422 40.6493 17.6619 40.8502 17.5413C41.6937 17.0593 42.5372 16.5372 43.3807 16.0552C44.3046 15.4526 45.0276 14.8903 45.5497 14.3681Z" fill="#124D73"/>
<path d="M45.6303 31.8009L46.1524 30.7164C46.1926 30.6361 46.2328 30.5959 46.2729 30.5959C46.3533 30.5959 46.6746 30.7967 47.1968 31.1582C47.7591 31.5197 48.0001 31.7607 48.0001 31.8009C48.0001 32.0419 47.7591 32.5239 47.2771 33.2871C47.237 33.3674 47.1566 33.4076 47.0763 33.3674C46.5943 33.0059 46.0721 32.6444 45.5098 32.2829C45.3089 32.7248 45.1081 33.1264 44.9072 33.4076C44.8671 33.4879 44.7867 33.5281 44.7466 33.4879C44.2244 33.0863 43.6621 32.6846 43.0997 32.3231C43.0595 32.3231 43.0595 32.2829 43.0997 32.2026L43.7826 30.8369C43.8227 30.7566 43.8629 30.7164 43.9031 30.7164C43.9432 30.7164 44.2244 30.8771 44.6662 31.1582C45.1884 31.4394 45.4696 31.6402 45.6303 31.8009Z" fill="#124D73"/>
<path d="M43.8632 26.2176C45.1485 25.6954 45.8314 25.2937 45.9519 25.0929C45.9519 24.8921 45.7109 24.2896 45.269 23.3657C44.7469 22.3213 44.4657 21.5582 44.3452 21.036C44.305 20.8753 44.2247 20.795 44.0238 20.7548C43.9033 20.7146 43.823 20.5941 43.8632 20.4335L44.064 18.7464C44.1042 18.5858 44.1443 18.5054 44.2247 18.5054C44.2648 18.5054 44.3452 18.5456 44.4255 18.6259L46.0724 20.1121C46.2732 20.2728 46.3536 20.4335 46.3536 20.5138C46.3536 20.7146 46.0322 20.7146 45.3494 20.5138C46.1929 22 46.5946 23.1649 46.5946 23.928C46.5946 25.8963 45.6707 27.3021 43.823 28.0653L43.8632 26.2176Z" fill="#124D73"/>
<path d="M13.0925 15.8011C13.0925 15.9529 12.8994 16.2991 12.512 16.8396C12.0783 17.4432 11.6652 17.886 11.2714 18.1678C11.0204 18.3428 10.1839 18.6183 8.76436 18.994C8.55973 19.0468 8.43747 19.0713 8.40015 19.07V19.0507C8.43361 19.0185 8.51597 18.949 8.65111 18.8448C8.83257 18.7032 9.33706 18.4162 10.1633 17.9825C10.9548 17.5604 11.4181 17.2901 11.5532 17.173C11.5777 17.1498 11.5893 17.1266 11.5893 17.1035C11.5893 16.9156 10.8853 16.8216 9.47734 16.8216C9.47091 16.8216 9.20193 16.8332 8.66784 16.8564C8.55329 16.8615 8.46321 16.8615 8.40015 16.8551V16.5475L8.8789 15.7393C9.02562 15.4935 9.29331 15.3377 9.6794 15.2734C9.82097 15.2502 10.1466 15.2374 10.6562 15.2374C12.2804 15.2374 13.0925 15.4253 13.0925 15.8011Z" fill="#124D73"/>
</svg>
