<svg width="48" height="49" viewBox="0 0 48 49" fill="none" xmlns="http://www.w3.org/2000/svg">
<path d="M2.25608 36.7196C1.67261 36.7196 1.16694 36.4473 0.700164 35.9416C0.233389 35.397 0 34.7358 0 33.9578C0 32.8687 0.427878 31.4683 1.32253 29.7179C1.40033 29.5234 1.47812 29.4456 1.55592 29.4456C1.59481 29.4456 1.59482 29.4845 1.59482 29.5234C1.59482 29.679 1.40033 30.3014 1.01135 31.3516C0.622368 32.4019 0.427878 33.2187 0.427878 33.8022C0.427878 34.269 0.544571 34.658 0.739061 34.9303C0.972449 35.2414 1.28363 35.397 1.71151 35.397C2.33388 35.397 3.11183 34.8914 4.04538 33.9578C4.82334 33.0632 5.6013 32.1296 6.37926 31.235C8.36305 28.9789 10.1135 27.8508 11.5916 27.8508V29.6012C10.308 29.6012 8.86873 30.4181 7.27391 32.0518C6.76824 32.5575 6.14587 33.2965 5.32902 34.3079C4.62885 35.1636 4.12318 35.7471 3.7731 36.0583C3.30632 36.4862 2.76175 36.7196 2.25608 36.7196Z" fill="#124D73"/>
<path d="M17.9706 20.188C17.9706 20.3047 17.815 20.6159 17.5038 21.0438C17.1537 21.5494 16.8037 21.8995 16.4536 22.1329C16.2591 22.2885 15.5589 22.5219 14.392 22.8331C14.1586 22.872 14.0808 22.872 14.0808 22.872C14.1197 22.8331 14.1586 22.7942 14.3142 22.6775C14.4698 22.5608 14.8588 22.3274 15.5589 21.9773C16.2202 21.6272 16.5703 21.3938 16.687 21.316C16.7259 21.2771 16.7259 21.2771 16.7259 21.2382C16.7259 21.0827 16.1424 21.0049 14.9755 21.0049C14.9755 21.0049 14.7421 21.0049 14.3142 21.0049C14.0808 21.0049 13.9641 21.0049 13.9641 20.966C13.9641 20.9271 14.003 20.8882 14.0419 20.7715L14.4698 20.0713C14.5865 19.8768 14.8199 19.7212 15.131 19.6823C15.2477 19.6434 15.4811 19.6434 15.909 19.6434C17.3093 19.7601 17.9706 19.9157 17.9706 20.188Z" fill="#124D73"/>
<path d="M20.4607 24.0778C21.3942 24.0778 22.2111 24.4667 22.9501 25.2058C23.5725 25.8282 23.8837 26.4116 23.8837 26.8784C23.8837 27.034 23.8059 27.3841 23.6114 27.9287C23.4169 28.5121 23.2224 28.8622 23.0279 29.0956C22.639 29.5624 21.9777 30.0291 21.0441 30.5348C19.6438 31.2739 18.2435 31.624 16.8043 31.624C16.2597 31.624 15.5984 31.4684 14.7816 31.1961C14.626 31.5462 14.5482 31.8573 14.5482 32.2074C14.5482 32.8298 14.8594 33.3355 15.4817 33.6077V35.3582C14.5093 34.9692 14.0036 34.1134 14.0036 32.8298C14.0036 32.2074 14.1203 31.5851 14.3148 31.0016C13.6146 30.4959 13.1868 30.1847 13.0312 30.1069C12.4866 29.7958 11.9809 29.6013 11.5142 29.6013V27.7731C12.1365 27.7731 12.7978 27.9676 13.4202 28.3565C13.9258 28.7066 14.3926 29.0178 14.8983 29.3679C15.9485 27.6564 16.7265 26.5283 17.1544 26.0227C18.3213 24.739 19.4104 24.0778 20.4607 24.0778ZM23.2613 27.7342C23.2613 27.5397 22.9501 27.1896 22.2889 26.6839C21.5109 26.1004 20.7719 25.7893 20.0328 25.7893C18.5158 25.7893 16.9988 27.034 15.4817 29.6013C16.1041 29.7958 16.6876 29.9124 17.2322 29.9124C18.1657 29.9124 19.0993 29.7569 20.1495 29.4068C20.9664 29.1345 21.7054 28.8233 22.4056 28.4343C22.9501 28.0842 23.2613 27.8509 23.2613 27.7342Z" fill="#124D73"/>
<path d="M35.6695 25.7894C37.3032 25.2059 39.0536 24.5835 40.8818 23.8834C40.9596 23.8445 41.0374 23.8445 41.0374 23.8445C41.0763 23.8834 41.0374 23.9223 41.0374 24.0001C40.9207 24.2724 40.8429 24.3891 40.7651 24.4668C39.2092 25.0114 37.4199 25.7116 35.3583 26.5673C35.3972 26.3728 35.5139 26.1006 35.6695 25.7894Z" fill="#124D73"/>
<path d="M39.6368 30.5738C39.17 30.2626 38.5088 30.107 37.653 30.107C37.3807 30.107 37.1084 30.107 36.7973 30.1459C37.1473 30.3793 37.5363 30.7293 38.0031 31.235L39.6368 30.5738ZM22.9107 36.3695C19.8378 36.3695 17.3872 36.0195 15.5979 35.2804V33.4911C17.1538 34.2302 19.76 34.6191 23.4164 34.6191C27.6174 34.6191 31.8961 33.7245 36.2527 31.9741C35.358 31.0794 34.6579 30.6515 34.1133 30.6515C34.0355 30.6515 33.7632 30.7293 33.3354 30.9238C33.2187 31.0016 33.1409 31.0016 33.102 31.0016C33.0242 31.0016 32.9853 30.9627 32.9853 30.8849C32.9853 30.8071 33.0242 30.7293 33.0631 30.6127L33.5687 29.4068C33.6854 29.1734 34.0355 28.9789 34.6968 28.7844C35.4358 28.5511 36.3305 28.4733 37.3418 28.4733C38.2754 28.4733 39.2089 28.6289 40.1425 28.9011C40.8038 29.1345 41.3483 29.329 41.7373 29.6013C42.0096 29.7958 42.1263 29.9125 42.1263 30.0292C42.1263 30.0681 42.0874 30.1459 42.0485 30.2626C41.854 30.6515 41.6206 31.0794 41.3094 31.5073C40.6871 31.7407 39.948 32.0519 39.0922 32.3631C39.948 33.2188 40.8427 33.6467 41.7762 33.6467V35.3971C40.9982 35.3971 40.2592 35.2026 39.5979 34.8525C39.0144 34.5413 38.2365 33.919 37.3029 33.0243C34.619 34.1524 32.3629 34.9303 30.4569 35.3971C27.9674 36.0584 25.4391 36.3695 22.9107 36.3695Z" fill="#124D73"/>
<path d="M45.1602 13.4586C45.1602 13.5753 45.0046 13.8865 44.6934 14.3144C44.3433 14.8201 43.9932 15.1701 43.6432 15.4035C43.4487 15.5591 42.7485 15.7925 41.5816 16.1037C41.3482 16.1426 41.2704 16.1426 41.2704 16.1426C41.3093 16.1037 41.3482 16.0648 41.5038 15.9481C41.6594 15.8314 42.0483 15.598 42.7485 15.2479C43.4098 14.8979 43.7598 14.6645 43.8765 14.5867C43.9154 14.5478 43.9154 14.5478 43.9154 14.5089C43.9154 14.3533 43.332 14.2755 42.165 14.2755C42.165 14.2755 41.9316 14.2755 41.5038 14.2755C41.2704 14.2755 41.1537 14.2755 41.1537 14.2366C41.1537 14.1977 41.1926 14.1588 41.2315 14.0421L41.6594 13.3419C41.7761 13.1474 42.0094 12.9919 42.3206 12.953C42.4373 12.9141 42.6707 12.9141 43.0986 12.9141C44.4989 13.0308 45.1602 13.1863 45.1602 13.4586Z" fill="#124D73"/>
<path d="M44.4601 30.1459C44.4601 31.8574 44.1489 33.18 43.5266 34.1524C43.0209 34.9693 42.3985 35.3971 41.6984 35.3971V33.6078C42.2818 33.6078 42.8264 33.3745 43.3321 32.9466C43.4877 32.8299 43.5655 32.3631 43.5655 31.5462C43.5655 31.0406 43.4488 29.0568 43.1765 25.5949C42.9431 22.133 42.8264 20.0714 42.8264 19.449C42.8264 18.8655 42.7486 18.4377 42.5541 18.0487C42.5541 17.8153 42.7097 17.3485 43.0598 16.5705C43.0987 16.4928 43.1376 16.4539 43.1765 16.4539C43.2154 16.4539 43.2543 16.4928 43.2932 16.6094C43.371 16.8039 43.6044 17.3485 43.9544 18.2821C44.3045 19.2156 44.5379 19.7991 44.5768 20.0325C44.6157 20.1881 44.6546 20.3048 44.6546 20.3825C44.6546 20.6548 44.4212 20.4992 43.9155 19.9547C43.8766 19.8769 43.8377 19.9158 43.8377 20.0325C43.8377 20.0714 43.9544 21.6273 44.1878 24.7002C44.3434 27.7343 44.4601 29.5625 44.4601 30.1459Z" fill="#124D73"/>
<path d="M46.1717 18.1653C46.1717 17.5818 46.0939 17.1539 45.8994 16.7649C45.8994 16.5704 46.055 16.0648 46.4051 15.2868C46.444 15.209 46.4829 15.1312 46.5218 15.1312C46.5607 15.1312 46.5996 15.1701 46.6385 15.2868C46.7552 15.4813 46.9497 16.0259 47.2997 16.9594C47.6498 17.893 47.8832 18.4764 47.9221 18.7098C47.961 18.8654 47.9999 19.021 47.9999 19.0988C47.9999 19.3711 47.7665 19.1766 47.2608 18.632C47.2219 18.5542 47.183 18.5931 47.183 18.7487C47.183 18.7876 47.2997 20.6158 47.572 24.1944C47.8443 27.7731 47.961 29.7568 47.961 30.2236C47.961 31.585 47.7665 32.7909 47.3386 33.8411C47.2608 34.0356 47.183 34.1912 47.1052 34.269C47.0275 34.4246 46.9886 34.4635 46.9497 34.3468C46.9108 34.2301 46.9497 33.9967 46.9497 33.6855C47.0275 33.2188 47.0275 32.6742 47.0275 32.0518C47.0275 31.4684 46.8719 29.1734 46.5996 25.0891C46.3273 20.9659 46.1717 18.6709 46.1717 18.1653Z" fill="#124D73"/>
</svg>
