<svg width="49" height="49" viewBox="0 0 49 49" fill="none" xmlns="http://www.w3.org/2000/svg">
<path d="M9.65008 21.1995C9.81061 21.1193 9.89088 21.0791 9.89088 21.0791C9.89088 21.039 9.77048 20.9989 9.48954 20.9989C7.7638 20.7581 5.79725 20.6377 3.54976 20.6377C2.42602 20.6377 1.74375 20.6778 1.42268 20.7581C1.30228 20.7982 1.22201 20.8383 1.22201 20.8383C1.22201 20.8785 1.30228 20.9587 1.50295 21.1193C2.02468 21.5206 2.54642 21.922 3.06816 22.3634C3.99123 23.0858 4.5531 23.6076 4.75377 23.8484C6.47952 22.7246 8.08487 21.8417 9.65008 21.1995ZM13.824 31.554C13.824 31.0323 13.6233 30.5507 13.2621 30.0691C12.8608 29.5473 12.2989 29.1861 11.6166 29.0256C11.0146 28.8651 10.0113 28.7447 8.6066 28.7045C7.12166 28.6644 6.11832 28.5841 5.59658 28.4637C4.59324 28.2229 3.5899 27.8617 2.62669 27.2999C2.30562 27.7815 1.98455 28.3433 1.70362 29.0256C1.30228 30.0289 1.10161 31.0323 1.10161 31.9554C1.10161 35.0457 2.82736 36.6109 6.31898 36.6109C7.48286 36.6109 8.64674 36.2898 9.89088 35.6878C10.9745 35.1259 11.8976 34.4437 12.6601 33.641C13.4628 32.8784 13.824 32.156 13.824 31.554ZM12.4193 21.4805C9.48954 22.7246 7.08152 23.8885 5.19524 25.0122C5.19524 25.7346 5.11498 26.0959 4.99457 26.0959C4.87417 26.0959 4.71364 25.8952 4.47284 25.4537C4.03137 25.8149 3.63003 26.2163 3.22869 26.6979C4.35244 26.8584 6.23872 26.9788 8.8474 27.0591C10.7337 27.1393 11.9377 27.2999 12.4594 27.5005C12.9812 27.7413 13.4226 28.1025 13.7437 28.6243C14.1049 29.2263 14.3056 29.9085 14.3056 30.6711C14.3056 32.7179 13.4628 34.5641 11.737 36.2095C10.0514 37.8149 8.16513 38.6176 6.11832 38.6176C2.42602 38.6176 0.579873 36.5707 0.579873 32.437C0.579873 30.5507 1.06148 28.7447 2.02468 26.9788C1.70361 26.7781 1.58321 26.6577 1.58321 26.5775C1.58321 26.4972 1.66348 26.4972 1.78388 26.4972C1.90428 26.4972 2.06482 26.4972 2.30562 26.5373C2.58656 26.0557 3.06816 25.4537 3.79057 24.7313C3.3491 24.2898 2.74709 23.7681 1.90428 23.126C1.30228 22.6845 0.860809 22.243 0.660141 21.922C0.499606 21.6811 0.459473 21.4403 0.459473 21.1193C0.459473 20.5574 0.700273 20.0357 1.14174 19.6343C1.66348 19.1527 2.42602 18.9119 3.42936 18.9119C4.5531 18.9119 6.35912 18.9922 8.8474 19.1929C11.135 19.3935 12.4996 19.5139 13.0213 19.5942C13.2621 19.6343 13.3424 19.7547 13.2621 19.9153L12.8608 21.1193C12.7002 21.2798 12.5798 21.4002 12.4193 21.4805Z" fill="#124D73"/>
<path d="M14.0646 16.0624C14.0646 15.4604 13.9442 14.9387 13.7837 14.5775C13.7837 14.3367 13.9442 13.8149 14.3054 12.9721C14.3455 12.8517 14.3857 12.8116 14.4258 12.8116C14.4659 12.8116 14.5061 12.8517 14.5462 12.9721C14.6666 13.2129 14.9074 13.7748 15.2686 14.7781C15.6699 15.7815 15.8706 16.4236 15.9509 16.6644C15.991 16.8651 16.0311 16.9855 16.0311 17.0658C16.0311 17.3467 15.7502 17.1862 15.2285 16.544C15.1482 16.4637 15.1482 16.5039 15.1482 16.6644C15.1482 16.7045 15.2686 18.6711 15.5897 22.5239C15.8706 26.3768 15.991 28.544 15.991 29.0256C15.991 30.5105 15.7903 31.8349 15.3087 32.9587C15.1883 33.1995 15.1081 33.3199 15.0679 33.4403C14.9877 33.6008 14.9074 33.6409 14.9074 33.5205C14.8673 33.4001 14.9074 33.1593 14.9074 32.7981C14.9877 32.2764 15.0278 31.6744 15.0278 30.9921C15.0278 30.3901 14.8673 27.8617 14.5462 23.447C14.2251 19.0724 14.0646 16.5841 14.0646 16.0624Z" fill="#124D73"/>
<path d="M17.5161 25.8149C19.282 25.1728 21.1683 24.4905 23.1348 23.7681C23.2552 23.728 23.2954 23.728 23.2954 23.728C23.3355 23.7681 23.2954 23.8082 23.2954 23.8885C23.175 24.1694 23.0947 24.33 23.0144 24.3701C21.3288 24.9721 19.4024 25.7346 17.1549 26.6577C17.2352 26.4169 17.3556 26.136 17.5161 25.8149Z" fill="#124D73"/>
<path d="M12.4193 40.4236C11.7772 40.4236 11.2153 40.1427 10.7337 39.5808C10.2521 38.9788 10.0113 38.2564 10.0113 37.4136C10.0113 36.2497 10.4929 34.6845 11.4561 32.7983C11.5765 32.5976 11.6568 32.5173 11.6969 32.5173C11.7371 32.5173 11.7371 32.5575 11.7371 32.5976C11.7371 32.7983 11.5364 33.4404 11.0949 34.5641C10.6936 35.6879 10.4528 36.5708 10.4528 37.213C10.4528 37.7347 10.5732 38.136 10.814 38.417C11.0548 38.738 11.416 38.8986 11.8575 38.8986C12.5397 38.8986 13.3825 38.3768 14.3859 37.3334C15.2287 36.3702 16.0715 35.3668 16.9143 34.3635C19.0414 31.9554 20.9277 30.7113 22.5732 30.7113V32.5976C21.2086 32.5976 19.6434 33.4805 17.9177 35.2464C17.3959 35.8083 16.6735 36.611 15.8307 37.6946C15.0682 38.6176 14.5063 39.2598 14.1451 39.5808C13.5431 40.1828 12.9812 40.4236 12.4193 40.4236Z" fill="#124D73"/>
<path d="M26.0647 38.6576C27.8306 38.0155 29.7169 37.3332 31.6834 36.6108C31.8038 36.5707 31.8439 36.5707 31.8439 36.5707C31.8841 36.6108 31.8439 36.6509 31.8439 36.7312C31.7235 37.0122 31.6433 37.1727 31.563 37.2128C29.8774 37.8148 27.951 38.5774 25.7035 39.5004C25.7838 39.2195 25.9042 38.9386 26.0647 38.6576Z" fill="#124D73"/>
<path d="M29.4762 24.0089L29.9578 23.0457C29.9979 22.9654 30.0381 22.9253 30.0782 22.9253C30.1585 22.9253 30.4394 23.0858 30.921 23.4069C31.4026 23.728 31.6434 23.9286 31.6434 24.0089C31.6434 24.2096 31.4427 24.651 31.0013 25.3734C30.9611 25.4537 30.8809 25.4537 30.8407 25.4537C30.3993 25.1326 29.9578 24.8116 29.4361 24.4504C29.2755 24.8517 29.0749 25.2129 28.9143 25.4537C28.8742 25.534 28.8341 25.5741 28.7538 25.534C28.2722 25.1728 27.7906 24.8116 27.2688 24.4905C27.2287 24.4905 27.2287 24.4504 27.2688 24.4102L27.911 23.1661C27.9511 23.0858 27.9912 23.0457 28.0314 23.0457C28.0715 23.0457 28.3123 23.1661 28.7137 23.447C29.115 23.728 29.3558 23.8885 29.4762 24.0089Z" fill="#124D73"/>
<path d="M27.7502 22.0825C27.71 22.0825 27.71 22.0424 27.7502 22.0022L28.3522 20.7581C28.3923 20.6778 28.4324 20.6377 28.4726 20.6377C28.5528 20.6377 28.8338 20.7982 29.3154 21.1193C29.797 21.4404 30.0378 21.641 30.0378 21.7213C30.0378 21.922 29.8371 22.3634 29.3956 23.0858C29.3555 23.1661 29.2752 23.2062 29.2351 23.126C28.7535 22.7648 28.2719 22.4036 27.7502 22.0825Z" fill="#124D73"/>
<path d="M26.2252 32.4771C26.8674 32.4771 27.3891 32.3166 27.7904 31.9955C27.8306 31.9554 28.1516 31.6343 28.6734 31.0724C29.155 30.5507 29.3958 30.3099 29.4359 30.3099C29.5563 30.3099 29.5563 30.4303 29.5162 30.6711C29.3958 30.952 29.3556 31.1527 29.3556 31.2731C29.3556 31.4738 29.4359 31.7146 29.6366 31.9955C29.8774 32.3567 30.1985 32.5574 30.5998 32.5574C31.6433 32.5574 32.5262 31.7948 33.2887 30.3099C33.369 30.1494 33.4493 30.0691 33.5697 30.0691C33.6499 30.0691 33.6901 30.1494 33.6901 30.2698C33.6901 30.3099 33.6901 30.3902 33.6499 30.5106C33.6499 30.631 33.6499 30.7112 33.6499 30.7514C33.6499 31.1928 33.7703 31.554 34.0513 31.835C34.3322 32.1159 34.6533 32.2363 35.0948 32.2363V34.1226C34.1315 34.1226 33.4493 33.5206 33.0078 32.3166C32.9677 32.156 32.8874 32.156 32.8071 32.3166C32.2453 33.7213 31.4827 34.4035 30.5195 34.4035C29.5162 34.4035 28.9142 33.7614 28.7135 32.4771C28.7135 32.3567 28.6734 32.3166 28.6734 32.3166C28.6332 32.3166 28.5931 32.3968 28.553 32.4771C27.8306 33.7213 26.9878 34.3233 26.0647 34.3233C25.4627 34.3233 24.9811 34.1627 24.5797 33.8818C24.2587 33.641 23.9376 33.3601 23.6567 33.0791C23.2955 32.7982 22.9744 32.6376 22.5731 32.6376V30.7112C23.1751 30.7112 23.7771 30.9922 24.4593 31.554C25.0613 32.1962 25.6633 32.4771 26.2252 32.4771Z" fill="#124D73"/>
<path d="M32.767 12.1294C32.767 12.2899 32.6065 12.5708 32.2453 13.0524C31.8439 13.6143 31.4827 13.9755 31.1215 14.2565C30.9208 14.417 30.1583 14.6578 28.9142 14.9789C28.6734 15.019 28.553 15.0591 28.553 15.0591C28.5931 15.019 28.6734 14.9789 28.7938 14.8585C28.9543 14.7381 29.3958 14.4973 30.1583 14.0959C30.8406 13.7347 31.2419 13.4939 31.3623 13.3735C31.4024 13.3334 31.4024 13.3334 31.4024 13.2932C31.4024 13.1327 30.8004 13.0524 29.5162 13.0524C29.5162 13.0524 29.2754 13.0524 28.7938 13.0524C28.553 13.0524 28.4326 13.0524 28.4326 13.0123C28.4326 12.9722 28.4727 12.932 28.553 12.8116L28.9944 12.0892C29.1148 11.8484 29.3556 11.728 29.7168 11.6879C29.8372 11.6478 30.1182 11.6478 30.5596 11.6478C32.0446 11.6478 32.767 11.8083 32.767 12.1294Z" fill="#124D73"/>
<path d="M32.125 21.0791C32.0849 21.039 32.0849 20.9989 32.125 20.9587L32.727 19.7146C32.7672 19.6343 32.8073 19.5942 32.8474 19.5942C32.9277 19.5942 33.1685 19.7547 33.6501 20.0758C34.1317 20.3968 34.3725 20.5975 34.3725 20.6778C34.3725 20.8785 34.1719 21.3199 33.7304 22.0022C33.6903 22.0825 33.61 22.1226 33.5699 22.0825C33.1685 21.7614 32.6468 21.4002 32.125 21.0791Z" fill="#124D73"/>
<path d="M36.5797 31.554C36.5797 31.3533 36.4191 30.9921 36.1382 30.3901C35.777 29.6677 35.4961 29.0256 35.3355 28.544C35.0145 27.5406 34.7737 26.6577 34.6934 25.8149C34.6533 25.4938 34.6131 25.2931 34.573 25.2129C34.5329 25.0122 34.4526 24.8517 34.2921 24.6911C34.3723 24.3701 34.5329 23.9687 34.7335 23.447C34.8138 23.2864 34.8539 23.2062 34.8941 23.2062C34.9342 23.2062 35.0145 23.2864 35.0947 23.447C35.6165 24.1293 36.0178 24.7714 36.379 25.3333C36.5395 25.5339 36.5797 25.6945 36.5797 25.8149C36.5797 25.8951 36.5395 25.9353 36.4994 25.9353C36.379 25.9353 36.1382 25.8149 35.8171 25.6142C35.777 25.6142 35.777 25.6543 35.7369 25.6945C35.8573 26.1359 36.0579 26.6978 36.2987 27.4202C36.8606 29.0657 37.1415 30.2296 37.1415 30.9921C37.1415 31.6342 36.981 32.3165 36.6599 32.9587C36.2185 33.8416 35.6165 34.2831 34.8941 34.2831V32.3566C35.8171 32.3165 36.379 32.0356 36.5797 31.554Z" fill="#124D73"/>
<path d="M41.7172 39.2998C43.4831 38.6577 45.3693 37.9754 47.3359 37.253C47.4563 37.2129 47.4964 37.2129 47.4964 37.2129C47.5366 37.253 47.4964 37.2932 47.4964 37.3734C47.376 37.6544 47.2958 37.8149 47.2155 37.855C45.5299 38.457 43.6035 39.2196 41.356 40.1426C41.4363 39.9018 41.5567 39.6209 41.7172 39.2998Z" fill="#124D73"/>
<path d="M45.168 36.049C45.0877 36.3299 45.0476 36.4904 44.9272 36.5707C44.566 36.8115 43.8035 37.2931 42.6396 38.0958C42.5994 38.1359 42.5192 38.1761 42.4389 38.2162C42.4389 38.2162 42.3988 38.1761 42.3988 38.1359L42.479 37.7346C42.479 37.6543 42.6797 37.4537 43.081 37.1727C42.5994 37.0122 42.3586 36.8115 42.3586 36.5707C42.3586 36.2898 42.479 36.0088 42.7198 35.6878C43.2014 35.1259 43.6028 34.845 43.8837 34.845C44.1647 34.845 44.2851 35.0055 44.2851 35.3266C44.2851 35.5272 44.2048 35.7279 44.0443 35.9687C44.0041 36.0088 43.964 36.0088 43.9239 35.9687C43.8436 35.768 43.7232 35.6878 43.5627 35.6878C43.4423 35.6878 43.3219 35.7279 43.1613 35.8483C43.0008 35.9687 42.9205 36.049 42.9205 36.1292C42.9205 36.2496 43.0008 36.3299 43.2014 36.4503C43.4021 36.5306 43.5627 36.6109 43.6429 36.6109C43.7633 36.6109 43.9239 36.5306 44.2048 36.37C44.4055 36.2496 44.566 36.1292 44.7667 36.0088C44.9272 35.9286 45.0075 35.8884 45.0476 35.9286C45.2081 35.8483 45.2081 35.9286 45.168 36.049Z" fill="#124D73"/>
<path d="M44.1649 8.75809C44.1649 8.91863 44.0043 9.19956 43.6431 9.68117C43.2418 10.243 42.8806 10.6042 42.5194 10.8852C42.3187 11.0457 41.5562 11.2865 40.312 11.6076C40.0712 11.6477 39.9508 11.6878 39.9508 11.6878C39.991 11.6477 40.0712 11.6076 40.1916 11.4872C40.3522 11.3668 40.7937 11.126 41.5562 10.7246C42.2385 10.3634 42.6398 10.1226 42.7602 10.0022C42.8003 9.9621 42.8003 9.9621 42.8003 9.92197C42.8003 9.76143 42.1983 9.68117 40.9141 9.68117C40.9141 9.68117 40.6732 9.68117 40.1916 9.68117C39.9508 9.68117 39.8304 9.68117 39.8304 9.64103C39.8304 9.6009 39.8706 9.56077 39.9508 9.44036L40.3923 8.71796C40.5127 8.47716 40.7535 8.35676 41.1147 8.31662C41.2351 8.27649 41.5161 8.27649 41.9575 8.27649C43.4425 8.27649 44.1649 8.43702 44.1649 8.75809Z" fill="#124D73"/>
<path d="M43.7637 29.6276C43.6433 30.7915 43.5229 31.3533 43.4828 31.3533C43.4426 31.3533 43.3222 30.8717 43.2018 29.9487C42.961 28.3835 41.7972 26.5774 39.7102 24.6109C38.8273 23.7681 37.9443 22.8852 37.0213 22.0423C36.0179 21.0791 35.2955 20.3166 34.7738 19.7146C34.4126 19.2731 34.0514 18.7113 33.6902 18.1092C33.4494 17.748 33.2487 17.3868 33.0079 16.9855C32.8474 16.7447 32.6467 16.544 32.4862 16.4638C32.4059 16.4236 32.3658 16.3032 32.3658 16.1828V14.8986C32.3658 14.6578 32.4059 14.5374 32.4862 14.5374C32.5263 14.5374 32.6467 14.6176 32.8072 14.6979L35.2554 16.544C35.456 16.6644 35.5363 16.7848 35.5363 16.8651C35.5363 16.9454 35.456 16.9454 35.2955 16.9454C35.0948 16.9454 34.7738 16.9052 34.2922 16.7848C34.5731 17.3868 35.4962 18.4303 36.9811 19.9153C38.1049 21.039 39.2687 22.1627 40.3925 23.2865C42.64 25.5741 43.7637 27.5407 43.7637 29.146C43.8038 29.3065 43.8038 29.4671 43.7637 29.6276Z" fill="#124D73"/>
<path d="M43.4428 16.1427C43.4428 15.9019 43.3626 15.5808 43.2823 15.2196C43.1619 14.8584 43.0816 14.6979 43.0816 14.6577C43.0816 14.5775 43.1619 14.3366 43.2823 13.8952C43.4027 13.4537 43.483 13.2129 43.483 13.1728C43.5231 13.0524 43.5632 13.0122 43.6034 12.9721C43.6435 12.9721 43.6836 13.0524 43.7238 13.1326C43.8843 13.3734 44.1652 13.9353 44.5264 14.7781C44.9679 15.7012 45.2488 16.3032 45.3291 16.6243C45.3692 16.8249 45.4094 16.9453 45.4094 17.0657C45.4094 17.146 45.4094 17.1861 45.3291 17.1861C45.2087 17.1861 44.9679 16.9855 44.5666 16.544C44.5264 16.4637 44.4863 16.544 44.4863 16.6644C44.4863 17.1861 44.6468 18.8718 45.008 21.7212C45.3692 24.6109 45.5298 26.5373 45.5298 27.5406C45.5298 29.6276 45.0482 31.3533 44.085 32.758C43.3224 33.8015 42.4395 34.564 41.4763 35.0456C41.0749 35.2062 40.4328 35.4068 39.5097 35.6476C38.5867 35.8884 37.9044 36.0088 37.4629 36.0891C37.2622 36.1292 37.182 36.0891 37.182 36.049C37.182 36.0088 37.2622 35.9286 37.4629 35.8082C38.3057 35.3266 39.7104 34.4837 41.5967 33.3199C42.1987 32.9185 42.8007 32.3968 43.4027 31.7547C44.2455 30.8717 44.6468 30.1092 44.6468 29.5072C44.6468 28.263 44.4462 25.8149 44.0047 22.243C43.6435 18.631 43.4428 16.6243 43.4428 16.1427Z" fill="#124D73"/>
<path d="M46.4928 17.146C46.4928 16.544 46.3724 16.0223 46.2119 15.6611C46.2119 15.4203 46.3724 14.8985 46.7336 14.0557C46.7738 13.9353 46.8139 13.8952 46.854 13.8952C46.8942 13.8952 46.9343 13.9353 46.9744 14.0557C47.0948 14.2965 47.3356 14.8584 47.6968 15.8618C48.0982 16.8651 48.2988 17.5072 48.3791 17.748C48.4192 17.9487 48.4594 18.0691 48.4594 18.1494C48.4594 18.4303 48.1784 18.2698 47.6567 17.6276C47.5764 17.5474 47.5764 17.5875 47.5764 17.748C47.5764 17.7882 47.6968 19.7547 48.0179 23.6075C48.2988 27.4604 48.4192 29.6276 48.4192 30.1092C48.4192 31.5941 48.2186 32.9186 47.737 34.0423C47.6166 34.2831 47.5363 34.4035 47.4962 34.5239C47.4159 34.6844 47.3356 34.7246 47.3356 34.6042C47.2955 34.4838 47.3356 34.243 47.3356 33.8818C47.4159 33.36 47.456 32.758 47.456 32.0757C47.456 31.4737 47.2955 28.9453 46.9744 24.5306C46.6132 20.1561 46.4928 17.7079 46.4928 17.146Z" fill="#124D73"/>
</svg>
