<svg width="49" height="49" viewBox="0 0 49 49" fill="none" xmlns="http://www.w3.org/2000/svg">
<path d="M8.04776 22.986L8.58111 21.8748C8.62215 21.7925 8.66323 21.7513 8.70436 21.7513C8.78662 21.7512 9.07479 21.9565 9.65107 22.326C10.1862 22.6955 10.4744 22.9008 10.4745 22.9831C10.4748 23.2299 10.2286 23.7237 9.77712 24.5058C9.73609 24.5881 9.65387 24.6293 9.61269 24.5882C9.11872 24.2598 8.58357 23.8903 8.00723 23.4796C7.80213 23.9323 7.63805 24.3027 7.4328 24.632C7.39176 24.7143 7.30955 24.7556 7.26837 24.7145C6.73317 24.3038 6.19796 23.8932 5.5806 23.5649C5.53946 23.5649 5.53941 23.5238 5.58045 23.4415L6.27797 22.0422C6.319 21.9598 6.36009 21.9187 6.40122 21.9186C6.44235 21.9186 6.73047 22.0827 7.18326 22.3701C7.636 22.6163 7.92422 22.8628 8.04776 22.986Z" fill="#124D73"/>
<path d="M13.6552 33.879C12.9148 33.8799 12.4212 33.8393 12.092 33.7575C11.3925 33.5527 10.8162 33.1009 10.3629 32.4022C10.0744 31.909 9.78583 31.4158 9.49737 30.9637C9.25008 30.5527 9.00304 30.3473 8.75626 30.3476C7.93364 30.3486 7.11186 31.0489 6.20863 32.4073C6.04441 32.6543 5.79837 33.2715 5.34718 34.3004C4.93712 35.3291 4.56784 36.07 4.28047 36.5227C3.82888 37.2225 3.3357 37.5522 2.801 37.5528C2.01951 37.5538 1.36066 36.9376 0.783325 35.7044C0.288452 34.6356 0.040315 33.5253 0.0388647 32.3325C0.0371643 30.9341 0.159157 29.7822 0.446025 28.9181C0.569068 28.6301 0.61 28.4655 0.692262 28.4654C0.774524 28.4653 0.815854 28.6298 0.775223 29.0411C0.65288 29.905 0.6127 30.6866 0.61345 31.3035C0.617051 34.265 1.31813 35.786 2.71659 35.7843C3.29242 35.7836 3.78545 35.3305 4.27797 34.4662C4.77029 33.4373 5.22143 32.3674 5.71376 31.3385C6.12402 30.4742 6.65782 29.7332 7.27404 29.1155C7.93139 28.4977 8.50682 28.168 9.00039 28.1674C9.4117 28.1669 9.74105 28.4133 10.0707 28.9064C10.3592 29.3585 10.6065 29.7695 10.8949 30.2216C11.3069 30.7558 11.6775 31.1256 12.0891 31.3307C12.5006 31.5359 13.0354 31.6175 13.6935 31.6167L13.6552 33.879Z" fill="#124D73"/>
<path d="M15.204 22.3191C17.1775 21.6175 19.3153 20.8334 21.5354 20.0081C21.6588 19.9668 21.6999 19.9667 21.741 19.9667C21.7822 20.0078 21.7411 20.049 21.7413 20.1724C21.6183 20.5015 21.4951 20.6662 21.4129 20.7075C19.5216 21.3679 17.3427 22.2343 14.835 23.3067C14.917 23.0187 15.0399 22.6895 15.204 22.3191Z" fill="#124D73"/>
<path d="M20.518 28.7703C20.1064 28.4829 19.3658 28.3193 18.2553 28.3207C17.8439 28.3212 17.4738 28.3627 17.1448 28.4043C17.8446 28.8559 18.3387 29.2666 18.6682 29.6364C19.2848 29.3477 19.9013 29.0179 20.518 28.7703ZM18.1771 31.7346C16.8209 32.6412 15.9579 33.2181 15.6701 33.3829C15.0124 33.7128 14.3135 33.9193 13.5731 33.9202L13.5705 31.7814C14.5988 31.7801 15.7089 31.4086 16.9419 30.6256C16.53 30.2148 16.0772 29.8452 15.5009 29.5168C14.9659 29.2707 14.5955 29.1066 14.3487 29.1069C13.814 29.1076 13.444 29.1903 13.1973 29.314C13.1151 29.3552 13.0329 29.3964 12.9506 29.3965C12.8684 29.3966 12.8272 29.3555 12.8271 29.2733C12.827 29.191 12.868 29.1087 12.9091 29.0264L13.5653 27.5037C13.6883 27.2157 14.305 26.9681 15.4564 26.7199C16.5666 26.4718 17.6359 26.3471 18.5819 26.346C20.5151 26.3436 22.0374 26.7531 23.1901 27.6154C23.4783 27.8207 23.643 27.9851 23.6431 28.0673C23.6432 28.1085 23.6022 28.2319 23.5201 28.3965L22.9047 29.6312C22.2057 29.8788 21.3013 30.2501 20.1091 30.7451C20.768 31.3613 21.7555 31.6892 22.9894 31.6877L22.992 33.8265C22.046 33.8276 21.3055 33.7051 20.7706 33.5001C20.1122 33.2953 19.2477 32.6794 18.1771 31.7346Z" fill="#124D73"/>
<path d="M19.9125 38.478C21.886 37.7764 24.0238 36.9923 26.2439 36.167C26.3673 36.1257 26.4084 36.1256 26.4495 36.1256C26.4907 36.1667 26.4496 36.2078 26.4498 36.3312C26.3268 36.6604 26.2036 36.8251 26.1214 36.8663C24.2302 37.5679 22.0512 38.3931 19.5435 39.4656C19.6254 39.1364 19.7484 38.8072 19.9125 38.478Z" fill="#124D73"/>
<path d="M25.2382 20.744L25.7715 19.6328C25.8126 19.5505 25.8537 19.5093 25.8948 19.5093C25.977 19.5092 26.2652 19.7145 26.8415 20.084C27.3767 20.4535 27.6648 20.6588 27.6649 20.7411C27.6652 20.9879 27.419 21.4817 26.9675 22.2638C26.9265 22.3461 26.8443 22.3873 26.8031 22.3462C26.3092 22.0178 25.774 21.6483 25.1977 21.2376C24.9926 21.6903 24.8285 22.0607 24.6232 22.39C24.5822 22.4723 24.5 22.5136 24.4588 22.4725C23.9236 22.0618 23.3884 21.6512 22.771 21.3229C22.7299 21.3229 22.7298 21.2818 22.7709 21.1995L23.4684 19.8002C23.5094 19.7178 23.5505 19.6767 23.5916 19.6766C23.6328 19.6766 23.9209 19.8407 24.3737 20.1281C24.8265 20.4155 25.1146 20.5796 25.2382 20.744Z" fill="#124D73"/>
<path d="M29.1553 28.513C29.1569 29.8703 28.7469 30.9402 27.8842 31.7639C26.4874 33.1641 24.8019 33.8653 22.8276 33.8677L22.825 31.7289C23.6887 31.7279 24.6756 31.521 25.7857 31.1495C26.978 30.7367 27.8823 30.2009 28.4985 29.6243C28.4981 29.2541 28.2509 28.9665 27.7159 28.7204C27.2632 28.4742 26.7695 28.3925 26.2348 28.3931L24.8364 28.3948C24.3016 28.3955 23.8901 28.2315 23.6018 27.8616C23.2723 27.533 23.1484 27.0807 23.1477 26.5049C23.1468 25.7645 23.3927 25.0238 23.8853 24.2829C24.4191 23.5419 24.9123 23.1711 25.447 23.1704C26.3107 23.1694 27.1339 23.662 27.9166 24.6482C28.6995 25.7578 29.1535 27.0323 29.1553 28.513ZM26.8493 26.377C26.3137 25.5961 25.7373 25.1855 25.0792 25.1863C24.6268 25.1869 24.3802 25.3517 24.3806 25.6396C24.381 25.9687 24.6691 26.174 25.2451 26.2555C25.6153 26.2962 26.15 26.3367 26.8493 26.377Z" fill="#124D73"/>
<path d="M29.3897 18.5179C29.3888 17.8186 29.2648 17.2841 29.0586 16.8319C29.0583 16.5851 29.2632 15.9679 29.6322 15.0626C29.6732 14.9391 29.7554 14.8979 29.7554 14.8979C29.7966 14.8978 29.8378 14.9389 29.9202 15.0622C30.0439 15.3089 30.2914 15.9666 30.7041 17.0767C31.158 18.2278 31.4056 18.9267 31.4882 19.1734C31.5295 19.379 31.5709 19.5435 31.571 19.6258C31.5714 19.9548 31.2832 19.7495 30.6654 19.051C30.583 18.9277 30.5419 19.0101 30.5421 19.1746C30.5422 19.2157 30.7094 21.4366 31.0438 25.7961C31.3781 30.1144 31.5045 32.5822 31.5051 33.1169C31.5072 34.8032 31.2621 36.2431 30.7701 37.5188C30.647 37.7657 30.5649 37.9304 30.524 38.0538C30.4008 38.2185 30.3597 38.2597 30.3595 38.1363C30.3183 38.0129 30.359 37.725 30.3585 37.3136C30.4401 36.7377 30.4804 36.0796 30.4795 35.2981C30.4786 34.5988 30.3107 31.8021 29.9345 26.8257C29.5995 21.9315 29.3904 19.1348 29.3897 18.5179Z" fill="#124D73"/>
<path d="M32.5254 26.4934C34.4988 25.7918 36.6367 25.0077 38.8568 24.1824C38.9801 24.1411 39.0212 24.1411 39.0624 24.141C39.1035 24.1821 39.0625 24.2233 39.0626 24.3467C38.9396 24.6759 38.8164 24.8405 38.7342 24.8818C36.843 25.5422 34.6641 26.4086 32.1564 27.481C32.2383 27.193 32.3613 26.8638 32.5254 26.4934Z" fill="#124D73"/>
<path d="M38.6609 32.1211C38.1665 31.4636 37.7137 31.1351 37.2612 31.1356C36.6443 31.1364 36.3154 31.3013 36.3158 31.6304C36.3163 32.0417 36.769 32.2056 37.6327 32.2046C37.9618 32.2042 38.2908 32.2038 38.6609 32.1211ZM39.7746 34.711C39.7743 34.4642 39.7329 34.2586 39.6503 34.0119C39.2392 34.1358 38.6223 34.2188 37.7997 34.2198C36.1133 34.2219 35.29 33.647 35.2886 32.4954C35.2875 31.5905 35.5745 30.8086 36.1495 30.1498C36.6834 29.5322 37.2178 29.2025 37.7936 29.2018C38.246 29.2013 38.74 29.4886 39.2342 30.0638C39.6873 30.5568 40.0993 31.1733 40.4704 31.9132C40.5115 31.9132 40.5527 31.9131 40.676 31.8307L40.6783 33.7639L40.5961 33.8051C40.5966 34.2164 40.515 34.7512 40.3101 35.3684C40.0643 36.1914 39.6949 36.8499 39.2431 37.3852C38.1752 38.6204 36.9838 39.7324 35.751 40.6799C33.8607 42.0807 32.2574 42.7818 30.8178 42.7836C29.625 42.785 28.7196 42.3748 28.0605 41.5119C27.4837 40.7311 27.1946 39.7854 27.1932 38.6337C27.1914 37.1119 27.5186 35.5896 28.1336 34.0259C28.2566 33.6967 28.3798 33.532 28.4621 33.5319C28.5032 33.5319 28.5033 33.573 28.5033 33.6142C28.5035 33.7375 28.4625 33.9021 28.3806 34.149C27.93 35.6714 27.7258 36.8645 27.7267 37.6459C27.7276 38.3863 27.934 39.003 28.3048 39.4961C28.8404 40.2359 29.7458 40.6461 30.9386 40.6446C32.008 40.6433 33.2825 40.1893 34.7621 39.2826C35.954 38.5408 37.1458 37.6756 38.2139 36.6049C39.241 35.6577 39.7749 34.9989 39.7746 34.711Z" fill="#124D73"/>
<path d="M44.4699 6.32469C44.4701 6.48921 44.2649 6.81851 43.8953 7.35367C43.4437 7.97118 43.0329 8.42413 42.6219 8.71255C42.3753 8.87737 41.5531 9.16629 40.1551 9.53817C39.9083 9.5796 39.785 9.62088 39.785 9.62088C39.8261 9.5797 39.9083 9.53847 40.0727 9.41487C40.237 9.25015 40.7714 9.00271 41.5935 8.54927C42.3744 8.13701 42.8265 7.84854 42.9498 7.725C42.9909 7.68382 42.9909 7.68382 42.9908 7.64269C42.9906 7.47816 42.2913 7.39675 40.8928 7.39845C40.8928 7.39845 40.646 7.39875 40.1113 7.3994C39.8234 7.39975 39.7 7.3999 39.7 7.35877C39.6999 7.31764 39.741 7.23533 39.8231 7.15296L40.3157 6.32974C40.4799 6.08275 40.7265 5.91793 41.1378 5.8763C41.2611 5.83502 41.5902 5.83462 42.0837 5.83402C43.6878 5.79094 44.4695 5.95451 44.4699 6.32469Z" fill="#124D73"/>
<path d="M41.7654 14.3897C41.7645 13.6905 41.6405 13.1559 41.4343 12.7037C41.434 12.4569 41.6389 11.8397 42.0079 10.8933C42.0489 10.8109 42.09 10.7286 42.1311 10.7286C42.1722 10.7285 42.2134 10.7696 42.2958 10.8929C42.4195 11.1395 42.6671 11.7973 43.0798 12.9074C43.5336 14.0585 43.7812 14.7574 43.8638 15.0041C43.9052 15.2097 43.9465 15.3331 43.9466 15.4565C43.947 15.7855 43.6589 15.6213 43.0411 14.9229C42.9587 14.7996 42.9176 14.8407 42.9178 15.0464C42.9179 15.0875 43.0436 16.9794 43.336 20.722C43.6285 24.4234 43.7546 26.6444 43.7555 27.3847C43.7569 28.5775 43.5526 29.6883 43.1426 30.7582C42.6097 32.2807 41.7472 33.3101 40.555 33.7639L40.5526 31.8308C41.9503 31.2121 42.6485 30.3064 42.647 29.0724C42.6463 28.4966 42.4788 26.0701 42.1857 21.7928C41.9338 17.5977 41.7662 15.0889 41.7654 14.3897Z" fill="#124D73"/>
<path d="M45.8436 19.6496C45.8427 18.9504 45.7187 18.4158 45.5125 17.9636C45.5122 17.7168 45.7171 17.0996 46.0862 16.1943C46.1272 16.0708 46.2094 16.0296 46.2094 16.0296C46.2505 16.0296 46.2917 16.0706 46.3741 16.1939C46.4978 16.4406 46.7454 17.0984 47.158 18.2084C47.6119 19.3595 47.8595 20.0585 47.9421 20.3051C47.9835 20.5107 48.0248 20.6752 48.0249 20.7575C48.0253 21.0865 47.7371 20.8812 47.1193 20.1827C47.0369 20.0595 46.9959 20.1418 46.9961 20.3063C46.9961 20.3474 47.1633 22.5683 47.4977 26.9278C47.832 31.2462 47.9584 33.7139 47.959 34.2486C47.9611 35.935 47.716 37.3748 47.224 38.6505C47.1009 38.8974 47.0189 39.0621 46.9779 39.1855C46.8547 39.3502 46.8136 39.3914 46.8135 39.268C46.7722 39.1446 46.813 38.8567 46.8125 38.4454C46.894 37.8694 46.9343 37.2113 46.9334 36.4298C46.9325 35.7306 46.7646 32.9338 46.3884 27.9574C46.0123 23.0633 45.8443 20.2666 45.8436 19.6496Z" fill="#124D73"/>
</svg>
