<svg width="49" height="49" viewBox="0 0 49 49" fill="none" xmlns="http://www.w3.org/2000/svg">
<path d="M46.1546 15.1396C46.1546 14.5315 46.0659 14.0501 45.8759 13.6447C45.8759 13.4294 46.0279 12.91 46.3953 12.1246C46.4206 12.0359 46.4586 11.9725 46.4839 11.9725C46.5473 11.9725 46.5726 12.0359 46.6359 12.1246C46.7246 12.3399 46.94 12.91 47.3074 13.8601C47.7001 14.8609 47.9154 15.469 47.9788 15.7097C48.0421 15.8617 48.0421 16.0137 48.0421 16.077C48.0421 16.3557 47.8014 16.2037 47.2567 15.5956C47.1934 15.507 47.168 15.5703 47.168 15.7223C47.168 15.7857 47.32 17.6732 47.5987 21.4357C47.8774 25.1728 47.9914 27.2757 47.9914 27.7571C47.9914 29.1886 47.7761 30.4681 47.358 31.5576C47.2314 31.773 47.1807 31.925 47.1173 32.039C47.0287 32.191 46.9907 32.191 46.9653 32.1023C46.94 31.9757 46.9653 31.735 46.9907 31.4056C47.054 30.8862 47.0793 30.3161 47.0793 29.67C47.0793 29.062 46.9273 26.6297 46.6233 22.3478C46.3066 18.0533 46.1546 15.659 46.1546 15.1396Z" fill="#124D73"/>
<path d="M43.5703 14.5062C43.5703 13.9235 43.4816 13.4421 43.2916 13.0494C43.2916 12.834 43.4436 12.3146 43.811 11.5039C43.8363 11.4152 43.8744 11.3772 43.8997 11.3772C43.963 11.3772 43.9884 11.4025 44.0517 11.5292C44.1404 11.7446 44.3811 12.3146 44.7485 13.2648C45.1158 14.2656 45.3312 14.8736 45.4199 15.089C45.4452 15.2663 45.4832 15.4184 45.4832 15.4817C45.4832 15.7604 45.2045 15.6084 44.6978 15.0003C44.6344 14.9116 44.6091 14.975 44.6091 15.127C44.6091 15.1523 44.6725 15.9758 44.7865 17.6226C44.9131 19.2315 45.0018 20.359 45.0018 20.9924C45.0018 21.9932 44.8245 22.9686 44.4571 23.9061C43.9377 25.2109 43.1776 26.0977 42.2021 26.5157V24.8435C43.4183 24.3241 44.0517 23.5387 44.0517 22.4746C44.0517 21.8411 43.963 20.473 43.811 18.3954C43.6337 16.2925 43.5703 15.013 43.5703 14.5062Z" fill="#124D73"/>
<path d="M43.7859 28.302C43.7859 28.7327 43.6338 29.1887 43.3045 29.6448C42.9371 30.1642 42.5444 30.4302 42.0883 30.4302C41.6069 30.4302 41.0495 30.1515 40.4414 29.6448C39.77 29.1001 39.352 28.4287 39.162 27.6432C38.8579 28.34 38.5792 28.8847 38.3132 29.2267C37.9205 29.7081 37.3377 30.1135 36.5776 30.4429V28.7707C37.4011 28.4033 38.0091 28.0106 38.4019 27.4912C38.6172 27.2505 38.9213 26.7311 39.314 25.9077C39.4407 25.667 39.5293 25.5403 39.5927 25.5403C39.618 25.5403 39.7194 25.6036 39.8334 25.6923C39.8334 25.2363 39.9854 25.0209 40.2894 25.0842C40.8975 25.1729 41.5309 25.0842 42.2023 24.8055L42.8991 26.1484C43.4818 26.7818 43.7859 27.4785 43.7859 28.302ZM42.3923 28.1246C42.025 27.6052 41.4549 27.2758 40.5935 27.1492C40.3528 27.0858 40.2641 27.1238 40.2641 27.1745C40.2641 27.1998 40.2894 27.2632 40.3528 27.3519C40.9608 28.1119 41.5943 28.5047 42.2023 28.5047C42.4177 28.5047 42.5064 28.4793 42.5064 28.378C42.5064 28.34 42.443 28.2386 42.3923 28.1246Z" fill="#124D73"/>
<path d="M34.8417 28.9987C34.3856 28.4159 33.9929 28.1499 33.6255 28.1499C33.0808 28.1499 32.8401 28.2766 32.8401 28.5806C32.8401 28.948 33.2075 29.1253 33.9296 29.1253C34.2083 29.1253 34.5123 29.062 34.8417 28.9987ZM35.7918 31.2283C35.7918 31.0509 35.7284 30.8356 35.6651 30.6202C35.2977 30.7469 34.753 30.8356 34.0816 30.8356C32.6247 30.8356 31.89 30.3162 31.89 29.3154C31.89 28.5553 32.1053 27.8839 32.5867 27.2758C33.0428 26.7564 33.5242 26.4904 34.0436 26.4904C34.4363 26.4904 34.829 26.7311 35.2851 27.1871C35.6778 27.6432 36.0452 28.1626 36.3492 28.796C36.3745 28.796 36.4379 28.796 36.5645 28.7326V30.4048L36.5012 30.4682C36.5012 30.8356 36.4125 31.2536 36.2225 31.811C36.0071 32.5078 35.6778 33.0905 35.2851 33.5466C34.373 34.636 33.3722 35.5861 32.27 36.4096C30.6232 37.6257 29.2297 38.2591 28.0135 38.2591C26.9747 38.2591 26.1893 37.8664 25.6445 37.1063C25.1632 36.4729 24.9098 35.6115 24.9098 34.6107C24.9098 33.3312 25.1885 32.0264 25.6952 30.6582C25.8472 30.3542 25.9106 30.2275 25.9739 30.2275C25.9993 30.2275 25.9993 30.2528 25.9993 30.3162C25.9993 30.4048 25.9739 30.5569 25.9359 30.7469C25.5432 32.0897 25.3532 33.0905 25.3532 33.7873C25.3532 34.4207 25.5052 34.9781 25.8092 35.4341C26.2906 36.0675 27.0507 36.4096 28.1149 36.4096C29.027 36.4096 30.1164 36.0169 31.4339 35.2188C32.4727 34.5854 33.4735 33.8253 34.449 32.9131C35.3357 32.039 35.7918 31.4943 35.7918 31.2283Z" fill="#124D73"/>
<path d="M31.6242 27.3645C31.6242 27.9726 31.4976 28.5173 31.3202 28.9734C31.1429 29.4294 30.9275 29.6701 30.7121 29.6701C29.5593 29.6701 28.4319 29.2141 27.279 28.3653C26.9117 29.2774 26.4303 30.0375 25.7842 30.6203C25.1128 31.2537 24.416 31.5957 23.6813 31.5957V29.7461C24.2007 29.7461 24.7707 29.6195 25.3281 29.3788C25.9996 29.1001 26.4556 28.7074 26.7216 28.188C26.785 28.0613 27.0003 27.6432 27.3044 26.9465C27.4564 26.6171 27.6084 26.4271 27.7351 26.4017C27.9125 26.0344 28.1912 25.667 28.5585 25.3123C29.0399 24.8309 29.534 24.5775 29.99 24.5775C30.5728 24.5775 30.9908 24.9069 31.2949 25.6163C31.4976 26.1104 31.6242 26.7184 31.6242 27.3645ZM30.4334 27.3899C30.3448 27.1112 30.1927 26.8705 29.9774 26.6931C29.7367 26.4777 29.5213 26.3891 29.306 26.3891C28.9766 26.3891 28.6979 26.4524 28.5205 26.5664C28.3938 26.6931 28.3052 26.7818 28.3052 26.8958C28.8246 27.2632 29.3946 27.5672 30.1294 27.7446C30.2181 27.7699 30.2814 27.8079 30.3448 27.8079C30.4334 27.8079 30.4714 27.7446 30.4714 27.6559C30.4714 27.6052 30.4714 27.5165 30.4334 27.3899Z" fill="#124D73"/>
<path d="M23.6938 29.7081V31.583C22.9084 31.583 22.3256 31.3677 21.9329 31.0003C21.6289 30.6963 21.4769 30.2656 21.4769 29.7588C21.4769 29.6321 21.4769 29.5181 21.4769 29.3661C20.6914 29.9488 20.0454 30.3416 19.564 30.5569V28.8594C20.172 28.6187 20.9321 28.188 21.8189 27.6179C21.9456 27.5292 22.0343 27.4912 22.0976 27.4912C22.1863 27.4912 22.2496 27.5546 22.2496 27.6686C22.2496 27.7319 22.2243 27.8459 22.1863 28.0359C22.1863 28.2133 22.1609 28.34 22.1609 28.4033C22.1609 28.7074 22.2876 28.9861 22.5537 29.2521C22.8324 29.5561 23.2377 29.7335 23.6938 29.7081Z" fill="#124D73"/>
<path d="M17.8158 29.1253C17.3597 28.5426 16.967 28.2766 16.5996 28.2766C16.0549 28.2766 15.8142 28.4033 15.8142 28.7073C15.8142 29.0747 16.1816 29.252 16.9037 29.252C17.1824 29.252 17.4864 29.1887 17.8158 29.1253ZM18.7659 31.3423C18.7659 31.1649 18.7026 30.9496 18.6392 30.7342C18.2718 30.8609 17.7271 30.9496 17.0557 30.9496C15.5989 30.9496 14.8641 30.4302 14.8641 29.4294C14.8641 28.6693 15.0795 27.9979 15.5609 27.3898C16.0169 26.8704 16.4983 26.6044 17.0177 26.6044C17.4104 26.6044 17.8031 26.8451 18.2592 27.3011C18.6519 27.7572 19.0193 28.2766 19.3233 28.91C19.3486 28.91 19.412 28.91 19.5387 28.8466V30.5188L19.4753 30.5822C19.4753 30.9496 19.3867 31.3676 19.1966 31.925C18.9813 32.6218 18.6519 33.2045 18.2592 33.6606C17.3471 34.75 16.3463 35.7001 15.2441 36.5236C13.5973 37.7397 12.2038 38.3731 10.9876 38.3731C9.94883 38.3731 9.1634 37.9804 8.61867 37.2203C8.13728 36.5869 7.88391 35.7255 7.88391 34.7247C7.88391 33.4452 8.16261 32.1404 8.66934 30.7722C8.82136 30.4682 8.8847 30.3415 8.94804 30.3415C8.97338 30.3415 8.97338 30.3668 8.97338 30.4302C8.97338 30.5188 8.94804 30.6709 8.91004 30.8609C8.51732 32.2037 8.3273 33.2045 8.3273 33.9013C8.3273 34.5347 8.47932 35.0921 8.78336 35.5481C9.26475 36.1815 10.0248 36.5236 11.089 36.5236C12.0011 36.5236 13.0905 36.1309 14.408 35.3328C15.4468 34.6994 16.4476 33.9393 17.4231 33.0272C18.3099 32.1657 18.7659 31.621 18.7659 31.3423Z" fill="#124D73"/>
<path d="M15.1174 24.4762C15.1174 25.629 14.8387 26.5158 14.332 27.1238C13.5086 28.0613 12.2924 28.9734 10.7089 29.8855C8.7073 30.975 6.84507 31.5577 5.08419 31.5577C2.77857 31.5577 1.15704 30.4049 0.282933 28.1246C0.105578 27.6686 0.0422363 27.1238 0.0422363 26.4271C0.0422363 25.971 0.0675724 25.515 0.130913 25.0336C0.257596 24.3368 0.409615 23.7288 0.58697 23.2094C0.675648 23.0573 0.738988 22.9687 0.802329 22.9687C0.865671 22.9687 0.86567 23.0953 0.827665 23.298C0.738988 23.6021 0.675647 23.9314 0.612306 24.2355C0.485624 24.8182 0.434951 25.2363 0.434951 25.515C0.434951 26.4524 0.738988 27.3139 1.3724 28.1246C2.22117 29.1634 3.47532 29.7082 5.08419 29.7082C6.5157 29.7082 8.03588 29.3788 9.61941 28.7074C10.9242 28.1626 12.077 27.4912 13.1158 26.7058C14.0279 25.971 14.5093 25.4643 14.5093 25.1603C14.5093 25.0969 14.294 24.7042 13.9013 23.9441C13.4452 23.0573 13.1158 22.1832 12.9005 21.3345C12.8118 21.0558 12.6851 20.8784 12.5964 20.7897C12.4698 20.663 12.4191 20.5744 12.4191 20.4604C12.4191 20.3717 12.5078 19.9156 12.6598 19.0922C12.6851 18.9402 12.7231 18.8768 12.7865 18.8768C12.8498 18.8768 12.9131 18.9022 12.9638 18.9655C13.2045 19.2442 13.7239 19.7509 14.484 20.511C14.6107 20.6377 14.6614 20.7264 14.6614 20.8151C14.6614 20.9037 14.598 20.9417 14.446 20.9417C14.294 20.9417 14.0533 20.8784 13.7112 20.7897C13.7366 20.8784 14.0153 21.4231 14.4967 22.4366C14.9021 23.1967 15.1174 23.8934 15.1174 24.4762Z" fill="#124D73"/>
<path d="M20.5899 24.3494C20.5646 24.324 20.5646 24.286 20.5899 24.2227L21.1727 23.0065C21.198 22.9432 21.2613 22.9178 21.2993 22.9178C21.3627 22.9178 21.6287 23.0699 22.0848 23.3739C22.5662 23.7033 22.8195 23.8933 22.8195 23.9566C22.8195 24.172 22.6042 24.5901 22.1861 25.2615C22.1228 25.3501 22.0974 25.3881 22.0341 25.3501C21.5654 24.9954 21.0713 24.6534 20.5899 24.3494Z" fill="#124D73"/>
<path d="M4.65328 19.8269C4.62794 19.8016 4.62794 19.7636 4.65328 19.7002L5.23602 18.4841C5.26135 18.4207 5.3247 18.3954 5.3627 18.3954C5.42604 18.3954 5.69207 18.5474 6.14813 18.8514C6.62952 19.1808 6.88289 19.3708 6.88289 19.4342C6.88289 19.6495 6.66753 20.0676 6.24948 20.739C6.18613 20.8277 6.1608 20.8657 6.09746 20.8277C5.62873 20.4603 5.14734 20.1309 4.65328 19.8269Z" fill="#124D73"/>
<path d="M34.6644 22.2592C34.6011 22.5379 34.5378 22.6899 34.4491 22.7786C34.1197 22.9939 33.3596 23.4753 32.1941 24.2734C32.1688 24.2987 32.1055 24.3367 32.0421 24.4001C32.0168 24.3747 32.0168 24.3748 32.0168 24.3114L32.0801 23.9187C32.1055 23.83 32.2955 23.64 32.6629 23.374C32.2068 23.2219 31.9915 23.0066 31.9915 22.7659C31.9915 22.4872 32.0801 22.2212 32.3208 21.9425C32.7769 21.3977 33.1696 21.119 33.4736 21.119C33.7523 21.119 33.8663 21.271 33.8663 21.5751C33.8663 21.7524 33.803 21.9425 33.651 22.1831C33.6257 22.2465 33.5876 22.2465 33.5243 22.1578C33.461 22.0058 33.347 21.9425 33.1949 21.9425C33.1063 21.9425 32.9796 21.9678 32.8276 22.0945C32.6755 22.1832 32.5869 22.2718 32.5869 22.3352C32.5869 22.4238 32.6755 22.5125 32.8656 22.6139C33.0429 22.7406 33.1949 22.7659 33.3216 22.7659C33.4103 22.7659 33.6003 22.7025 33.8663 22.5505C34.0437 22.4238 34.1957 22.3098 34.3857 22.1831C34.5378 22.1198 34.6264 22.0565 34.6644 22.0945C34.6898 22.0691 34.6898 22.1325 34.6644 22.2592Z" fill="#124D73"/>
<path d="M40.2637 20.5489C40.3271 20.3716 40.3271 20.1815 40.2891 20.0042C40.2637 19.8268 40.1624 19.7255 40.0103 19.7255C39.947 19.7255 39.8583 19.7508 39.7316 19.8142C39.605 19.8775 39.5543 19.9408 39.5543 19.9915C39.5543 20.1562 39.8077 20.3336 40.2637 20.5489ZM39.8963 21.347C39.3136 21.043 39.0476 20.7389 39.0476 20.4096C39.0476 20.0169 39.2249 19.6495 39.5923 19.3454C39.9597 19.0161 40.2637 18.8894 40.5044 18.9781C40.7198 19.0414 40.8084 19.2568 40.8084 19.6115C40.8084 19.9408 40.7451 20.3082 40.5931 20.7389C40.8971 20.891 41.0745 21.043 41.1378 21.1697C41.1378 21.3217 41.0111 21.6004 40.7451 21.9551C40.6818 21.8284 40.5044 21.6764 40.2257 21.5244C39.8963 21.9804 39.491 22.3731 39.0096 22.7405C38.4268 23.1332 37.9201 23.4753 37.464 23.6526C37.3374 23.716 36.7926 23.9313 35.8172 24.286C35.6651 24.3494 35.5385 24.3747 35.5131 24.3747C35.4878 24.3747 35.4878 24.3494 35.4878 24.3494C35.4878 24.324 35.5511 24.2227 35.7285 24.134C36.4632 23.678 37.1853 23.2472 37.9454 22.8292C38.8322 22.2845 39.4656 21.8031 39.8963 21.347Z" fill="#124D73"/>
<path d="M25.784 33.9012C28.1276 33.0524 30.5599 32.1403 33.1062 31.1902C33.1949 31.1649 33.2582 31.1269 33.2836 31.1649C33.2836 31.1649 33.2836 31.2282 33.2582 31.3169C33.1316 31.5956 33.0429 31.7476 32.9795 31.7983C30.8513 32.5837 28.3303 33.5592 25.4673 34.75C25.5433 34.4713 25.632 34.2053 25.784 33.9012Z" fill="#124D73"/>
<path d="M23.1363 17.6606C23.1996 17.4833 23.1996 17.2933 23.1616 17.1159C23.1363 16.9386 23.0349 16.8372 22.8829 16.8372C22.8196 16.8372 22.7309 16.8625 22.6042 16.9259C22.4775 16.9892 22.4269 17.0526 22.4269 17.1032C22.4395 17.2679 22.6802 17.4453 23.1363 17.6606ZM23.8077 18.7881C23.5036 19.5229 23.3516 20.0929 23.3516 20.5237C23.3516 21.0431 23.4783 21.3091 23.7443 21.3091C23.9217 21.3091 24.1117 21.0937 24.2891 20.7263C24.3144 20.701 24.3144 20.663 24.3524 20.6377C24.3778 20.6377 24.3778 20.6377 24.3778 20.663C24.3778 20.663 24.3778 20.6883 24.3778 20.7517C24.2257 21.6638 23.947 22.1198 23.5543 22.1198C23.1616 22.1198 22.9716 21.7905 22.9716 21.1191C22.9716 20.7897 23.0603 20.359 23.2123 19.8142C23.3896 19.2695 23.491 18.9908 23.491 18.9655C23.491 18.9021 23.3643 18.7881 23.0983 18.6361C22.7689 19.0921 22.3635 19.4849 21.8821 19.8522C21.2994 20.283 20.7926 20.587 20.3366 20.7897C20.2099 20.815 19.6652 21.0304 18.6897 21.3978C18.5377 21.4611 18.411 21.4864 18.3857 21.4864C18.3604 21.4864 18.3604 21.4864 18.3604 21.4611C18.3604 21.4358 18.4237 21.3724 18.601 21.2457C19.3358 20.815 20.0579 20.359 20.818 19.9409C21.7048 19.3962 22.3382 18.9021 22.7689 18.4461C22.1862 18.142 21.9201 17.838 21.9201 17.5086C21.9201 17.1159 22.0975 16.7485 22.4649 16.4192C22.8322 16.1151 23.1363 15.9884 23.377 16.0898C23.5923 16.1531 23.681 16.3685 23.681 16.7232C23.681 17.0526 23.6177 17.4199 23.4656 17.8127C23.7697 17.99 23.9217 18.18 23.9217 18.3574C23.9344 18.4587 23.871 18.6108 23.8077 18.7881Z" fill="#124D73"/>
<path d="M1.49918 21.7651C1.49918 21.7398 1.52451 21.7018 1.52451 21.7018C1.54985 21.6764 1.54985 21.6764 1.54985 21.7018C1.57518 21.7271 1.57518 21.7651 1.54985 21.7905C1.39783 22.7026 1.11913 23.1586 0.726415 23.1586C0.3337 23.1586 0.143677 22.8292 0.143677 22.1578C0.143677 21.3344 0.359036 20.4603 0.840429 19.5735C0.967111 19.3582 1.01778 19.2441 1.05579 19.2441C1.05579 19.2695 1.03045 19.3962 0.967111 19.6115C0.663074 20.549 0.511054 21.195 0.511054 21.5878C0.511054 22.0692 0.637737 22.3479 0.90377 22.3479C1.09379 22.3479 1.28382 22.1325 1.49918 21.7651Z" fill="#124D73"/>
<path d="M35.242 14.0542C35.242 14.2565 35.0445 14.6207 34.6099 15.2277C34.0963 15.9157 33.6618 16.4417 33.2272 16.7655C32.9507 16.9678 32.042 17.2915 30.4618 17.6962C30.1852 17.7367 30.0272 17.7772 30.0272 17.7772C30.0667 17.7367 30.1457 17.6558 30.3433 17.5344C30.5408 17.3725 31.0939 17.0487 32.042 16.5631C32.9112 16.0775 33.4247 15.7538 33.5432 15.6324C33.5828 15.5919 33.5828 15.5515 33.5828 15.5515C33.5828 15.3491 32.7926 15.2682 31.2519 15.2682C31.2519 15.2682 30.9754 15.2682 30.3828 15.3086C30.0667 15.3491 29.9087 15.3086 29.9087 15.2682C29.9087 15.2277 29.9482 15.1468 30.0272 15.0254L30.5803 14.0946C30.7383 13.8114 31.0544 13.6495 31.4889 13.5686C31.647 13.5281 32.0025 13.5281 32.5556 13.5281C34.3729 13.4472 35.242 13.6495 35.242 14.0542Z" fill="#124D73"/>
</svg>
