<svg width="48" height="49" viewBox="0 0 48 49" fill="none" xmlns="http://www.w3.org/2000/svg">
<path d="M25.351 20.2599C25.351 20.0215 24.9933 19.6639 24.2781 19.1076C23.4437 18.4718 22.6092 18.154 21.8145 18.154C20.2251 18.154 18.596 19.5447 16.9271 22.3659C17.5232 22.5645 18.1192 22.644 18.7152 22.644C19.7086 22.644 20.8212 22.4453 21.9337 22.0877C22.8079 21.8096 23.6424 21.452 24.3576 21.0149C24.9933 20.6175 25.351 20.3791 25.351 20.2599ZM5.28476 32.6175C3.33774 32.6175 1.94702 31.9818 1.03311 30.6705C0.357615 29.6771 0 28.4056 0 26.8559C0 26.3791 0.0397346 25.9023 0.0794696 25.4652C0.198675 24.7102 0.357615 24.1142 0.596026 23.5977C0.675496 23.399 0.715231 23.3195 0.794701 23.3195C0.874171 23.3195 0.87417 23.4387 0.834435 23.6374C0.55629 25.2665 0.39735 26.1804 0.39735 26.3791C0.39735 27.3328 0.715231 28.2467 1.39073 29.0811C2.2649 30.1937 3.53642 30.7102 5.24503 30.7102C6.75496 30.7102 8.30462 30.3526 9.9735 29.6771C11.3245 29.1208 12.5563 28.4056 13.6291 27.5712C14.6225 26.8559 15.0993 26.2996 15.0993 25.9818C15.0993 24.9089 14.7814 23.7566 14.1854 22.5248C14.0662 22.2864 13.9867 22.1275 13.9867 22.0083C13.9867 21.9288 14.1059 21.452 14.3444 20.6573C14.3841 20.4983 14.4238 20.4586 14.5033 20.4586C14.5828 20.4586 14.6622 20.5778 14.7417 20.7765C15.0198 21.4122 15.5364 21.8493 16.1722 22.1672C17.4039 20.1804 18.2384 18.9884 18.596 18.5116C19.7881 17.0414 20.9801 16.3261 22.1722 16.3261C23.1655 16.3261 24.0794 16.6838 24.8741 17.399C25.5894 18.0347 25.9072 18.591 25.9072 19.1076C25.9072 19.5049 25.8278 19.9818 25.6291 20.5381C25.4304 21.0943 25.2318 21.5314 24.9933 21.8096C24.5563 22.3261 23.841 22.8427 22.8079 23.399C21.298 24.1937 19.7483 24.591 18.1192 24.591C17.3245 24.591 16.4503 24.3924 15.5761 24.0347C15.5761 26.0612 15.298 27.4122 14.702 28.048C13.8675 29.0414 12.596 29.995 10.9669 30.9089C9.01985 32.0612 7.11257 32.6175 5.28476 32.6175Z" fill="#124D73"/>
<path d="M25.7087 28.4056C25.5497 29.5977 25.4702 30.1937 25.4305 30.1937C25.3908 30.1937 25.2716 29.6771 25.1524 28.7235C24.914 27.1341 23.7616 25.346 21.6159 23.3195C19.0332 20.8957 17.1259 18.9089 15.9338 17.4785C15.616 17.0414 15.2186 16.4453 14.702 15.7301C14.5431 15.4917 14.3444 15.293 14.1855 15.2136C14.106 15.1341 14.0266 15.0546 14.0266 14.9354V13.6242C14.0266 13.346 14.0663 13.2268 14.1855 13.2268C14.2252 13.2268 14.3444 13.3063 14.5034 13.3857L16.9669 15.2533C17.1656 15.4122 17.2451 15.4917 17.2451 15.5712C17.2451 15.6506 17.1656 15.6904 17.0067 15.6506C16.808 15.6506 16.4901 15.6109 16.0133 15.4917C16.4107 16.048 17.3643 17.0811 18.914 18.6308C20.0265 19.7434 21.1391 20.8559 22.2914 22.0083C24.5961 24.3129 25.7087 26.3394 25.7087 27.9685C25.7087 28.1275 25.7087 28.2467 25.7087 28.4056Z" fill="#124D73"/>
<path d="M26.3044 16.6439C26.2249 15.7698 26.0263 14.538 25.7481 12.9088C25.9071 11.9552 26.0263 11.3989 26.066 11.24C26.1057 11.1208 26.1852 11.0413 26.2249 11.0413C26.2647 11.0413 26.3044 11.1208 26.3839 11.24C26.821 12.591 27.1388 14.3393 27.417 16.485C27.5759 17.9155 27.6951 20.1009 27.7746 23.1207C27.8541 25.783 27.9733 27.4519 28.0925 28.0876C28.2514 28.8426 28.4898 29.3592 28.8077 29.5976C29.0461 29.7565 29.364 29.8757 29.8011 29.8757V31.8227C28.8077 31.8227 28.1322 31.4651 27.6951 30.7101C27.417 30.2333 27.2183 29.4386 27.1388 28.3658C26.7812 30.1141 26.4236 31.2267 26.1057 31.7035C25.3508 32.7764 24.4766 33.5313 23.4832 33.9684C23.0859 34.1671 22.4104 34.3658 21.4965 34.6042C20.5428 34.8426 19.8673 35.0015 19.4302 35.0413C19.2316 35.081 19.1521 35.0413 19.1521 35.0015C19.1521 34.9618 19.2316 34.8426 19.4302 34.7234C20.3044 34.2466 21.6951 33.4121 23.6024 32.2201C25.7481 30.8293 26.8607 28.7631 26.8607 26.0214C26.7812 22.4055 26.6223 19.3062 26.3044 16.6439Z" fill="#124D73"/>
<path d="M32.2249 16.9221C32.2249 17.081 32.0659 17.3592 31.7083 17.8757C31.311 18.432 30.9136 18.8294 30.556 19.0678C30.3573 19.2267 29.6023 19.4651 28.3308 19.8227C28.0924 19.8625 27.9732 19.9022 27.9732 19.9022C28.0129 19.8625 28.0924 19.8227 28.2116 19.7035C28.3706 19.5843 28.8076 19.3062 29.5626 18.9486C30.2778 18.5512 30.6752 18.3128 30.7944 18.2333C30.8341 18.1936 30.8341 18.1936 30.8341 18.1539C30.8341 17.9949 30.1984 17.9155 28.9268 17.9155C28.9268 17.9155 28.6884 17.9155 28.2116 17.9155C27.9732 17.9155 27.854 17.9155 27.854 17.8757C27.854 17.836 27.8937 17.7963 27.9732 17.677L28.4103 16.9221C28.5295 16.6837 28.7679 16.5645 29.1255 16.485C29.2447 16.4453 29.5229 16.4453 29.9997 16.4453C31.5096 16.4055 32.2249 16.5645 32.2249 16.9221Z" fill="#124D73"/>
<path d="M30.0798 22.2068C30.0401 22.1671 30.0401 22.1274 30.0798 22.0876L30.7155 20.8161C30.7553 20.7366 30.795 20.6969 30.8348 20.6969C30.9142 20.6969 31.1924 20.8558 31.6692 21.2135C32.146 21.5313 32.3844 21.73 32.3844 21.8095C32.3844 22.0082 32.1857 22.4452 31.7487 23.1605C31.7089 23.2399 31.6295 23.2797 31.5897 23.2399C31.1129 22.8823 30.5963 22.5247 30.0798 22.2068Z" fill="#124D73"/>
<path d="M41.0861 26.5777L40.6092 27.8095C40.5695 27.9684 40.4503 28.0082 40.3311 28.0082C39.6556 28.0082 39.0596 28.1274 38.543 28.2863C37.9072 28.5247 36.7549 29.081 35.0463 29.9949C32.8212 31.187 31.192 31.7433 30.1589 31.7433C30.0397 32.2598 29.9205 32.4982 29.8013 32.4982C29.7218 32.4982 29.6424 32.2598 29.6026 31.783L29.6424 31.7433C29.6026 31.4651 29.4437 30.8294 29.1655 29.836C28.8874 28.9221 28.7285 28.2068 28.7285 27.6903C28.7285 26.7366 28.8874 26.0214 29.1655 25.5843C29.7218 24.7102 30.5165 24.2731 31.6291 24.2731C32.1059 24.2731 33.2185 24.5115 34.9271 24.9883C36.8344 25.5049 37.9867 25.8227 38.3841 25.8625C39.6953 26.0611 40.5298 26.1406 40.8874 26.1406C41.0861 26.1406 41.1655 26.2201 41.1655 26.2996C41.1258 26.4188 41.0861 26.4982 41.0861 26.5777ZM37.0331 27.4916C34.0132 26.538 32.0265 26.0611 31.0728 26.0611C30.596 26.0611 30.1589 26.2201 29.7616 26.5777C29.4039 26.8559 29.245 27.134 29.245 27.4121C29.4834 27.9287 29.7616 28.7234 30.1192 29.836C30.2781 29.836 30.4768 29.836 30.6357 29.836C31.4304 29.836 32.6622 29.4784 34.3708 28.7234L37.0331 27.4916Z" fill="#124D73"/>
<path d="M34.3308 39.6505C36.1188 39.0148 38.0261 38.2996 40.0129 37.5843C40.1321 37.5446 40.1718 37.5446 40.1718 37.5446C40.2115 37.5843 40.1718 37.6241 40.1718 37.7035C40.0526 37.9817 39.9731 38.1406 39.8937 38.2201C38.2248 38.8161 36.238 39.6108 33.9731 40.5247C34.0526 40.2466 34.1718 39.9684 34.3308 39.6505Z" fill="#124D73"/>
<path d="M38.5825 36.1142C38.5031 36.3923 38.4236 36.5513 38.3441 36.6308C37.9865 36.8692 37.2316 37.3857 36.0395 38.1804C35.9998 38.2202 35.9203 38.2599 35.8408 38.3394C35.8408 38.3394 35.8011 38.2996 35.8011 38.2599L35.8806 37.8228C35.8806 37.7433 36.0792 37.5447 36.4766 37.2665C35.9998 37.1076 35.7614 36.9089 35.7614 36.6308C35.7614 36.3526 35.8806 36.0745 36.119 35.7566C36.5958 35.2003 36.9931 34.9221 37.311 34.9221C37.5892 34.9221 37.7481 35.0811 37.7481 35.399C37.7481 35.5976 37.6686 35.7963 37.5097 36.0347C37.47 36.0745 37.4302 36.0745 37.3905 36.0347C37.311 35.8361 37.1918 35.7566 37.0329 35.7566C36.9137 35.7566 36.7945 35.7963 36.6355 35.9155C36.4766 36.0347 36.3971 36.1142 36.3971 36.1937C36.3971 36.3129 36.4766 36.3923 36.6753 36.5116C36.8739 36.591 37.0329 36.6705 37.1123 36.6705C37.2315 36.6705 37.3905 36.591 37.6686 36.4321C37.8673 36.3129 38.0263 36.1937 38.2249 36.0745C38.3839 35.995 38.5031 35.9553 38.5031 35.995C38.5825 35.9553 38.5825 35.995 38.5825 36.1142Z" fill="#124D73"/>
<path d="M42.1586 8.41877C42.1586 8.57772 41.9997 8.85586 41.6421 9.37242C41.2447 9.92871 40.8474 10.3261 40.4898 10.5645C40.2911 10.7234 39.5361 10.9618 38.2646 11.3194C38.0262 11.3592 37.907 11.3989 37.907 11.3989C37.9467 11.3592 38.0262 11.3194 38.1454 11.2002C38.3043 11.081 38.7414 10.8029 39.4964 10.4453C40.2116 10.0479 40.609 9.8095 40.7282 9.73003C40.7679 9.6903 40.7679 9.6903 40.7679 9.65056C40.7679 9.49162 40.1321 9.41215 38.8606 9.41215C38.8606 9.41215 38.6222 9.41215 38.1454 9.41215C37.907 9.41215 37.7878 9.41215 37.7878 9.37242C37.7878 9.33268 37.8275 9.29295 37.907 9.17374L38.3441 8.41877C38.4633 8.18036 38.7017 8.06116 39.0593 7.98169C39.1785 7.94195 39.4567 7.94196 39.9335 7.94196C41.4434 7.94196 42.1586 8.10089 42.1586 8.41877Z" fill="#124D73"/>
<path d="M42.5164 27.9684C42.3972 29.1207 42.278 29.7167 42.2382 29.7167C42.1985 29.7167 42.0793 29.2399 41.9601 28.2863C41.7217 26.6969 40.5296 24.9088 38.4237 22.8823C37.5495 22.0081 36.6356 21.1737 35.7217 20.2995C34.7283 19.3459 33.9734 18.5512 33.4568 17.9154C33.0992 17.4783 32.7416 16.9221 32.3442 16.2863C32.1058 15.9287 31.8674 15.5313 31.6687 15.134C31.5098 14.8956 31.3111 14.6969 31.1522 14.6174C31.0727 14.5777 30.9932 14.4585 30.9932 14.3393V13.0678C30.9932 12.8293 31.033 12.7101 31.1522 12.7101C31.1919 12.7101 31.3111 12.7896 31.47 12.8691L33.9336 14.7366C34.1323 14.8956 34.2118 14.975 34.2118 15.0545C34.2118 15.134 34.1323 15.134 33.9734 15.134C33.7747 15.134 33.4568 15.0942 32.98 14.975C33.2581 15.5711 34.2118 16.6439 35.7217 18.1538C36.874 19.3062 38.0263 20.4187 39.1786 21.5711C41.4833 23.8757 42.5959 25.8624 42.5959 27.4916C42.5561 27.6903 42.5561 27.8492 42.5164 27.9684Z" fill="#124D73"/>
<path d="M42.1586 14.3394C42.1586 14.0612 42.0792 13.7831 41.9997 13.4255C41.8805 13.0679 41.801 12.8692 41.801 12.8295C41.801 12.75 41.8805 12.5116 41.9997 12.0745C42.1189 11.6374 42.1984 11.399 42.1984 11.3593C42.2381 11.2401 42.2778 11.2003 42.3573 11.1606C42.397 11.1606 42.4368 11.2401 42.5162 11.3195C42.6752 11.5977 42.9533 12.154 43.3507 12.9884C43.7878 13.942 44.0659 14.5381 44.1454 14.8559C44.1851 15.0546 44.2249 15.2136 44.2249 15.293C44.2249 15.3725 44.2249 15.4122 44.1454 15.4122C44.0262 15.4122 43.7878 15.2136 43.3904 14.7765C43.3507 14.697 43.3109 14.7765 43.3109 14.9354C43.3109 15.452 43.4699 17.1606 43.8275 20.0612C44.1851 22.9619 44.3441 24.9089 44.3441 25.942C44.3441 28.048 43.8672 29.7963 42.8739 31.187C42.0792 32.2599 41.205 33.0149 40.2513 33.4917C39.854 33.6506 39.1785 33.8493 38.2646 34.1274C37.311 34.3659 36.6355 34.5248 36.1586 34.5645C35.96 34.6043 35.8805 34.5645 35.8805 34.5248C35.8805 34.4851 35.96 34.4056 36.1586 34.2864C37.0328 33.8096 38.4235 32.9751 40.3706 31.7831C40.9666 31.3857 41.6023 30.8692 42.1984 30.1937C43.0328 29.2798 43.4699 28.5248 43.4699 27.9288C43.4699 26.6573 43.2712 24.1937 42.7944 20.5778C42.397 16.8824 42.1586 14.8162 42.1586 14.3394Z" fill="#124D73"/>
<path d="M46.0529 15.3724C46.0529 14.7367 45.9337 14.2599 45.7748 13.8625C45.7748 13.6241 45.9337 13.1075 46.2913 12.2731C46.3311 12.1539 46.3708 12.1142 46.4105 12.1142C46.4503 12.1142 46.49 12.1539 46.5297 12.2731C46.649 12.5115 46.8874 13.1075 47.245 14.1009C47.6423 15.134 47.8807 15.7698 47.9205 16.0082C47.9602 16.2069 47.9999 16.3261 47.9999 16.4453C47.9999 16.7234 47.7218 16.5645 47.1655 15.9287C47.086 15.8493 47.086 15.889 47.086 16.0479C47.086 16.0877 47.245 18.0744 47.5231 22.0082C47.8013 25.9022 47.9602 28.1274 47.9602 28.6042C47.9602 30.1141 47.7615 31.4254 47.2847 32.5777C47.1655 32.8161 47.086 32.9751 47.0463 33.0545C46.9668 33.2135 46.8874 33.2532 46.8874 33.134C46.8476 33.0148 46.8874 32.7764 46.8874 32.4188C46.9668 31.9022 47.0066 31.3062 47.0066 30.6307C47.0066 29.9949 46.8476 27.4519 46.5297 23.0016C46.2119 18.432 46.0529 15.889 46.0529 15.3724Z" fill="#124D73"/>
</svg>
