<svg width="49" height="49" viewBox="0 0 49 49" fill="none" xmlns="http://www.w3.org/2000/svg">
<path d="M45.3861 9.89922C45.3861 8.86789 45.2357 8.05142 44.9135 7.36387C44.9135 6.99861 45.1713 6.11768 45.7944 4.78555C45.8374 4.63514 45.9018 4.52771 45.9448 4.52771C46.0522 4.52771 46.0952 4.63514 46.2026 4.78555C46.353 5.15081 46.7183 6.11768 47.3414 7.72913C48.0074 9.42653 48.3727 10.4579 48.4801 10.8661C48.5876 11.1239 48.5876 11.3818 48.5876 11.4892C48.5876 11.9619 48.1793 11.7041 47.2554 10.6727C47.148 10.5223 47.105 10.6297 47.105 10.8876C47.105 10.995 47.3629 14.1964 47.8356 20.5778C48.3082 26.9162 48.5016 30.4829 48.5016 31.2993C48.5016 33.7273 48.1364 35.8973 47.4273 37.7451C47.2125 38.1104 47.1265 38.3682 47.0191 38.5616C46.8687 38.8194 46.8042 38.8194 46.7613 38.669C46.7183 38.4542 46.7613 38.0459 46.8042 37.4873C46.9117 36.6064 46.9546 35.6395 46.9546 34.5437C46.9546 33.5124 46.6968 29.3871 46.1811 22.1248C45.644 14.841 45.3861 10.7802 45.3861 9.89922Z" fill="#124D73"/>
<path d="M43.5058 26.5999C43.5058 29.649 42.9239 32.011 41.7824 33.7717C40.82 35.2103 39.6786 35.9833 38.4028 35.9833V32.8484C39.4324 32.8484 40.4395 32.4404 41.4019 31.6674C41.6705 31.4527 41.8272 30.5938 41.8272 29.1337C41.8272 28.2533 41.5586 24.7103 41.0662 18.5263C40.5738 12.3423 40.3724 8.69196 40.3724 7.55392C40.3724 6.56619 40.2157 5.75024 39.88 5.0846C39.88 4.71957 40.1933 3.8392 40.7976 2.46497C40.8424 2.31466 40.9095 2.25024 41.0214 2.25024C41.0662 2.25024 41.1333 2.29319 41.2453 2.50791C41.4019 2.87294 41.8272 3.8392 42.4762 5.44963C43.1253 7.14594 43.5058 8.17662 43.6624 8.54165C43.7072 8.84226 43.7743 9.09993 43.7743 9.20729C43.7743 9.67968 43.282 9.42202 42.3867 8.39134C42.2748 8.28398 42.23 8.3484 42.23 8.60606C42.23 8.64901 42.4538 11.4404 42.8791 16.8944C43.282 22.2625 43.5058 25.5048 43.5058 26.5999Z" fill="#124D73"/>
<path d="M38.4025 32.8116V35.9833C37.054 35.9833 36.0536 35.6215 35.3793 35.0041C34.8573 34.4933 34.5963 33.7695 34.5963 32.9181C34.5963 32.7052 34.5963 32.5136 34.5963 32.2582C33.2479 33.2374 32.1386 33.8972 31.3121 34.2591V31.4067C32.3561 31.0023 33.6611 30.2785 35.1836 29.3207C35.4011 29.1716 35.5533 29.1078 35.6621 29.1078C35.8143 29.1078 35.9231 29.2142 35.9231 29.4058C35.9231 29.5122 35.8796 29.7038 35.8143 30.0231C35.8143 30.3211 35.7708 30.534 35.7708 30.6404C35.7708 31.1513 35.9883 31.6196 36.4451 32.0666C36.9453 32.5562 37.6195 32.8542 38.4025 32.8116Z" fill="#124D73"/>
<path d="M28.5195 31.815C27.746 30.8267 27.0799 30.3755 26.4568 30.3755C25.5329 30.3755 25.1247 30.5903 25.1247 31.106C25.1247 31.7291 25.7478 32.0299 26.9725 32.0299C27.4452 32.0299 27.9609 31.9225 28.5195 31.815ZM30.131 35.5751C30.131 35.2743 30.0235 34.909 29.9161 34.5438C29.293 34.7586 28.3691 34.909 27.2303 34.909C24.7594 34.909 23.5133 34.0281 23.5133 32.3307C23.5133 31.0415 23.8785 29.9028 24.695 28.8714C25.4685 27.9905 26.285 27.5393 27.1659 27.5393C27.8319 27.5393 28.498 27.9475 29.2715 28.721C29.9376 29.4945 30.5607 30.3755 31.0763 31.4498C31.1193 31.4498 31.2267 31.4498 31.4416 31.3423V34.1785L31.3342 34.2859C31.3342 34.909 31.1838 35.6181 30.8615 36.5634C30.4962 37.7452 29.9376 38.7335 29.2715 39.507C27.7245 41.3548 26.0271 42.9663 24.1578 44.3629C21.3646 46.4255 19.0012 47.4998 16.9385 47.4998C15.1767 47.4998 13.8445 46.8338 12.9206 45.5446C12.1042 44.4703 11.6744 43.0093 11.6744 41.3119C11.6744 39.1418 12.1471 36.9287 13.0066 34.6082C13.2644 34.0926 13.3718 33.8777 13.4793 33.8777C13.5222 33.8777 13.5222 33.9207 13.5222 34.0281C13.5222 34.1785 13.4793 34.4363 13.4148 34.7586C12.7487 37.0361 12.4265 38.7335 12.4265 39.9153C12.4265 40.9896 12.6843 41.935 13.1999 42.7085C14.0164 43.7828 15.3056 44.3629 17.1104 44.3629C18.6574 44.3629 20.5052 43.6968 22.7398 42.3432C24.5016 41.2689 26.199 39.9797 27.8534 38.4327C29.3575 36.9717 30.131 36.0478 30.131 35.5751Z" fill="#124D73"/>
<path d="M5.37879 34.0926C7.54888 34.0926 10.2346 33.0612 13.4146 30.9986C15.4343 29.6664 16.9813 28.4632 18.0985 27.4319C18.3134 27.174 18.4638 26.9592 18.4638 26.7658C18.4638 26.5509 18.3134 26.2072 17.9911 25.6915C17.368 24.6602 16.4871 23.1562 15.4128 21.1579C15.1549 20.7497 14.8541 20.1696 14.5318 19.5035C14.4889 19.3961 14.5318 19.0308 14.6393 18.3218C14.7467 17.6557 14.7897 17.183 14.8541 16.9252C14.8971 16.6674 15.0045 16.5599 15.069 16.5599C15.1764 16.5599 15.2194 16.6029 15.3268 16.7103C15.9929 17.5268 16.7664 18.3648 17.6473 19.2457C18.0126 19.611 18.206 19.8043 18.206 19.9118C18.206 20.0192 18.163 20.0192 17.9911 20.0192C17.8837 20.0192 17.4754 19.9762 16.8523 19.7614C17.325 20.5778 18.0341 21.867 18.958 23.6718C19.2158 24.2305 19.3232 24.918 19.3232 25.6271C19.3232 26.551 19.1084 27.5393 18.7001 28.5706C18.3349 29.4516 17.9696 30.0747 17.6258 30.4184C16.5515 31.5572 14.9401 32.8464 12.8774 34.1785C9.89086 36.1337 7.41997 37.1221 5.44325 37.1221C3.63842 37.1221 2.30629 36.3056 1.46833 34.6942C0.845236 33.6199 0.587402 32.3737 0.587402 30.9341C0.587402 28.764 1.06009 26.508 1.91954 24.2305C2.1344 23.7148 2.2848 23.4999 2.39223 23.4999C2.4352 23.4999 2.4352 23.5429 2.4352 23.6503C2.4352 23.8007 2.39223 24.0156 2.2848 24.3809C1.6617 26.5939 1.3609 28.3558 1.3609 29.4945C1.3609 30.5259 1.6617 31.5142 2.34926 32.4381C3.14424 33.5124 4.17557 34.0926 5.37879 34.0926Z" fill="#124D73"/>
<path d="M32.795 23.0488C32.7521 23.0058 32.7521 22.9413 32.795 22.8339L33.7834 20.7713C33.8264 20.6638 33.9338 20.6208 33.9983 20.6208C34.1057 20.6208 34.5569 20.8787 35.3304 21.3943C36.1469 21.953 36.5766 22.2753 36.5766 22.3827C36.5766 22.748 36.2113 23.457 35.5023 24.5958C35.3949 24.7462 35.3519 24.8106 35.2445 24.7462C34.4495 24.1231 33.633 23.5644 32.795 23.0488Z" fill="#124D73"/>
<path d="M37.0921 15.2063C37.0921 15.6145 36.9847 16.0872 36.7913 16.4955C36.5335 17.0541 36.2327 17.3764 35.8674 17.3764C35.2443 17.3764 34.8361 16.9681 34.5782 16.1302C34.2774 17.1615 33.7618 17.7202 32.9883 17.7202C32.7304 17.7202 32.4726 17.5698 32.2577 17.2475C31.9999 16.9467 31.8925 16.474 31.8925 15.9583V14.6262C31.8925 14.5187 31.7851 14.4758 31.6776 14.4113C31.5272 14.3683 31.4628 14.2609 31.4628 14.1105C31.4628 13.8097 31.5702 13.5519 31.7636 13.294C31.9784 13.0362 32.1288 12.9288 32.2363 12.9288C32.3867 12.9288 32.4941 13.1866 32.4941 13.7452C32.4941 14.046 32.4511 14.3039 32.4511 14.5187C32.4081 14.7336 32.4082 14.884 32.4082 15.0344C32.4082 15.3352 32.4511 15.6575 32.5586 15.9153C32.709 16.2161 32.9238 16.431 33.1172 16.431C33.418 16.431 33.6758 16.2806 33.9337 16.0228C34.1915 15.7649 34.3419 15.4641 34.3419 15.0989C34.3419 14.884 34.2345 14.5832 34.127 14.0675C33.9766 13.5948 33.9122 13.294 33.9122 13.1866C33.9122 13.0792 33.9551 12.9288 34.0626 12.6709C34.17 12.4561 34.2774 12.3701 34.3204 12.3701C34.4278 12.3701 34.5353 12.6709 34.6857 13.294C34.8361 13.9601 34.9435 14.4328 34.9435 14.7336C34.9435 15.6145 35.2443 16.0657 35.9319 16.0657C36.2327 16.0657 36.4475 15.9153 36.4905 15.593C35.9319 14.5617 35.6096 13.7882 35.6096 13.2296C35.6096 12.9288 35.6525 12.6709 35.8674 12.4131C35.9748 12.2627 36.0178 12.1553 36.0823 12.1553C36.1252 12.1553 36.1897 12.2627 36.1897 12.4561C36.2327 12.7139 36.2971 12.9717 36.3401 13.1866C36.3401 13.1866 36.4905 13.5519 36.7483 14.2609C36.9847 14.6906 37.0921 15.0129 37.0921 15.2063Z" fill="#124D73"/>
<path d="M34.965 6.03183C35.0724 5.73103 35.0724 5.40874 35.008 5.10793C34.965 4.80713 34.7931 4.63524 34.5353 4.63524C34.4278 4.63524 34.2774 4.67821 34.0626 4.78564C33.8477 4.89307 33.7618 5.0005 33.7618 5.08645C33.7833 5.36577 34.1915 5.66657 34.965 6.03183ZM34.3419 7.36397C33.3535 6.8483 32.9023 6.33264 32.9023 5.774C32.9023 5.10793 33.2031 4.48484 33.8262 3.96917C34.4493 3.41054 34.965 3.19567 35.3732 3.34608C35.7385 3.45351 35.8889 3.81877 35.8889 4.42038C35.8889 4.97902 35.7815 5.60211 35.5236 6.33264C36.0393 6.59047 36.3401 6.8483 36.4475 7.06316C36.4475 7.321 36.2327 7.79369 35.7815 8.3953C35.674 8.18044 35.3732 7.92261 34.9005 7.66477C34.3419 8.43827 33.6543 9.10434 32.8379 9.72743C31.8495 10.3935 30.9901 10.9736 30.2166 11.2744C30.0017 11.3819 29.0778 11.7471 27.4234 12.3487C27.1656 12.4562 26.9507 12.4991 26.9077 12.4991C26.8647 12.4991 26.8647 12.4562 26.8647 12.4562C26.8647 12.4132 26.9722 12.2413 27.273 12.0909C28.5192 11.3174 29.7439 10.5869 31.033 9.87784C32.5371 8.97542 33.6329 8.13747 34.3419 7.36397Z" fill="#124D73"/>
<path d="M11.8244 15.3568C11.8244 15.3138 11.8674 15.2493 11.8674 15.2493C11.9103 15.2064 11.9103 15.2064 11.9103 15.2493C11.9533 15.2923 11.9533 15.3568 11.9103 15.3998C11.6525 16.9467 11.1798 17.7202 10.5137 17.7202C9.84768 17.7202 9.52539 17.1616 9.52539 16.0228C9.52539 14.6263 9.89065 13.1437 10.7071 11.6397C10.922 11.2744 11.0079 11.0811 11.0724 11.0811C11.0724 11.124 11.0294 11.3389 10.922 11.7042C10.4063 13.2941 10.1485 14.3899 10.1485 15.056C10.1485 15.8724 10.3633 16.3451 10.8146 16.3451C11.1368 16.3451 11.4591 15.9799 11.8244 15.3568Z" fill="#124D73"/>
</svg>
