<svg width="49" height="49" viewBox="0 0 49 49" fill="none" xmlns="http://www.w3.org/2000/svg">
<path d="M23.5548 18.4977C23.554 17.8632 23.4345 17.3478 23.2357 16.9515C23.2354 16.7136 23.3934 16.1582 23.7889 15.3249C23.8284 15.2059 23.868 15.1662 23.9077 15.1662C23.9473 15.1661 23.987 15.2057 24.0268 15.3246C24.1461 15.5624 24.3848 16.157 24.7429 17.1876C25.1407 18.2182 25.3795 18.8921 25.4591 19.1299C25.499 19.3281 25.5388 19.447 25.5389 19.566C25.5393 19.8436 25.2615 19.6853 24.7055 19.0515C24.6261 18.9723 24.6262 19.0119 24.6264 19.1706C24.6264 19.2102 24.7875 21.2325 25.07 25.2374C25.3524 29.2027 25.5137 31.4629 25.5143 31.9388C25.5162 33.4854 25.2799 34.834 24.8451 35.9846C24.7264 36.2226 24.6473 36.3814 24.6078 36.5004C24.5287 36.6591 24.4494 36.6988 24.4492 36.5799C24.4094 36.461 24.4488 36.223 24.4483 35.8264C24.527 35.3108 24.5659 34.6762 24.5651 34.0021C24.5643 33.3676 24.4025 30.7901 24.0798 26.23C23.7172 21.5907 23.5555 19.0529 23.5548 18.4977Z" fill="#124D73"/>
<path d="M26.3457 30.9067C28.1691 30.2303 30.1114 29.5538 32.1726 28.7978C32.2916 28.758 32.3312 28.758 32.3312 28.758C32.3709 28.7976 32.3313 28.8373 32.3314 28.9166C32.2128 29.1944 32.1337 29.3531 32.0544 29.4325C30.3499 30.0294 28.3284 30.825 26.0295 31.7795C26.0689 31.5416 26.1875 31.2638 26.3457 30.9067Z" fill="#124D73"/>
<path d="M27.388 40.2247C28.0612 39.4704 28.9724 38.7555 30.0821 38.1593C30.7558 37.8015 31.8656 37.2847 33.451 36.6086L33.4532 38.3931C32.4623 38.8305 31.7092 39.1487 31.194 39.3873C30.2031 39.8247 29.5294 40.2221 29.1729 40.5001C28.4993 41.0164 27.5092 42.0487 26.242 43.5175C25.4896 44.3909 24.697 44.8281 23.9435 44.829C23.2693 44.8298 22.7138 44.5529 22.2372 43.9586C21.721 43.3644 21.4821 42.6112 21.481 41.6991C21.4795 40.4698 21.9931 38.9226 22.9821 36.9386C23.1009 36.7401 23.18 36.6211 23.2197 36.621C23.2594 36.621 23.2594 36.6606 23.2594 36.7003C23.2597 36.8986 23.0622 37.573 22.6275 38.7632C22.1926 39.9137 21.9955 40.8657 21.9963 41.5399C21.997 42.0554 22.1165 42.4915 22.3547 42.7688C22.5931 43.1254 22.9502 43.2836 23.4261 43.283C24.2192 43.2821 25.0515 42.8845 25.8833 42.0507C26.3584 41.4553 26.8732 40.8598 27.388 40.2247Z" fill="#124D73"/>
<path d="M33.8711 23.0853C33.9502 22.8869 33.95 22.7283 33.9101 22.53C33.8702 22.3318 33.7907 22.2129 33.6321 22.2131C33.5528 22.2132 33.4735 22.253 33.3547 22.3324C33.2358 22.4119 33.1566 22.4913 33.1566 22.531C33.1568 22.6896 33.395 22.8876 33.8711 23.0853ZM33.5153 23.9582C32.92 23.6416 32.6024 23.3248 32.602 22.9679C32.6014 22.5316 32.7993 22.1745 33.1954 21.8171C33.5915 21.4597 33.9086 21.3404 34.1467 21.4194C34.3451 21.4985 34.4643 21.7362 34.4647 22.0932C34.4652 22.4501 34.3863 22.8467 34.2679 23.2831C34.5854 23.481 34.7442 23.6394 34.8237 23.7583C34.8239 23.9169 34.7052 24.1946 34.4281 24.5915C34.3487 24.4727 34.1502 24.3143 33.8724 24.156C33.5161 24.6323 33.1201 25.069 32.5653 25.4266C31.971 25.8635 31.4162 26.2211 30.9406 26.42C30.8217 26.4598 30.2668 26.6984 29.1965 27.0566C29.038 27.1361 28.919 27.1362 28.8397 27.1363C28.8 27.1364 28.8 27.1364 28.8 27.1364C28.8 27.0967 28.8792 27.0173 29.0773 26.8981C29.8699 26.4213 30.6228 25.9841 31.4154 25.5073C32.3664 24.951 33.0796 24.4346 33.5153 23.9582Z" fill="#124D73"/>
<path d="M39.7208 40.1304C39.6811 40.0908 39.681 40.0511 39.7206 40.0114L40.3535 38.702C40.3931 38.6226 40.4327 38.5829 40.4724 38.5829C40.5517 38.5828 40.8295 38.741 41.3058 39.0974C41.8217 39.4537 42.0599 39.6516 42.06 39.6913C42.0602 39.8896 41.8228 40.3657 41.3875 41.0801C41.3479 41.1595 41.2687 41.1992 41.229 41.1596C40.7924 40.8429 40.2764 40.4866 39.7208 40.1304Z" fill="#124D73"/>
<path d="M46.0571 32.6276L45.5829 33.9765C45.5433 34.0955 45.3849 34.2147 45.0677 34.2944C43.8387 34.6131 41.8567 35.25 39.1612 36.2051C36.6244 37.1202 34.6821 37.8364 33.3344 38.3932L33.3323 36.6087C34.9177 35.9326 36.8996 35.2164 39.3178 34.4996L30.911 34.7478C30.5937 34.7482 30.4747 34.669 30.5537 34.4706C30.7118 34.0342 30.949 33.4391 31.2655 32.7646L34.6759 32.7604L45.5411 32.2713C45.7791 32.271 45.9377 32.2708 45.9774 32.3105C46.0568 32.4293 46.0569 32.5086 46.0571 32.6276Z" fill="#124D73"/>
<path d="M35.5679 16.6589C35.647 16.4605 35.6468 16.3019 35.6069 16.1037C35.567 15.9054 35.4875 15.7866 35.3289 15.7867C35.2496 15.7868 35.1703 15.8266 35.0515 15.9061C34.9326 15.9855 34.8534 16.0649 34.8534 16.1046C34.8536 16.2632 35.0918 16.4612 35.5679 16.6589ZM35.2121 17.5318C34.6168 17.2152 34.2992 16.8984 34.2988 16.5415C34.2982 16.1052 34.4961 15.7481 34.8922 15.3907C35.2883 15.0333 35.6055 14.914 35.8435 14.993C36.0419 15.0721 36.1611 15.3099 36.1616 15.6668C36.162 16.0237 36.0832 16.4203 35.9647 16.8567C36.2822 17.0546 36.441 17.213 36.5205 17.3319C36.5207 17.4905 36.402 17.7683 36.1249 18.1652C36.0455 18.0463 35.847 17.8879 35.5692 17.7296C35.2129 18.2059 34.8169 18.6426 34.2621 19.0002C33.6678 19.4371 33.113 19.7947 32.6374 19.9936C32.5185 20.0334 31.9636 20.272 30.8933 20.6302C30.7348 20.7097 30.6158 20.7099 30.5365 20.7099C30.4968 20.71 30.4968 20.71 30.4968 20.71C30.4968 20.6703 30.576 20.5909 30.7741 20.4717C31.5667 19.9949 32.3196 19.5577 33.1122 19.0809C34.0632 18.5246 34.7764 18.0082 35.2121 17.5318Z" fill="#124D73"/>
<path d="M45.773 27.3537L45.2592 28.7423C45.2197 28.8613 45.1404 28.9407 45.0611 28.9408C44.149 28.9419 40.7005 30.2151 34.6362 32.7605L31.2257 32.7646C31.4633 32.4471 32.5729 31.8509 34.5944 31.0156C36.378 30.26 38.4392 29.4644 40.7779 28.6684L33.6392 28.1615C33.2029 28.1224 33.0442 28.0433 33.0837 27.9243C33.1626 27.6069 33.3603 27.1308 33.6372 26.5356L37.008 26.5315L45.5744 27.0763C45.7726 27.0364 45.8521 27.1553 45.773 27.3537Z" fill="#124D73"/>
<path d="M40.0337 3.72553C40.0339 3.88415 39.8756 4.2016 39.5193 4.6779C39.1234 5.23357 38.7273 5.63062 38.3708 5.90865C38.133 6.06756 37.3799 6.34607 36.1113 6.66486C35.8734 6.70481 35.7545 6.74461 35.7545 6.74461C35.7941 6.7049 35.8733 6.66515 36.0318 6.54599C36.1903 6.42683 36.6658 6.14866 37.4188 5.75118C38.1322 5.35375 38.5681 5.11528 38.6869 4.99617C38.7265 4.95646 38.7265 4.95646 38.7265 4.91681C38.7263 4.75818 38.0917 4.67964 36.783 4.68123C36.783 4.68123 36.5451 4.68152 36.0692 4.6821C35.8313 4.68239 35.6727 4.68258 35.6726 4.64293C35.6726 4.60327 35.7122 4.56357 35.7913 4.4445L36.2663 3.69045C36.385 3.45237 36.6624 3.33307 37.0192 3.25332C37.1381 3.21352 37.4157 3.21318 37.8916 3.2126C39.2796 3.21091 40.0332 3.36862 40.0337 3.72553Z" fill="#124D73"/>
<path d="M37.0485 27.3643L33.5578 26.5358C33.637 26.4564 34.073 26.2972 34.9055 26.0582C36.0551 25.7396 36.9669 25.4609 37.6803 25.1428C38.0371 25.0234 38.2351 24.8249 38.2745 24.5869C38.314 24.4282 38.313 23.6747 38.3113 22.2471C38.3106 21.6919 38.1894 19.8282 37.9874 16.7353C37.7457 13.6424 37.6641 11.8183 37.6635 11.2631C37.6627 10.6286 37.5431 10.1132 37.3443 9.7169C37.344 9.47896 37.5416 8.92354 37.8975 8.09032C37.937 7.9713 37.9766 7.9316 38.0163 7.93155C38.056 7.9315 38.0957 7.97111 38.1751 8.08998C38.2547 8.32782 38.4934 8.92238 38.8912 9.95296C39.289 10.9835 39.5278 11.6574 39.5677 11.8953C39.6076 12.0935 39.6474 12.2124 39.6476 12.3314C39.6479 12.609 39.3701 12.4507 38.8142 11.8169C38.7347 11.7377 38.7348 11.7773 38.735 11.936C38.735 11.9756 38.8159 13.2842 39.0174 15.8616C39.2188 18.439 39.3001 20.0648 39.3008 20.6993C39.303 22.4442 39.2251 23.6736 39.0277 24.3877C38.7517 25.657 38.0787 26.6492 37.0485 27.3643Z" fill="#124D73"/>
<path d="M46.0441 22.0791C46.0433 21.4446 45.9237 20.9292 45.7249 20.5329C45.7247 20.2949 45.8826 19.7396 46.2782 18.9063C46.3177 18.7873 46.3573 18.7476 46.3969 18.7475C46.4366 18.7475 46.4763 18.7871 46.5161 18.906C46.6354 19.1438 46.874 19.7384 47.2322 20.769C47.63 21.7996 47.8687 22.4734 47.9483 22.7113C47.9882 22.9095 48.028 23.0284 48.0282 23.1474C48.0285 23.425 47.7507 23.2667 47.1948 22.6329C47.1154 22.5537 47.1154 22.5933 47.1156 22.7519C47.1157 22.7916 47.2767 24.8139 47.5592 28.8188C47.8416 32.7841 48.003 35.0443 48.0036 35.5202C48.0055 37.0668 47.7692 38.4154 47.3343 39.5659C47.2157 39.804 47.1365 39.9627 47.097 40.0817C47.0179 40.2405 46.9386 40.2802 46.9385 40.1613C46.8987 40.0423 46.9381 39.8043 46.9376 39.4078C47.0163 38.8922 47.0552 38.2576 47.0543 37.5835C47.0536 36.949 46.8918 34.3715 46.569 29.8114C46.2065 25.1721 46.0447 22.6343 46.0441 22.0791Z" fill="#124D73"/>
<path d="M6.533 42.7139C8.7543 42.7112 11.2562 42.2302 14.1231 41.355C16.4138 40.6071 17.9033 40.0008 18.5775 39.4939C18.6478 39.4657 18.6477 39.3954 18.6476 39.297C18.6473 39.0298 18.2387 38.3133 17.3657 37.2459C17.1968 37.0493 17.1262 36.8104 17.1962 36.5713C17.294 36.0932 17.4342 35.6994 17.6024 35.3617C17.7006 35.1226 17.7988 34.996 17.8691 34.9959C17.8972 34.9959 18.0379 35.0941 18.2069 35.3048C18.4462 35.5435 18.6856 35.9087 18.9113 36.4567C19.2776 37.103 19.447 37.6652 19.4475 38.1432C19.4495 39.7318 18.9448 40.9134 17.9053 41.6176C17.2311 42.1245 15.7135 42.7309 13.3806 43.4507C10.4434 44.3681 7.91332 44.807 5.69202 44.8097C3.52696 44.8124 2.0079 44.2378 1.03646 43.1002C0.360695 42.3278 0.0501693 41.3159 0.048682 40.0928C0.0471265 38.8135 0.354985 37.6321 0.958165 36.5207C1.15458 36.1831 1.29493 35.9861 1.36522 35.986C1.36522 35.986 1.39337 36.0141 1.39346 36.0844C1.39358 36.1828 1.32354 36.3938 1.22549 36.6891C1.0854 37.097 0.917133 37.4627 0.791099 37.8706C0.623008 38.3769 0.553364 38.9112 0.554065 39.4877C0.554971 40.2328 0.893152 40.865 1.63897 41.4405C2.68035 42.2828 4.31171 42.7166 6.533 42.7139Z" fill="#124D73"/>
<path d="M9.36055 32.4616L9.89343 31.3503C9.92147 31.28 9.96361 31.2518 10.0339 31.2517C10.1042 31.2516 10.3715 31.42 10.9062 31.7849C11.4127 32.1217 11.6801 32.3182 11.6802 32.3885C11.6805 32.6275 11.4421 33.1339 11.0072 33.8796C10.937 33.9781 10.8667 33.9781 10.8104 33.9501C10.3742 33.6132 9.86766 33.2764 9.2908 32.9116C9.09447 33.3195 8.92621 33.6853 8.71571 33.9948C8.68771 34.0933 8.61746 34.1355 8.54712 34.0934C8.0405 33.6863 7.50583 33.3215 6.95712 32.9847C6.92897 32.9566 6.92892 32.9145 6.95695 32.8441L7.60201 31.4937C7.63005 31.4234 7.70025 31.353 7.74243 31.3529C7.81273 31.3528 8.05193 31.5213 8.48813 31.83C8.91022 32.0966 9.21979 32.3212 9.36055 32.4616Z" fill="#124D73"/>
</svg>
