<svg width="49" height="48" viewBox="0 0 49 48" fill="none" xmlns="http://www.w3.org/2000/svg">
<path d="M8.8947 24.6049L9.51635 23.3502C9.56075 23.2606 9.60515 23.2158 9.64956 23.2158C9.73836 23.2158 10.0936 23.4398 10.6708 23.8431C11.2925 24.2464 11.6033 24.5153 11.6033 24.5601C11.6033 24.8289 11.3369 25.3666 10.804 26.2628C10.7596 26.3524 10.6708 26.3972 10.582 26.3524C10.0492 25.9492 9.47194 25.5459 8.80589 25.1426C8.58387 25.6355 8.36185 26.0836 8.13983 26.4421C8.09543 26.5317 8.00662 26.5765 7.96222 26.5317C7.38497 26.0836 6.76332 25.6355 6.09727 25.2322C6.05286 25.2322 6.05286 25.1874 6.09727 25.0978L6.89653 23.5295C6.94094 23.4398 6.98534 23.395 7.02974 23.395C7.07415 23.395 7.38497 23.5743 7.87341 23.8879C8.40626 24.1568 8.76149 24.4256 8.8947 24.6049Z" fill="#124D73"/>
<path d="M15.1556 36.793C14.3563 36.793 13.7791 36.7482 13.4238 36.6586C12.669 36.4346 12.0029 35.9417 11.4701 35.1351C11.1593 34.5974 10.8484 34.0597 10.5376 33.522C10.2712 33.0739 10.0048 32.8498 9.69393 32.8498C8.80586 32.8498 7.87338 33.6116 6.8521 35.1351C6.67449 35.404 6.36366 36.1209 5.91963 37.2411C5.47559 38.3614 5.07596 39.2127 4.72073 39.7504C4.18789 40.5122 3.65504 40.9155 3.0778 40.9155C2.18972 40.9155 1.47926 40.1985 0.857614 38.8543C0.324771 37.6444 0.0583496 36.3898 0.0583496 35.0903C0.0583496 33.4772 0.19156 32.2225 0.502386 31.2815C0.635597 30.9679 0.724403 30.7886 0.768807 30.7886C0.857614 30.7886 0.902018 31.0127 0.857614 31.416C0.724403 32.4018 0.680001 33.2531 0.680001 33.9701C0.680001 37.3308 1.43486 38.9887 2.98899 38.9887C3.61064 38.9887 4.18789 38.4958 4.72073 37.51C5.25357 36.345 5.78642 35.1799 6.31926 34.0149C6.8077 33.0291 7.38495 32.2225 8.051 31.5504C8.76146 30.8334 9.42751 30.475 10.0048 30.475C10.4488 30.475 10.8484 30.7438 11.2037 31.3263C11.5145 31.8192 11.8253 32.3121 12.0917 32.805C12.5358 33.4324 12.9798 33.8356 13.4238 34.0597C13.8679 34.2837 14.4451 34.4182 15.2 34.4182L15.1556 36.793Z" fill="#124D73"/>
<path d="M11.6477 20.2585C13.8679 19.4519 16.2213 18.6006 18.7079 17.6596C18.8411 17.6148 18.9299 17.6148 18.9299 17.6148C18.9743 17.6596 18.9299 17.7044 18.9299 17.8388C18.7967 18.1973 18.6635 18.3765 18.5746 18.4661C16.4877 19.2279 14.0455 20.1689 11.248 21.3339C11.2925 21.0203 11.4701 20.6618 11.6477 20.2585Z" fill="#124D73"/>
<path d="M29.764 30.7888L28.9204 32.4915C28.8316 32.6707 28.7427 32.7604 28.6095 32.7604C25.9453 32.7604 23.6363 33.1636 21.6826 33.9702C21.2385 34.1494 19.9952 34.7768 17.9527 35.8522C16.6206 36.5243 15.6437 36.8828 15.0664 36.8828V34.4631C16.2653 34.4631 18.2191 33.7014 21.0165 32.133C18.5299 31.7298 16.0877 31.4161 13.6455 31.2369C13.1571 31.192 12.9351 31.1472 12.9351 31.0576C12.9351 31.0576 12.9351 31.0128 12.9351 30.968C13.1571 30.5647 13.4235 29.9822 13.7787 29.3101H17.8639C18.3967 29.3997 19.8176 29.6237 22.0822 29.9374C25.0128 30.2959 27.3218 30.4751 29.098 30.4751C29.542 30.4751 29.764 30.5199 29.764 30.6095C29.8084 30.6095 29.8084 30.6991 29.764 30.7888Z" fill="#124D73"/>
<path d="M21.461 39.1679C23.6812 38.3613 26.0346 37.5099 28.5212 36.5689C28.6544 36.5241 28.7432 36.5241 28.7432 36.5241C28.7876 36.5689 28.7432 36.6137 28.7432 36.7482C28.61 37.1066 28.4768 37.2859 28.388 37.3755C26.301 38.1372 23.8588 39.0782 21.0614 40.2433C21.1502 39.9296 21.2834 39.5711 21.461 39.1679Z" fill="#124D73"/>
<path d="M23.9474 15.3296L24.5691 14.0749C24.6135 13.9853 24.6579 13.9405 24.7023 13.9405C24.7911 13.9405 25.1463 14.1645 25.7236 14.5678C26.3452 14.9711 26.6561 15.24 26.6561 15.2848C26.6561 15.5536 26.3896 16.0913 25.8568 16.9875C25.8124 17.0771 25.7236 17.1219 25.6348 17.0771C25.1019 16.6738 24.5247 16.2706 23.8586 15.8673C23.6366 16.3602 23.4146 16.8083 23.1926 17.1667C23.1482 17.2564 23.0594 17.3012 23.015 17.2564C22.4377 16.8083 21.8161 16.3602 21.15 15.9569C21.1056 15.9569 21.1056 15.9121 21.15 15.8225L21.9493 14.2542C21.9937 14.1645 22.0381 14.1197 22.0825 14.1197C22.1269 14.1197 22.4377 14.299 22.9261 14.6126C23.5034 14.9263 23.8142 15.1951 23.9474 15.3296Z" fill="#124D73"/>
<path d="M25.5461 22.3644C25.5461 22.9469 25.5017 23.5742 25.3685 24.2016C25.2797 24.6497 25.1465 24.8737 25.0577 24.8737C24.9245 24.8737 24.8356 24.6049 24.8356 24.112C24.8356 23.4846 24.7024 22.9469 24.436 22.4988C24.214 22.0955 23.9476 21.8715 23.6811 21.8715C23.2815 21.8715 22.7043 22.5885 21.9494 23.9327C20.9725 25.7699 20.1733 27.0245 19.596 27.6519C18.8412 28.4584 18.0419 29.1754 17.1538 29.8027L13.9124 29.2202C14.0456 29.041 14.3564 28.8169 14.9336 28.5481C15.7329 28.1448 16.399 27.7863 16.8874 27.4726C17.8199 26.8453 18.7968 26.0836 19.6848 25.1426C20.2177 24.6049 21.0613 23.395 22.2158 21.5578C23.1039 20.124 23.77 19.407 24.1696 19.407C24.4804 19.407 24.7468 19.6311 25.0577 20.0791C25.4129 20.6617 25.5461 21.4234 25.5461 22.3644Z" fill="#124D73"/>
<path d="M29.8977 31.9089C30.0754 33.0292 30.475 33.7909 31.0078 34.1494C31.2743 34.3286 31.7183 34.4182 32.2955 34.4182V36.8379C31.4519 36.8379 30.7414 36.6587 30.2974 36.3002C29.6313 35.8073 29.1873 34.8663 28.9209 33.4773C28.7876 32.6259 28.6544 30.1166 28.5212 25.9493C28.388 21.4236 28.2548 18.6455 28.166 17.6149C27.9884 15.9569 27.6776 14.3886 27.2335 12.9099C27.2335 12.5066 27.4111 11.9241 27.722 11.1623C27.7664 10.9831 27.8552 10.8487 27.8996 10.8487C27.944 10.8487 28.0328 10.9383 28.0772 11.0727C28.5656 12.1033 28.9653 13.7613 29.2317 16.181C29.4093 17.6597 29.5425 20.6171 29.6313 25.0532C29.7645 29.2204 29.8533 31.5057 29.8977 31.9089Z" fill="#124D73"/>
<path d="M34.9592 24.4258C34.9148 24.381 34.9148 24.3362 34.9592 24.2914L35.7585 22.7231C35.8029 22.6335 35.8473 22.5886 35.8917 22.5886C35.9805 22.5886 36.2913 22.8127 36.913 23.216C37.5346 23.6193 37.801 23.8881 37.801 23.9777C37.801 24.2466 37.5346 24.7843 37.0018 25.6357C36.9574 25.7253 36.8686 25.7701 36.8242 25.7253C36.2469 25.2324 35.6253 24.8291 34.9592 24.4258Z" fill="#124D73"/>
<path d="M39.6222 36.3899C37.624 36.3899 36.1143 36.121 35.1818 35.5385C34.0717 36.3899 33.0504 36.7931 32.1624 36.7931V34.3735C32.784 34.3735 33.3168 34.239 33.8497 34.015C33.6277 33.5669 33.4945 32.9396 33.4945 32.133C33.4945 31.0128 33.8941 29.8926 34.7378 28.7275C35.4926 27.6969 36.1587 27.1592 36.6915 27.1592C37.18 27.1592 37.5796 27.5625 37.8904 28.2794C38.1124 28.8619 38.2012 29.4893 38.2012 30.1166C38.2012 31.6849 37.846 32.8948 37.18 33.7013C37.624 33.8357 38.4233 33.9254 39.5778 33.9254V36.3899H39.6222ZM37.3132 31.7745C37.3132 31.4161 37.18 30.968 36.9579 30.4303C36.6915 29.8029 36.4695 29.4893 36.2919 29.4893C36.0255 29.4893 35.6702 29.7581 35.1374 30.2958C34.649 30.8335 34.2937 31.3264 34.1161 31.7745C34.1605 31.9986 34.3825 32.2674 34.649 32.5811C34.9598 32.8948 35.2262 33.074 35.537 33.2084C36.4251 32.7155 37.0023 32.2674 37.3132 31.7745Z" fill="#124D73"/>
<path d="M42.3306 7.71185C42.3306 7.89109 42.1086 8.29437 41.709 8.87689C41.2205 9.54903 40.7321 10.0867 40.288 10.4004C40.0216 10.5796 39.0891 10.8933 37.535 11.3414C37.2242 11.3862 37.091 11.431 37.091 11.431C37.1354 11.3862 37.2242 11.3414 37.4018 11.1621C37.5794 10.9829 38.1567 10.6693 39.0891 10.2212C39.9772 9.72826 40.4657 9.4146 40.5989 9.32498C40.6433 9.28017 40.6433 9.28017 40.6433 9.23536C40.6433 9.05612 39.844 8.9217 38.2899 8.9217C38.2899 8.9217 37.979 8.9217 37.4018 8.9217C37.091 8.9217 36.9578 8.9217 36.9578 8.87689C36.9578 8.83208 37.0022 8.74246 37.091 8.60803L37.6682 7.66704C37.8458 7.39819 38.1123 7.21895 38.5563 7.12934C38.6895 7.08453 39.0447 7.08453 39.622 7.08453C41.4425 7.08453 42.3306 7.30857 42.3306 7.71185Z" fill="#124D73"/>
<path d="M43.3516 29.2204C43.3516 31.5504 42.952 33.3876 42.1083 34.7319C41.3978 35.8521 40.5986 36.4346 39.6217 36.4346V34.0149C40.3766 34.0149 41.1314 33.7013 41.8419 33.1187C42.0639 32.9395 42.1527 32.3122 42.1527 31.1919C42.1527 30.5198 41.9751 27.7865 41.6643 23.0367C41.309 18.2421 41.1314 15.464 41.1314 14.6574C41.1314 13.8957 40.9982 13.2683 40.7762 12.7306C40.7762 12.417 40.9982 11.7448 41.4422 10.7142C41.4867 10.6246 41.5311 10.535 41.5755 10.535C41.6199 10.535 41.6643 10.5798 41.7531 10.7142C41.8863 10.9831 42.1971 11.7448 42.6411 12.9995C43.1296 14.2989 43.4404 15.0607 43.4848 15.3744C43.5292 15.5984 43.5736 15.7776 43.5736 15.8673C43.5736 16.2257 43.2184 16.0465 42.5523 15.2399C42.4635 15.1055 42.4191 15.1503 42.4191 15.3744C42.4191 15.4192 42.5523 17.5252 42.8632 21.7372C43.174 25.9045 43.3516 28.4138 43.3516 29.2204Z" fill="#124D73"/>
<path d="M45.6162 15.0606C45.6162 14.2988 45.483 13.6715 45.261 13.1786C45.261 12.9097 45.483 12.2376 45.927 11.1622C45.9714 11.0278 46.0603 10.9829 46.0603 10.9829C46.1047 10.9829 46.1491 11.0278 46.2379 11.1622C46.3711 11.431 46.6819 12.1928 47.1259 13.4474C47.6144 14.7469 47.9252 15.5087 47.9696 15.8223C48.014 16.0464 48.0584 16.2256 48.0584 16.36C48.0584 16.7185 47.7032 16.4945 47.0371 15.7327C46.9483 15.5983 46.9039 15.6879 46.9039 15.8671C46.9039 15.9119 47.0815 18.4212 47.4368 23.3054C47.792 28.1896 47.9696 30.923 47.9696 31.5055C47.9696 33.3875 47.7032 35.0454 47.1259 36.4345C46.9927 36.7033 46.9039 36.9274 46.8151 37.0618C46.6819 37.2858 46.6375 37.2858 46.6375 37.1514C46.5931 37.017 46.6375 36.7033 46.6375 36.2552C46.7263 35.6279 46.7707 34.8662 46.7707 34.0148C46.7707 33.253 46.5487 30.0716 46.1935 24.4705C45.8382 18.8693 45.6162 15.7327 45.6162 15.0606Z" fill="#124D73"/>
</svg>
