<svg width="49" height="49" viewBox="0 0 49 49" fill="none" xmlns="http://www.w3.org/2000/svg">
<path d="M0.587402 38.375C0.587402 36.3731 0.905884 34.6897 1.58834 33.3248C1.86133 32.7788 1.99782 32.5513 2.13431 32.5513C2.17981 32.5513 2.17981 32.5968 2.17981 32.6878C2.17981 32.8698 2.13431 33.1428 1.99782 33.5068C1.45185 34.9172 1.17887 36.2366 1.17887 37.4195C1.17887 38.6935 1.45185 39.7854 1.99782 40.6953C2.81677 42.1058 4.27269 42.8337 6.27457 42.8337C8.36745 42.8337 10.8698 41.8783 13.7816 40.0129C16.011 38.557 17.6944 37.1465 18.7864 35.8271C19.1048 35.4176 19.2868 34.6442 19.3778 33.4613C19.3778 33.3703 19.3778 32.4603 19.3778 30.8224C19.3778 26.3182 19.1503 22.2689 18.6954 18.7201C18.5589 17.4917 18.3314 15.7628 17.9219 13.5334C18.1494 12.214 18.2859 11.4405 18.3769 11.213C18.4679 11.0311 18.5134 10.9401 18.5589 10.9401C18.6044 10.9401 18.6954 11.0311 18.7409 11.213C19.3323 13.1239 19.8328 15.5808 20.1968 18.5381C20.4243 20.4945 20.6062 23.5883 20.7427 27.7741C20.8337 31.5049 21.0157 33.8252 21.1977 34.7352C21.4252 35.7816 21.7437 36.5096 22.1987 36.8736C22.5171 37.1011 22.9721 37.2375 23.5636 37.2375V39.9219C22.1987 39.9219 21.2432 39.3759 20.6517 38.3295C20.2878 37.647 20.0148 36.5096 19.8328 34.9172C19.5598 36.5551 19.2868 37.556 19.0593 37.9655C18.7409 38.466 17.8764 39.2849 16.557 40.4224C14.9191 41.8328 13.2812 42.9702 11.6433 43.8802C9.55039 45.0631 7.68499 45.6546 6.13808 45.6546C3.95421 45.6546 2.4073 44.7901 1.49735 43.0157C0.905884 41.6508 0.587402 40.1494 0.587402 38.375Z" fill="#124D73"/>
<path d="M23.5636 45.0175L24.2461 43.607C24.2916 43.516 24.3826 43.425 24.4281 43.425C24.5191 43.425 24.9285 43.6525 25.611 44.153C26.2935 44.608 26.6574 44.881 26.6574 44.972C26.6574 45.2449 26.3845 45.8819 25.7475 46.8829C25.6565 46.9738 25.611 47.0193 25.52 46.9738C24.9285 46.5189 24.2461 46.0639 23.5181 45.6089C23.2906 46.2004 23.0176 46.6554 22.7902 47.0648C22.7447 47.2013 22.6537 47.2013 22.5627 47.1558C21.8802 46.6099 21.1977 46.1549 20.4698 45.6999C20.4243 45.6544 20.4243 45.6089 20.4698 45.5179L21.3797 43.789C21.4252 43.698 21.4707 43.6525 21.5617 43.6525C21.6527 43.6525 21.9712 43.8345 22.5172 44.244C23.0176 44.5625 23.3816 44.8355 23.5636 45.0175Z" fill="#124D73"/>
<path d="M31.8438 39.1029C30.2514 39.1029 29.4325 38.1929 29.3415 36.3275C29.3415 36.2365 29.296 36.191 29.205 36.191C29.0685 36.191 28.932 36.282 28.75 36.4185C27.8401 37.465 27.2941 38.1019 27.0211 38.3294C25.8837 39.2849 24.7007 39.7853 23.4268 39.7853V37.101C24.7462 37.101 25.8837 36.737 26.8846 36.0545C27.2941 35.7816 28.204 34.9626 29.6145 33.5522C29.751 33.4157 29.8874 33.3247 30.0694 33.3247C30.2514 33.3247 30.2969 33.4157 30.2969 33.5522C30.2969 33.6432 30.2969 33.7342 30.2514 33.9162C30.2059 34.0982 30.2059 34.2347 30.2059 34.3257C30.2059 34.8261 30.3424 35.2811 30.5244 35.6451C30.7974 36.1 31.2524 36.3275 31.7983 36.3275V39.1029H31.8438Z" fill="#124D73"/>
<path d="M32.5268 46.7466C35.0292 45.8366 37.668 44.8812 40.4889 43.8347C40.6254 43.7892 40.7164 43.7437 40.7164 43.7892C40.7619 43.8347 40.7619 43.9257 40.6709 44.0167C40.4889 44.4262 40.3979 44.6537 40.2614 44.6992C37.8955 45.5636 35.1657 46.6101 32.0264 47.9295C32.1629 47.611 32.2994 47.2015 32.5268 46.7466Z" fill="#124D73"/>
<path d="M34.9832 25.4991C34.9377 25.4536 34.9377 25.4081 34.9832 25.3171L35.8476 23.5427C35.8931 23.4517 35.9386 23.4062 36.0296 23.4062C36.1206 23.4062 36.4846 23.6337 37.167 24.1342C37.8495 24.5892 38.168 24.8622 38.168 24.9532C38.168 25.2261 37.8495 25.8631 37.258 26.8186C37.167 26.955 37.1215 26.955 37.0305 26.9095C36.3936 26.4091 35.7111 25.9086 34.9832 25.4991Z" fill="#124D73"/>
<path d="M40.1245 38.739C37.8496 38.739 36.1662 38.4205 35.1198 37.7835C33.8458 38.739 32.7084 39.194 31.7075 39.194V36.5096C32.3899 36.5096 33.0269 36.3731 33.6183 36.1001C33.3454 35.5997 33.2089 34.8717 33.2089 34.0073C33.2089 32.7333 33.6638 31.5049 34.6193 30.231C35.4837 29.0935 36.2117 28.5021 36.8487 28.5021C37.4401 28.5021 37.8496 28.9116 38.2136 29.776C38.4411 30.413 38.5776 31.0954 38.5776 31.8689C38.5776 33.5978 38.1681 34.9627 37.4401 35.9181C37.9406 36.0546 38.8505 36.1456 40.17 36.1456L40.1245 38.739ZM37.5311 33.5523C37.5311 33.1883 37.3946 32.6878 37.1216 32.0509C36.8487 31.3684 36.5757 31.0044 36.3482 31.0044C36.0752 31.0044 35.6202 31.3229 35.0743 31.9144C34.4828 32.5058 34.1188 33.0518 33.9368 33.5523C34.0278 33.8253 34.2098 34.1437 34.5283 34.4622C34.8468 34.7807 35.2108 35.0082 35.5292 35.1447C36.5302 34.6442 37.2126 34.0983 37.5311 33.5523Z" fill="#124D73"/>
<path d="M43.4912 2.43204C43.4912 2.65953 43.2637 3.069 42.7632 3.75146C42.2173 4.52492 41.6713 5.07089 41.1708 5.43487C40.8523 5.66235 39.8059 6.02633 38.0315 6.48131C37.713 6.5268 37.531 6.5723 37.531 6.5723C37.5765 6.5268 37.6675 6.43581 37.895 6.29932C38.1225 6.11733 38.7595 5.75335 39.8059 5.20738C40.8068 4.66141 41.3528 4.34293 41.5348 4.20644C41.5803 4.16094 41.5803 4.11544 41.5803 4.11544C41.5803 3.88796 40.7158 3.79696 38.9414 3.79696C38.9414 3.79696 38.623 3.79696 37.9405 3.84246C37.622 3.88796 37.3945 3.84246 37.3945 3.79696C37.3945 3.75146 37.44 3.66047 37.531 3.52398L38.168 2.47754C38.35 2.15906 38.714 1.97706 39.1689 1.88607C39.3054 1.84057 39.7149 1.84057 40.3974 1.84057C42.4902 1.74958 43.4912 1.97707 43.4912 2.43204Z" fill="#124D73"/>
<path d="M44.2199 30.6859C44.2199 33.2793 43.765 35.3267 42.8095 36.8281C42.0361 38.102 41.0806 38.739 40.0342 38.739V36.0546C40.8986 36.0546 41.7176 35.7362 42.5365 35.0537C42.764 34.8717 42.9005 34.1437 42.9005 32.9153C42.9005 32.1874 42.7185 29.139 42.309 23.8158C41.9451 18.4926 41.7631 15.3533 41.7631 14.4434C41.7631 13.5789 41.6266 12.851 41.3536 12.305C41.3536 11.9865 41.5811 11.2131 42.0816 10.0301C42.1726 9.89364 42.2181 9.84814 42.2181 9.84814C42.2636 9.84814 42.3545 9.93914 42.4 10.0756C42.5365 10.3941 42.9005 11.2131 43.401 12.6235C43.947 14.0794 44.2654 14.9439 44.3564 15.2623C44.4474 15.5353 44.4474 15.7173 44.4474 15.8083C44.4474 16.2178 44.0834 15.9903 43.31 15.1258C43.219 14.9893 43.1735 15.0348 43.1735 15.2623C43.1735 15.3078 43.3555 17.6737 43.674 22.3599C44.0834 27.0007 44.2199 29.8215 44.2199 30.6859Z" fill="#124D73"/>
<path d="M45.8576 15.4898C45.8576 14.6253 45.7211 13.8974 45.4481 13.3514C45.4481 13.0329 45.6756 12.3049 46.1761 11.122C46.2671 10.9855 46.3126 10.8945 46.3581 10.8945C46.4036 10.8945 46.4491 10.9855 46.5401 11.122C46.6765 11.4405 47.0405 12.2595 47.541 13.6699C48.087 15.1258 48.4054 15.9902 48.4964 16.3087C48.5874 16.5817 48.5874 16.7637 48.5874 16.9002C48.5874 17.3097 48.2235 17.0367 47.45 16.1722C47.359 16.0357 47.3135 16.0812 47.3135 16.3087C47.3135 16.3997 47.4955 19.1296 47.905 24.5892C48.3145 30.0489 48.4964 33.0972 48.4964 33.7797C48.4964 35.8726 48.178 37.738 47.541 39.3304C47.4045 39.6489 47.268 39.8764 47.2225 40.0128C47.086 40.2403 46.995 40.2858 46.995 40.1493C46.9495 39.9674 46.9495 39.6489 47.0405 39.1484C47.1315 38.4204 47.177 37.6015 47.177 36.646C47.177 35.7816 46.9495 32.2328 46.4946 25.9997C46.0851 19.721 45.8576 16.2632 45.8576 15.4898Z" fill="#124D73"/>
</svg>
