<svg width="49" height="49" viewBox="0 0 49 49" fill="none" xmlns="http://www.w3.org/2000/svg">
<path d="M17.2006 14.4873C18.58 13.9775 20.0494 13.4678 21.6087 12.868C21.6987 12.838 21.7287 12.838 21.7287 12.838C21.7587 12.868 21.7287 12.898 21.7287 12.958C21.6387 13.1679 21.5787 13.2878 21.5188 13.3478C20.2293 13.8276 18.6999 14.4274 16.9307 15.1471C16.9906 14.9671 17.0806 14.7572 17.2006 14.4873Z" fill="#124D73"/>
<path d="M21.459 29.0014C21.339 29.931 21.2791 30.3808 21.2191 30.3808C21.1591 30.3808 21.0991 29.991 20.9792 29.2413C20.7993 28.0118 19.8996 26.6323 18.2503 25.073C16.2711 23.1838 14.8017 21.6544 13.9021 20.5449C13.6622 20.215 13.3623 19.7652 12.9425 19.1954C12.8225 18.9855 12.6726 18.8655 12.5227 18.7756C12.4627 18.7156 12.4027 18.6556 12.4027 18.5357V17.5461C12.4027 17.3362 12.4327 17.2462 12.5227 17.2462C12.5526 17.2462 12.6426 17.3062 12.7925 17.3662L14.6818 18.8356C14.8317 18.9555 14.9217 19.0455 14.9217 19.0755C14.9217 19.1354 14.8617 19.1654 14.7417 19.1354C14.5918 19.1354 14.3219 19.1055 13.9621 19.0155C14.2619 19.4353 15.0116 20.245 16.2111 21.4445C17.0808 22.3141 17.9504 23.1838 18.8201 24.0534C20.5893 25.8527 21.459 27.382 21.459 28.6715C21.489 28.7615 21.459 28.8814 21.459 29.0014Z" fill="#124D73"/>
<path d="M21.9087 19.8852C21.8487 19.2254 21.6988 18.2658 21.4888 17.0064C21.6088 16.2867 21.6988 15.8668 21.7587 15.7169C21.7887 15.6269 21.8487 15.567 21.8787 15.567C21.9087 15.567 21.9387 15.6269 21.9986 15.7169C22.3285 16.7665 22.5984 18.1159 22.8083 19.7652C22.9283 20.8448 23.0482 22.5541 23.1082 24.8931C23.1682 26.9623 23.2581 28.2517 23.3481 28.7315C23.468 29.3013 23.648 29.6911 23.8879 29.9011C24.0678 30.021 24.3077 30.111 24.6376 30.111V31.6103C23.8879 31.6103 23.3481 31.3105 23.0182 30.7407C22.8083 30.3809 22.6584 29.7811 22.5684 28.9115C22.2985 30.2609 22.0286 31.1305 21.7587 31.4904C21.159 32.33 20.4993 32.8998 19.7496 33.2597C19.4497 33.4096 18.9399 33.5595 18.1902 33.7695C17.4705 33.9494 16.9307 34.0693 16.5709 34.0993C16.4209 34.1293 16.361 34.0993 16.361 34.0693C16.361 34.0393 16.4209 33.9494 16.5709 33.8594C17.2306 33.4696 18.3102 32.8398 19.8095 31.9102C21.4888 30.8307 22.3285 29.2413 22.3285 27.1122C22.2985 24.3533 22.1786 21.9243 21.9087 19.8852Z" fill="#124D73"/>
<path d="M28.2062 24.5332C29.5857 24.0234 31.0551 23.5137 32.6144 22.9139C32.7044 22.8839 32.7344 22.8839 32.7344 22.8839C32.7644 22.9139 32.7344 22.9439 32.7344 23.0039C32.6444 23.2138 32.5844 23.3337 32.5245 23.3937C31.235 23.8735 29.7056 24.4733 27.9363 25.193C27.9963 24.983 28.0863 24.7731 28.2062 24.5332Z" fill="#124D73"/>
<path d="M29.3756 31.3404C28.7459 31.3404 28.2961 31.1305 28.0262 30.7407C27.8763 30.5008 27.7863 30.1409 27.7563 29.6611C27.7563 29.6011 27.7263 29.6011 27.6963 29.6011C27.6064 29.6011 27.5464 29.6611 27.4564 29.7211C26.9766 30.3208 26.6468 30.6507 26.4968 30.7706C25.8671 31.3104 25.2074 31.5803 24.5176 31.5803V30.0809C25.2673 30.0809 25.8971 29.901 26.4368 29.5112C26.6768 29.3612 27.1566 28.9114 27.9362 28.1317C28.0262 28.0418 28.1162 27.9818 28.2061 27.9818C28.3261 27.9818 28.386 28.0718 28.3261 28.2517C28.2661 28.4316 28.2361 28.6115 28.2361 28.7615C28.2361 29.0913 28.386 29.3612 28.6559 29.5711C28.9258 29.7511 29.2557 29.841 29.7055 29.841C30.3053 29.841 30.845 29.5711 31.2349 29.0614C31.5048 28.6715 31.7447 28.2817 31.9846 27.8918C32.0745 27.8019 32.1645 27.7719 32.1945 27.7719C32.2545 27.7719 32.3144 27.8319 32.3144 27.9218C32.3144 27.9818 32.3144 28.0418 32.3144 28.0718C32.2245 28.4916 32.1645 28.7015 32.1645 28.6415C32.1645 28.8215 32.2545 29.0014 32.4644 29.1513C32.7043 29.3312 32.9442 29.4212 33.2141 29.4212C33.5439 29.4212 33.7838 29.3312 33.8738 29.1513C33.8738 29.1213 33.8138 29.0614 33.7238 28.9714C33.6339 28.8814 33.6039 28.8215 33.6039 28.7615C33.6039 28.7015 33.6939 28.3416 33.9038 27.7119C33.9338 27.592 33.9937 27.532 34.0237 27.532C34.1137 27.532 34.2037 27.6819 34.2936 27.9518C34.3836 28.1917 34.4136 28.3416 34.4136 28.4616C34.4136 29.0913 34.2936 29.6011 34.0537 30.021C33.7538 30.5607 33.304 30.8306 32.7043 30.8306C32.2844 30.8306 31.8946 30.5008 31.5347 29.871C30.965 30.8606 30.2453 31.3404 29.3756 31.3404Z" fill="#124D73"/>
<path d="M37.7721 26.6323C37.7721 26.7523 37.6522 26.9922 37.3823 27.352C37.0824 27.7719 36.7825 28.1017 36.5126 28.2817C36.3327 28.4016 35.7629 28.6115 34.7733 28.8514C34.5934 28.8814 34.5035 28.9114 34.5035 28.9114C34.5334 28.8814 34.5934 28.8514 34.7134 28.7615C34.8333 28.6715 35.1932 28.4616 35.7629 28.1617C36.3027 27.8618 36.6326 27.6819 36.7225 27.5919C36.7525 27.5619 36.7525 27.5619 36.7525 27.532C36.7525 27.412 36.2727 27.352 35.2831 27.352C35.2831 27.352 35.1032 27.352 34.7434 27.352C34.5634 27.352 34.4435 27.352 34.4435 27.322C34.4435 27.2921 34.4735 27.2621 34.5334 27.1721L34.8933 26.6023C34.9833 26.4224 35.1932 26.3325 35.4631 26.2725C35.553 26.2425 35.7629 26.2425 36.1228 26.2425C37.2323 26.2425 37.7721 26.3624 37.7721 26.6323Z" fill="#124D73"/>
<path d="M37.8924 32.5399C38.4022 31.9701 39.0919 31.4303 39.9315 30.9805C40.4413 30.7106 41.281 30.3208 42.4805 29.811V31.1604C41.7308 31.4903 41.161 31.7302 40.7712 31.9101C40.0215 32.24 39.5117 32.5399 39.2118 32.7498C38.702 33.1396 37.9523 33.9193 36.9927 35.0288C36.423 35.6886 35.8232 36.0484 35.2535 36.0484C34.7437 36.0484 34.3238 35.8385 33.964 35.3887C33.5742 34.9389 33.3942 34.3691 33.3942 33.6794C33.3942 32.7498 33.7841 31.5503 34.5338 30.0809C34.6237 29.9309 34.6837 29.841 34.7137 29.841C34.7437 29.841 34.7437 29.871 34.7437 29.9009C34.7437 30.0509 34.5937 30.5607 34.2639 31.4603C33.934 32.3299 33.7841 33.0496 33.7841 33.5594C33.7841 33.9493 33.874 34.2791 34.054 34.489C34.2339 34.7589 34.5038 34.8789 34.8636 34.8789C35.4634 34.8789 36.0931 34.579 36.7229 33.9493C37.0827 33.4995 37.5025 33.0197 37.8924 32.5399Z" fill="#124D73"/>
<path d="M45.3293 22.5541C45.3893 22.4041 45.3893 22.2842 45.3593 22.1342C45.3293 21.9843 45.2693 21.8943 45.1494 21.8943C45.0894 21.8943 45.0294 21.9243 44.9395 21.9843C44.8495 22.0443 44.7895 22.1042 44.7895 22.1342C44.7895 22.2242 44.9695 22.3741 45.3293 22.5541ZM45.0594 23.1838C44.6096 22.9439 44.3697 22.704 44.3697 22.4341C44.3697 22.1042 44.5197 21.8344 44.8195 21.5645C45.1194 21.2946 45.3593 21.2046 45.5392 21.2646C45.6892 21.3246 45.7791 21.5045 45.7791 21.7744C45.7791 22.0443 45.7192 22.3441 45.6292 22.674C45.8691 22.8239 45.9891 22.9439 46.049 23.0339C46.049 23.1538 45.9591 23.3637 45.7491 23.6636C45.6892 23.5736 45.5392 23.4537 45.3293 23.3337C45.0594 23.6936 44.7596 24.0234 44.3397 24.2933C43.8899 24.6232 43.4701 24.8931 43.1102 25.043C43.0203 25.073 42.6004 25.2529 41.7908 25.5228C41.6708 25.5828 41.5809 25.5828 41.5209 25.5828C41.4909 25.5828 41.4909 25.5828 41.4909 25.5828C41.4909 25.5528 41.5509 25.4928 41.7008 25.4029C42.3006 25.043 42.8703 24.7132 43.4701 24.3533C44.1898 23.9335 44.6996 23.5436 45.0594 23.1838Z" fill="#124D73"/>
<path d="M44.7295 31.4604C44.9394 31.4604 45.0294 31.4004 45.0294 31.3104C45.0294 31.1605 44.9094 31.0405 44.6096 30.9206C44.3697 30.8306 44.0698 30.8306 43.62 30.9206C43.8599 31.2804 44.2197 31.4604 44.7295 31.4604ZM42.8703 29.6911C43.53 29.4512 44.0398 29.3312 44.4296 29.3312C44.8495 29.3312 45.1793 29.5112 45.4492 29.871C45.7191 30.2309 45.8091 30.6807 45.8091 31.2804C45.8091 31.7602 45.6891 32.1501 45.4792 32.4799C45.2693 32.8098 44.9994 32.9597 44.6695 32.9597C44.2197 32.9597 43.7999 32.7498 43.3801 32.36C43.0502 32.0301 42.7803 31.6403 42.5704 31.1905H43.5L42.2405 29.991C42.2106 29.931 42.3005 29.841 42.5104 29.7511C42.7203 29.6311 42.8403 29.6311 42.8703 29.6911Z" fill="#124D73"/>
<path d="M43.2598 12.8081C43.2598 12.928 43.1399 13.1679 42.87 13.5278C42.5701 13.9476 42.2702 14.2774 42.0004 14.4574C41.8204 14.5773 41.2507 14.7872 40.2611 15.0271C40.0811 15.0571 39.9912 15.0871 39.9912 15.0871C40.0212 15.0571 40.0811 15.0271 40.2011 14.9372C40.3211 14.8472 40.6809 14.6373 41.2507 14.3374C41.7904 14.0375 42.1203 13.8576 42.2103 13.7677C42.2403 13.7377 42.2403 13.7377 42.2403 13.7077C42.2403 13.5877 41.7605 13.5278 40.7709 13.5278C40.7709 13.5278 40.5909 13.5278 40.2311 13.5278C40.0512 13.5278 39.9312 13.5278 39.9312 13.4978C39.9312 13.4678 39.9612 13.4378 40.0212 13.3478L40.381 12.7781C40.471 12.5981 40.6809 12.5082 40.9508 12.4482C41.0408 12.4182 41.2507 12.4182 41.6105 12.4182C42.6901 12.4482 43.2598 12.5682 43.2598 12.8081Z" fill="#124D73"/>
<path d="M42.3303 29.961C42.0305 28.7315 41.7606 26.5724 41.5207 23.4837C41.3707 21.5944 41.3108 19.9151 41.3108 18.4457C41.3108 17.9659 41.2508 17.5761 41.0709 17.2462C41.0709 17.0663 41.2208 16.6465 41.4907 16.0167C41.5207 15.9568 41.5507 15.8968 41.5807 15.8968C41.6106 15.8968 41.6406 15.9268 41.7006 16.0167C41.7606 16.1667 41.9705 16.6465 42.2404 17.4262C42.5403 18.2358 42.7202 18.7156 42.7502 18.8956C42.7802 19.0455 42.8101 19.1355 42.8101 19.1954C42.8101 19.4353 42.6002 19.2854 42.1804 18.8056C42.1204 18.7456 42.1204 18.7756 42.1204 18.8956C42.1204 19.5553 42.1804 21.1146 42.3303 23.5436C42.5103 26.6923 42.7502 28.7315 43.08 29.6011C43.08 29.6611 42.9901 29.7211 42.7802 29.8111C42.5702 29.901 42.4503 29.931 42.3303 29.961Z" fill="#124D73"/>
<path d="M46.5587 18.8056C46.5587 18.3258 46.4687 17.9359 46.3188 17.6361C46.3188 17.4561 46.4387 17.0363 46.7386 16.4066C46.7686 16.3166 46.7986 16.2866 46.8286 16.2866C46.8586 16.2866 46.8886 16.3166 46.9185 16.4066C47.0085 16.5865 47.1884 17.0363 47.4583 17.816C47.7582 18.6257 47.9381 19.1055 47.9981 19.2854C48.0281 19.4353 48.0581 19.5253 48.0581 19.6152C48.0581 19.8252 47.8482 19.7052 47.4283 19.2254C47.3684 19.1654 47.3684 19.1954 47.3684 19.3154C47.3684 19.3454 47.4883 20.8747 47.6982 23.9035C47.9081 26.9322 48.0281 28.6115 48.0281 29.0014C48.0281 30.1709 47.8482 31.1905 47.5183 32.0601C47.4283 32.24 47.3684 32.36 47.3384 32.45C47.2784 32.5699 47.2184 32.5999 47.2184 32.5099C47.1884 32.42 47.2184 32.24 47.2184 31.9402C47.2784 31.5503 47.3084 31.0705 47.3084 30.5308C47.3084 30.0509 47.1884 28.1018 46.9485 24.6232C46.6786 21.1746 46.5587 19.2254 46.5587 18.8056Z" fill="#124D73"/>
<path d="M42.4808 30.2308V31.1605H43.5004L42.4808 30.2308Z" fill="#124D73"/>
<path d="M5.44002 33.4204C7.2845 33.4204 9.36245 33.0235 11.7439 32.2997C13.6468 31.681 14.8842 31.179 15.4446 30.7588C15.5029 30.7354 15.5029 30.6771 15.5029 30.5953C15.5029 30.3735 15.1644 29.7782 14.4406 28.891C14.3005 28.7275 14.2421 28.5291 14.3005 28.3306C14.3822 27.9337 14.499 27.6068 14.6391 27.3267C14.7208 27.1282 14.8025 27.0231 14.8609 27.0231C14.8842 27.0231 15.0009 27.1049 15.141 27.28C15.3395 27.4784 15.5379 27.7819 15.7247 28.2372C16.0283 28.7742 16.1683 29.2412 16.1683 29.6381C16.1683 30.9572 15.7481 31.9378 14.8842 32.5215C14.3239 32.9418 13.0631 33.4438 11.1252 34.0391C8.68536 34.798 6.58406 35.1598 4.73958 35.1598C2.9418 35.1598 1.68102 34.6812 0.875523 33.7356C0.315175 33.0936 0.0583496 32.253 0.0583496 31.2374C0.0583496 30.1751 0.315175 29.1945 0.817153 28.2722C0.980588 27.9921 1.09733 27.8286 1.1557 27.8286C1.1557 27.8286 1.17904 27.852 1.17904 27.9103C1.17904 27.9921 1.12067 28.1672 1.03896 28.4123C0.922219 28.7509 0.782131 29.0544 0.677066 29.3929C0.536979 29.8132 0.47861 30.2568 0.47861 30.7354C0.47861 31.3542 0.758783 31.8795 1.3775 32.3581C2.24137 33.0585 3.59554 33.4204 5.44002 33.4204Z" fill="#124D73"/>
<path d="M7.79823 24.9102L8.24184 23.988C8.26519 23.9296 8.30021 23.9062 8.35858 23.9062C8.41695 23.9062 8.63875 24.0463 9.08236 24.3499C9.50262 24.63 9.72443 24.7935 9.72443 24.8518C9.72443 25.0503 9.52597 25.4706 9.16408 26.0893C9.10571 26.171 9.04734 26.171 9.00064 26.1476C8.63875 25.8675 8.21849 25.5873 7.73986 25.2838C7.57643 25.6223 7.43634 25.9258 7.26123 26.1827C7.23789 26.2644 7.17952 26.2994 7.12115 26.2644C6.70088 25.9258 6.25728 25.6223 5.802 25.3421C5.77865 25.3188 5.77865 25.2838 5.802 25.2254L6.33899 24.1047C6.36234 24.0463 6.42071 23.988 6.45573 23.988C6.5141 23.988 6.71256 24.1281 7.07445 24.3849C7.42467 24.6067 7.68149 24.7935 7.79823 24.9102Z" fill="#124D73"/>
</svg>
