<svg width="48" height="49" viewBox="0 0 48 49" fill="none" xmlns="http://www.w3.org/2000/svg">
<path d="M5.64975 37.4974C5.60851 37.4562 5.60851 37.4149 5.64975 37.3737L6.35078 35.9716C6.39202 35.8891 6.43325 35.8479 6.47449 35.8479C6.55696 35.8479 6.84563 36.0128 7.38171 36.4252C7.91779 36.7964 8.20645 37.0025 8.20645 37.085C8.20645 37.3324 7.95903 37.8273 7.46418 38.5696C7.42295 38.652 7.34047 38.6933 7.29923 38.652C6.80439 38.1984 6.2683 37.8273 5.64975 37.4974Z" fill="#124D73"/>
<path d="M10.433 13.621C10.598 13.5385 10.6804 13.4973 10.6804 13.4973C10.6804 13.456 10.5155 13.4148 10.2268 13.3736C8.28868 13.0849 6.06187 12.9612 3.58764 12.9612C2.35052 12.9612 1.52578 13.0024 1.19588 13.1261C1.03093 13.1674 0.989693 13.2086 0.989693 13.2499C0.989693 13.2911 1.1134 13.4148 1.31959 13.5798C1.89691 14.0334 2.47423 14.487 3.09279 14.9818C4.12372 15.8066 4.78352 16.3426 4.9897 16.6313C6.84538 15.3117 8.65981 14.322 10.433 13.621ZM15.1341 25.2499C15.1341 24.6726 14.9279 24.0952 14.5155 23.6004C14.0619 23.0231 13.4433 22.6107 12.6598 22.4045C12 22.1983 10.8454 22.0746 9.27837 22.0334C7.62888 21.9921 6.51548 21.9097 5.89692 21.786C4.74228 21.5385 3.67011 21.0849 2.59794 20.4664C2.22681 21.0024 1.89691 21.6622 1.56701 22.4458C1.11341 23.6004 0.907219 24.6726 0.907219 25.7447C0.907219 29.2499 2.8866 30.9819 6.7629 30.9819C8.08249 30.9819 9.40208 30.652 10.7629 29.9509C12 29.3324 13.031 28.5489 13.8557 27.6416C14.7217 26.6932 15.1341 25.9097 15.1341 25.2499ZM13.5258 13.9097C10.2268 15.2705 7.54641 16.5901 5.40207 17.8684C5.40207 18.6932 5.3196 19.0643 5.15465 19.0643C5.03094 19.0643 4.82475 18.8169 4.57733 18.322C4.08248 18.7344 3.62887 19.188 3.17526 19.7241C4.45362 19.889 6.55671 20.0128 9.48456 20.1365C11.6289 20.2189 12.9485 20.3839 13.567 20.6313C14.1444 20.8787 14.6392 21.2911 15.0516 21.8684C15.464 22.5282 15.6701 23.3117 15.6701 24.1777C15.6701 26.487 14.7217 28.5489 12.7835 30.4045C10.8866 32.219 8.78352 33.1262 6.433 33.1262C2.26805 33.1262 0.206186 30.8169 0.206186 26.1983C0.206186 24.0952 0.74227 22.0334 1.81444 20.054C1.48454 19.8478 1.31959 19.7241 1.31959 19.6004C1.31959 19.5179 1.40207 19.4767 1.56701 19.4767C1.73196 19.4767 1.89691 19.4767 2.14433 19.5179C2.47423 18.9818 3.01032 18.322 3.79382 17.4973C3.29898 17.0024 2.59794 16.4251 1.64949 15.7241C0.948456 15.2292 0.494847 14.7344 0.247424 14.3633C0.0824753 14.1158 0 13.7859 0 13.456C0 12.7962 0.247424 12.2602 0.742271 11.8066C1.36083 11.2705 2.18557 10.9818 3.29898 10.9818C4.57733 10.9818 6.59795 11.1055 9.40208 11.3117C11.9588 11.5179 13.5258 11.6416 14.1031 11.7653C14.3505 11.8066 14.433 11.9303 14.3505 12.1365L13.8969 13.456C13.8557 13.7035 13.732 13.8272 13.5258 13.9097Z" fill="#124D73"/>
<path d="M11.7115 39.6004C13.6909 38.8994 15.794 38.1159 18.062 37.2911C18.1857 37.2499 18.227 37.2499 18.2682 37.2499C18.3095 37.2911 18.2682 37.3324 18.2682 37.4561C18.1445 37.786 18.0208 37.9509 17.9383 37.9921C16.0826 38.6519 13.8558 39.5179 11.3816 40.5489C11.4228 40.2602 11.5466 39.9303 11.7115 39.6004Z" fill="#124D73"/>
<path d="M12.9073 35.8065C12.2063 35.8065 11.5878 35.4766 11.0517 34.8581C10.5156 34.1983 10.2269 33.3735 10.2269 32.4251C10.2269 31.1055 10.763 29.3735 11.8764 27.2292C12.0001 27.023 12.0826 26.8993 12.1238 26.8993C12.1651 26.8993 12.1651 26.9405 12.1651 26.9818C12.1651 27.188 11.9177 27.9715 11.464 29.2086C11.0104 30.4869 10.763 31.4766 10.763 32.2189C10.763 32.755 10.8867 33.2086 11.1754 33.5385C11.464 33.9096 11.8352 34.0746 12.33 34.0746C13.1135 34.0746 14.0207 33.5797 15.0517 32.6313C15.1754 32.5488 16.0826 31.5591 17.8146 29.6622C20.33 26.9405 22.5981 25.5797 24.5775 25.5797C25.1548 25.5797 25.6496 25.7447 26.062 26.0746C26.4744 26.4045 26.6806 26.8168 26.6806 27.3117C26.6806 27.889 26.5569 28.3838 26.3507 28.8375C26.3094 29.0024 26.227 29.0436 26.227 29.0436C26.1857 29.0436 26.1032 28.9612 26.0208 28.8375C25.6084 28.0952 24.9898 27.724 24.1651 27.724C22.6393 27.724 20.9074 28.7137 18.928 30.6931C17.8146 31.889 16.7424 33.0849 15.629 34.2808C14.6393 35.3117 13.7321 35.8065 12.9073 35.8065Z" fill="#124D73"/>
<path d="M25.0723 33.6622C25.2372 34.6519 25.5671 35.3117 26.062 35.6416C26.3094 35.8066 26.7218 35.8478 27.2166 35.8478V37.9921C26.4331 37.9921 25.8558 37.8272 25.4022 37.5385C24.7836 37.0849 24.4125 36.2602 24.165 35.0231C24.0413 34.2396 23.9176 32.0128 23.7939 28.3426C23.6702 24.3014 23.5877 21.8272 23.464 20.9199C23.2991 19.4354 23.0104 18.0746 22.598 16.755C22.598 16.4251 22.763 15.889 23.0516 15.188C23.0929 15.023 23.1754 14.9406 23.2166 14.9406C23.2578 14.9406 23.3403 15.023 23.3815 15.1467C23.8352 16.054 24.165 17.5385 24.4125 19.6828C24.5774 21.0024 24.7011 23.6416 24.7836 27.5591C24.9486 31.2705 25.031 33.2911 25.0723 33.6622Z" fill="#124D73"/>
<path d="M28.7425 26.4457C30.7219 25.7447 32.8249 24.9612 35.093 24.1365C35.2167 24.0952 35.2579 24.0952 35.2992 24.0952C35.3404 24.1365 35.2992 24.1777 35.2992 24.3014C35.1755 24.6313 35.0518 24.7962 34.9693 24.8375C33.1136 25.4973 30.8868 26.3633 28.4126 27.3942C28.4538 27.1055 28.5775 26.7756 28.7425 26.4457Z" fill="#124D73"/>
<path d="M34.0617 32.8787C33.6493 32.59 32.9071 32.4251 31.8349 32.4251C31.4225 32.4251 31.0514 32.4663 30.7215 32.5075C31.4225 32.9611 31.9174 33.3735 32.2473 33.7447C32.7833 33.456 33.4019 33.1261 34.0617 32.8787ZM31.7112 35.8478C30.3503 36.755 29.5256 37.3323 29.1957 37.4972C28.5359 37.8271 27.8349 38.0333 27.0926 38.0333V35.889C28.0823 35.889 29.2369 35.5179 30.4741 34.7343C30.0617 34.322 29.6081 33.9508 29.0308 33.6209C28.5359 33.3735 28.1235 33.2086 27.8761 33.2086C27.3813 33.2086 26.9689 33.291 26.7215 33.4148C26.639 33.456 26.5565 33.4972 26.4741 33.4972C26.3916 33.4972 26.3503 33.456 26.3503 33.3735C26.3503 33.291 26.3916 33.2086 26.4328 33.1261L27.0926 31.6003C27.2163 31.3117 27.8349 31.0642 28.9483 30.8168C30.0617 30.5694 31.0926 30.4457 32.0823 30.4457C34.0205 30.4457 35.5462 30.8581 36.6596 31.724C36.9483 31.9302 37.1132 32.0952 37.1132 32.1776C37.1132 32.2189 37.072 32.3426 36.9895 32.5075L36.371 33.7447C35.7112 33.9921 34.7627 34.3632 33.5669 34.8581C34.2266 35.4766 35.2163 35.8065 36.4535 35.8065V37.9509C35.505 37.9509 34.7627 37.8271 34.2679 37.621C33.6493 37.4148 32.7833 36.7962 31.7112 35.8478Z" fill="#124D73"/>
<path d="M30.6392 19.2292C32.6186 18.5281 34.7217 17.7446 36.9897 16.9199C37.1134 16.8787 37.1547 16.8787 37.1959 16.8787C37.2371 16.9199 37.1959 16.9611 37.1959 17.0848C37.0722 17.4147 36.9485 17.5797 36.866 17.6209C35.0103 18.2807 32.7835 19.1467 30.3093 20.1776C30.3505 19.889 30.4742 19.6003 30.6392 19.2292Z" fill="#124D73"/>
<path d="M43.67 36.9612C43.9999 36.9612 44.1236 36.8787 44.1236 36.6725C44.1236 36.4251 43.9587 36.2602 43.5876 36.1365C43.1752 35.9715 42.5979 35.9303 41.8968 36.054C42.4329 36.6313 43.0515 36.9612 43.67 36.9612ZM36.3298 37.9921V35.8478C37.237 35.8478 38.3917 35.4767 39.7937 34.7344C39.7525 34.5694 39.8762 34.4045 40.1649 34.2808C40.4535 34.1571 40.6597 34.1983 40.7422 34.3633C41.7319 34.0334 42.5154 33.8684 43.0927 33.8684C43.7113 33.8684 44.2061 34.1158 44.536 34.6519C44.8659 35.1468 45.0721 35.8478 45.0721 36.6725C45.0721 37.3736 44.9072 37.9097 44.6185 38.3633C44.3298 38.8169 43.9175 39.0231 43.4226 39.0231C42.3092 39.0231 41.2783 38.1571 40.3711 36.4664C38.6803 37.4973 37.3607 37.9921 36.3298 37.9921Z" fill="#124D73"/>
<path d="M41.0725 9.62092C41.0725 9.78587 40.8663 10.1158 40.4952 10.6519C40.0416 11.2704 39.6292 11.724 39.2168 11.9714C38.9694 12.1364 38.1447 12.4251 36.7426 12.7962C36.4952 12.8374 36.3715 12.8787 36.3715 12.8787C36.4127 12.8374 36.4952 12.7962 36.6601 12.6725C36.8251 12.5075 37.3199 12.2601 38.1859 11.8065C38.9694 11.3941 39.423 11.1055 39.5467 10.9817C39.588 10.9405 39.588 10.9405 39.588 10.8993C39.588 10.7343 38.8869 10.6519 37.4849 10.6519C37.4849 10.6519 37.2375 10.6519 36.7014 10.6519C36.4127 10.6519 36.289 10.6519 36.289 10.6106C36.289 10.5694 36.3302 10.4869 36.4127 10.4044L36.9076 9.57969C37.0725 9.33226 37.3199 9.16731 37.7323 9.12608C37.856 9.08484 38.1859 9.08484 38.6808 9.08484C40.289 9.08484 41.0725 9.29103 41.0725 9.62092Z" fill="#124D73"/>
<path d="M39.7524 34.5695C39.2988 32.7963 38.9276 29.7035 38.5977 25.2499C38.3916 22.5282 38.2678 20.0953 38.2678 18.0334C38.2678 17.3324 38.1441 16.755 37.9379 16.3014C37.9379 16.054 38.1441 15.4767 38.5565 14.5282C38.5977 14.4045 38.639 14.3633 38.6802 14.3633C38.7215 14.3633 38.7627 14.4045 38.8452 14.5282C38.9689 14.7757 39.2163 15.4354 39.6287 16.5489C40.041 17.7035 40.2885 18.4045 40.3709 18.652C40.4122 18.8581 40.4534 18.9818 40.4534 19.1056C40.4534 19.4355 40.1648 19.2293 39.5462 18.5282C39.4637 18.4458 39.4225 18.487 39.4225 18.652C39.4225 19.6004 39.505 21.8272 39.7524 25.3736C39.9998 29.9097 40.3709 32.8375 40.8246 34.1159C40.8246 34.1984 40.6596 34.2808 40.4122 34.4046C40.1235 34.5283 39.9173 34.6107 39.7524 34.5695C39.7936 34.6107 39.7524 34.6107 39.7524 34.5695Z" fill="#124D73"/>
<path d="M45.8146 18.6519C45.8146 17.9509 45.6908 17.4148 45.4847 16.9612C45.4847 16.7138 45.6908 16.1365 46.062 15.188C46.1032 15.0643 46.1857 15.0231 46.1857 15.0231C46.2269 15.0231 46.2682 15.0643 46.3506 15.188C46.4744 15.4354 46.7218 16.0952 47.1341 17.2086C47.5878 18.3633 47.8352 19.0643 47.9177 19.3117C47.9589 19.5179 48.0001 19.6829 48.0001 19.7653C48.0001 20.0952 47.7115 19.8891 47.0929 19.188C47.0104 19.0643 46.9692 19.1468 46.9692 19.3117C46.9692 19.353 47.1341 21.5798 47.464 25.9097C47.7939 30.2396 47.9177 32.6726 47.9177 33.2087C47.9177 34.8994 47.6702 36.3427 47.1754 37.6211C47.0517 37.8685 46.9692 38.0334 46.928 38.1571C46.8042 38.3221 46.763 38.3633 46.763 38.2396C46.7218 38.1159 46.763 37.8272 46.763 37.4149C46.8455 36.8376 46.8867 36.1778 46.8867 35.3942C46.8867 34.6932 46.7218 31.8891 46.3506 26.8994C45.9795 22.0334 45.8146 19.2705 45.8146 18.6519Z" fill="#124D73"/>
</svg>
