<svg width="48" height="49" viewBox="0 0 48 49" fill="none" xmlns="http://www.w3.org/2000/svg">
<path d="M10.4828 25.335L11.198 23.9046C11.2457 23.8092 11.341 23.7139 11.3887 23.7139C11.484 23.7139 11.8655 23.9523 12.5807 24.4291C13.2959 24.9059 13.6296 25.1919 13.6296 25.2873C13.6296 25.5734 13.3435 26.2409 12.7237 27.2421C12.6284 27.3375 12.5807 27.3852 12.4853 27.3375C11.8655 26.9084 11.198 26.4316 10.4351 25.9071C10.1967 26.4793 9.95831 27.0037 9.67223 27.3852C9.62455 27.5282 9.52919 27.5282 9.43384 27.4805C8.76632 26.9561 8.05113 26.4316 7.28826 26.0025C7.24058 25.9548 7.24058 25.9071 7.28826 25.8118L8.19417 23.9999C8.24185 23.9046 8.28953 23.8569 8.38489 23.8569C8.48025 23.8569 8.76632 24.0476 9.38616 24.4291C9.95831 24.8582 10.3397 25.1442 10.4828 25.335Z" fill="#124D73"/>
<path d="M17.7301 39.305C16.7765 39.305 16.109 39.2573 15.7276 39.1143C14.8217 38.8282 14.1065 38.2561 13.4866 37.3978C13.1052 36.778 12.7715 36.1582 12.39 35.5383C12.0563 35.0139 11.7702 34.7755 11.4364 34.7755C10.3875 34.7755 9.29086 35.6814 8.14656 37.3978C7.95584 37.7316 7.57441 38.5421 7.04993 39.8295C6.52546 41.1168 6.04866 42.0704 5.66723 42.6902C5.0474 43.5962 4.42757 44.0253 3.76005 44.0253C2.75879 44.0253 1.90056 43.2147 1.18537 41.6413C0.565535 40.2586 0.231779 38.8282 0.231779 37.3025C0.231779 35.4907 0.422498 34.0126 0.756253 32.916C0.899292 32.5345 0.994651 32.3438 1.09001 32.3438C1.18537 32.3438 1.23305 32.5822 1.18537 33.059C1.04233 34.2033 0.94697 35.1569 0.94697 36.0151C0.94697 39.8772 1.85288 41.7843 3.61702 41.7843C4.33221 41.7843 4.99972 41.2122 5.61955 40.1156C6.23938 38.7805 6.85921 37.4455 7.47905 36.1105C8.0512 35.0139 8.67103 34.0603 9.48158 33.2497C10.3398 32.4392 11.055 32.0577 11.7225 32.0577C12.247 32.0577 12.6761 32.3915 13.1052 33.0113C13.4866 33.5835 13.8204 34.1556 14.1542 34.7278C14.6786 35.443 15.2031 35.9198 15.7276 36.1582C16.2521 36.4442 16.9196 36.5396 17.7778 36.5396L17.7301 39.305Z" fill="#124D73"/>
<path d="M16.4903 20.1379C19.065 19.232 21.7828 18.2308 24.6435 17.1818C24.7866 17.1341 24.8819 17.0865 24.8819 17.1341C24.9296 17.1818 24.9296 17.2772 24.8342 17.3725C24.6435 17.754 24.5482 17.9924 24.4528 18.0877C22.0212 18.9459 19.2081 20.0426 15.9659 21.3776C16.1089 20.9962 16.2996 20.567 16.4903 20.1379Z" fill="#124D73"/>
<path d="M18.8265 26.7176C18.7788 26.6699 18.7788 26.6222 18.8265 26.5269L19.7324 24.7151C19.7801 24.6197 19.8278 24.572 19.9231 24.572C20.0185 24.572 20.3999 24.8104 21.1151 25.2872C21.8303 25.764 22.164 26.0501 22.164 26.1454C22.164 26.4315 21.8303 27.099 21.2105 28.0526C21.1151 28.1957 21.0674 28.1957 20.9721 28.148C20.3046 27.6712 19.5894 27.1467 18.8265 26.7176Z" fill="#124D73"/>
<path d="M26.217 38.6852C24.5959 38.6852 23.7377 37.7316 23.6423 35.8245C23.6423 35.7291 23.5946 35.6814 23.4993 35.6814C23.3562 35.6814 23.2132 35.7768 23.0702 35.9198C22.1643 37.0164 21.5444 37.6363 21.2583 37.8747C20.0664 38.8759 18.8744 39.3527 17.587 39.3527V36.5873C18.9221 36.5873 20.114 36.2059 21.1153 35.4907C21.5444 35.2046 22.4503 34.3941 23.8807 32.916C24.0237 32.773 24.1668 32.6776 24.3575 32.6776C24.5482 32.6776 24.5959 32.773 24.5959 32.916C24.5959 33.0114 24.5959 33.1067 24.5482 33.2974C24.5005 33.4882 24.5005 33.6312 24.5005 33.7266C24.5005 34.251 24.6436 34.6801 24.8343 35.1093C25.1204 35.5861 25.5495 35.8245 26.1693 35.8245L26.217 38.6852Z" fill="#124D73"/>
<path d="M24.5962 28.7202C27.1708 27.8143 29.8886 26.813 32.7493 25.7641C32.8924 25.7164 32.9877 25.6687 32.9877 25.7164C33.0354 25.7641 33.0354 25.8594 32.9401 25.9548C32.7493 26.3362 32.654 26.5746 32.5586 26.67C30.127 27.5282 27.3139 28.6248 24.0717 29.9599C24.2624 29.5784 24.4054 29.1493 24.5962 28.7202Z" fill="#124D73"/>
<path d="M30.7942 24.0952C30.7942 24.429 30.6989 24.8104 30.5558 25.1919C30.3651 25.6687 30.079 25.9071 29.7453 25.9071C29.2208 25.9071 28.8394 25.5256 28.6486 24.8104C28.4103 25.7163 27.9335 26.1931 27.266 26.1931C27.0276 26.1931 26.7892 26.0501 26.5984 25.8117C26.4077 25.4779 26.2647 25.0965 26.2647 24.6674V23.5231C26.2647 23.4277 26.217 23.38 26.074 23.3324C25.9309 23.2847 25.8832 23.1893 25.8832 23.0463C25.8832 22.8079 25.9786 22.5695 26.217 22.3311C26.4077 22.1404 26.5508 22.045 26.6461 22.045C26.7892 22.045 26.8368 22.2834 26.8368 22.7602C26.8368 23.0463 26.8368 23.237 26.7892 23.4277C26.7415 23.6184 26.7415 23.7615 26.7415 23.8568C26.7415 24.1429 26.7892 24.3813 26.9322 24.6197C27.0276 24.9058 27.2183 25.0488 27.409 25.0488C27.6474 25.0488 27.8858 24.9535 28.1242 24.7151C28.3149 24.4767 28.4579 24.2383 28.4579 23.9522C28.4579 23.7615 28.4103 23.4754 28.3149 23.0463C28.2195 22.6172 28.1719 22.3788 28.1719 22.2357C28.1719 22.1404 28.2195 21.9973 28.3149 21.8066C28.4103 21.6159 28.4579 21.5206 28.5056 21.5206C28.601 21.5206 28.6963 21.8066 28.8394 22.3788C28.9824 22.9509 29.0301 23.3324 29.0301 23.6184C29.0301 24.429 29.3162 24.8104 29.936 24.7628C30.2221 24.7628 30.3651 24.6197 30.4128 24.3813C29.8883 23.4754 29.6499 22.8079 29.6499 22.2834C29.6499 21.9973 29.6976 21.7589 29.8406 21.5682C29.936 21.4252 29.9837 21.3298 30.0314 21.3298C30.079 21.3298 30.1267 21.4252 30.1267 21.6159C30.1744 21.8543 30.1744 22.045 30.2221 22.2357C30.2697 22.2357 30.3651 22.5695 30.6035 23.1893C30.6989 23.6184 30.7942 23.9045 30.7942 24.0952Z" fill="#124D73"/>
<path d="M28.4105 46.4093L29.1257 44.9789C29.1733 44.8836 29.2687 44.7882 29.3164 44.7882C29.4117 44.7882 29.7932 45.0266 30.5084 45.5034C31.2235 45.9802 31.5573 46.2663 31.5573 46.3616C31.5573 46.6477 31.2712 47.3152 30.6514 48.3165C30.556 48.4118 30.5084 48.4595 30.413 48.4118C29.7932 47.9827 29.1257 47.5059 28.3628 46.9815C28.1244 47.5536 27.886 48.0781 27.5999 48.4595C27.5522 48.6026 27.4569 48.6026 27.3615 48.5549C26.694 48.0304 25.9788 47.5059 25.2159 47.0768C25.1683 47.0291 25.1683 46.9815 25.2159 46.8861L26.1219 45.0743C26.1695 44.9789 26.2172 44.9312 26.3126 44.9312C26.4079 44.9312 26.694 45.122 27.3138 45.5034C27.9337 45.8848 28.2197 46.2186 28.4105 46.4093Z" fill="#124D73"/>
<path d="M26.1219 35.9675C27.2185 35.9675 28.0767 35.4907 28.7919 34.5371C29.221 33.8219 29.6978 33.1544 30.1746 32.4392C30.3177 32.2962 30.4607 32.2008 30.556 32.2008C30.6514 32.2008 30.6991 32.2485 30.6991 32.3915C30.6991 32.4869 30.6991 32.5346 30.6514 32.6299C30.556 32.916 30.4607 33.1544 30.4607 33.3451C30.4607 33.9649 30.7468 34.4417 31.2712 34.8232C31.748 35.1569 32.2248 35.3476 32.7493 35.3476V38.113C32.1295 38.113 31.5096 37.9223 30.9375 37.4932C30.3177 37.0641 29.8885 36.3966 29.6025 35.586C28.5058 37.6363 27.3138 38.6852 26.0265 38.6852V35.9675H26.1219Z" fill="#124D73"/>
<path d="M28.7443 18.0876C31.3189 17.1817 34.0367 16.1805 36.8974 15.1315C37.0405 15.0838 37.1358 15.0362 37.1358 15.0838C37.1835 15.1315 37.1835 15.2269 37.0882 15.3222C36.8974 15.7037 36.8021 15.9421 36.7067 16.0374C34.2751 16.8957 31.462 17.9923 28.2198 19.3273C28.3628 18.9459 28.5535 18.5644 28.7443 18.0876Z" fill="#124D73"/>
<path d="M31.0804 43.6916C31.0327 43.6439 31.0327 43.5962 31.0804 43.5009L31.9863 41.6891C32.034 41.5937 32.0817 41.546 32.177 41.546C32.2724 41.546 32.6538 41.7844 33.369 42.2612C34.0842 42.738 34.418 43.0241 34.418 43.1194C34.418 43.4055 34.0842 44.073 33.4644 45.0266C33.369 45.1696 33.3213 45.1697 33.226 45.122C32.5585 44.6452 31.8433 44.1207 31.0804 43.6916Z" fill="#124D73"/>
<path d="M35.4193 34.5847C35.2286 35.729 34.8471 36.5872 34.3227 37.2547C33.8459 37.8745 33.2737 38.2083 32.7016 38.2083V35.4429C34.0843 35.4429 34.7518 34.8231 34.7518 33.5834C34.7518 33.2496 34.6564 32.5345 34.3703 31.3425C34.0843 30.1028 33.7982 29.0062 33.5598 28.1956C33.4167 27.8142 33.3691 27.5758 33.3691 27.5758C33.3691 26.5269 33.5121 25.6686 33.8459 25.0488C33.9412 24.7627 34.0366 24.6674 34.0843 24.6674C34.1319 24.6674 34.2273 24.7627 34.3227 24.9534C34.9425 26.1931 35.5146 28.2433 36.0391 31.1518C36.3252 32.9159 36.802 34.1079 37.4218 34.7277C37.8509 35.1568 38.4231 35.3475 39.2336 35.3475V38.1129C38.3754 38.1129 37.6125 37.8269 36.945 37.3024C36.0868 36.6826 35.61 35.7767 35.4193 34.5847Z" fill="#124D73"/>
<path d="M43.8106 1.25687C43.8106 1.44759 43.5722 1.92438 43.0954 2.5919C42.5232 3.40245 41.9988 3.9746 41.4743 4.30835C41.1405 4.54675 40.0916 4.88051 38.2798 5.40498C37.946 5.45266 37.803 5.50034 37.803 5.50034C37.8507 5.45266 37.946 5.3573 38.1844 5.21426C38.4228 5.02354 39.0426 4.64211 40.1393 4.11764C41.1405 3.54548 41.7127 3.21173 41.9034 3.06869C41.9511 3.02101 41.9511 2.97333 41.9511 2.97333C41.9511 2.73493 41.0452 2.63958 39.2334 2.63958C39.2334 2.63958 38.8996 2.63957 38.1844 2.68725C37.8507 2.73493 37.6599 2.68725 37.6599 2.63958C37.6599 2.5919 37.7076 2.49654 37.803 2.3535L38.4705 1.25687C38.6612 0.923116 38.995 0.732399 39.5194 0.637041C39.6625 0.589361 40.0916 0.589362 40.7591 0.589362C42.7616 0.541682 43.8106 0.780078 43.8106 1.25687Z" fill="#124D73"/>
<path d="M43.1911 29.8645C43.1911 32.5345 42.7143 34.6324 41.7608 36.1581C40.9502 37.4455 39.9966 38.113 38.9 38.113V35.3476C39.8059 35.3476 40.6165 35.0138 41.4747 34.2986C41.7131 34.1079 41.8561 33.3451 41.8561 32.1054C41.8561 31.3425 41.6654 28.1957 41.284 22.7602C40.9025 17.3248 40.7118 14.0826 40.7118 13.1767C40.7118 12.2708 40.5688 11.5556 40.2827 10.9834C40.2827 10.6497 40.5211 9.8868 41.0456 8.64714C41.1409 8.5041 41.1886 8.45642 41.1886 8.45642C41.2363 8.45642 41.3316 8.55178 41.3793 8.69482C41.5224 9.02857 41.8561 9.8868 42.4283 11.3172C43.0004 12.7952 43.3342 13.7012 43.4295 14.0349C43.5249 14.321 43.5249 14.464 43.5249 14.6071C43.5249 15.0362 43.1435 14.7978 42.3329 13.8919C42.2375 13.7488 42.1899 13.7965 42.1899 14.0349C42.1899 14.0826 42.3806 16.5142 42.7143 21.3299C43.0004 26.0978 43.1911 28.9586 43.1911 29.8645Z" fill="#124D73"/>
<path d="M44.9074 14.3687C44.9074 13.4628 44.7643 12.7476 44.4782 12.1754C44.4782 11.8417 44.7166 11.0788 45.2411 9.88683C45.3365 9.7438 45.3842 9.64844 45.4318 9.64844C45.4795 9.64844 45.5272 9.7438 45.6226 9.88683C45.7656 10.2206 46.0994 11.0788 46.6715 12.5092C47.2437 13.9873 47.5774 14.8932 47.6728 15.2269C47.7681 15.513 47.7681 15.7037 47.7681 15.8468C47.7681 16.2282 47.3867 15.9898 46.5761 15.1316C46.4808 14.9885 46.4331 15.0362 46.4331 15.2746C46.4331 15.37 46.6238 18.183 47.0529 23.8092C47.4344 29.3877 47.6728 32.5345 47.6728 33.2497C47.6728 35.3953 47.339 37.3025 46.7192 38.9236C46.5761 39.2573 46.4331 39.4957 46.3854 39.6388C46.2424 39.8772 46.1947 39.9248 46.147 39.7818C46.0993 39.5911 46.0994 39.2573 46.1947 38.7329C46.2901 38.0177 46.3377 37.1118 46.3377 36.1582C46.3377 35.2523 46.0993 31.6286 45.6702 25.2396C45.0981 18.7552 44.9074 15.1316 44.9074 14.3687Z" fill="#124D73"/>
</svg>
