<svg width="49" height="49" viewBox="0 0 49 49" fill="none" xmlns="http://www.w3.org/2000/svg">
<path d="M12.5742 40.8945C13.6456 39.6803 15.0437 38.6057 16.8151 37.6706C17.8407 37.1096 19.6123 36.3145 22.1299 35.1919L22.1333 37.9907C20.5481 38.6457 19.3826 39.2069 18.5901 39.581C17.0516 40.2826 15.9794 40.8903 15.3736 41.3575C14.3017 42.1985 12.7643 43.7864 10.7613 46.1212C9.55015 47.522 8.33818 48.2232 7.12535 48.2247C6.09911 48.226 5.21225 47.7606 4.41811 46.8286C3.62397 45.8966 3.20268 44.6843 3.20097 43.2849C3.19865 41.3723 3.98865 38.8991 5.52426 35.8185C5.71045 35.4917 5.80357 35.3517 5.89687 35.3516C5.94357 35.3981 5.99028 35.4447 5.99033 35.4914C5.99073 35.8179 5.6655 36.8912 4.96801 38.7113C4.31716 40.5313 3.94574 41.9778 3.94705 43.0507C3.94807 43.8904 4.13545 44.5432 4.50914 44.9626C4.88294 45.4752 5.44304 45.7544 6.1894 45.7535C7.44887 45.752 8.7542 45.0974 10.0587 43.7896C10.9438 42.809 11.7356 41.8284 12.5742 40.8945Z" fill="#124D73"/>
<path d="M16.6596 24.9361C19.5038 23.9064 22.5812 22.7832 25.7984 21.6131C25.9849 21.5662 26.0782 21.5194 26.0782 21.5661C26.1249 21.6127 26.1251 21.706 26.0319 21.846C25.8459 22.3127 25.7063 22.5461 25.5664 22.6396C22.8621 23.6225 19.6915 24.8392 16.0549 26.3829C16.241 25.9162 16.3804 25.4963 16.6596 24.9361Z" fill="#124D73"/>
<path d="M26.7988 38.5914C27.2186 38.5909 27.4051 38.4974 27.4048 38.2642C27.4044 37.9376 27.1242 37.6581 26.5642 37.4722C26.0975 37.2862 25.3978 37.287 24.5118 37.5213C24.9792 38.2671 25.7259 38.5927 26.7988 38.5914ZM22.9227 34.9576C24.2749 34.4895 25.3474 34.2083 26.1404 34.2074C27.0267 34.2063 27.7269 34.5786 28.2409 35.3244C28.7549 36.0701 29.036 37.0493 29.0374 38.2155C29.0386 39.1951 28.8064 40.035 28.3874 40.6886C27.9683 41.3422 27.409 41.6694 26.7093 41.6702C25.7763 41.6714 24.8895 41.2526 24.0022 40.4141C23.3016 39.7152 22.7409 38.9229 22.3199 37.9438L24.2324 37.9415L21.6172 35.4724C21.5704 35.3325 21.7567 35.1457 22.1763 34.9586C22.596 34.8181 22.8758 34.7711 22.9227 34.9576Z" fill="#124D73"/>
<path d="M25.2699 8.83235C28.1142 7.80265 31.1915 6.67938 34.4088 5.50928C34.5953 5.46241 34.6885 5.41565 34.6886 5.4623C34.7353 5.50889 34.7354 5.60218 34.6423 5.74224C34.4563 6.20893 34.3166 6.44234 34.1768 6.53581C31.4724 7.51869 28.3019 8.73537 24.6653 10.2792C24.8513 9.81245 25.0374 9.3924 25.2699 8.83235Z" fill="#124D73"/>
<path d="M29.8032 15.7306L30.5942 14.097C30.6874 13.9569 30.734 13.9102 30.7806 13.9102C30.8739 13.9101 31.3407 14.1894 32.1343 14.7015C32.928 15.2603 33.3482 15.5397 33.3483 15.633C33.3487 15.9595 33.0231 16.7063 32.3247 17.8267C32.2316 17.9667 32.1384 18.0135 32.045 17.9203C31.3446 17.408 30.5976 16.8958 29.7107 16.3371C29.4316 16.9905 29.1524 17.5506 28.873 17.9708C28.7799 18.1109 28.7333 18.1576 28.6399 18.111C27.8462 17.5056 27.0525 16.9468 26.2122 16.4347C26.1655 16.3881 26.1655 16.3414 26.212 16.2481L27.2358 14.241C27.3289 14.101 27.3755 14.0543 27.4222 14.0542C27.5155 14.0541 27.8889 14.2869 28.5425 14.7059C29.1961 15.1249 29.6164 15.4976 29.8032 15.7306Z" fill="#124D73"/>
<path d="M31.8672 25.3374C31.8668 25.0109 31.5862 24.4515 31.0722 23.7524C30.5115 22.9601 29.9979 22.5875 29.5781 22.588C29.2516 22.5884 28.9253 22.7754 28.6459 23.1956C28.3198 23.5692 28.1804 23.9891 28.1808 24.3157C28.1812 24.6422 28.3684 25.1551 28.6958 25.8544C28.9765 26.5071 29.2102 26.9267 29.3504 27.1597C29.8167 26.9726 30.2828 26.6921 30.8421 26.3183C31.5413 25.851 31.8674 25.524 31.8672 25.3374ZM25.4808 28.8904L28.0451 27.8144C27.6707 26.8353 27.483 25.8559 27.4817 24.783C27.4798 23.2436 27.7115 21.9839 28.1768 21.0504C28.6422 20.1169 29.248 19.6497 29.9944 19.6487C30.6474 19.648 31.3012 20.2069 31.8623 21.3258C32.3766 22.3047 32.6576 23.2373 32.6586 24.0304C32.6611 26.0828 32.0566 27.7162 30.8454 29.0238C31.6861 29.9091 32.7129 30.3743 33.9258 30.3728L33.9295 33.4516C32.7633 33.453 31.5965 32.9413 30.4292 31.9631C29.7755 31.4508 29.2617 30.8916 28.8877 30.239L25.4842 31.6892C24.7383 32.0167 24.0856 32.344 23.5263 32.7178C22.9203 33.0918 22.6407 33.3253 22.6409 33.4653C22.6412 33.7452 22.8284 34.2581 23.1558 34.9574C22.8301 35.6108 22.3638 35.798 21.8037 35.4721C21.7566 35.099 21.7561 34.7258 21.709 34.3527C21.7525 31.7404 22.9631 29.9197 25.4808 28.8904Z" fill="#124D73"/>
<path d="M38.6765 24.303C38.6802 27.2884 38.1232 29.6214 37.0524 31.3487C36.1213 32.7959 35.0959 33.5435 33.8365 33.545L33.8327 30.4196C34.8122 30.4184 35.7914 30.0441 36.6767 29.25C36.9563 29.0164 37.0952 28.1766 37.0935 26.7772C37.0925 25.9375 36.855 22.4393 36.4277 16.2824C36.0005 10.1721 35.7629 6.58054 35.7615 5.50766C35.7604 4.52807 35.5727 3.68864 35.2921 3.03592C35.2916 2.66275 35.5704 1.77611 36.1285 0.422661C36.2217 0.282606 36.2682 0.189255 36.3148 0.189198C36.4081 0.189084 36.4549 0.282322 36.5484 0.42215C36.7354 0.795101 37.1098 1.77424 37.7181 3.31286C38.3731 4.94471 38.7475 5.9705 38.8413 6.34356C38.9349 6.62333 38.9818 6.85651 38.982 6.99645C38.9826 7.46293 38.5625 7.2302 37.6283 6.2051C37.5348 6.06527 37.4882 6.11197 37.4885 6.34521C37.4886 6.39185 37.6785 9.14381 38.1049 14.5077C38.4848 20.0583 38.6753 23.2767 38.6765 24.303Z" fill="#124D73"/>
<path d="M41.6474 12.311C41.6462 11.3314 41.4586 10.492 41.178 9.88593C41.1775 9.51275 41.4564 8.67276 42.0145 7.31931C42.1076 7.13261 42.1542 7.08591 42.2008 7.08585C42.2475 7.08579 42.3409 7.17897 42.4343 7.3188C42.6214 7.69175 42.9957 8.67089 43.604 10.2095C44.2591 11.8414 44.6335 12.8672 44.7272 13.2402C44.8209 13.52 44.8678 13.7532 44.868 13.8931C44.8685 14.3596 44.4484 14.0802 43.5142 13.0551C43.4207 12.9153 43.3741 12.962 43.3745 13.2419C43.3746 13.3352 43.6117 16.5069 44.0857 22.757C44.5598 29.0072 44.7507 32.5522 44.7516 33.2985C44.7546 35.7242 44.3839 37.8237 43.6865 39.6438C43.5003 40.0172 43.4073 40.2506 43.3142 40.4373C43.1746 40.7173 43.0814 40.7641 43.0812 40.5775C43.0343 40.391 43.0338 39.9712 43.1264 39.4113C43.2187 38.5715 43.3108 37.6385 43.3095 36.5189C43.3083 35.5393 43.0234 31.4347 42.5016 24.2983C41.8866 17.2087 41.6485 13.1973 41.6474 12.311Z" fill="#124D73"/>
</svg>
