<svg width="49" height="49" viewBox="0 0 49 49" fill="none" xmlns="http://www.w3.org/2000/svg">
<path d="M3.47166 35.0908C5.54858 35.0908 7.81011 34.26 10.2101 32.5985C12.1024 31.3062 13.5793 29.9677 14.5947 28.5831C14.9178 28.1216 15.0562 27.937 15.0562 27.8908C15.1485 27.7062 15.2409 27.4293 15.2409 27.0139C15.2409 26.137 15.0101 24.7524 14.5024 22.8601C14.1332 21.3831 13.2562 19.1678 11.8716 16.1678C11.8255 16.0755 11.8716 15.7062 11.9639 15.0601C12.0563 14.4139 12.1486 13.9985 12.2409 13.6755C12.3332 13.3524 12.4255 13.3062 12.6101 13.4909C14.2255 15.6601 15.4716 18.6139 16.2562 22.3985C16.5793 24.1062 17.0408 26.46 17.5485 29.46C17.7793 30.7523 18.1947 31.6293 18.8408 32.0446C19.1639 32.2293 19.6716 32.3677 20.3639 32.3677V35.1369C19.3947 35.1369 18.6101 34.9523 18.0562 34.5369C17.2716 33.9369 16.7178 32.8754 16.4409 31.26C16.3485 30.7062 16.1178 29.5985 15.887 27.937C15.6562 29.2754 15.1947 30.337 14.5024 31.2139C13.1178 32.9216 11.5024 34.3523 9.51779 35.5985C7.25626 37.0292 5.2255 37.7215 3.37935 37.7215C2.36397 37.7215 1.67167 37.3062 1.16397 36.4754C0.748592 35.8292 0.517822 34.9985 0.517822 33.9831C0.517822 32.0446 0.933206 30.06 1.76397 28.0754C1.94859 27.6139 2.08705 27.4293 2.17936 27.4293C2.22551 27.4293 2.22551 27.4754 2.22551 27.5677C2.22551 27.7062 2.17936 27.8908 2.08705 28.2139C1.48705 30.1985 1.21013 31.7216 1.21013 32.7831C1.25628 34.3523 1.99474 35.0908 3.47166 35.0908Z" fill="#124D73"/>
<path d="M26.0406 15.1063C26.0406 15.337 25.8098 15.7524 25.3021 16.4447C24.7021 17.2293 24.1944 17.8293 23.6867 18.1986C23.3637 18.4293 22.3021 18.7986 20.456 19.2601C20.1329 19.3062 19.9483 19.3524 19.9483 19.3524C19.9944 19.3063 20.0867 19.2139 20.3175 19.0755C20.5483 18.8909 21.1944 18.5216 22.3021 17.9678C23.3175 17.4139 23.9175 17.0447 24.056 16.9063C24.1021 16.8601 24.1021 16.8139 24.1021 16.8139C24.1021 16.5832 23.179 16.4909 21.379 16.4909C21.379 16.4909 21.056 16.4909 20.3637 16.537C19.9944 16.5832 19.8098 16.537 19.8098 16.4909C19.8098 16.4447 19.856 16.3524 19.9483 16.214L20.5944 15.1524C20.779 14.8293 21.1483 14.6447 21.656 14.5524C21.8406 14.5063 22.256 14.5063 22.9021 14.5063C25.0252 14.414 26.0406 14.6447 26.0406 15.1063Z" fill="#124D73"/>
<path d="M32.4102 29.0446C32.1794 29.6907 31.9025 30.383 31.4871 31.1677C29.9179 32.5061 28.6256 33.4753 27.6102 34.0292C25.8564 34.9984 24.0564 35.46 22.3025 35.46C21.4256 35.46 20.7333 35.3676 20.2718 35.2292L19.7179 32.4138C18.6564 31.0753 18.1025 29.7369 18.1025 28.4907C18.1025 26.5061 18.7025 24.9831 19.9487 23.9215C21.0102 22.9985 22.3025 22.5831 23.8256 22.5831C25.8564 22.5831 27.7025 23.2292 29.3179 24.5677C29.5948 24.7984 29.7333 24.9369 29.7333 25.0754C29.7333 25.1215 29.6871 25.1677 29.5487 25.1677C29.4102 25.1677 29.2256 25.1215 28.9487 24.9831C27.8871 24.6138 26.9179 24.4292 26.0871 24.4292C24.8871 24.4292 23.641 24.6138 22.3487 24.9831C21.0564 25.3523 20.1333 25.7677 19.5333 26.3215C19.5333 27.66 19.9948 28.9523 20.8718 30.2446C22.0256 31.8138 23.4564 32.5984 25.2102 32.5984C26.0871 32.5984 27.2871 32.183 28.7179 31.3523C29.8717 30.7061 30.9794 29.9215 31.9948 29.0446C32.2256 28.86 32.364 28.7677 32.4102 28.7677C32.5025 28.6754 32.5025 28.8138 32.4102 29.0446Z" fill="#124D73"/>
<path d="M31.8104 23.7831C34.395 22.86 37.1181 21.8446 40.0258 20.7831C40.1643 20.737 40.2566 20.6908 40.2566 20.737C40.3027 20.7831 40.3027 20.8754 40.2104 20.9677C40.0258 21.3831 39.8873 21.6139 39.795 21.7062C37.3489 22.5831 34.5335 23.6908 31.2566 25.0292C31.4412 24.66 31.5797 24.2446 31.8104 23.7831Z" fill="#124D73"/>
<path d="M37.995 28.2138C37.995 28.5369 37.9026 28.9522 37.7642 29.3215C37.5334 29.8292 37.2565 30.0599 36.9334 30.0599C36.4257 30.0599 36.0103 29.6907 35.8257 28.9984C35.595 29.9215 35.1334 30.383 34.4411 30.383C34.2104 30.383 33.9796 30.2445 33.795 30.0138C33.5642 29.6907 33.4719 29.3215 33.4719 28.8599V27.7061C33.4719 27.6138 33.4257 27.5215 33.2873 27.5215C33.1488 27.4753 33.1027 27.383 33.1027 27.2446C33.1027 27.0138 33.195 26.7369 33.4257 26.5061C33.6104 26.3215 33.7488 26.183 33.8411 26.183C33.9796 26.183 34.0257 26.4138 34.0257 26.9215C34.0257 27.1984 34.0257 27.4292 33.9796 27.6138C33.9334 27.7984 33.9334 27.9369 33.9334 28.0753C33.9334 28.3522 33.9796 28.6292 34.118 28.8599C34.2104 29.1369 34.395 29.2753 34.5796 29.2753C34.8104 29.2753 35.0411 29.183 35.2719 28.9522C35.5027 28.7215 35.595 28.4445 35.595 28.1676C35.595 27.983 35.5488 27.7061 35.4103 27.2446C35.318 26.8292 35.2719 26.5522 35.2719 26.4599C35.2719 26.3676 35.318 26.2292 35.4103 25.9984C35.5027 25.8138 35.595 25.6753 35.595 25.6753C35.6873 25.6753 35.7796 25.9522 35.918 26.5522C36.0565 27.1061 36.1027 27.5215 36.1027 27.7984C36.1027 28.583 36.4257 28.9984 37.0257 28.9522C37.3026 28.9522 37.4411 28.8138 37.5334 28.583C37.0257 27.7061 36.7488 27.0138 36.7488 26.5061C36.7488 26.2292 36.795 25.9984 36.9334 25.7676C37.0257 25.6292 37.0719 25.5369 37.118 25.5369C37.1642 25.5369 37.2103 25.6292 37.2103 25.8138C37.2565 26.0446 37.2565 26.2753 37.3027 26.4599C37.3488 26.4599 37.4411 26.783 37.718 27.4292C37.9026 27.7061 37.995 27.983 37.995 28.2138Z" fill="#124D73"/>
<path d="M31.9022 40.8139C32.8714 39.7523 34.1637 38.7831 35.6868 37.9062C36.6099 37.3985 38.2252 36.66 40.4868 35.6908V38.2292C39.056 38.8292 37.9945 39.2908 37.3022 39.66C35.9175 40.3062 34.9483 40.8139 34.4406 41.2292C33.4714 41.9677 32.0868 43.3985 30.2868 45.5215C29.2253 46.7677 28.1176 47.4138 27.0099 47.4138C26.0868 47.4138 25.256 46.9985 24.5637 46.1677C23.8253 45.2908 23.5022 44.2754 23.5022 42.9831C23.5022 41.2754 24.1945 39.0139 25.6253 36.2908C25.7637 36.0139 25.9022 35.8754 25.9483 35.8754C25.9945 35.9216 25.9945 35.9216 25.9945 35.9677C25.9945 36.2446 25.6714 37.2139 25.0714 38.8754C24.4714 40.5369 24.1483 41.8292 24.1483 42.7985C24.1483 43.5369 24.333 44.1369 24.656 44.5523C25.0253 45.0138 25.533 45.2908 26.1791 45.2908C27.333 45.2908 28.4868 44.6908 29.6406 43.5369C30.4253 42.5677 31.1637 41.6908 31.9022 40.8139Z" fill="#124D73"/>
<path d="M44.6869 1.90625C44.6869 2.13702 44.4562 2.5524 43.9485 3.24471C43.3485 4.02932 42.8408 4.62932 42.3331 4.99855C42.01 5.22932 40.9485 5.59855 39.1023 6.06008C38.7792 6.10624 38.5946 6.15239 38.5946 6.15239C38.6408 6.10624 38.7331 6.01393 38.9639 5.87547C39.1946 5.69086 39.8408 5.32162 40.9485 4.76778C41.9639 4.21394 42.5639 3.84471 42.7023 3.70625C42.7485 3.66009 42.7485 3.61394 42.7485 3.61394C42.7485 3.38317 41.8254 3.29086 40.0254 3.29086C40.0254 3.29086 39.7023 3.29086 39.01 3.33702C38.6408 3.38317 38.4562 3.33701 38.4562 3.29086C38.4562 3.24471 38.5023 3.1524 38.5946 3.01394L39.2408 1.9524C39.4254 1.62933 39.7946 1.44471 40.3023 1.35241C40.4869 1.30625 40.9023 1.30625 41.5485 1.30625C43.6715 1.21394 44.6869 1.44471 44.6869 1.90625Z" fill="#124D73"/>
<path d="M41.8716 13.1217C41.8716 12.2448 41.7331 11.5063 41.4562 10.9063C41.4562 10.5832 41.687 9.79862 42.2408 8.55247C42.3331 8.41401 42.3793 8.36786 42.4254 8.36786C42.4716 8.36786 42.5639 8.46017 42.6101 8.59863C42.7485 8.9217 43.1177 9.79863 43.6254 11.2294C44.1793 12.7063 44.5485 13.6294 44.6408 13.9525C44.7331 14.2294 44.7331 14.414 44.7331 14.5063C44.7331 14.9217 44.3639 14.6909 43.5331 13.814C43.4408 13.6755 43.3947 13.7217 43.3947 13.9525C43.3947 13.9986 43.5793 16.4448 43.9024 21.2909C44.2716 26.0909 44.41 28.9986 44.41 29.9216C44.41 31.4447 44.1331 32.9216 43.6254 34.3062C42.887 36.2909 41.7793 37.5832 40.3024 38.2293V35.737C42.1485 34.9524 43.0254 33.7524 43.0254 32.1832C43.0254 31.3986 42.8408 28.2601 42.4254 22.7678C42.0562 17.2755 41.8716 14.0448 41.8716 13.1217Z" fill="#124D73"/>
<path d="M45.6563 15.1986C45.6563 14.3217 45.5179 13.5832 45.241 13.0294C45.241 12.7063 45.4717 11.9217 46.0256 10.7217C46.1179 10.5832 46.164 10.4909 46.2102 10.4909C46.2564 10.4909 46.3025 10.5832 46.3948 10.7217C46.5794 11.0448 46.9025 11.9217 47.4102 13.3524C47.964 14.8294 48.3333 15.7524 48.4256 16.0755C48.5179 16.3524 48.5179 16.537 48.5179 16.6755C48.5179 17.0909 48.1487 16.814 47.3179 15.937C47.2256 15.7986 47.1794 15.8447 47.1794 16.1217C47.1794 16.214 47.364 19.0755 47.7794 24.7063C48.1948 30.337 48.3794 33.5216 48.3794 34.2139C48.3794 36.3831 48.0563 38.2754 47.4102 39.937C47.2717 40.2601 47.1333 40.4908 47.0871 40.6293C46.9487 40.8601 46.8563 40.9062 46.8563 40.7677C46.8102 40.5831 46.8102 40.2601 46.9025 39.7062C46.9948 38.9677 47.041 38.0908 47.041 37.1216C47.041 36.2447 46.8102 32.5524 46.3487 26.137C45.8871 19.5832 45.6563 15.9832 45.6563 15.1986Z" fill="#124D73"/>
</svg>
