<svg width="49" height="49" viewBox="0 0 49 49" fill="none" xmlns="http://www.w3.org/2000/svg">
<path d="M46.322 14.169C46.3212 13.475 46.2193 12.9258 46.0019 12.4634C46.0016 12.2176 46.1744 11.6246 46.5926 10.7277C46.6213 10.6265 46.6646 10.5541 46.6936 10.5541C46.7658 10.554 46.7948 10.6263 46.8673 10.7274C46.9688 10.973 47.2153 11.6233 47.6359 12.7072C48.0855 13.8488 48.3321 14.5425 48.4048 14.8171C48.4773 14.9905 48.4775 15.164 48.4776 15.2363C48.4779 15.5543 48.203 15.3812 47.5805 14.688C47.5081 14.5868 47.4793 14.6592 47.4795 14.8327C47.4796 14.905 47.6557 17.059 47.979 21.3526C48.3022 25.6172 48.4353 28.0171 48.4359 28.5665C48.4379 30.2002 48.1939 31.6608 47.7183 32.9047C47.574 33.1507 47.5164 33.3242 47.4443 33.4545C47.3433 33.6281 47.2999 33.6281 47.2709 33.527C47.2418 33.3824 47.2704 33.1077 47.2988 32.7317C47.3704 32.1389 47.3985 31.4882 47.3976 30.7509C47.3968 30.0569 47.2199 27.2812 46.867 22.3949C46.4996 17.5086 46.3228 14.7618 46.322 14.169Z" fill="#124D73"/>
<path d="M43.1556 14.1439C43.1548 13.4789 43.0096 12.9296 42.8066 12.4817C42.8063 12.2359 43.008 11.6429 43.3972 10.7171C43.426 10.6159 43.4983 10.5724 43.5416 10.5724C43.585 10.5723 43.614 10.6012 43.6864 10.7168C43.7879 10.9913 44.0634 11.6561 44.484 12.7254C44.9047 13.8382 45.1513 14.5608 45.2095 14.8065C45.282 15.0088 45.3111 15.1534 45.3112 15.2546C45.3116 15.5726 44.9933 15.3995 44.4141 14.7063C44.3851 14.6051 44.3418 14.6341 44.342 14.8076C44.342 14.8365 44.4894 17.164 44.842 21.7467C45.1656 26.3295 45.3423 28.9606 45.3432 29.6979C45.3446 30.8401 45.1436 31.9536 44.7256 33.024C44.178 34.5138 43.3117 35.5269 42.1991 36.0054L42.1968 34.097C43.584 33.5025 44.2769 32.6053 44.2754 31.3908C44.2747 30.798 44.0688 27.9501 43.7157 22.8903C43.3336 17.7871 43.1566 14.9102 43.1556 14.1439Z" fill="#124D73"/>
<path d="M40.8938 32.5371C40.8937 32.5082 40.8937 32.4648 40.8937 32.4648C40.8933 32.1468 40.5458 31.699 39.8222 31.1505C38.9828 30.4864 38.1584 30.1838 37.3632 30.1848C35.6282 30.1869 33.8232 31.9529 31.9625 35.5697C32.4109 35.7426 33.0038 35.8431 33.7701 35.8422C35.1291 35.8405 36.5744 35.4195 38.1782 34.5934C39.5798 33.8978 40.4753 33.2027 40.8938 32.5371ZM31.1117 37.3779C30.838 38.2168 30.5927 38.622 30.4481 38.6221C30.4192 38.6222 30.3758 38.5499 30.3756 38.4487C30.3753 38.174 30.476 37.7546 30.6488 37.205C29.8096 36.6855 29.4038 35.8909 29.4025 34.7776C28.8104 35.3711 28.1605 35.8924 27.4237 36.3415C26.5279 36.8919 25.7187 37.211 25.0247 37.2118L25.0221 35.101C26.5113 35.0992 28.1442 34.3743 29.8774 32.9843C29.9785 32.9118 30.0508 32.9117 30.1232 32.955C30.1521 32.9839 30.1956 33.0995 30.1235 33.2297C30.0515 33.4756 30.0228 33.6781 30.0231 33.8515C30.0237 34.4009 30.4436 34.9209 31.3116 35.3391C32.4944 33.1112 33.389 31.592 33.9808 30.7961C35.2944 29.0885 36.5512 28.2195 37.7656 28.218C38.8789 28.2167 39.8481 28.6348 40.6876 29.4289C41.3824 30.0931 41.7012 30.7144 41.7019 31.2638C41.7027 31.9578 41.6022 32.5507 41.357 33.0281C41.083 33.6212 40.5923 34.2724 39.8991 34.9383C40.3905 34.7932 41.142 34.5175 42.2258 34.068L42.2281 35.9765C39.3814 37.1944 36.4761 37.8196 33.5267 37.8232C32.7026 37.8242 31.9072 37.6517 31.1117 37.3779Z" fill="#124D73"/>
<path d="M22.8799 32.906C23.0546 33.8745 23.4024 34.5391 23.851 34.8422C24.1258 34.9864 24.5163 35.0872 25.0368 35.0865L25.0394 37.1974C24.2731 37.1983 23.6801 37.0255 23.2749 36.708C22.6527 36.2605 22.2613 35.4658 22.0575 34.2516C21.912 33.4855 21.7786 30.8543 21.5996 26.2714C21.449 21.3848 21.3154 18.4934 21.242 17.5971C21.0668 16.1805 20.7904 14.7928 20.3985 13.5066C20.3981 13.1596 20.542 12.6389 20.8159 11.9446C20.888 11.771 20.9168 11.6987 20.9891 11.6986C21.018 11.6986 21.0904 11.7708 21.1628 11.9008C21.6121 12.7677 21.9319 14.2565 22.1803 16.3815C22.3265 17.697 22.4603 20.7185 22.6107 25.5473C22.7464 30.1014 22.8506 32.5591 22.8799 32.906Z" fill="#124D73"/>
<path d="M31.0529 24.7958C30.5315 24.0302 29.9383 23.655 29.3166 23.6557C28.8684 23.6563 28.6228 23.8011 28.6231 24.0758C28.6235 24.4228 28.8985 24.6249 29.4914 24.6965C29.8383 24.6961 30.3299 24.7244 31.0529 24.7958ZM30.4046 26.705L29.0167 26.7067C28.4962 26.7073 28.0768 26.5633 27.7727 26.2166C27.4542 25.87 27.3236 25.4509 27.3229 24.9015C27.322 24.1786 27.5669 23.441 28.0865 22.7175C28.5772 21.994 29.0972 21.603 29.6177 21.6023C30.5141 21.6013 31.3243 22.0918 32.0774 23.0885C32.8738 24.1285 33.2946 25.4147 33.2965 26.9039C33.2983 28.3931 32.8803 29.4779 32.0859 30.1006C31.5948 30.5204 30.5255 30.9699 28.8636 31.5647C26.7825 32.2902 24.8745 32.6395 23.2118 32.6415C21.2311 32.6439 19.8864 32.501 19.0763 32.1983L19.0738 30.0875C19.7392 30.4047 21.1273 30.5332 23.2671 30.5306C26.2165 30.527 29.3096 29.757 32.6329 28.1626C32.7052 28.1335 32.7774 28.0612 32.7773 27.9889C32.777 27.7431 32.5309 27.4687 32.1113 27.1945C31.6193 26.877 31.0263 26.7043 30.4046 26.705Z" fill="#124D73"/>
<path d="M17.4676 28.8933C17.9887 29.4132 18.582 29.8317 19.204 30.1346L19.2066 32.2454C18.3676 31.8995 17.7455 31.5532 17.2969 31.2357C16.6746 30.7449 16.1824 30.1672 15.8344 29.4013C15.4575 28.5632 15.1658 26.4238 15.0314 22.9541C15.0008 21.5373 14.9264 19.8313 14.8229 17.8941C14.6475 16.3618 14.4002 15.1187 14.0231 14.1071C14.0227 13.789 14.1666 13.2395 14.5126 12.4439C14.5847 12.2703 14.6569 12.1979 14.6858 12.1979C14.7147 12.1978 14.7871 12.27 14.8596 12.4001C15.2798 13.1947 15.5852 14.6257 15.8045 16.664C15.8775 17.2567 15.951 18.2253 15.9815 19.5843C16.0127 21.3915 16.0573 22.4613 16.0866 22.7793C16.2064 26.1189 16.7004 28.128 17.4676 28.8933Z" fill="#124D73"/>
<path d="M7.1614 30.6986C9.44574 30.6958 12.0186 30.2011 14.967 29.3012C17.3226 28.532 18.8544 27.9085 19.5478 27.3872C19.62 27.3582 19.6199 27.2859 19.6198 27.1847C19.6195 26.91 19.1993 26.1731 18.3016 25.0754C18.1278 24.8732 18.0553 24.6275 18.1272 24.3816C18.2279 23.89 18.3719 23.485 18.545 23.1378C18.6459 22.8919 18.747 22.7616 18.8193 22.7615C18.8482 22.7615 18.9929 22.8625 19.1666 23.0792C19.4127 23.3247 19.659 23.7003 19.891 24.2638C20.2677 24.9284 20.4419 25.5065 20.4425 25.9981C20.4445 27.6318 19.9254 28.8469 18.8564 29.5711C18.1631 30.0925 16.6024 30.7161 14.2033 31.4563C11.1828 32.3998 8.58089 32.8511 6.29655 32.8539C4.07004 32.8566 2.50787 32.2657 1.50885 31.0958C0.813908 30.3015 0.49457 29.2609 0.493041 28.0031C0.491441 26.6874 0.808037 25.4726 1.42834 24.3297C1.63032 23.9824 1.77466 23.7798 1.84695 23.7798C1.84695 23.7798 1.8759 23.8086 1.87598 23.8809C1.87611 23.9821 1.80408 24.1991 1.70325 24.5028C1.55918 24.9223 1.38614 25.2984 1.25653 25.7178C1.08367 26.2385 1.01205 26.788 1.01277 27.3808C1.0137 28.147 1.36148 28.7972 2.12846 29.3891C3.1994 30.2552 4.87706 30.7014 7.1614 30.6986Z" fill="#124D73"/>
<path d="M27.9959 19.3383C27.967 19.3094 27.9669 19.266 27.9957 19.1937L28.6591 17.805C28.6879 17.7326 28.7602 17.7036 28.8036 17.7036C28.8758 17.7035 29.1797 17.8766 29.7006 18.223C30.2504 18.5982 30.5398 18.8147 30.5399 18.887C30.5402 19.1328 30.295 19.6102 29.8189 20.3771C29.7467 20.4783 29.7178 20.5218 29.6455 20.4785C29.11 20.0598 28.5602 19.6846 27.9959 19.3383Z" fill="#124D73"/>
<path d="M10.0692 20.1553L10.6172 19.0124C10.646 18.9401 10.6893 18.9111 10.7616 18.911C10.8339 18.911 11.1088 19.0841 11.6587 19.4593C12.1796 19.8057 12.4545 20.0078 12.4546 20.0801C12.4549 20.3259 12.2098 20.8466 11.7625 21.6134C11.6903 21.7147 11.618 21.7148 11.5602 21.686C11.1116 21.3395 10.5907 20.9932 9.99743 20.618C9.79553 21.0375 9.6225 21.4136 9.40602 21.732C9.37722 21.8332 9.30498 21.8767 9.23264 21.8334C8.71165 21.4147 8.1618 21.0395 7.59752 20.6932C7.56857 20.6643 7.56851 20.621 7.59734 20.5486L8.26071 19.1599C8.28954 19.0875 8.36174 19.0152 8.40512 19.0151C8.47741 19.015 8.7234 19.1882 9.17198 19.5057C9.60605 19.7799 9.92441 20.0109 10.0692 20.1553Z" fill="#124D73"/>
<path d="M39.9153 24.4564C39.9157 24.7311 39.8438 25.0492 39.714 25.3241C39.5409 25.7002 39.3388 25.9173 39.093 25.9176C38.6737 25.9181 38.3987 25.6438 38.2245 25.0801C38.023 25.7743 37.6764 26.1507 37.1559 26.1513C36.9824 26.1515 36.8088 26.0505 36.664 25.8338C36.4902 25.6316 36.4176 25.3136 36.4171 24.9666L36.4161 24.0703C36.416 23.998 36.3436 23.9691 36.2713 23.9259C36.1701 23.8971 36.1266 23.8248 36.1265 23.7236C36.1262 23.5212 36.1983 23.3476 36.3282 23.174C36.4726 23.0003 36.5737 22.9279 36.646 22.9278C36.7472 22.9277 36.8197 23.1011 36.8202 23.477C36.8204 23.6794 36.7917 23.8529 36.7919 23.9975C36.7631 24.1421 36.7633 24.2433 36.7634 24.3445C36.7636 24.5469 36.7928 24.7638 36.8653 24.9372C36.9668 25.1395 37.1115 25.2839 37.2416 25.2837C37.444 25.2835 37.6174 25.1821 37.7907 25.0084C37.964 24.8346 38.0649 24.6321 38.0646 24.3863C38.0645 24.2417 37.9919 24.0394 37.9192 23.6925C37.8176 23.3746 37.774 23.1722 37.7739 23.0999C37.7738 23.0276 37.8026 22.9264 37.8747 22.7528C37.9468 22.6082 38.019 22.5502 38.048 22.5502C38.1202 22.5501 38.1928 22.7524 38.2945 23.1716C38.3962 23.6197 38.4689 23.9376 38.4692 24.1401C38.4699 24.7328 38.6727 25.0362 39.1353 25.0356C39.3377 25.0354 39.4822 24.934 39.5108 24.7171C39.1341 24.0236 38.9166 23.5034 38.9161 23.1275C38.9159 22.925 38.9446 22.7515 39.0889 22.5778C39.1611 22.4766 39.1899 22.4042 39.2333 22.4042C39.2622 22.4041 39.3057 22.4764 39.3059 22.6065C39.335 22.78 39.3786 22.9534 39.4077 23.0979C39.4077 23.0979 39.5092 23.3436 39.6832 23.8205C39.8426 24.1095 39.9152 24.3118 39.9153 24.4564Z" fill="#124D73"/>
<path d="M23.7953 13.2711C26.4688 12.2992 29.2435 11.2548 32.1482 10.167C32.2494 10.1379 32.3216 10.0945 32.3506 10.1378C32.3506 10.1378 32.3507 10.2101 32.3219 10.3113C32.1777 10.6296 32.0767 10.8032 32.0045 10.8611C29.5766 11.7605 26.7009 12.8772 23.4351 14.2402C23.5214 13.9221 23.6222 13.6183 23.7953 13.2711Z" fill="#124D73"/>
<path d="M30.5351 15.1279C30.5354 15.4026 30.4635 15.7208 30.3337 15.9957C30.1607 16.3718 29.9585 16.5889 29.7128 16.5892C29.2935 16.5897 29.0184 16.3153 28.8443 15.7517C28.6427 16.4459 28.2962 16.8222 27.7757 16.8229C27.6022 16.8231 27.4286 16.7221 27.2837 16.5054C27.11 16.3032 27.0373 15.9852 27.0369 15.6382L27.0358 14.7418C27.0357 14.6695 26.9634 14.6407 26.8911 14.5974C26.7898 14.5686 26.7464 14.4964 26.7462 14.3952C26.746 14.1928 26.8181 14.0192 26.948 13.8455C27.0923 13.6719 27.1935 13.5995 27.2657 13.5994C27.367 13.5993 27.4394 13.7727 27.4399 14.1486C27.4402 14.351 27.4114 14.5245 27.4116 14.6691C27.3829 14.8137 27.383 14.9149 27.3831 15.0161C27.3834 15.2185 27.4126 15.4354 27.4851 15.6088C27.5865 15.811 27.7313 15.9554 27.8614 15.9553C28.0638 15.955 28.2372 15.8536 28.4104 15.6799C28.5837 15.5062 28.6847 15.3037 28.6844 15.0579C28.6842 14.9133 28.6117 14.711 28.539 14.3641C28.4374 14.0461 28.3938 13.8438 28.3937 13.7715C28.3936 13.6992 28.4224 13.598 28.4945 13.4244C28.5666 13.2797 28.6388 13.2218 28.6677 13.2218C28.74 13.2217 28.8125 13.424 28.9142 13.8432C29.016 14.2912 29.0887 14.6092 29.0889 14.8116C29.0896 15.4044 29.2924 15.7078 29.7551 15.7072C29.9575 15.707 30.1019 15.6056 30.1306 15.3887C29.7538 14.6952 29.5363 14.1749 29.5359 13.799C29.5356 13.5966 29.5643 13.4231 29.7087 13.2494C29.7809 13.1481 29.8097 13.0758 29.8531 13.0757C29.882 13.0757 29.9254 13.1479 29.9256 13.2781C29.9547 13.4515 29.9983 13.625 30.0274 13.7695C30.0274 13.7695 30.1289 14.0152 30.303 14.4921C30.4624 14.781 30.5349 14.9978 30.5351 15.1279Z" fill="#124D73"/>
<path d="M33.2464 21.2404C35.92 20.2684 38.6946 19.2241 41.5993 18.1362C41.7005 18.1072 41.7727 18.0637 41.8017 18.1071C41.8017 18.1071 41.8018 18.1793 41.773 18.2806C41.6288 18.5988 41.5278 18.7724 41.4556 18.8304C39.0277 19.7297 36.152 20.8465 32.8862 22.2095C32.9725 21.8913 33.0734 21.5876 33.2464 21.2404Z" fill="#124D73"/>
</svg>
