<svg width="49" height="49" viewBox="0 0 49 49" fill="none" xmlns="http://www.w3.org/2000/svg">
<path d="M12.4049 28.9261C12.5393 29.7266 12.8068 30.2267 13.174 30.4931C13.3743 30.5929 13.6746 30.6593 14.1083 30.6588L14.1104 32.3601C13.5099 32.3609 13.0093 32.228 12.6755 31.9949C12.208 31.6285 11.8736 30.9617 11.7056 29.9945C11.6048 29.3941 11.5025 27.6262 11.3989 24.724C11.295 21.5215 11.2259 19.5868 11.1583 18.8529C11.0234 17.6855 10.7886 16.5849 10.4871 15.5511C10.4867 15.2842 10.5863 14.8504 10.8192 14.3164C10.8524 14.1829 10.919 14.1161 10.9524 14.116C10.9857 14.116 11.0525 14.1826 11.086 14.2827C11.4538 14.9828 11.7222 16.1834 11.9243 17.8512C12.0257 18.8852 12.1283 20.9868 12.2322 24.0891C12.2691 27.0581 12.3378 28.6593 12.4049 28.9261Z" fill="#124D73"/>
<path d="M14.5635 35.6593L14.9962 34.7914C15.0294 34.7246 15.0628 34.6912 15.0961 34.6912C15.1628 34.6911 15.3966 34.8576 15.8306 35.124C16.2646 35.4237 16.4983 35.5902 16.4984 35.6236C16.4986 35.8237 16.2989 36.1909 15.9327 36.8252C15.8994 36.892 15.8327 36.9254 15.7993 36.8921C15.4321 36.6257 14.998 36.3259 14.5306 36.0263C14.3643 36.3934 14.2312 36.6938 14.0647 36.9276C14.0314 36.9943 13.9647 37.0278 13.9313 36.9944C13.4972 36.6614 13.0632 36.3617 12.5958 36.062C12.5624 36.062 12.5624 36.0287 12.5957 35.9619L13.1614 34.8603C13.1947 34.7936 13.228 34.7602 13.2614 34.7601C13.2948 34.7601 13.495 34.8599 13.8623 35.1264C14.2296 35.3928 14.4633 35.5593 14.5635 35.6593Z" fill="#124D73"/>
<path d="M15.775 29.4892C15.776 30.3232 15.6433 30.9572 15.377 31.3912C15.0108 32.0588 14.5442 32.3596 13.977 32.3603L13.975 30.6589C14.6422 30.6581 15.0422 30.4241 15.2085 29.9902C15.2082 29.7567 14.9741 29.2566 14.5061 28.5233C14.4727 28.4566 14.4393 28.3899 14.4392 28.3232C14.4386 27.8895 14.5382 27.4557 14.7378 27.0218C14.8044 26.8882 14.8711 26.8882 14.9713 27.0215C15.2721 27.4548 15.4393 27.7882 15.5397 28.055C15.707 28.4551 15.7743 28.922 15.775 29.4892Z" fill="#124D73"/>
<path d="M19.4722 35.8883C21.0395 35.3193 22.7067 34.7168 24.474 34.0475C24.5741 34.014 24.6074 34.0139 24.6408 34.0139C24.6742 34.0472 24.6409 34.0806 24.641 34.1807C24.5412 34.4143 24.4413 34.5813 24.408 34.6147C22.9408 35.1502 21.2069 35.8195 19.2063 36.6559C19.2394 36.4224 19.3391 36.1554 19.4722 35.8883Z" fill="#124D73"/>
<path d="M19.3666 31.3181C18.7995 31.3188 18.2988 31.0859 17.8979 30.586C17.4636 30.0527 17.2293 29.4192 17.2284 28.6519C17.2271 27.5844 17.6591 26.2161 18.5244 24.547C18.6243 24.3801 18.6909 24.28 18.7242 24.2799C18.7576 24.2799 18.7576 24.3132 18.7577 24.3466C18.7579 24.5134 18.5585 25.1141 18.1927 26.1154C17.827 27.1166 17.6278 27.9175 17.6285 28.4846C17.629 28.9183 17.7295 29.2851 17.93 29.5518C18.1305 29.8518 18.4643 29.9848 18.8646 29.9843C19.4651 29.9836 20.1986 29.6157 21.0316 28.8474C21.1316 28.7806 21.8312 27.9791 23.1972 26.5096C25.1962 24.3388 26.9629 23.2691 28.5642 23.2672C29.0313 23.2666 29.3984 23.3996 29.7323 23.6661C30.0662 23.9325 30.2334 24.2659 30.2339 24.6329C30.2345 25.0999 30.1349 25.5004 30.0018 25.8341C29.9686 25.9342 29.9019 26.0011 29.9019 26.0011C29.8686 26.0011 29.8018 25.9345 29.7349 25.8345C29.4006 25.2344 28.9333 24.9681 28.2661 24.9689C27.0651 24.9703 25.6649 25.7393 24.1323 27.3425C23.2661 28.311 22.3999 29.2461 21.5337 30.1812C20.7673 30.9161 20.0338 31.3173 19.3666 31.3181Z" fill="#124D73"/>
<path d="M30.6893 14.7912C30.6886 14.2574 30.588 13.7905 30.4208 13.4571C30.4205 13.2569 30.5867 12.7897 30.8861 12.0554C30.9193 11.9553 30.986 11.9218 30.986 11.9218C31.0194 11.9218 31.0528 11.9551 31.0862 12.0552C31.1866 12.2552 31.3874 12.7887 31.722 13.6557C32.0567 14.556 32.2909 15.1228 32.3245 15.3229C32.3581 15.4897 32.3916 15.6231 32.3917 15.6898C32.392 15.9233 32.1583 15.7902 31.6572 15.2237C31.5904 15.1237 31.5571 15.1904 31.5573 15.3239C31.5573 15.3572 31.6929 17.1251 31.9306 20.5609C32.1683 23.9967 32.3041 25.9315 32.3046 26.3318C32.3062 27.6662 32.1074 28.834 31.7083 29.8019C31.6085 30.0022 31.5419 30.1357 31.5087 30.2359C31.4088 30.3694 31.3754 30.4028 31.3753 30.3027C31.3418 30.2027 31.3749 29.9691 31.3745 29.6689C31.4407 29.2018 31.4734 28.7013 31.4727 28.0675C31.472 27.5337 31.3359 25.2988 31.0308 21.3627C30.8259 17.4598 30.6898 15.2582 30.6893 14.7912Z" fill="#124D73"/>
<path d="M33.5227 13.153C35.0899 12.584 36.7572 11.9815 38.5244 11.3122C38.6245 11.2787 38.6578 11.2786 38.6912 11.2786C38.7246 11.3119 38.6913 11.3453 38.6914 11.4454C38.5916 11.679 38.4917 11.846 38.4584 11.8794C36.9912 12.4149 35.2573 13.0842 33.2567 13.9206C33.2898 13.6871 33.3896 13.4534 33.5227 13.153Z" fill="#124D73"/>
<path d="M37.361 15.0499C37.3612 15.2501 37.3281 15.4836 37.2284 15.7173C37.0953 16.0177 36.9287 16.1847 36.7285 16.1849C36.3949 16.1853 36.1611 15.9521 36.0605 15.5185C35.8944 16.0859 35.6279 16.3864 35.2276 16.3869C35.0608 16.3871 34.9272 16.3206 34.827 16.1539C34.6933 15.9539 34.6263 15.7204 34.626 15.4536L34.6251 14.753C34.625 14.6863 34.5916 14.653 34.4915 14.6197C34.3914 14.5865 34.358 14.5532 34.3579 14.4531C34.3577 14.3196 34.4242 14.1528 34.5574 13.9858C34.6574 13.8522 34.7574 13.7854 34.8241 13.7853C34.9242 13.7852 34.9577 13.9186 34.9581 14.2188C34.9583 14.3856 34.9584 14.5191 34.9252 14.6192C34.8919 14.7193 34.8921 14.8194 34.8921 14.8861C34.8923 15.0529 34.9259 15.2197 34.9928 15.353C35.0597 15.5198 35.1599 15.6197 35.2934 15.6196C35.4602 15.6193 35.5935 15.5525 35.7268 15.4189C35.8601 15.2853 35.9266 15.1184 35.9264 14.9516C35.9263 14.8515 35.8927 14.6514 35.8256 14.3846C35.7586 14.1178 35.725 13.951 35.7249 13.8843C35.7248 13.8176 35.7581 13.7175 35.8247 13.6173C35.8912 13.4838 35.9245 13.417 35.9579 13.417C36.0246 13.4169 36.0915 13.5836 36.1587 13.9505C36.2258 14.284 36.2595 14.5509 36.2597 14.7177C36.2603 15.1847 36.4608 15.4513 36.8277 15.4175C36.9945 15.4173 37.0945 15.3505 37.1276 15.1836C36.8267 14.6502 36.6594 14.2168 36.659 13.9165C36.6588 13.7497 36.692 13.6162 36.7919 13.4493C36.8585 13.3492 36.8918 13.3158 36.8918 13.3158C36.9252 13.3157 36.9253 13.3824 36.9588 13.4825C36.959 13.6493 36.9924 13.7493 37.026 13.8827C37.026 13.8827 37.1263 14.0828 37.2602 14.4829C37.3273 14.7497 37.3608 14.9165 37.361 15.0499Z" fill="#124D73"/>
<path d="M34.9298 18.2554C34.8964 18.2221 34.8963 18.1887 34.9296 18.1553L35.4954 17.0538C35.5287 16.987 35.562 16.9536 35.5954 16.9536C35.6621 16.9535 35.8958 17.0866 36.3298 17.3864C36.7639 17.6861 36.9642 17.8526 36.9643 17.9193C36.9646 18.1195 36.7648 18.4867 36.3986 19.0876C36.3653 19.1544 36.2987 19.1878 36.2653 19.1545C35.8312 18.8548 35.3972 18.5551 34.9298 18.2554Z" fill="#124D73"/>
<path d="M31.2793 33.839C32.547 33.8375 33.9141 33.3354 35.3807 32.3328C36.514 31.5641 37.4137 30.7291 38.0466 29.8943C38.2464 29.6272 38.3463 29.4936 38.3463 29.4602C38.4129 29.3601 38.446 29.1599 38.4457 28.9264C38.4451 28.3926 38.2772 27.5588 37.9756 26.3916C37.741 25.4911 37.2056 24.1574 36.3694 22.3236C36.336 22.2903 36.369 22.0567 36.4353 21.6563C36.5015 21.2559 36.5345 20.989 36.601 20.8221C36.6342 20.6219 36.7342 20.5884 36.8344 20.7218C37.8368 22.0216 38.573 23.8555 39.0428 26.1568C39.2442 27.1907 39.5129 28.6248 39.8153 30.4593C39.9497 31.2597 40.2173 31.7932 40.5845 32.0262C40.7848 32.1594 41.0852 32.2258 41.5188 32.2253L41.5209 33.9266C40.9204 33.9274 40.4532 33.7945 40.1193 33.5614C39.6185 33.195 39.3174 32.5282 39.1495 31.5609C39.0823 31.2274 38.9481 30.527 38.8134 29.5264C38.6809 30.3272 38.3815 30.9948 37.9818 31.529C37.1491 32.5642 36.1494 33.4661 34.9493 34.2015C33.5826 35.0705 32.3488 35.5057 31.2146 35.5071C30.6141 35.5078 30.1467 35.2415 29.8459 34.7415C29.5785 34.3415 29.4445 33.8412 29.4437 33.2408C29.4423 32.0732 29.7077 30.8385 30.2066 29.6369C30.3064 29.3699 30.4063 29.2364 30.4397 29.2363C30.473 29.2363 30.4731 29.2697 30.4732 29.3364C30.4732 29.4031 30.44 29.5366 30.3736 29.7368C30.0081 30.9382 29.8424 31.8725 29.8432 32.5063C29.9443 33.3736 30.3786 33.8401 31.2793 33.839Z" fill="#124D73"/>
<path d="M44.1502 28.8193C44.1522 30.454 43.8535 31.7554 43.2542 32.6902C42.7548 33.4914 42.1881 33.8925 41.4876 33.8933L41.4855 32.1919C42.0193 32.1913 42.5528 31.9905 43.0527 31.5562C43.2193 31.4226 43.2855 30.9888 43.2845 30.1882C43.2839 29.7211 43.1481 27.7864 42.9106 24.4507C42.673 21.115 42.5372 19.1469 42.5364 18.5464C42.5358 18.0127 42.4351 17.5457 42.2679 17.2123C42.2677 17.0122 42.4339 16.5449 42.7332 15.7773C42.7665 15.7105 42.7998 15.6771 42.8332 15.6771C42.8665 15.6771 42.8999 15.7104 42.9668 15.8104C43.0671 16.0104 43.2679 16.5439 43.6026 17.4109C43.9373 18.3112 44.1715 18.878 44.2051 19.0781C44.2386 19.2449 44.2721 19.3449 44.2722 19.4117C44.2725 19.6785 44.0388 19.512 43.5378 18.9789C43.4709 18.8789 43.4376 18.9123 43.4378 19.0791C43.4378 19.1124 43.5397 20.6135 43.7768 23.5489C44.0473 26.4843 44.1495 28.2522 44.1502 28.8193Z" fill="#124D73"/>
<path d="M42.8308 13.5754C44.398 13.0064 46.0653 12.4039 47.8325 11.7345C47.9326 11.701 47.9659 11.701 47.9993 11.701C48.0327 11.7343 47.9994 11.7677 47.9995 11.8678C47.8997 12.1014 47.7998 12.2683 47.7665 12.3017C46.2993 12.8373 44.5654 13.5066 42.5648 14.343C42.5979 14.1095 42.6977 13.8425 42.8308 13.5754Z" fill="#124D73"/>
<path d="M46.7347 14.338C46.6683 14.5716 46.6017 14.7384 46.5351 14.8052C46.2351 15.0058 45.5351 15.4736 44.5018 16.1755C44.4685 16.2089 44.4018 16.2423 44.3352 16.3091C44.3352 16.3091 44.3018 16.2758 44.3017 16.2424L44.368 15.8754C44.3679 15.8087 44.5679 15.6416 44.9012 15.3743C44.4673 15.2414 44.2669 15.0415 44.2666 14.808C44.2663 14.5745 44.3661 14.3075 44.5993 14.0403C45.0324 13.5394 45.3657 13.3055 45.6326 13.3051C45.8661 13.3048 45.9997 13.4381 46 13.705C46.0002 13.8718 45.9337 14.072 45.8005 14.2724C45.7672 14.3058 45.7339 14.3058 45.7005 14.2725C45.6335 14.1058 45.5 14.0059 45.3999 14.006C45.2998 14.0061 45.1998 14.0396 45.0331 14.1399C44.8998 14.2401 44.8332 14.3403 44.8333 14.407C44.8334 14.5071 44.9336 14.607 45.1005 14.6735C45.2674 14.7734 45.4009 14.8066 45.5009 14.8065C45.601 14.8064 45.7677 14.7394 46.0011 14.6057C46.1678 14.5054 46.3345 14.4052 46.4678 14.3049C46.6011 14.238 46.7012 14.2046 46.7345 14.2045C46.7679 14.2045 46.7679 14.2378 46.7347 14.338Z" fill="#124D73"/>
<path d="M44.7724 19.0107C44.7718 18.477 44.6711 18.01 44.5039 17.6766C44.5037 17.4765 44.6699 17.0092 44.9693 16.275C45.0025 16.1748 45.0692 16.1414 45.0692 16.1414C45.1026 16.1414 45.136 16.1747 45.1694 16.2747C45.2698 16.4748 45.4706 17.0083 45.8052 17.8752C46.1399 18.7755 46.3741 19.3424 46.4077 19.5425C46.4413 19.7093 46.4748 19.8427 46.4749 19.9094C46.4752 20.1429 46.2415 20.0097 45.7404 19.4432C45.6736 19.3432 45.6403 19.41 45.6404 19.5434C45.6405 19.5768 45.7761 21.3447 46.0138 24.7805C46.2515 28.2163 46.3873 30.151 46.3878 30.5513C46.3894 31.8857 46.1906 33.0536 45.7915 34.0215C45.6917 34.2218 45.6251 34.3553 45.5919 34.4554C45.4919 34.589 45.4586 34.6224 45.4585 34.5223C45.425 34.4223 45.4581 34.1887 45.4577 33.8885C45.5239 33.4213 45.5566 32.9209 45.5559 32.2871C45.5552 31.7533 45.4191 29.5183 45.114 25.5822C44.9425 21.6793 44.773 19.4778 44.7724 19.0107Z" fill="#124D73"/>
<path d="M5.62223 25.7966C7.53848 25.7942 9.69679 25.3793 12.17 24.6243C14.1461 23.9791 15.4311 23.456 16.0127 23.0187C16.0733 22.9944 16.0732 22.9337 16.0731 22.8488C16.0729 22.6184 15.7204 22.0003 14.9673 21.0795C14.8216 20.9099 14.7607 20.7038 14.8211 20.4975C14.9055 20.085 15.0263 19.7453 15.1715 19.454C15.2562 19.2478 15.3409 19.1385 15.4016 19.1384C15.4258 19.1384 15.5472 19.2232 15.693 19.4049C15.8994 19.6108 16.106 19.9259 16.3006 20.3987C16.6166 20.9562 16.7627 21.4411 16.7632 21.8535C16.7649 23.224 16.3295 24.2433 15.4328 24.8508C14.8512 25.2881 13.542 25.8112 11.5294 26.4322C8.9956 27.2236 6.81299 27.6022 4.89674 27.6046C3.029 27.6068 1.71856 27.1112 0.880522 26.1298C0.297559 25.4635 0.0296779 24.5906 0.0283949 23.5354C0.0270529 22.4317 0.292634 21.4126 0.81298 20.4539C0.98242 20.1626 1.1035 19.9927 1.16414 19.9926C1.16414 19.9926 1.18842 20.0168 1.1885 20.0775C1.1886 20.1624 1.12818 20.3444 1.04359 20.5991C0.922738 20.951 0.777583 21.2665 0.668857 21.6184C0.52385 22.0552 0.46377 22.5161 0.464374 23.0134C0.465156 23.6562 0.756895 24.2016 1.40029 24.698C2.29866 25.4246 3.70598 25.7989 5.62223 25.7966Z" fill="#124D73"/>
<path d="M8.06148 16.9522L8.52119 15.9935C8.54537 15.9328 8.58173 15.9085 8.64237 15.9085C8.70301 15.9084 8.93362 16.0536 9.39487 16.3684C9.83184 16.659 10.0625 16.8285 10.0626 16.8891C10.0628 17.0953 9.85716 17.5322 9.48197 18.1754C9.42143 18.2604 9.36079 18.2605 9.31225 18.2363C8.93592 17.9456 8.49895 17.6551 8.00131 17.3404C7.83195 17.6923 7.68679 18.0078 7.5052 18.2748C7.48104 18.3598 7.42045 18.3962 7.35976 18.3599C6.92272 18.0087 6.46147 17.694 5.98812 17.4035C5.96383 17.3792 5.96379 17.3428 5.98797 17.2822L6.54445 16.1172C6.56863 16.0565 6.6292 15.9958 6.66558 15.9958C6.72622 15.9957 6.93258 16.141 7.30887 16.4073C7.673 16.6373 7.94005 16.8311 8.06148 16.9522Z" fill="#124D73"/>
</svg>
