<svg width="49" height="49" viewBox="0 0 49 49" fill="none" xmlns="http://www.w3.org/2000/svg">
<path d="M45.6158 13.7871C45.6158 13.0002 45.501 12.3772 45.2551 11.8526C45.2551 11.574 45.4518 10.9018 45.9273 9.88544C45.96 9.77069 46.0092 9.68872 46.042 9.68872C46.124 9.68872 46.1568 9.77069 46.2387 9.88544C46.3535 10.1641 46.6322 10.9018 47.1076 12.1313C47.6158 13.4264 47.8945 14.2133 47.9764 14.5248C48.0584 14.7215 48.0584 14.9182 48.0584 15.0002C48.0584 15.3608 47.7469 15.1641 47.042 14.3772C46.96 14.2625 46.9273 14.3444 46.9273 14.5412C46.9273 14.6231 47.124 17.0657 47.4846 21.9346C47.8453 26.7706 47.9928 29.4919 47.9928 30.1149C47.9928 31.9673 47.7141 33.6231 47.1732 35.0329C47.0092 35.3116 46.9436 35.5083 46.8617 35.6558C46.7469 35.8526 46.6977 35.8526 46.665 35.7378C46.6322 35.5739 46.665 35.2624 46.6977 34.8362C46.7797 34.164 46.8125 33.4263 46.8125 32.5903C46.8125 31.8034 46.6158 28.6559 46.2223 23.1149C45.8125 17.5575 45.6158 14.4428 45.6158 13.7871Z" fill="#124D73"/>
<path d="M44.2875 28.96C44.2875 31.2849 43.8613 33.0859 43.0252 34.4284C42.3203 35.5254 41.4842 36.1148 40.5498 36.1148V33.7081C41.3039 33.7081 42.0416 33.397 42.7465 32.8076C42.9432 32.6438 43.058 31.9889 43.058 30.8756C43.058 30.2043 42.8613 27.5029 42.5006 22.7876C42.14 18.0723 41.9924 15.289 41.9924 14.4212C41.9924 13.6681 41.8777 13.0459 41.6318 12.5384C41.6318 12.26 41.8613 11.5888 42.3039 10.5409C42.3367 10.4263 42.3859 10.3772 42.4678 10.3772C42.5006 10.3772 42.5498 10.4099 42.6318 10.5737C42.7465 10.852 43.058 11.5888 43.5334 12.8167C44.0088 14.1101 44.2875 14.896 44.4023 15.1743C44.435 15.4036 44.4842 15.6 44.4842 15.6819C44.4842 16.0421 44.1236 15.8456 43.4678 15.0597C43.3859 14.9779 43.3531 15.027 43.3531 15.2235C43.3531 15.2562 43.517 17.3846 43.8285 21.5433C44.14 25.6528 44.2875 28.1414 44.2875 28.96Z" fill="#124D73"/>
<path d="M40.5825 36.1314C39.6808 36.1314 38.7792 35.7379 37.8284 34.951C37.353 34.5576 36.9595 34.0822 36.6808 33.6068L34.0415 34.7543V32.5904L35.9759 31.7707C35.6972 30.9838 35.5825 30.197 35.5825 29.4101C35.5825 28.2297 35.7464 27.2461 36.0907 26.5412C36.4513 25.7871 36.9103 25.4429 37.5005 25.4429C38.0087 25.4429 38.5169 25.8691 38.9595 26.7379C39.3857 27.492 39.5825 28.197 39.5825 28.8199C39.5825 30.3937 39.1071 31.6888 38.2054 32.7215C38.8284 33.3937 39.6153 33.7379 40.5661 33.7379V36.1314H40.5825ZM38.9595 29.8363C38.9595 29.5576 38.7628 29.1642 38.3694 28.6232C37.9431 28.033 37.5497 27.7216 37.189 27.7216C36.9595 27.7216 36.7136 27.8855 36.4841 28.197C36.2054 28.5084 36.0907 28.7871 36.0907 29.0658C36.0907 29.2953 36.2546 29.6888 36.4841 30.2789C36.7136 30.7871 36.9103 31.0986 37.0415 31.2953C37.4021 31.1314 37.7464 30.9019 38.189 30.5904C38.73 30.2297 38.9595 29.9838 38.9595 29.8363Z" fill="#124D73"/>
<path d="M26.6153 36.9508C27.435 36 28.5498 35.1804 29.9268 34.4263C30.7137 34 32.0907 33.3607 34.0579 32.541V34.7049C32.7957 35.2623 31.894 35.6558 31.3039 35.9181C30.0907 36.5082 29.2547 36.9344 28.8285 37.2951C28.0088 37.918 26.7793 39.1476 25.2055 40.9508C24.2547 42.0492 23.3203 42.6066 22.3695 42.6066C21.5826 42.6066 20.8777 42.2459 20.2875 41.5082C19.6646 40.8033 19.3859 39.8525 19.3859 38.7869C19.3859 37.3279 19.976 35.4099 21.1891 33C21.3039 32.7705 21.4186 32.6394 21.5006 32.6394C21.5006 32.6394 21.5334 32.6722 21.5334 32.7213C21.5334 32.9509 21.2547 33.7869 20.7465 35.1967C20.1891 36.6558 19.9268 37.7541 19.9268 38.5738C19.9268 39.1967 20.0908 39.7213 20.4023 40.0656C20.7137 40.4918 21.1563 40.6885 21.6973 40.6885C22.6809 40.6885 23.6973 40.1803 24.6809 39.1967C25.3531 38.4918 25.976 37.7049 26.6153 36.9508Z" fill="#124D73"/>
<path d="M31.4517 29.246C31.4517 30.7378 30.9763 31.9673 30.0747 32.9017C28.5009 34.4755 26.6157 35.2624 24.4026 35.2624V32.8689C25.3534 32.8689 26.4518 32.6394 27.7141 32.164C29.0583 31.6886 30.0419 31.1476 30.7468 30.4755C30.7468 30.0821 30.4681 29.7214 29.878 29.4591C29.3206 29.1804 28.7796 29.0657 28.1895 29.0657H26.6157C26.0255 29.0657 25.5501 28.869 25.2059 28.4755C24.8452 28.0821 24.6977 27.6067 24.6977 27.0165C24.6977 26.1968 24.9764 25.3608 25.5665 24.4919C26.1239 23.6723 26.7141 23.2788 27.3042 23.2788C28.2878 23.2788 29.2386 23.8362 30.0911 24.9345C30.9763 26.1313 31.4517 27.5575 31.4517 29.246ZM28.8944 26.8362C28.337 25.9673 27.6813 25.5411 26.96 25.5411C26.4518 25.5411 26.1731 25.705 26.1731 26.0493C26.1731 26.4099 26.4846 26.6395 27.1567 26.7214C27.5173 26.7214 28.1075 26.7706 28.8944 26.8362Z" fill="#124D73"/>
<path d="M21.9762 30.3771C22.1729 31.4755 22.5664 32.2295 23.0746 32.5738C23.386 32.7377 23.8287 32.8525 24.4188 32.8525V35.2459C23.55 35.2459 22.8778 35.0492 22.4188 34.6886C21.7139 34.1804 21.2713 33.2787 21.0418 31.9017C20.8778 31.0328 20.7303 28.5574 20.6156 24.3935C20.4516 19.9017 20.3369 17.1476 20.2549 16.1312C20.0582 14.4755 19.7467 12.9509 19.3041 11.4427C19.3041 11.0493 19.468 10.4919 19.7795 9.70503C19.8615 9.50831 19.8942 9.39355 19.9762 9.39355C20.009 9.39355 20.091 9.50831 20.1729 9.67224C20.6811 10.6558 21.0418 12.3444 21.3205 14.705C21.4844 16.1968 21.6319 19.1476 21.7467 23.5574C21.8123 27.705 21.927 29.9837 21.9762 30.3771Z" fill="#124D73"/>
<path d="M19.5665 28.2625C19.5665 29.7543 19.2058 30.9018 18.5501 31.6887C17.4845 32.9018 15.9108 34.0821 13.8616 35.2625C11.2714 36.6723 8.8616 37.4264 6.58292 37.4264C3.59932 37.4264 1.50097 35.9346 0.369823 32.9838C0.140316 32.3936 0.0583496 31.6887 0.0583496 30.7871C0.0583496 30.1969 0.0911359 29.6067 0.173103 28.9838C0.337037 28.0822 0.533758 27.2953 0.763266 26.6231C0.87802 26.4264 0.959986 26.3117 1.04195 26.3117C1.12392 26.3117 1.12392 26.4756 1.07474 26.7379C0.959985 27.1313 0.878019 27.5576 0.796052 27.951C0.632118 28.7051 0.566543 29.2461 0.566543 29.6067C0.566543 30.8198 0.959986 31.9346 1.77966 32.9838C2.87801 34.328 4.50096 35.033 6.58292 35.033C8.43537 35.033 10.4026 34.6067 12.4517 33.7379C14.1403 33.033 15.6321 32.1641 16.9763 31.1477C18.1567 30.1969 18.7796 29.5412 18.7796 29.1477C18.7796 29.0658 18.5009 28.5576 17.9927 27.574C17.4026 26.4264 16.9763 25.2953 16.6976 24.1969C16.5829 23.8363 16.419 23.6068 16.3042 23.492C16.1403 23.3281 16.0747 23.2133 16.0747 23.0658C16.0747 22.951 16.1894 22.3609 16.3862 21.2953C16.419 21.0986 16.4681 21.0166 16.5501 21.0166C16.6321 21.0166 16.714 21.0494 16.7796 21.1314C17.0911 21.492 17.7632 22.1477 18.7468 23.1313C18.9107 23.2953 18.9763 23.41 18.9763 23.5248C18.9763 23.6395 18.8944 23.6887 18.6976 23.6887C18.5009 23.6887 18.1894 23.6068 17.7468 23.492C17.7796 23.6068 18.1403 24.3117 18.7632 25.6231C19.2878 26.6067 19.5665 27.5084 19.5665 28.2625Z" fill="#124D73"/>
<path d="M26.7632 17.4755L27.3861 16.1804C27.4189 16.0985 27.4681 16.0657 27.55 16.0657C27.632 16.0657 27.9435 16.2624 28.5664 16.6886C29.1566 17.0821 29.4681 17.3116 29.4681 17.3935C29.4681 17.6722 29.1894 18.2624 28.6812 19.1312C28.5992 19.246 28.5173 19.246 28.4517 19.2132C27.9435 18.8198 27.3533 18.4263 26.6812 18.0001C26.4517 18.4755 26.255 18.9017 26.0091 19.2624C25.9763 19.3771 25.8943 19.4263 25.8123 19.3771C25.2222 18.9017 24.5992 18.4755 23.9599 18.0821C23.9271 18.0493 23.9271 18.0001 23.9599 17.9181L24.714 16.3444C24.7468 16.2624 24.8287 16.1804 24.8779 16.1804C24.9599 16.1804 25.2386 16.3771 25.7468 16.7378C26.255 17.0493 26.6156 17.328 26.7632 17.4755Z" fill="#124D73"/>
<path d="M6.23858 21.1313C6.20579 21.0985 6.20579 21.0493 6.23858 20.9673L6.99268 19.3936C7.02546 19.3116 7.10743 19.2788 7.15661 19.2788C7.23858 19.2788 7.58284 19.4755 8.173 19.869C8.79595 20.2952 9.12382 20.5411 9.12382 20.6231C9.12382 20.9018 8.84513 21.4427 8.30415 22.3116C8.22218 22.4263 8.18939 22.4755 8.10742 22.4263C7.48448 21.9673 6.86153 21.5247 6.23858 21.1313Z" fill="#124D73"/>
<path d="M35.1568 21.9672C35.124 21.9344 35.124 21.8852 35.1568 21.8033L35.9109 20.2295C35.9437 20.1475 36.0256 20.1147 36.0748 20.1147C36.1568 20.1147 36.5011 20.3115 37.0912 20.7049C37.7142 21.1311 38.042 21.377 38.042 21.459C38.042 21.7377 37.7633 22.2787 37.2224 23.1475C37.1404 23.2623 37.1076 23.3115 37.0256 23.2623C36.4027 22.7869 35.7797 22.3606 35.1568 21.9672Z" fill="#124D73"/>
<path d="M34.5173 16.5738C34.5993 16.3443 34.5993 16.0984 34.5501 15.8689C34.5173 15.6393 34.3862 15.5082 34.1895 15.5082C34.1075 15.5082 33.9928 15.541 33.8288 15.623C33.6649 15.7049 33.5993 15.7869 33.5993 15.8525C33.6157 16.0656 33.9272 16.2951 34.5173 16.5738ZM34.0419 17.5902C33.2878 17.1967 32.9436 16.8033 32.9436 16.377C32.9436 15.8689 33.1731 15.3934 33.6485 15C34.1239 14.5738 34.5173 14.4098 34.8288 14.5246C35.1075 14.6066 35.2223 14.8853 35.2223 15.3443C35.2223 15.7705 35.1403 16.2459 34.9436 16.8033C35.337 17 35.5665 17.1967 35.6485 17.3607C35.6485 17.5574 35.4846 17.918 35.1403 18.377C35.0583 18.2131 34.8288 18.0164 34.4682 17.8197C34.0419 18.4098 33.5173 18.918 32.8944 19.3934C32.1403 19.9016 31.4846 20.3442 30.8944 20.5738C30.7305 20.6557 30.0256 20.9344 28.7633 21.3934C28.5665 21.4754 28.4026 21.5082 28.3698 21.5082C28.337 21.5082 28.337 21.4754 28.337 21.4754C28.337 21.4426 28.419 21.3115 28.6485 21.1967C29.5993 20.6065 30.5338 20.0492 31.5174 19.5082C32.6649 18.8197 33.501 18.1803 34.0419 17.5902Z" fill="#124D73"/>
<path d="M23.9435 13.3936C26.9763 12.2952 30.1238 11.1149 33.4189 9.88538C33.5337 9.85259 33.6156 9.80341 33.6484 9.85259C33.6484 9.85259 33.6484 9.93456 33.6156 10.0493C33.4517 10.41 33.3369 10.6067 33.255 10.6723C30.5009 11.6887 27.2386 12.9509 23.5337 14.4919C23.6157 14.1313 23.7468 13.787 23.9435 13.3936Z" fill="#124D73"/>
<path d="M2.02552 24.8033C2.02552 24.7705 2.0583 24.7213 2.0583 24.7213C2.09109 24.6885 2.09109 24.6885 2.09109 24.7213C2.12387 24.7541 2.12387 24.8033 2.09109 24.8361C1.89437 26.0164 1.53371 26.6066 1.02552 26.6066C0.517323 26.6066 0.271423 26.1803 0.271423 25.3115C0.271423 24.2459 0.550111 23.1148 1.17306 21.9672C1.33699 21.6886 1.40257 21.541 1.45175 21.541C1.45175 21.5738 1.41896 21.7377 1.33699 22.0164C0.943552 23.2295 0.746831 24.0656 0.746831 24.5738C0.746831 25.1967 0.910766 25.5574 1.25503 25.5574C1.51732 25.541 1.74683 25.2623 2.02552 24.8033Z" fill="#124D73"/>
<path d="M43.7914 7.80391C43.7914 8.00625 43.5939 8.37046 43.1594 8.97747C42.6458 9.66541 42.2112 10.1915 41.7766 10.5152C41.5001 10.7176 40.5915 11.0413 39.0112 11.446C38.7347 11.4864 38.5766 11.5269 38.5766 11.5269C38.6162 11.4864 38.6952 11.4055 38.8927 11.2841C39.0902 11.1222 39.6433 10.7985 40.5915 10.3129C41.4606 9.82728 41.9742 9.50354 42.0927 9.38214C42.1322 9.34167 42.1322 9.30121 42.1322 9.30121C42.1322 9.09887 41.3421 9.01793 39.8013 9.01793C39.8013 9.01793 39.5248 9.01793 38.9322 9.0584C38.6162 9.09887 38.4581 9.0584 38.4581 9.01793C38.4581 8.97747 38.4976 8.89653 38.5766 8.77513L39.1297 7.84438C39.2878 7.56111 39.6038 7.39924 40.0384 7.31831C40.1964 7.27784 40.5519 7.27784 41.105 7.27784C42.9223 7.19691 43.7914 7.39924 43.7914 7.80391Z" fill="#124D73"/>
</svg>
