<svg width="48" height="49" viewBox="0 0 48 49" fill="none" xmlns="http://www.w3.org/2000/svg">
<g opacity="0.45">
<path d="M19.2613 29.1175C19.6123 29.1175 19.8317 28.9859 19.8317 28.7665C19.8317 28.5033 19.6123 28.2839 19.2174 28.1084C18.7348 27.889 18.0767 27.8451 17.243 27.9768C17.8134 28.7665 18.5154 29.1175 19.2613 29.1175ZM4.16805 35.7428C3.33442 35.7428 2.58853 35.3918 1.97427 34.6459C1.31613 33.8561 1.009 32.8908 1.009 31.7501C1.009 30.2144 1.66714 28.1523 2.93953 25.6514C3.07116 25.3881 3.15891 25.2565 3.24667 25.2565C3.29054 25.2565 3.29054 25.3003 3.29054 25.3442C3.29054 25.5636 2.98341 26.485 2.4569 27.9768C1.88652 29.4685 1.62326 30.6532 1.62326 31.5307C1.62326 32.1888 1.79877 32.7153 2.1059 33.1541C2.4569 33.5929 2.89566 33.8122 3.46604 33.8122C4.43131 33.8122 5.30882 33.5051 6.18634 32.8908C7.23936 32.0133 8.2485 31.0919 9.30151 30.2144C11.3637 28.5033 13.1626 27.2309 14.7421 26.5289C14.6544 26.3534 14.8299 26.1779 15.1809 26.0462C15.5319 25.9146 15.7512 25.9146 15.839 26.0901C16.9798 25.6952 17.9012 25.5197 18.6032 25.5197C19.3491 25.5197 19.9194 25.8269 20.3143 26.4411C20.7092 27.0554 20.9286 27.8451 20.9286 28.8104C20.9286 29.644 20.7531 30.3022 20.4021 30.8287C20.0511 31.3552 19.5684 31.6184 18.998 31.6184C17.6818 31.6184 16.4971 30.6093 15.4002 28.591C14.0401 29.1175 12.4606 30.0828 10.7055 31.4868C9.43314 32.5837 8.11687 33.6367 6.8006 34.6897C5.83533 35.3918 4.95782 35.7428 4.16805 35.7428Z" fill="#124D73"/>
<path d="M16.5849 34.4265L17.243 33.1102C17.2869 33.0224 17.3746 32.9347 17.4185 32.9347C17.5062 32.9347 17.8572 33.1541 18.5154 33.5928C19.1735 34.0316 19.4806 34.2948 19.4806 34.3387C19.4806 34.602 19.2174 35.2162 18.647 36.1376C18.5593 36.2254 18.5154 36.2692 18.4276 36.2254C17.8572 35.8305 17.243 35.3917 16.541 34.953C16.3216 35.4795 16.1022 35.9182 15.839 36.3131C15.7951 36.4448 15.7073 36.4447 15.6196 36.4009C15.0053 35.9182 14.3472 35.4356 13.6452 35.0407C13.6013 34.9969 13.6013 34.953 13.6452 34.8652L14.4788 33.2418C14.5227 33.1541 14.5666 33.1102 14.6543 33.1102C14.7421 33.1102 15.0053 33.2857 15.5757 33.6367C16.1022 33.9877 16.4532 34.251 16.5849 34.4265Z" fill="#124D73"/>
<path d="M19.6561 20.0352C19.6561 20.6934 19.5245 21.2638 19.3051 21.7903C19.2612 21.878 19.1735 21.878 19.0857 21.7464C18.7347 21.4831 18.3837 21.3076 18.0327 21.3076C17.5062 21.3076 16.9797 21.527 16.4093 22.0096C15.6196 22.6678 15.2247 23.633 15.2247 24.8616C15.2247 25.2126 15.4002 25.6513 15.7512 26.0901C15.7512 26.2217 15.6634 26.3095 15.4441 26.4411C15.2247 26.5727 15.0492 26.6166 14.8737 26.6166C14.742 26.6166 14.6543 26.5727 14.5665 26.5288C14.391 26.134 14.3033 25.6952 14.3033 25.1687C14.3033 23.5453 14.6982 22.0974 15.5318 20.7811C16.3654 19.4648 17.243 18.8506 18.2521 18.8506C19.2174 18.8945 19.6561 19.2893 19.6561 20.0352Z" fill="#124D73"/>
<path d="M12.8553 47.3259C15.1807 46.4923 17.6816 45.5709 20.3141 44.6056C20.4457 44.5618 20.5335 44.5179 20.5335 44.5618C20.5774 44.6056 20.5774 44.6934 20.4896 44.7811C20.3141 45.1321 20.2264 45.3515 20.1386 45.4393C17.9448 46.229 15.3562 47.2382 12.3726 48.4667C12.5042 48.1157 12.6797 47.7647 12.8553 47.3259Z" fill="#124D73"/>
<path d="M18.2082 38.5507C19.0857 37.5855 20.2265 36.6641 21.6744 35.9182C22.508 35.4794 23.9559 34.7774 26.0181 33.8999V36.1814C24.7457 36.7518 23.7804 37.1467 23.1223 37.4538C21.8499 38.0242 20.9724 38.5069 20.4897 38.9017C19.6122 39.5599 18.3837 40.8761 16.7164 42.8067C15.7512 43.9474 14.742 44.5178 13.7329 44.5178C12.8992 44.5178 12.1533 44.1229 11.5391 43.3771C10.881 42.5873 10.5738 41.622 10.5738 40.4813C10.5738 38.9456 11.232 36.8835 12.5044 34.3825C12.636 34.1193 12.7237 33.9877 12.8115 33.9877C12.8554 34.0315 12.8554 34.0315 12.8554 34.0754C12.8554 34.3387 12.5921 35.2162 12.0217 36.7079C11.4513 38.1997 11.1881 39.3844 11.1881 40.2619C11.1881 40.92 11.3197 41.4465 11.6707 41.8414C11.9778 42.2802 12.4605 42.4995 13.0309 42.4995C14.04 42.4995 15.1369 41.973 16.1899 40.92C16.848 40.1302 17.5501 39.3405 18.2082 38.5507Z" fill="#124D73"/>
<path d="M28.6946 18.8505C28.6946 19.026 28.4752 19.4648 28.0365 20.079C27.51 20.7811 27.0273 21.3076 26.5447 21.6586C26.2376 21.8779 25.2723 22.1851 23.605 22.6238C23.2979 22.6677 23.1663 22.7116 23.1663 22.7116C23.2101 22.6677 23.2979 22.58 23.5173 22.4483C23.7367 22.2728 24.307 21.9657 25.3162 21.4392C26.2376 20.9566 26.7641 20.6055 26.9396 20.4739C26.9835 20.43 26.9835 20.3862 26.9835 20.3862C26.9835 20.1668 26.1498 20.079 24.4825 20.079C24.4825 20.079 24.1754 20.079 23.5612 20.1229C23.254 20.1668 23.0785 20.1229 23.0785 20.079C23.0785 20.0352 23.1224 19.9474 23.2101 19.8158L23.7805 18.8066C23.956 18.4995 24.2632 18.324 24.7458 18.2363C24.8774 18.1924 25.2723 18.1924 25.8866 18.1924C27.7732 18.1924 28.6946 18.4118 28.6946 18.8505Z" fill="#124D73"/>
<path d="M42.1647 28.8104L41.5505 30.5654C41.5066 30.6971 41.2872 30.8726 40.8923 30.9603C39.3128 31.3552 36.768 32.1888 33.3018 33.4174C30.055 34.5581 27.5541 35.5234 25.843 36.2254V33.9439C27.8613 33.0664 30.4499 32.1888 33.5212 31.2674L22.7278 31.5746C22.3329 31.5746 22.1574 31.443 22.2452 31.2236C22.4645 30.6532 22.7717 29.9073 23.1666 29.0298H27.5103L41.5066 28.4155C41.8137 28.4155 41.9892 28.4155 42.077 28.5033C42.1647 28.591 42.2086 28.6788 42.1647 28.8104Z" fill="#124D73"/>
<path d="M29.0457 5.73181C31.3711 4.89817 33.872 3.97678 36.5045 3.01151C36.6361 2.96764 36.7239 2.92376 36.7239 2.96764C36.7678 3.01151 36.7678 3.09926 36.68 3.18702C36.5045 3.53802 36.4168 3.7574 36.329 3.84515C34.1352 4.63491 31.5466 5.64405 28.563 6.87257C28.6946 6.52157 28.8701 6.17056 29.0457 5.73181Z" fill="#124D73"/>
<path d="M34.8812 9.3296C34.8812 9.63673 34.7935 9.98773 34.6618 10.3387C34.4863 10.7775 34.2231 10.9969 33.9159 10.9969C33.4333 10.9969 33.0823 10.6459 32.9068 10.0316C32.6874 10.8652 32.2487 11.304 31.6783 11.304C31.4589 11.304 31.2395 11.1724 31.064 10.953C30.8885 10.6459 30.7569 10.2949 30.7569 9.89998V8.84697C30.7569 8.75921 30.713 8.71534 30.5814 8.67146C30.4498 8.62759 30.4059 8.53984 30.4059 8.40821C30.4059 8.18883 30.4936 7.96945 30.713 7.75007C30.8885 7.57457 31.0201 7.48682 31.1079 7.48682C31.2395 7.48682 31.2834 7.7062 31.2834 8.14495C31.2834 8.40821 31.2834 8.58371 31.2395 8.75921C31.1956 8.93472 31.1956 9.06634 31.1956 9.1541C31.1956 9.41735 31.2395 9.63673 31.3712 9.85611C31.4589 10.1194 31.6344 10.251 31.8099 10.251C32.0293 10.251 32.2487 10.1632 32.468 9.94386C32.6435 9.72448 32.7752 9.5051 32.7752 9.24185C32.7752 9.06634 32.7313 8.80309 32.6435 8.40821C32.5558 8.01333 32.5119 7.79395 32.5119 7.66232C32.5119 7.57457 32.5558 7.44294 32.6435 7.26744C32.7313 7.09194 32.7752 7.00419 32.819 7.00419C32.9068 7.00419 32.9946 7.26744 33.1262 7.79395C33.2578 8.32046 33.3017 8.67146 33.3017 8.93472C33.3017 9.63673 33.5649 10.0316 34.1353 9.98774C34.3986 9.98774 34.5302 9.85611 34.5741 9.63673C34.0914 8.80309 33.8721 8.18883 33.8721 7.75007C33.8721 7.53069 33.9159 7.26744 34.0476 7.09194C34.1353 6.96031 34.1792 6.87256 34.2231 6.87256C34.2669 6.87256 34.3108 6.96031 34.3108 7.13581C34.3547 7.35519 34.3547 7.53069 34.3986 7.7062C34.4424 7.7062 34.5302 8.01333 34.7496 8.58371C34.7935 8.89084 34.8812 9.1541 34.8812 9.3296Z" fill="#124D73"/>
<path d="M32.6872 14.4191L33.3453 13.1029C33.3892 13.0151 33.4769 12.9274 33.5208 12.9274C33.6085 12.9274 33.9595 13.1467 34.6177 13.5855C35.2758 14.0243 35.5829 14.2875 35.5829 14.3314C35.5829 14.5946 35.3197 15.2089 34.7493 16.1303C34.6616 16.218 34.6177 16.2619 34.5299 16.218C33.9595 15.8232 33.3453 15.3844 32.6433 14.9457C32.4239 15.4722 32.2045 15.9109 31.9413 16.3058C31.8974 16.4374 31.8096 16.4374 31.7219 16.3935C31.1076 15.9109 30.4495 15.4283 29.7475 15.0334C29.7036 14.9895 29.7036 14.9457 29.7475 14.8579L30.5811 13.2345C30.625 13.1467 30.6689 13.1029 30.7566 13.1029C30.8444 13.1029 31.1076 13.2784 31.678 13.6294C32.2045 13.9804 32.5555 14.2436 32.6872 14.4191Z" fill="#124D73"/>
<path d="M37.2944 27.5381C35.4517 27.5381 34.1354 26.9238 33.3456 25.6514C33.0824 25.2127 32.863 24.5107 32.6436 23.5893C32.4681 22.8873 32.3365 22.5362 32.2487 22.5362C32.0294 22.5362 31.7661 22.8873 31.459 23.6331C30.9763 24.7739 30.5376 25.6075 30.2305 26.1341C29.4846 27.2748 28.5632 28.1962 27.4663 28.9421H23.1226C23.2103 28.8543 24.0001 28.3278 25.5358 27.4503C27.203 26.5289 28.4316 25.5637 29.2652 24.6423C29.9233 23.8964 30.6692 22.8434 31.459 21.4394C32.0294 20.4741 32.4242 19.9915 32.7314 19.9915C33.1263 19.9915 33.3895 20.2986 33.4773 20.9567C33.6528 21.9659 33.8721 22.6679 34.0915 23.1505C34.3986 23.6331 34.7935 24.0719 35.32 24.4229C35.9343 24.8178 36.5924 25.0372 37.3383 25.0372L37.2944 27.5381Z" fill="#124D73"/>
<path d="M40.9796 20.0352C40.9796 22.4923 40.5409 24.3789 39.6634 25.783C38.9175 26.9676 38.04 27.5819 37.0308 27.5819V25.0371C37.8645 25.0371 38.6103 24.7299 39.3562 24.1157C39.5756 23.9402 39.7072 23.2382 39.7072 22.0974C39.7072 21.3954 39.5317 18.5435 39.1807 13.5416C38.8297 8.53981 38.6542 5.60013 38.6542 4.76649C38.6542 3.93286 38.5226 3.27472 38.2593 2.74821C38.2593 2.44108 38.4787 1.73907 38.9614 0.642177C39.0491 0.51055 39.093 0.466675 39.093 0.466675C39.1369 0.466675 39.2246 0.554426 39.2685 0.686053C39.4001 0.993183 39.7072 1.78295 40.1899 3.05534C40.7164 4.41549 41.0235 5.24913 41.1113 5.55626C41.199 5.77563 41.199 5.95114 41.199 6.08277C41.199 6.47765 40.848 6.25827 40.1021 5.42463C40.0144 5.293 39.9705 5.33688 39.9705 5.55626C39.9705 5.60013 40.146 7.83779 40.4531 12.2254C40.848 16.5691 40.9796 19.1577 40.9796 20.0352Z" fill="#124D73"/>
<path d="M44.4022 15.2527C44.4022 14.4191 44.2705 13.7609 44.0073 13.2783C44.0073 12.9712 44.2267 12.2692 44.7093 11.1723C44.7971 11.0406 44.8409 10.9529 44.8848 10.9529C44.9287 10.9529 44.9726 11.0406 45.0603 11.1723C45.1919 11.4794 45.4991 12.2692 45.9817 13.5415C46.5082 14.9017 46.8153 15.7353 46.9031 16.0425C46.9908 16.2618 46.9908 16.4812 46.9908 16.6128C46.9908 16.9639 46.6398 16.7445 45.8939 15.9547C45.8062 15.8231 45.7623 15.867 45.7623 16.0863C45.7623 16.1741 45.9378 18.7628 46.3327 23.8962C46.6837 29.0297 46.9031 31.8816 46.9031 32.5397C46.9031 34.5141 46.596 36.2253 46.0256 37.7171C45.8939 38.0242 45.8062 38.1997 45.7184 38.3752C45.5868 38.5946 45.5429 38.6385 45.4991 38.5068C45.4552 38.3313 45.4552 38.0242 45.5429 37.5416C45.6307 36.8834 45.6746 36.0937 45.6746 35.1723C45.6746 34.3386 45.4552 31.048 45.0603 25.1686C44.5777 19.2454 44.4022 15.9547 44.4022 15.2527Z" fill="#124D73"/>
</g>
</svg>
