<svg width="49" height="49" viewBox="0 0 49 49" fill="none" xmlns="http://www.w3.org/2000/svg">
<path d="M6.64959 18.4752C6.61082 18.4364 6.61082 18.3977 6.64959 18.3589L7.30871 17.0406C7.34748 16.9631 7.38625 16.9243 7.42503 16.9243C7.50257 16.9243 7.77397 17.0794 8.27801 17.4671C8.78205 17.8161 9.05345 18.0099 9.05345 18.0875C9.05345 18.3201 8.82082 18.7854 8.35555 19.4833C8.31678 19.5608 8.23924 19.5996 8.20047 19.5608C7.69643 19.1731 7.19239 18.8241 6.64959 18.4752ZM16.3426 18.8629C16.3426 20.1036 16.0712 21.0341 15.4896 21.6933C14.5978 22.7013 13.3184 23.7094 11.6124 24.6787C9.44117 25.8806 7.42503 26.501 5.5252 26.501C3.00502 26.501 1.29905 25.2603 0.329754 22.8177C0.135894 22.3136 0.0583496 21.6933 0.0583496 20.9954C0.0583496 20.4913 0.0971213 19.9873 0.174665 19.4833C0.290981 18.7466 0.446069 18.0875 0.678701 17.5447C0.756245 17.3508 0.833789 17.2733 0.872561 17.2733C0.911333 17.2733 0.950106 17.3896 0.911334 17.5834C0.83379 17.9324 0.756245 18.2813 0.678701 18.5915C0.523613 19.2119 0.484841 19.6771 0.484841 19.9873C0.484841 20.9954 0.833789 21.9259 1.53168 22.8177C2.46221 23.942 3.81923 24.5236 5.5252 24.5236C7.07608 24.5236 8.7045 24.1747 10.4105 23.438C11.8063 22.8564 13.0857 22.1198 14.2101 21.2668C15.2182 20.4913 15.7222 19.9485 15.7222 19.6384C15.7222 19.5996 15.5284 19.1343 15.1019 18.3201C14.5978 17.3896 14.2489 16.459 13.9775 15.5285C13.8999 15.2183 13.7836 15.0245 13.6285 14.8694C13.5122 14.7919 13.4735 14.6755 13.4735 14.5592C13.4735 14.4429 13.551 13.9389 13.7449 13.0471C13.7836 12.892 13.8224 12.8145 13.8612 12.8145C13.8999 12.8145 13.9775 12.8533 14.055 12.9308C14.3264 13.2022 14.8692 13.7838 15.7222 14.598C15.8773 14.7143 15.9161 14.8306 15.9161 14.9082C15.9161 14.9857 15.8385 15.0245 15.6835 15.0245C15.5284 15.0245 15.257 14.9857 14.908 14.8694C14.9468 14.9857 15.2182 15.5673 15.761 16.6529C16.11 17.4671 16.3426 18.2038 16.3426 18.8629Z" fill="#124D73"/>
<path d="M11.3019 12.1167C11.3019 11.4576 11.1856 10.9535 10.9917 10.5271C10.9917 10.2944 11.1856 9.75162 11.5345 8.85986C11.5733 8.74355 11.6508 8.70477 11.6508 8.70477C11.6896 8.70477 11.7284 8.74355 11.8059 8.85986C11.9222 9.09249 12.1549 9.71285 12.5426 10.7597C12.9691 11.8453 13.2017 12.5044 13.2405 12.7371C13.2792 12.9309 13.318 13.086 13.318 13.1636C13.318 13.435 13.0466 13.2799 12.465 12.6207C12.3875 12.5044 12.3487 12.582 12.3487 12.7371C12.3487 12.7758 12.5038 14.8695 12.7752 18.9018C13.0466 22.9729 13.2017 25.2604 13.2017 25.7644C13.2017 27.3541 12.9691 28.7111 12.5038 29.8743C12.3875 30.1069 12.3099 30.262 12.2712 30.3783C12.1549 30.5334 12.1161 30.5722 12.1161 30.4559C12.0773 30.3395 12.1161 30.0681 12.1161 29.6804C12.1936 29.1376 12.2324 28.5173 12.2324 27.8194C12.2324 27.1602 12.0773 24.5237 11.7284 19.8711C11.457 15.2572 11.3019 12.6595 11.3019 12.1167Z" fill="#124D73"/>
<path d="M14.4037 31.6189C15.1016 30.8434 16.0321 30.1456 17.1565 29.5252C17.8156 29.1763 18.9788 28.6334 20.6072 27.9355V29.7578C19.5992 30.1843 18.8237 30.5333 18.3197 30.7659C17.3116 31.2312 16.6137 31.6189 16.226 31.8903C15.5281 32.4331 14.52 33.4412 13.2406 34.992C12.4651 35.8838 11.6509 36.3491 10.8755 36.3491C10.2163 36.3491 9.63476 36.0389 9.13073 35.4573C8.62669 34.837 8.35529 34.0615 8.35529 33.1698C8.35529 31.9291 8.85932 30.3006 9.86739 28.3233C9.98371 28.1294 10.0613 28.0131 10.1 28.0131C10.1388 28.0131 10.1388 28.0519 10.1388 28.0906C10.1388 28.2845 9.90616 28.9824 9.47967 30.1843C9.05318 31.3863 8.82055 32.3168 8.82055 33.0147C8.82055 33.5575 8.93686 33.984 9.20827 34.2554C9.47967 34.6043 9.82862 34.7594 10.2939 34.7594C11.1081 34.7594 11.9611 34.3329 12.8141 33.4799C13.3181 32.8596 13.8609 32.2392 14.4037 31.6189Z" fill="#124D73"/>
<path d="M22.856 20.7628C22.856 20.9178 22.6621 21.228 22.3132 21.7321C21.8867 22.3136 21.499 22.7401 21.15 22.9728C20.9174 23.1279 20.142 23.3993 18.8237 23.7482C18.5911 23.787 18.4748 23.8257 18.4748 23.8257C18.5135 23.787 18.5911 23.7482 18.7462 23.6319C18.9013 23.4768 19.3665 23.2442 20.1807 22.8177C20.9174 22.43 21.3439 22.1586 21.4602 22.0422C21.499 22.0035 21.499 22.0035 21.499 21.9647C21.499 21.8096 20.8398 21.7321 19.5216 21.7321C19.5216 21.7321 19.289 21.7321 18.7849 21.7321C18.5135 21.7321 18.3972 21.7321 18.3972 21.6933C18.3972 21.6545 18.436 21.577 18.5135 21.4994L18.9788 20.724C19.1339 20.4914 19.3665 20.3363 19.7542 20.2975C19.8706 20.2587 20.1807 20.2587 20.646 20.2587C22.0806 20.2587 22.856 20.4526 22.856 20.7628Z" fill="#124D73"/>
<path d="M23.5926 30.1456C23.864 30.1456 23.9804 30.0681 23.9804 29.9518C23.9804 29.7579 23.7865 29.5641 23.4376 29.409C23.1274 29.2926 22.7009 29.2926 22.1193 29.409C22.4295 29.913 22.9335 30.1456 23.5926 30.1456ZM21.1112 27.7805C21.9642 27.4704 22.7009 27.3153 23.2049 27.3153C23.7865 27.3153 24.213 27.5479 24.5619 28.0519C24.8721 28.5172 25.066 29.1763 25.066 29.9518C25.066 30.6109 24.9109 31.1149 24.6395 31.5414C24.3681 31.9679 23.9804 32.1618 23.5539 32.1618C22.9335 32.1618 22.3519 31.8904 21.8091 31.3476C21.3439 30.8823 20.9949 30.3783 20.7235 29.7579H21.9642L20.2582 28.1683C20.2195 28.0907 20.3358 27.9744 20.6072 27.8193C20.8786 27.703 21.0725 27.6642 21.1112 27.7805Z" fill="#124D73"/>
<path d="M19.8706 35.6513C21.7317 34.9922 23.709 34.2555 25.8027 33.4801C25.919 33.4413 25.9578 33.4413 25.9966 33.4413C26.0353 33.4801 25.9966 33.5188 25.9966 33.6351C25.8803 33.9065 25.7639 34.1004 25.7252 34.1392C23.9804 34.7595 21.9255 35.5737 19.5604 36.543C19.5992 36.2716 19.7155 35.9615 19.8706 35.6513Z" fill="#124D73"/>
<path d="M22.779 23.8259C22.9341 23.7871 23.8258 23.3994 25.493 22.7402C24.7176 22.3137 24.0197 21.7322 23.4769 20.9955C22.779 20.065 22.4688 19.0569 22.4688 17.9713C22.4688 16.8469 22.8565 15.9164 23.632 15.2185C24.5625 14.4043 25.6481 13.9778 26.8888 13.9778C27.703 13.9778 28.5172 14.1329 29.3314 14.4818C29.9906 14.7532 30.5334 15.0246 30.9211 15.3348C31.27 15.6062 31.4251 15.7613 31.4251 15.8001C31.4251 15.8388 31.3863 15.8388 31.3476 15.8388C31.27 15.8388 31.1149 15.8001 30.8823 15.7225C30.1844 15.5286 29.409 15.4511 28.556 15.4511C27.3153 15.4511 26.1521 15.6062 25.0277 15.9551C23.9421 16.2653 23.3605 16.6143 23.283 16.9244C23.3993 17.8162 23.9034 18.708 24.7563 19.6385C25.8032 20.7241 26.9276 21.2669 28.207 21.2669C28.7111 21.2669 29.4477 21.073 30.3783 20.7241C31.4639 20.2588 32.5495 19.7936 33.6351 19.3671C33.9065 19.2508 34.0616 19.2508 34.0616 19.3671C34.0616 19.4446 34.0228 19.5222 33.9453 19.6385L33.2474 20.8404C33.1699 20.9955 33.0535 21.1118 32.8985 21.1506C29.7579 22.5464 26.3848 24.0197 22.7402 25.5706C22.2749 25.7645 21.8484 25.9971 21.4607 26.2297C21.073 26.4623 20.8791 26.6174 20.8791 26.695C20.8791 26.8888 20.9955 27.199 21.1893 27.6643C20.9567 28.0908 20.6853 28.2071 20.2976 28.0132C20.2588 27.7806 20.2588 27.5092 20.2588 27.3153C20.3363 25.6869 21.1505 24.5237 22.779 23.8259Z" fill="#124D73"/>
<path d="M30.3393 40.7305C32.2004 40.0714 34.1778 39.3347 36.2715 38.5593C36.3878 38.5205 36.4266 38.5205 36.4653 38.5205C36.5041 38.5593 36.4653 38.5981 36.4653 38.7144C36.349 38.9858 36.2327 39.1796 36.1939 39.2184C34.4492 39.8388 32.3943 40.653 30.0292 41.6223C30.0679 41.3509 30.1843 41.0795 30.3393 40.7305Z" fill="#124D73"/>
<path d="M26.5392 32.2007C26.5392 30.6886 26.8106 29.4479 27.3146 28.4398C27.5085 28.0521 27.6248 27.897 27.7023 27.897C27.7411 27.897 27.7411 27.9358 27.7411 27.9746C27.7411 28.0909 27.7023 28.2847 27.586 28.5561C27.1983 29.603 27.0044 30.5723 27.0044 31.464C27.0044 32.317 27.2371 33.0925 27.7023 33.8291C28.439 34.9923 29.6409 35.5351 31.2694 35.5351C32.7427 35.5351 34.6038 34.876 36.775 33.5965C38.3259 32.6272 39.6441 31.6579 40.7685 30.6498C40.9236 30.4947 41.0011 30.1846 41.0011 29.7581C41.0011 28.9439 40.846 26.2686 40.4971 21.7323C40.1869 17.1959 40.0318 14.637 40.0318 14.0166C40.0318 13.3575 39.9155 12.8535 39.7217 12.427C39.7217 12.1944 39.9155 11.6515 40.2645 10.7598C40.3032 10.6435 40.3808 10.6047 40.3808 10.6047C40.4196 10.6047 40.4583 10.6435 40.5359 10.7598C40.6522 10.9924 40.8848 11.6128 41.2725 12.6596C41.699 13.7452 41.9317 14.3656 42.0092 14.637C42.048 14.8309 42.0867 14.9859 42.0867 15.0635C42.0867 15.3349 41.8153 15.1798 41.2338 14.5207C41.1562 14.4431 41.1174 14.4819 41.1174 14.637C41.1174 14.637 41.2725 16.343 41.5052 19.8712C41.7766 23.3607 41.8929 25.4544 41.8929 26.0747C41.8929 27.9358 41.7378 29.3703 41.4664 30.3784C41.2725 31.1151 40.9236 31.7742 40.4583 32.317C39.7992 33.0925 38.7136 34.023 37.2015 35.1086C34.9139 36.737 32.8978 37.59 31.153 37.59C29.3695 37.59 28.0901 36.8921 27.3146 35.5351C26.8106 34.5658 26.5392 33.4802 26.5392 32.2007Z" fill="#124D73"/>
<path d="M47.477 6.61108C47.8647 6.61108 48.0585 6.80494 48.0585 7.15389C48.0585 7.34775 48.0198 7.58038 47.9034 7.77424C47.8647 7.92933 47.6708 8.16196 47.3994 8.47214C47.0117 8.9374 46.7403 9.24758 46.5852 9.40267C46.3526 9.67407 46.2363 9.82916 46.1975 9.82916C46.1975 9.82916 46.1975 9.82916 46.1975 9.79039C46.1975 9.75161 46.2363 9.67407 46.3138 9.51898C46.4689 9.13126 46.7015 8.78231 47.0117 8.39459C47.2056 8.20073 47.4382 7.9681 47.5933 7.77424C47.5157 7.58038 47.3994 7.50284 47.2443 7.50284C47.128 7.50284 46.9729 7.54161 46.7791 7.61915C45.0731 8.47214 43.4447 8.89863 41.855 8.89863C41.002 8.89863 40.2266 8.74354 39.4899 8.35582C39.6062 8.666 39.5675 9.05372 39.3736 9.51898C39.2961 9.67407 39.2573 9.79039 39.2185 9.79039C39.2185 9.79039 39.2185 9.67407 39.2185 9.48021C39.2185 9.05372 39.141 8.70477 39.0247 8.39459C38.9859 8.35582 38.792 8.04565 38.3655 7.46407C38.4431 7.03758 38.5206 6.84372 38.6757 6.84372C38.6757 6.84372 38.792 6.92126 38.9859 7.07635C39.2185 7.23144 39.4512 7.42529 39.6838 7.54161C40.4205 7.92933 41.1959 8.08442 42.0489 8.08442C42.9406 8.08442 43.7936 7.9681 44.6078 7.6967C45.1119 7.54161 45.6934 7.30898 46.3526 6.9988C46.9729 6.76617 47.3219 6.61108 47.477 6.61108Z" fill="#124D73"/>
<path d="M42.7465 14.055C42.7465 13.3959 42.6302 12.8919 42.4363 12.4654C42.4363 12.2328 42.6302 11.69 42.9791 10.7982C43.0179 10.6819 43.0955 10.6431 43.0955 10.6431C43.1342 10.6431 43.173 10.6819 43.2505 10.7982C43.3669 11.0308 43.5995 11.6512 43.9872 12.698C44.4137 13.7836 44.6463 14.4428 44.6851 14.6754C44.7239 14.8693 44.7627 15.0243 44.7627 15.1019C44.7627 15.3733 44.4913 15.2182 43.9097 14.5591C43.8321 14.4428 43.7934 14.5203 43.7934 14.6754C43.7934 14.7142 43.9484 16.8079 44.2198 20.8401C44.4913 24.9112 44.6463 27.1987 44.6463 27.7028C44.6463 29.2924 44.4137 30.6495 43.9484 31.8126C43.8321 32.0452 43.7546 32.2003 43.7158 32.3166C43.5995 32.4717 43.5607 32.5105 43.5607 32.3942C43.522 32.2779 43.5607 32.0065 43.5607 31.6188C43.6383 31.0759 43.677 30.4556 43.677 29.7577C43.677 29.0986 43.522 26.4621 43.173 21.8094C42.9016 17.2343 42.7465 14.6366 42.7465 14.055Z" fill="#124D73"/>
</svg>
