<svg width="49" height="49" viewBox="0 0 49 49" fill="none" xmlns="http://www.w3.org/2000/svg">
<path d="M46.741 25.4681C46.7405 25.0545 46.1071 24.3497 44.8165 23.3782C43.2337 22.1637 41.7246 21.5816 40.1919 21.5835C37.2725 21.587 34.2346 24.2182 31.2728 29.3551C32.3193 29.6944 33.4387 29.8877 34.5335 29.8864C36.4068 29.8841 38.3283 29.5411 40.4197 28.8817C42.0491 28.3445 43.5809 27.6615 44.9181 26.8813C46.158 26.1743 46.7412 25.687 46.741 25.4681ZM9.7652 48.3331C6.21325 48.3374 3.5843 47.1242 1.92704 44.7177C0.635359 42.846 0.0486381 40.5112 0.0451771 37.6648C0.0441122 36.7889 0.0917625 35.9617 0.21234 35.0857C0.453997 33.7474 0.744516 32.5792 1.08396 31.63C1.20519 31.2893 1.37525 31.0945 1.4969 31.0943C1.61854 31.0942 1.61883 31.3374 1.54626 31.6781C0.965988 34.6469 0.724772 36.3502 0.725187 36.6908C0.727376 38.4911 1.31333 40.1934 2.53159 41.7002C4.16402 43.6932 6.5738 44.7364 9.66351 44.7326C12.4613 44.7292 15.3799 44.0931 18.4194 42.8C20.924 41.7509 23.2093 40.4587 25.251 38.9478C27.0496 37.5346 27.9242 36.5604 27.9235 35.9765C27.9211 33.9816 27.3347 31.8901 26.2128 29.6045C25.969 29.1913 25.8713 28.8508 25.871 28.6075C25.8708 28.4372 26.1131 27.6097 26.5735 26.1008C26.6947 25.8087 26.7433 25.687 26.8649 25.6869C26.9865 25.6867 27.157 25.8568 27.3278 26.2702C27.8645 27.4373 28.79 28.312 30.0071 28.8457C32.2896 25.218 33.7952 22.9537 34.4997 22.1256C36.6617 19.4469 38.8739 18.0818 41.0878 18.0791C42.8881 18.0769 44.5919 18.7074 46.1019 20.0679C47.3927 21.2341 48.0265 22.2795 48.0277 23.2283C48.0285 23.9338 47.8594 24.8585 47.4956 25.8564C47.1563 26.9029 46.7923 27.6576 46.3307 28.1934C45.5776 29.1188 44.1678 30.1179 42.2471 31.1177C39.4997 32.5808 36.5813 33.3385 33.6618 33.3421C32.1535 33.3439 30.6204 33.0052 28.9895 32.3016C28.9941 36.0482 28.4619 38.5547 27.3686 39.7724C25.8624 41.5746 23.529 43.3291 20.49 45.0357C16.6975 47.2299 13.0982 48.3291 9.7652 48.3331Z" fill="#124D73"/>
<path d="M43.8024 9.53654C44.5079 9.53568 44.8002 9.82727 44.801 10.4598C44.8014 10.8004 44.7532 11.214 44.5591 11.5792C44.4377 11.8226 44.1462 12.2123 43.636 12.7968C42.9315 13.6248 42.5187 14.2092 42.2271 14.5015C41.8871 15.0371 41.6442 15.3293 41.5955 15.3294L41.5468 15.2808C41.5468 15.2321 41.6682 15.0374 41.7895 14.7453C42.032 14.1124 42.4204 13.4064 43.0764 12.7488C43.3679 12.3348 43.7081 11.9938 44.1211 11.5797C43.9504 11.2393 43.78 11.1179 43.488 11.1183C43.2447 11.1186 42.9529 11.1676 42.6612 11.3626C39.6219 12.8746 36.7035 13.7053 33.9058 13.7087C32.3974 13.7106 30.986 13.3717 29.6957 12.6677C29.9397 13.2513 29.8189 13.957 29.5279 14.7602C29.4067 15.1009 29.3582 15.2226 29.2853 15.2957C29.2366 15.2958 29.2363 15.0525 29.2359 14.7119C29.235 13.9577 29.1126 13.301 28.893 12.7904C28.8929 12.7417 28.4786 12.1583 27.7718 11.0887C27.8925 10.3344 28.0624 9.96926 28.3057 9.96896C28.3057 9.96896 28.5491 10.0903 28.8414 10.3819C29.3041 10.7219 29.7179 10.9647 30.1318 11.2075C31.4221 11.9115 32.8092 12.2504 34.3419 12.2485C35.9233 12.2466 37.4313 12.0015 38.9635 11.5374C39.7903 11.2444 40.8359 10.8296 42.0515 10.1955C42.9268 9.75656 43.5104 9.53689 43.8024 9.53654Z" fill="#124D73"/>
<path d="M37.9096 5.38348C37.9095 5.33482 37.9581 5.26178 37.9581 5.26178C38.0067 5.21306 38.0067 5.21306 38.0067 5.26172C38.0554 5.31031 38.0555 5.3833 38.0069 5.43201C37.7171 7.18402 37.183 8.06049 36.4288 8.06141C35.6746 8.06232 35.3089 7.43023 35.3073 6.14082C35.3054 4.55948 35.717 2.88031 36.6394 1.1762C36.8822 0.762319 36.9792 0.543247 37.0522 0.543158C37.0522 0.591815 37.0039 0.835157 36.8827 1.24889C36.301 3.0499 36.0106 4.29101 36.0115 5.04519C36.0127 5.96967 36.2566 6.5046 36.7675 6.50398C37.1567 6.5035 37.4968 6.0895 37.9096 5.38348Z" fill="#124D73"/>
</svg>
