<svg width="49" height="49" viewBox="0 0 49 49" fill="none" xmlns="http://www.w3.org/2000/svg">
<path d="M36.5006 3.14576L37.8532 0.387056C37.9885 0.160902 38.0788 0.0703967 38.1692 0.0702867C38.35 0.0700669 39.119 0.566307 40.476 1.46861C41.8331 2.41612 42.5116 2.91247 42.5119 3.09326C42.5126 3.68083 41.9265 4.90188 40.7537 6.84681C40.6184 7.07297 40.4829 7.11833 40.302 7.02815C39.1258 6.17083 37.8139 5.26846 36.3213 4.32113C35.8255 5.45167 35.3746 6.40137 34.8784 7.17034C34.7431 7.39649 34.6076 7.48705 34.4267 7.39688C33.1147 6.35892 31.7124 5.41148 30.265 4.50928C30.1745 4.46419 30.1744 4.3738 30.2646 4.1929L32.0231 0.755727C32.1585 0.529573 32.2487 0.439067 32.3391 0.438958C32.4747 0.438793 33.1079 0.799605 34.284 1.56654C35.4147 2.19793 36.1386 2.78462 36.5006 3.14576Z" fill="#124D73"/>
<path d="M40.3177 19.7739C39.0498 17.8319 37.6023 16.8845 36.0204 16.8865C34.8453 16.8879 34.3034 17.2953 34.3043 18.0637C34.3054 18.9224 34.9839 19.4188 36.4305 19.5978C37.244 19.5516 38.5096 19.6405 40.3177 19.7739ZM2.49755 28.3171C2.81152 26.328 3.30655 24.5647 3.84722 23.1629C4.0274 22.6655 4.20787 22.3941 4.38866 22.3939C4.56945 22.3936 4.61497 22.6648 4.4801 23.2525C3.67198 27.7281 3.26828 30.2596 3.26894 30.802C3.27223 33.5139 4.17915 35.9534 6.03501 38.2111C8.47937 41.2364 12.0066 42.7236 16.662 42.7179C20.4586 42.7133 24.6154 41.6235 29.1777 39.3581C32.7462 37.6362 36.1786 35.5078 39.5201 32.8822C42.2745 30.6642 43.8545 29.1255 44.215 28.2663C44.2137 27.1816 43.6251 26.2784 42.4038 25.5567C41.3183 24.9252 40.0524 24.6104 38.5609 24.6122L35.171 24.6163C33.8603 24.6179 32.8203 24.2124 32.0509 23.3546C31.2815 22.4967 30.8734 21.4125 30.8718 20.1018C30.8696 18.2939 31.5001 16.44 32.7634 14.5853C34.0267 12.7307 35.2911 11.8252 36.647 11.8235C38.8165 11.8209 40.8971 13.0387 42.7984 15.5223C44.8356 18.2317 45.879 21.3943 45.8835 25.1005C45.8878 28.6711 44.9422 31.5649 43.0917 33.6914C40.6545 36.5871 37.2682 39.4386 32.9778 42.2913C27.0164 46.1404 21.5951 48.0905 16.7137 48.0964C11.3804 48.1029 7.53637 46.2997 5.0461 42.6869C3.1445 39.9773 2.19111 36.4982 2.18589 32.2045C2.27464 30.8484 2.3635 29.5828 2.49755 28.3171Z" fill="#124D73"/>
</svg>
