<svg width="48" height="49" viewBox="0 0 48 49" fill="none" xmlns="http://www.w3.org/2000/svg">
<path d="M22.6834 41.0652C23.0992 41.0652 23.3302 40.9266 23.3302 40.6494C23.3302 40.326 23.0992 40.095 22.591 39.9103C22.0367 39.6793 21.2975 39.6331 20.3273 39.7717C21.0203 40.6494 21.8057 41.0652 22.6834 41.0652ZM5.35911 48.6417C4.38894 48.6417 3.55737 48.2259 2.8182 47.3482C2.07903 46.4242 1.70945 45.3154 1.70945 44.0219C1.70945 42.2202 2.44862 39.9103 3.92696 37.046C4.06555 36.7688 4.20415 36.584 4.29655 36.584C4.34274 36.584 4.34274 36.6302 4.34274 36.7226C4.34274 36.9998 4.01936 38.0161 3.37258 39.7255C2.72581 41.481 2.40242 42.8207 2.40242 43.7909C2.40242 44.5763 2.58721 45.1769 2.9568 45.6388C3.37258 46.147 3.88076 46.378 4.52754 46.378C5.63629 46.378 6.65265 46.0084 7.62282 45.3155C8.82397 44.2991 10.0251 43.2827 11.1801 42.2664C13.5362 40.2798 15.6151 38.8477 17.4168 38.0161C17.3244 37.8313 17.5092 37.6465 17.925 37.4618C18.3408 37.277 18.5718 37.3232 18.7104 37.5079C20.0039 37.0922 21.0665 36.8612 21.8981 36.8612C22.7296 36.8612 23.3764 37.2308 23.8846 37.9237C24.3466 38.6167 24.5776 39.5407 24.5776 40.6494C24.5776 41.5734 24.3928 42.3588 23.977 42.9593C23.5612 43.5599 23.053 43.8833 22.36 43.8833C20.8355 43.8833 19.4958 42.7283 18.2484 40.4184C16.6777 41.019 14.8759 42.174 12.8432 43.7447C11.3649 44.9921 9.84033 46.1932 8.36199 47.3944C7.25323 48.2259 6.23687 48.6417 5.35911 48.6417Z" fill="#124D73"/>
<path d="M18.156 8.77261C20.8355 7.80245 23.6998 6.78609 26.7489 5.63113C26.8875 5.58493 26.9799 5.53873 27.0261 5.58493C27.0723 5.63113 27.0723 5.72353 26.9799 5.86212C26.7951 6.27791 26.6565 6.5089 26.5641 6.60129C24.0232 7.52526 21.0665 8.68021 17.6478 10.0662C17.7864 9.69657 17.9712 9.23459 18.156 8.77261Z" fill="#124D73"/>
<path d="M20.0501 32.2413C21.9442 31.4559 22.9144 30.3934 22.9144 29.0074C22.9144 25.9122 22.7758 22.6321 22.4062 19.2596C22.2676 17.7351 21.9904 15.841 21.6209 13.6234C21.898 12.1451 22.0366 11.2673 22.129 11.0825C22.2214 10.8977 22.2676 10.7592 22.36 10.7592C22.4062 10.7592 22.4986 10.8977 22.5448 11.0825C23.1454 13.2077 23.6536 15.841 23.977 18.9824C24.0694 19.8602 24.208 22.4011 24.3928 26.6051C24.5313 30.3472 24.6699 32.7033 24.9009 33.7197C25.1319 34.8284 25.5015 35.5676 25.9635 35.9834C26.2869 36.2606 26.7951 36.3992 27.4418 36.3992V39.3096C26.0097 39.3096 24.9471 38.7553 24.3004 37.6003C23.6536 36.4916 23.3302 34.1816 23.3302 30.532C22.822 32.6571 21.7595 34.0892 20.0501 34.8284C19.6343 35.0132 19.2647 35.2442 18.9414 35.4752C18.387 35.8448 18.1098 36.0758 18.1098 36.1682C18.1098 36.4454 18.2484 36.9073 18.5718 37.5541C18.2484 38.1547 17.8326 38.3395 17.2782 38.0623C17.232 37.6927 17.232 37.3693 17.232 37.0459C17.232 34.8746 18.156 33.2577 20.0501 32.2413Z" fill="#124D73"/>
<path d="M28.227 18.5667C30.9065 17.5965 33.7708 16.5802 36.8199 15.4252C36.9585 15.379 37.0509 15.3328 37.0971 15.379C37.1433 15.4252 37.1433 15.5176 37.0509 15.6562C36.8661 16.072 36.7275 16.303 36.6351 16.3954C34.0942 17.3193 31.1375 18.4743 27.7188 19.8602C27.8112 19.4444 27.996 19.0287 28.227 18.5667Z" fill="#124D73"/>
<path d="M32.4314 23.787L33.1706 22.2624C33.2168 22.1238 33.3092 22.0776 33.3554 22.0776C33.4478 22.0776 33.8636 22.3548 34.6027 22.8168C35.3419 23.325 35.7115 23.6022 35.7115 23.6946C35.7115 24.018 35.3881 24.7109 34.7413 25.7273C34.6489 25.8659 34.6027 25.8659 34.5103 25.8197C33.8636 25.3577 33.1244 24.8495 32.339 24.3413C32.0618 24.9419 31.8308 25.4501 31.5536 25.9121C31.5074 26.0507 31.4151 26.0969 31.3227 26.0507C30.5835 25.4963 29.8443 24.9419 29.0589 24.4799C29.0127 24.4337 29.0127 24.3875 29.0589 24.2951L29.9829 22.401C30.0291 22.2624 30.1215 22.2162 30.1677 22.2162C30.2601 22.2162 30.5835 22.401 31.2303 22.8168C31.8308 23.2788 32.2466 23.556 32.4314 23.787Z" fill="#124D73"/>
<path d="M36.2657 38.8014C33.8172 38.8014 32.0155 38.4781 30.8605 37.7851C29.4746 38.8014 28.2734 39.3096 27.2109 39.3096V36.3991C27.95 36.3991 28.643 36.2605 29.2436 35.9372C28.9664 35.3828 28.7816 34.6436 28.7816 33.6734C28.7816 32.3337 29.2898 30.9477 30.26 29.608C31.1839 28.3606 32.0155 27.7139 32.6623 27.7139C33.2628 27.7139 33.771 28.1758 34.1406 29.0998C34.4178 29.7928 34.5564 30.532 34.5564 31.3173C34.5564 33.2115 34.1406 34.6436 33.309 35.66C33.8634 35.8448 34.8336 35.8909 36.2657 35.8909V38.8014ZM33.4476 33.2577C33.4476 32.8419 33.309 32.3337 32.9857 31.5945C32.6623 30.8553 32.3851 30.4858 32.1541 30.4858C31.8307 30.4858 31.4149 30.8091 30.7681 31.5021C30.1676 32.1489 29.7518 32.7495 29.5208 33.2577C29.6132 33.5348 29.8442 33.8582 30.1676 34.2278C30.5371 34.5974 30.9067 34.8284 31.2763 34.967C32.3851 34.4126 33.078 33.8582 33.4476 33.2577Z" fill="#124D73"/>
<path d="M41.9018 1.47329C41.9018 1.70428 41.6246 2.16626 41.1164 2.85924C40.5158 3.6908 39.9614 4.29138 39.407 4.66097C39.0837 4.89196 37.9287 5.26154 36.0346 5.76972C35.665 5.81592 35.5264 5.86212 35.5264 5.86212C35.5726 5.81592 35.665 5.72353 35.896 5.53873C36.127 5.35394 36.8199 4.93816 37.9287 4.38378C38.9913 3.7832 39.5918 3.45981 39.7766 3.27502C39.8228 3.22882 39.8228 3.18262 39.8228 3.13643C39.8228 2.90543 38.8989 2.76684 36.9585 2.76684C36.9585 2.76684 36.589 2.76684 35.896 2.81304C35.5264 2.85924 35.3416 2.81304 35.3416 2.76684C35.3416 2.72064 35.3878 2.62825 35.4802 2.44345L36.1732 1.3347C36.358 1.01131 36.7276 0.780318 37.2819 0.687921C37.4667 0.641723 37.8825 0.641724 38.5755 0.641724C40.8392 0.780318 41.9018 1.01131 41.9018 1.47329Z" fill="#124D73"/>
<path d="M40.701 30.1625C40.701 32.9806 40.1928 35.1519 39.1764 36.7688C38.3449 38.1548 37.3285 38.8015 36.1735 38.8015V35.891C37.0975 35.891 38.0215 35.5215 38.853 34.8285C39.1302 34.5975 39.2688 33.8583 39.2688 32.5186C39.2688 31.7332 39.0378 28.4531 38.6682 22.6784C38.2525 16.9498 38.0677 13.5773 38.0677 12.6072C38.0677 11.6832 37.9291 10.8978 37.6057 10.2972C37.6057 9.92765 37.8829 9.14228 38.3911 7.84873C38.4834 7.71014 38.5296 7.66394 38.5758 7.66394C38.622 7.66394 38.7144 7.75634 38.8068 7.89493C38.9454 8.21832 39.315 9.14228 39.8694 10.6206C40.47 12.1914 40.7934 13.1153 40.8858 13.4849C40.9782 13.7621 41.0243 13.9469 41.0243 14.0855C41.0243 14.5013 40.6086 14.2703 39.777 13.3463C39.6846 13.2077 39.6384 13.2539 39.6384 13.4849C39.6384 13.5311 39.8232 16.1182 40.1928 21.1538C40.5162 26.1894 40.701 29.1923 40.701 30.1625Z" fill="#124D73"/>
<path d="M43.38 16.3492C43.38 15.4252 43.2414 14.6398 42.918 14.0854C42.918 13.7621 43.1952 12.9305 43.7034 11.6831C43.7958 11.5445 43.842 11.4521 43.8882 11.4521C43.9344 11.4521 44.0268 11.5445 44.073 11.6831C44.2578 12.0065 44.5812 12.9305 45.1355 14.4088C45.7361 15.9796 46.0595 16.9035 46.1519 17.2731C46.2443 17.5503 46.2905 17.7813 46.2905 17.9199C46.2905 18.3357 45.8747 18.0585 45.0431 17.1345C44.9507 16.9959 44.9046 17.0421 44.9046 17.3193C44.9046 17.4117 45.1355 20.3684 45.5513 26.2818C45.9671 32.1489 46.1981 35.4752 46.1981 36.1682C46.1981 38.4319 45.8747 40.4184 45.1817 42.1278C45.0431 42.4511 44.9046 42.7283 44.8122 42.8669C44.6736 43.0979 44.5812 43.1441 44.5812 43.0055C44.535 42.8207 44.535 42.4511 44.6274 41.8968C44.7198 41.1114 44.766 40.2336 44.766 39.1711C44.766 38.2471 44.535 34.4127 44.0268 27.7139C43.611 20.9228 43.38 17.1345 43.38 16.3492Z" fill="#124D73"/>
</svg>
