<svg width="48" height="49" viewBox="0 0 48 49" fill="none" xmlns="http://www.w3.org/2000/svg">
<path d="M15.6684 30.6368C15.8174 31.5303 16.1152 32.0887 16.5247 32.3865C16.7481 32.4982 17.0831 32.5727 17.5671 32.5727V34.4714C16.897 34.4714 16.3386 34.3224 15.9663 34.0618C15.4451 33.6523 15.0728 32.945 14.8866 31.8281C14.7749 31.158 14.6633 29.1848 14.5516 25.9459C14.4399 22.4092 14.3654 20.2126 14.291 19.4308C14.1421 18.1278 13.8814 16.8993 13.5464 15.7452C13.5464 15.4473 13.6581 14.9634 13.9187 14.3677C13.9559 14.2188 14.0304 14.1443 14.0676 14.1443C14.1048 14.1443 14.1793 14.2188 14.2165 14.3305C14.626 15.1123 14.9239 16.4525 15.1472 18.314C15.2589 19.4681 15.3706 21.8135 15.4823 25.2758C15.5568 28.5892 15.594 30.3389 15.6684 30.6368Z" fill="#124D73"/>
<path d="M23.8959 24.9035C25.6456 24.2706 27.5071 23.6004 29.4802 22.8559C29.5919 22.8186 29.6292 22.8186 29.6664 22.8186C29.7036 22.8559 29.6664 22.8931 29.6664 23.0048C29.5547 23.2654 29.443 23.4515 29.4058 23.4888C27.7677 24.0844 25.8318 24.829 23.6353 25.7597C23.6353 25.4991 23.747 25.2385 23.8959 24.9035Z" fill="#124D73"/>
<path d="M23.9705 32.2748C24.7151 32.2748 25.4596 31.977 26.167 31.4185C26.2415 31.3813 26.5021 31.0835 27.0233 30.525C27.5072 30.0038 27.7678 29.7432 27.8051 29.7432C27.9168 29.7432 27.954 29.8549 27.8795 30.0783C27.7678 30.3761 27.7306 30.5622 27.7306 30.6739C27.7306 30.8973 27.8423 31.1207 27.9912 31.4185C28.2518 31.7908 28.5497 31.9397 28.9219 31.9397C29.9644 31.9397 30.8206 31.1951 31.5652 29.706C31.6397 29.5571 31.7514 29.4826 31.8258 29.4826C31.9003 29.4826 31.9375 29.5571 31.9375 29.706C31.9375 29.7432 31.9375 29.8549 31.9375 29.9294C31.9375 30.041 31.9003 30.1527 31.9003 30.19C31.9003 30.5995 32.0492 30.9718 32.3098 31.2324C32.5704 31.493 32.9427 31.6419 33.3522 31.6419V33.5406C32.3842 33.5406 31.7141 32.9449 31.3046 31.7536C31.2674 31.6047 31.1929 31.6047 31.1185 31.7536C30.5973 33.1683 29.8154 33.8384 28.8475 33.8384C27.8423 33.8384 27.2466 33.2055 27.0605 31.9397C27.0605 31.828 27.0233 31.7908 27.0233 31.7908C26.986 31.7908 26.9488 31.8653 26.9116 31.9397C26.651 32.3492 26.3159 32.7588 25.8319 33.1683C25.0874 33.8384 24.3055 34.1735 23.5982 34.1735C22.7792 34.1735 22.2207 33.9129 21.8857 33.4289C21.6995 33.1311 21.5878 32.6843 21.5506 32.0514C21.5506 31.9769 21.5134 31.9397 21.4389 31.9397C21.3272 31.9397 21.2155 32.0142 21.1411 32.1259C20.5082 32.8704 20.0987 33.3172 19.9125 33.4661C19.0935 34.1362 18.2744 34.5085 17.381 34.5085V32.6098C18.3117 32.6098 19.1307 32.3865 19.8008 31.9025C20.0987 31.7163 20.7316 31.1207 21.6995 30.1527C21.8112 30.041 21.9229 29.9666 22.0346 29.9666C22.2207 29.9666 22.258 30.0783 22.1835 30.3016C22.109 30.525 22.0718 30.7484 22.0718 30.9345C22.0718 31.3813 22.258 31.7163 22.593 31.9397C23.0025 32.1631 23.4493 32.2748 23.9705 32.2748Z" fill="#124D73"/>
<path d="M29.9271 14.1443C29.9271 14.2932 29.741 14.591 29.4059 15.075C28.9964 15.5962 28.6614 16.0057 28.2891 16.2663C28.0657 16.4152 27.3583 16.6758 26.0926 17.0109C25.8692 17.0481 25.7575 17.0853 25.7575 17.0853C25.7947 17.0481 25.8692 17.0109 26.0181 16.8992C26.167 16.7875 26.6138 16.5269 27.3583 16.1546C28.0657 15.7823 28.438 15.5217 28.5497 15.4473C28.5869 15.41 28.5869 15.41 28.5869 15.3728C28.5869 15.2239 27.954 15.1494 26.7255 15.1494C26.7255 15.1494 26.5021 15.1494 26.0181 15.1494C25.7947 15.1494 25.6458 15.1494 25.6458 15.1122C25.6458 15.075 25.683 15.0005 25.7575 14.9261L26.2042 14.1815C26.3159 13.9581 26.5765 13.8092 26.9116 13.772C27.0233 13.7347 27.3211 13.7347 27.7679 13.7347C29.2198 13.6603 29.9271 13.8092 29.9271 14.1443Z" fill="#124D73"/>
<path d="M30.9696 20.8455C30.9323 20.8083 30.9323 20.7711 30.9696 20.7339L31.6025 19.5053C31.6397 19.4308 31.6769 19.3936 31.7142 19.3936C31.7886 19.3936 32.0492 19.5425 32.5332 19.8776C33.0172 20.2127 33.2405 20.3988 33.2405 20.4733C33.2405 20.6966 33.0172 21.1062 32.6076 21.7763C32.5704 21.8507 32.496 21.888 32.4587 21.8507C31.9748 21.4784 31.4535 21.1434 30.9696 20.8455Z" fill="#124D73"/>
<path d="M35.0274 30.8973C35.0274 30.7112 34.8785 30.3389 34.5807 29.7804C34.2084 29.0359 33.9478 28.4402 33.7989 27.9562C33.4638 26.9883 33.2777 26.0948 33.166 25.2385C33.1288 24.9034 33.0915 24.7173 33.0543 24.6428C33.0171 24.4567 32.9054 24.2706 32.7937 24.1216C32.8682 23.8238 33.0171 23.4143 33.2032 22.8931C33.2777 22.7442 33.3149 22.6697 33.3894 22.6697C33.4266 22.6697 33.5011 22.7442 33.6127 22.8931C34.1339 23.5632 34.5435 24.1961 34.8785 24.7545C35.0274 24.9779 35.1019 25.1268 35.1019 25.2385C35.1019 25.313 35.0647 25.3502 34.9902 25.3502C34.8785 25.3502 34.6552 25.2385 34.3201 25.0524C34.2829 25.0524 34.2829 25.0896 34.2456 25.1268C34.3573 25.5363 34.5435 26.0948 34.8041 26.8394C35.3625 28.4402 35.6231 29.6315 35.6231 30.3389C35.6231 30.9718 35.4742 31.6419 35.1391 32.312C34.6924 33.1683 34.0967 33.615 33.3894 33.615V31.7164C34.2829 31.6791 34.8413 31.4185 35.0274 30.8973Z" fill="#124D73"/>
<path d="M37.5221 40.2046C39.2719 39.5717 41.1333 38.9016 43.1065 38.157C43.2181 38.1198 43.2554 38.1198 43.2926 38.1198C43.3298 38.157 43.2926 38.1942 43.2926 38.3059C43.1809 38.5665 43.0692 38.7526 43.032 38.7899C41.3939 39.3855 39.458 40.1301 37.2615 41.0608C37.2615 40.8002 37.3732 40.5396 37.5221 40.2046Z" fill="#124D73"/>
<path d="M41.6171 36.37C41.5427 36.6306 41.4682 36.7795 41.3938 36.8912C41.0587 37.1146 40.2769 37.5986 39.1228 38.4176C39.0856 38.4548 39.0111 38.4921 38.9366 38.5665C38.9366 38.5665 38.8994 38.5293 38.8994 38.4921L38.9739 38.0825C38.9739 38.0081 39.1972 37.8219 39.5695 37.5241C39.0856 37.3752 38.8622 37.1518 38.8622 36.8912C38.8622 36.6306 38.9739 36.3328 39.2345 36.0349C39.7184 35.4765 40.0907 35.2159 40.3886 35.2159C40.6492 35.2159 40.7981 35.3648 40.7981 35.6627C40.7981 35.8488 40.7236 36.0722 40.5747 36.2956C40.5375 36.3328 40.5003 36.3328 40.463 36.2956C40.3886 36.1094 40.2397 35.9977 40.128 35.9977C40.0163 35.9977 39.9046 36.035 39.7185 36.1466C39.5695 36.2583 39.4951 36.37 39.4951 36.4445C39.4951 36.5562 39.6068 36.6678 39.7929 36.7423C39.9791 36.8168 40.128 36.8912 40.2397 36.8912C40.3513 36.8912 40.5375 36.8168 40.7981 36.6678C40.9842 36.5562 41.1704 36.4445 41.3193 36.3328C41.4682 36.2583 41.5799 36.2211 41.6171 36.2211C41.6544 36.1839 41.6544 36.2583 41.6171 36.37Z" fill="#124D73"/>
<path d="M41.4678 8.96948C41.4678 9.11839 41.2816 9.41623 40.9466 9.9002C40.537 10.4214 40.202 10.8309 39.8297 11.0915C39.6063 11.2404 38.899 11.5011 37.6332 11.8361C37.4098 11.8733 37.2981 11.9106 37.2981 11.9106C37.3353 11.8733 37.4098 11.8361 37.5587 11.7244C37.7076 11.6127 38.1544 11.3521 38.899 10.9798C39.6063 10.6076 39.9786 10.347 40.0903 10.2725C40.1275 10.2353 40.1275 10.2353 40.1275 10.198C40.1275 10.0491 39.4946 9.97466 38.2661 9.97466C38.2661 9.97466 38.0427 9.97466 37.5587 9.97466C37.3353 9.97466 37.1864 9.97466 37.1864 9.93743C37.1864 9.9002 37.2237 9.82575 37.2981 9.75129L37.7449 9.00671C37.8566 8.78333 38.1172 8.63442 38.4522 8.59719C38.5639 8.55996 38.8617 8.55996 39.3085 8.55996C40.7604 8.4855 41.4678 8.63442 41.4678 8.96948Z" fill="#124D73"/>
<path d="M41.6916 28.9987C41.5799 30.1156 41.4682 30.7112 41.3937 30.7112C41.3565 30.7112 41.2448 30.2272 41.0959 29.2965C40.8725 27.7329 39.7184 25.9831 37.6336 24.01C36.7773 23.1537 35.8838 22.3347 34.9903 21.4784C34.0224 20.5477 33.2778 19.7659 32.7938 19.1702C32.4588 18.7235 32.0865 18.2023 31.7142 17.5694C31.4908 17.1971 31.2674 16.8248 31.0441 16.4525C30.8579 16.2291 30.709 16.043 30.5228 15.9313C30.4112 15.8941 30.3739 15.7824 30.3739 15.6335V14.3677C30.3739 14.1071 30.4112 13.9954 30.5228 13.9954C30.5601 13.9954 30.6718 14.0698 30.8579 14.1815L33.2778 16.043C33.4639 16.1919 33.5756 16.2664 33.5756 16.3408C33.5756 16.4153 33.5012 16.4525 33.3523 16.4525C33.1661 16.4525 32.831 16.4153 32.3843 16.3036C32.6821 16.8993 33.5756 17.9417 35.0648 19.4308C36.1817 20.5477 37.2985 21.6646 38.4154 22.7442C40.6491 25.0152 41.766 26.9511 41.766 28.5519C41.6916 28.7381 41.6916 28.887 41.6916 28.9987Z" fill="#124D73"/>
<path d="M41.3193 15.7079C41.3193 15.4473 41.2448 15.1495 41.1332 14.8144C41.0215 14.4793 40.947 14.2932 40.947 14.256C40.947 14.1815 41.0215 13.9581 41.1332 13.5114C41.2448 13.1019 41.3193 12.8413 41.3565 12.804C41.3938 12.6923 41.4682 12.6179 41.5054 12.6179C41.5427 12.6179 41.5799 12.6923 41.6544 12.7668C41.8033 13.0274 42.0639 13.5858 42.4734 14.4049C42.9202 15.3356 43.1808 15.9313 43.2552 16.2663C43.2924 16.4525 43.3297 16.6014 43.3297 16.6759C43.3297 16.7503 43.3297 16.7875 43.2552 16.7875C43.1435 16.7875 42.8829 16.5642 42.5106 16.1546C42.4734 16.0802 42.4362 16.1546 42.4362 16.3036C42.4362 16.8248 42.6223 18.4628 42.9574 21.3295C43.2924 24.1589 43.4786 26.0948 43.4786 27.1C43.4786 29.1476 42.9946 30.8973 42.0267 32.2376C41.2821 33.28 40.3886 34.0246 39.4579 34.4713C39.0856 34.6202 38.4154 34.8436 37.5219 35.067C36.5912 35.2904 35.9211 35.4393 35.4743 35.4765C35.2882 35.5137 35.2137 35.4765 35.2137 35.4393C35.2137 35.402 35.2882 35.3276 35.4743 35.2159C36.3306 34.7319 37.6709 33.9129 39.5695 32.7588C40.1652 32.3865 40.7609 31.8653 41.3565 31.1952C42.1756 30.3017 42.5851 29.5571 42.5851 28.9614C42.5851 27.7329 42.3617 25.313 41.9522 21.7762C41.5427 18.165 41.3193 16.1546 41.3193 15.7079Z" fill="#124D73"/>
<path d="M42.213 9.49065C43.9628 8.85775 45.8242 8.18763 47.7973 7.44305C47.909 7.40582 47.9463 7.40582 47.9835 7.40582C48.0207 7.44305 47.9835 7.48028 47.9835 7.59197C47.8718 7.85257 47.7601 8.03872 47.7229 8.07594C46.0848 8.67161 44.1489 9.41619 41.9524 10.3469C41.9896 10.0863 42.1013 9.78848 42.213 9.49065Z" fill="#124D73"/>
<path d="M46.9034 10.9054C46.829 11.166 46.7545 11.3149 46.68 11.4266C46.345 11.65 45.5632 12.1339 44.4091 12.953C44.3718 12.9902 44.2974 13.0274 44.2229 13.1019C44.2229 13.1019 44.1857 13.0647 44.1857 13.0274L44.2602 12.6179C44.2602 12.5435 44.4835 12.3573 44.8558 12.0595C44.3718 11.9106 44.1485 11.6872 44.1485 11.4266C44.1485 11.166 44.2602 10.8682 44.5208 10.5703C45.0047 10.0119 45.377 9.75128 45.6749 9.75128C45.9355 9.75128 46.0844 9.9002 46.0844 10.198C46.0844 10.3842 46.0099 10.6075 45.861 10.8309C45.8238 10.8682 45.7865 10.8682 45.7493 10.8309C45.6749 10.6448 45.5259 10.5331 45.4143 10.5331C45.3026 10.5331 45.1909 10.5703 45.0047 10.682C44.8186 10.7937 44.7814 10.9054 44.7814 10.9798C44.7814 11.0915 44.893 11.2032 45.0792 11.2777C45.2653 11.3894 45.4143 11.4266 45.5259 11.4266C45.6376 11.4266 45.8238 11.3521 46.0844 11.2032C46.2705 11.0915 46.4567 10.9798 46.6056 10.8682C46.7545 10.7937 46.8662 10.7565 46.9034 10.7565C46.9406 10.7192 46.9406 10.7937 46.9034 10.9054Z" fill="#124D73"/>
<path d="M44.6697 16.6758C44.6697 16.0802 44.558 15.559 44.3719 15.1867C44.3719 14.9633 44.558 14.4421 44.8931 13.6231C44.9303 13.5114 45.0047 13.4742 45.0047 13.4742C45.042 13.4742 45.0792 13.5114 45.1164 13.6231C45.2281 13.8464 45.4515 14.4421 45.8238 15.4101C46.1961 16.4152 46.4567 17.0481 46.4939 17.2715C46.5311 17.4577 46.5684 17.5693 46.5684 17.681C46.5684 17.9416 46.3078 17.7927 45.7493 17.1598C45.6749 17.0481 45.6376 17.1226 45.6376 17.2715C45.6376 17.3087 45.7866 19.2446 46.0472 23.0792C46.3078 26.8766 46.4567 29.0359 46.4567 29.5199C46.4567 31.009 46.2333 32.2748 45.7866 33.3917C45.6749 33.615 45.6004 33.764 45.5632 33.8757C45.4515 34.0246 45.4143 34.0618 45.4143 33.9501C45.377 33.8384 45.4143 33.5778 45.4143 33.2428C45.4887 32.7216 45.526 32.1631 45.526 31.493C45.526 30.8973 45.377 28.403 45.042 24.0472C44.8186 19.6542 44.6697 17.2343 44.6697 16.6758Z" fill="#124D73"/>
<path d="M5.70308 29.6216C5.66788 29.5863 5.66788 29.5511 5.70308 29.5159L6.26635 28.3894C6.30155 28.319 6.33676 28.2838 6.37196 28.2838C6.44237 28.2838 6.6888 28.4246 7.11125 28.7414C7.5337 29.0231 7.78013 29.2343 7.78013 29.2695C7.78013 29.4455 7.56891 29.868 7.18166 30.4665C7.14646 30.5369 7.07605 30.5721 7.04084 30.5369C6.61839 30.22 6.16074 29.9032 5.70308 29.6216ZM14.0113 29.9384C14.0113 30.9945 13.7648 31.8042 13.3072 32.3675C12.5679 33.2476 11.4414 34.0925 9.96279 34.9374C8.09697 35.9583 6.37196 36.4864 4.71737 36.4864C2.56991 36.4864 1.09133 35.4303 0.24643 33.318C0.105613 32.8955 0 32.3675 0 31.7338C0 31.3114 0.0352039 30.8537 0.105612 30.4313C0.211225 29.7976 0.352042 29.2343 0.528063 28.7414C0.598472 28.6006 0.66888 28.5302 0.704084 28.5302C0.739289 28.5302 0.774493 28.6358 0.739289 28.8119C0.66888 29.1287 0.598472 29.4103 0.528063 29.692C0.422451 30.2552 0.352042 30.6425 0.352042 30.8889C0.352042 31.769 0.633676 32.5787 1.23215 33.318C2.04184 34.3037 3.16838 34.7966 4.68216 34.7966C6.01992 34.7966 7.42809 34.4797 8.87146 33.8461C10.0684 33.3532 11.1597 32.7195 12.1103 31.9802C12.9904 31.3114 13.4128 30.8537 13.4128 30.5721C13.4128 30.5369 13.2368 30.1496 12.8495 29.4455C12.4271 28.6358 12.1102 27.8261 11.899 27.0516C11.8286 26.77 11.723 26.594 11.6174 26.4884C11.5118 26.418 11.4766 26.3124 11.4766 26.2067C11.4766 26.1011 11.547 25.6787 11.723 24.9042C11.7582 24.7634 11.7934 24.693 11.8286 24.693C11.8638 24.693 11.899 24.7282 11.9694 24.7986C12.1807 25.045 12.6735 25.5027 13.3776 26.2419C13.4832 26.3476 13.5536 26.4532 13.5536 26.5236C13.5536 26.594 13.4832 26.6292 13.3424 26.6292C13.2016 26.6292 12.9552 26.594 12.6735 26.4884C12.7087 26.594 12.9552 27.0869 13.4128 28.0022C13.8353 28.7414 14.0113 29.3751 14.0113 29.9384Z" fill="#124D73"/>
</svg>
