<svg width="48" height="49" viewBox="0 0 48 49" fill="none" xmlns="http://www.w3.org/2000/svg">
<path d="M10.1862 31.8067C10.1381 31.7587 10.1381 31.7106 10.1862 31.6145L11.1471 29.6926C11.1952 29.5965 11.2432 29.5004 11.3393 29.5004C11.4354 29.5004 11.8678 29.7407 12.5886 30.2692C13.3093 30.7497 13.6937 31.086 13.6937 31.1821C13.6937 31.5184 13.3573 32.1911 12.6847 33.2001C12.5886 33.3443 12.5405 33.3923 12.4444 33.2962C11.7718 32.8157 11.003 32.2872 10.1862 31.8067ZM7.97596 43.9629C4.32432 43.9629 1.77778 42.1851 0.432432 38.5815C0.144145 37.8608 0 36.9959 0 35.9389C0 35.1701 0.0480487 34.4494 0.192193 33.7287C0.336337 32.6235 0.576576 31.7106 0.912912 30.8938C1.00901 30.6055 1.15315 30.4614 1.2012 30.4614C1.2973 30.4614 1.2973 30.6536 1.24925 30.9899C1.15315 31.4704 1.00901 31.9989 0.912912 32.4794C0.72072 33.3923 0.624623 34.065 0.624623 34.4974C0.624623 35.9869 1.1051 37.3323 2.11411 38.5815C3.45945 40.2632 5.42942 41.08 7.97596 41.08C10.2342 41.08 12.5886 40.5515 15.039 39.4944C16.9129 38.6776 18.7387 37.6205 20.3723 36.3232C21.7657 35.2662 22.5825 34.4494 22.8228 33.9689C22.8228 32.3353 22.3423 30.6055 21.4294 28.7317C21.2853 28.3953 21.1892 28.107 21.1892 27.9148C21.1892 27.7707 21.3813 27.05 21.7657 25.8488C21.8138 25.6085 21.9099 25.5125 21.9579 25.5125C22.054 25.5125 22.1982 25.6566 22.3423 25.9929C22.5825 26.5695 22.7747 26.9058 22.9189 27.05C23.2552 27.3863 23.7357 27.5785 24.4084 27.5785V30.5094C24.072 30.5094 23.8318 30.4614 23.6876 30.4133C23.6876 32.4314 23.5916 33.9208 23.3513 34.9779C23.1111 36.1311 22.6786 36.9959 22.1021 37.5725C20.5165 39.1581 18.5465 40.5515 16.2402 41.8007C13.3573 43.1941 10.5706 43.9629 7.97596 43.9629Z" fill="#124D73"/>
<path d="M27.4836 42.0891L28.2043 40.5516C28.2524 40.4555 28.3485 40.3594 28.3965 40.3594C28.4926 40.3594 28.925 40.6477 29.6457 41.1281C30.4145 41.6567 30.7508 41.945 30.7508 41.993C30.7508 42.3293 30.4145 43.002 29.7899 44.0591C29.6938 44.1552 29.6457 44.2032 29.5497 44.1552C28.877 43.6747 28.1563 43.1942 27.3875 42.6657C27.0992 43.2903 26.859 43.8188 26.5707 44.2513C26.5226 44.3954 26.4265 44.4435 26.3304 44.3474C25.6097 43.7708 24.8409 43.2423 24.0241 42.7618C23.9761 42.7137 23.9761 42.6657 24.0241 42.5696L24.9851 40.6957C25.0331 40.5996 25.0812 40.5035 25.1773 40.5035C25.2734 40.5035 25.6097 40.6957 26.2343 41.1281C26.907 41.5606 27.2914 41.8969 27.4836 42.0891Z" fill="#124D73"/>
<path d="M32.1922 35.9389C30.7988 35.9389 29.7898 35.4584 29.2132 34.5455C28.8288 33.8728 28.5405 32.7677 28.3483 31.1341C28.1081 29.0199 27.9159 27.5785 27.7717 26.9539C27.6276 26.3293 27.4354 26.041 27.2432 26.041C27.0991 26.041 27.003 26.2332 26.9069 26.6175C26.4745 29.1641 25.6576 30.4133 24.4084 30.4133V27.4824C25.8018 27.4824 26.5705 26.3293 26.6666 24.023C26.7147 23.1581 26.9069 22.6776 27.2913 22.6776C27.6756 22.6776 28.012 23.0139 28.2522 23.6866C28.6847 24.8398 29.021 26.3293 29.2612 28.2512C29.5015 30.0289 29.6937 31.1341 29.9339 31.6626C30.3663 32.5755 31.1351 33.0079 32.1922 33.0079V35.9389Z" fill="#124D73"/>
<path d="M27.3874 13.0681C30.0781 12.1071 32.961 11.0501 36.036 9.89693C36.1802 9.84888 36.2763 9.80083 36.3243 9.84888C36.3724 9.89693 36.3724 9.99302 36.2763 10.1372C36.0841 10.5696 35.9399 10.8098 35.8438 10.9059C33.2973 11.8188 30.3183 13.02 26.8589 14.4134C26.955 13.981 27.1471 13.5486 27.3874 13.0681Z" fill="#124D73"/>
<path d="M33.6337 7.59059C33.6337 7.92693 33.5376 8.35936 33.3935 8.74374C33.1532 9.27227 32.8649 9.51251 32.5286 9.51251C31.952 9.51251 31.5676 9.12813 31.3754 8.35936C31.0872 9.32032 30.6547 9.84885 29.934 9.84885C29.6457 9.84885 29.4535 9.7047 29.2613 9.46446C29.0211 9.12813 28.925 8.74375 28.925 8.21522V7.01402C28.925 6.91792 28.877 6.82183 28.7328 6.82183C28.5887 6.82183 28.5406 6.67768 28.5406 6.53354C28.5406 6.2933 28.6367 6.00501 28.877 5.76477C29.0691 5.57258 29.2133 5.42843 29.3094 5.42843C29.4535 5.42843 29.5016 5.66867 29.5016 6.1972C29.5016 6.48549 29.5016 6.72573 29.4535 6.91792C29.4055 7.11011 29.4055 7.25426 29.4055 7.3984C29.4055 7.68669 29.4535 7.97498 29.5977 8.21522C29.6938 8.50351 29.886 8.64765 30.0782 8.64765C30.3664 8.64765 30.5586 8.55155 30.7989 8.31131C31.0391 8.07107 31.1352 7.78279 31.1352 7.4945C31.1352 7.30231 31.0872 7.01402 30.943 6.53354C30.8469 6.10111 30.7989 5.81282 30.7989 5.66867C30.7989 5.57258 30.8469 5.38039 30.943 5.18819C31.0391 4.996 31.1352 4.85186 31.1352 4.85186C31.2313 4.85186 31.3274 5.14015 31.4715 5.76477C31.6157 6.34135 31.6637 6.82183 31.6637 7.06207C31.6637 7.87888 32.0001 8.31131 32.6247 8.31131C32.913 8.31131 33.0571 8.16717 33.1532 7.87888C32.6247 6.91792 32.3364 6.1972 32.3364 5.66867C32.3364 5.38039 32.3845 5.14015 32.5286 4.89991C32.6247 4.75576 32.6727 4.65967 32.7208 4.65967C32.7688 4.65967 32.8169 4.75576 32.8169 4.94796C32.8649 5.23624 32.8649 5.42844 32.913 5.62063C32.961 5.62063 33.0571 5.95696 33.3454 6.62963C33.5857 7.06207 33.6337 7.35035 33.6337 7.59059Z" fill="#124D73"/>
<path d="M32.0958 15.6146L32.8165 14.0771C32.8646 13.981 32.9607 13.8849 33.0087 13.8849C33.1048 13.8849 33.5373 14.1732 34.258 14.6537C35.0268 15.1822 35.3631 15.4705 35.3631 15.5185C35.3631 15.8549 35.0268 16.5275 34.4021 17.5846C34.306 17.6807 34.258 17.7287 34.1619 17.6807C33.4892 17.2002 32.7685 16.7197 31.9997 16.1912C31.7114 16.8158 31.4712 17.3443 31.1829 17.7768C31.1349 17.9209 31.0388 17.969 30.9427 17.8729C30.222 17.2963 29.4532 16.7678 28.6364 16.2873C28.5883 16.2392 28.5883 16.1912 28.6364 16.0951L29.5973 14.2212C29.6454 14.1251 29.6934 14.029 29.7895 14.029C29.8856 14.029 30.222 14.2212 30.8466 14.6537C31.5193 15.1341 31.9517 15.4224 32.0958 15.6146Z" fill="#124D73"/>
<path d="M34.9308 32.047C34.7386 33.2482 34.3542 34.2091 33.7776 34.8818C33.2491 35.5545 32.6725 35.8908 32.0479 35.8908V32.9599C33.4893 32.9599 34.21 32.2872 34.21 30.9899C34.21 30.6536 34.1139 29.8848 33.8257 28.5875C33.5374 27.2422 33.2491 26.1371 32.9608 25.2722C32.8167 24.8398 32.7686 24.6476 32.7686 24.5996C32.7686 23.4945 32.9608 22.5815 33.2491 21.9089C33.3452 21.6206 33.4413 21.4764 33.4893 21.4764C33.5374 21.4764 33.6335 21.5725 33.7296 21.7647C34.4022 23.062 34.9788 25.2722 35.5073 28.3473C35.8437 30.2212 36.3242 31.4704 36.9488 32.1431C37.3812 32.5755 38.0058 32.8158 38.8226 32.8158V35.7467C37.9097 35.7467 37.0929 35.4584 36.4202 34.8818C35.6515 34.2572 35.123 33.2962 34.9308 32.047Z" fill="#124D73"/>
<path d="M43.1467 27.0981C43.1467 29.9329 42.6181 32.1431 41.6091 33.7767C40.7442 35.1701 39.7352 35.8428 38.5821 35.8428V32.9119C39.5431 32.9119 40.4079 32.5755 41.2728 31.8068C41.5611 31.6146 41.6572 30.7978 41.6572 29.4524C41.6572 28.6356 41.465 25.3203 41.0325 19.5545C40.6001 13.7888 40.4079 10.3774 40.4079 9.36838C40.4079 8.40742 40.2638 7.63865 39.9755 7.06207C39.9755 6.72574 40.2638 5.86087 40.7923 4.61163C40.8884 4.46748 40.9364 4.41943 40.9845 4.41943C41.0325 4.41943 41.1286 4.51553 41.1767 4.65967C41.3208 4.99601 41.7052 5.90892 42.2818 7.39841C42.8584 8.98399 43.2427 9.94495 43.3388 10.2813C43.4349 10.5696 43.4349 10.7618 43.4349 10.8579C43.4349 11.2903 43.0025 11.0501 42.1857 10.1371C42.0896 9.993 42.0415 10.041 42.0415 10.2813C42.0415 10.3293 42.2337 12.9239 42.6181 18.017C42.9545 23.062 43.1467 26.0891 43.1467 27.0981Z" fill="#124D73"/>
<path d="M44.9729 9.60856C44.9729 8.6476 44.8288 7.87883 44.5405 7.30226C44.5405 6.96592 44.8288 6.14911 45.3573 4.85181C45.4534 4.70767 45.5014 4.61157 45.5495 4.61157C45.5975 4.61157 45.6456 4.70767 45.7417 4.85181C45.9339 5.18815 46.2702 6.10106 46.8468 7.59054C47.4233 9.17613 47.8077 10.1371 47.9038 10.4734C47.9999 10.7617 47.9999 10.9539 47.9999 11.098C47.9999 11.5305 47.5675 11.2422 46.7507 10.3293C46.6546 10.1851 46.6065 10.2332 46.6065 10.5215C46.6065 10.6176 46.7987 13.5965 47.2792 19.5545C47.7116 25.4644 47.9038 28.8277 47.9038 29.5485C47.9038 31.8548 47.5675 33.8247 46.8948 35.5545C46.7507 35.8908 46.6065 36.131 46.5585 36.2752C46.4143 36.5154 46.3182 36.5635 46.3182 36.4193C46.2702 36.2271 46.2702 35.8428 46.3663 35.3142C46.4624 34.5455 46.5104 33.6325 46.5104 32.5755C46.5104 31.6145 46.2702 27.7707 45.7897 20.9959C45.2131 14.2212 44.9729 10.4254 44.9729 9.60856Z" fill="#124D73"/>
</svg>
