<svg width="49" height="49" viewBox="0 0 49 49" fill="none" xmlns="http://www.w3.org/2000/svg">
<path d="M3.28859 34.97C2.43546 34.9711 1.7166 34.6127 1.08704 33.8502C0.412587 33.0877 0.0970752 32.1002 0.0957103 30.9777C0.0937994 29.4061 0.719912 27.3399 2.01901 24.8238C2.15338 24.5542 2.24302 24.4194 2.33283 24.4193C2.37778 24.4641 2.37778 24.4641 2.37784 24.509C2.37817 24.7784 2.10985 25.6768 1.52792 27.1593C0.990905 28.6417 0.722969 29.8544 0.724006 30.7075C0.724825 31.381 0.860131 31.8748 1.17494 32.2785C1.48979 32.7271 1.93909 32.9511 2.56771 32.9503C3.46575 32.9492 4.54268 32.3642 5.79856 31.2401C5.9331 31.1053 7.00933 29.9365 9.02723 27.7339C11.9868 24.4973 14.679 22.9225 17.0139 22.9197C17.6874 22.9188 18.2714 23.0977 18.7658 23.5462C19.2602 23.9497 19.4854 24.4433 19.486 24.9821C19.4868 25.6557 19.3528 26.2396 19.129 26.7786C19.0394 26.9584 18.9946 27.0482 18.9497 27.0483C18.9048 27.0483 18.8149 26.9586 18.7249 26.7791C18.2299 25.8817 17.5109 25.4785 16.5231 25.4797C14.727 25.4818 12.663 26.6518 10.331 29.0344C9.03056 30.4729 7.7301 31.8664 6.42964 33.26C5.35342 34.4287 4.27643 34.9688 3.28859 34.97Z" fill="#124D73"/>
<path d="M21.2459 32.1194C20.6612 31.3567 20.1219 30.9533 19.628 30.9539C18.8647 30.9548 18.5057 31.1349 18.5062 31.539C18.5067 31.988 19.001 32.2568 20.0786 32.2555C20.4378 32.2551 20.8419 32.2097 21.2459 32.1194ZM22.5517 35.1711C22.5514 34.9017 22.5062 34.6323 22.416 34.363C21.9223 34.5432 21.204 34.589 20.261 34.5902C18.2854 34.5926 17.2967 33.9202 17.2951 32.5732C17.2938 31.5404 17.607 30.5971 18.2795 29.7881C18.9072 29.024 19.5354 28.664 20.2089 28.6632C20.7477 28.6625 21.3319 28.9761 21.9164 29.6489C22.4559 30.232 22.9507 30.9498 23.3559 31.8474C23.4008 31.8473 23.4906 31.8023 23.6252 31.7573L23.628 34.0472L23.5383 34.0923C23.5389 34.5862 23.4498 35.17 23.2262 35.9336C22.913 36.8769 22.5099 37.6857 21.9718 38.3149C20.6714 39.7534 19.326 41.0572 17.8456 42.2264C15.6475 43.8905 13.7177 44.701 12.0563 44.7031C10.6643 44.7047 9.5861 44.2121 8.82151 43.1803C8.1469 42.2831 7.83122 41.1609 7.82958 39.8139C7.8274 38.0178 8.18443 36.2213 8.94552 34.3794C9.12469 34.02 9.21422 33.7954 9.30402 33.7953C9.34893 33.7952 9.34898 33.8401 9.34903 33.885C9.3492 34.0197 9.30457 34.2443 9.21509 34.5138C8.72336 36.3105 8.45564 37.7027 8.45679 38.6457C8.45782 39.4988 8.68321 40.217 9.13299 40.845C9.7627 41.7423 10.8409 42.19 12.2328 42.1883C13.4901 42.1868 14.9712 41.6462 16.766 40.5664C18.2018 39.7115 19.5475 38.6322 20.8482 37.4183C21.9245 36.2944 22.5522 35.5303 22.5517 35.1711Z" fill="#124D73"/>
<path d="M35.4961 8.70816C35.5856 8.48354 35.5853 8.21413 35.5401 7.98967C35.4949 7.72032 35.36 7.58577 35.1804 7.58599C35.0906 7.5861 34.9559 7.63117 34.8214 7.72114C34.6419 7.81116 34.5971 7.90101 34.5972 7.99082C34.5525 8.17048 34.8671 8.39461 35.4961 8.70816ZM35.0035 9.7864C34.2396 9.38321 33.835 8.97959 33.8345 8.53057C33.8338 7.99175 34.1026 7.4975 34.596 7.04788C35.0894 6.59826 35.4933 6.41816 35.8527 6.55243C36.1222 6.64191 36.2573 6.95606 36.2579 7.44998C36.2584 7.89899 36.1692 8.39302 35.9903 8.97696C36.3947 9.20098 36.6195 9.42522 36.7095 9.55982C36.7097 9.78432 36.5306 10.1438 36.172 10.6381C36.0819 10.4586 35.8123 10.2793 35.4528 10.0553C35.0046 10.6844 34.4664 11.2239 33.7934 11.6737C33.0308 12.2584 32.3129 12.6634 31.6846 12.9785C31.55 13.0684 30.787 13.3388 29.4406 13.8343C29.2162 13.9244 29.0815 13.9695 28.9917 13.9696C28.9468 13.9696 28.9468 13.9696 28.9468 13.9247C28.9467 13.8798 29.0812 13.745 29.3056 13.61C30.2927 13.0251 31.3247 12.3952 32.3118 11.8103C33.5233 11.0904 34.4205 10.4157 35.0035 9.7864Z" fill="#124D73"/>
<path d="M35.0568 16.5216C35.0572 16.8359 34.9678 17.1952 34.8335 17.5097C34.6544 17.9589 34.3853 18.1838 34.071 18.1842C33.5771 18.1848 33.2624 17.8708 33.0819 17.1975C32.8585 18.0509 32.4549 18.4555 31.8262 18.4563C31.6017 18.4566 31.4219 18.3221 31.2421 18.1427C31.0622 17.8735 30.9719 17.5144 30.9714 17.0654L30.9701 16.0326C30.97 15.9428 30.9251 15.898 30.7903 15.8533C30.6556 15.8085 30.6105 15.7188 30.6104 15.5841C30.6101 15.3596 30.6996 15.1349 30.9239 14.9102C31.1033 14.7303 31.2379 14.6404 31.3277 14.6403C31.4624 14.6401 31.5075 14.8645 31.5081 15.3136C31.5084 15.583 31.5086 15.7626 31.464 15.9422C31.4193 16.1219 31.4194 16.2566 31.4195 16.3464C31.4199 16.6158 31.465 16.8403 31.6 17.0646C31.6902 17.3339 31.8699 17.4684 32.0495 17.4682C32.274 17.4679 32.4984 17.3778 32.6778 17.1531C32.8571 16.9284 32.9915 16.7037 32.9912 16.4343C32.991 16.2547 32.9458 15.9853 32.8555 15.6262C32.7652 15.2222 32.7201 14.9978 32.7199 14.908C32.7198 14.8182 32.7646 14.6834 32.8542 14.5037C32.9437 14.324 32.9885 14.2341 33.0334 14.2341C33.1232 14.234 33.2134 14.5033 33.3487 14.997C33.484 15.4908 33.5294 15.8948 33.5297 16.1193C33.5305 16.8378 33.8004 17.1967 34.3392 17.196C34.6086 17.1957 34.7431 17.0608 34.7878 16.8362C34.3378 16.0286 34.0676 15.4003 34.0671 14.9512C34.0668 14.7267 34.1114 14.5022 34.2458 14.2775C34.3355 14.1427 34.3803 14.0528 34.4252 14.0528C34.4701 14.0527 34.5151 14.1425 34.5153 14.3221C34.5605 14.5465 34.5607 14.7261 34.6058 14.9057C34.6507 14.9056 34.7409 15.2198 34.9661 15.8033C35.0114 16.0726 35.0565 16.2971 35.0568 16.5216ZM26.2207 24.3453C26.2202 23.9861 26.0828 21.786 25.7636 17.7003C25.4443 13.6147 25.3068 11.3697 25.3063 10.9207C25.3053 10.1125 25.1698 9.43913 24.9447 8.94549C24.9443 8.63117 25.168 7.95737 25.6605 6.83423C25.7053 6.69947 25.795 6.60956 25.8399 6.6095C25.8848 6.60945 25.9747 6.69914 26.0198 6.83379C26.1548 7.14794 26.4701 7.91089 26.9656 9.21244C27.4611 10.5589 27.7765 11.4116 27.8667 11.7258C27.9568 11.9951 27.957 12.1748 27.9571 12.2646C27.9576 12.6238 27.5981 12.3997 26.8786 11.5474C26.7887 11.4577 26.7439 11.5027 26.7441 11.7272C26.7441 11.7272 26.8808 13.2986 27.109 16.3966C27.3822 19.4945 27.4741 21.2455 27.4747 21.6945C27.4761 22.862 27.2987 24.6583 26.9424 27.0834C28.4219 25.2406 29.3635 24.1169 29.7671 23.7123C31.0229 22.4985 32.2794 21.9132 33.5367 21.9117C34.5694 21.9104 35.5129 22.3583 36.4571 23.345C37.2214 24.1523 37.5814 24.7805 37.5819 25.2295C37.5828 25.9928 37.3592 26.7115 36.9111 27.4754C36.463 28.2393 35.9248 28.7787 35.2518 29.1837C35.8354 29.0932 36.3741 29.0027 36.9577 28.9122C37.7658 28.7765 38.3942 28.5961 38.8879 28.4159L38.8907 30.7059C38.397 30.8861 37.4094 31.1118 35.8383 31.4281C33.5039 31.8799 31.2142 32.1072 28.8793 32.1101C28.0266 32.4703 26.2313 33.1011 23.4935 34.0923L23.4907 31.8023C24.0284 30.9036 24.8352 29.6903 25.911 28.1623C26.0903 27.9376 26.1797 27.5782 26.1791 27.0843C26.2239 26.9945 26.2228 26.0964 26.2207 24.3453ZM36.1915 26.4884C36.3261 26.3985 36.3258 26.2189 36.1909 26.0394C35.3365 24.9628 34.2133 24.4254 32.8213 24.427C31.8784 24.4282 30.7564 24.8786 29.5901 25.8229C28.7378 26.5424 27.7512 27.5314 26.6751 28.79C25.9577 29.6889 25.2404 30.5878 24.4782 31.4868C25.7798 31.0362 27.7994 30.2255 30.537 29.0547C33.6785 27.7487 35.5633 26.8933 36.1915 26.4884Z" fill="#124D73"/>
<path d="M40.2548 7.89416C40.2539 7.08593 40.1183 6.41257 39.8483 5.87408C39.8479 5.55976 40.0715 4.84106 40.5641 3.76282C40.6538 3.62801 40.6986 3.58305 40.6986 3.58305C40.7435 3.58299 40.8334 3.67269 40.8785 3.80734C41.0135 4.07659 41.3288 4.88444 41.8243 6.18599C42.3199 7.53244 42.6352 8.38519 42.7254 8.6994C42.8155 8.92379 42.8157 9.1034 42.8158 9.1932C42.8163 9.55242 42.4568 9.37325 41.7374 8.56589C41.6475 8.43129 41.6026 8.47625 41.6029 8.70076C41.6029 8.74566 41.7853 10.9905 42.1049 15.3905C42.4246 19.7905 42.6074 22.3946 42.6084 23.2477C42.6101 24.6397 42.3872 25.987 41.8948 27.2449C41.2235 29.0418 40.2371 30.2553 38.8458 30.7958L38.843 28.5058C40.5035 27.7854 41.3554 26.7067 41.3536 25.2698C41.3527 24.5514 41.1697 21.7228 40.8044 16.6943C40.439 11.6657 40.2559 8.7473 40.2548 7.89416Z" fill="#124D73"/>
<path d="M45.4732 16.06C45.4722 15.2518 45.3367 14.5784 45.0667 14.0848C45.0663 13.7705 45.29 13.0967 45.7825 11.9735C45.8722 11.8387 45.917 11.7489 45.9619 11.7488C46.0068 11.7488 46.0518 11.8385 46.1418 11.9731C46.2768 12.2873 46.5921 13.0502 47.0876 14.3518C47.5831 15.6982 47.8985 16.551 47.9887 16.8652C48.0788 17.0896 48.079 17.2692 48.0791 17.4039C48.0796 17.7631 47.7201 17.539 47.0007 16.7317C46.9107 16.5971 46.8659 16.642 46.8661 16.8665C46.8662 16.9563 47.049 19.5155 47.4594 24.6787C47.8248 29.7971 48.0079 32.6706 48.0087 33.2992C48.0111 35.2749 47.7438 37.0264 47.117 38.5089C46.9826 38.8234 46.893 39.0031 46.8034 39.1379C46.669 39.3626 46.6241 39.4075 46.5791 39.2729C46.5339 39.0933 46.5336 38.779 46.6228 38.3299C46.7118 37.6563 46.7557 36.848 46.7546 35.9499C46.7537 35.1417 46.5251 31.8193 46.1138 25.9376C45.7026 20.056 45.4741 16.7784 45.4732 16.06Z" fill="#124D73"/>
<path d="M15.0529 14.2322C15.0531 14.4057 14.8801 14.7528 14.4905 15.2736C14.0576 15.8812 13.6245 16.3154 13.2346 16.6194C12.9746 16.7932 12.1511 17.0977 10.7639 17.4463C10.5038 17.49 10.3738 17.5335 10.3738 17.5335C10.4171 17.4901 10.5037 17.4466 10.677 17.3163C10.8503 17.186 11.3703 16.8818 12.1937 16.4472C12.9737 16.0126 13.4504 15.7519 13.5803 15.6216C13.6236 15.5782 13.6236 15.5782 13.6235 15.5349C13.6233 15.3614 12.9294 15.2755 11.4985 15.2773C11.4985 15.2773 11.2383 15.2776 10.7179 15.2782C10.4578 15.2785 10.2843 15.2787 10.2842 15.2354C10.2842 15.192 10.3275 15.1486 10.4141 15.0184L10.9334 14.1939C11.0632 13.9335 11.3666 13.8031 11.7567 13.7159C11.8868 13.6724 12.1903 13.672 12.7107 13.6714C14.2284 13.6695 15.0525 13.842 15.0529 14.2322Z" fill="#124D73"/>
</svg>
