<svg width="49" height="41" viewBox="0 0 49 41" fill="none" xmlns="http://www.w3.org/2000/svg">
<path d="M47.534 20.1747C47.534 19.8541 47.2592 19.19 46.7096 18.1365C46.0455 16.8083 45.5646 15.7777 45.2898 14.9533C44.7402 13.19 44.3508 11.6098 44.1447 10.1213C44.0989 9.52586 44.0302 9.18235 43.9844 9.02204C43.9386 8.74723 43.7554 8.42662 43.5493 8.08311C43.7096 7.5793 43.9386 6.86938 44.2592 5.93045C44.4195 5.65564 44.4882 5.54114 44.5798 5.54114C44.6256 5.54114 44.8089 5.65564 45.015 5.93045C45.8852 7.14419 46.618 8.28922 47.2134 9.22815C47.4882 9.66326 47.6027 9.93807 47.6027 10.0984C47.6027 10.2129 47.5569 10.2587 47.4424 10.2587C47.2134 10.2587 46.7783 10.0984 46.2287 9.70906C46.1829 9.70906 46.1142 9.75487 46.0684 9.82357C46.2974 10.5335 46.618 11.5869 47.0531 12.8465C48.1066 15.709 48.5875 17.793 48.5875 19.1213C48.5875 20.2205 48.2669 21.3655 47.7172 22.5335C46.9386 24.1365 45.9081 24.8922 44.6486 24.8922V21.5487C46.16 21.5487 47.1676 21.0449 47.534 20.1747Z" fill="#124D73"/>
<path d="M9.72478 40.2357C6.38128 40.2357 3.908 39.1364 2.35076 36.8235C1.13702 35.1288 0.587402 32.9304 0.587402 30.2281C0.587402 29.4036 0.633203 28.5792 0.747707 27.8006C0.976713 26.5411 1.25152 25.4418 1.57213 24.5029C1.68664 24.2281 1.84694 24.0678 1.96144 24.0678C2.07595 24.0678 2.07595 24.2281 2.00724 24.6174C1.45763 27.4113 1.22862 29.0143 1.22862 29.3349C1.22862 31.0296 1.77824 32.6326 2.92327 34.0525C4.45762 35.9303 6.72479 36.8464 9.63318 36.8464C12.2668 36.8464 15.0148 36.2968 17.8774 35.083C20.2362 34.0983 22.3889 32.8845 24.3125 31.4647C26.0072 30.1365 26.8316 29.2204 26.8316 28.6708C26.8316 27.0678 26.3278 25.2586 25.2973 23.335C25.0682 22.9456 24.9766 22.625 24.9766 22.3502C24.9766 22.1899 25.2057 21.4113 25.6408 19.9915C25.7553 19.7624 25.8011 19.6021 25.9156 19.6021C26.0301 19.6021 26.1904 19.8312 26.3507 20.1518C27.1751 21.9151 28.3201 22.7853 29.6484 22.7853C30.5186 22.7853 31.1369 22.7395 31.572 22.625C32.2362 22.396 32.9003 21.9609 33.5415 21.251C33.8621 20.7472 34.4804 19.9915 35.3049 19.0067C35.4652 18.7777 35.6255 18.6861 35.8545 18.6861C36.0835 18.6861 36.1751 18.8006 36.1751 19.0754C36.1751 19.1899 36.1293 19.396 36.0148 19.6708C35.969 19.9915 35.9003 20.2205 35.9003 20.3808C35.9003 20.7014 36.0606 21.0449 36.4499 21.4342C36.885 21.938 37.4346 22.2128 38.1445 22.1441C39.198 22.1899 40.2972 20.8846 41.3964 18.2968C41.5109 18.0678 41.6712 17.9762 41.7858 17.9762C42.0606 17.9762 42.1751 18.1365 42.0606 18.5258C42.0606 18.7548 42.0148 19.0296 42.0148 19.2357C42.0148 20.7701 42.885 21.5487 44.6483 21.5487V24.8922C42.9537 24.8922 41.7858 23.9533 41.1903 22.1441C41.1445 21.9838 41.0758 21.9838 40.9613 22.1441C40.1827 24.3884 39.0377 25.5563 37.5033 25.4876C36.9537 25.5334 36.4041 25.3273 35.8545 24.938C35.1904 24.5029 34.7552 23.8846 34.4804 23.1747C34.4346 22.9457 34.3201 22.9457 34.2056 23.1747C33.885 23.6785 33.3354 24.2739 32.5568 24.8235C31.4575 25.6937 30.4041 26.083 29.3736 26.083C28.8698 26.083 28.4346 26.0372 28.0453 25.9227C28.0453 28.8311 27.4957 30.9151 26.3507 32.2433C24.8621 33.938 22.7324 35.5868 19.8698 37.1899C16.2744 39.2509 12.8622 40.2357 9.72478 40.2357Z" fill="#124D73"/>
<path d="M44.6944 31.6022L45.5646 29.793C45.6104 29.6785 45.6791 29.6327 45.7936 29.6327C45.9081 29.6327 46.3432 29.9075 47.2135 30.5029C48.0379 31.0525 48.473 31.3731 48.473 31.4876C48.473 31.877 48.0837 32.7014 47.3738 33.9151C47.2593 34.0754 47.1448 34.0754 47.0532 34.0296C46.3432 33.48 45.5188 32.9304 44.5799 32.335C44.2593 32.9991 43.9845 33.5945 43.641 34.0983C43.5952 34.2586 43.4806 34.3273 43.3661 34.2586C42.5417 33.5945 41.6715 32.9991 40.7784 32.4495C40.7326 32.4037 40.7326 32.335 40.7784 32.2205L41.8318 30.022C41.8776 29.9075 41.9921 29.793 42.0608 29.793C42.1753 29.793 42.5646 30.0678 43.2745 30.5716C43.9616 31.0067 44.4654 31.3731 44.6944 31.6022Z" fill="#124D73"/>
<path d="M28.641 7.92285C29.3051 7.92285 29.5799 8.19766 29.5799 8.79308C29.5799 9.11369 29.5341 9.503 29.3509 9.84651C29.2364 10.0755 28.9616 10.4419 28.4807 10.9915C27.8166 11.7702 27.4273 12.3198 27.1525 12.5946C26.8318 13.0984 26.6028 13.3732 26.557 13.3732L26.5112 13.3274C26.5112 13.2816 26.6257 13.0984 26.7402 12.8236C26.9692 12.2282 27.3357 11.5641 27.954 10.9457C28.2288 10.5564 28.5494 10.2358 28.9387 9.84651C28.7784 9.5259 28.6181 9.4114 28.3433 9.4114C28.1143 9.4114 27.8395 9.4572 27.5647 9.6404C24.7021 11.0602 21.954 11.8389 19.3204 11.8389C17.9006 11.8389 16.5723 11.5183 15.3586 10.8541C15.5876 11.4038 15.4731 12.0679 15.1983 12.8236C15.0838 13.1442 15.038 13.2587 14.9693 13.3274C14.9235 13.3274 14.9235 13.0984 14.9235 12.7778C14.9235 12.0679 14.809 11.4496 14.6029 10.9686C14.6029 10.9228 14.2136 10.3732 13.5494 9.36559C13.6639 8.65567 13.8242 8.31216 14.0533 8.31216C14.0533 8.31216 14.2823 8.42667 14.5571 8.70147C14.9922 9.02208 15.3815 9.25109 15.7708 9.4801C16.9845 10.1442 18.2899 10.4648 19.7326 10.4648C21.2212 10.4648 22.641 10.2358 24.0838 9.8007C24.8624 9.5259 25.8471 9.13658 26.9921 8.54117C27.8166 8.12895 28.3662 7.92285 28.641 7.92285Z" fill="#124D73"/>
<path d="M37.9153 8.12892C37.755 8.40373 37.6863 8.56403 37.5947 8.56403C37.4802 8.56403 37.4802 8.33502 37.5489 8.01442C37.5947 7.73961 37.6634 7.30449 37.6634 6.86938C37.6634 5.26633 36.7932 3.73198 34.9611 2.15184C34.8466 2.10603 34.8466 1.92283 34.9611 1.83123L35.4649 0.961C35.5107 0.846496 35.5794 0.846496 35.6939 0.961C37.4573 2.22054 38.3275 3.98389 38.3275 6.18236C38.3046 6.86938 38.1443 7.5335 37.9153 8.12892Z" fill="#124D73"/>
</svg>
