<svg width="49" height="49" viewBox="0 0 49 49" fill="none" xmlns="http://www.w3.org/2000/svg">
<path d="M25.5318 17.9329C27.6263 17.182 29.8395 16.3916 32.2107 15.5222C32.3292 15.4827 32.4083 15.4432 32.4083 15.4827C32.4478 15.5222 32.4478 15.6012 32.3687 15.6803C32.2107 15.9964 32.1316 16.194 32.0526 16.2731C30.0766 16.9844 27.7844 17.8934 25.1366 18.9604C25.2156 18.6443 25.3342 18.3281 25.5318 17.9329Z" fill="#124D73"/>
<path d="M27.4292 25.0069C27.3897 24.9674 27.3897 24.9279 27.4292 24.8489L28.1801 23.3866C28.2196 23.3076 28.2591 23.2681 28.3381 23.2681C28.4172 23.2681 28.7333 23.4657 29.3261 23.8609C29.8794 24.2561 30.1956 24.4932 30.1956 24.5722C30.1956 24.8093 29.9584 25.3231 29.4447 26.153C29.3656 26.2716 29.3261 26.2716 29.2471 26.2321C28.6148 25.7973 28.022 25.3626 27.4292 25.0069Z" fill="#124D73"/>
<path d="M25.4137 33.9385C26.2041 33.0691 27.2317 32.2787 28.4963 31.5673C29.2472 31.1721 30.5513 30.5793 32.3692 29.7889V31.844C31.2232 32.3182 30.3537 32.7134 29.8005 32.99C28.6544 33.5038 27.9035 33.9385 27.4688 34.2547C26.6784 34.8475 25.5718 35.9936 24.1096 37.7324C23.2402 38.76 22.3312 39.2342 21.4618 39.2342C20.7109 39.2342 20.039 38.8785 19.4858 38.2067C18.893 37.4953 18.6163 36.6654 18.6163 35.6379C18.6163 34.2547 19.1696 32.4368 20.3157 30.1841C20.4342 29.947 20.5133 29.8285 20.5923 29.8285C20.6318 29.868 20.6318 29.868 20.6318 29.9075C20.6318 30.1446 20.3947 30.935 19.881 32.2392C19.4067 33.5828 19.1301 34.6104 19.1301 35.4008C19.1301 35.9936 19.2487 36.4678 19.5648 36.8235C19.8414 37.2187 20.2762 37.4163 20.7899 37.4163C21.6989 37.4163 22.6474 36.942 23.5958 35.9936C24.2282 35.3612 24.821 34.6499 25.4137 33.9385Z" fill="#124D73"/>
<path d="M36.3606 3.11297C36.3606 3.27105 36.163 3.62672 35.7678 4.21952C35.2936 4.85184 34.8589 5.32608 34.4242 5.64224C34.187 5.83984 33.2781 6.11648 31.8159 6.51167C31.5392 6.55119 31.4207 6.59071 31.4207 6.59071C31.4602 6.55119 31.5392 6.47215 31.6973 6.35359C31.8949 6.19551 32.4086 5.91888 33.2781 5.44464C34.108 5.00992 34.5822 4.69376 34.7008 4.5752C34.7403 4.53568 34.7403 4.49616 34.7403 4.49616C34.7403 4.29856 33.9894 4.21952 32.5272 4.21952C32.5272 4.21952 32.2506 4.21952 31.6973 4.25904C31.4207 4.29856 31.2626 4.25904 31.2626 4.21952C31.2626 4.18 31.3021 4.10096 31.3811 3.9824L31.8949 3.11297C32.053 2.83633 32.3296 2.67825 32.7643 2.63873C32.8829 2.59921 33.2386 2.59921 33.7918 2.59921C35.5307 2.52017 36.3606 2.71777 36.3606 3.11297Z" fill="#124D73"/>
<path d="M33.5149 11.4911C33.5149 10.7798 33.3964 10.187 33.1593 9.71275C33.1593 9.43611 33.3569 8.80379 33.7916 7.81579C33.8706 7.69723 33.9101 7.65771 33.9101 7.65771C33.9497 7.65771 34.0287 7.73675 34.0682 7.85531C34.1868 8.09243 34.4634 8.84331 34.8981 9.98939C35.3724 11.175 35.649 11.9259 35.6885 12.2025C35.7676 12.4001 35.7676 12.5582 35.7676 12.6767C35.7676 13.0324 35.4514 12.8348 34.7796 12.1235C34.7005 12.0049 34.661 12.0444 34.661 12.242C34.661 12.2815 34.8191 14.2575 35.0957 18.17C35.3724 22.0825 35.5305 24.4141 35.5305 25.165C35.5305 26.3901 35.3329 27.5757 34.8586 28.7218C34.2658 30.3421 33.3569 31.3696 32.1713 31.8834V29.8284C33.6335 29.196 34.3844 28.2476 34.3844 26.9434C34.3844 26.3111 34.2263 23.7818 33.9101 19.3161C33.673 14.8899 33.5149 12.2815 33.5149 11.4911Z" fill="#124D73"/>
<path d="M29.642 45.5573C31.7366 44.8064 33.9497 43.9765 36.3209 43.1466C36.4394 43.1071 36.5185 43.0675 36.5185 43.1071C36.558 43.1466 36.558 43.2256 36.479 43.3047C36.3209 43.6208 36.2418 43.8184 36.1628 43.8975C34.1868 44.6088 31.8947 45.5178 29.2468 46.5848C29.3259 46.2687 29.4444 45.913 29.642 45.5573Z" fill="#124D73"/>
<path d="M36.2813 28.9984C36.2418 28.9589 36.2418 28.9194 36.2813 28.8403L37.0322 27.3781C37.0717 27.299 37.1113 27.2595 37.1903 27.2595C37.2693 27.2595 37.5855 27.4571 38.1783 27.8523C38.7316 28.2475 39.0477 28.4846 39.0477 28.5637C39.0477 28.8008 38.8106 29.3146 38.2969 30.1445C38.2178 30.263 38.1783 30.263 38.0993 30.2235C37.5065 29.7888 36.9137 29.3936 36.2813 28.9984Z" fill="#124D73"/>
<path d="M34.3057 37.9695C35.0961 37.1001 36.1236 36.3097 37.3883 35.5983C38.1391 35.2031 39.4433 34.6103 41.2612 33.8199V35.875C40.1151 36.3492 39.2457 36.7444 38.6924 37.0211C37.5463 37.5348 36.7955 37.9695 36.3608 38.2857C35.5704 38.8785 34.4638 40.0246 33.0016 41.7634C32.1321 42.791 31.2232 43.2652 30.3537 43.2652C29.6029 43.2652 28.931 42.9095 28.3777 42.2377C27.7849 41.5263 27.5083 40.6964 27.5083 39.6689C27.5083 38.2857 28.0616 36.4678 29.2077 34.2151C29.3262 33.978 29.4053 33.8595 29.4843 33.8595C29.5238 33.899 29.5238 33.899 29.5238 33.9385C29.5238 34.1756 29.2867 34.966 28.7729 36.2702C28.2987 37.6139 28.0221 38.6414 28.0221 39.4318C28.0221 40.0246 28.1406 40.4988 28.4568 40.8545C28.7334 41.2497 29.1681 41.4473 29.6819 41.4473C30.5909 41.4473 31.5393 40.973 32.4878 40.0246C33.1201 39.3922 33.7129 38.6809 34.3057 37.9695Z" fill="#124D73"/>
<path d="M44.8175 6.23503C44.8175 6.39311 44.6199 6.74879 44.2247 7.34159C43.7505 7.97391 43.3158 8.44815 42.8811 8.76431C42.6439 8.96191 41.735 9.23855 40.2728 9.63374C39.9961 9.67326 39.8776 9.71278 39.8776 9.71278C39.9171 9.67326 39.9961 9.59422 40.1542 9.47566C40.3518 9.31758 40.8656 9.04095 41.735 8.56671C42.5649 8.13199 43.0392 7.81583 43.1577 7.69727C43.1972 7.65775 43.1972 7.61823 43.1972 7.61823C43.1972 7.42063 42.4464 7.34159 40.9841 7.34159C40.9841 7.34159 40.7075 7.34159 40.1542 7.38111C39.8776 7.42063 39.7195 7.38111 39.7195 7.34159C39.7195 7.30207 39.759 7.22303 39.838 7.10447L40.3518 6.23503C40.5099 5.9584 40.7865 5.80032 41.2212 5.7608C41.3398 5.72128 41.6955 5.72128 42.2488 5.72128C43.9481 5.64224 44.8175 5.83984 44.8175 6.23503Z" fill="#124D73"/>
<path d="M42.4069 15.5222C42.4069 14.8108 42.2883 14.218 42.0512 13.7438C42.0512 13.4671 42.2488 12.8348 42.6835 11.8468C42.7626 11.7282 42.8021 11.6887 42.8021 11.6887C42.8416 11.6887 42.9207 11.7678 42.9602 11.8863C43.0787 12.1234 43.3554 12.8743 43.7901 14.0204C44.2643 15.206 44.541 15.9569 44.5805 16.2335C44.6595 16.4311 44.6595 16.5892 44.6595 16.7077C44.6595 17.0634 44.3434 16.8658 43.6715 16.1545C43.5925 16.0359 43.553 16.0754 43.553 16.273C43.553 16.3125 43.7111 18.2885 43.9877 22.201C44.2643 26.1135 44.4224 28.4451 44.4224 29.196C44.4224 30.4211 44.2248 31.6067 43.7506 32.7528C43.1578 34.3731 42.2488 35.4006 41.0632 35.9144V33.8989C42.5255 33.2666 43.2763 32.3181 43.2763 31.0139C43.2763 30.3816 43.1183 27.8523 42.8021 23.3866C42.5255 18.8813 42.4069 16.273 42.4069 15.5222Z" fill="#124D73"/>
<path d="M45.7662 17.1821C45.7662 16.4707 45.6476 15.8779 45.4105 15.4037C45.4105 15.127 45.6081 14.5342 46.0428 13.5462C46.1219 13.4277 46.1614 13.3486 46.2009 13.3486C46.2404 13.3486 46.28 13.4277 46.359 13.5462C46.4776 13.8229 46.7542 14.5342 47.1889 15.6803C47.6632 16.8659 47.9398 17.6168 47.9793 17.8934C48.0584 18.091 48.0584 18.2886 48.0584 18.3677C48.0584 18.6838 47.7422 18.4862 47.0704 17.7749C46.9913 17.6563 46.9518 17.6958 46.9518 17.8934C46.9518 17.9725 47.1099 20.2646 47.4656 24.8489C47.7817 29.3937 47.9398 31.9625 47.9398 32.5553C47.9398 34.3337 47.7027 35.875 47.1494 37.1791C47.0308 37.4558 46.9518 37.6138 46.8728 37.7324C46.7542 37.93 46.7147 37.9695 46.6752 37.851C46.6356 37.6929 46.6356 37.4162 46.7147 36.9815C46.7937 36.3887 46.8332 35.6774 46.8332 34.887C46.8332 34.1756 46.6356 31.2116 46.28 25.9555C45.9243 20.7388 45.7662 17.8144 45.7662 17.1821Z" fill="#124D73"/>
<path d="M7.90422 24.5822L8.47563 23.4187C8.51958 23.3292 8.56353 23.2844 8.60749 23.2844C8.6954 23.2844 9.00307 23.5082 9.57448 23.8662C10.1459 24.2689 10.4096 24.4927 10.4096 24.5374C10.4096 24.7612 10.1898 25.2982 9.66238 26.1485C9.61843 26.238 9.53052 26.2827 9.48657 26.238C9.00307 25.88 8.43167 25.4772 7.81631 25.0745C7.59654 25.5667 7.42073 25.9695 7.20096 26.2827C7.157 26.3722 7.06909 26.417 7.02514 26.3722C6.45374 25.9247 5.88233 25.522 5.26697 25.164C5.22302 25.164 5.22302 25.1192 5.26697 25.0297L6.01419 23.5529C6.05815 23.4634 6.1021 23.4187 6.14606 23.4187C6.19001 23.4187 6.45374 23.5529 6.93723 23.9109C7.42073 24.2242 7.7284 24.4479 7.90422 24.5822Z" fill="#124D73"/>
<path d="M13.5149 35.7628C12.8 35.7628 12.2533 35.7153 11.959 35.6204C11.2862 35.383 10.6974 34.9081 10.2349 34.1009C9.9405 33.5786 9.68819 33.0088 9.39383 32.4865C9.14152 32.0592 8.93126 31.8218 8.6369 31.8218C7.83792 31.8218 6.99688 32.5815 6.1138 34.1009C5.94559 34.3858 5.69328 35.0981 5.27276 36.2376C4.85225 37.3772 4.51583 38.1844 4.22147 38.7067C3.7589 39.4665 3.25428 39.8463 2.74966 39.8463C1.95068 39.8463 1.3199 39.1341 0.773229 37.7571C0.31066 36.57 0.0583496 35.288 0.0583496 34.006C0.0583496 32.439 0.184505 31.157 0.478867 30.2074C0.605022 29.875 0.647075 29.7325 0.731178 29.7325C0.815281 29.7325 0.857332 29.9225 0.81528 30.3973C0.689125 31.3944 0.647074 32.2491 0.647074 32.9613C0.647074 36.2851 1.3199 37.9945 2.70761 37.9945C3.29633 37.9945 3.80095 37.5197 4.22147 36.5225C4.68404 35.383 5.18866 34.1959 5.65123 33.0088C6.07174 32.0592 6.57637 31.2045 7.16509 30.5397C7.79587 29.8275 8.38459 29.4951 8.88921 29.4951C9.26767 29.4951 9.64614 29.78 9.9405 30.3498C10.2349 30.8246 10.4872 31.3469 10.7395 31.8218C11.118 32.439 11.5385 32.8664 11.9169 33.0563C12.2954 33.2937 12.8421 33.3887 13.5149 33.3887V35.7628Z" fill="#124D73"/>
<path d="M12.7474 9.91953C14.5443 9.25129 16.456 8.54374 18.4823 7.79688C18.597 7.75757 18.6352 7.75757 18.6735 7.75757C18.7117 7.79688 18.6735 7.83619 18.6735 7.95411C18.5588 8.22927 18.4823 8.42581 18.4058 8.46512C16.7236 9.09405 14.7355 9.88022 12.4797 10.8629C12.4797 10.5485 12.5944 10.234 12.7474 9.91953Z" fill="#124D73"/>
<path d="M17.4089 29.0974C17.4089 31.2419 16.9653 32.9049 16.078 34.1303C15.3387 35.1806 14.5007 35.7058 13.5149 35.7058V33.4738C14.3036 33.4738 15.0922 33.2113 15.8316 32.6423C16.078 32.4673 16.1766 31.8983 16.1766 30.848C16.1766 30.2353 15.9795 27.7407 15.6344 23.3643C15.2894 18.9879 15.0922 16.4058 15.0922 15.6618C15.0922 14.9616 14.9443 14.3489 14.6979 13.9112C14.6979 13.6486 14.9443 13.0359 15.388 12.0294C15.4373 11.9418 15.4865 11.8981 15.5358 11.8981C15.5851 11.8981 15.6344 11.9418 15.733 12.0731C15.8809 12.3357 16.1766 13.0359 16.6695 14.1738C17.1625 15.3554 17.4582 16.0994 17.5568 16.362C17.6061 16.5808 17.6554 16.7121 17.6554 16.7997C17.6554 17.1498 17.3103 16.931 16.571 16.2307C16.4724 16.0994 16.4231 16.1432 16.4231 16.362C16.4231 16.4058 16.571 18.3752 16.916 22.1827C17.261 26.0339 17.4089 28.3534 17.4089 29.0974Z" fill="#124D73"/>
</svg>
