<svg width="49" height="49" viewBox="0 0 49 49" fill="none" xmlns="http://www.w3.org/2000/svg">
<g opacity="0.45">
<path d="M9.53592 28.6372L10.196 27.317C10.2432 27.2227 10.2903 27.1755 10.3375 27.1755C10.4318 27.1755 10.809 27.4113 11.422 27.8357C12.0821 28.3072 12.4122 28.5429 12.4122 28.5901C12.4122 28.873 12.1292 29.486 11.5634 30.3818C11.5163 30.4761 11.422 30.5233 11.3277 30.4761C10.7619 30.0518 10.1489 29.6274 9.44162 29.1559C9.20586 29.6746 8.97011 30.1461 8.73435 30.5233C8.6872 30.6176 8.5929 30.6647 8.54574 30.6176C7.93278 30.0989 7.27266 29.6746 6.56539 29.2502C6.51824 29.2502 6.51824 29.203 6.56539 29.1087L7.41412 27.4584C7.46127 27.3641 7.50842 27.317 7.55557 27.317C7.60272 27.317 7.93278 27.5056 8.49859 27.8357C9.01726 28.2129 9.34732 28.4958 9.53592 28.6372Z" fill="#124D73"/>
<path d="M16.1841 41.5567C15.2882 41.5567 14.6752 41.5095 14.3452 41.4152C13.5436 41.1795 12.8363 40.6608 12.2705 39.8121C11.9405 39.2463 11.6104 38.6805 11.2332 38.1146C10.9503 37.6431 10.6674 37.4074 10.3373 37.4074C9.3943 37.4074 8.35697 38.2089 7.31965 39.8592C7.13104 40.1422 6.80098 40.8966 6.32947 42.1225C5.85796 43.3013 5.4336 44.1972 5.05639 44.763C4.49057 45.5645 3.92476 45.9889 3.26464 45.9889C2.32161 45.9889 1.52004 45.2345 0.907074 43.7728C0.341259 42.4997 0.0583496 41.1795 0.0583496 39.7649C0.0583496 38.0675 0.199804 36.7473 0.577015 35.7099C0.718468 35.3799 0.81277 35.1913 0.859922 35.1913C0.954224 35.1913 1.00138 35.427 0.954224 35.8514C0.812771 36.8887 0.765619 37.7846 0.765619 38.539C0.765619 42.0754 1.56719 43.8671 3.26464 43.8671C3.92476 43.8671 4.53772 43.3484 5.10354 42.3111C5.66935 41.0852 6.23517 39.8121 6.80098 38.5862C7.31965 37.5488 7.93261 36.7001 8.63988 35.9928C9.3943 35.2384 10.1016 34.8612 10.7145 34.8612C11.186 34.8612 11.6104 35.1441 11.9876 35.7571C12.3177 36.2757 12.6477 36.7944 12.9778 37.3131C13.4493 37.9732 13.9208 38.3976 14.3923 38.6333C14.8638 38.8691 15.4768 39.0105 16.2784 39.0105V41.5567H16.1841Z" fill="#124D73"/>
<path d="M14.298 15.199C16.6556 14.3503 19.1546 13.4544 21.8422 12.4643C21.9837 12.4171 22.078 12.4171 22.078 12.4171C22.1251 12.4643 22.078 12.5114 22.078 12.6529C21.9365 13.0301 21.7951 13.2187 21.7008 13.313C19.4847 14.1146 16.8913 15.1519 13.8737 16.3778C13.968 16.0478 14.1094 15.6706 14.298 15.199Z" fill="#124D73"/>
<path d="M20.569 18.5468C20.569 18.8769 20.5219 19.2069 20.3804 19.5841C20.1918 20.0557 19.9089 20.2443 19.626 20.2443C19.1545 20.2443 18.7773 19.9142 18.5887 19.2541C18.3529 20.1028 17.9285 20.5272 17.3156 20.5272C17.0798 20.5272 16.8912 20.4329 16.7026 20.1971C16.514 19.9142 16.4197 19.537 16.4197 19.1126V18.0753C16.4197 17.981 16.3725 17.9338 16.2311 17.8867C16.0896 17.8395 16.0425 17.7924 16.0425 17.6038C16.0425 17.368 16.1368 17.1323 16.3725 16.9437C16.5611 16.7551 16.7026 16.6608 16.7497 16.6608C16.8912 16.6608 16.9384 16.8965 16.9384 17.3209C16.9384 17.5566 16.9384 17.7924 16.8912 17.9338C16.8441 18.0753 16.8441 18.2168 16.8441 18.3582C16.8441 18.6411 16.8912 18.8769 16.9855 19.0655C17.0798 19.3484 17.2213 19.4427 17.4099 19.4427C17.6456 19.4427 17.8342 19.3484 18.07 19.1126C18.2586 18.924 18.3529 18.6411 18.3529 18.4054C18.3529 18.2639 18.3057 17.981 18.2114 17.5566C18.1171 17.1794 18.07 16.9437 18.07 16.8022C18.07 16.7079 18.1171 16.5665 18.2114 16.3779C18.3057 16.1892 18.3529 16.0949 18.4 16.0949C18.4943 16.0949 18.5886 16.3307 18.683 16.8965C18.7773 17.4152 18.8716 17.7924 18.8716 18.0281C18.8716 18.7354 19.1545 19.1126 19.7203 19.1126C19.956 19.1126 20.0975 19.0183 20.1918 18.7354C19.7203 17.9338 19.4845 17.2737 19.4845 16.8022C19.4845 16.5665 19.5317 16.3307 19.6731 16.1421C19.7674 16.0006 19.8146 15.9535 19.8617 15.9535C19.9089 15.9535 19.9089 16.0478 19.956 16.2364C19.956 16.4722 20.0032 16.6608 20.0503 16.8022C20.0503 16.8022 20.1918 17.1323 20.4276 17.6981C20.5219 18.0753 20.569 18.3582 20.569 18.5468Z" fill="#124D73"/>
<path d="M19.3431 25.8554L20.0032 24.5351C20.0503 24.4408 20.0975 24.3937 20.1446 24.3937C20.2389 24.3937 20.6161 24.6294 21.2291 25.0538C21.8892 25.5253 22.2193 25.7611 22.2193 25.8082C22.2193 26.0911 21.9364 26.7041 21.3706 27.6C21.3234 27.6943 21.2291 27.7414 21.1348 27.6943C20.569 27.2699 19.956 26.8455 19.2488 26.374C19.013 26.8927 18.7772 27.3642 18.5415 27.7414C18.4943 27.8357 18.4 27.8829 18.3529 27.8357C17.7399 27.3171 17.0798 26.8927 16.3725 26.4683C16.3254 26.4683 16.3254 26.4212 16.3725 26.3269L17.2212 24.6766C17.2684 24.5823 17.3156 24.5351 17.3627 24.5351C17.4099 24.5351 17.7399 24.7237 18.3057 25.0538C18.8715 25.3839 19.2016 25.6668 19.3431 25.8554Z" fill="#124D73"/>
<path d="M23.5867 35.2383C23.5867 36.8415 23.068 38.1146 22.0778 39.1047C20.4275 40.8022 18.4 41.6038 16.0896 41.6038V39.0576C17.1269 39.0576 18.3057 38.8218 19.6259 38.3503C21.0405 37.8317 22.0778 37.2658 22.8322 36.5586C22.8322 36.1342 22.5022 35.757 21.8892 35.4741C21.3234 35.1912 20.7576 35.0497 20.0975 35.0497H18.4472C17.8342 35.0497 17.3155 34.8611 16.9383 34.4368C16.5611 34.0124 16.3725 33.4937 16.3725 32.8336C16.3725 31.9849 16.6554 31.089 17.2684 30.1932C17.8813 29.2973 18.4943 28.8729 19.1544 28.8729C20.1918 28.8729 21.1819 29.4387 22.0778 30.6647C23.068 31.9378 23.5867 33.4466 23.5867 35.2383ZM20.899 32.6922C20.2861 31.7492 19.5788 31.2776 18.8244 31.2776C18.3057 31.2776 18.0228 31.4662 18.0228 31.7963C18.0228 32.2207 18.3529 32.4564 19.0601 32.5507C19.3902 32.5979 20.0503 32.645 20.899 32.6922Z" fill="#124D73"/>
<path d="M26.8403 36.3699C27.0289 37.5487 27.4533 38.3503 28.0191 38.7275C28.302 38.9161 28.7735 39.0104 29.3865 39.0104V41.5565C28.4435 41.5565 27.7362 41.3679 27.2647 40.9907C26.5574 40.4721 26.0859 39.4347 25.803 37.973C25.6616 37.0772 25.5201 34.3896 25.3786 30.0516C25.2372 25.2422 25.0957 22.3188 25.0014 21.2343C24.8128 19.4897 24.4828 17.8395 23.9641 16.2835C23.9641 15.8591 24.1527 15.2461 24.4828 14.4446C24.5299 14.256 24.6242 14.1145 24.6714 14.1145C24.7185 14.1145 24.8128 14.2088 24.86 14.3503C25.3786 15.4347 25.803 17.2265 26.0859 19.7255C26.2745 21.2815 26.416 24.4406 26.5103 29.1086C26.6989 33.588 26.7932 35.9927 26.8403 36.3699Z" fill="#124D73"/>
<path d="M24.6712 11.8513C27.0288 11.0025 29.5278 10.1067 32.2154 9.11649C32.3568 9.06934 32.4511 9.06934 32.4511 9.06934C32.4983 9.11649 32.4511 9.16364 32.4511 9.30509C32.3097 9.6823 32.1682 9.8709 32.0739 9.96521C29.8578 10.7668 27.2645 11.8041 24.2468 13.03C24.3411 12.7 24.4826 12.3228 24.6712 11.8513Z" fill="#124D73"/>
<path d="M44.9467 35.1441L44.0508 36.9358C43.9565 37.1244 43.8622 37.2187 43.7207 37.2187C40.8445 37.2187 38.3926 37.6431 36.318 38.4918C35.8465 38.6804 34.5262 39.3405 32.3573 40.4722C30.9427 41.1794 29.9054 41.5566 29.2924 41.5566V39.0105C30.5655 39.0105 32.6873 38.2089 35.6579 36.5586C33.0174 36.1342 30.3769 35.8042 27.7836 35.5684C27.2649 35.5213 27.0292 35.4741 27.0292 35.3798C27.0292 35.3798 27.0292 35.3327 27.0292 35.2855C27.2649 34.8612 27.5478 34.2482 27.9722 33.4938H32.3101C32.8759 33.5881 34.3848 33.8238 36.8366 34.1539C39.9486 34.5311 42.4476 34.7197 44.3337 34.7197C44.8052 34.7197 45.041 34.7669 45.041 34.8612C45.041 34.9555 44.9938 35.0498 44.9467 35.1441Z" fill="#124D73"/>
<path d="M37.025 4.16568C37.025 4.35428 36.7892 4.77864 36.3648 5.39161C35.8462 6.09888 35.3275 6.66469 34.856 6.99475C34.5731 7.18336 33.5829 7.51342 31.8855 7.98493C31.5554 8.03208 31.4139 8.07923 31.4139 8.07923C31.4611 8.03208 31.5554 7.98493 31.744 7.79632C31.9326 7.60772 32.5456 7.27766 33.5358 6.759C34.4788 6.24033 34.9974 5.91027 35.1389 5.76882C35.1861 5.72167 35.186 5.72167 35.186 5.67452C35.186 5.48591 34.3373 5.34446 32.687 5.34446C32.687 5.34446 32.357 5.34446 31.744 5.34446C31.4139 5.34446 31.2253 5.34446 31.2253 5.29731C31.2253 5.25015 31.2725 5.15585 31.3668 5.0144L31.9798 4.02422C32.1684 3.74131 32.4984 3.55271 32.9699 3.45841C33.1114 3.41126 33.4886 3.41125 34.1016 3.41125C36.0819 3.50556 37.025 3.74131 37.025 4.16568Z" fill="#124D73"/>
<path d="M32.4983 34.5782L28.0189 33.4937C28.1132 33.3994 28.679 33.2108 29.7635 32.8807C31.2252 32.4564 32.404 32.0792 33.347 31.702C33.8185 31.5134 34.0543 31.2776 34.1486 30.9475C34.1957 30.7589 34.1957 29.7688 34.1957 27.9299C34.1957 27.1754 34.0543 24.8179 33.7714 20.81C33.4885 16.8022 33.347 14.4446 33.347 13.7373C33.347 12.9358 33.2056 12.2285 32.9698 11.7098C32.9698 11.4269 33.2056 10.7197 33.6771 9.58802C33.7242 9.44657 33.7714 9.39941 33.8185 9.39941C33.8657 9.39941 33.9128 9.44657 34.0071 9.58802C34.1014 9.87093 34.4315 10.6725 34.9502 11.9927C35.4688 13.3601 35.7517 14.1617 35.846 14.4918C35.8932 14.7275 35.9403 14.9161 35.9403 15.0576C35.9403 15.4348 35.5631 15.199 34.8559 14.3974C34.7616 14.256 34.7144 14.3503 34.7144 14.5389C34.7144 14.5861 34.8559 16.2835 35.0916 19.5841C35.3274 22.9318 35.4688 25.0065 35.4688 25.8552C35.4688 28.0713 35.3274 29.6745 35.0916 30.6175C34.7144 32.3621 33.8657 33.6823 32.4983 34.5782Z" fill="#124D73"/>
<path d="M45.4651 18.5468C45.4651 17.7452 45.3236 17.0379 45.0879 16.5193C45.0879 16.2364 45.3236 15.5291 45.7952 14.3975C45.8423 14.256 45.9366 14.2089 45.9366 14.2089C45.9838 14.2089 46.0309 14.256 46.1252 14.3975C46.2667 14.6804 46.5967 15.4819 47.0682 16.8022C47.5869 18.1696 47.917 19.0183 47.9641 19.3012C48.0113 19.537 48.0584 19.7256 48.0584 19.867C48.0584 20.2442 47.6812 20.0085 46.9739 19.2069C46.8796 19.0654 46.8325 19.1597 46.8325 19.3484C46.8325 19.3955 47.0211 22.036 47.3983 27.1755C47.7755 32.315 47.9641 35.2383 47.9641 35.8513C47.9641 37.8317 47.6812 39.5762 47.0682 41.0851C46.9268 41.368 46.8325 41.6038 46.7382 41.7452C46.5967 41.981 46.5496 41.981 46.5496 41.8395C46.5024 41.6981 46.5496 41.368 46.5496 40.8493C46.6439 40.1892 46.691 39.3876 46.691 38.4446C46.691 37.643 46.4553 34.2482 46.0781 28.3542C45.7009 22.6018 45.4651 19.2541 45.4651 18.5468Z" fill="#124D73"/>
</g>
</svg>
