<svg width="49" height="49" viewBox="0 0 49 49" fill="none" xmlns="http://www.w3.org/2000/svg">
<path d="M18.8669 24.1132C18.8669 23.9354 18.5666 23.713 17.9232 23.4017C17.2798 23.0904 16.765 22.957 16.3789 22.957C16.1216 22.957 16.0358 23.0015 16.0787 23.1349C16.2074 23.4907 16.4647 24.0688 16.8937 24.8248C17.8803 24.5135 18.5666 24.2467 18.8669 24.1132ZM10.0304 28.7826C12.1323 27.0927 14.1484 25.892 16.0358 25.225C15.9071 24.9582 15.7355 24.6024 15.4781 24.0243C15.3495 23.7575 15.3066 23.4462 15.3066 23.046C15.3066 22.4234 15.4352 21.9342 15.7355 21.4895C16.0787 20.9559 16.6363 20.7336 17.3226 20.7336C17.8803 20.7336 18.6524 21.0893 19.6819 21.8453C20.7543 22.6013 21.269 23.2238 21.269 23.713C21.1404 24.3801 20.9259 25.0026 20.7114 25.6252C19.8535 25.892 18.7811 26.2478 17.5371 26.648C17.58 27.3595 17.5371 27.7153 17.3655 27.7153C17.2369 27.7153 17.0653 27.4485 16.9366 26.9148C16.3789 27.1372 15.6068 27.4485 14.5773 27.9376C13.1189 28.6491 12.0036 29.3162 11.2315 29.9388C10.1162 30.8282 8.95802 31.9844 7.75694 33.3185C6.42718 34.8304 5.65506 35.7198 5.44058 35.8977C4.71136 36.5647 3.98213 36.9205 3.2958 36.9205C2.52368 36.9205 1.88025 36.5647 1.27971 35.8532C0.679176 35.1417 0.378906 34.2523 0.378906 33.1851C0.378906 31.7176 0.979445 29.8054 2.13762 27.4485C2.26631 27.2261 2.3521 27.0927 2.43789 27.0927C2.48079 27.0927 2.48079 27.1372 2.48079 27.1816C2.48079 27.404 2.22342 28.2489 1.70867 29.6275C1.19392 31.0505 0.936548 32.1178 0.936548 32.9627C0.936548 33.5853 1.06523 34.0744 1.3655 34.4747C1.66577 34.8749 2.09473 35.0972 2.60948 35.0972C3.3816 35.0972 4.15371 34.7415 5.01163 33.9855C5.48348 33.5853 6.2556 32.7404 7.37088 31.4952C8.44327 30.2056 9.34408 29.3162 10.0304 28.7826Z" fill="#124D73"/>
<path d="M22.6415 33.6739C22.8131 34.7856 23.1991 35.4971 23.7139 35.8529C23.9712 36.0308 24.4002 36.1197 24.9578 36.1197V38.5211C24.1428 38.5211 23.4994 38.3432 23.0275 37.9874C22.3841 37.4983 21.9552 36.5644 21.6978 35.1858C21.5691 34.3409 21.4404 31.8506 21.3117 27.8039C21.183 23.3569 21.0543 20.5998 20.9686 19.6215C20.797 18.0206 20.4967 16.4641 20.0677 14.9966C20.0677 14.5964 20.2393 14.0183 20.5396 13.2623C20.5825 13.0844 20.6683 12.951 20.7112 12.951C20.7541 12.951 20.8399 13.04 20.8828 13.1734C21.3546 14.1517 21.7407 15.8415 21.998 18.1984C22.1696 19.6659 22.2983 22.5565 22.3841 26.9145C22.4699 31.0502 22.5557 33.2736 22.6415 33.6739Z" fill="#124D73"/>
<path d="M23.4561 21.4449C25.558 20.6444 27.8315 19.7995 30.2336 18.9101C30.3623 18.8656 30.4481 18.8656 30.4481 18.8656C30.491 18.9101 30.4481 18.9546 30.4481 19.088C30.3194 19.4437 30.1907 19.6216 30.1049 19.7106C28.0888 20.4665 25.7725 21.4004 23.0701 22.5566C23.1559 22.2009 23.2845 21.8451 23.4561 21.4449Z" fill="#124D73"/>
<path d="M32.2067 32.8289C31.7778 32.5176 30.9628 32.3398 29.8046 32.3398C29.3756 32.3398 28.9896 32.3842 28.6464 32.4287C29.3756 32.9623 29.9333 33.407 30.2764 33.8073C30.877 33.4515 31.5204 33.0958 32.2067 32.8289ZM29.6759 36.0752C28.2175 37.098 27.3167 37.6761 27.0164 37.8985C26.2872 38.2987 25.5579 38.4766 24.7858 38.4766V36.0752C25.8582 36.0752 27.0593 35.675 28.389 34.8301C27.9601 34.3409 27.4453 33.9407 26.8877 33.6294C26.3301 33.3181 25.944 33.1847 25.6866 33.1847C25.129 33.1847 24.7429 33.2736 24.4855 33.4515C24.3998 33.496 24.314 33.5405 24.2282 33.5405C24.1424 33.5405 24.0995 33.496 24.0995 33.407C24.0995 33.3181 24.1424 33.2292 24.1853 33.1402L24.8716 31.4504C25.0003 31.1391 25.6437 30.8723 26.8877 30.6055C28.0888 30.3386 29.2041 30.2052 30.2336 30.2052C32.2925 30.2052 33.9226 30.6944 35.1236 31.6283C35.4239 31.8506 35.5955 32.0285 35.5955 32.1174C35.5955 32.1619 35.5526 32.2953 35.4668 32.4732L34.7805 33.8517C34.0513 34.1186 33.0647 34.5188 31.8207 35.0969C32.5499 35.8084 33.5794 36.1642 34.9092 36.1642V38.5655C33.8797 38.5655 33.1076 38.4321 32.5499 38.2098C31.7349 37.8095 30.8341 37.1425 29.6759 36.0752Z" fill="#124D73"/>
<path d="M34.953 24.2022C34.953 24.3801 34.7385 24.7803 34.3524 25.3584C33.8806 26.0255 33.4516 26.5146 33.0227 26.8259C32.7653 27.0038 31.8645 27.3151 30.3631 27.7598C30.0629 27.8042 29.9342 27.8487 29.9342 27.8487C29.9771 27.8042 30.0629 27.7598 30.2344 27.5819C30.406 27.404 30.9637 27.0927 31.8645 26.648C32.7224 26.1589 33.1942 25.892 33.3229 25.7586C33.3658 25.7142 33.3658 25.7142 33.3658 25.6697C33.3658 25.4918 32.6366 25.3584 31.1353 25.3584C31.1353 25.3584 30.835 25.3584 30.2773 25.3584C29.9771 25.3584 29.8484 25.3584 29.8484 25.3139C29.8484 25.2695 29.8913 25.1805 29.9771 25.0471L30.5347 24.1133C30.7063 23.8464 30.9637 23.6686 31.3926 23.5796C31.5213 23.5352 31.8645 23.5352 32.4221 23.5352C34.095 23.6241 34.953 23.802 34.953 24.2022Z" fill="#124D73"/>
<path d="M34.1374 28.2043C34.0945 28.1599 34.0945 28.1154 34.1374 28.0709L34.8666 26.5145C34.9095 26.4255 34.9524 26.3811 34.9953 26.3811C35.0811 26.3811 35.3814 26.6034 35.9819 27.0036C36.5824 27.4039 36.8398 27.6707 36.8398 27.7596C36.8398 28.0265 36.5824 28.5601 36.0677 29.405C36.0248 29.4939 35.939 29.5384 35.8961 29.4939C35.3814 29.0493 34.7808 28.6046 34.1374 28.2043Z" fill="#124D73"/>
<path d="M37.1829 34.2962C37.1829 35.6748 36.8826 36.7421 36.325 37.498C35.8531 38.1651 35.2955 38.4764 34.6091 38.4764V36.075C35.5099 36.075 36.1105 35.8527 36.3678 35.408C36.3678 35.1412 36.1963 34.7409 35.896 34.2518C35.7673 34.0294 35.6815 33.8071 35.6815 33.5847C35.6815 33.4513 35.8531 32.8732 36.1105 31.8949C36.1534 31.717 36.2392 31.5836 36.2821 31.5836C36.3678 31.5836 36.4536 31.717 36.5823 31.9838C37.0113 32.8287 37.1829 33.5847 37.1829 34.2962Z" fill="#124D73"/>
<path d="M26.3736 10.105C28.4755 9.30451 30.749 8.45959 33.1511 7.5702C33.2798 7.52573 33.3656 7.52573 33.3656 7.52573C33.4085 7.5702 33.3656 7.61467 33.3656 7.74807C33.2369 8.10383 33.1082 8.28171 33.0224 8.37065C31.0063 9.12663 28.69 10.0605 25.9875 11.2167C26.0733 10.8609 26.202 10.5052 26.3736 10.105Z" fill="#124D73"/>
<path d="M31.0058 11.7057C30.92 12.017 30.8342 12.2394 30.7055 12.3283C30.2766 12.5951 29.3758 13.2622 27.9602 14.2405C27.9173 14.285 27.8315 14.3295 27.7458 14.4184C27.7458 14.4184 27.7029 14.3739 27.7029 14.3295L27.7886 13.7958C27.7886 13.7069 28.046 13.4401 28.475 13.0843C27.9173 12.862 27.6171 12.6396 27.6171 12.3283C27.6171 11.9726 27.7886 11.6168 28.046 11.2611C28.6037 10.5495 29.0755 10.2383 29.4616 10.2383C29.8047 10.2383 29.9763 10.4161 29.9763 10.8164C29.9763 11.0387 29.8905 11.3055 29.6761 11.6168C29.6332 11.6613 29.5903 11.6613 29.5474 11.6168C29.4616 11.35 29.29 11.2611 29.1184 11.2611C28.9897 11.2611 28.8181 11.3055 28.6466 11.4834C28.475 11.6168 28.3463 11.7502 28.3463 11.8392C28.3463 11.9726 28.475 12.106 28.6895 12.1949C28.9468 12.3283 29.1184 12.3728 29.2471 12.3728C29.3758 12.3728 29.5903 12.2839 29.8905 12.0615C30.105 11.9281 30.3195 11.7502 30.534 11.6168C30.7055 11.5279 30.8342 11.4834 30.8771 11.4834C31.0487 11.4834 31.0487 11.5723 31.0058 11.7057Z" fill="#124D73"/>
<path d="M43.3603 9.74929C43.3603 9.92717 43.1458 10.3274 42.7598 10.9055C42.2879 11.5725 41.859 12.0617 41.43 12.373C41.1726 12.5509 40.2718 12.8622 38.7705 13.3069C38.4702 13.3513 38.3415 13.3958 38.3415 13.3958C38.3844 13.3513 38.4702 13.3069 38.6418 13.129C38.8134 12.9511 39.371 12.6398 40.2718 12.1951C41.1297 11.706 41.6016 11.4391 41.7303 11.3057C41.7732 11.2613 41.7732 11.2613 41.7732 11.2168C41.7732 11.0389 41.0439 10.9055 39.5426 10.9055C39.5426 10.9055 39.2423 10.9055 38.6847 10.9055C38.3844 10.9055 38.2557 10.9055 38.2557 10.861C38.2557 10.8166 38.2986 10.7276 38.3844 10.5942L38.9421 9.66035C39.1136 9.39353 39.371 9.21565 39.8 9.12671C39.9287 9.08224 40.2718 9.08224 40.8295 9.08224C42.5024 9.17118 43.3603 9.34906 43.3603 9.74929Z" fill="#124D73"/>
<path d="M43.2317 32.74C43.0601 34.1631 42.9743 34.8746 42.8885 34.8746C42.8456 34.8746 42.7169 34.2965 42.5453 33.0958C42.2451 31.1391 40.8724 28.9157 38.3845 26.4698C37.3121 25.4026 36.2397 24.3353 35.1673 23.268C33.9662 22.0673 33.1083 21.089 32.5078 20.333C32.0788 19.7549 31.6499 19.0879 31.178 18.3319C30.8777 17.8872 30.6204 17.398 30.363 16.9533C30.1485 16.642 29.934 16.4197 29.7196 16.2863C29.5909 16.2418 29.548 16.1084 29.548 15.9305V14.3741C29.548 14.0628 29.5909 13.9294 29.7196 13.9294C29.7624 13.9294 29.934 14.0183 30.1056 14.1517L33.0225 16.4642C33.237 16.642 33.3657 16.7754 33.3657 16.8644C33.3657 16.9533 33.2799 16.9978 33.0654 16.9978C32.8509 16.9978 32.422 16.9533 31.8643 16.8199C32.2075 17.5314 33.3228 18.8655 35.1244 20.7332C36.4971 22.1118 37.8268 23.5348 39.1995 24.9134C41.9019 27.7594 43.2746 30.1608 43.2746 32.2064C43.2746 32.3843 43.2745 32.5622 43.2317 32.74Z" fill="#124D73"/>
<path d="M42.8457 16.0195C42.8457 15.7082 42.7599 15.308 42.6312 14.9078C42.5025 14.4631 42.4167 14.2407 42.4167 14.1963C42.4167 14.1073 42.5025 13.796 42.6741 13.2624C42.8028 12.7288 42.8886 12.4175 42.9315 12.373C42.9743 12.2396 43.0601 12.1507 43.103 12.1507C43.1459 12.1507 43.1888 12.2396 43.2746 12.373C43.4462 12.6843 43.7894 13.3958 44.2612 14.4186C44.776 15.5748 45.1191 16.3308 45.2049 16.731C45.2478 16.9534 45.2907 17.1313 45.2907 17.2647C45.2907 17.3536 45.2907 17.3981 45.2049 17.3981C45.0762 17.3981 44.776 17.1313 44.3041 16.5976C44.2612 16.5087 44.2183 16.5976 44.2183 16.7755C44.2183 17.3981 44.4328 19.5326 44.8189 23.0902C45.2478 26.6478 45.4194 29.0491 45.4194 30.3388C45.4194 32.918 44.8189 35.097 43.6607 36.8313C42.7599 38.1209 41.6875 39.0993 40.5293 39.6329C40.0575 39.8553 39.2853 40.0776 38.17 40.3889C37.0548 40.7002 36.2397 40.8781 35.6821 40.9225C35.4676 40.967 35.3818 40.9225 35.3818 40.8781C35.3818 40.8336 35.4676 40.7002 35.6821 40.5668C36.7116 39.9442 38.3416 38.9214 40.658 37.4984C41.3872 37.0092 42.1164 36.3422 42.8457 35.5417C43.8323 34.43 44.347 33.4961 44.347 32.7401C44.347 31.1837 44.0896 28.1597 43.5749 23.7128C43.103 19.0879 42.8457 16.5976 42.8457 16.0195Z" fill="#124D73"/>
<path d="M46.0196 17.2647C46.0196 16.5087 45.8909 15.8862 45.6764 15.397C45.6764 15.1302 45.8909 14.4631 46.3198 13.4403C46.3627 13.3069 46.4485 13.2625 46.4485 13.2625C46.4914 13.2625 46.5343 13.3069 46.6201 13.4403C46.7488 13.7071 47.0491 14.4631 47.478 15.6638C47.9499 16.909 48.2072 17.7094 48.293 18.0207C48.3359 18.2431 48.3788 18.4209 48.3788 18.5543C48.3788 18.9101 48.0785 18.6877 47.3922 17.9318C47.3064 17.7984 47.2635 17.8873 47.2635 18.0652C47.2635 18.1096 47.4351 20.5555 47.7783 25.3582C48.1214 30.1609 48.293 32.8736 48.293 33.4517C48.293 35.3194 48.0357 36.9203 47.478 38.3433C47.3493 38.6102 47.2635 38.8325 47.1777 38.9659C47.049 39.1883 47.0062 39.1883 47.0062 39.0548C46.9633 38.9214 47.0062 38.6102 47.0062 38.1655C47.0919 37.5429 47.1348 36.7869 47.1348 35.942C47.1348 35.186 46.9204 32.0731 46.5772 26.5589C46.1911 21.0002 46.0196 17.9318 46.0196 17.2647Z" fill="#124D73"/>
</svg>
