<svg width="30" height="49" viewBox="0 0 30 49" fill="none" xmlns="http://www.w3.org/2000/svg">
<path d="M7.15469 43.3147C7.97126 42.3815 9.06002 41.5649 10.3821 40.865C11.1598 40.4373 12.5207 39.8151 14.426 38.9985V41.1372C13.2206 41.6427 12.3263 42.0704 11.743 42.3426C10.5765 42.887 9.75993 43.3536 9.29332 43.6646C8.47675 44.2868 7.31023 45.4922 5.75486 47.2809C4.82164 48.3307 3.9273 48.8751 2.99408 48.8751C2.2164 48.8751 1.51648 48.5252 0.93322 47.8253C0.311073 47.0865 0 46.1921 0 45.1422C0 43.7035 0.583262 41.7982 1.78867 39.4652C1.90532 39.2318 2.02198 39.1152 2.06086 39.1152C2.09974 39.1541 2.09975 39.1541 2.09975 39.193C2.09975 39.4263 1.82756 40.2428 1.32206 41.6427C0.816567 43.0425 0.544378 44.1313 0.544378 44.9478C0.544378 45.57 0.699915 46.0755 0.972105 46.4254C1.28318 46.8143 1.7109 47.0476 2.25528 47.0476C3.22739 47.0476 4.19949 46.5421 5.21048 45.57C5.9104 44.7923 6.53255 44.0535 7.15469 43.3147Z" fill="#124D73"/>
<path d="M12.5597 26.7112C12.5597 26.9056 12.3653 27.2555 11.9376 27.8388C11.4321 28.4998 11.0044 29.0053 10.5377 29.3164C10.2656 29.5108 9.37122 29.8219 7.81585 30.2496C7.54366 30.2885 7.38813 30.3274 7.38813 30.3274C7.42701 30.2885 7.50478 30.2107 7.6992 30.0941C7.89362 29.9386 8.438 29.6275 9.37122 29.1609C10.2267 28.6943 10.7322 28.3832 10.8877 28.2665C10.9266 28.2276 10.9266 28.1888 10.9266 28.1888C10.9266 27.9943 10.1489 27.9166 8.59354 27.9166C8.59354 27.9166 8.32135 27.9166 7.73809 27.9555C7.42701 27.9943 7.27147 27.9555 7.27147 27.9166C7.27147 27.8777 7.31036 27.7999 7.38813 27.6833L7.93251 26.75C8.08804 26.4779 8.39912 26.2834 8.82684 26.2446C8.98238 26.2057 9.33234 26.2057 9.87672 26.2057C11.7043 26.089 12.5597 26.3223 12.5597 26.7112Z" fill="#124D73"/>
<path d="M21.9694 43.2369C21.9305 43.198 21.9305 43.1592 21.9694 43.0814L22.7471 41.526C22.786 41.4482 22.8249 41.3705 22.9026 41.3705C22.9804 41.3705 23.3304 41.5649 23.9136 41.9926C24.4969 42.3815 24.808 42.6537 24.808 42.7314C24.808 43.0036 24.5358 43.548 23.9914 44.3646C23.9136 44.4812 23.8747 44.5201 23.797 44.4423C23.2137 44.0535 22.5916 43.6258 21.9694 43.2369Z" fill="#124D73"/>
<path d="M29.513 34.2157L28.9686 35.8489C28.9297 36.0044 28.6964 36.1211 28.3465 36.1988C26.8689 36.5877 24.4969 37.3654 21.2696 38.493C18.2366 39.5818 15.9035 40.4372 14.3093 41.1371V38.9985C16.2146 38.1819 18.5865 37.3654 21.464 36.5099L11.393 36.7821C11.0041 36.7821 10.8486 36.6654 10.9652 36.471C11.1597 35.9266 11.4707 35.2656 11.8207 34.449H15.9035L28.9297 33.9047C29.2019 33.9047 29.3964 33.9047 29.4741 33.9824C29.513 34.0213 29.5519 34.0991 29.513 34.2157Z" fill="#124D73"/>
<path d="M10.7711 19.5953C12.9486 18.8176 15.2817 17.9621 17.7314 17.0678C17.848 17.0289 17.9258 16.99 17.9258 17.0289C17.9647 17.0678 17.9647 17.1456 17.8869 17.2233C17.7314 17.5733 17.6147 17.7677 17.537 17.8455C15.4761 18.5843 13.0653 19.5175 10.3045 20.684C10.46 20.3341 10.5767 19.9841 10.7711 19.5953Z" fill="#124D73"/>
<path d="M12.9873 23.1726C12.9484 23.1337 12.9484 23.0948 12.9873 23.0171L13.765 21.4617C13.8038 21.3839 13.8427 21.3062 13.9205 21.3062C13.9983 21.3062 14.3482 21.5006 14.9315 21.9283C15.5148 22.3171 15.8258 22.5893 15.8258 22.6671C15.8258 22.9393 15.5536 23.4837 15.0093 24.3002C14.9315 24.4558 14.8926 24.4558 14.8148 24.4169C14.2316 23.9892 13.6094 23.5614 12.9873 23.1726Z" fill="#124D73"/>
<path d="M16.2923 28.9663C15.7479 28.2275 15.2424 27.8776 14.7758 27.8776C14.0759 27.8776 13.726 28.072 13.726 28.4608C13.726 28.8886 14.1926 29.1219 15.1647 29.1219C15.5535 29.083 15.9035 29.0441 16.2923 28.9663ZM15.3591 25.7778C15.8646 25.7778 16.3701 26.0889 16.9145 26.6722C17.42 27.2165 17.8866 27.9165 18.2754 28.733C18.3143 28.733 18.3921 28.6941 18.5476 28.6553V30.7939L18.4309 30.8328C18.4309 31.2994 18.3143 31.8438 18.1199 32.5437C17.8477 33.438 17.42 34.1768 16.9533 34.7601L11.8206 34.3712C11.8595 34.3324 12.8316 33.9824 14.8147 33.3214C16.6812 32.6992 17.6144 32.1937 17.6144 31.8826C17.6144 31.6105 17.5755 31.3383 17.4588 31.0661C16.9922 31.2216 16.3312 31.2994 15.4757 31.2994C13.6093 31.2994 12.715 30.6772 12.6761 29.3941C12.6761 28.422 12.9872 27.5665 13.6093 26.7888C14.1148 26.1278 14.6981 25.7778 15.3591 25.7778Z" fill="#124D73"/>
<path d="M22.8638 1.39751C22.8638 1.59194 22.6694 1.94189 22.2417 2.52516C21.7362 3.18619 21.3085 3.69168 20.8419 4.00276C20.5697 4.19718 19.6753 4.50825 18.12 4.93598C17.8478 4.97486 17.6922 5.01374 17.6922 5.01374C17.7311 4.97486 17.8089 4.89709 18.0033 4.78044C18.1977 4.6249 18.7421 4.31383 19.6753 3.84722C20.5308 3.38061 21.0363 3.06954 21.1918 2.95288C21.2307 2.914 21.2307 2.87511 21.2307 2.87511C21.2307 2.68069 20.453 2.60292 18.8977 2.60292C18.8977 2.60292 18.6255 2.60293 18.0422 2.64181C17.7311 2.68069 17.5756 2.64181 17.5756 2.60292C17.5756 2.56404 17.6145 2.48627 17.6922 2.36962L18.2366 1.4364C18.3922 1.16421 18.7032 0.969789 19.131 0.930904C19.2865 0.89202 19.6365 0.892021 20.1808 0.892021C22.0084 0.814252 22.8638 1.00867 22.8638 1.39751Z" fill="#124D73"/>
<path d="M22.086 24.0281C22.086 26.3222 21.6583 28.1109 20.8417 29.3941C20.1418 30.5217 19.3252 31.0661 18.392 31.0661V28.7331C19.1308 28.7331 19.8696 28.4609 20.5695 27.8776C20.764 27.7221 20.8806 27.061 20.8806 25.9723C20.8806 25.3112 20.7251 22.6671 20.3751 18.001C20.0252 13.3349 19.8696 10.613 19.8696 9.79645C19.8696 9.05765 19.753 8.43551 19.5197 7.93001C19.5197 7.65782 19.7141 6.99679 20.1807 5.94692C20.2585 5.83027 20.2974 5.79138 20.3362 5.79138C20.3751 5.79138 20.4529 5.86915 20.4918 5.9858C20.6084 6.25799 20.9195 6.99679 21.3472 8.2022C21.8138 9.4465 22.1249 10.2242 22.2027 10.5353C22.2804 10.7686 22.2804 10.9241 22.2804 11.0019C22.2804 11.3518 21.9305 11.1574 21.2695 10.4186C21.1917 10.3019 21.1528 10.3408 21.1528 10.5353C21.1528 10.5741 21.3083 12.6739 21.6194 16.7567C21.9305 20.8007 22.086 23.2504 22.086 24.0281Z" fill="#124D73"/>
<path d="M24.6135 19.2454C24.6135 18.5066 24.4969 17.8845 24.2635 17.379C24.2635 17.1068 24.458 16.4458 24.9246 15.4348C25.0023 15.3181 25.0412 15.2404 25.0801 15.2404C25.119 15.2404 25.1579 15.3181 25.2357 15.4348C25.3912 15.707 25.6634 16.4458 26.0911 17.6512C26.5577 18.8955 26.8688 19.6732 26.9466 19.9842C27.0243 20.2175 27.0243 20.3731 27.0243 20.4897C27.0243 20.8397 26.6744 20.6064 26.0133 19.8676C25.9356 19.7509 25.8967 19.7898 25.8967 20.0231C25.8967 20.1009 26.0522 22.5117 26.4022 27.2945C26.7521 32.0772 26.9077 34.7602 26.9077 35.3435C26.9077 37.171 26.6355 38.8042 26.0911 40.204C25.9744 40.4762 25.8578 40.6706 25.8189 40.7873C25.7023 40.9817 25.6245 41.0206 25.6245 40.9039C25.5856 40.7484 25.5856 40.4373 25.6634 40.0096C25.7411 39.3874 25.78 38.6486 25.78 37.7932C25.78 37.0544 25.5856 33.9437 25.1968 28.461C24.8079 22.9394 24.6135 19.9065 24.6135 19.2454Z" fill="#124D73"/>
</svg>
