<svg width="46" height="49" viewBox="0 0 46 49" fill="none" xmlns="http://www.w3.org/2000/svg">
<path d="M0 40.8642C0 38.7319 0.362949 36.9625 1.08885 35.5561C1.36106 35.0116 1.54253 34.7394 1.63327 34.7394C1.67864 34.7394 1.67864 34.7848 1.67864 34.8755C1.67864 35.057 1.63327 35.3292 1.49717 35.7375C0.952742 37.2347 0.635161 38.5958 0.635161 39.8207C0.635161 41.1818 0.907373 42.316 1.49717 43.2687C2.35917 44.7659 3.9017 45.4918 5.98866 45.4918C8.21172 45.4918 10.7977 44.4937 13.8828 42.4975C16.242 40.9549 17.966 39.5031 19.1002 38.0967C19.4178 37.6884 19.6446 36.8718 19.7353 35.6468C19.7353 35.5107 19.7353 34.6033 19.7353 32.8793C19.7353 28.161 19.5085 23.8963 19.0548 20.1761C18.9187 18.9058 18.6465 17.091 18.2382 14.7319C18.465 13.3708 18.6465 12.5542 18.7372 12.282C18.828 12.1005 18.8733 12.0098 18.9641 12.0098C19.0094 12.0098 19.1002 12.1005 19.1909 12.282C19.8261 14.2782 20.3251 16.8642 20.6881 19.9493C20.9603 22.0362 21.1418 25.2574 21.2325 29.6128C21.3686 33.5145 21.5047 35.9644 21.6862 36.9171C21.913 38.006 22.276 38.7772 22.7297 39.1402C23.0472 39.4124 23.5463 39.5031 24.1815 39.5031V42.3614C22.775 42.3614 21.7316 41.8169 21.0964 40.7281C20.7335 40.0476 20.4159 38.8226 20.2344 37.144C19.9622 38.8226 19.69 39.9115 19.4178 40.3198C19.0548 40.8642 18.1928 41.6808 16.8318 42.8604C15.1077 44.3122 13.3837 45.5372 11.7051 46.4899C9.48204 47.7149 7.53119 48.35 5.89792 48.35C3.62949 48.35 1.99622 47.4426 1.04348 45.5825C0.36295 44.2668 0 42.7243 0 40.8642Z" fill="#124D73"/>
<path d="M29.8976 26.8453C29.8976 27.0721 29.6254 27.5258 29.1264 28.2063C28.5366 29.023 27.9922 29.6128 27.4477 29.9757C27.1302 30.2026 26.0413 30.5655 24.1812 31.0646C23.8182 31.1099 23.6821 31.1553 23.6821 31.1553C23.7275 31.1099 23.8182 31.0192 24.0451 30.8831C24.2719 30.7016 24.9525 30.3387 26.0413 29.7489C27.0848 29.2044 27.6746 28.8415 27.856 28.66C27.9014 28.6147 27.9014 28.5693 27.9014 28.5239C27.9014 28.2971 26.994 28.161 25.1339 28.161C25.1339 28.161 24.771 28.161 24.0905 28.2063C23.7275 28.2517 23.546 28.2063 23.546 28.161C23.546 28.1156 23.5914 28.0249 23.6821 27.8888L24.3627 26.7999C24.5441 26.4823 24.9071 26.2555 25.4515 26.1648C25.633 26.1194 26.0413 26.1194 26.7218 26.1194C28.8542 26.1648 29.8976 26.3916 29.8976 26.8453Z" fill="#124D73"/>
<path d="M33.6633 40.955C34.0716 40.955 34.2984 40.8189 34.2984 40.592C34.2984 40.2744 34.0716 40.0476 33.6179 39.8661C33.0735 39.6393 32.3476 39.5939 31.3948 39.73C32.03 40.5466 32.8013 40.955 33.6633 40.955ZM23.9998 42.316V39.4578C25.2247 39.4578 26.7219 38.9587 28.5366 37.9606C28.4912 37.7338 28.6274 37.5523 28.9903 37.3708C29.3533 37.2347 29.6255 37.2347 29.7616 37.4616C31.0319 37.0533 32.0754 36.8264 32.8466 36.8264C33.6633 36.8264 34.2984 37.144 34.7521 37.8245C35.2058 38.5051 35.4326 39.4124 35.4326 40.5013C35.4326 41.4086 35.2512 42.1345 34.8429 42.7243C34.4345 43.3141 33.8901 43.6317 33.255 43.6317C31.8032 43.6317 30.4421 42.4975 29.2625 40.2744C27.0848 41.6809 25.3154 42.316 23.9998 42.316Z" fill="#124D73"/>
<path d="M27.3119 16.0022C29.8979 15.0494 32.7108 14.0513 35.6597 12.9625C35.7958 12.9171 35.8866 12.8717 35.932 12.9171C35.9773 12.9625 35.9773 13.0532 35.8866 13.1893C35.7051 13.5976 35.569 13.8245 35.4783 13.9152C33.0284 14.7772 30.1248 15.9568 26.8129 17.3179C26.949 16.9095 27.1304 16.5012 27.3119 16.0022Z" fill="#124D73"/>
<path d="M34.2984 19.9039C34.2984 20.2668 34.2077 20.6298 34.0716 21.0381C33.8448 21.5371 33.5726 21.8094 33.2096 21.8094C32.6652 21.8094 32.3022 21.4464 32.0754 20.7205C31.8032 21.6733 31.3495 22.1269 30.669 22.1269C30.3967 22.1269 30.2153 21.9908 29.9884 21.764C29.7616 21.4464 29.6709 21.0381 29.6709 20.5844V19.4048C29.6709 19.3141 29.6255 19.2233 29.444 19.178C29.2625 19.1326 29.2172 19.0419 29.2172 18.9058C29.2172 18.6789 29.3533 18.4067 29.5801 18.1345C29.7616 17.9077 29.9431 17.8169 30.0338 17.8169C30.1699 17.8169 30.2606 18.0438 30.2606 18.5428C30.2606 18.815 30.2606 19.0419 30.2153 19.2233C30.1699 19.4048 30.1699 19.5409 30.1699 19.677C30.1699 19.9492 30.2153 20.2215 30.3514 20.4483C30.4875 20.7205 30.6236 20.902 30.8504 20.902C31.1226 20.902 31.3495 20.7659 31.5763 20.539C31.8032 20.3122 31.8939 20.04 31.8939 19.7678C31.8939 19.5863 31.8485 19.2687 31.7124 18.8604C31.6217 18.4067 31.5763 18.1799 31.5763 18.0438C31.5763 17.953 31.6217 17.7716 31.7124 17.5901C31.8032 17.3632 31.8939 17.2725 31.9393 17.2725C32.03 17.2725 32.1661 17.5447 32.2569 18.1345C32.393 18.7243 32.4383 19.1326 32.4383 19.4048C32.4383 20.2215 32.7559 20.5844 33.3457 20.5844C33.6179 20.5844 33.7994 20.4483 33.8448 20.1761C33.3003 19.2687 33.0735 18.5882 33.0735 18.0438C33.0735 17.7716 33.1189 17.4993 33.3003 17.2725C33.3911 17.1364 33.4364 17.0457 33.4818 17.0457C33.5272 17.0457 33.5726 17.1364 33.5726 17.3179C33.6179 17.5901 33.6179 17.7716 33.7087 17.953C33.754 17.953 33.8448 18.316 34.117 18.9511C34.2531 19.4048 34.2984 19.677 34.2984 19.9039Z" fill="#124D73"/>
<path d="M30.2609 25.1213C30.2155 25.0759 30.2155 25.0306 30.2609 24.9398L31.1683 23.0797C31.2136 22.9436 31.3044 22.8983 31.3497 22.8983C31.4405 22.8983 31.8488 23.1251 32.5747 23.6242C33.3006 24.1232 33.6635 24.3954 33.6635 24.4862C33.6635 24.8037 33.3459 25.4389 32.7108 26.437C32.62 26.5731 32.5747 26.6185 32.4839 26.5731C31.758 26.1194 31.0321 25.575 30.2609 25.1213Z" fill="#124D73"/>
<path d="M32.3478 29.9757C32.62 29.9757 32.8922 30.3387 33.2098 31.0192C33.5728 31.9719 33.9357 32.6071 34.2533 32.97C34.8431 33.6506 35.6597 33.9681 36.6578 33.9681V36.8264C35.4782 36.8264 34.5255 36.4634 33.7996 35.7829C33.3913 35.4199 32.983 34.7394 32.62 33.832C32.3024 33.1515 32.0302 32.8339 31.758 32.8339C31.3951 32.8339 30.896 33.1969 30.2155 33.9228C29.4442 34.694 29.0813 35.3746 29.0813 35.919C29.0813 36.418 29.3081 36.8717 29.7618 37.3708C29.7618 37.5069 29.6257 37.643 29.3081 37.7791C29.0359 37.9152 28.8091 38.006 28.6276 38.006C28.5368 38.006 28.4915 38.0059 28.4461 37.9606C28.2193 37.2801 28.1285 36.6903 28.1739 36.2366C28.3554 34.5126 28.9452 33.0154 29.8979 31.6997C30.7599 30.5655 31.5765 29.9757 32.3478 29.9757Z" fill="#124D73"/>
<path d="M41.739 1.07594C41.739 1.30278 41.4668 1.75646 40.9677 2.43699C40.3779 3.25363 39.8335 3.84342 39.2891 4.20637C38.9715 4.43321 37.8827 4.79616 36.0226 5.29522C35.6596 5.34058 35.5235 5.38595 35.5235 5.38595C35.5689 5.34058 35.6596 5.24985 35.8865 5.11374C36.1133 4.93227 36.7938 4.56932 37.8827 3.97952C38.9262 3.4351 39.5159 3.07215 39.6974 2.89068C39.7428 2.84531 39.7428 2.79994 39.7428 2.75457C39.7428 2.52773 38.8354 2.39162 36.9753 2.39162C36.9753 2.39162 36.6124 2.39162 35.9318 2.43699C35.5689 2.48236 35.3874 2.43699 35.3874 2.39162C35.3874 2.34626 35.4328 2.25552 35.5235 2.11941L36.204 1.03057C36.3855 0.712985 36.7485 0.486143 37.2929 0.395406C37.4744 0.350038 37.8827 0.350037 38.5632 0.350037C40.6955 0.395405 41.739 0.622249 41.739 1.07594Z" fill="#124D73"/>
<path d="M40.7865 28.3879C40.7865 31.11 40.2874 33.2423 39.2893 34.8302C38.4727 36.1459 37.4746 36.8264 36.3857 36.8264V33.9682C37.2931 33.9682 38.1551 33.6053 38.9718 32.9247C39.244 32.6979 39.3347 31.972 39.3347 30.6563C39.3347 29.885 39.1079 26.6639 38.7449 21.0835C38.3366 15.5032 38.1551 12.2366 38.1551 11.2839C38.1551 10.3765 38.019 9.65064 37.7014 9.06084C37.7014 8.69789 37.9736 7.92663 38.4727 6.70168C38.5634 6.56557 38.6088 6.5202 38.6542 6.5202C38.6995 6.5202 38.7903 6.61094 38.881 6.74705C39.0171 7.06463 39.3801 7.972 39.9245 9.42379C40.5143 10.921 40.8319 11.8737 40.9226 12.1913C41.0133 12.4635 41.0587 12.645 41.0587 12.7811C41.0587 13.1894 40.6504 12.9625 39.8338 12.0552C39.743 11.9191 39.6977 11.9644 39.6977 12.1913C39.6977 12.2366 39.8791 14.7319 40.2421 19.6317C40.605 24.5315 40.7865 27.4351 40.7865 28.3879Z" fill="#124D73"/>
<path d="M42.6013 17.0457C42.6013 16.1383 42.4652 15.4124 42.1476 14.8226C42.1476 14.5051 42.4198 13.6884 42.9189 12.4635C43.0096 12.3274 43.055 12.2366 43.1004 12.2366C43.1457 12.2366 43.2365 12.3274 43.2818 12.4635C43.4633 12.7811 43.7809 13.6884 44.3253 15.1402C44.9151 16.6374 45.2327 17.5901 45.3234 17.9077C45.4142 18.1799 45.4595 18.3614 45.4595 18.5429C45.4595 18.9512 45.0512 18.679 44.2346 17.7716C44.1438 17.6355 44.0985 17.6809 44.0985 17.9531C44.0985 18.0438 44.3253 20.9474 44.7336 26.6638C45.142 32.3803 45.3688 35.6015 45.3688 36.282C45.3688 38.5051 45.0512 40.4105 44.3707 42.0892C44.2346 42.4068 44.0985 42.6336 44.0077 42.8151C43.8716 43.0419 43.7809 43.0873 43.7809 42.9512C43.7355 42.7697 43.7355 42.4068 43.8263 41.8623C43.917 41.0911 43.9624 40.2291 43.9624 39.2309C43.9624 38.3236 43.7355 34.6034 43.2818 28.0703C42.8282 21.4918 42.6013 17.817 42.6013 17.0457Z" fill="#124D73"/>
</svg>
