<svg width="49" height="30" viewBox="0 0 49 30" fill="none" xmlns="http://www.w3.org/2000/svg">
<path d="M46.3692 9.18808C46.3692 8.64391 46.2898 8.21311 46.1198 7.85034C46.1198 7.65761 46.2558 7.1928 46.5846 6.48992C46.6072 6.41057 46.6412 6.35388 46.6639 6.35388C46.7206 6.35388 46.7433 6.41057 46.8 6.48992C46.8793 6.68265 47.072 7.1928 47.4008 8.04306C47.7522 8.93867 47.945 9.48283 48.0017 9.69823C48.0583 9.83428 48.0583 9.97032 48.0583 10.027C48.0583 10.2764 47.8429 10.1404 47.3555 9.5962C47.2988 9.51684 47.2761 9.57353 47.2761 9.70957C47.2761 9.76625 47.4121 11.4554 47.6616 14.8225C47.911 18.1668 48.013 20.0487 48.013 20.4795C48.013 21.7606 47.8203 22.9056 47.4462 23.8806C47.3328 24.0733 47.2874 24.2093 47.2308 24.3113C47.1514 24.4474 47.1174 24.4474 47.0947 24.368C47.072 24.2547 47.0947 24.0393 47.1174 23.7445C47.1741 23.2797 47.1967 22.7695 47.1967 22.1914C47.1967 21.6472 47.0607 19.4705 46.7886 15.6387C46.5052 11.7955 46.3692 9.65289 46.3692 9.18808Z" fill="#124D73"/>
<path d="M45.3603 16.455C45.3603 18.0648 45.0655 19.3118 44.4874 20.2414C43.9999 21.001 43.4217 21.4091 42.7755 21.4091V19.754C43.297 19.754 43.8072 19.5386 44.2946 19.1304C44.4307 19.0171 44.51 18.5636 44.51 17.7927C44.51 17.3052 44.3967 15.7521 44.2153 13.1673C44.0226 10.5598 43.9432 9.00669 43.9432 8.54188C43.9432 8.02039 43.8298 7.58959 43.6711 7.23815C43.6711 7.04543 43.8298 6.58062 44.1586 5.85507C44.1813 5.77571 44.2153 5.7417 44.238 5.7417C44.2946 5.7417 44.3173 5.76437 44.374 5.85507C44.4534 6.07047 44.6688 6.59196 44.9748 7.43088C45.3263 8.30381 45.519 8.84798 45.5984 9.06338C45.621 9.22209 45.6551 9.33546 45.6551 9.41482C45.6551 9.66423 45.4056 9.49418 44.9522 8.95001C44.8955 8.89333 44.8728 8.92734 44.8728 9.06338C44.8728 9.08605 44.9522 10.2084 45.1222 12.3851C45.2809 14.5164 45.3603 15.8768 45.3603 16.455Z" fill="#124D73"/>
<path d="M40.9934 17.4417C40.6886 17.2276 40.0673 17.1149 39.1881 17.0923C38.8833 17.1149 38.5668 17.1149 38.3207 17.1712C38.8833 17.5206 39.2819 17.8474 39.5281 18.1179C39.9852 17.87 40.4893 17.6333 40.9934 17.4417ZM39.1061 19.7409C38.0041 20.4397 37.3594 20.8454 37.1132 20.9581C36.574 21.2511 36.0113 21.3864 35.4487 21.3864V19.7409C36.2341 19.7409 37.1367 19.4479 38.1214 18.8505C37.8166 18.5237 37.418 18.2532 36.9726 18.0165C36.574 17.8024 36.2692 17.6897 36.07 17.6897C35.6479 17.6897 35.3432 17.746 35.1439 17.8813C35.0618 17.9038 35.0032 17.9376 34.9446 17.9376C34.886 17.9376 34.8625 17.9151 34.8625 17.8249C34.8625 17.7686 34.8625 17.7122 34.9212 17.6333L35.4252 16.495C35.5073 16.2808 36.0113 16.0892 36.9491 15.8751C37.8166 15.6835 38.6606 15.6046 39.4577 15.6046C41.0051 15.6046 42.2477 15.9315 43.1386 16.5739C43.3613 16.7317 43.4785 16.8444 43.4785 16.9233C43.4785 16.9458 43.4551 17.0585 43.3964 17.1712L42.8572 18.1179C42.318 18.3095 41.5912 18.6026 40.63 18.9858C41.1692 19.5042 41.9546 19.7409 42.9393 19.7409V21.3864C42.1773 21.3864 41.5912 21.3075 41.1692 21.1159C40.6534 20.9356 39.9852 20.4735 39.1061 19.7409Z" fill="#124D73"/>
<path d="M35.486 21.3751C35.0552 21.3751 34.6471 21.2617 34.3183 21.0463C33.8875 20.7516 33.6381 20.2528 33.5587 19.6292C33.366 19.9807 33.0712 20.3661 32.6064 20.7742C31.9262 21.3411 31.2233 21.6472 30.4865 21.6472V19.992C31.4161 19.992 32.1983 19.7199 32.8218 19.2324C32.8785 19.1758 33.1166 18.9377 33.5587 18.4389C33.9668 17.9741 34.1822 17.7587 34.2389 17.7587C34.2956 17.7587 34.3523 17.8154 34.3523 17.9174C34.3523 17.9741 34.3296 18.0534 34.2956 18.1101C34.2389 18.3255 34.2163 18.5182 34.2163 18.711C34.2163 19.3912 34.6471 19.7199 35.4973 19.7199V21.3751H35.486Z" fill="#124D73"/>
<path d="M25.7474 18.9829C25.9968 19.5271 26.0988 19.9579 26.0988 20.23C26.0988 21.0689 25.8268 21.8398 25.2259 22.4293C24.7384 22.9962 24.2169 23.2683 23.7068 23.2683V21.6131C24.4437 21.6131 25.0672 21.2843 25.5887 20.6608C25.6681 20.6041 25.6681 20.5248 25.6454 20.4114C25.396 19.7085 24.6364 18.8356 23.412 17.8493C21.9949 16.7609 20.6118 15.6726 19.1947 14.5616C19.1721 14.5389 19.1381 14.4256 19.1381 14.2328C19.1381 13.9041 19.1947 13.4733 19.3308 12.9858C19.4668 12.4643 19.6029 12.1469 19.7616 12.0108C20.6912 11.1719 22.7318 10.0496 25.8268 8.63246C28.9557 7.24937 31.019 6.53516 32.028 6.53516C32.3227 6.53516 32.5495 6.59184 32.6515 6.72788C32.7649 6.84125 32.8102 7.02264 32.8102 7.32873C32.8102 7.98626 32.4021 8.80251 31.6425 9.77748C31.3478 10.1289 31.0417 10.4577 30.7469 10.7865C30.2594 11.3306 29.9534 11.7954 29.7946 12.1242C29.6813 12.3736 29.6019 12.4756 29.5792 12.4756C29.5566 12.4756 29.5792 12.3396 29.6359 12.0108C29.6586 11.8521 29.7946 11.546 30.0214 11.1152C30.2368 10.7298 30.3728 10.4917 30.4862 10.3783C31.3818 9.36935 31.926 8.68915 32.096 8.39439C32.1187 8.37172 32.1187 8.31503 32.1187 8.28102C32.1187 8.0883 31.8693 8.00894 31.3591 8.00894C30.5655 8.00894 28.695 8.66647 25.7587 10.0269C22.7658 11.3873 20.7479 12.4983 19.6596 13.3712C19.5802 13.4506 19.6029 13.5073 19.6822 13.53C20.4758 13.9154 21.2354 14.3235 21.9949 14.7317C23.8202 15.7633 25.4186 16.8516 26.8131 17.974C27.686 18.7109 28.2528 19.1757 28.5249 19.3344C29.2051 19.7652 29.8627 19.9919 30.4862 19.9919V21.6471C29.8627 21.6471 29.2845 21.5111 28.797 21.239C28.5022 21.0462 28.0601 20.7175 27.4933 20.1733C26.8357 19.6065 26.2916 19.1417 25.8381 18.8356C25.7587 18.7562 25.6794 18.7222 25.6794 18.7222C25.634 18.7335 25.6567 18.8129 25.7474 18.9829Z" fill="#124D73"/>
<path d="M23.7523 21.5834V23.2569C23.0193 23.2569 22.4754 23.066 22.1088 22.7403C21.8251 22.4707 21.6832 22.0888 21.6832 21.6396C21.6832 21.5273 21.6832 21.4262 21.6832 21.2914C20.9501 21.8081 20.3471 22.1562 19.8978 22.3472V20.8422C20.4654 20.6288 21.1748 20.2469 22.0024 19.7415C22.1207 19.6628 22.2034 19.6292 22.2626 19.6292C22.3453 19.6292 22.4044 19.6853 22.4044 19.7864C22.4044 19.8425 22.3808 19.9436 22.3453 20.1121C22.3453 20.2693 22.3217 20.3817 22.3217 20.4378C22.3217 20.7074 22.4399 20.9545 22.6882 21.1903C22.9483 21.4487 23.3267 21.6171 23.7523 21.5834Z" fill="#124D73"/>
<path d="M18.4464 21.0804C18.0383 20.5589 17.6868 20.3208 17.3581 20.3208C16.8706 20.3208 16.6552 20.4342 16.6552 20.7062C16.6552 21.035 16.9839 21.1937 17.6301 21.1937C17.8795 21.1824 18.1516 21.1257 18.4464 21.0804ZM19.2966 23.0643C19.2966 22.9056 19.24 22.7129 19.1833 22.5201C18.8545 22.6335 18.367 22.7129 17.7662 22.7129C16.4625 22.7129 15.8049 22.248 15.8049 21.3524C15.8049 20.6722 15.9976 20.0714 16.4284 19.5272C16.8366 19.0624 17.2674 18.8243 17.7322 18.8243C18.0836 18.8243 18.4351 19.0397 18.8432 19.4479C19.1946 19.856 19.5234 20.3208 19.7955 20.8876C19.8181 20.8876 19.8748 20.8876 19.9882 20.831V22.3274L19.9315 22.3841C19.9315 22.7129 19.8522 23.087 19.6821 23.5858C19.4894 24.2093 19.1946 24.7308 18.8432 25.1389C18.0269 26.1139 17.1313 26.9642 16.145 27.701C14.6712 28.7894 13.4242 29.3562 12.3359 29.3562C11.4062 29.3562 10.7034 29.0048 10.2159 28.3246C9.78509 27.7577 9.55835 26.9868 9.55835 26.0912C9.55835 24.9462 9.80776 23.7785 10.2612 22.5541C10.3973 22.2821 10.454 22.1687 10.5106 22.1687C10.5333 22.1687 10.5333 22.1914 10.5333 22.248C10.5333 22.3274 10.5106 22.4634 10.4766 22.6335C10.1252 23.8352 9.95514 24.7308 9.95514 25.3543C9.95514 25.9212 10.0912 26.42 10.3633 26.8281C10.7941 27.395 11.4743 27.701 12.4266 27.701C13.2428 27.701 14.2178 27.3496 15.3968 26.6354C16.3264 26.0685 17.222 25.3883 18.0949 24.5721C18.8885 23.8012 19.2966 23.3024 19.2966 23.0643Z" fill="#124D73"/>
<path d="M5.28461 21.6245C7.07582 21.6245 9.09377 21.2391 11.4065 20.5362C13.2544 19.9354 14.4561 19.4479 15.0002 19.0398C15.0569 19.0171 15.0569 18.9604 15.0569 18.881C15.0569 18.6656 14.7282 18.0875 14.0253 17.2259C13.8892 17.0672 13.8325 16.8744 13.8892 16.6817C13.9686 16.2963 14.082 15.9788 14.218 15.7067C14.2974 15.514 14.3767 15.412 14.4334 15.412C14.4561 15.412 14.5694 15.4913 14.7055 15.6614C14.8982 15.8541 15.0909 16.1489 15.2723 16.591C15.5671 17.1125 15.7031 17.566 15.7031 17.9514C15.7031 19.2325 15.295 20.1848 14.4561 20.7516C13.9119 21.1597 12.6875 21.6472 10.8056 22.2254C8.43623 22.9623 6.39561 23.3137 4.6044 23.3137C2.85854 23.3137 1.63416 22.8489 0.851925 21.9306C0.307759 21.3071 0.0583496 20.4909 0.0583496 19.5046C0.0583496 18.4729 0.307759 17.5206 0.795241 16.625C0.953956 16.3529 1.06732 16.1942 1.12401 16.1942C1.12401 16.1942 1.14668 16.2169 1.14668 16.2736C1.14668 16.3529 1.09 16.523 1.01064 16.7611C0.897272 17.0898 0.76123 17.3846 0.659199 17.7134C0.523157 18.1215 0.466474 18.5523 0.466474 19.0171C0.466474 19.6179 0.738556 20.1281 1.33941 20.5929C2.17833 21.2618 3.48206 21.6245 5.28461 21.6245Z" fill="#124D73"/>
<path d="M31.9711 14.709C31.9484 14.6864 31.9484 14.6524 31.9711 14.5957L32.4926 13.5073C32.5153 13.4507 32.572 13.428 32.606 13.428C32.6627 13.428 32.9007 13.564 33.3088 13.8361C33.7396 14.1309 33.9664 14.3009 33.9664 14.3576C33.9664 14.5503 33.7737 14.9244 33.3995 15.5253C33.3429 15.6046 33.3202 15.6387 33.2635 15.6046C32.844 15.2759 32.4132 14.9811 31.9711 14.709Z" fill="#124D73"/>
<path d="M20.3853 26.9301C20.3626 26.9074 20.3626 26.8734 20.3853 26.8167L20.9068 25.7284C20.9295 25.6717 20.9861 25.649 21.0202 25.649C21.0768 25.649 21.3149 25.7851 21.723 26.0572C22.1538 26.3519 22.3806 26.522 22.3806 26.5787C22.3806 26.7714 22.1878 27.1455 21.8137 27.7464C21.757 27.8257 21.7344 27.8597 21.6777 27.8257C21.2582 27.4969 20.8161 27.2022 20.3853 26.9301Z" fill="#124D73"/>
<path d="M7.54056 15.412L7.97135 14.5164C7.99403 14.4597 8.02804 14.437 8.08472 14.437C8.14141 14.437 8.3568 14.5731 8.7876 14.8678C9.19573 15.1399 9.41113 15.2986 9.41113 15.3553C9.41113 15.548 9.2184 15.9561 8.86696 16.557C8.81028 16.6363 8.75359 16.6363 8.70824 16.6137C8.3568 16.3416 7.94868 16.0695 7.48387 15.7748C7.32516 16.1035 7.18912 16.3983 7.01906 16.6477C6.99639 16.727 6.93971 16.7611 6.88302 16.727C6.4749 16.3983 6.0441 16.1035 5.60197 15.8314C5.57929 15.8088 5.57929 15.7748 5.60197 15.7181L6.12346 14.6297C6.14613 14.5731 6.20282 14.5164 6.23683 14.5164C6.29351 14.5164 6.48623 14.6524 6.83768 14.9018C7.18912 15.1172 7.42719 15.3099 7.54056 15.412Z" fill="#124D73"/>
<path d="M35.8938 13.8135C37.9911 13.0539 40.1677 12.2377 42.4464 11.3874C42.5258 11.3647 42.5825 11.3307 42.6051 11.3647C42.6051 11.3647 42.6051 11.4214 42.5825 11.5008C42.4691 11.7502 42.3897 11.8862 42.3331 11.9316C40.4285 12.6344 38.1725 13.5074 35.6104 14.573C35.6784 14.3236 35.7577 14.0856 35.8938 13.8135Z" fill="#124D73"/>
<path d="M18.6168 8.91601C20.7141 8.15645 22.8908 7.3402 25.1695 6.48994C25.2488 6.46727 25.3055 6.43326 25.3282 6.46727C25.3282 6.46727 25.3282 6.52395 25.3055 6.60331C25.1921 6.85272 25.1128 6.98876 25.0561 7.03411C23.1515 7.73699 20.8955 8.60992 18.3334 9.67558C18.4014 9.42617 18.4808 9.1881 18.6168 8.91601Z" fill="#124D73"/>
<path d="M15.7255 9.97032C15.7822 9.81161 15.7822 9.64156 15.7482 9.48284C15.7255 9.32413 15.6348 9.23343 15.4988 9.23343C15.4421 9.23343 15.3627 9.25611 15.2494 9.31279C15.136 9.36947 15.0906 9.42616 15.0906 9.4715C15.102 9.61888 15.3174 9.78893 15.7255 9.97032ZM16.3264 10.9793C16.0543 11.6368 15.9182 12.147 15.9182 12.5324C15.9182 12.9972 16.0316 13.2353 16.2697 13.2353C16.4284 13.2353 16.5984 13.0426 16.7572 12.7138C16.7798 12.6912 16.7798 12.6571 16.8138 12.6345C16.8365 12.6345 16.8365 12.6345 16.8365 12.6571C16.8365 12.6571 16.8365 12.6798 16.8365 12.7365C16.7005 13.5527 16.4511 13.9609 16.0996 13.9609C15.7482 13.9609 15.5781 13.6661 15.5781 13.0653C15.5781 12.7705 15.6575 12.3851 15.7935 11.8976C15.9522 11.4101 16.0429 11.1607 16.0429 11.138C16.0429 11.0813 15.9296 10.9793 15.6915 10.8433C15.3967 11.2514 15.034 11.6028 14.6032 11.9316C14.0817 12.317 13.6282 12.5891 13.2201 12.7705C13.1067 12.7932 12.6192 12.9859 11.7463 13.3147C11.6103 13.3714 11.4969 13.394 11.4742 13.394C11.4515 13.394 11.4515 13.394 11.4515 13.3714C11.4515 13.3487 11.5082 13.292 11.6669 13.1786C12.3245 12.7932 12.9707 12.3851 13.6509 12.0109C14.4445 11.5235 15.0113 11.0813 15.3967 10.6732C14.8752 10.4011 14.6372 10.129 14.6372 9.83428C14.6372 9.48284 14.7959 9.15407 15.1247 8.85932C15.4534 8.58723 15.7255 8.47387 15.9409 8.56456C16.1336 8.62125 16.213 8.81397 16.213 9.1314C16.213 9.42616 16.1563 9.75492 16.0203 10.1064C16.2923 10.2651 16.4284 10.4351 16.4284 10.5938C16.4397 10.6845 16.383 10.8206 16.3264 10.9793Z" fill="#124D73"/>
<path d="M46.9917 0.951986C46.9917 1.15432 46.7941 1.51853 46.3596 2.12554C45.846 2.81349 45.4114 3.33956 44.9768 3.6633C44.7003 3.86564 43.7917 4.18938 42.2114 4.59405C41.9349 4.63452 41.7768 4.67499 41.7768 4.67499C41.8163 4.63452 41.8954 4.55359 42.0929 4.43218C42.2904 4.27031 42.8435 3.94657 43.7917 3.46097C44.6608 2.97536 45.1744 2.65162 45.2929 2.53021C45.3324 2.48975 45.3324 2.44928 45.3324 2.44928C45.3324 2.24694 44.5423 2.16601 43.0015 2.16601C43.0015 2.16601 42.725 2.16601 42.1324 2.20648C41.8163 2.24694 41.6583 2.20648 41.6583 2.16601C41.6583 2.12554 41.6978 2.04461 41.7768 1.9232L42.3299 0.992456C42.488 0.709184 42.804 0.547314 43.2386 0.466379C43.3966 0.425911 43.7521 0.425912 44.3052 0.425912C46.1225 0.344977 46.9917 0.547312 46.9917 0.951986Z" fill="#124D73"/>
<path d="M8.59175 7.35201C8.59175 7.55435 8.39422 7.91855 7.95965 8.52557C7.44607 9.21351 7.01151 9.73959 6.57694 10.0633C6.3004 10.2657 5.39175 10.5894 3.81151 10.9941C3.53497 11.0345 3.37694 11.075 3.37694 11.075C3.41645 11.0345 3.49546 10.9536 3.69299 10.8322C3.89052 10.6703 4.44361 10.3466 5.39175 9.86099C6.26089 9.37538 6.77447 9.05164 6.89299 8.93024C6.93249 8.88977 6.93249 8.84931 6.93249 8.84931C6.93249 8.64697 6.14237 8.56603 4.60163 8.56603C4.60163 8.56603 4.32509 8.56603 3.7325 8.6065C3.41645 8.64697 3.25842 8.6065 3.25842 8.56603C3.25842 8.52556 3.29793 8.44463 3.37694 8.32323L3.93003 7.39248C4.08805 7.10921 4.4041 6.94734 4.83867 6.8664C4.99669 6.82594 5.35225 6.82594 5.90533 6.82594C7.72261 6.745 8.59175 6.94734 8.59175 7.35201Z" fill="#124D73"/>
</svg>
