<svg width="49" height="49" viewBox="0 0 49 49" fill="none" xmlns="http://www.w3.org/2000/svg">
<path d="M8.35613 30.3426C8.31371 30.3003 8.31366 30.2579 8.35592 30.1732L9.11659 28.6047C9.15885 28.5199 9.20117 28.4775 9.2859 28.4774C9.37063 28.4773 9.70981 28.6887 10.3034 29.1117C10.8971 29.5346 11.1939 29.7461 11.194 29.8308C11.1943 30.085 10.9408 30.636 10.3911 31.484C10.3065 31.6112 10.2641 31.6113 10.1793 31.569C9.62807 31.146 8.99207 30.7231 8.35613 30.3426ZM6.58873 40.1735C3.62316 40.1771 1.58787 38.7392 0.440456 35.8174C0.22796 35.2669 0.0999883 34.5468 0.0989065 33.6572C0.0981853 33.064 0.139779 32.4285 0.266153 31.8352C0.392168 30.9454 0.603066 30.1826 0.856485 29.5468C0.940958 29.3349 1.02554 29.2077 1.11027 29.2076C1.195 29.2075 1.19515 29.3346 1.15315 29.6312C1.06893 30.0549 0.942298 30.4364 0.858082 30.8601C0.689548 31.6229 0.605488 32.1738 0.605848 32.4703C0.607291 33.6565 1.03228 34.7575 1.83846 35.7733C2.94161 37.1277 4.50995 37.8036 6.58585 37.8011C8.40756 37.7989 10.3135 37.3729 12.3036 36.4808C13.828 35.8435 15.2673 34.952 16.6217 33.8913C17.7645 33.0426 18.4416 32.4063 18.6105 31.9824C18.6089 30.6691 18.2259 29.2291 17.4615 27.7473C17.3341 27.4509 17.2491 27.2391 17.2489 27.0697C17.2487 26.9426 17.4175 26.3916 17.7128 25.3745C17.7549 25.1626 17.8396 25.0778 17.8819 25.0777C17.9667 25.0776 18.0939 25.2046 18.2213 25.4586C18.4337 25.9244 18.6035 26.2207 18.6884 26.3053C18.9429 26.6016 19.3667 26.7282 19.9175 26.7275L19.9204 29.1C19.6662 29.1003 19.4543 29.0582 19.3272 29.016C19.3291 30.6258 19.2459 31.8545 19.0774 32.702C18.8667 33.6343 18.5287 34.355 18.0632 34.8215C16.7515 36.0941 15.1853 37.2399 13.3225 38.2589C10.9092 39.5328 8.66464 40.171 6.58873 40.1735Z" fill="#124D73"/>
<path d="M16.9851 19.2324C19.1871 18.4247 21.5161 17.5746 23.9722 16.682C24.0993 16.6394 24.184 16.597 24.184 16.6393C24.2264 16.6816 24.2265 16.7664 24.1419 16.8512C23.9729 17.1903 23.8884 17.4023 23.8037 17.4447C21.7287 18.1675 19.315 19.1448 16.5203 20.2921C16.6471 19.9954 16.8161 19.6139 16.9851 19.2324Z" fill="#124D73"/>
<path d="M27.9258 27.9463C28.2647 27.9459 28.434 27.8186 28.4338 27.6491C28.4335 27.3949 28.2214 27.1833 27.84 27.0567C27.3737 26.8454 26.7806 26.8462 25.9758 26.9742C26.6121 27.6513 27.248 27.9471 27.9258 27.9463ZM19.8355 29.1423L19.8326 26.7699C20.8494 26.7686 22.1198 26.3434 23.644 25.5367C23.6014 25.4096 23.7707 25.2399 24.1095 25.1124C24.4482 24.9426 24.6177 24.9847 24.7026 25.1541C25.7614 24.8139 26.6508 24.601 27.3286 24.6001C28.0065 24.5993 28.5576 24.8952 28.9395 25.4455C29.3215 25.9958 29.5342 26.7581 29.5354 27.6901C29.5363 28.4527 29.3676 29.0884 29.0293 29.5548C28.691 30.0636 28.2676 30.3183 27.7169 30.319C26.4883 30.3205 25.3856 29.3898 24.3666 27.4846C22.4615 28.5884 20.9793 29.141 19.8355 29.1423Z" fill="#124D73"/>
<path d="M28.6629 7.14403C28.6631 7.31349 28.4518 7.69503 28.0288 8.28866C27.5213 8.96713 27.0559 9.47608 26.6326 9.77315C26.3786 9.98528 25.447 10.283 23.88 10.7085C23.5835 10.7513 23.4564 10.7938 23.4564 10.7938C23.4987 10.7514 23.5834 10.6665 23.7527 10.5392C23.9643 10.3695 24.5147 10.0723 25.4461 9.60513C26.3353 9.13803 26.8009 8.84091 26.9702 8.7136C27.0125 8.67119 27.0125 8.62882 27.0125 8.62882C27.0122 8.41699 26.2495 8.33319 24.682 8.3351C24.682 8.3351 24.3855 8.33546 23.7924 8.37854C23.4959 8.42127 23.3264 8.37911 23.3263 8.33674C23.3263 8.29438 23.3685 8.2096 23.4531 8.0824L24.0027 7.14969C24.1718 6.85293 24.4682 6.68311 24.8918 6.64023C25.0188 6.59771 25.4001 6.59724 25.9509 6.59657C27.7725 6.55199 28.6625 6.76274 28.6629 7.14403Z" fill="#124D73"/>
<path d="M37.1058 16.8778C36.258 16.5399 34.9019 16.1603 33.0796 15.6965C30.7488 15.1486 28.842 14.8543 27.4016 14.8561C26.2578 14.8575 25.7071 14.9429 25.7073 15.1123C25.7074 15.1971 25.8771 15.4087 26.2164 15.7048C26.8526 16.2548 27.4887 16.7624 28.1248 17.3124C29.1002 18.1162 29.694 18.6662 29.9486 19.0472C32.4894 18.0697 34.861 17.3889 37.1058 16.8778ZM26.434 20.4495C26.8998 20.2371 27.4926 19.9822 28.2548 19.6423C28.1699 19.5577 27.6186 19.0924 26.6008 18.2463C25.7103 17.5272 25.1588 16.9771 24.9041 16.5537C24.6495 16.1728 24.5642 15.7492 24.5637 15.3256C24.5628 14.6053 24.8586 13.9695 25.4511 13.4604C26.0436 12.9089 26.7635 12.6539 27.6531 12.6528C29.263 12.6508 31.8478 13.0713 35.4076 13.9567C35.5771 13.9988 37.3994 14.505 40.9592 15.4327C41.1711 15.4748 41.2137 15.6442 41.1292 15.8562L40.5804 17.4667C40.4959 17.6363 40.4537 17.7634 40.4114 17.8058C40.3691 17.8483 40.2844 17.9331 40.1997 17.9332C36.9809 18.6997 33.8047 19.7203 30.6288 20.9528C30.6717 21.4187 30.7146 21.8 30.7149 22.0542C30.7153 22.4355 30.6309 22.6474 30.5461 22.6475C30.3767 22.6477 30.0372 22.2245 29.5278 21.3354C28.9349 21.5056 27.9186 21.9305 26.479 22.5677C25.9285 22.8226 25.4204 23.0774 24.9548 23.3745C24.4891 23.6716 24.2775 23.8413 24.2776 23.9261C24.2779 24.1379 24.4054 24.519 24.6603 25.0695C24.4065 25.4087 24.0677 25.5362 23.6017 25.4944C23.5589 25.1979 23.5586 24.9014 23.5583 24.6472C23.5558 22.6136 24.4861 21.2144 26.434 20.4495Z" fill="#124D73"/>
<path d="M30.0822 24.2156C32.2842 23.408 34.6133 22.5578 37.0694 21.6652C37.1965 21.6226 37.2811 21.5802 37.2812 21.6225C37.3236 21.6649 37.3237 21.7496 37.2391 21.8344C37.07 22.1736 36.9856 22.3855 36.9009 22.4279C34.8259 23.1507 32.4122 24.128 29.6175 25.2753C29.7866 24.9785 29.9132 24.5971 30.0822 24.2156Z" fill="#124D73"/>
<path d="M35.5949 28.6572C35.5953 28.9538 35.5109 29.2504 35.3842 29.5895C35.2153 30.0134 34.9613 30.2255 34.6648 30.2259C34.1987 30.2264 33.9018 29.9302 33.7316 29.2949C33.5207 30.1001 33.1399 30.4819 32.5468 30.4826C32.335 30.4829 32.1654 30.356 31.9957 30.1867C31.8259 29.9327 31.7408 29.5939 31.7403 29.1703L31.7391 28.2382C31.739 28.1535 31.6966 28.1112 31.5695 28.069C31.4423 28.0268 31.3999 27.9421 31.3997 27.815C31.3994 27.6032 31.4839 27.3912 31.6955 27.1792C31.8647 27.0095 31.9917 26.9246 32.0765 26.9245C32.2036 26.9243 32.2462 27.1361 32.2467 27.5598C32.247 27.814 32.2472 27.9834 32.2051 28.1529C32.1629 28.3225 32.163 28.4495 32.1632 28.5343C32.1635 28.7885 32.2061 29.0002 32.3334 29.1696C32.4184 29.4236 32.588 29.5505 32.7575 29.5503C32.9693 29.5501 33.1811 29.4651 33.3503 29.253C33.5195 29.041 33.6463 28.829 33.646 28.6172C33.6458 28.4477 33.6032 28.1936 33.518 27.8548C33.4328 27.4736 33.3902 27.2618 33.3901 27.1771C33.39 27.0924 33.4322 26.9652 33.5167 26.7957C33.6013 26.6261 33.6435 26.5413 33.6859 26.5413C33.7706 26.5411 33.8557 26.7952 33.9833 27.2611C34.111 27.727 34.1538 28.1082 34.1541 28.32C34.1549 28.9979 34.4095 29.3365 34.9179 29.3359C35.1721 29.3356 35.299 29.2083 35.3411 28.9964C34.9165 28.2344 34.704 27.6415 34.7035 27.2179C34.7032 27.006 34.7453 26.7942 34.8722 26.5822C34.9567 26.455 34.999 26.3702 35.0414 26.3701C35.0837 26.3701 35.1262 26.4548 35.1264 26.6242C35.169 26.836 35.1692 27.0055 35.2118 27.1749C35.2542 27.1748 35.3393 27.4713 35.5518 28.0218C35.552 28.2336 35.5947 28.4877 35.5949 28.6572Z" fill="#124D73"/>
<path d="M32.6808 36.2865C33.527 35.3535 34.5851 34.5472 35.8975 33.7831C36.702 33.3584 38.0569 32.7213 39.9623 31.914L39.965 34.0747C38.737 34.5845 37.8478 35.0093 37.2551 35.3066C36.0695 35.8587 35.2651 36.3257 34.7995 36.6652C33.9954 37.3017 32.8106 38.5317 31.2453 40.313C30.3145 41.3732 29.3832 41.9251 28.4511 41.9263C27.6462 41.9272 26.9679 41.5891 26.3739 40.8697C25.7799 40.1502 25.4399 39.2609 25.4386 38.1594C25.4369 36.719 26.0276 34.7695 27.2534 32.4379C27.3801 32.1835 27.4647 32.0563 27.5495 32.0562C27.5919 32.0985 27.5919 32.0985 27.5919 32.1409C27.5922 32.3951 27.339 33.2003 26.8323 34.599C26.3256 35.9977 26.0728 37.0995 26.0738 37.9468C26.0746 38.5823 26.2023 39.0905 26.4993 39.4291C26.7964 39.8524 27.2202 40.0213 27.771 40.0206C28.7454 40.0195 29.7191 39.5099 30.7347 38.5343C31.4117 37.8132 32.0463 37.0499 32.6808 36.2865Z" fill="#124D73"/>
<path d="M41.1676 12.6787C41.1667 11.9161 41.0388 11.2808 40.784 10.8151C40.7837 10.5185 40.9947 9.84042 41.4171 8.82314C41.5017 8.69594 41.544 8.65353 41.544 8.65353C41.5863 8.65348 41.6712 8.7381 41.7137 8.86515C41.8411 9.11919 42.1386 9.8814 42.6061 11.1094C43.0737 12.3798 43.3712 13.142 43.4562 13.4385C43.5412 13.6502 43.5414 13.8197 43.5415 13.9044C43.542 14.2433 43.2028 14.0743 42.5241 13.3125C42.4392 13.1855 42.3969 13.228 42.3971 13.4398C42.3972 13.4821 42.5691 15.5578 42.8708 19.7093C43.1723 23.8184 43.3448 26.2753 43.3457 27.0803C43.3473 28.3936 43.137 29.6225 42.6724 30.8093C42.0814 32.5046 41.1083 33.6073 39.838 34.1596L39.8354 32.0413C41.4021 31.3615 42.1635 30.3439 42.1619 29.0305C42.1611 28.395 41.9883 25.6839 41.6438 21.0241C41.3414 16.2372 41.1686 13.4836 41.1676 12.6787Z" fill="#124D73"/>
<path d="M45.6608 14.4526C45.6598 13.69 45.532 13.0547 45.2772 12.589C45.2769 12.2924 45.4879 11.6567 45.9103 10.597C45.9948 10.4698 46.0371 10.3851 46.0795 10.385C46.1218 10.385 46.1643 10.4696 46.2492 10.5966C46.3767 10.893 46.6741 11.6129 47.1416 12.8409C47.6092 14.1113 47.9067 14.8735 47.9917 15.17C48.0767 15.3817 48.0769 15.5512 48.0771 15.6783C48.0775 16.0172 47.7383 15.8058 47.0595 15.044C46.9747 14.917 46.9324 14.9594 46.9326 15.1713C46.9327 15.256 47.1051 17.6706 47.4499 22.4575C47.7946 27.2443 47.9674 29.9555 47.9681 30.5486C47.9703 32.4127 47.7181 34.0229 47.1267 35.4217C47 35.7184 46.9154 35.8879 46.8309 36.0151C46.704 36.2271 46.6617 36.2695 46.6192 36.1425C46.5766 35.9731 46.5762 35.6765 46.6605 35.2528C46.7444 34.6172 46.7859 33.8969 46.7849 33.0496C46.784 32.2871 46.5683 29.1523 46.1804 23.6876C45.8348 18.1805 45.6616 15.1304 45.6608 14.4526Z" fill="#124D73"/>
<path d="M11.5703 21.7905C11.5706 22.0241 11.2793 22.5501 10.7546 23.3099C10.0549 24.1867 9.47179 24.8882 8.88831 25.2977C8.53821 25.5317 7.31236 25.942 5.26915 26.5284C4.86044 26.5873 4.68532 26.6459 4.68532 26.6459C4.74364 26.5875 4.86037 26.5289 5.09367 26.295C5.32698 26.0612 6.08565 25.6515 7.31129 25.066C8.47847 24.4222 9.12034 24.0126 9.29539 23.8956C9.35372 23.8372 9.35372 23.8372 9.35365 23.7788C9.35337 23.5452 8.30199 23.3713 6.25808 23.3737C6.25808 23.3737 5.84929 23.3742 5.09012 23.3752C4.68134 23.3757 4.50615 23.3759 4.50608 23.3175C4.506 23.2591 4.56426 23.1422 4.68084 22.9669L5.43852 21.7396C5.67168 21.3889 6.02179 21.1549 6.60562 21.0374C6.78074 20.9788 7.24792 20.9782 8.00709 20.9773C10.4014 20.9744 11.5697 21.265 11.5703 21.7905Z" fill="#124D73"/>
</svg>
