<svg width="49" height="37" viewBox="0 0 49 37" fill="none" xmlns="http://www.w3.org/2000/svg">
<path d="M45.4026 5.05231C45.4026 4.19676 45.2779 3.51945 45.0105 2.94908C45.0105 2.64607 45.2244 1.91529 45.7413 0.810201C45.7769 0.685433 45.8304 0.596313 45.866 0.596313C45.9552 0.596313 45.9908 0.685433 46.0799 0.810201C46.2047 1.11321 46.5077 1.91529 47.0246 3.25209C47.5772 4.66019 47.8802 5.51574 47.9693 5.85439C48.0584 6.06828 48.0584 6.28217 48.0584 6.37129C48.0584 6.76342 47.7197 6.54953 46.9533 5.69398C46.8642 5.56921 46.8285 5.65833 46.8285 5.87222C46.8285 5.96134 47.0424 8.61711 47.4346 13.9108C47.8267 19.1689 47.9871 22.1277 47.9871 22.805C47.9871 24.8191 47.6841 26.6193 47.0959 28.1522C46.9177 28.4552 46.8464 28.6691 46.7572 28.8295C46.6325 29.0434 46.579 29.0434 46.5434 28.9186C46.5077 28.7404 46.5434 28.4017 46.579 27.9383C46.6681 27.2075 46.7038 26.4055 46.7038 25.4964C46.7038 24.6409 46.4899 21.2187 46.0621 15.1942C45.6165 9.15183 45.4026 5.76527 45.4026 5.05231Z" fill="#124D73"/>
<path d="M41.3614 4.92195C41.3614 4.10309 41.227 3.42664 40.9389 2.8748C40.9389 2.57218 41.1694 1.84232 41.7264 0.703038C41.7648 0.578428 41.8224 0.525024 41.8608 0.525024C41.9568 0.525024 41.9952 0.560627 42.0913 0.73864C42.2257 1.04126 42.5907 1.84232 43.1477 3.17742C43.7047 4.58372 44.0312 5.43819 44.1656 5.74081C44.204 5.99003 44.2617 6.20364 44.2617 6.29265C44.2617 6.68428 43.8391 6.47066 43.0708 5.6162C42.9748 5.52719 42.9364 5.5806 42.9364 5.79421C42.9364 5.82981 43.1285 8.14399 43.4934 12.6655C43.8583 17.1515 44.0504 19.8395 44.0504 20.7473C44.0504 22.1536 43.7815 23.5243 43.2245 24.8416C42.437 26.6752 41.2846 27.9212 39.8057 28.5087V26.1589C41.6495 25.4291 42.6099 24.3254 42.6099 22.8301C42.6099 22.1002 42.3794 19.163 41.9568 14.0362C41.5343 8.89164 41.3614 5.84762 41.3614 4.92195Z" fill="#124D73"/>
<path d="M31.9989 30.8436C32.8901 29.8098 34.1022 28.9186 35.5994 28.0987C36.4549 27.6353 37.9521 26.9401 40.091 26.049V28.4017C38.7186 29.0077 37.7383 29.4355 37.0966 29.7207C35.7776 30.3624 34.8686 30.8258 34.4052 31.2179C33.514 31.8952 32.1772 33.232 30.4661 35.1927C29.4323 36.3869 28.4163 36.9929 27.3825 36.9929C26.527 36.9929 25.7605 36.6008 25.1189 35.7987C24.4416 35.0322 24.1385 33.9985 24.1385 32.8399C24.1385 31.2536 24.7802 29.1681 26.0992 26.548C26.224 26.2985 26.3487 26.1559 26.4378 26.1559C26.4378 26.1559 26.4735 26.1915 26.4735 26.245C26.4735 26.4946 26.1705 27.4036 25.6179 28.9364C25.0119 30.5228 24.7267 31.717 24.7267 32.6082C24.7267 33.2855 24.905 33.8559 25.2436 34.2302C25.5823 34.6936 26.0635 34.9075 26.6517 34.9075C27.7212 34.9075 28.8263 34.3549 29.8957 33.2855C30.6443 32.5012 31.3216 31.6457 31.9989 30.8436Z" fill="#124D73"/>
<path d="M29.9492 16.0319C29.7709 15.6932 29.5214 15.3902 29.2184 15.0872C28.7906 14.7485 28.452 14.6238 28.1133 14.6238C27.3825 14.6238 27.0082 14.8376 27.0082 15.2298C27.0082 15.7467 27.4716 15.9962 28.5054 15.9962C29.2719 15.9962 29.7888 15.9962 29.9492 16.0319ZM21.055 26.2272C22.2136 26.2272 23.6573 25.7103 25.3684 24.6943C26.7409 23.8744 28.1133 22.8941 29.4323 21.6999C30.5908 20.6304 31.2682 19.864 31.4464 19.4362C31.3216 18.7589 30.4126 18.4024 28.755 18.4024C26.7052 18.4024 25.6714 17.6717 25.6714 16.2992C25.6714 15.2298 26.0101 14.2851 26.7052 13.4296C27.3469 12.6988 28.0242 12.3245 28.7193 12.3245C29.5392 12.3245 30.2522 12.8414 30.983 13.8573C31.589 14.7129 32.0168 15.6932 32.1772 16.7626C32.3019 17.2261 32.3554 17.7073 32.3554 18.1707C32.3554 19.8818 31.892 21.2008 31.0364 22.199C29.8779 23.5179 28.5589 24.73 27.0973 25.8707C24.6555 27.8313 22.57 28.8295 20.8946 28.8295C19.433 28.8295 18.3279 28.2769 17.5615 27.2075C16.8842 26.2628 16.5277 25.1043 16.5277 23.6962C16.5277 21.8959 16.9198 20.0244 17.6328 18.1351C17.8467 17.7073 17.9358 17.5291 18.0249 17.5291C18.0606 17.5291 18.0606 17.5647 18.0606 17.6538C18.0606 17.7786 18.0249 17.9568 17.9715 18.2599C17.4189 20.1492 17.1515 21.5573 17.1515 22.502C17.1515 23.4466 17.3654 24.2131 17.7932 24.8191C18.4884 25.7459 19.5578 26.2272 21.055 26.2272Z" fill="#124D73"/>
<path d="M21.1441 14.4634C21.1441 14.2851 20.752 13.9999 19.9499 13.6435C19.13 13.3048 18.5418 13.18 18.1497 13.2513C17.9715 13.287 17.9358 13.3405 17.9715 13.3761C18.0962 13.7682 18.3992 14.4099 18.8627 15.3011C20.0747 14.9268 20.8055 14.6773 21.1441 14.4634ZM11.0379 19.6323C13.4263 17.743 15.7078 16.4597 17.918 15.7467C17.7397 15.4972 17.5259 15.0159 17.2407 14.4277C17.0624 14.1247 17.0268 13.7861 17.0268 13.3583C17.0268 12.681 17.205 12.1106 17.5437 11.6472C17.9358 11.0412 18.524 10.7916 19.3439 10.7916C19.9856 10.7916 20.8768 11.1838 22.0353 11.9858C23.283 12.8414 23.9247 13.5187 23.9247 14.0891C23.7108 14.8198 23.4969 15.4972 23.2474 16.1388C22.267 16.4418 21.0728 16.8161 19.6469 17.2439C19.6826 18.0638 19.6113 18.4916 19.3974 18.4916C19.2726 18.4916 19.0944 18.1886 18.934 17.5469C18.2923 17.7965 17.4011 18.1886 16.2425 18.7055C14.5671 19.4719 13.2838 20.2027 12.4282 20.88C11.1449 21.9138 9.8259 23.1437 8.45345 24.6409C6.92059 26.3163 6.06503 27.2432 5.79767 27.4571C4.94212 28.2235 4.12222 28.6156 3.35579 28.6156C2.46459 28.6156 1.68033 28.1878 1.03867 27.4214C0.361357 26.6015 0.0583496 25.6212 0.0583496 24.4626C0.0583496 22.8406 0.700013 20.7374 2.01899 18.1708C2.14376 17.9212 2.26852 17.743 2.35764 17.743C2.39329 17.743 2.39329 17.7786 2.39329 17.8678C2.39329 18.1173 2.09029 19.0263 1.53774 20.5592C0.931726 22.092 0.682189 23.3397 0.682189 24.2309C0.682189 24.9082 0.806956 25.4786 1.14561 25.9064C1.48427 26.3342 1.96552 26.548 2.55371 26.548C3.40926 26.548 4.30046 26.1203 5.2986 25.3004C5.85115 24.8726 6.76017 23.9279 7.99003 22.5198C9.25553 21.2187 10.2358 20.2383 11.0379 19.6323Z" fill="#124D73"/>
<path d="M39.3247 14.7485C39.3247 15.0872 39.2356 15.4793 39.0751 15.818C38.8613 16.2814 38.6117 16.5488 38.3087 16.5488C37.7918 16.5488 37.4532 16.2101 37.2393 15.515C36.9897 16.3705 36.562 16.8339 35.9203 16.8339C35.7064 16.8339 35.4925 16.7092 35.3143 16.4418C35.1004 16.1923 35.0113 15.8002 35.0113 15.3724V14.2851C35.0113 14.196 34.9221 14.1603 34.833 14.1069C34.7083 14.0712 34.6548 13.9821 34.6548 13.8573C34.6548 13.6078 34.7439 13.3939 34.9043 13.18C35.0826 12.9661 35.2073 12.877 35.2964 12.877C35.4212 12.877 35.5103 13.0909 35.5103 13.5543C35.5103 13.8039 35.4747 14.0178 35.4747 14.196C35.439 14.3742 35.439 14.499 35.439 14.6238C35.439 14.8733 35.4747 15.1407 35.5638 15.3546C35.6886 15.6041 35.8668 15.7823 36.0272 15.7823C36.2768 15.7823 36.4907 15.6576 36.7045 15.4437C36.9184 15.2298 37.0432 14.9802 37.0432 14.6772C37.0432 14.499 36.9541 14.2495 36.865 13.8217C36.7402 13.4296 36.6867 13.18 36.6867 13.0909C36.6867 13.0018 36.7224 12.877 36.8115 12.6631C36.9006 12.4849 36.9897 12.4136 37.0254 12.4136C37.1145 12.4136 37.2036 12.6631 37.3284 13.18C37.4532 13.7326 37.5423 14.1247 37.5423 14.3742C37.5423 15.105 37.7918 15.4793 38.3622 15.4793C38.6117 15.4793 38.7899 15.3546 38.8256 15.0872C38.3622 14.2316 38.0948 13.59 38.0948 13.1266C38.0948 12.877 38.1305 12.6631 38.3087 12.4492C38.3978 12.3245 38.4335 12.2354 38.4869 12.2354C38.5226 12.2354 38.5761 12.3245 38.5761 12.4849C38.6117 12.6988 38.6652 12.9127 38.7008 13.0909C38.7008 13.0909 38.8256 13.3939 39.0395 13.9821C39.2356 14.3208 39.3247 14.5881 39.3247 14.7485Z" fill="#124D73"/>
<path d="M36.366 2.98472C36.4551 2.73518 36.4551 2.46782 36.4017 2.21828C36.366 1.96875 36.2234 1.82616 36.0095 1.82616C35.9204 1.82616 35.7956 1.8618 35.6174 1.95092C35.4392 2.04004 35.3679 2.12916 35.3679 2.20046C35.3857 2.43217 35.7243 2.69953 36.366 2.98472ZM37.3107 4.57105C36.8829 5.60484 36.669 6.40692 36.669 7.01294C36.669 7.74372 36.8473 8.11802 37.2216 8.11802C37.4711 8.11802 37.7385 7.81502 37.988 7.29812C38.0236 7.26247 38.0236 7.209 38.0771 7.17335C38.1128 7.17335 38.1128 7.17335 38.1128 7.209C38.1128 7.209 38.1128 7.24465 38.1128 7.33377C37.8989 8.6171 37.5067 9.25876 36.9542 9.25876C36.4017 9.25876 36.1343 8.79533 36.1343 7.85066C36.1343 7.38724 36.2591 6.78123 36.473 6.01479C36.7225 5.24836 36.8651 4.85623 36.8651 4.82059C36.8651 4.73147 36.6868 4.57105 36.3125 4.35716C35.8491 4.99883 35.2787 5.55137 34.6014 6.06826C33.7815 6.67428 33.0686 7.10206 32.4269 7.38724C32.2487 7.42289 31.4822 7.7259 30.1098 8.24279C29.8959 8.33191 29.7177 8.36756 29.682 8.36756C29.6464 8.36756 29.6464 8.36756 29.6464 8.33191C29.6464 8.29627 29.7355 8.20714 29.985 8.0289C31.0188 7.42289 32.0348 6.78123 33.1042 6.19303C34.3519 5.4266 35.2431 4.73147 35.8491 4.0898C35.0292 3.66203 34.6549 3.23425 34.6549 2.77083C34.6549 2.21828 34.9044 1.70139 35.4213 1.23796C35.9382 0.810189 36.366 0.631948 36.7047 0.77454C37.0077 0.86366 37.1324 1.16667 37.1324 1.66574C37.1324 2.12916 37.0433 2.64606 36.8294 3.1986C37.2572 3.44814 37.4711 3.7155 37.4711 3.96504C37.4889 4.10763 37.3998 4.32151 37.3107 4.57105Z" fill="#124D73"/>
<path d="M17.1251 4.26864C17.1251 4.47097 16.9276 4.83518 16.493 5.44219C15.9794 6.13014 15.5448 6.65622 15.1103 6.97996C14.8337 7.18229 13.9251 7.50603 12.3448 7.91071C12.0683 7.95117 11.9103 7.99164 11.9103 7.99164C11.9498 7.95118 12.0288 7.87024 12.2263 7.74884C12.4238 7.58697 12.9769 7.26323 13.9251 6.77762C14.7942 6.29201 15.3078 5.96827 15.4263 5.84687C15.4658 5.8064 15.4658 5.76593 15.4658 5.76593C15.4658 5.5636 14.6757 5.48266 13.135 5.48266C13.135 5.48266 12.8584 5.48266 12.2658 5.52313C11.9498 5.5636 11.7917 5.52313 11.7917 5.48266C11.7917 5.44219 11.8313 5.36126 11.9103 5.23986L12.4634 4.30911C12.6214 4.02584 12.9374 3.86396 13.372 3.78303C13.53 3.74256 13.8856 3.74256 14.4387 3.74256C16.2559 3.66163 17.1251 3.86396 17.1251 4.26864Z" fill="#124D73"/>
</svg>
