<svg width="49" height="49" viewBox="0 0 49 49" fill="none" xmlns="http://www.w3.org/2000/svg">
<path d="M2.91901 40.0925C2.16178 40.0925 1.48868 39.756 0.94179 39.0829C0.35283 38.3677 0.0583496 37.5263 0.0583496 36.5167C0.0583496 35.1284 0.64731 33.2774 1.78316 31.0478C1.90937 30.7954 1.9935 30.7112 2.07764 30.7112C2.11971 30.7112 2.11971 30.7533 2.11971 30.7954C2.11971 31.0057 1.8673 31.805 1.36248 33.1512C0.857653 34.4974 0.605241 35.5491 0.605241 36.3063C0.605241 36.8953 0.731446 37.4001 1.02593 37.7367C1.32041 38.1153 1.74109 38.3256 2.24591 38.3256C3.04522 38.3256 4.05486 37.6946 5.27485 36.4746C6.2845 35.2967 7.29414 34.1608 8.26172 32.9409C10.8279 30.0381 13.0575 28.6078 14.9927 28.6078V30.8795C13.352 30.8795 11.501 31.9312 9.43964 34.0346C8.80861 34.7077 7.96724 35.6753 6.95759 36.9374C6.03209 38.0311 5.40106 38.7884 4.9383 39.2091C4.26521 39.798 3.59211 40.0925 2.91901 40.0925Z" fill="#124D73"/>
<path d="M14.0254 15.9451C14.1096 15.7348 14.1096 15.5244 14.0675 15.3141C14.0254 15.0617 13.8992 14.9355 13.731 14.9355C13.6468 14.9355 13.5627 14.9775 13.3944 15.0617C13.2682 15.1458 13.1841 15.2299 13.1841 15.272C13.1841 15.4824 13.4365 15.6927 14.0254 15.9451ZM13.6047 16.9548C12.8896 16.5761 12.553 16.1975 12.553 15.8189C12.553 15.3561 12.7634 14.8934 13.2261 14.4727C13.6889 14.052 14.0254 13.9258 14.3199 14.01C14.5723 14.0941 14.6985 14.3886 14.6985 14.8093C14.6985 15.2299 14.6144 15.6506 14.4461 16.1555C14.7827 16.3658 14.993 16.5341 15.1192 16.7023C15.1192 16.8706 14.9509 17.2072 14.6565 17.6699C14.5723 17.5437 14.362 17.3754 14.0254 17.1651C13.6468 17.712 13.142 18.2168 12.553 18.6375C11.8799 19.1423 11.2489 19.563 10.6599 19.8154C10.5337 19.8575 9.86064 20.1099 8.64066 20.5727C8.43031 20.6568 8.30411 20.6989 8.26204 20.6989C8.21997 20.6989 8.21997 20.6989 8.21997 20.6989C8.21997 20.6568 8.34618 20.5727 8.55652 20.4044C9.48203 19.8575 10.3655 19.3527 11.2489 18.8058C12.2586 18.0906 13.0579 17.5016 13.6047 16.9548Z" fill="#124D73"/>
<path d="M14.6564 24.0223L15.2453 22.8443C15.2874 22.7602 15.3295 22.7181 15.3715 22.7181C15.4557 22.7181 15.7922 22.9285 16.3391 23.3071C16.9281 23.6857 17.2225 23.9381 17.2225 24.0223C17.2225 24.2747 16.9701 24.8216 16.4653 25.6209C16.4232 25.705 16.3391 25.7471 16.255 25.705C15.7501 25.3264 15.2033 24.9478 14.5722 24.5271C14.3619 24.9898 14.1515 25.4105 13.9412 25.7471C13.8991 25.8733 13.815 25.8733 13.7729 25.8312C13.226 25.4105 12.6371 24.9898 12.006 24.6112C11.964 24.6112 11.964 24.5692 12.006 24.485L12.7633 23.0126C12.8053 22.9285 12.8474 22.8864 12.8895 22.8864C12.9315 22.8864 13.226 23.0547 13.7309 23.3912C14.2357 23.6436 14.5302 23.8961 14.6564 24.0223Z" fill="#124D73"/>
<path d="M12.6367 21.7086C12.5946 21.7086 12.5946 21.6665 12.6367 21.5824L13.3518 20.11C13.3939 20.0258 13.436 19.9838 13.478 19.9838C13.5622 19.9838 13.8987 20.1941 14.4456 20.5727C15.0346 20.9513 15.329 21.2038 15.329 21.2879C15.329 21.5403 15.0766 22.0872 14.5718 22.8865C14.5297 22.9706 14.4456 23.0127 14.4035 22.9286C13.8146 22.5079 13.2677 22.0872 12.6367 21.7086Z" fill="#124D73"/>
<path d="M17.6008 30.4167C17.6008 31.0057 17.5166 31.5525 17.3063 32.0153C17.2221 32.1836 17.1801 32.2677 17.138 32.2677C17.0959 32.2677 17.0118 32.1836 16.9277 32.0153C16.507 31.2581 15.8339 30.8374 14.9504 30.8374V28.5657C15.7918 28.5657 16.4649 28.776 16.9697 29.2388C17.3904 29.6174 17.6008 29.996 17.6008 30.4167Z" fill="#124D73"/>
<path d="M19.4939 33.2773C19.6622 34.329 20.0408 35.0441 20.5456 35.3807C20.798 35.549 21.2187 35.6331 21.7656 35.6331V37.9048C20.9242 37.9048 20.2932 37.7365 19.8725 37.4C19.2415 36.9372 18.8208 36.0117 18.5684 34.7076C18.4422 33.9083 18.316 31.5104 18.1898 27.6401C18.0636 23.3491 17.9374 20.7408 17.8532 19.7732C17.685 18.2167 17.3905 16.7443 16.9277 15.3561C16.9277 14.9774 17.096 14.4305 17.3905 13.7154C17.4326 13.5471 17.5167 13.4209 17.5588 13.4209C17.6008 13.4209 17.685 13.505 17.727 13.6312C18.1898 14.5988 18.5684 16.1974 18.8208 18.4271C18.9891 19.8153 19.1153 22.6339 19.1994 26.7987C19.3256 30.7531 19.4098 32.8986 19.4939 33.2773Z" fill="#124D73"/>
<path d="M22.1442 15.7347C24.2477 14.9775 26.4773 14.1782 28.8752 13.2948C29.0014 13.2527 29.0856 13.2527 29.0856 13.2527C29.1276 13.2948 29.0856 13.3368 29.0856 13.463C28.9593 13.7996 28.8331 13.9679 28.749 14.052C26.7718 14.7672 24.458 15.6927 21.7656 16.7864C21.8077 16.4499 21.9339 16.1133 22.1442 15.7347Z" fill="#124D73"/>
<path d="M27.6134 32.6464C27.2768 31.6788 26.2251 30.4588 24.5424 29.1126C22.6072 27.6402 20.7141 26.1257 18.779 24.6113C18.7369 24.5692 18.6948 24.443 18.6948 24.1485C18.6948 23.6858 18.779 23.0968 18.9893 22.4237C19.1576 21.7085 19.3679 21.2458 19.5783 21.0775C20.8824 19.8996 23.6168 18.3851 27.8658 16.45C32.1568 14.5148 34.9754 13.5472 36.3636 13.5472C36.7843 13.5472 37.0367 13.6314 37.205 13.7997C37.3733 13.9679 37.4153 14.2624 37.4153 14.641C37.4153 15.5245 36.8684 16.6603 35.7747 18.0065C35.354 18.4693 34.9754 18.932 34.5547 19.3948C33.9236 20.152 33.4609 20.783 33.2505 21.2458C33.0823 21.5823 32.9981 21.7506 32.9561 21.7506C32.914 21.7506 32.914 21.5403 32.9981 21.0775C33.0402 20.8251 33.2085 20.4465 33.545 19.8575C33.8395 19.3527 34.0078 18.9741 34.1761 18.8479C35.396 17.4596 36.1112 16.5762 36.3636 16.1134C36.3636 16.0714 36.3636 16.0293 36.3636 15.9872C36.3636 15.7348 36.0271 15.5665 35.354 15.5665C34.2602 15.5665 31.694 16.492 27.6554 18.3431C23.5748 20.1941 20.7983 21.7506 19.3259 22.9706C19.2417 23.0547 19.2417 23.0968 19.3679 23.1809C20.4617 23.6858 21.5134 24.2327 22.5231 24.8216C25.0051 26.2099 27.1927 27.7243 29.0858 29.2809C30.3057 30.2905 31.063 30.8795 31.4416 31.1319C32.3671 31.7209 33.2926 32.0574 34.134 32.0574V34.3291C33.2926 34.3291 32.5354 34.1608 31.8202 33.7401C31.3995 33.4877 30.8106 33.025 30.0113 32.3098C29.1278 31.5105 28.4127 30.8795 27.7816 30.4588C27.6554 30.3747 27.5713 30.2905 27.5292 30.2905C27.4872 30.2905 27.5292 30.3747 27.6134 30.6271C27.9499 31.4264 28.1182 31.9733 28.1182 32.3519C28.1182 33.9505 27.3189 35.2967 25.6782 36.4325C24.2899 37.4001 22.9017 37.8629 21.5134 37.8629V35.5912C22.5651 35.5912 23.6589 35.3808 24.7106 34.9181C25.8465 34.4553 26.7299 33.8243 27.3609 33.025C27.6134 32.8988 27.6554 32.7726 27.6134 32.6464Z" fill="#124D73"/>
<path d="M35.3537 19.4368C37.4571 18.6795 39.6868 17.8802 42.0847 16.9968C42.2109 16.9547 42.295 16.9547 42.295 16.9547C42.3371 16.9968 42.295 17.0388 42.295 17.1651C42.1688 17.5016 42.0426 17.6699 41.9585 17.754C39.9813 18.4692 37.6675 19.3947 34.9751 20.4885C35.0592 20.1519 35.1854 19.8154 35.3537 19.4368Z" fill="#124D73"/>
<path d="M40.4441 22.2975C40.4441 22.592 40.402 22.8865 40.2758 23.223C40.1075 23.6437 39.8551 23.812 39.6027 23.812C39.182 23.812 38.8455 23.5175 38.6772 22.9286C38.4669 23.6858 38.0883 24.0644 37.5414 24.0644C37.331 24.0644 37.1628 23.9803 36.9945 23.7699C36.8262 23.5175 36.7421 23.181 36.7421 22.8024V21.8768C36.7421 21.7927 36.7 21.7506 36.5738 21.7086C36.4476 21.6665 36.4055 21.6244 36.4055 21.4562C36.4055 21.2458 36.4897 21.0355 36.7 20.8672C36.8683 20.6989 36.9945 20.6148 37.0365 20.6148C37.1628 20.6148 37.2048 20.8251 37.2048 21.2038C37.2048 21.4141 37.2048 21.6244 37.1628 21.7506C37.1207 21.8769 37.1207 22.0031 37.1207 22.1293C37.1207 22.3817 37.1628 22.592 37.2469 22.7603C37.331 23.0127 37.4572 23.0968 37.6255 23.0968C37.8358 23.0968 38.0041 23.0127 38.2145 22.8024C38.3827 22.6341 38.4669 22.3817 38.4669 22.1713C38.4669 22.0451 38.4248 21.7927 38.3407 21.4141C38.2565 21.0775 38.2145 20.8672 38.2145 20.741C38.2145 20.6569 38.2565 20.5307 38.3407 20.3624C38.4248 20.1941 38.4669 20.11 38.5089 20.11C38.5931 20.11 38.6772 20.3203 38.7614 20.8251C38.8455 21.2879 38.9296 21.6244 38.9296 21.8348C38.9296 22.4658 39.182 22.8024 39.6869 22.8024C39.8972 22.8024 40.0234 22.7182 40.1076 22.4658C39.6869 21.7506 39.4765 21.1617 39.4765 20.741C39.4765 20.5307 39.5186 20.3203 39.6448 20.152C39.7289 20.0258 39.771 19.9838 39.8131 19.9838C39.8551 19.9838 39.8551 20.0679 39.8972 20.2362C39.8972 20.4465 39.9393 20.6148 39.9813 20.741C39.9813 20.741 40.1076 21.0355 40.3179 21.5403C40.36 21.8769 40.4441 22.1293 40.4441 22.2975Z" fill="#124D73"/>
<path d="M38.8033 25.7891L39.3923 24.6112C39.4344 24.5271 39.4764 24.485 39.5185 24.485C39.6026 24.485 39.9392 24.6953 40.4861 25.0739C41.075 25.4946 41.3695 25.705 41.3695 25.747C41.3695 25.9995 41.1171 26.5463 40.6123 27.3456C40.5702 27.4298 40.4861 27.4719 40.4019 27.4298C39.8971 27.0512 39.3502 26.6725 38.7192 26.2519C38.5088 26.7146 38.2985 27.1353 38.0882 27.4719C38.0461 27.556 37.962 27.5981 37.9199 27.556C37.373 27.0932 36.784 26.7146 36.153 26.336C36.1109 26.336 36.1109 26.2939 36.153 26.2098L36.9102 24.7374C36.9523 24.6533 36.9944 24.6112 37.0365 24.6112C37.0785 24.6112 37.373 24.7795 37.8778 25.0739C38.3406 25.3684 38.6351 25.6208 38.8033 25.7891Z" fill="#124D73"/>
<path d="M41.2014 33.7401C39.8552 33.7401 39.14 32.9408 39.098 31.3842C39.098 31.3001 39.0559 31.258 38.9718 31.258C38.8455 31.258 38.7193 31.3422 38.5931 31.4684C37.8359 32.3518 37.3311 32.8987 37.1207 33.067C36.1532 33.9083 35.1435 34.287 34.0918 34.287V32.0152C35.1856 32.0152 36.1532 31.7208 36.9945 31.1318C37.3311 30.9215 38.0883 30.2063 39.2662 29.0284C39.3924 28.9022 39.5186 28.8601 39.6448 28.8601C39.7711 28.8601 39.8552 28.9022 39.8552 29.0705C39.8552 29.1125 39.8552 29.2387 39.8131 29.407C39.7711 29.5332 39.7711 29.6594 39.7711 29.7856C39.7711 30.2063 39.8552 30.5849 40.0655 30.9215C40.3179 31.3001 40.6545 31.5104 41.1593 31.5104V33.7401H41.2014Z" fill="#124D73"/>
<path d="M44.6511 27.0512C44.6511 29.2387 44.2304 30.9635 43.4732 32.2256C42.8001 33.2773 42.0428 33.8242 41.1173 33.8242V31.5525C41.8325 31.5525 42.5476 31.258 43.2207 30.7111C43.4311 30.5429 43.5152 29.9539 43.5152 28.9022C43.5152 28.2712 43.3469 25.705 43.0525 21.2036C42.7159 16.7023 42.5897 14.094 42.5897 13.2947C42.5897 12.5796 42.4635 11.9486 42.2532 11.4858C42.2532 11.1913 42.4635 10.5603 42.8842 9.59271C42.9263 9.50858 42.9683 9.42444 43.0104 9.42444C43.0525 9.42444 43.0945 9.46651 43.1787 9.59271C43.3049 9.84512 43.5994 10.5603 44.02 11.7382C44.4828 12.9582 44.7773 13.7154 44.8193 13.9678C44.8614 14.1782 44.9035 14.3465 44.9035 14.4306C44.9035 14.7671 44.5669 14.5989 43.9359 13.8416C43.8518 13.7154 43.8097 13.7575 43.8097 13.9678C43.8097 14.0099 43.9359 16.0292 44.2304 19.9416C44.5249 23.9381 44.6511 26.2939 44.6511 27.0512Z" fill="#124D73"/>
<path d="M45.7445 16.9968C45.7445 16.2816 45.6183 15.6506 45.408 15.1878C45.408 14.9354 45.6183 14.3044 46.039 13.2947C46.0811 13.1685 46.1652 13.1265 46.1652 13.1265C46.2073 13.1265 46.2493 13.1685 46.3335 13.2947C46.4597 13.5471 46.7542 14.2623 47.1748 15.4402C47.6376 16.6602 47.9321 17.4175 47.9741 17.6699C48.0162 17.8802 48.0583 18.0485 48.0583 18.1747C48.0583 18.5112 47.7217 18.3009 47.0907 17.5857C47.0066 17.4595 46.9645 17.5437 46.9645 17.7119C46.9645 17.754 47.1328 20.1098 47.4693 24.6953C47.8059 29.2808 47.9741 31.889 47.9741 32.4359C47.9741 34.2028 47.7217 35.7593 47.1748 37.1055C47.0486 37.358 46.9645 37.5683 46.8804 37.6945C46.7542 37.9048 46.7121 37.9048 46.7121 37.7786C46.67 37.6524 46.7121 37.358 46.7121 36.8952C46.7962 36.3062 46.8383 35.5911 46.8383 34.7497C46.8383 34.0345 46.6279 31.0477 46.2914 25.747C45.9128 20.5726 45.7445 17.6278 45.7445 16.9968Z" fill="#124D73"/>
</svg>
