<svg width="49" height="49" viewBox="0 0 49 49" fill="none" xmlns="http://www.w3.org/2000/svg">
<path d="M8.40596 16.3932L8.97884 15.2474C9.01976 15.1656 9.06068 15.1246 9.10161 15.1246C9.18345 15.1246 9.51081 15.3292 10.0837 15.6975C10.6566 16.1067 10.943 16.3113 10.943 16.3932C10.943 16.6387 10.6975 17.1707 10.2065 17.9891C10.1655 18.0709 10.0837 18.1118 10.0019 18.0709C9.51081 17.7026 8.93792 17.3343 8.32411 16.9251C8.11951 17.4162 7.91491 17.7845 7.71031 18.1118C7.66938 18.1937 7.58754 18.2346 7.54662 18.1937C6.97374 17.7436 6.40085 17.3753 5.78704 16.9661C5.74612 16.9661 5.74612 16.9251 5.78704 16.8433L6.52361 15.4111C6.56453 15.3292 6.60545 15.2883 6.64637 15.2883C6.68729 15.2883 6.97374 15.452 7.46478 15.7794C7.95583 16.0249 8.24227 16.2704 8.40596 16.3932Z" fill="#124D73"/>
<path d="M14.2169 27.7282C13.4394 27.7282 12.9074 27.6873 12.58 27.6055C11.8435 27.4009 11.2706 26.9098 10.7795 26.2142C10.4931 25.7231 10.2067 25.1912 9.87929 24.7001C9.63376 24.2909 9.38824 24.0863 9.1018 24.0863C8.28338 24.0863 7.38313 24.8229 6.44196 26.2142C6.27828 26.4597 5.99183 27.1144 5.58263 28.1784C5.17342 29.2423 4.76422 30.0198 4.47777 30.5108C3.98673 31.2474 3.49568 31.5748 2.92279 31.5748C2.10438 31.5748 1.40873 30.92 0.835841 29.6515C0.344794 28.5466 0.0583496 27.3599 0.0583496 26.1323C0.0583496 24.6592 0.181112 23.4725 0.508477 22.5722C0.631239 22.2858 0.713079 22.1221 0.754 22.1221C0.835841 22.1221 0.876762 22.3267 0.835841 22.7359C0.713079 23.6362 0.672158 24.4546 0.672158 25.1093C0.672158 28.2193 1.40873 29.7743 2.84095 29.7743C3.45476 29.7743 3.98672 29.3241 4.43685 28.4239C4.9279 27.3599 5.41894 26.2551 5.95091 25.1502C6.40104 24.25 6.93301 23.4725 7.54681 22.8587C8.24246 22.2039 8.81535 21.8766 9.34732 21.8766C9.75652 21.8766 10.1248 22.1221 10.4522 22.6541C10.7386 23.1042 11.0251 23.5543 11.3115 24.0454C11.7207 24.6183 12.1299 24.9865 12.58 25.1912C12.9893 25.3958 13.5621 25.5185 14.2169 25.5185V27.7282Z" fill="#124D73"/>
<path d="M13.071 14.0197C15.1171 13.2831 17.3268 12.4647 19.6593 11.6054C19.782 11.5645 19.8639 11.5645 19.8639 11.5645C19.9048 11.6054 19.8639 11.6463 19.8639 11.7691C19.7411 12.0964 19.6183 12.301 19.5365 12.3419C17.5723 13.0376 15.3217 13.9378 12.7028 15.0018C12.7846 14.7563 12.9074 14.388 13.071 14.0197Z" fill="#124D73"/>
<path d="M23.9151 22.8177C23.7514 23.3087 23.5059 23.8816 23.1376 24.4954C21.8691 25.5594 20.846 26.3369 20.0276 26.787C18.5954 27.5645 17.2041 27.9328 15.7719 27.9328C15.0353 27.9328 14.5034 27.8918 14.1351 27.7282L13.6849 25.4775C12.8256 24.4136 12.3755 23.3497 12.3755 22.3266C12.3755 20.7307 12.8665 19.5031 13.8486 18.6438C14.667 17.9072 15.731 17.5389 16.9586 17.5389C18.5954 17.5389 20.0686 18.0709 21.3371 19.1348C21.5417 19.2985 21.6645 19.4622 21.6645 19.544C21.6645 19.585 21.6235 19.6259 21.5417 19.6259C21.4599 19.6259 21.2962 19.585 21.0506 19.5031C20.1913 19.2167 19.4138 19.053 18.7182 19.053C17.7361 19.053 16.754 19.1758 15.6901 19.5031C14.667 19.7896 13.8896 20.1579 13.4394 20.5671C13.4394 21.631 13.8077 22.654 14.5443 23.7179C15.4445 24.9865 16.5903 25.6003 18.0225 25.6003C18.7591 25.6003 19.6593 25.2729 20.846 24.5773C21.7872 24.0453 22.6466 23.4315 23.465 22.7359C23.6286 22.6131 23.7514 22.5313 23.7923 22.5313C23.956 22.5313 23.9969 22.6131 23.9151 22.8177Z" fill="#124D73"/>
<path d="M14.0531 42.5414C16.0991 41.8048 18.3088 40.9864 20.6413 40.1271C20.7641 40.0862 20.8459 40.0862 20.8459 40.0862C20.8868 40.1271 20.8459 40.168 20.8459 40.2908C20.7232 40.6181 20.6004 40.8227 20.5185 40.8637C18.5544 41.5593 16.3037 42.4596 13.6848 43.5235C13.7257 43.2371 13.8485 42.8688 14.0531 42.5414Z" fill="#124D73"/>
<path d="M15.6083 38.6131C14.8717 38.6131 14.217 38.2857 13.6441 37.631C13.0712 36.9353 12.7848 36.076 12.7848 35.0939C12.7848 33.7026 13.3577 31.9021 14.4625 29.6924C14.5853 29.4878 14.6671 29.365 14.749 29.365C14.7899 29.365 14.7899 29.4059 14.7899 29.4469C14.7899 29.6924 14.5444 30.4699 14.0533 31.7793C13.5623 33.0888 13.3168 34.1527 13.3168 34.9302C13.3168 35.5031 13.4395 35.9532 13.726 36.3215C14.0124 36.6898 14.4216 36.8944 14.9536 36.8944C15.772 36.8944 16.7132 36.4034 17.7771 35.3804C17.8999 35.2985 18.841 34.2346 20.6415 32.2704C23.2605 29.4469 25.6338 28.0146 27.6799 28.0146C28.2937 28.0146 28.7847 28.1783 29.2349 28.5466C29.685 28.9149 29.8896 29.3241 29.8896 29.8152C29.8896 30.429 29.7668 30.92 29.5622 31.4111C29.5213 31.5747 29.4395 31.6566 29.4395 31.6566C29.3985 31.6566 29.3167 31.5747 29.2349 31.4111C28.8257 30.6336 28.1709 30.2653 27.2707 30.2653C25.6748 30.2653 23.8743 31.2883 21.8282 33.3752C20.6825 34.6438 19.5367 35.8714 18.3909 37.099C17.4088 38.122 16.4676 38.6131 15.6083 38.6131Z" fill="#124D73"/>
<path d="M31.9356 32.3522C32.0993 33.3753 32.4676 34.0709 32.9586 34.3983C33.2041 34.562 33.6134 34.6438 34.1862 34.6438V36.8944C33.3678 36.8944 32.754 36.7307 32.3039 36.4034C31.6901 35.9533 31.24 35.053 31.0354 33.7845C30.9126 32.9661 30.7898 30.6745 30.6671 26.828C30.5443 22.6131 30.4215 20.0352 30.3397 19.094C30.176 17.5799 29.8896 16.1068 29.4395 14.7564C29.4395 14.3881 29.6031 13.8561 29.8896 13.1196C29.9305 12.9559 30.0123 12.8331 30.0533 12.8331C30.0942 12.8331 30.176 12.915 30.2169 13.0377C30.708 13.9789 31.0354 15.5339 31.2809 17.7436C31.4446 19.1349 31.5673 21.8766 31.6492 25.9686C31.8128 29.897 31.8947 32.0249 31.9356 32.3522Z" fill="#124D73"/>
<path d="M34.7999 18.4391C36.846 17.7026 39.0557 16.8841 41.3881 16.0248C41.5109 15.9839 41.5927 15.9839 41.5927 15.9839C41.6337 16.0248 41.5927 16.0657 41.5927 16.1885C41.47 16.5159 41.3472 16.7205 41.2654 16.7614C39.3012 17.457 37.0506 18.3573 34.4316 19.4212C34.5135 19.1348 34.6362 18.8074 34.7999 18.4391Z" fill="#124D73"/>
<path d="M38.0328 24.9455L38.6057 23.7998C38.6466 23.7179 38.6875 23.677 38.7284 23.677C38.8103 23.677 39.1376 23.8816 39.7105 24.2499C40.2834 24.6591 40.5699 24.8637 40.5699 24.9455C40.5699 25.1911 40.3243 25.723 39.8333 26.5414C39.7924 26.6233 39.7105 26.6642 39.6287 26.6233C39.1376 26.255 38.5648 25.8867 37.9509 25.4775C37.7463 25.9686 37.5417 26.3368 37.3371 26.6642C37.2962 26.746 37.2144 26.787 37.1735 26.746C36.6006 26.2959 36.0277 25.9276 35.4139 25.5184C35.3729 25.5184 35.3729 25.4775 35.4139 25.3957L36.1504 23.9634C36.1914 23.8816 36.2323 23.8407 36.2732 23.8407C36.3141 23.8407 36.6006 24.0044 37.0916 24.3317C37.6236 24.5773 37.91 24.7819 38.0328 24.9455Z" fill="#124D73"/>
<path d="M41.0201 36.5261C39.1377 36.5261 37.7465 36.2806 36.8871 35.7486C35.8232 36.5261 34.882 36.9353 34.0636 36.9353V34.6847C34.6365 34.6847 35.1685 34.5619 35.6595 34.3573C35.4549 33.9481 35.3321 33.3343 35.3321 32.6386C35.3321 31.6156 35.7004 30.5517 36.4779 29.4878C37.2145 28.5466 37.8283 28.0555 38.3193 28.0555C38.8104 28.0555 39.1787 28.4238 39.4242 29.1195C39.6288 29.6514 39.7106 30.2243 39.7106 30.8381C39.7106 32.2704 39.3833 33.3752 38.7695 34.1936C39.1787 34.3164 39.9152 34.3982 41.0201 34.3982V36.5261ZM38.8513 32.2294C38.8513 31.9021 38.7285 31.4929 38.5239 30.9609C38.2784 30.388 38.0738 30.1016 37.8692 30.1016C37.6237 30.1016 37.2963 30.3471 36.8053 30.8791C36.3142 31.3701 36.0278 31.8202 35.8641 32.2294C35.905 32.434 36.1096 32.7205 36.3552 32.966C36.6416 33.2525 36.928 33.4161 37.2145 33.5389C38.0329 33.1297 38.6058 32.6796 38.8513 32.2294Z" fill="#124D73"/>
<path d="M43.1065 6.53132C43.1065 6.695 42.9019 7.06328 42.4927 7.59525C42.0425 8.24998 41.5924 8.70011 41.1832 8.98655C40.9377 9.15023 40.0784 9.4776 38.6052 9.84588C38.3188 9.8868 38.196 9.92772 38.196 9.92772C38.2369 9.8868 38.3188 9.84588 38.4824 9.6822C38.6461 9.51852 39.1781 9.23207 40.0783 8.78195C40.8968 8.33182 41.3469 8.04538 41.5106 7.92262C41.5515 7.88169 41.5515 7.88169 41.5515 7.84077C41.5515 7.67709 40.8149 7.55433 39.3418 7.55433C39.3418 7.55433 39.0553 7.55433 38.5234 7.55433C38.2369 7.55433 38.0732 7.55433 38.0732 7.51341C38.0732 7.47249 38.1142 7.39065 38.196 7.26789L38.728 6.40855C38.8917 6.16303 39.1781 5.99935 39.5873 5.91751C39.7101 5.87659 40.0374 5.87659 40.5694 5.87659C42.2471 5.95843 43.1065 6.16303 43.1065 6.53132Z" fill="#124D73"/>
<path d="M44.4983 29.8561C44.4983 32.0249 44.0891 33.7026 43.3116 34.9302C42.6569 35.9941 41.8794 36.5261 40.9791 36.5261V34.2755C41.7157 34.2755 42.3704 33.989 43.0252 33.4571C43.2298 33.2934 43.3116 32.6796 43.3116 31.6566C43.3116 31.0428 43.1479 28.5057 42.8206 24.0863C42.4932 19.6668 42.3704 17.0888 42.3704 16.3113C42.3704 15.5748 42.2477 15.0019 42.0431 14.5518C42.0431 14.2653 42.2477 13.6515 42.6569 12.6694C42.6978 12.5876 42.7387 12.5057 42.7796 12.5057C42.8205 12.5057 42.8615 12.5467 42.9433 12.6694C43.0661 12.9149 43.3525 13.6106 43.7617 14.7564C44.2118 15.9431 44.4983 16.6796 44.5801 16.9661C44.6211 17.1707 44.662 17.3344 44.662 17.4162C44.662 17.7436 44.3346 17.5799 43.7208 16.8433C43.639 16.7206 43.598 16.7615 43.598 16.9661C43.598 17.007 43.7208 18.9712 44.0072 22.8586C44.3755 26.8279 44.4983 29.1195 44.4983 29.8561Z" fill="#124D73"/>
<path d="M45.7667 16.7614C45.7667 16.0248 45.6439 15.4519 45.4393 15.0018C45.4393 14.7563 45.6439 14.1425 46.0531 13.1604C46.0941 13.0376 46.1759 12.9967 46.1759 12.9967C46.2168 12.9967 46.2577 13.0376 46.3396 13.1604C46.4623 13.4059 46.7488 14.1016 47.158 15.2473C47.6081 16.434 47.8946 17.1706 47.9764 17.457C48.0173 17.6617 48.0582 17.8253 48.0582 17.9481C48.0582 18.2755 47.7309 18.0709 47.1171 17.3343C47.0352 17.2115 46.9943 17.2934 46.9943 17.457C46.9943 17.498 47.158 19.8304 47.4854 24.3317C47.8127 28.833 47.9764 31.411 47.9764 31.9429C47.9764 33.7025 47.7309 35.2166 47.1989 36.526C47.0762 36.7716 46.9943 36.9762 46.9125 37.0989C46.7897 37.3035 46.7488 37.3035 46.7488 37.1808C46.7079 37.058 46.7488 36.7716 46.7488 36.3214C46.8306 35.7076 46.8716 35.012 46.8716 34.2345C46.8716 33.4979 46.667 30.5926 46.2987 25.3956C45.9304 20.2806 45.7667 17.3752 45.7667 16.7614Z" fill="#124D73"/>
</svg>
