<svg width="48" height="49" viewBox="0 0 48 49" fill="none" xmlns="http://www.w3.org/2000/svg">
<path d="M45.3322 12.196C45.3322 11.3366 45.2069 10.6563 44.9384 10.0834C44.9384 9.77902 45.1532 9.04497 45.6724 7.93494C45.7082 7.80961 45.7619 7.72009 45.7977 7.72009C45.8873 7.72009 45.9231 7.80961 46.0126 7.93494C46.1379 8.2393 46.4423 9.04497 46.9615 10.3877C47.5165 11.8021 47.8209 12.6615 47.9104 13.0017C47.9999 13.2165 47.9999 13.4314 47.9999 13.5209C47.9999 13.9148 47.6597 13.6999 46.8899 12.8406C46.8003 12.7152 46.7645 12.8048 46.7645 13.0196C46.7645 13.1091 46.9794 15.7768 47.3733 21.0942C47.7671 26.3758 47.9283 29.3478 47.9283 30.0281C47.9283 32.0513 47.6239 33.8595 47.0331 35.3993C46.8541 35.7036 46.7824 35.9185 46.6929 36.0796C46.5676 36.2945 46.5139 36.2945 46.4781 36.1691C46.4423 35.9901 46.4781 35.6499 46.5139 35.1844C46.6034 34.4504 46.6392 33.6447 46.6392 32.7316C46.6392 31.8722 46.4244 28.4347 45.9947 22.3833C45.5471 16.3139 45.3322 12.9122 45.3322 12.196Z" fill="#124D73"/>
<path d="M41.805 13.7358C41.805 13.3956 41.7155 12.966 41.5544 12.4826C41.3753 12.0171 41.3037 11.7485 41.3037 11.7127C41.3037 11.6232 41.3932 11.283 41.5544 10.6743C41.7334 10.0656 41.805 9.72538 41.8587 9.63586C41.9482 9.45683 41.9841 9.42102 42.0378 9.42102C42.0736 9.42102 42.1631 9.45683 42.2526 9.60006C42.4316 9.99394 42.8076 10.7101 43.3626 11.8738C43.9714 13.1629 44.3473 14.0223 44.4727 14.4162C44.5622 14.7205 44.598 14.8817 44.598 15.0249C44.598 15.3651 44.2041 15.1502 43.488 14.2908C43.3984 14.2013 43.3626 14.2908 43.3626 14.5057C43.3626 15.2755 43.6133 18.0685 44.1862 22.8488C44.7412 27.6112 45.0456 30.7086 45.0456 32.0513C45.0456 34.9338 44.3652 37.3329 43.0225 39.177C41.9482 40.6809 40.7487 41.7194 39.4059 42.3102C38.8867 42.5608 37.9915 42.8294 36.7383 43.1696C35.4492 43.5097 34.5003 43.6888 33.9095 43.7783C33.6946 43.7783 33.5693 43.7783 33.5693 43.6888C33.5693 43.653 33.6588 43.5097 33.9095 43.3486C35.0732 42.7041 36.9531 41.594 39.585 39.9469C40.4443 39.4277 41.2679 38.6936 42.1273 37.7626C43.2373 36.5631 43.846 35.5247 43.846 34.719C43.846 32.9644 43.5059 29.2225 42.8076 23.5113C42.1094 17.7284 41.805 14.5057 41.805 13.7358ZM25.6379 15.5441C25.4231 15.2397 25.2083 14.9891 24.9576 14.8638C24.8323 14.7742 24.7786 14.6489 24.7786 14.4341V12.7153C24.7786 12.3751 24.8144 12.1961 24.9576 12.1961C25.0471 12.1961 25.2083 12.2856 25.4231 12.4109L28.7353 14.9891C28.9859 15.1681 29.1292 15.3293 29.1292 15.4188C29.1292 15.5083 29.0397 15.5441 28.8248 15.5441C28.5742 15.5441 28.0908 15.4546 27.4462 15.2934C27.8401 15.9738 31.3134 19.5903 37.8841 26.161C40.9814 29.2584 42.5212 31.9618 42.5212 34.2356C42.5212 34.4146 42.5212 34.6295 42.4854 34.8443C42.3063 36.4378 42.181 37.2076 42.0915 37.2076C42.002 37.2076 41.8766 36.5631 41.6976 35.2382C41.3574 33.1256 39.764 30.6907 36.9352 27.9335C32.3877 23.6366 29.165 20.2886 27.2672 17.9253C26.8733 17.4598 26.5331 16.9764 26.2288 16.5109C26.0676 16.1886 25.8528 15.8843 25.6379 15.5441Z" fill="#124D73"/>
<path d="M30.4547 30.7969C30.4547 32.0915 30.2175 33.0804 29.7827 33.7816C29.17 34.7705 28.3597 35.292 27.411 35.292V32.6489C28.4981 32.6489 29.2096 32.3072 29.5455 31.57C29.5455 31.2284 29.1107 30.4912 28.3202 29.3225C28.2807 29.1967 28.2214 29.1068 28.2214 28.9809C28.2214 28.3336 28.419 27.6863 28.7352 27.039C28.834 26.8233 28.9724 26.8233 29.1107 27.039C29.5851 27.6503 29.9211 28.2077 30.0594 28.5853C30.3163 29.1966 30.4547 29.9338 30.4547 30.7969Z" fill="#124D73"/>
<path d="M24.1342 31.9618C24.0089 33.036 23.6687 33.8954 23.1495 34.5041C22.684 35.1129 22.1648 35.3993 21.6098 35.3993V32.7854C22.8988 32.7854 23.5434 32.1766 23.5434 31.0308C23.5434 30.7264 23.4539 30.0461 23.2032 28.8824C22.9526 27.7186 22.684 26.7339 22.4333 25.9103C22.308 25.5165 22.2543 25.3553 22.2543 25.3016C22.2543 24.3169 22.3796 23.547 22.6482 22.9383C22.7735 22.6877 22.863 22.5444 22.8988 22.5444C22.9347 22.5444 22.9884 22.634 23.0779 22.7951C23.6866 23.9588 24.2416 25.9282 24.7071 28.6854C25.0115 30.3684 25.4412 31.5142 25.9962 32.0871C26.3901 32.481 26.9451 32.6421 27.6791 32.6421V35.2561C26.9093 35.2561 26.1752 35.0412 25.5665 34.522C24.8324 33.9312 24.349 33.0718 24.1342 31.9618Z" fill="#124D73"/>
<path d="M21.6099 35.3993C20.0702 35.3993 19.2466 34.5041 19.1571 32.6959C19.1571 32.6063 19.1213 32.5705 19.0317 32.5168C18.9064 32.5526 18.7811 32.6063 18.6379 32.7675C17.7427 33.8059 17.1697 34.3967 16.9191 34.6116C15.8091 35.5963 14.6453 36.0797 13.4458 36.0797V33.4657C14.699 33.4657 15.8091 33.1255 16.7938 32.4273C17.1877 32.1766 18.047 31.3531 19.4077 29.9745C19.533 29.8492 19.7121 29.7596 19.8732 29.7596C20.0522 29.7596 20.0881 29.8492 20.0881 30.0103C20.0881 30.0998 20.0881 30.2251 20.0522 30.4042C20.0164 30.5832 20.0164 30.7085 20.0164 30.7981C20.0164 31.3173 20.106 31.747 20.3566 32.0871C20.6073 32.5168 21.037 32.7675 21.6099 32.7675V35.3993Z" fill="#124D73"/>
<path d="M10.7783 30.7444C10.9932 31.9439 11.4229 32.7675 12.0316 33.1435C12.336 33.3225 12.8015 33.4478 13.446 33.4478V36.0797C12.4971 36.0797 11.7631 35.8648 11.2617 35.4709C10.4919 34.9159 10.0085 33.9312 9.75783 32.4273C9.5788 31.6037 9.45347 29.6701 9.36395 26.6265C9.27443 23.189 9.1133 20.4855 8.93426 18.5519C8.71942 16.7974 8.37924 15.0786 7.89584 13.4852C7.89584 13.0555 8.07488 12.4109 8.41505 11.5516C8.50457 11.3367 8.54038 11.2472 8.6299 11.2472C8.66571 11.2472 8.75522 11.3367 8.84474 11.4978C9.39976 12.5721 9.79364 14.4162 10.098 17.048C10.277 18.731 10.4382 21.3807 10.5277 25.0331C10.5993 28.3811 10.7425 30.2789 10.7783 30.7444Z" fill="#124D73"/>
<path d="M7.51957 28.6854C7.51957 28.8107 7.30472 29.2404 6.91084 29.9744C6.60648 30.1893 5.87242 30.619 4.72658 31.2635C3.22267 32.0871 1.89779 32.8569 0.769858 33.5373C0.375976 33.7521 0.161134 33.8774 0.0895187 33.8774C0 33.8774 0 33.8416 0 33.7521C0 33.5373 0.179036 33.0181 0.608726 32.2124C0.787763 32.0334 1.25326 31.6932 1.9336 31.2277C1.4681 30.9233 1.16374 30.7622 1.03841 30.619C0.698243 30.3146 0.519207 29.9386 0.519207 29.5089C0.519207 28.7749 1.03842 27.9155 2.05893 26.9666C3.00783 26.0714 3.77769 25.588 4.3327 25.588C4.63707 25.588 4.88772 25.7133 5.10256 25.9819C5.2816 26.1967 5.40693 26.5369 5.40693 26.9308C5.40693 27.271 5.2816 27.6111 5.01305 28.005C4.7982 28.3094 4.58335 28.4705 4.40432 28.4705C4.36851 28.4705 4.22528 28.3452 4.09995 28.005C3.97463 27.6648 3.79559 27.5395 3.58075 27.5395C3.27638 27.5395 2.9004 27.629 2.417 27.8797C1.8978 28.1303 1.64714 28.3094 1.64714 28.3989C1.64714 28.6137 1.89779 28.8644 2.47071 29.1688C3.11525 29.5089 3.75978 29.688 4.36851 29.688C4.76239 29.6522 5.31741 29.3836 6.08727 29.0434C6.7318 28.7033 7.16149 28.5242 7.28682 28.5242C7.43005 28.5242 7.51957 28.56 7.51957 28.6854Z" fill="#124D73"/>
<path d="M26.8555 24.0125C26.8197 23.9767 26.8197 23.923 26.8555 23.8335L27.6791 22.1147C27.7149 22.0252 27.8044 21.9894 27.8581 21.9894C27.9477 21.9894 28.3236 22.2042 28.9682 22.6339C29.6485 23.0994 30.0066 23.368 30.0066 23.4575C30.0066 23.7619 29.7022 24.3527 29.1114 25.3016C29.0219 25.4269 28.9861 25.4806 28.8966 25.4269C28.2162 24.9077 27.5359 24.4422 26.8555 24.0125Z" fill="#124D73"/>
<path d="M24.4387 39.0875C24.4029 39.0516 24.4029 38.9979 24.4387 38.9084L25.2622 37.1897C25.298 37.1001 25.3876 37.0643 25.4413 37.0643C25.5308 37.0643 25.9068 37.2792 26.5513 37.7089C27.2316 38.1744 27.5897 38.4429 27.5897 38.5324C27.5897 38.8368 27.2854 39.4276 26.6945 40.3765C26.605 40.5018 26.5692 40.5556 26.4797 40.5019C25.8172 39.9826 25.1369 39.5171 24.4387 39.0875Z" fill="#124D73"/>
<path d="M19.1931 39.2665L19.8734 37.8521C19.9092 37.7626 19.9629 37.7268 20.0525 37.7268C20.142 37.7268 20.4821 37.9416 21.1625 38.4071C21.807 38.8368 22.1472 39.0875 22.1472 39.177C22.1472 39.4814 21.8428 40.1259 21.2878 41.0748C21.1983 41.2001 21.1088 41.2001 21.0372 41.1643C20.4821 40.7346 19.8376 40.3049 19.1036 39.8394C18.8529 40.3587 18.6381 40.8242 18.3695 41.218C18.3337 41.3434 18.2442 41.3971 18.1547 41.3434C17.5101 40.8241 16.8298 40.3587 16.1315 39.929C16.0957 39.8932 16.0957 39.8394 16.1315 39.7499L16.9551 38.0312C16.9909 37.9416 17.0804 37.8521 17.1341 37.8521C17.2237 37.8521 17.528 38.067 18.083 38.4609C18.6381 38.7831 19.0319 39.0875 19.1931 39.2665Z" fill="#124D73"/>
<path d="M26.0678 9.47462C25.9783 9.8685 25.8888 10.0833 25.7635 10.2087C25.298 10.513 24.2237 11.1934 22.5766 12.3213C22.5408 12.3571 22.4513 12.4108 22.3617 12.5004C22.3259 12.4645 22.3259 12.4645 22.3259 12.375L22.4155 11.82C22.4513 11.6947 22.7198 11.4261 23.239 11.0501C22.5945 10.8353 22.2901 10.5309 22.2901 10.1908C22.2901 9.79688 22.4155 9.42091 22.7556 9.02702C23.4002 8.25716 23.9552 7.86328 24.3849 7.86328C24.7787 7.86328 24.9399 8.07813 24.9399 8.50782C24.9399 8.75847 24.8504 9.02703 24.6355 9.3672C24.5997 9.45672 24.546 9.45672 24.4565 9.33139C24.367 9.11654 24.2058 9.02702 23.991 9.02702C23.8657 9.02702 23.6866 9.06283 23.4718 9.24187C23.2569 9.3672 23.1316 9.49252 23.1316 9.58204C23.1316 9.70737 23.2569 9.83269 23.5255 9.97592C23.7761 10.155 23.991 10.1908 24.17 10.1908C24.2953 10.1908 24.5639 10.1012 24.9399 9.8864C25.1905 9.70737 25.4054 9.54623 25.6739 9.3672C25.8888 9.27768 26.0141 9.18816 26.0678 9.24187C26.1215 9.22397 26.1215 9.31348 26.0678 9.47462Z" fill="#124D73"/>
<path d="M25.9065 42.8293C27.6252 42.2206 29.4693 41.5403 31.4566 40.8599C31.6357 40.8241 31.6715 40.7704 31.7073 40.8241C31.7431 40.8241 31.7431 40.9136 31.6715 41.039C31.5462 41.4328 31.4208 41.6477 31.3313 41.7193C29.6125 42.328 27.6789 43.0442 25.4947 44.0468C25.5663 43.635 25.6916 43.259 25.9065 42.8293Z" fill="#124D73"/>
<path d="M12.7476 20.7004C16.0598 19.5008 19.4973 18.2117 23.0959 16.869C23.2213 16.8331 23.3108 16.7794 23.3466 16.8331C23.3466 16.8331 23.3466 16.9227 23.3108 17.048C23.1317 17.4419 23.0064 17.6567 22.9169 17.7283C19.9091 18.8384 16.3462 20.217 12.3 21.8999C12.4074 21.506 12.5327 21.13 12.7476 20.7004Z" fill="#124D73"/>
<path d="M4.94109 20.6466C4.94109 20.6108 4.9769 20.5571 4.9769 20.5571C5.0127 20.5213 5.01271 20.5213 5.01271 20.5571C5.04851 20.5929 5.04851 20.6466 5.01271 20.6824C4.79786 21.9715 4.40398 22.616 3.84896 22.616C3.29395 22.616 3.02539 22.1505 3.02539 21.2016C3.02539 20.0379 3.32975 18.8025 4.0101 17.5492C4.18913 17.2449 4.26075 17.0837 4.31446 17.0837C4.31446 17.1195 4.27865 17.2986 4.18913 17.6029C3.75944 18.9278 3.5446 19.8409 3.5446 20.3959C3.5446 21.0763 3.72364 21.4702 4.09961 21.4702C4.36817 21.4702 4.63673 21.1658 4.94109 20.6466Z" fill="#124D73"/>
<path d="M43.0849 6.15916C43.0849 6.37217 42.8718 6.75561 42.4032 7.39467C41.8494 8.11893 41.3807 8.67278 40.9121 9.01361C40.6138 9.22663 39.634 9.56746 37.9298 9.9935C37.6316 10.0361 37.4612 10.0787 37.4612 10.0787C37.5038 10.0361 37.589 9.9509 37.802 9.82309C38.015 9.65267 38.6115 9.31184 39.634 8.8006C40.5712 8.28935 41.1251 7.94852 41.2529 7.82071C41.2955 7.7781 41.2955 7.7355 41.2955 7.7355C41.2955 7.52248 40.4434 7.43727 38.7819 7.43727C38.7819 7.43727 38.4836 7.43727 37.8446 7.47988C37.5038 7.52248 37.3333 7.47987 37.3333 7.43727C37.3333 7.39467 37.3759 7.30946 37.4612 7.18165L38.0576 6.20176C38.228 5.90353 38.5689 5.73312 39.0375 5.64791C39.2079 5.60531 39.5913 5.60531 40.1878 5.60531C42.1476 5.5201 43.0849 5.73312 43.0849 6.15916Z" fill="#124D73"/>
</svg>
