<svg width="48" height="49" viewBox="0 0 48 49" fill="none" xmlns="http://www.w3.org/2000/svg">
<path d="M6.12284 18.9831C6.08505 18.9453 6.08505 18.9075 6.12284 18.8697L6.72757 17.6602C6.76536 17.5846 6.80316 17.5468 6.84095 17.5468C6.91655 17.5468 7.18111 17.698 7.63466 18.0382C8.0882 18.3405 8.35277 18.5673 8.35277 18.6051C8.35277 18.7941 8.126 19.2476 7.71025 19.8901C7.67245 19.9657 7.59686 20.0035 7.55907 19.9657C7.10552 19.6256 6.61418 19.2854 6.12284 18.9831ZM15.0425 19.3232C15.0425 20.4571 14.778 21.3264 14.2866 21.9311C13.4929 22.876 12.2835 23.7831 10.6961 24.6902C8.69293 25.7862 6.84096 26.3531 5.06458 26.3531C2.75906 26.3531 1.17166 25.2193 0.264568 22.9516C0.113386 22.498 0 21.9311 0 21.2508C0 20.7972 0.037795 20.3059 0.113386 19.8524C0.226772 19.172 0.377953 18.5673 0.56693 18.0382C0.642521 17.887 0.718111 17.8114 0.755907 17.8114C0.793702 17.8114 0.831497 17.9248 0.793702 18.1138C0.718111 18.4539 0.642521 18.7563 0.56693 19.0587C0.453544 19.6634 0.377953 20.0791 0.377953 20.3437C0.377953 21.2886 0.680316 22.1579 1.32284 22.9516C2.19213 24.0098 3.40158 24.539 5.02678 24.539C6.463 24.539 7.97482 24.1988 9.52442 23.5185C10.8095 22.9894 11.9811 22.309 13.0016 21.5153C13.9465 20.7972 14.4 20.3059 14.4 20.0035C14.4 19.9657 14.211 19.55 13.7953 18.7941C13.3418 17.9248 13.0016 17.0555 12.7748 16.224C12.6992 15.9216 12.5858 15.7327 12.4725 15.6193C12.3591 15.5437 12.3213 15.4303 12.3213 15.3169C12.3213 15.2035 12.3969 14.75 12.5858 13.9185C12.6236 13.7673 12.6614 13.6917 12.6992 13.6917C12.737 13.6917 12.7748 13.7295 12.8504 13.8051C13.0772 14.0697 13.6063 14.561 14.3622 15.3547C14.4756 15.4681 14.5512 15.5815 14.5512 15.6571C14.5512 15.7327 14.4756 15.7705 14.3244 15.7705C14.1733 15.7705 13.9087 15.7327 13.6063 15.6193C13.6441 15.7327 13.9087 16.2618 14.4 17.2445C14.8536 18.0382 15.0425 18.7185 15.0425 19.3232Z" fill="#124D73"/>
<path d="M22.4506 22.5737C22.0349 22.0068 21.6191 21.7044 21.2412 21.7044C20.7121 21.7044 20.4475 21.8556 20.4475 22.1579C20.4475 22.4981 20.8254 22.6871 21.5813 22.6871C21.8459 22.6493 22.1483 22.6115 22.4506 22.5737ZM23.3955 24.8036C23.3955 24.6146 23.3577 24.3879 23.2821 24.1989C22.9042 24.3123 22.3751 24.3501 21.6947 24.3501C20.2585 24.3501 19.5026 23.8587 19.5026 22.876C19.5026 22.1201 19.7294 21.4398 20.2585 20.8351C20.7121 20.306 21.2034 20.0414 21.6947 20.0036C22.0727 20.0036 22.4884 20.2304 22.942 20.7217C23.3199 21.1375 23.6979 21.6666 24.0002 22.3469C24.038 22.3469 24.0758 22.3469 24.1892 22.2713V23.9343L24.1136 24.0099C24.1136 24.3501 24.038 24.8036 23.8869 25.3327C23.6601 26.0509 23.3577 26.6178 22.942 27.0713C21.9971 28.1296 21.0144 29.0745 19.9184 29.906C18.2932 31.1154 16.8947 31.7202 15.6853 31.7202C14.6648 31.7202 13.8711 31.3422 13.342 30.6241C12.8506 29.9438 12.5861 29.1501 12.5861 28.1674C12.5861 26.8446 12.8506 25.5217 13.3798 24.1989C13.4931 23.9343 13.6065 23.7831 13.6443 23.7831C13.6821 23.7831 13.6821 23.8209 13.6821 23.8587C13.6821 23.9721 13.6443 24.1233 13.5687 24.3123C13.1908 25.6351 13.0018 26.6556 13.0018 27.3359C13.0018 27.9784 13.153 28.5076 13.4931 28.9233C13.9467 29.5658 14.7404 29.906 15.7609 29.906C16.668 29.906 17.764 29.528 19.0869 28.7343C20.1451 28.0918 21.1278 27.3359 22.0727 26.4288C22.942 25.5973 23.3955 25.0682 23.3955 24.8036Z" fill="#124D73"/>
<path d="M20.1825 15.9973C20.2581 15.8083 20.2581 15.6571 20.2203 15.4681C20.1825 15.2791 20.1069 15.1658 19.9557 15.1658C19.8801 15.1658 19.8045 15.2036 19.6912 15.2791C19.5778 15.3547 19.5022 15.4303 19.5022 15.4681C19.5022 15.6193 19.729 15.8083 20.1825 15.9973ZM19.8423 16.791C19.2754 16.4886 18.973 16.1862 18.973 15.8461C18.973 15.4681 19.162 15.0902 19.5022 14.75C19.8801 14.4098 20.1825 14.2965 20.4093 14.3721C20.5982 14.4476 20.7116 14.6744 20.7116 15.0146C20.7116 15.3547 20.636 15.6949 20.5227 16.1106C20.825 16.2996 20.9762 16.413 21.0518 16.5642C21.0518 16.7154 20.9384 16.9799 20.6738 17.3579C20.5982 17.2445 20.4093 17.0933 20.1447 16.9421C19.8423 17.3957 19.4266 17.7736 18.9353 18.1516C18.3683 18.5673 17.877 18.9075 17.3856 19.0965C17.2723 19.1343 16.7431 19.361 15.7604 19.7012C15.6093 19.7768 15.4959 19.7768 15.4581 19.7768C15.4203 19.7768 15.4203 19.7768 15.4203 19.7768C15.4203 19.739 15.4959 19.6634 15.6849 19.55C16.4408 19.0965 17.1589 18.6807 17.877 18.2272C18.7463 17.7358 19.3888 17.2445 19.8423 16.791Z" fill="#124D73"/>
<path d="M25.7388 12.8603L26.1923 11.9154C26.2301 11.8398 26.2679 11.802 26.3057 11.802C26.3813 11.802 26.6459 11.9532 27.0994 12.2933C27.5908 12.6335 27.8175 12.8225 27.8175 12.8603C27.8175 13.0492 27.6286 13.5028 27.2128 14.1831C27.175 14.2587 27.0994 14.2965 27.0616 14.2587C26.6459 13.9563 26.1923 13.654 25.6632 13.3138C25.512 13.6918 25.323 14.0319 25.1341 14.2965C25.0963 14.3721 25.0585 14.4099 24.9829 14.3721C24.5293 13.9941 24.038 13.6918 23.5467 13.3516C23.5089 13.3516 23.5089 13.3138 23.5467 13.2382L24.1514 12.0288C24.1892 11.9532 24.227 11.9154 24.2648 11.9154C24.3026 11.9154 24.5293 12.0288 24.9451 12.2933C25.3608 12.5579 25.6254 12.7469 25.7388 12.8603Z" fill="#124D73"/>
<path d="M29.1783 25.0303C28.498 25.0303 27.7799 24.728 27.0618 24.1232C26.6839 23.8209 26.3815 23.4807 26.1547 23.1028L24.1138 23.9721V22.3091L25.6256 21.6666C25.3988 21.0996 25.3232 20.4949 25.3232 19.8524C25.3232 18.9453 25.4744 18.1894 25.739 17.6225C26.0035 17.0555 26.3815 16.791 26.835 16.791C27.213 16.791 27.5909 17.1311 27.9689 17.8114C28.2713 18.4162 28.4224 18.9453 28.4224 19.4366C28.4224 20.6461 28.0445 21.6666 27.3264 22.4225C27.8555 22.9516 28.4602 23.2162 29.1783 23.2162V25.0303ZM27.9311 20.1925C27.9311 20.0036 27.7799 19.6634 27.4398 19.2477C27.0996 18.7941 26.7972 18.5673 26.5327 18.5673C26.3437 18.5673 26.1547 18.6807 25.9657 18.9075C25.7768 19.1343 25.6634 19.361 25.6634 19.5878C25.6634 19.7768 25.7768 20.0791 26.0035 20.5327C26.1547 20.9106 26.3059 21.1752 26.4193 21.3264C26.6839 21.213 26.9862 21.024 27.2886 20.7973C27.7421 20.4949 27.9311 20.3059 27.9311 20.1925Z" fill="#124D73"/>
<path d="M23.1306 30.2082C24.8314 29.6035 26.6834 28.9232 28.6109 28.2051C28.7243 28.1673 28.7621 28.1673 28.7621 28.1673C28.7999 28.2051 28.7621 28.2429 28.7621 28.3185C28.6487 28.583 28.5731 28.7342 28.4975 28.8098C26.8723 29.4145 24.9826 30.1327 22.8282 31.0397C22.9038 30.7752 23.0172 30.5106 23.1306 30.2082Z" fill="#124D73"/>
<path d="M29.4427 11.5752C29.4049 11.5374 29.4049 11.4996 29.4427 11.4618L30.0474 10.2524C30.0852 10.1768 30.123 10.139 30.1608 10.139C30.2364 10.139 30.5009 10.2902 30.9545 10.6303C31.408 10.9327 31.6726 11.1595 31.6726 11.1972C31.6726 11.3862 31.4458 11.8398 31.0301 12.4823C30.9923 12.5579 30.9167 12.5957 30.8789 12.5579C30.4253 12.2177 29.934 11.8776 29.4427 11.5752Z" fill="#124D73"/>
<path d="M34.5828 20.4949C34.5828 21.6666 34.2048 22.6114 33.4867 23.2918C32.2773 24.5012 30.841 25.1059 29.1403 25.1059V23.254C29.8962 23.254 30.7277 23.1028 31.7103 22.7248C32.7308 22.3469 33.4867 21.9311 34.0537 21.402C34.0537 21.0996 33.8269 20.8351 33.3733 20.6083C32.9576 20.4193 32.5418 20.3059 32.0883 20.3059H30.8788C30.4253 20.3059 30.0851 20.1548 29.7828 19.8524C29.5182 19.55 29.367 19.1721 29.367 18.6807C29.367 18.0382 29.5938 17.4335 30.0096 16.7532C30.4631 16.1107 30.9166 15.8083 31.3702 15.8083C32.1261 15.8083 32.8442 16.224 33.4867 17.0933C34.2048 18.076 34.5828 19.2099 34.5828 20.4949ZM32.6174 18.6429C32.1639 17.9626 31.6725 17.6225 31.1056 17.6225C30.7277 17.6225 30.5009 17.7736 30.5009 18.0004C30.5009 18.3028 30.7655 18.454 31.2568 18.5296C31.5592 18.5673 31.9749 18.5673 32.6174 18.6429Z" fill="#124D73"/>
<path d="M30.4633 34.2902C30.6145 35.1595 30.9169 35.7264 31.3326 35.991C31.5594 36.1044 31.8995 36.18 32.3531 36.18V38.0319C31.6728 38.0319 31.1814 37.8808 30.8035 37.6162C30.2743 37.2382 29.9342 36.5201 29.7452 35.4241C29.6318 34.7437 29.5184 32.854 29.4428 29.6414C29.3295 26.1642 29.2539 24.0099 29.1783 23.254C29.0271 22.0067 28.8003 20.7973 28.4224 19.6256C28.4224 19.3233 28.5357 18.8697 28.8003 18.265C28.8381 18.1138 28.8759 18.0382 28.9515 18.0382C28.9893 18.0382 29.0271 18.1138 29.1027 18.2272C29.4806 19.0209 29.783 20.3059 30.0098 22.1201C30.1232 23.254 30.2365 25.5217 30.3121 28.9233C30.3499 32.2493 30.4255 33.9878 30.4633 34.2902Z" fill="#124D73"/>
<path d="M31.03 26.6934C32.7308 26.0887 34.5828 25.4084 36.5103 24.6903C36.6237 24.6525 36.6615 24.6525 36.6615 24.6525C36.6993 24.6903 36.6615 24.7281 36.6615 24.8036C36.5481 25.0682 36.4726 25.2194 36.397 25.295C34.7718 25.8619 32.882 26.6178 30.7277 27.5249C30.7655 27.2981 30.8788 27.0336 31.03 26.6934Z" fill="#124D73"/>
<path d="M33.0335 29.5658C32.9957 29.528 32.9957 29.4902 33.0335 29.4524L33.6382 28.243C33.676 28.1674 33.7138 28.1296 33.7516 28.1296C33.8272 28.1296 34.0917 28.2808 34.5453 28.6209C34.9988 28.9233 35.2634 29.15 35.2634 29.1878C35.2634 29.3768 35.0366 29.8304 34.6209 30.4729C34.5831 30.5485 34.5075 30.5863 34.4697 30.5485C34.0539 30.2083 33.5626 29.8682 33.0335 29.5658Z" fill="#124D73"/>
<path d="M37.9844 37.5784C36.8883 37.5784 36.3214 36.9358 36.2836 35.6508C36.2836 35.5752 36.2458 35.5752 36.208 35.5752C36.0946 35.5752 36.019 35.6508 35.9056 35.7264C35.3009 36.4445 34.8852 36.898 34.6962 37.0492C33.9025 37.7295 33.071 38.0697 32.2395 38.0697V36.2177C33.1466 36.2177 33.9403 35.991 34.6206 35.4996C34.923 35.3106 35.5277 34.7437 36.4726 33.7988C36.586 33.6854 36.6616 33.6476 36.7749 33.6476C36.8883 33.6476 36.9261 33.6854 36.9261 33.7988C36.9261 33.8366 36.9261 33.95 36.8883 34.0634C36.8505 34.1768 36.8505 34.2902 36.8505 34.3658C36.8505 34.7059 36.9261 35.0083 37.0773 35.2728C37.2663 35.5752 37.5686 35.7264 37.9466 35.7264L37.9844 37.5784Z" fill="#124D73"/>
<path d="M38.3247 19.3988C38.4003 19.2098 38.4003 19.0586 38.3625 18.8697C38.3247 18.6807 38.2491 18.5673 38.0979 18.5673C38.0223 18.5673 37.9468 18.6051 37.8334 18.6807C37.72 18.7563 37.6444 18.8319 37.6444 18.8697C37.6444 19.0208 37.8712 19.2098 38.3247 19.3988ZM37.9846 20.2303C37.4176 19.9279 37.1153 19.6256 37.1153 19.2854C37.1153 18.9075 37.3042 18.5295 37.6444 18.1893C38.0223 17.8492 38.3247 17.7358 38.5515 17.8114C38.7405 17.887 38.8538 18.1137 38.8538 18.4539C38.8538 18.7941 38.7783 19.1342 38.6649 19.55C38.9672 19.7389 39.1184 19.8523 39.194 20.0035C39.194 20.1547 39.0806 20.4193 38.816 20.7972C38.7405 20.6838 38.5515 20.5326 38.2869 20.3815C37.9846 20.835 37.5688 21.213 37.0775 21.5909C36.5105 22.0067 36.0192 22.3468 35.5279 22.5358C35.4145 22.5736 34.8853 22.8004 33.9027 23.1405C33.7515 23.2161 33.6381 23.2161 33.6003 23.2161C33.5625 23.2161 33.5625 23.2161 33.5625 23.2161C33.5625 23.1783 33.6381 23.1027 33.8271 22.9893C34.583 22.5358 35.3011 22.1201 36.0192 21.6665C36.8885 21.1752 37.5688 20.6838 37.9846 20.2303Z" fill="#124D73"/>
<path d="M44.2582 36.7092C44.5228 36.7092 44.6739 36.6336 44.6739 36.4824C44.6739 36.2934 44.5228 36.1044 44.2204 35.991C43.8802 35.8399 43.3889 35.8021 42.7464 35.9154C43.1999 36.4446 43.6913 36.7092 44.2582 36.7092ZM37.9086 37.6162V35.7643C38.7023 35.7643 39.6849 35.4241 40.8944 34.7816C40.8566 34.6304 40.97 34.517 41.1968 34.4036C41.4613 34.2902 41.6125 34.328 41.6881 34.4792C42.5196 34.2147 43.1999 34.0635 43.729 34.0635C44.2582 34.0635 44.6739 34.2902 44.9763 34.7438C45.2787 35.1973 45.4298 35.7643 45.4298 36.4824C45.4298 37.0871 45.3165 37.5784 45.0519 37.9564C44.7873 38.3343 44.4472 38.5611 44.0314 38.5611C43.0865 38.5611 42.1794 37.8052 41.4235 36.369C39.9495 37.2005 38.8157 37.6162 37.9086 37.6162Z" fill="#124D73"/>
<path d="M42.0284 11.4996C42.0284 11.6508 41.8772 11.9532 41.5371 12.4067C41.1591 12.9359 40.7812 13.3138 40.441 13.5784C40.2142 13.7296 39.4961 13.9563 38.2867 14.2965C38.0599 14.3343 37.9465 14.3721 37.9465 14.3721C37.9843 14.3343 38.0599 14.2965 38.1733 14.1831C38.3245 14.0697 38.778 13.8052 39.4961 13.4272C40.1764 13.0492 40.5544 12.8225 40.6678 12.7091C40.7056 12.6713 40.7056 12.6713 40.7056 12.6335C40.7056 12.4823 40.1008 12.4067 38.8914 12.4067C38.8914 12.4067 38.6646 12.4067 38.2111 12.4067C37.9843 12.4067 37.8331 12.4067 37.8331 12.3689C37.8331 12.3311 37.8709 12.2933 37.9465 12.18L38.4001 11.4618C38.5134 11.2351 38.778 11.1217 39.1182 11.0461C39.2316 11.0083 39.4961 11.0083 39.9497 11.0083C41.3103 11.0083 42.0284 11.1595 42.0284 11.4996Z" fill="#124D73"/>
<path d="M40.8569 34.6681C40.479 33.1185 40.1388 30.4728 39.8365 26.6177C39.6475 24.2744 39.5719 22.1956 39.5719 20.3815C39.5719 19.7767 39.4963 19.2854 39.2695 18.9075C39.2695 18.6807 39.4585 18.1893 39.7987 17.3578C39.8365 17.2823 39.8743 17.2067 39.9121 17.2067C39.9499 17.2067 39.9876 17.2445 40.0632 17.3578C40.1388 17.5468 40.3656 18.1515 40.7436 19.0964C41.1215 20.0791 41.3105 20.6838 41.3861 20.9106C41.4239 21.0996 41.4617 21.213 41.4617 21.2886C41.4617 21.5909 41.1971 21.4019 40.668 20.7972C40.5924 20.7216 40.5924 20.7594 40.5924 20.9106C40.5924 21.7043 40.668 23.6319 40.8569 26.6933C41.0837 30.624 41.3861 33.1185 41.8018 34.2146C41.8018 34.2902 41.6884 34.3657 41.4239 34.4791C41.1971 34.5925 41.0081 34.6303 40.8569 34.6681Z" fill="#124D73"/>
<path d="M46.1103 21.3264C46.1103 20.7217 45.997 20.2304 45.808 19.8524C45.808 19.6256 45.9592 19.1343 46.3371 18.3028C46.3749 18.1894 46.4127 18.1516 46.4505 18.1516C46.4883 18.1516 46.5261 18.1894 46.5639 18.3028C46.6773 18.5296 46.904 19.0965 47.2442 20.0414C47.6222 21.0241 47.8489 21.6288 47.9245 21.8556C47.9623 22.0445 48.0001 22.1579 48.0001 22.2713C48.0001 22.5359 47.7355 22.3847 47.2064 21.78C47.1308 21.7044 47.1308 21.7422 47.1308 21.8933C47.1308 21.9311 47.282 23.8587 47.5466 27.6004C47.8111 31.3422 47.9623 33.4587 47.9623 33.9123C47.9623 35.3485 47.7355 36.6335 47.3198 37.7296C47.2064 37.9564 47.1308 38.1075 47.093 38.1831C47.0174 38.3343 46.9418 38.3721 46.9418 38.2587C46.904 38.1453 46.9418 37.9186 46.9418 37.5406C47.0174 37.0493 47.0552 36.4823 47.0552 35.802C47.0552 35.1973 46.9041 32.7784 46.6017 28.4697C46.2615 24.2745 46.1103 21.8556 46.1103 21.3264Z" fill="#124D73"/>
</svg>
