<svg width="49" height="42" viewBox="0 0 49 42" fill="none" xmlns="http://www.w3.org/2000/svg">
<path d="M2.83165 35.3906C2.10632 35.3906 1.46632 35.0493 0.911651 34.4093C0.356985 33.7266 0.0583191 32.8733 0.0583191 31.892C0.0583191 30.5266 0.612986 28.7346 1.72232 26.5586C1.85032 26.3453 1.93565 26.2173 1.97832 26.2173C2.02098 26.2173 2.02098 26.26 2.02098 26.3026C2.02098 26.516 1.76498 27.284 1.29565 28.6066C0.826319 29.9293 0.570319 30.9533 0.570319 31.6786C0.570319 32.276 0.698319 32.7453 0.996985 33.0866C1.29565 33.4706 1.67965 33.6413 2.19165 33.6413C3.00232 33.6413 3.94098 33.044 5.13565 31.8066C6.11698 30.6546 7.09831 29.5453 8.07964 28.3933C10.5543 25.5773 12.773 24.1693 14.6503 24.1693V26.388C13.029 26.388 11.237 27.412 9.23164 29.46C8.59164 30.1 7.78098 31.0386 6.79964 32.276C5.90365 33.3426 5.26365 34.1106 4.83698 34.452C4.15431 35.092 3.51431 35.3906 2.83165 35.3906Z" fill="#124D73"/>
<path d="M13.5409 31.8493L14.0956 30.6973C14.1382 30.6119 14.1809 30.5693 14.2236 30.5693C14.3089 30.5693 14.6076 30.7826 15.2049 31.1666C15.7596 31.5506 16.0582 31.7639 16.0582 31.8493C16.0582 32.1053 15.8022 32.6173 15.3329 33.4279C15.2902 33.5133 15.2049 33.5559 15.1622 33.5133C14.6502 33.1719 14.1382 32.7879 13.4982 32.3613C13.2849 32.8306 13.1142 33.2146 12.9009 33.5559C12.8582 33.6413 12.7729 33.6839 12.7302 33.6413C12.1756 33.2146 11.6209 32.7879 10.9809 32.4466C10.9382 32.4466 10.9382 32.4039 10.9809 32.3186L11.7062 30.8679C11.7489 30.7826 11.7916 30.7399 11.8342 30.7399C11.8769 30.7399 12.1756 30.9106 12.6449 31.2093C13.1142 31.4653 13.4129 31.6786 13.5409 31.8493Z" fill="#124D73"/>
<path d="M17.1677 25.9613C17.1677 26.5586 17.0824 27.0706 16.8691 27.54C16.7837 27.7106 16.7411 27.796 16.6984 27.796C16.6557 27.796 16.5704 27.7106 16.4851 27.54C16.0584 26.772 15.4184 26.388 14.5651 26.388V24.1693C15.4184 24.1693 16.0584 24.3826 16.5277 24.852C16.9971 25.1506 17.1677 25.5346 17.1677 25.9613Z" fill="#124D73"/>
<path d="M21.0931 30.2279C20.5811 29.5453 20.1118 29.2039 19.6424 29.2039C19.0024 29.2039 18.6611 29.3746 18.6611 29.7159C18.6611 30.1426 19.1304 30.3133 20.0264 30.3133C20.3678 30.3559 20.7091 30.3133 21.0931 30.2279ZM22.2024 32.9159C22.2024 32.6599 22.1598 32.4466 22.0744 32.1906C21.6478 32.3186 21.0078 32.4039 20.1971 32.4039C18.4478 32.4039 17.5944 31.8066 17.5944 30.6119C17.5944 29.6733 17.8931 28.9053 18.4904 28.1799C19.0451 27.5399 19.5998 27.1986 20.1971 27.1986C20.6664 27.1986 21.1784 27.4973 21.6904 28.0519C22.1598 28.5639 22.5864 29.2039 22.9704 29.9719C23.0131 29.9719 23.0558 29.9719 23.1838 29.8866V31.8919L23.0984 31.9346C23.0984 32.3613 23.0131 32.9159 22.7998 33.5559C22.5438 34.4093 22.1598 35.0919 21.6904 35.6466C20.5811 36.9266 19.3438 38.0359 18.0638 39.0599C16.1438 40.5106 14.4371 41.2359 12.9864 41.2359C11.7918 41.2359 10.8104 40.8093 10.1704 39.9133C9.57311 39.1026 9.27444 38.1213 9.27444 36.9693C9.27444 35.3906 9.61578 33.8119 10.2558 32.2333C10.3838 31.8919 10.5118 31.7213 10.5971 31.7213C10.6398 31.7213 10.6398 31.7639 10.6398 31.8066C10.6398 31.9346 10.5971 32.1053 10.5118 32.3186C10.0424 33.8973 9.82911 35.1346 9.82911 35.9453C9.82911 36.7133 10.0424 37.3533 10.4264 37.8653C10.9811 38.6333 11.9198 39.0599 13.1571 39.0599C14.2664 39.0599 15.5891 38.5906 17.1251 37.6519C18.3624 36.8839 19.5571 35.9879 20.7091 34.9213C21.6904 33.8973 22.2024 33.2573 22.2024 32.9159Z" fill="#124D73"/>
<path d="M26.469 9.02268C26.469 9.19335 26.2557 9.53468 25.8717 10.0894C25.4024 10.7293 24.9757 11.1987 24.549 11.4547C24.293 11.6253 23.4397 11.924 21.989 12.308C21.733 12.3507 21.605 12.3933 21.605 12.3933C21.6477 12.3507 21.733 12.308 21.9037 12.18C22.0744 12.0093 22.5864 11.7533 23.4824 11.284C24.293 10.8573 24.7624 10.5587 24.8904 10.4307C24.933 10.388 24.933 10.388 24.933 10.3453C24.933 10.1747 24.2077 10.0894 22.757 10.0894C22.757 10.0894 22.501 10.0894 21.9464 10.0894C21.6477 10.0894 21.5197 10.0893 21.5197 10.0467C21.5197 10.004 21.5624 9.91868 21.6477 9.83335L22.1597 8.98002C22.3304 8.72402 22.5864 8.55335 23.013 8.51068C23.141 8.46802 23.4824 8.46802 23.9944 8.46802C25.6584 8.46802 26.469 8.63869 26.469 9.02268Z" fill="#124D73"/>
<path d="M19.0878 18.324C20.1118 18.836 21.1358 19.348 22.1598 19.9453C24.5918 21.3106 26.7251 22.7613 28.5598 24.2973C29.7544 25.2786 30.5224 25.876 30.8638 26.0893C31.8024 26.6866 32.6558 26.9853 33.4664 26.9853V29.204C32.6131 29.204 31.8878 29.0333 31.2051 28.6493C30.8211 28.3933 30.2238 27.924 29.4558 27.2413C28.6024 26.4733 27.8771 25.876 27.2798 25.4493C27.1518 25.364 27.0664 25.3213 27.0664 25.3213C27.0238 25.3213 27.0664 25.4066 27.1518 25.62C27.4931 26.3453 27.6638 26.9426 27.6638 27.284C27.6638 28.5213 27.3224 29.5026 26.5544 30.1C26.0424 30.5693 24.8905 31.2093 23.0558 31.9773V29.972C24.0798 29.5453 24.7625 29.2466 25.0185 29.1186C25.8718 28.692 26.5118 28.3506 26.8958 28.0093C27.0664 27.8813 27.1091 27.7106 27.0238 27.4973C26.6825 26.5586 25.7011 25.4066 24.0371 24.084C22.1598 22.5906 20.2825 21.14 18.4051 19.6893C18.3625 19.6466 18.3198 19.5186 18.3198 19.2626C18.3198 18.7933 18.4051 18.2813 18.5758 17.5986C18.7465 16.8733 18.9171 16.4466 19.1305 16.276C20.3678 15.124 23.0985 13.6306 27.2371 11.796C31.4184 9.91865 34.1918 8.97998 35.5144 8.97998C35.8984 8.97998 36.1971 9.06532 36.3251 9.23598C36.4958 9.40665 36.5384 9.66265 36.5384 10.0466C36.5384 10.9426 36.0264 12.052 34.9598 13.332C34.5758 13.7586 34.1491 14.228 33.7651 14.6546C33.1251 15.38 32.7411 15.9773 32.4851 16.4466C32.3144 16.7453 32.2291 16.916 32.2291 16.916C32.1864 16.916 32.1864 16.7026 32.2718 16.3186C32.3144 16.0626 32.4851 15.6786 32.7838 15.124C33.0398 14.612 33.2531 14.2706 33.3811 14.1426C34.5758 12.82 35.2584 11.924 35.5144 11.4973C35.5144 11.4546 35.5144 11.412 35.5144 11.3693C35.5144 11.1133 35.1731 11.028 34.5331 11.028C33.4664 11.028 30.9918 11.924 27.0238 13.716C23.0558 15.5506 20.3678 17.044 18.9171 18.196C18.9171 18.196 18.9598 18.2386 19.0878 18.324Z" fill="#124D73"/>
<path d="M34.7038 14.6547C36.7518 13.9293 38.9278 13.1187 41.2318 12.2653C41.3598 12.2227 41.4025 12.2227 41.4451 12.2227C41.4878 12.2653 41.4451 12.308 41.4451 12.436C41.3171 12.7773 41.1891 12.948 41.1038 12.9907C39.1838 13.6733 36.9225 14.5693 34.3198 15.636C34.4051 15.3373 34.5331 14.996 34.7038 14.6547Z" fill="#124D73"/>
<path d="M37.946 20.2013L38.5007 19.0493C38.5434 18.964 38.586 18.9213 38.6287 18.9213C38.714 18.9213 39.0127 19.1347 39.61 19.5187C40.1647 19.9027 40.4634 20.116 40.4634 20.2013C40.4634 20.4573 40.2074 20.9693 39.738 21.78C39.6954 21.8653 39.61 21.908 39.5674 21.8653C39.0554 21.524 38.5434 21.14 37.9034 20.7133C37.69 21.1827 37.5194 21.5667 37.306 21.908C37.2634 21.9933 37.178 22.036 37.1354 21.9933C36.5807 21.5667 36.026 21.14 35.386 20.7987C35.3434 20.7987 35.3434 20.756 35.386 20.6707L36.1114 19.22C36.154 19.1347 36.1967 19.092 36.2394 19.092C36.282 19.092 36.5807 19.2627 37.05 19.5613C37.5194 19.8173 37.818 20.0733 37.946 20.2013Z" fill="#124D73"/>
<path d="M40.3781 28.6493C39.0555 28.6493 38.3728 27.8813 38.3302 26.3453C38.3302 26.26 38.2875 26.2173 38.2021 26.2173C38.0741 26.2173 37.9461 26.3027 37.8608 26.4307C37.1355 27.284 36.6662 27.8387 36.4102 28.0093C35.4715 28.82 34.4902 29.204 33.4662 29.204V26.9853C34.5328 26.9853 35.4715 26.6867 36.2822 26.132C36.6235 25.9187 37.3488 25.236 38.5008 24.084C38.6288 23.956 38.7568 23.9133 38.8848 23.9133C39.0128 23.9133 39.0982 23.956 39.0982 24.1267C39.0982 24.1693 39.0981 24.2973 39.0555 24.4253C39.0128 24.5533 39.0128 24.6813 39.0128 24.7667C39.0128 25.1933 39.0982 25.5347 39.3115 25.876C39.5675 26.26 39.9088 26.4307 40.3781 26.4307V28.6493Z" fill="#124D73"/>
<path d="M44.8154 0.788003C44.8154 0.958669 44.6021 1.3 44.2181 1.85467C43.7488 2.49467 43.3221 2.964 42.8955 3.22C42.6395 3.39067 41.7861 3.68933 40.3355 4.07333C40.0795 4.116 39.9515 4.15867 39.9515 4.15867C39.9941 4.116 40.0795 4.07333 40.2501 3.94533C40.4208 3.77467 40.9328 3.51867 41.8288 3.04933C42.6395 2.62267 43.1088 2.324 43.2368 2.196C43.2795 2.15333 43.2794 2.15333 43.2794 2.11067C43.2794 1.94 42.5541 1.85467 41.1035 1.85467C41.1035 1.85467 40.8475 1.85467 40.2928 1.85467C39.9941 1.85467 39.8661 1.85467 39.8661 1.812C39.8661 1.76934 39.9088 1.684 39.9941 1.59867L40.5061 0.745337C40.6768 0.489337 40.9328 0.31867 41.3595 0.276003C41.4875 0.233337 41.8288 0.233337 42.3408 0.233337C43.9621 0.233337 44.8154 0.44667 44.8154 0.788003Z" fill="#124D73"/>
<path d="M43.7065 22.1213C43.7065 24.2547 43.3225 25.9613 42.5545 27.156C41.9145 28.18 41.1465 28.7347 40.2505 28.7347V26.516C40.9758 26.516 41.6585 26.26 42.2985 25.7053C42.5118 25.5347 42.5972 24.9373 42.5972 23.9133C42.5972 23.316 42.4265 20.7987 42.1278 16.404C41.8292 12.052 41.6585 9.44936 41.6585 8.72402C41.6585 7.99869 41.5305 7.44403 41.3172 6.97469C41.3172 6.71869 41.5305 6.07869 41.9145 5.09736C41.9571 5.01203 41.9998 4.9267 42.0425 4.9267C42.0852 4.9267 42.1278 4.96936 42.2131 5.09736C42.3411 5.35336 42.5972 6.03603 43.0238 7.18803C43.4932 8.38269 43.7491 9.10802 43.8345 9.36402C43.8771 9.57736 43.9198 9.70536 43.9198 9.83335C43.9198 10.1747 43.6211 10.004 42.9811 9.27869C42.8958 9.15069 42.8531 9.19336 42.8531 9.40669C42.8531 9.44936 42.9811 11.412 43.2798 15.252C43.5785 19.0493 43.7065 21.3533 43.7065 22.1213Z" fill="#124D73"/>
<path d="M45.797 17.3853C45.797 16.66 45.669 16.1053 45.4557 15.636C45.4557 15.38 45.669 14.7827 46.053 13.8013C46.0957 13.6733 46.181 13.6307 46.181 13.6307C46.2237 13.6307 46.2664 13.6733 46.3517 13.8013C46.4797 14.0573 46.7357 14.74 47.1624 15.892C47.6317 17.0867 47.8877 17.812 47.973 18.068C48.0157 18.2813 48.0584 18.452 48.0584 18.5373C48.0584 18.8787 47.7597 18.6653 47.1197 17.94C47.0344 17.812 46.9917 17.8973 46.9917 18.068C46.9917 18.1107 47.1624 20.4147 47.5037 24.8947C47.845 29.3747 47.973 31.892 47.973 32.4466C47.973 34.196 47.717 35.6893 47.205 37.012C47.077 37.268 46.9917 37.4386 46.949 37.5666C46.821 37.7373 46.7784 37.78 46.7784 37.652C46.7357 37.524 46.7784 37.2253 46.7784 36.7986C46.8637 36.2013 46.9064 35.5186 46.9064 34.708C46.9064 33.9826 46.7357 31.0813 46.3517 25.9613C46.0104 20.884 45.797 18.0253 45.797 17.3853Z" fill="#124D73"/>
</svg>
