<svg width="48" height="33" viewBox="0 0 48 33" fill="none" xmlns="http://www.w3.org/2000/svg">
<path d="M5.01289 17.672L5.48658 16.6852C5.52605 16.6062 5.56552 16.5668 5.605 16.5668C5.68394 16.5668 5.96026 16.7247 6.43394 17.0799C6.90762 17.4352 7.18394 17.5931 7.18394 17.672C7.18394 17.8694 6.98657 18.3431 6.55236 19.0141C6.51289 19.0931 6.43394 19.1326 6.39447 19.0931C5.96026 18.7773 5.48657 18.4615 4.97342 18.1062C4.81552 18.501 4.61816 18.8562 4.46026 19.1326C4.42079 19.2115 4.38132 19.251 4.30237 19.2115C3.82869 18.8562 3.31553 18.501 2.80237 18.1852C2.7629 18.1852 2.7629 18.1457 2.80237 18.0668L3.43395 16.8431C3.47342 16.7641 3.5129 16.7247 3.55237 16.7247C3.59184 16.7247 3.82868 16.8431 4.26289 17.1194C4.61816 17.3168 4.89447 17.5141 5.01289 17.672Z" fill="#124D73"/>
<path d="M12.0394 27.0273C11.3684 27.0273 10.9342 26.9878 10.6579 26.9089C10.0263 26.7115 9.51313 26.3167 9.11839 25.7246C8.88155 25.2904 8.60524 24.8562 8.3684 24.422C8.17103 24.0668 7.93419 23.8694 7.69735 23.8694C6.98682 23.8694 6.23682 24.501 5.44735 25.6852C5.28946 25.922 5.05262 26.4746 4.69736 27.3825C4.34209 28.2904 4.0263 28.9615 3.74999 29.3562C3.31578 29.9878 2.88157 30.2641 2.40789 30.2641C1.69736 30.2641 1.10526 29.7115 0.631577 28.6062C0.197367 27.6588 0 26.6325 0 25.6062C0 24.3431 0.118421 23.3168 0.355263 22.5668C0.43421 22.2904 0.513157 22.172 0.552631 22.172C0.631578 22.172 0.631577 22.3299 0.631577 22.6852C0.513156 23.4746 0.473683 24.1457 0.473683 24.6983C0.473683 27.3431 1.10526 28.6852 2.32894 28.6852C2.8421 28.6852 3.31578 28.2904 3.71052 27.5404C4.14473 26.6325 4.57894 25.6852 5.01314 24.7378C5.40788 23.9878 5.84209 23.3168 6.39472 22.7641C6.98682 22.2115 7.49998 21.9352 7.93419 21.9352C8.28945 21.9352 8.60524 22.1325 8.88155 22.6062C9.1184 23.001 9.35524 23.3957 9.59208 23.7904C9.94734 24.2641 10.3026 24.6194 10.6579 24.7773C11.0131 24.9746 11.4868 25.0536 12.0789 25.0536L12.0394 27.0273Z" fill="#124D73"/>
<path d="M11.4475 17.5535C13.2239 16.9219 15.0791 16.2114 17.0923 15.5009C17.2107 15.4614 17.2502 15.4614 17.2502 15.4614C17.2896 15.5009 17.2502 15.5404 17.2502 15.6193C17.1317 15.8956 17.0528 16.0535 16.9738 16.093C15.316 16.6851 13.3423 17.4746 11.0923 18.3825C11.1712 18.1456 11.2897 17.8693 11.4475 17.5535Z" fill="#124D73"/>
<path d="M12.434 31.3299L12.9077 30.343C12.9472 30.2641 12.9867 30.2246 13.0261 30.2246C13.1051 30.2246 13.3814 30.3825 13.8551 30.7378C14.3288 31.093 14.6051 31.2509 14.6051 31.3299C14.6051 31.5272 14.4077 32.0009 13.9735 32.672C13.934 32.7509 13.8551 32.7904 13.8156 32.7509C13.3814 32.4351 12.9077 32.1193 12.3946 31.7641C12.2367 32.1588 12.0393 32.5141 11.8814 32.7904C11.8419 32.8693 11.8025 32.9088 11.7235 32.8693C11.2498 32.5141 10.7367 32.1588 10.2235 31.843C10.184 31.843 10.184 31.8036 10.2235 31.7246L10.8551 30.5009C10.8946 30.422 10.934 30.3825 10.9735 30.3825C11.013 30.3825 11.2498 30.5009 11.684 30.7772C12.1182 31.0536 12.3156 31.172 12.434 31.3299Z" fill="#124D73"/>
<path d="M17.9211 26.593C16.7763 26.593 16.1842 25.922 16.1448 24.6194C16.1448 24.5404 16.1053 24.5404 16.0658 24.5404C15.9474 24.5404 15.8685 24.6194 15.75 24.6983C15.1185 25.4483 14.6842 25.8825 14.5264 26.0404C13.6974 26.7509 12.8685 27.0667 11.9606 27.0667V25.172C12.8685 25.172 13.6974 24.9352 14.4079 24.422C14.6842 24.2246 15.3553 23.672 16.3421 22.6457C16.4606 22.5273 16.5395 22.4878 16.6579 22.4878C16.7763 22.4878 16.8158 22.5273 16.8158 22.6457C16.8158 22.6852 16.8158 22.8036 16.7763 22.922C16.7369 23.0404 16.7369 23.1588 16.7369 23.2378C16.7369 23.5931 16.8158 23.9088 16.9737 24.1852C17.1711 24.5009 17.4869 24.6588 17.8816 24.6588L17.9211 26.593Z" fill="#124D73"/>
<path d="M22.7761 31.3299C24.5524 30.6983 26.4077 29.9878 28.4208 29.2773C28.5392 29.2378 28.5787 29.2378 28.5787 29.2378C28.6182 29.2773 28.5787 29.3167 28.5787 29.3957C28.4603 29.672 28.3813 29.8299 28.3024 29.8694C26.6445 30.4615 24.6708 31.2509 22.4208 32.1588C22.5393 31.922 22.6182 31.6457 22.7761 31.3299Z" fill="#124D73"/>
<path d="M27.4344 18.1457L27.9081 17.1588C27.9476 17.0799 27.987 17.0404 28.0265 17.0404C28.1055 17.0404 28.3818 17.1983 28.8554 17.5141C29.3291 17.8299 29.6054 18.0272 29.6054 18.1062C29.6054 18.3036 29.4081 18.7772 28.9739 19.4483C28.9344 19.5272 28.8554 19.5272 28.816 19.5272C28.3818 19.2115 27.9081 18.8957 27.3949 18.5404C27.237 18.9351 27.0397 19.2904 26.8818 19.5667C26.8423 19.6457 26.8028 19.6851 26.7239 19.6457C26.2502 19.2904 25.737 18.9351 25.2239 18.6193C25.1844 18.6193 25.1844 18.5799 25.2239 18.5404L25.8555 17.2772C25.8949 17.1983 25.9344 17.1588 25.9739 17.1588C26.0134 17.1588 26.2502 17.3167 26.6844 17.593C27.0397 17.8299 27.316 18.0272 27.4344 18.1457Z" fill="#124D73"/>
<path d="M25.7368 16.1719C25.6973 16.1719 25.6973 16.1325 25.7368 16.093L26.3289 14.8298C26.3683 14.7509 26.4078 14.7114 26.4473 14.7114C26.5262 14.7114 26.8025 14.8693 27.2762 15.1851C27.7499 15.5009 27.9868 15.6983 27.9868 15.7772C27.9868 15.9746 27.7894 16.4483 27.3552 17.1193C27.3157 17.1983 27.2368 17.2377 27.1973 17.1588C26.7236 16.843 26.2499 16.5272 25.7368 16.1719Z" fill="#124D73"/>
<path d="M24.0789 26.3167C23.2499 26.3167 22.6973 26.0799 22.342 25.5667C22.1446 25.2509 22.0262 24.8167 21.9867 24.1851C21.9867 24.1062 21.9473 24.1062 21.9078 24.1062C21.7894 24.1062 21.7104 24.1851 21.592 24.2641C20.9604 25.0141 20.5262 25.4483 20.3683 25.6062C19.5394 26.3167 18.7104 26.6325 17.8026 26.6325V24.6983C18.7499 24.6983 19.5394 24.4614 20.2499 23.9878C20.5262 23.7904 21.1973 23.1983 22.1841 22.2115C22.3025 22.093 22.421 22.0141 22.4999 22.0141C22.6578 22.0141 22.7367 22.1325 22.6578 22.3693C22.5789 22.6062 22.5394 22.8036 22.5394 23.0009C22.5394 23.4351 22.7367 23.7904 23.092 24.0272C23.4473 24.2641 23.8815 24.3825 24.4341 24.3825C25.2236 24.3825 25.8946 24.0667 26.4078 23.3957C26.7236 22.8825 27.0788 22.4088 27.3946 21.8957C27.5131 21.7772 27.592 21.7378 27.6709 21.7378C27.7499 21.7378 27.8288 21.8167 27.8288 21.9351C27.8288 22.0141 27.8288 22.093 27.8288 22.1325C27.7104 22.6851 27.6315 22.922 27.6315 22.8825C27.6315 23.1193 27.7499 23.3167 28.0262 23.5536C28.3025 23.7904 28.6183 23.9088 28.9736 23.9088C29.4078 23.9088 29.6841 23.7904 29.8025 23.5536C29.8025 23.5141 29.7236 23.4351 29.6052 23.3167C29.4867 23.1983 29.4473 23.1193 29.4473 23.0799C29.4473 23.0009 29.5657 22.5272 29.842 21.7378C29.8815 21.5799 29.9604 21.5404 29.9999 21.5404C30.1183 21.5404 30.2367 21.7378 30.3551 22.093C30.4736 22.3693 30.513 22.6062 30.513 22.7641C30.513 23.5536 30.3551 24.2246 30.0394 24.7772C29.6446 25.4878 29.0525 25.8035 28.3025 25.8035C27.7499 25.8035 27.2762 25.4088 26.8025 24.5799C26.1315 25.6851 25.2236 26.3167 24.0789 26.3167Z" fill="#124D73"/>
<path d="M31.9734 23.4746C32.1312 24.3825 32.4076 24.9351 32.8418 25.2509C33.0786 25.3694 33.3944 25.4483 33.8681 25.4483V27.3825C33.1576 27.3825 32.6444 27.2246 32.2497 26.9483C31.697 26.5536 31.3418 25.8036 31.1444 24.6983C31.026 24.0273 30.9076 22.0141 30.8286 18.7378C30.7102 15.1457 30.6313 12.9352 30.5523 12.1457C30.3944 10.8431 30.1576 9.57992 29.8023 8.43519C29.8023 8.1194 29.9207 7.64572 30.197 7.05361C30.2365 6.89572 30.276 6.81677 30.3549 6.81677C30.3944 6.81677 30.4339 6.89572 30.5128 7.01414C30.9076 7.80361 31.2234 9.14571 31.4207 11.0404C31.5391 12.2247 31.6576 14.5536 31.7365 18.0667C31.8549 21.343 31.9339 23.1588 31.9734 23.4746Z" fill="#124D73"/>
<path d="M35.2497 12.1063C37.026 11.4747 38.8813 10.7642 40.8945 10.0536C41.0129 10.0142 41.0523 10.0142 41.0523 10.0142C41.0918 10.0536 41.0523 10.0931 41.0523 10.1721C40.9339 10.4484 40.855 10.6063 40.776 10.6457C39.1181 11.2378 37.1445 12.0273 34.8945 12.9352C35.0129 12.7378 35.0918 12.422 35.2497 12.1063Z" fill="#124D73"/>
<path d="M36.8682 18.1062C36.8288 18.0667 36.8288 18.0272 36.8682 17.9878L37.4998 16.7246C37.5393 16.6457 37.5788 16.6062 37.6182 16.6062C37.6972 16.6062 37.9735 16.7641 38.4472 17.1194C38.9209 17.4351 39.1577 17.6325 39.1577 17.7115C39.1577 17.9088 38.9603 18.343 38.5261 19.0536C38.4866 19.1325 38.4077 19.172 38.3682 19.1325C37.8945 18.7772 37.3814 18.422 36.8682 18.1062Z" fill="#124D73"/>
<path d="M39.9867 22.764C39.6314 22.4877 38.9604 22.3693 37.9736 22.3693C37.6183 22.3693 37.263 22.4088 36.9867 22.4482C37.6183 22.8824 38.0525 23.2377 38.3288 23.5535C38.8814 23.2772 39.3946 23.0009 39.9867 22.764ZM37.8946 25.4087C36.6709 26.2377 35.9209 26.7114 35.6446 26.8693C35.0525 27.1851 34.4209 27.343 33.7894 27.343V25.4087C34.6972 25.4087 35.6841 25.0535 36.7893 24.3824C36.4341 23.9877 35.9999 23.6719 35.5262 23.3956C35.0525 23.1588 34.7367 23.0403 34.4999 23.0403C34.0262 23.0403 33.7104 23.1193 33.4736 23.2377C33.3946 23.2772 33.3157 23.3167 33.2762 23.3167C33.1973 23.3167 33.1578 23.2772 33.1578 23.1982C33.1578 23.1193 33.1972 23.0403 33.2367 23.0009L33.8288 21.6588C33.9078 21.4219 34.4604 21.1851 35.4867 20.9482C36.4736 20.7509 37.4209 20.6324 38.2893 20.6324C40.0262 20.6324 41.3683 21.0272 42.3946 21.7772C42.6709 21.9745 42.7893 22.093 42.7893 22.1719C42.7893 22.2114 42.7499 22.3298 42.6709 22.4482L42.1183 23.5535C41.5262 23.7509 40.6972 24.1061 39.6314 24.5403C40.2235 25.093 41.092 25.3693 42.1972 25.3693V27.3035C41.3683 27.3035 40.6972 27.2245 40.2235 27.0272C39.592 26.8298 38.842 26.2772 37.8946 25.4087Z" fill="#124D73"/>
<path d="M44.0528 1.32993C44.0528 1.48782 43.8949 1.76414 43.5396 2.23782C43.1449 2.79045 42.7896 3.18519 42.4344 3.42203C42.237 3.57992 41.487 3.81677 40.2239 4.17203C39.987 4.2115 39.8686 4.25097 39.8686 4.25097C39.9081 4.2115 39.987 4.17203 40.1054 4.05361C40.2633 3.93519 40.6976 3.65887 41.4475 3.30361C42.1581 2.90887 42.5528 2.67203 42.6712 2.59308C42.7107 2.55361 42.7107 2.55361 42.7107 2.51414C42.7107 2.35624 42.0791 2.27729 40.816 2.27729C40.816 2.27729 40.5791 2.27729 40.1054 2.27729C39.8686 2.27729 39.7502 2.2773 39.7502 2.23782C39.7502 2.19835 39.7897 2.15887 39.8686 2.04045L40.3028 1.29046C40.4212 1.05361 40.6581 0.935194 41.0133 0.856247C41.1318 0.816773 41.4081 0.816772 41.8818 0.816772C43.3423 0.856246 44.0528 1.01414 44.0528 1.32993Z" fill="#124D73"/>
<path d="M45 21.6194C45 23.4747 44.6447 24.8957 44.0132 25.9615C43.4605 26.8694 42.7895 27.3036 42.0395 27.3036V25.3694C42.6711 25.3694 43.2237 25.1326 43.8158 24.6589C43.9737 24.501 44.0921 24.0273 44.0921 23.1194C44.0921 22.6062 43.9342 20.4352 43.6974 16.6457C43.4211 12.8563 43.3026 10.6458 43.3026 10.0142C43.3026 9.3826 43.1842 8.90892 43.0263 8.51418C43.0263 8.27734 43.1842 7.76418 43.5395 6.89576C43.579 6.81682 43.6184 6.77734 43.6579 6.77734C43.6974 6.77734 43.7369 6.81682 43.8158 6.93524C43.9342 7.13261 44.1711 7.76418 44.5263 8.75102C44.9211 9.77734 45.1579 10.4089 45.1974 10.6458C45.2368 10.8431 45.2763 10.9615 45.2763 11.0405C45.2763 11.3168 45 11.1589 44.4474 10.5668C44.3684 10.4879 44.3684 10.4879 44.3684 10.6458C44.3684 10.6852 44.4869 12.3826 44.7237 15.6984C44.8816 19.0142 45 20.9878 45 21.6194Z" fill="#124D73"/>
<path d="M46.0659 10.093C46.0659 9.46146 45.9474 8.98778 45.7896 8.59304C45.7896 8.3562 45.9474 7.84304 46.3027 7.0141C46.3422 6.89568 46.3817 6.8562 46.4211 6.8562C46.4606 6.8562 46.5001 6.89568 46.5395 7.0141C46.658 7.25094 46.8948 7.84304 47.2501 8.82988C47.6448 9.85619 47.8816 10.4878 47.9211 10.7246C47.9606 10.922 48.0001 11.0404 48.0001 11.1588C48.0001 11.4351 47.7238 11.2772 47.1711 10.6457C47.0922 10.5667 47.0922 10.6062 47.0922 10.7641C47.0922 10.8036 47.2501 12.7772 47.5264 16.6457C47.8027 20.5141 47.9606 22.6851 47.9606 23.1588C47.9606 24.6588 47.7632 25.9614 47.2895 27.0667C47.1711 27.3035 47.0922 27.4614 47.0527 27.5404C46.9738 27.6983 46.8948 27.7377 46.8948 27.6193C46.8553 27.5009 46.8948 27.264 46.8948 26.9088C46.9738 26.3956 47.0132 25.8035 47.0132 25.1325C47.0132 24.5009 46.8553 22.0141 46.5395 17.593C46.2238 13.093 46.0659 10.6062 46.0659 10.093Z" fill="#124D73"/>
</svg>
