<svg width="48" height="49" viewBox="0 0 48 49" fill="none" xmlns="http://www.w3.org/2000/svg">
<path d="M17.6108 22.4675L18.2772 21.1346C18.3217 21.0458 18.4105 20.9569 18.4549 20.9569C18.5438 20.9569 18.9437 21.1791 19.5657 21.6233C20.2321 22.0676 20.5875 22.3342 20.5875 22.423C20.5875 22.6896 20.3209 23.3116 19.6989 24.2446C19.6101 24.3335 19.5657 24.3779 19.4768 24.3335C18.8992 23.8892 18.2328 23.4449 17.5219 23.0006C17.2998 23.5338 17.0332 24.0225 16.8111 24.3779C16.7667 24.5112 16.6778 24.5112 16.5889 24.4668C15.9225 23.978 15.2561 23.4893 14.5452 23.045C14.5008 23.0006 14.5008 22.9562 14.5452 22.8673L15.3894 21.1791C15.4338 21.0902 15.4782 21.0458 15.5671 21.0458C15.656 21.0458 15.9225 21.2235 16.5001 21.5789C17.0777 21.9343 17.4331 22.2898 17.6108 22.4675Z" fill="#124D73"/>
<path d="M18.8107 30.509C18.1887 29.6649 17.6555 29.265 17.1224 29.265C16.3671 29.265 15.9673 29.4871 15.9673 29.887C15.9673 30.3757 16.5004 30.6423 17.5667 30.6423C17.9665 30.6423 18.3664 30.5978 18.8107 30.509ZM0.0618872 33.7967C0.239601 32.8193 0.461743 31.9751 0.728313 31.2643C0.81717 30.9977 0.906026 30.9088 0.994883 30.9088C1.08374 30.9088 1.08374 31.0421 1.03931 31.3531C0.639457 33.5301 0.461744 34.7297 0.461744 34.9963C0.461744 36.3291 0.906028 37.5287 1.7946 38.6394C2.99416 40.1055 4.72687 40.8608 6.99272 40.8608C8.992 40.8608 11.1246 40.4165 13.3904 39.4835C15.212 38.7282 16.8558 37.7952 18.3664 36.6401C19.6992 35.6627 20.3657 34.9518 20.3657 34.5075C20.3657 33.9744 20.2324 33.3968 20.0102 32.7748C19.4771 32.9526 18.7662 33.0414 17.7888 33.0414C15.7451 33.0414 14.7233 32.3306 14.7233 30.9533C14.7233 29.887 15.0787 28.954 15.7895 28.1099C16.4115 27.3546 17.078 26.9991 17.7888 26.9991C18.322 26.9991 18.944 27.3546 19.5215 28.021C20.0547 28.5986 20.5878 29.3539 21.0321 30.2868C21.0765 30.2868 21.1654 30.2424 21.2987 30.198V32.5527L21.2098 32.5971C21.2098 34.8185 20.81 36.3735 20.0547 37.3065C18.944 38.6394 17.2557 39.9278 15.0343 41.1718C12.2353 42.7268 9.61399 43.5265 7.17043 43.5265C4.54916 43.5265 2.68316 42.6379 1.4836 40.8608C0.5506 39.528 0.106315 37.8397 0.106315 35.7515C-0.0713987 35.0407 0.0174588 34.4187 0.0618872 33.7967Z" fill="#124D73"/>
<path d="M19.3883 9.71656C21.7874 8.82799 24.3643 7.89499 27.0744 6.91757C27.2077 6.87314 27.2966 6.82871 27.2966 6.87314C27.341 6.91757 27.341 7.00642 27.2521 7.09528C27.0744 7.45071 26.9856 7.71728 26.8967 7.76171C24.6309 8.56142 21.9652 9.6277 18.8996 10.8717C19.0329 10.5163 19.1662 10.1608 19.3883 9.71656Z" fill="#124D73"/>
<path d="M27.6965 36.5956C26.408 36.5956 25.475 36.1069 24.853 35.0851C24.2755 34.1077 24.0089 32.0195 24.0089 28.7762C23.5646 30.6867 22.5872 31.9751 21.0766 32.5971V30.2424C22.7649 29.5315 23.6535 28.5541 23.6535 27.3101C23.6535 24.5111 23.5202 21.6233 23.2092 18.6021C23.0759 17.2249 22.8538 15.5366 22.4983 13.5817C22.7205 12.2489 22.8982 11.4936 22.987 11.3159C23.0759 11.1382 23.1203 11.0493 23.2092 11.0493C23.2536 11.0493 23.298 11.1382 23.3425 11.3603C23.8756 13.2707 24.3199 15.6254 24.6309 18.4244C24.7198 19.2241 24.853 21.49 24.9863 25.2664C25.0752 28.5985 25.2529 30.7311 25.4306 31.6641C25.6528 32.6859 25.9638 33.3524 26.408 33.7078C26.719 33.9299 27.1633 34.0632 27.7409 34.0632V36.5956H27.6965Z" fill="#124D73"/>
<path d="M29.6955 23.4005C32.0946 22.5119 34.6715 21.579 37.3816 20.6015C37.5149 20.5571 37.6037 20.5127 37.6037 20.5571C37.6482 20.6015 37.6482 20.6904 37.5593 20.7792C37.3816 21.1347 37.2927 21.4012 37.2039 21.4457C34.938 22.2454 32.2723 23.3117 29.2068 24.5557C29.34 24.2002 29.4733 23.8448 29.6955 23.4005Z" fill="#124D73"/>
<path d="M36.0044 30.3313C35.5157 29.9759 34.5827 29.7982 33.2943 29.7982C32.8056 29.7982 32.3613 29.8426 31.9614 29.887C32.8056 30.4646 33.4276 30.9533 33.783 31.3976C34.4939 30.9977 35.2491 30.6423 36.0044 30.3313ZM33.161 33.93C31.5172 35.0407 30.4953 35.7072 30.0954 35.9293C29.2957 36.3736 28.4516 36.5513 27.563 36.5513V33.93C28.807 33.93 30.1399 33.4857 31.6504 32.5527C31.1617 32.0196 30.5842 31.5753 29.9177 31.2199C29.2957 30.9089 28.807 30.7312 28.5405 30.7312C27.9185 30.7312 27.4297 30.82 27.1632 30.9977C27.0743 31.0866 26.941 31.0866 26.8522 31.0866C26.7633 31.0866 26.6745 31.0422 26.6745 30.9089C26.6745 30.82 26.7189 30.7312 26.7633 30.5979L27.563 28.7763C27.6963 28.4653 28.4516 28.1543 29.8289 27.8433C31.1617 27.5323 32.4502 27.399 33.6497 27.399C36.0044 27.399 37.8704 27.9322 39.2477 28.954C39.6031 29.2206 39.7808 29.3983 39.7808 29.4872C39.7808 29.576 39.7364 29.7093 39.6031 29.887L38.8478 31.3976C38.0037 31.6642 36.893 32.1529 35.4713 32.7305C36.271 33.4857 37.4706 33.8856 38.9811 33.8856V36.5069C37.826 36.5069 36.9374 36.3736 36.3154 36.107C35.5157 35.796 34.4494 35.0852 33.161 33.93Z" fill="#124D73"/>
<path d="M41.8245 6.07341C41.8245 6.29555 41.6024 6.69541 41.1137 7.31741C40.5805 8.07269 40.0474 8.60583 39.6031 8.96126C39.2921 9.1834 38.3147 9.4944 36.582 9.98311C36.271 10.0275 36.0933 10.072 36.0933 10.072C36.1377 10.0275 36.2266 9.93868 36.4487 9.8054C36.6709 9.62768 37.2928 9.27225 38.2703 8.78354C39.2033 8.2504 39.7808 7.9394 39.9141 7.80612C39.9586 7.76169 39.9586 7.71726 39.9586 7.71726C39.9586 7.49512 39.1144 7.40626 37.4261 7.40626C37.4261 7.40626 37.1151 7.40626 36.4487 7.45069C36.1377 7.49512 35.96 7.45069 35.96 7.40626C35.96 7.36183 36.0044 7.27298 36.0933 7.13969L36.7153 6.02898C36.893 5.71798 37.204 5.54027 37.6927 5.45141C37.826 5.40698 38.2258 5.40698 38.8478 5.40698C40.8471 5.40698 41.8245 5.62912 41.8245 6.07341Z" fill="#124D73"/>
<path d="M42.8463 28.7762C42.8463 31.3086 42.402 33.2635 41.469 34.7296C40.7138 35.9736 39.8252 36.5512 38.7589 36.5512V33.9299C39.6031 33.9299 40.4028 33.6189 41.158 32.9525C41.3802 32.7748 41.5135 32.0639 41.5135 30.8643C41.5135 30.1535 41.3358 27.2212 40.9803 22.0675C40.6249 16.9583 40.4472 13.8927 40.4472 13.0486C40.4472 12.2044 40.3139 11.538 40.0473 11.0048C40.0473 10.6939 40.2695 9.93857 40.7582 8.82786C40.8471 8.69458 40.8915 8.65015 40.8915 8.65015C40.9359 8.65015 41.0248 8.739 41.0692 8.87229C41.2025 9.18329 41.5579 9.983 42.0466 11.3159C42.5798 12.6931 42.8908 13.5817 42.9796 13.8927C43.0685 14.1593 43.0685 14.337 43.0685 14.4258C43.0685 14.8257 42.713 14.6036 41.9578 13.7594C41.8689 13.6261 41.8245 13.6706 41.8245 13.8927C41.8245 13.9371 42.0022 16.2474 42.3132 20.7347C42.6686 25.1775 42.8463 27.8876 42.8463 28.7762Z" fill="#124D73"/>
<path d="M45.3343 12.9154C45.3343 12.0712 45.201 11.4048 44.9344 10.8717C44.9344 10.5607 45.1566 9.84981 45.6453 8.69468C45.7342 8.56139 45.7786 8.47253 45.823 8.47253C45.8674 8.47253 45.9119 8.56139 46.0007 8.69468C46.134 9.00568 46.4894 9.80539 46.9782 11.1382C47.5113 12.5155 47.8223 13.4041 47.9111 13.7151C48 13.9817 48 14.1594 48 14.2927C48 14.6481 47.6446 14.4259 46.8893 13.5818C46.8004 13.4485 46.756 13.4929 46.756 13.7151C46.756 13.8039 46.9337 16.4696 47.3336 21.7122C47.689 26.9548 47.9111 29.9315 47.9111 30.5979C47.9111 32.6416 47.6002 34.4187 47.0226 35.9293C46.8893 36.2403 46.756 36.4624 46.7116 36.5957C46.5783 36.8179 46.4894 36.8623 46.4894 36.729C46.445 36.5513 46.445 36.2403 46.5339 35.7516C46.6227 35.0407 46.6672 34.241 46.6672 33.308C46.6672 32.4639 46.445 29.0429 46.0007 23.0006C45.5564 17.0472 45.3343 13.6707 45.3343 12.9154Z" fill="#124D73"/>
</svg>
