<svg width="48" height="49" viewBox="0 0 48 49" fill="none" xmlns="http://www.w3.org/2000/svg">
<path d="M8.16127 33.2016L8.71458 32.0489C8.76069 31.9567 8.8068 31.9106 8.85291 31.9106C8.94513 31.9106 9.2679 32.095 9.7751 32.4639C10.3284 32.8327 10.6051 33.0633 10.6051 33.1094C10.6051 33.3399 10.3745 33.8472 9.86732 34.631C9.82121 34.7232 9.72899 34.7693 9.68288 34.6771C9.22179 34.3082 8.66847 33.9394 8.06905 33.5705C7.88461 34.0316 7.65407 34.4005 7.46963 34.7232C7.42352 34.8154 7.37741 34.8616 7.28519 34.8155C6.73188 34.4005 6.17856 33.9855 5.57914 33.6166C5.53303 33.6166 5.53303 33.5705 5.57914 33.4783L6.31689 32.0489C6.363 31.9567 6.40911 31.9106 6.45522 31.9106C6.50133 31.9106 6.77799 32.0489 7.23908 32.3716C7.70017 32.8327 8.02294 33.0633 8.16127 33.2016Z" fill="#124D73"/>
<path d="M13.8328 44.2218C13.0951 44.2218 12.5418 44.1757 12.2651 44.0835C11.5735 43.899 10.9741 43.4379 10.513 42.7463C10.2363 42.2391 9.95965 41.778 9.63688 41.2708C9.40633 40.8558 9.12968 40.6714 8.85302 40.6714C8.02305 40.6714 7.19308 41.363 6.27089 42.7463C6.13256 43.0229 5.8559 43.6224 5.39481 44.6829C4.97982 45.6973 4.61095 46.4811 4.28818 46.9422C3.82709 47.6339 3.31988 48.0028 2.76657 48.0028C1.98271 48.0028 1.29106 47.3572 0.737751 46.1123C0.230547 45.0518 0 43.899 0 42.7002C0 41.2708 0.138327 40.118 0.414984 39.242C0.507203 38.9653 0.599422 38.7809 0.645532 38.7809C0.737751 38.7809 0.737752 38.9653 0.691642 39.3803C0.553314 40.2564 0.507204 41.0402 0.507204 41.6858C0.507204 44.729 1.19885 46.2045 2.62824 46.2045C3.22766 46.2045 3.73487 45.7434 4.19596 44.8673C4.70317 43.8068 5.16426 42.7463 5.67147 41.6858C6.08645 40.8097 6.63976 40.0719 7.23919 39.4725C7.88472 38.827 8.48414 38.5042 8.99135 38.5042C9.40633 38.5042 9.77521 38.7348 10.098 39.242C10.3746 39.7031 10.6513 40.118 10.9279 40.5791C11.3429 41.1324 11.7579 41.5013 12.1268 41.6858C12.5418 41.8702 13.049 42.0085 13.7406 42.0085V44.2218H13.8328Z" fill="#124D73"/>
<path d="M12.8646 28.4062C14.8934 27.6685 17.0144 26.8846 19.2738 26.0546C19.4121 26.0085 19.4582 26.0085 19.4582 26.0085C19.5043 26.0546 19.4582 26.1007 19.4582 26.1929C19.3199 26.5157 19.2277 26.7002 19.1355 26.7463C17.245 27.4379 15.0317 28.314 12.4496 29.3745C12.5879 29.0978 12.7262 28.7751 12.8646 28.4062Z" fill="#124D73"/>
<path d="M14.7089 34.3082C14.6628 34.2621 14.6628 34.216 14.7089 34.1699L15.4005 32.7405C15.4467 32.6483 15.4928 32.6021 15.5389 32.6021C15.6311 32.6021 15.9077 32.7866 16.4611 33.1555C17.0144 33.5243 17.291 33.7549 17.291 33.8471C17.291 34.0776 17.0605 34.5848 16.5533 35.3687C16.5072 35.4609 16.4149 35.507 16.3688 35.4609C15.8616 35.0459 15.3083 34.6771 14.7089 34.3082Z" fill="#124D73"/>
<path d="M20.5187 43.7146C19.2276 43.7146 18.5821 42.9768 18.4898 41.4552C18.4898 41.4091 18.4437 41.363 18.3976 41.363C18.2593 41.363 18.1671 41.4091 18.0287 41.5474C17.291 42.4235 16.8299 42.9307 16.5994 43.1151C15.6772 43.899 14.7089 44.314 13.6945 44.314V42.1468C14.755 42.1468 15.6772 41.8702 16.461 41.3169C16.7838 41.1324 17.5215 40.4408 18.6743 39.288C18.8126 39.1497 18.9048 39.1036 19.0432 39.1036C19.1815 39.1036 19.2276 39.1497 19.2276 39.288C19.2276 39.3342 19.2276 39.4264 19.1815 39.6108C19.1354 39.7491 19.1354 39.8875 19.1354 39.9336C19.1354 40.3486 19.2276 40.7174 19.412 40.9941C19.6426 41.363 20.0115 41.5474 20.4725 41.5474L20.5187 43.7146Z" fill="#124D73"/>
<path d="M17.337 28.5446C19.3658 27.8069 21.4868 27.023 23.7462 26.1931C23.8845 26.1469 23.9306 26.1469 23.9306 26.1469C23.9767 26.1931 23.9306 26.2392 23.9306 26.3314C23.7923 26.6541 23.7001 26.8386 23.6079 26.8847C21.7174 27.5763 19.5041 28.4524 16.922 29.5129C17.0603 29.2363 17.1525 28.9135 17.337 28.5446Z" fill="#124D73"/>
<path d="M33.8441 38.2737L33.0603 39.7953C33.0141 39.9336 32.8758 40.0259 32.7836 40.0259C30.3398 40.0259 28.2188 40.3947 26.4666 41.1325C26.0516 41.3169 24.8989 41.8702 23.1006 42.8385C21.9018 43.438 21.0257 43.7607 20.4724 43.7607V41.5936C21.579 41.5936 23.3773 40.9019 25.9133 39.5187C23.6539 39.1498 21.3946 38.8731 19.1813 38.6887C18.7663 38.6426 18.5358 38.5965 18.5358 38.5042V38.4581C18.7202 38.0893 18.9969 37.5821 19.3196 36.9365H23.0545C23.5156 37.0287 24.8067 37.2132 26.9277 37.5359C29.602 37.8587 31.7231 38.0432 33.3369 38.0432C33.7519 38.0432 33.9363 38.0893 33.9363 38.1815C33.8902 38.1815 33.8902 38.2276 33.8441 38.2737Z" fill="#124D73"/>
<path d="M24.2994 22.2275C26.3282 21.4898 28.4492 20.7059 30.7086 19.8759C30.8469 19.8298 30.893 19.8298 30.893 19.8298C30.9391 19.8759 30.893 19.9221 30.893 20.0143C30.7547 20.337 30.6625 20.5215 30.5703 20.5676C28.6798 21.2592 26.4665 22.1353 23.8844 23.1958C23.9766 22.9192 24.1149 22.5964 24.2994 22.2275Z" fill="#124D73"/>
<path d="M27.4811 24.3947L28.0344 23.2419C28.0805 23.1497 28.1266 23.1036 28.1727 23.1036C28.265 23.1036 28.5877 23.288 29.0949 23.6569C29.6482 24.0258 29.9249 24.2563 29.9249 24.3025C29.9249 24.533 29.6943 25.0402 29.1871 25.8241C29.141 25.9163 29.0488 25.9624 29.0027 25.8702C28.5416 25.5013 27.9883 25.1324 27.3889 24.7635C27.2044 25.2246 26.9739 25.5935 26.7895 25.9163C26.7433 26.0085 26.6972 26.0546 26.605 26.0085C26.0517 25.5935 25.4984 25.1785 24.899 24.8097C24.8529 24.8097 24.8529 24.7635 24.899 24.6713L25.6367 23.2419C25.6828 23.1497 25.7289 23.1036 25.775 23.1036C25.8212 23.1036 26.0978 23.2419 26.5589 23.5647C27.02 24.0258 27.3428 24.2563 27.4811 24.3947Z" fill="#124D73"/>
<path d="M31.4467 35.6915C29.8328 35.6915 28.7262 35.1382 28.0346 34.0777C27.804 33.7088 27.6196 33.1094 27.4351 32.3255C27.2968 31.7261 27.2046 31.4034 27.1124 31.4034C26.9279 31.4034 26.6974 31.7261 26.4207 32.3255C26.0058 33.2938 25.6369 34.0316 25.3602 34.4927C24.7147 35.461 23.9308 36.291 22.9625 36.9365H19.2277C19.2738 36.8443 19.9654 36.4293 21.3026 35.6454C22.732 34.8154 23.7925 34.0316 24.5303 33.2016C25.1297 32.5561 25.7291 31.6339 26.4207 30.4351C26.8818 29.6051 27.2507 29.1901 27.5274 29.1901C27.8501 29.1901 28.0807 29.4668 28.1729 30.0201C28.3112 30.8961 28.4957 31.4956 28.6801 31.9106C28.9107 32.3255 29.2795 32.6944 29.7406 33.0172C30.2939 33.3399 30.8472 33.5244 31.4928 33.5244V35.6915H31.4467Z" fill="#124D73"/>
<path d="M36.4725 24.3948C36.4725 24.5792 36.2881 24.902 35.8731 25.4553C35.412 26.0547 34.997 26.5158 34.582 26.7925C34.3515 26.9769 33.4754 27.2536 32.046 27.6224C31.7693 27.6685 31.631 27.6685 31.631 27.6685C31.6771 27.6224 31.7693 27.5763 31.9077 27.438C32.0921 27.2997 32.5993 27.023 33.4293 26.5619C34.2131 26.1469 34.6742 25.8703 34.8126 25.7319C34.8587 25.6858 34.8587 25.6858 34.8587 25.6397C34.8587 25.4553 34.167 25.3631 32.7376 25.3631C32.7376 25.3631 32.461 25.3631 31.9077 25.3631C31.631 25.3631 31.4927 25.3631 31.4927 25.317C31.4927 25.2709 31.5388 25.2247 31.631 25.0864L32.1382 24.2564C32.2765 23.9798 32.5532 23.8415 32.9682 23.7953C33.1065 23.7492 33.4293 23.7492 33.9365 23.7492C35.6425 23.8415 36.4725 24.0259 36.4725 24.3948Z" fill="#124D73"/>
<path d="M38.6856 34.631C39.0083 34.631 39.1467 34.5388 39.1467 34.3544C39.1467 34.1238 38.9622 33.9394 38.5933 33.801C38.1784 33.6166 37.625 33.6166 36.8873 33.7088C37.4406 34.3083 38.04 34.631 38.6856 34.631ZM31.2158 35.6915V33.5244C32.138 33.5244 33.3369 33.1555 34.7201 32.3717C34.674 32.1872 34.8124 32.0489 35.089 31.9106C35.3657 31.7722 35.5962 31.8183 35.6884 31.9567C36.6567 31.6339 37.4867 31.4495 38.0861 31.4495C38.6856 31.4495 39.1928 31.7261 39.5616 32.2333C39.9305 32.7405 40.1149 33.4322 40.1149 34.3083C40.1149 34.9999 39.9766 35.5993 39.6539 36.0143C39.3311 36.4754 38.9161 36.7059 38.455 36.7059C37.3023 36.7059 36.2879 35.8299 35.3657 34.1238C33.6135 35.1843 32.2763 35.6915 31.2158 35.6915Z" fill="#124D73"/>
<path d="M37.072 16.6023C37.1642 16.4178 37.1642 16.1873 37.1181 16.0028C37.072 15.7723 36.9797 15.634 36.7953 15.634C36.7492 15.634 36.6109 15.6801 36.4725 15.7723C36.3342 15.8645 36.2881 15.9106 36.2881 16.0028C36.2881 16.1412 36.5648 16.3256 37.072 16.6023ZM36.7031 17.5245C36.0114 17.2017 35.6887 16.8328 35.6887 16.4178C35.6887 15.9567 35.9192 15.5417 36.3342 15.1268C36.7492 14.7579 37.1181 14.6196 37.3947 14.7118C37.6253 14.804 37.7636 15.0345 37.7636 15.4495C37.7636 15.8645 37.6714 16.2795 37.5331 16.7406C37.8558 16.925 38.0864 17.1095 38.1786 17.2478C38.1786 17.4322 38.0403 17.7089 37.7175 18.17C37.6253 18.0317 37.4408 17.8933 37.1181 17.6628C36.7492 18.17 36.2881 18.6772 35.6887 19.0922C35.0431 19.5994 34.4437 19.9683 33.8904 20.1988C33.7521 20.2449 33.1527 20.4755 31.9538 20.9366C31.7694 20.9827 31.631 21.0288 31.5849 21.0288C31.5388 21.0288 31.5388 21.0288 31.5388 21.0288C31.5388 20.9827 31.631 20.8904 31.8616 20.7521C32.7377 20.2449 33.5676 19.7377 34.4437 19.1844C35.412 18.6311 36.1959 18.0778 36.7031 17.5245Z" fill="#124D73"/>
<path d="M43.3892 28.7752C43.712 28.7752 43.8503 28.6829 43.8503 28.4985C43.8503 28.268 43.6659 28.0835 43.297 27.9452C42.882 27.7608 42.3287 27.7608 41.5909 27.8991C42.1904 28.4524 42.7437 28.7752 43.3892 28.7752ZM37.2567 27.5763C37.9022 27.2997 38.6399 26.9308 39.4699 26.5158C39.4238 26.3775 39.5621 26.2852 39.8849 26.193C40.1616 26.0547 40.346 26.0547 40.4382 26.193C41.4065 25.8703 42.2365 25.7319 42.8359 25.7319C43.4353 25.7319 43.9425 26.0086 44.2653 26.5158C44.6342 27.023 44.8186 27.7146 44.8186 28.5446C44.8186 29.2363 44.6803 29.8357 44.3575 30.2968C44.0347 30.7579 43.6659 30.9884 43.1587 30.9884C42.0059 30.9884 40.9915 30.1123 40.0693 28.3602C39.8849 28.4985 38.9627 28.9135 37.2567 29.6051C36.7495 29.8357 36.2884 30.0662 35.8734 30.3429C35.4584 30.6195 35.2739 30.7579 35.2739 30.8501C35.2739 31.0345 35.4123 31.4034 35.6428 31.9106C35.4123 32.3717 35.0895 32.51 34.6745 32.2795C34.6284 32.0028 34.6284 31.7262 34.6284 31.4956C34.6284 29.6051 35.5045 28.3141 37.2567 27.5763Z" fill="#124D73"/>
<path d="M40.9452 1.10943C40.9452 1.29387 40.7607 1.61663 40.3457 2.16995C39.8846 2.76937 39.4697 3.23047 39.0547 3.50712C38.8241 3.69156 37.948 3.96822 36.5186 4.33709C36.242 4.3832 36.1037 4.3832 36.1037 4.3832C36.1498 4.33709 36.242 4.29098 36.3803 4.15266C36.5648 4.01433 37.072 3.73767 37.9019 3.27658C38.6858 2.86159 39.1469 2.58493 39.2852 2.44661C39.3313 2.4005 39.3313 2.4005 39.3313 2.35439C39.3313 2.16995 38.6397 2.07773 37.2103 2.07773C37.2103 2.07773 36.9336 2.07773 36.3803 2.07773C36.1037 2.07773 35.9653 2.07773 35.9653 2.03162C35.9653 1.98551 36.0114 1.9394 36.1037 1.80107L36.6109 0.971101C36.7492 0.694444 37.0259 0.556116 37.4408 0.510006C37.5792 0.463897 37.9019 0.463898 38.4091 0.463898C40.1152 0.556117 40.9452 0.740554 40.9452 1.10943Z" fill="#124D73"/>
<path d="M39.6078 26.5158C39.1467 24.7175 38.7778 21.582 38.409 17.0633C38.2245 14.2967 38.0862 11.8529 38.0862 9.73191C38.0862 9.04027 37.994 8.44085 37.7634 7.97975C37.7634 7.7492 37.994 7.10367 38.409 6.18148C38.4551 6.08926 38.5012 6.04315 38.5473 6.04315C38.5934 6.04315 38.6395 6.08926 38.6856 6.22759C38.7778 6.45814 39.0545 7.14978 39.5156 8.25641C39.9306 9.40914 40.2072 10.1469 40.2533 10.4236C40.2994 10.608 40.3456 10.7924 40.3456 10.8846C40.3456 11.2074 40.0228 11.023 39.4234 10.2852C39.3773 10.193 39.3312 10.2391 39.3312 10.4236C39.3312 11.3919 39.4234 13.6512 39.6539 17.2478C39.9306 21.8587 40.2995 24.8097 40.7605 26.1008C40.7605 26.1469 40.6222 26.2391 40.3456 26.3774C40.0689 26.5158 39.8384 26.5619 39.7 26.5619C39.6539 26.5158 39.6078 26.5158 39.6078 26.5158Z" fill="#124D73"/>
<path d="M45.7406 24.5792C45.7406 23.8876 45.6023 23.2882 45.4178 22.8732C45.4178 22.5965 45.6023 21.9971 46.0173 21.0749C46.0634 20.9366 46.1095 20.8905 46.1556 20.8905C46.2017 20.8905 46.2478 20.9366 46.2939 21.0749C46.4323 21.3516 46.7089 21.9971 47.1239 23.1037C47.585 24.2565 47.8155 24.9942 47.9078 25.2709C47.9539 25.4553 48 25.6397 48 25.732C48 26.0547 47.6772 25.8703 47.0778 25.1325C47.0317 25.0403 46.9856 25.0864 46.9856 25.2709C46.9856 25.317 47.1239 27.5763 47.4467 31.9567C47.7694 36.3371 47.9078 38.8271 47.9078 39.3804C47.9078 41.0864 47.6772 42.5619 47.17 43.853C47.0317 44.1297 46.9856 44.268 46.8933 44.4063C46.8011 44.5907 46.7089 44.6369 46.7089 44.4985C46.6628 44.3602 46.7089 44.0835 46.7089 43.6686C46.8011 43.0691 46.8472 42.4236 46.8472 41.6397C46.8472 40.9481 46.6628 38.0893 46.2939 33.0173C45.9251 28.0374 45.7406 25.1787 45.7406 24.5792Z" fill="#124D73"/>
</svg>
