<svg width="48" height="49" viewBox="0 0 48 49" fill="none" xmlns="http://www.w3.org/2000/svg">
<path d="M3.22324 41.8592C2.39565 41.8592 1.65518 41.4672 1.00182 40.7267C0.348459 39.9427 0 38.9844 0 37.8519C0 36.2839 0.653359 34.2802 1.91652 31.7539C2.04719 31.4926 2.13431 31.3619 2.22142 31.3619C2.26498 31.3619 2.26498 31.4055 2.26498 31.449C2.26498 31.6668 1.96008 32.5815 1.43739 34.0625C0.871146 35.587 0.609802 36.7195 0.609802 37.5906C0.609802 38.244 0.78403 38.8102 1.08893 39.2022C1.43739 39.6378 1.87296 39.8556 2.43921 39.8556C3.35391 39.8556 4.44284 39.1587 5.79312 37.7648C6.9256 36.4581 8.01453 35.1949 9.10347 33.8447C11.9347 30.6214 14.4174 29.0534 16.5518 29.0534V31.5797C14.7224 31.5797 12.6752 32.7557 10.3666 35.1078C9.66971 35.8483 8.75501 36.8937 7.57896 38.3311C6.57715 39.5507 5.83667 40.4218 5.31398 40.8138C4.70418 41.5107 3.96371 41.8592 3.22324 41.8592Z" fill="#124D73"/>
<path d="M27.0924 17.5542C27.0924 17.7285 26.8746 18.164 26.4391 18.7738C25.9164 19.4707 25.4372 20.037 24.9581 20.3419C24.6532 20.5597 23.695 20.8646 22.0398 21.3437C21.7349 21.3873 21.6042 21.4308 21.6042 21.4308C21.6478 21.3873 21.7349 21.3002 21.9527 21.1695C22.1704 20.9953 22.7367 20.6468 23.7385 20.1677C24.6532 19.645 25.1759 19.3401 25.3501 19.2094C25.3937 19.1658 25.3937 19.1223 25.3937 19.1223C25.3937 18.9045 24.5661 18.8174 22.9109 18.8174C22.9109 18.8174 22.606 18.8174 21.9962 18.8609C21.6913 18.9045 21.5171 18.8609 21.5171 18.8174C21.5171 18.7738 21.5606 18.6867 21.6478 18.556L22.2576 17.5542C22.4318 17.2493 22.7367 17.0751 23.2158 16.988C23.3465 16.9444 23.7385 16.9444 24.3483 16.9444C26.1342 16.9444 27.0924 17.1622 27.0924 17.5542Z" fill="#124D73"/>
<path d="M32.668 28.0951C32.668 28.0951 32.668 28.0516 32.668 28.008C32.668 27.6596 32.2324 27.1369 31.4048 26.44C30.403 25.6559 29.4012 25.2639 28.4429 25.2639C26.3957 25.2639 24.2614 27.3982 22.04 31.6668C22.6498 31.8846 23.3467 32.0153 24.1743 32.0153C25.7859 32.0153 27.5282 31.5362 29.4012 30.5779C31.0999 29.7068 32.1888 28.8792 32.668 28.0951ZM21.2995 31.4055C22.7369 28.7485 23.8258 26.9627 24.5228 26.0044C26.0473 23.9572 27.5282 22.9554 29.0092 22.9554C30.3159 22.9554 31.4919 23.4345 32.4502 24.3928C33.2778 25.1768 33.7133 25.9173 33.7133 26.6142C33.7133 27.4418 33.5827 28.1387 33.2778 28.7485C32.9729 29.4454 32.3631 30.2294 31.5355 31.0135C32.1017 30.8392 33.0164 30.4908 34.2796 30.0117V32.2766C30.9257 33.714 27.4411 34.4545 23.9565 34.4545C22.9983 34.4545 22.04 34.2803 21.1253 33.9318C20.7768 34.9336 20.5155 35.4563 20.3413 35.4563C20.2977 35.4563 20.2541 35.3692 20.2541 35.2385C20.2541 34.9336 20.3848 34.4109 20.6026 33.7576C19.5137 32.9735 18.9039 32.538 18.7296 32.4509C17.9456 31.9717 17.2487 31.7539 16.5953 31.7539V29.2276C17.51 29.2276 18.4247 29.5325 19.383 30.1423C19.9492 30.4908 20.6462 30.9264 21.2995 31.4055Z" fill="#124D73"/>
<path d="M32.7549 10.6722C35.0634 9.84465 37.5462 8.92995 40.2032 7.97169C40.3339 7.92814 40.421 7.88458 40.421 7.92814C40.4645 7.97169 40.4645 8.05881 40.3774 8.14592C40.2032 8.49438 40.1161 8.71217 40.029 8.79928C37.8075 9.58331 35.2377 10.5851 32.3193 11.8047C32.4065 11.4998 32.5371 11.1078 32.7549 10.6722Z" fill="#124D73"/>
<path d="M38.9401 14.1568C38.9401 14.4617 38.853 14.8101 38.7223 15.1586C38.5481 15.5942 38.2868 15.812 37.9819 15.812C37.5027 15.812 37.1543 15.4635 36.9801 14.8101C36.7623 15.6377 36.3267 16.0733 35.7169 16.0733C35.4991 16.0733 35.2813 15.9426 35.1071 15.7248C34.9329 15.4199 34.8022 15.0715 34.8022 14.6795V13.6341C34.8022 13.547 34.7586 13.5034 34.628 13.4599C34.4973 13.4163 34.4537 13.3292 34.4537 13.1985C34.4537 12.9807 34.5409 12.7629 34.7586 12.5452C34.9329 12.3709 35.0635 12.2838 35.1507 12.2838C35.2813 12.2838 35.3249 12.5016 35.3249 12.9372C35.3249 13.1985 35.3249 13.3727 35.2813 13.547C35.2378 13.7212 35.2378 13.8519 35.2378 13.939C35.2378 14.2003 35.2813 14.4181 35.412 14.6359C35.4991 14.8972 35.6733 15.0279 35.8476 15.0279C36.0654 15.0279 36.2831 14.9408 36.5009 14.723C36.6752 14.5052 36.8058 14.2874 36.8058 14.0261C36.8058 13.8519 36.7623 13.5905 36.6752 13.1985C36.588 12.8065 36.5445 12.5887 36.5445 12.458C36.5445 12.3709 36.588 12.2403 36.6752 12.066C36.7623 11.8918 36.8058 11.8047 36.8494 11.8047C36.9365 11.8047 37.0236 12.066 37.1543 12.5887C37.285 13.1114 37.3285 13.4599 37.3285 13.7212C37.3285 14.4181 37.5899 14.8101 38.1561 14.7666C38.4174 14.7666 38.5481 14.6359 38.5917 14.4181C38.1125 13.5905 37.8948 12.9807 37.8948 12.5452C37.8948 12.3274 37.9383 12.066 38.069 11.8918C38.1561 11.7611 38.1997 11.674 38.2432 11.674C38.2868 11.674 38.3303 11.7611 38.3303 11.9354C38.3739 12.1531 38.3739 12.3274 38.4174 12.5016C38.461 12.5016 38.5481 12.8065 38.7659 13.3727C38.8966 13.7212 38.9401 13.939 38.9401 14.1568Z" fill="#124D73"/>
<path d="M35.238 21.126C35.1944 21.0825 35.1944 21.0389 35.238 20.9518L36.0656 19.2966C36.1091 19.2095 36.1527 19.166 36.2398 19.166C36.3269 19.166 36.6754 19.3837 37.3287 19.8193C37.9821 20.2549 38.287 20.5162 38.287 20.6033C38.287 20.8647 37.9821 21.4745 37.4159 22.3456C37.3287 22.4763 37.2852 22.4763 37.1981 22.4327C36.5883 21.9972 35.8913 21.518 35.238 21.126Z" fill="#124D73"/>
<path d="M39.6806 31.0134V33.4961C38.6787 33.4961 37.8947 33.2348 37.372 32.7121C36.9364 32.3201 36.7187 31.7539 36.7187 31.0569C36.7187 30.8827 36.7622 30.7085 36.7622 30.5343C35.6733 31.3183 34.8021 31.841 34.1052 32.1459V29.8809C34.9764 29.5324 35.9782 28.9662 37.1542 28.1822C37.3285 28.0515 37.4591 28.0079 37.5462 28.0079C37.6769 28.0079 37.7205 28.095 37.7205 28.3128C37.7205 28.3999 37.6769 28.5306 37.6769 28.792C37.6334 29.0098 37.6334 29.184 37.6334 29.3147C37.6334 29.7067 37.8076 30.0987 38.156 30.4471C38.5481 30.7956 39.0707 31.0134 39.6806 31.0134Z" fill="#124D73"/>
<path d="M43.5574 26.0044C43.5574 28.4436 43.1218 30.3601 42.2506 31.7539C41.5102 32.93 40.639 33.5398 39.6372 33.5398V31.0135C40.4648 31.0135 41.2053 30.7086 41.9457 30.0988C42.1635 29.9245 42.2942 29.2276 42.2942 28.0951C42.2942 27.3982 42.12 24.567 41.7715 19.5579C41.4231 14.5924 41.2488 11.674 41.2488 10.8029C41.2488 9.9753 41.1181 9.32195 40.8568 8.79926C40.8568 8.49436 41.0746 7.79744 41.5537 6.66495C41.6408 6.53428 41.6844 6.49072 41.6844 6.49072C41.728 6.49072 41.8151 6.57784 41.8586 6.70851C41.9893 7.01341 42.2942 7.79744 42.7733 9.0606C43.296 10.4109 43.6009 11.2385 43.688 11.5434C43.7751 11.7611 43.7751 11.9354 43.7751 12.0661C43.7751 12.4581 43.4267 12.2403 42.6862 11.4127C42.5991 11.282 42.5555 11.3256 42.5555 11.5434C42.5555 11.5869 42.7298 13.8083 43.0347 18.2076C43.3831 22.5633 43.5574 25.1768 43.5574 26.0044Z" fill="#124D73"/>
<path d="M45.4301 14.7666C45.4301 13.939 45.2994 13.2857 45.0381 12.763C45.0381 12.4581 45.2559 11.7612 45.735 10.6723C45.8221 10.5416 45.8657 10.4545 45.9092 10.4545C45.9528 10.4545 45.9963 10.5416 46.0835 10.6723C46.2141 10.9772 46.519 11.7612 46.9982 13.0243C47.5208 14.3746 47.8258 15.2022 47.9129 15.5071C48 15.7249 48 15.9427 48 16.0734C48 16.4218 47.6515 16.204 46.911 15.42C46.8239 15.2893 46.7804 15.3329 46.7804 15.5507C46.7804 15.6378 46.9546 18.2077 47.3466 23.3039C47.6951 28.4001 47.9129 31.2748 47.9129 31.8846C47.9129 33.8447 47.608 35.587 47.0417 37.0679C46.9111 37.3728 46.8239 37.5906 46.7368 37.7213C46.6061 37.9391 46.5626 37.9827 46.519 37.852C46.4755 37.6778 46.4755 37.3728 46.5626 36.8937C46.6497 36.2404 46.6933 35.4128 46.6933 34.5416C46.6933 33.714 46.4755 30.4037 46.0835 24.567C45.6479 18.7739 45.4301 15.5071 45.4301 14.7666Z" fill="#124D73"/>
</svg>
