<svg width="49" height="49" viewBox="0 0 49 49" fill="none" xmlns="http://www.w3.org/2000/svg">
<path d="M43.0736 27.8137C43.0736 27.5103 42.5173 27.1563 41.5564 26.7264C40.5197 26.246 39.6852 25.9931 39.0784 25.9931C38.6485 25.9931 38.4715 26.1196 38.5221 26.2966C38.7749 26.777 39.1795 27.6873 39.7864 28.9769C41.5058 28.4206 42.5932 27.9907 43.0736 27.8137ZM28.6857 35.0962C32.0741 32.4158 35.3613 30.5952 38.4462 29.5838C38.2692 29.2298 37.8899 28.547 37.4853 27.7126C37.3083 27.2827 37.2325 26.8023 37.2325 26.1954C37.2325 25.2345 37.4853 24.4254 37.8899 23.7679C38.4968 22.9841 39.3565 22.5542 40.4944 22.5542C41.4047 22.5542 42.669 23.1105 44.3126 24.2484C46.0827 25.4621 46.9171 26.423 46.9171 27.2321C46.6642 28.2689 46.3608 29.2298 46.0068 30.2159C44.6161 30.6458 42.9219 31.1262 40.899 31.7837C40.9496 32.871 40.8484 33.4778 40.545 33.4778C40.368 33.4778 40.1151 33.048 39.8875 32.2135C38.9772 32.517 37.6371 33.0733 35.9935 33.7813C33.6924 34.8686 31.8718 35.9053 30.6581 36.8662C28.888 38.2569 26.8399 40.0775 24.5388 42.3786C22.1113 44.8061 20.5942 46.2727 19.8609 46.8795C18.3437 48.0933 17.0035 48.7001 15.8656 48.7001C14.6519 48.7001 13.5646 48.1438 12.6543 47.0565C11.6934 45.8934 11.2635 44.5026 11.2635 42.859C11.2635 40.558 12.1739 37.5742 14.045 33.933C14.222 33.5031 14.399 33.3261 14.5255 33.3261C14.5255 33.3261 14.576 33.3767 14.576 33.5031C14.576 33.8571 14.1462 35.1467 13.3623 37.3213C12.5026 39.496 12.098 41.266 12.098 42.4797C12.098 43.4406 12.3509 44.2498 12.8313 44.8566C13.3117 45.4635 13.9945 45.7669 14.8289 45.7669C16.0426 45.7669 17.5092 45.1601 19.254 43.8199C20.2907 43.036 21.8585 41.5694 23.9825 39.4454C26.1571 37.3466 27.7249 35.88 28.6857 35.0962Z" fill="#124D73"/>
<path d="M23.7801 23.692C23.1227 21.6185 22.617 19.5703 22.3894 17.4969C22.3388 17.1429 22.3388 16.9406 22.2629 16.8394C22.2124 16.5866 22.0101 16.2831 21.7825 15.9797L22.6422 13.9062C22.7687 13.6028 22.8951 13.4258 22.9962 13.4258C23.0468 13.4258 23.2491 13.6028 23.4261 13.9062L25.5502 17.2946C25.8536 17.775 25.98 18.1543 25.98 18.3313C25.98 18.4577 25.9294 18.5842 25.803 18.5842C25.4996 18.5842 25.0697 18.3313 24.4123 17.9267C24.5893 19.2669 25.0191 20.9105 25.6766 22.9081C25.6766 23.0345 25.4237 23.2115 25.0191 23.4644C24.5893 23.6414 24.2353 23.7678 23.9824 23.7678C23.8307 23.7426 23.7801 23.7426 23.7801 23.692Z" fill="#124D73"/>
<path d="M5.87765 39.0408C4.61334 39.0408 3.50075 38.4339 2.59045 37.3466C1.62957 36.1834 1.19971 34.7927 1.19971 33.1491C1.19971 30.8481 2.11001 27.8643 3.98119 24.2231C4.15819 23.8691 4.3352 23.6668 4.46163 23.6668C4.5122 23.6668 4.5122 23.6668 4.5122 23.7932C4.5122 24.1472 4.08233 25.4368 3.29846 27.6114C2.43873 29.786 2.08472 31.5561 2.08472 32.8204C2.08472 33.7813 2.26173 34.5904 2.74217 35.1973C3.2226 35.8042 3.90533 36.1076 4.73978 36.1076C6.13052 36.1076 7.47069 35.6272 8.68442 34.7169C10.2016 33.4525 11.7188 32.1124 13.2359 30.7722C15.714 28.7746 18.0403 27.1816 20.2655 26.0943C21.9091 25.2345 23.1734 24.8299 23.9573 24.8299C23.9067 24.6529 23.8309 24.2231 23.7044 23.6162C23.7044 23.4392 24.0079 23.2622 24.5642 23.0599C25.171 22.807 25.525 22.7565 25.6515 22.8829C25.7779 23.3633 26.3089 23.9196 27.1686 24.4507C28.0284 25.0575 29.1157 25.538 30.3294 25.9678C30.8857 26.1448 31.1133 26.5241 30.9869 27.0046L30.557 29.432C30.5064 29.7355 30.2536 29.7355 29.7731 29.432C28.4329 28.6987 26.7893 28.3447 24.8676 28.3447C22.1873 28.3447 19.0518 29.8113 15.3347 32.7192C13.3877 34.287 11.5165 35.88 9.62001 37.3972C8.25456 38.4845 6.96496 39.0408 5.87765 39.0408Z" fill="#124D73"/>
<path d="M21.0998 34.5398L22.0607 32.5422C22.1113 32.4158 22.1872 32.3652 22.3136 32.3652C22.44 32.3652 22.9205 32.6687 23.8813 33.3261C24.7916 33.933 25.2721 34.287 25.2721 34.4134C25.2721 34.8433 24.8422 35.7536 24.0583 37.0938C23.9319 37.2708 23.8055 37.2708 23.7043 37.2202C22.9204 36.6133 22.0101 36.0065 20.9734 35.349C20.6194 36.0823 20.316 36.7397 19.9367 37.296C19.8861 37.473 19.7597 37.5489 19.6332 37.4731C18.7229 36.7398 17.7621 36.0823 16.7759 35.4754C16.7253 35.4249 16.7253 35.349 16.7759 35.2226L17.9391 32.7951C17.9896 32.6687 18.1161 32.5422 18.1919 32.5422C18.3184 32.5422 18.7482 32.8457 19.5321 33.402C20.316 33.8824 20.8723 34.3123 21.0998 34.5398Z" fill="#124D73"/>
<path d="M29.7985 19.0647C34.4764 17.3705 39.3314 15.5499 44.4139 13.6535C44.5909 13.6029 44.7173 13.527 44.7679 13.6029C44.7679 13.6029 44.7679 13.7293 44.7173 13.9063C44.4645 14.4626 44.2875 14.7661 44.161 14.8672C39.913 16.4349 34.881 18.382 29.1663 20.7589C29.2928 20.2279 29.495 19.6716 29.7985 19.0647Z" fill="#124D73"/>
<path d="M20.6952 6.19398C25.3732 4.49981 30.2281 2.6792 35.3107 0.782738C35.4877 0.732165 35.6141 0.656307 35.6647 0.732166C35.6647 0.732166 35.6647 0.858596 35.6141 1.0356C35.3612 1.5919 35.1842 1.89533 35.0578 1.99648C30.8097 3.56422 25.7778 5.51126 20.0631 7.88816C20.1895 7.35715 20.3918 6.80085 20.6952 6.19398Z" fill="#124D73"/>
<path d="M16.8373 16.4844C16.8373 16.6872 16.6344 17.0524 16.188 17.6611C15.6605 18.3509 15.2142 18.8785 14.7678 19.2031C14.4838 19.406 13.5505 19.7306 11.9273 20.1364C11.6433 20.177 11.481 20.2175 11.481 20.2175C11.5216 20.177 11.6027 20.0958 11.8056 19.9741C12.0085 19.8118 12.5766 19.4871 13.5505 19.0002C14.4432 18.5133 14.9707 18.1886 15.0924 18.0669C15.133 18.0263 15.133 17.9857 15.133 17.9857C15.133 17.7829 14.3214 17.7017 12.7389 17.7017C12.7389 17.7017 12.4549 17.7017 11.8462 17.7423C11.5216 17.7829 11.3593 17.7423 11.3593 17.7017C11.3593 17.6611 11.3998 17.58 11.481 17.4582L12.0491 16.5249C12.2114 16.2409 12.536 16.0786 12.9824 15.9974C13.1447 15.9568 13.5099 15.9568 14.078 15.9568C15.9446 15.8757 16.8373 16.0786 16.8373 16.4844Z" fill="#124D73"/>
<path d="M34.1083 9.37278C34.1083 9.57567 33.9054 9.94088 33.4591 10.5495C32.9316 11.2394 32.4852 11.7669 32.0389 12.0915C31.7548 12.2944 30.8215 12.619 29.1984 13.0248C28.9144 13.0654 28.752 13.106 28.752 13.106C28.7926 13.0654 28.8738 12.9842 29.0767 12.8625C29.2796 12.7002 29.8477 12.3756 30.8215 11.8886C31.7142 11.4017 32.2417 11.0771 32.3635 10.9553C32.4041 10.9147 32.4041 10.8742 32.4041 10.8742C32.4041 10.6713 31.5925 10.5901 30.01 10.5901C30.01 10.5901 29.7259 10.5901 29.1172 10.6307C28.7926 10.6713 28.6303 10.6307 28.6303 10.5901C28.6303 10.5495 28.6709 10.4684 28.752 10.3467L29.3201 9.41336C29.4824 9.12932 29.8071 8.967 30.2534 8.88585C30.4157 8.84527 30.7809 8.84527 31.349 8.84527C33.2156 8.76412 34.1083 8.967 34.1083 9.37278Z" fill="#124D73"/>
</svg>
