<svg width="48" height="49" viewBox="0 0 48 49" fill="none" xmlns="http://www.w3.org/2000/svg">
<path d="M8.22738 25.0019L8.80619 23.8442C8.84753 23.7616 8.88887 23.7202 8.93022 23.7202C9.0129 23.7202 9.34365 23.9269 9.88112 24.299C10.4599 24.6711 10.7493 24.9192 10.7493 24.9605C10.7493 25.2086 10.5013 25.7047 10.0051 26.5316C9.96381 26.6143 9.88112 26.6556 9.79843 26.6143C9.30231 26.2422 8.76484 25.8701 8.14469 25.498C7.93797 25.9528 7.73125 26.3662 7.52454 26.697C7.48319 26.7796 7.40051 26.821 7.35916 26.7796C6.8217 26.3662 6.24289 25.9528 5.62273 25.5807C5.58139 25.5807 5.58139 25.5393 5.62273 25.4566L6.36692 24.0096C6.40826 23.9269 6.4496 23.8856 6.49095 23.8856C6.53229 23.8856 6.8217 24.051 7.27647 24.3404C7.81394 24.5884 8.10335 24.8365 8.22738 25.0019Z" fill="#124D73"/>
<path d="M14.0568 36.2472C13.3126 36.2472 12.7752 36.2059 12.4444 36.1232C11.7416 35.9165 11.1214 35.4617 10.6253 34.7175C10.3359 34.2214 10.0465 33.7253 9.75708 33.2291C9.50902 32.8157 9.26096 32.609 8.97155 32.609C8.14468 32.609 7.27647 33.3118 6.32556 34.7175C6.16019 34.9656 5.87079 35.6271 5.45735 36.6607C5.04391 37.6943 4.67182 38.4798 4.34107 38.9759C3.84495 39.6787 3.34883 40.0508 2.81136 40.0508C1.98449 40.0508 1.32299 39.3893 0.744184 38.149C0.248061 37.0328 0 35.8751 0 34.6762C0 33.2291 0.124031 32.0302 0.413436 31.162C0.537466 30.8726 0.620153 30.7072 0.661496 30.7072C0.744183 30.7072 0.785527 30.9139 0.744184 31.286C0.620153 32.1956 0.57881 32.9811 0.57881 33.6426C0.57881 36.7433 1.28165 38.2731 2.72867 38.2731C3.30748 38.2731 3.84495 37.8183 4.34107 36.9087C4.8372 35.8338 5.33332 34.7589 5.82944 33.6839C6.28422 32.7744 6.82169 32.0302 7.44184 31.41C8.10334 30.7485 8.72349 30.4178 9.26096 30.4178C9.67439 30.4178 10.0465 30.6658 10.3772 31.2033C10.6666 31.6581 10.956 32.1129 11.2041 32.5676C11.6175 33.1465 12.031 33.5186 12.4444 33.7253C12.8578 33.932 13.3953 34.056 14.0982 34.056L14.0568 36.2472Z" fill="#124D73"/>
<path d="M15.8761 24.5884C17.9433 23.8442 20.1345 23.0587 22.4497 22.1905C22.5738 22.1491 22.6564 22.1491 22.6564 22.1491C22.6978 22.1905 22.6564 22.2318 22.6564 22.3558C22.5324 22.6866 22.4084 22.8519 22.3257 22.9346C20.3825 23.6375 18.1086 24.5057 15.504 25.5806C15.5453 25.2912 15.7107 24.9605 15.8761 24.5884Z" fill="#124D73"/>
<path d="M23.4416 31.2447C23.4416 31.9889 23.3176 32.6504 23.0695 33.1879C22.8628 33.7253 22.6147 33.9734 22.3253 33.9734C20.961 33.9734 19.5966 33.4359 18.2323 32.4023C17.8189 33.5186 17.2401 34.4282 16.4545 35.131C15.669 35.8752 14.8008 36.2473 13.9326 36.2473V34.0147C14.5941 34.0147 15.2556 33.8907 15.9171 33.6013C16.7026 33.2292 17.2814 32.7744 17.5708 32.1956C17.6535 32.0302 17.9015 31.5341 18.2736 30.6659C18.439 30.2525 18.6044 30.0458 18.7698 30.0044C19.0178 29.5496 19.3486 29.0949 19.762 28.6814C20.3408 28.1026 20.9196 27.8132 21.4571 27.8132C22.1599 27.8132 22.6561 28.2266 23.0281 29.0535C23.3176 29.7977 23.4416 30.5005 23.4416 31.2447ZM22.0359 31.2861C21.9532 30.9553 21.7465 30.7073 21.4984 30.4592C21.209 30.2111 20.961 30.0871 20.6716 30.0871C20.2995 30.0871 19.9687 30.1698 19.762 30.3352C19.5966 30.4592 19.5139 30.5832 19.5139 30.7073C20.0928 31.162 20.8369 31.4928 21.7052 31.7822C21.7878 31.8235 21.8705 31.8235 21.9532 31.8235C22.0772 31.8235 22.1186 31.7822 22.1186 31.6582C22.0772 31.5341 22.0772 31.4101 22.0359 31.2861Z" fill="#124D73"/>
<path d="M25.2195 32.9398C25.3849 33.9734 25.757 34.6763 26.2531 35.007C26.5012 35.1724 26.9146 35.2551 27.4521 35.2551V37.4876C26.6665 37.4876 26.005 37.3223 25.5916 36.9915C24.9715 36.5367 24.558 35.6685 24.31 34.3869C24.1859 33.6013 24.0619 31.2861 23.9379 27.4825C23.8138 23.3068 23.6898 20.7435 23.6071 19.7926C23.4417 18.2629 23.1523 16.8159 22.7389 15.4515C22.7389 15.0794 22.9043 14.542 23.1937 13.8391C23.235 13.6737 23.3177 13.5497 23.3591 13.5497C23.4004 13.5497 23.4831 13.6324 23.5244 13.7564C23.9792 14.7073 24.3513 16.237 24.5994 18.4696C24.7647 19.8339 24.8888 22.5626 24.9715 26.6556C25.0541 30.5006 25.1368 32.6091 25.2195 32.9398Z" fill="#124D73"/>
<path d="M26.4184 27.3171C28.4856 26.5729 30.6768 25.7874 32.9921 24.9192C33.1161 24.8778 33.1988 24.8778 33.1988 24.8778C33.2401 24.9192 33.1988 24.9605 33.1988 25.0846C33.0748 25.4153 32.9507 25.5807 32.868 25.6634C30.9249 26.3662 28.651 27.2344 26.0463 28.3094C26.129 28.0199 26.2531 27.6892 26.4184 27.3171Z" fill="#124D73"/>
<path d="M27.8241 40.5057L28.4029 39.3481C28.4442 39.2654 28.4856 39.2241 28.5269 39.2241C28.6096 39.2241 28.9403 39.4308 29.4778 39.8029C30.0566 40.175 30.346 40.423 30.346 40.4644C30.346 40.7124 30.098 41.2085 29.6018 42.0354C29.5605 42.1181 29.4778 42.1595 29.3951 42.1181C28.899 41.746 28.3615 41.3739 27.7414 41.0018C27.5347 41.4566 27.3279 41.87 27.1212 42.2008C27.0799 42.2835 26.9972 42.3248 26.9558 42.2835C26.4184 41.87 25.8396 41.4566 25.2194 41.0845C25.1781 41.0845 25.1781 41.0432 25.2194 40.9605L25.9636 39.5135C26.0049 39.4308 26.0463 39.3894 26.0876 39.3894C26.129 39.3894 26.4184 39.5548 26.8732 39.8442C27.3279 40.1336 27.6587 40.3403 27.8241 40.5057Z" fill="#124D73"/>
<path d="M34.2325 36.9088C32.9095 36.9088 32.248 36.1646 32.1653 34.5935C32.1653 34.5108 32.124 34.4695 32.0413 34.4695C31.9173 34.4695 31.7932 34.5522 31.6692 34.6762C30.925 35.5444 30.4703 36.0819 30.2222 36.2473C29.2713 37.0328 28.279 37.4462 27.2455 37.4462V35.2137C28.3204 35.2137 29.2713 34.9243 30.0982 34.3455C30.4289 34.1388 31.1731 33.4359 32.3307 32.2783C32.4547 32.1543 32.5788 32.1129 32.7028 32.1129C32.8268 32.1129 32.9095 32.1543 32.9095 32.3196C32.9095 32.361 32.9095 32.485 32.8682 32.6504C32.8268 32.7744 32.8268 32.8984 32.8268 33.0225C32.8268 33.4359 32.9095 33.808 33.1162 34.0974C33.3643 34.4695 33.695 34.6762 34.1912 34.6762L34.2325 36.9088Z" fill="#124D73"/>
<path d="M34.3977 41.4152C36.4648 40.671 38.6561 39.8855 40.9713 39.0173C41.0953 38.976 41.178 38.976 41.178 38.976C41.2194 39.0173 41.178 39.0586 41.178 39.1827C41.054 39.5134 40.93 39.6788 40.8473 39.7615C38.9041 40.4643 36.6302 41.3325 34.0256 42.4075C34.0669 42.1181 34.2323 41.7873 34.3977 41.4152Z" fill="#124D73"/>
<path d="M38.16 25.2086L38.7388 24.0509C38.7801 23.9683 38.8214 23.9269 38.8628 23.9269C38.9455 23.9269 39.2762 24.1336 39.8137 24.5057C40.3925 24.8778 40.6819 25.1259 40.6819 25.1672C40.6819 25.4153 40.4338 25.9114 39.9377 26.7383C39.8964 26.821 39.8137 26.8623 39.731 26.821C39.2349 26.4489 38.6974 26.0768 38.0773 25.7047C37.8705 26.1595 37.6638 26.5729 37.4571 26.9036C37.4158 26.9863 37.3331 27.0277 37.2917 26.9863C36.7543 26.5729 36.1755 26.1595 35.5553 25.7874C35.514 25.7874 35.514 25.746 35.5553 25.6633L36.2995 24.2163C36.3408 24.1336 36.3822 24.0923 36.4235 24.0923C36.4649 24.0923 36.7543 24.2577 37.209 24.5471C37.7052 24.7951 38.0359 25.0432 38.16 25.2086Z" fill="#124D73"/>
<path d="M41.0541 36.5781C39.1936 36.5781 37.7879 36.33 36.9197 35.7925C35.8861 36.5781 34.9352 36.9501 34.1084 36.9501V34.7176C34.6872 34.7176 35.1833 34.5936 35.6794 34.3868C35.4727 33.9734 35.3487 33.3946 35.3487 32.6504C35.3487 31.6168 35.7208 30.5832 36.5063 29.5083C37.2091 28.5574 37.8293 28.0613 38.3254 28.0613C38.7802 28.0613 39.1523 28.4334 39.4417 29.0949C39.6484 29.6323 39.7311 30.2111 39.7311 30.79C39.7311 32.237 39.4003 33.3119 38.7802 34.0974C39.1936 34.2215 39.9378 34.3042 41.0127 34.3042V36.5781H41.0541ZM38.9042 32.3197C38.9042 31.9889 38.7802 31.5755 38.5735 31.0794C38.3254 30.5006 38.1187 30.2111 37.9533 30.2111C37.7052 30.2111 37.3745 30.4592 36.8784 30.9553C36.4236 31.4515 36.0928 31.9062 35.9275 32.3197C35.9688 32.5264 36.1755 32.7744 36.4236 33.0638C36.713 33.3533 36.9611 33.5186 37.2505 33.6427C38.0773 33.2292 38.6561 32.7744 38.9042 32.3197Z" fill="#124D73"/>
<path d="M44.899 6.52128C44.899 6.68666 44.6923 7.05875 44.3202 7.59622C43.8654 8.21637 43.4107 8.67115 42.9972 9.0019C42.7492 9.16727 41.881 9.45668 40.4339 9.87011C40.1445 9.91146 40.0205 9.9528 40.0205 9.9528C40.0618 9.91146 40.1445 9.87011 40.3099 9.70474C40.4753 9.53936 41.0127 9.24996 41.881 8.83652C42.7078 8.38174 43.1626 8.09234 43.2866 8.00965C43.328 7.96831 43.328 7.96831 43.328 7.92697C43.328 7.76159 42.5838 7.63756 41.1368 7.63756C41.1368 7.63756 40.8474 7.63756 40.3099 7.63756C40.0205 7.63756 39.8965 7.63756 39.8965 7.59622C39.8965 7.55487 39.9378 7.47219 40.0205 7.34816L40.558 6.47994C40.7233 6.23188 40.9714 6.06651 41.3848 5.98382C41.5089 5.94248 41.8396 5.94247 42.3771 5.94247C44.0722 5.94247 44.899 6.14919 44.899 6.52128Z" fill="#124D73"/>
<path d="M44.4444 29.9631C44.4444 32.113 44.0723 33.8081 43.2868 35.0484C42.6253 36.0819 41.8811 36.6194 40.9716 36.6194V34.3869C41.6744 34.3869 42.3773 34.0975 43.0388 33.56C43.2455 33.3946 43.3282 32.8158 43.3282 31.7822C43.3282 31.1621 43.1628 28.6401 42.8734 24.2577C42.5426 19.8753 42.3773 17.2706 42.3773 16.5264C42.3773 15.8236 42.2532 15.2448 42.0465 14.7487C42.0465 14.4593 42.2532 13.8391 42.6667 12.8882C42.708 12.8055 42.7493 12.7228 42.7907 12.7228C42.832 12.7228 42.8734 12.7642 42.9561 12.8882C43.0801 13.1363 43.3695 13.8391 43.7829 14.9967C44.2377 16.1957 44.5271 16.8985 44.5685 17.1879C44.6098 17.3947 44.6511 17.56 44.6511 17.6427C44.6511 17.9735 44.3204 17.8081 43.7002 17.0639C43.6176 16.9399 43.5762 16.9812 43.5762 17.1879C43.5762 17.2293 43.7002 19.1724 43.9896 23.0587C44.2791 26.945 44.4444 29.2189 44.4444 29.9631Z" fill="#124D73"/>
<path d="M45.7261 17.436C45.7261 16.7331 45.6021 16.1543 45.3954 15.6995C45.3954 15.4515 45.6021 14.8313 46.0155 13.8391C46.0569 13.715 46.1395 13.6737 46.1395 13.6737C46.1809 13.6737 46.2222 13.715 46.3049 13.8391C46.4289 14.0871 46.7183 14.79 47.1318 15.9476C47.5866 17.1466 47.876 17.8494 47.9173 18.1388C47.9587 18.3455 48 18.5109 48 18.6349C48 18.9657 47.6693 18.759 47.0491 18.0561C46.9664 17.9321 46.9251 18.0148 46.9251 18.1802C46.9251 18.2215 47.0904 20.5367 47.4212 25.0432C47.7519 29.5496 47.9173 32.0716 47.9173 32.6091C47.9173 34.3455 47.6692 35.8752 47.1318 37.1568C47.0078 37.4049 46.9251 37.6116 46.8424 37.7357C46.7183 37.9424 46.677 37.9424 46.677 37.8183C46.6357 37.6943 46.677 37.4049 46.677 36.9915C46.7597 36.4127 46.801 35.7098 46.801 34.9243C46.801 34.2215 46.5943 31.2861 46.2636 26.1595C45.8915 20.9088 45.7261 18.0561 45.7261 17.436Z" fill="#124D73"/>
</svg>
