<svg width="49" height="49" viewBox="0 0 49 49" fill="none" xmlns="http://www.w3.org/2000/svg">
<path d="M3.27575 40.6189C2.40618 40.6189 1.66705 40.2276 1.05835 39.4884C0.406177 38.7058 0.0583496 37.7058 0.0583496 36.5754C0.0583496 35.0101 0.710526 32.9232 2.01488 30.4014C2.14531 30.1406 2.27575 30.0101 2.31923 30.0101C2.36271 30.0101 2.36271 30.0536 2.36271 30.0971C2.36271 30.358 2.05836 31.2275 1.53662 32.7493C0.971396 34.271 0.710526 35.4449 0.710526 36.3145C0.710526 37.0102 0.884439 37.5319 1.18879 37.9667C1.53662 38.4015 1.9714 38.6189 2.5801 38.6189C3.49314 38.6189 4.62358 37.9232 5.97142 36.4884C7.10185 35.1841 8.23229 33.8362 9.36273 32.5319C12.2323 29.271 14.7541 27.6623 16.9715 27.6623V30.2275C15.1019 30.2275 13.0149 31.4014 10.7106 33.7928C9.97143 34.5319 9.05838 35.6188 7.88447 37.0536C6.88446 38.3145 6.10185 39.1841 5.58011 39.5754C4.7975 40.271 4.01489 40.6189 3.27575 40.6189Z" fill="#124D73"/>
<path d="M10.4498 19.3579C12.7977 18.4883 15.3194 17.5753 18.0151 16.6187C18.1455 16.5753 18.2325 16.5318 18.2325 16.5753C18.276 16.6187 18.276 16.7057 18.189 16.7927C18.0151 17.184 17.9281 17.4014 17.7977 17.4448C15.5803 18.2709 12.9281 19.2709 9.9281 20.5318C10.102 20.184 10.2324 19.7927 10.4498 19.3579Z" fill="#124D73"/>
<path d="M16.3627 14.5752C16.3627 14.8796 16.2757 15.2274 16.1453 15.5752C15.9279 16.0535 15.7105 16.2709 15.3627 16.2709C14.8844 16.2709 14.5366 15.923 14.3627 15.2709C14.1453 16.1404 13.7105 16.5752 13.1018 16.5752C12.8844 16.5752 12.667 16.4448 12.4931 16.2274C12.2757 15.923 12.1888 15.5752 12.1888 15.1404V14.097C12.1888 14.01 12.1453 13.9665 12.0149 13.923C11.8844 13.8796 11.8409 13.7926 11.8409 13.6622C11.8409 13.4448 11.9279 13.2274 12.1453 12.9665C12.3192 12.7926 12.4496 12.7056 12.5366 12.7056C12.667 12.7056 12.7105 12.923 12.7105 13.3578C12.7105 13.6187 12.7105 13.7926 12.667 13.9665C12.6236 14.1404 12.6236 14.2709 12.6236 14.3578C12.6236 14.6187 12.667 14.8361 12.7975 15.0535C12.8844 15.3143 13.0583 15.4448 13.2323 15.4448C13.4496 15.4448 13.667 15.3578 13.8844 15.1404C14.1018 14.923 14.1888 14.7057 14.1888 14.4448C14.1888 14.2709 14.1453 14.01 14.0583 13.6187C13.9714 13.2274 13.9279 12.9665 13.9279 12.8796C13.9279 12.7926 13.9714 12.6622 14.0583 12.4883C14.1453 12.3143 14.1888 12.2274 14.2323 12.2274C14.3192 12.2274 14.4062 12.4882 14.5366 13.01C14.667 13.5317 14.7105 13.923 14.7105 14.1404C14.7105 14.8796 14.9714 15.2274 15.5366 15.2274C15.7975 15.2274 15.9279 15.097 15.9714 14.8796C15.4931 14.0535 15.2757 13.4013 15.2757 12.9665C15.2757 12.7056 15.3192 12.4883 15.4497 12.2709C15.5366 12.1404 15.5801 12.0535 15.6236 12.0535C15.667 12.0535 15.7105 12.1404 15.7105 12.3143C15.754 12.5317 15.754 12.7491 15.7975 12.8796C15.841 12.8796 15.9279 13.1839 16.1888 13.7926C16.2757 14.097 16.3627 14.3578 16.3627 14.5752Z" fill="#124D73"/>
<path d="M16.624 23.7057L17.2762 22.4014C17.3197 22.3144 17.4066 22.2274 17.4501 22.2274C17.5371 22.2274 17.9284 22.4448 18.5806 22.8796C19.2327 23.3144 19.5806 23.5753 19.5806 23.6622C19.5806 23.9231 19.3197 24.5318 18.711 25.4883C18.624 25.5753 18.5806 25.6188 18.4936 25.5753C17.9284 25.1405 17.2762 24.7057 16.5805 24.2709C16.3632 24.8362 16.1023 25.2709 15.8849 25.6188C15.8414 25.7492 15.7545 25.7927 15.6675 25.7057C15.0153 25.2275 14.3632 24.7492 13.6675 24.3144C13.624 24.3144 13.624 24.2709 13.6675 24.184L14.4936 22.4883C14.5371 22.4014 14.5805 22.3144 14.6675 22.3144C14.7545 22.3144 15.0588 22.4883 15.5805 22.8796C16.1023 23.2709 16.4501 23.5318 16.624 23.7057Z" fill="#124D73"/>
<path d="M14.3191 21.097C14.2756 21.097 14.2756 21.0535 14.3191 20.9665L15.1452 19.2709C15.1887 19.1839 15.2322 19.097 15.2756 19.097C15.3626 19.097 15.7539 19.3144 16.4061 19.7491C17.0582 20.1839 17.3626 20.4448 17.3626 20.5318C17.3626 20.7926 17.0582 21.4013 16.5365 22.3579C16.4495 22.4883 16.4061 22.4883 16.3191 22.4448C15.6669 22.01 15.0148 21.5318 14.3191 21.097Z" fill="#124D73"/>
<path d="M19.8409 29.7058C19.8409 30.4014 19.754 31.0101 19.4931 31.5319C19.4061 31.7493 19.3627 31.8362 19.3192 31.8362C19.2757 31.8362 19.1888 31.7493 19.1018 31.5319C18.6235 30.6623 17.8844 30.2275 16.8844 30.2275V27.6623C17.8409 27.6623 18.6235 27.9232 19.1888 28.4449C19.6235 28.7927 19.8409 29.2275 19.8409 29.7058Z" fill="#124D73"/>
<path d="M22.0589 11.8796C24.4067 11.0101 26.9284 10.097 29.6241 9.1405C29.7545 9.09703 29.8415 9.05355 29.8415 9.09703C29.885 9.14051 29.885 9.22746 29.798 9.31442C29.6241 9.70572 29.5371 9.92312 29.4067 9.96659C27.1893 10.7492 24.5371 11.7927 21.5371 13.0536C21.711 12.7057 21.8849 12.3144 22.0589 11.8796Z" fill="#124D73"/>
<path d="M27.7971 16.7492C27.7971 17.0535 27.7102 17.4013 27.5798 17.7492C27.3624 18.2274 27.145 18.4448 26.7971 18.4448C26.3189 18.4448 25.9711 18.097 25.7971 17.4448C25.5797 18.3144 25.145 18.7492 24.5363 18.7492C24.3189 18.7492 24.1015 18.6187 23.9276 18.4013C23.7102 18.097 23.6232 17.7492 23.6232 17.3144V16.2709C23.6232 16.1839 23.5797 16.1405 23.4493 16.097C23.3189 16.0535 23.2754 15.9666 23.2754 15.8361C23.2754 15.6187 23.3623 15.4013 23.5797 15.1405C23.7537 14.9665 23.8841 14.8796 23.971 14.8796C24.1015 14.8796 24.145 15.097 24.145 15.5318C24.145 15.7926 24.145 15.9666 24.1015 16.1405C24.058 16.3144 24.058 16.4448 24.058 16.5318C24.058 16.7926 24.1015 17.01 24.2319 17.2274C24.3189 17.4883 24.4928 17.6187 24.6667 17.6187C24.8841 17.6187 25.1015 17.5318 25.3189 17.3144C25.5363 17.097 25.6232 16.8796 25.6232 16.6187C25.6232 16.4448 25.5797 16.1839 25.4928 15.7926C25.4058 15.4013 25.3624 15.1405 25.3624 15.0535C25.3624 14.9666 25.4058 14.8361 25.4928 14.6622C25.5797 14.4883 25.6232 14.4013 25.6667 14.4013C25.7537 14.4013 25.8406 14.6622 25.9711 15.1839C26.1015 15.7057 26.145 16.097 26.145 16.3144C26.145 17.0535 26.4058 17.4013 26.9711 17.4013C27.2319 17.4013 27.3624 17.2709 27.4058 17.0535C26.9276 16.2274 26.7102 15.5752 26.7102 15.1405C26.7102 14.8796 26.7537 14.6622 26.8841 14.4448C26.9711 14.3144 27.0145 14.2274 27.058 14.2274C27.1015 14.2274 27.145 14.3144 27.145 14.4883C27.1884 14.7057 27.1884 14.9231 27.2319 15.0535C27.2754 15.0535 27.3624 15.3579 27.6232 15.9666C27.7537 16.3144 27.7971 16.5753 27.7971 16.7492Z" fill="#124D73"/>
<path d="M19.2323 39.2276C21.1453 39.2276 23.1888 38.4884 25.4497 36.9232C27.1888 35.7493 28.5366 34.5319 29.4932 33.2275C29.7975 32.8362 29.928 32.6188 29.928 32.5754C30.0149 32.4014 30.1019 32.1406 30.1019 31.7927C30.1019 31.0101 29.8845 29.7058 29.4062 27.9666C29.0584 26.6188 28.2758 24.5753 26.9714 21.7927C26.9279 21.7058 26.9714 21.3579 27.0584 20.7492C27.1453 20.184 27.2323 19.7492 27.3193 19.4884C27.4062 19.184 27.4932 19.1405 27.6671 19.3579C29.1888 21.3579 30.2758 24.0536 31.0149 27.5753C31.3193 29.1406 31.7106 31.3145 32.1888 34.0971C32.4062 35.3145 32.7975 36.0971 33.3628 36.4449C33.6671 36.6189 34.1454 36.7493 34.7541 36.7493V39.3145C33.841 39.3145 33.1454 39.1406 32.6236 38.7493C31.8845 38.1841 31.4062 37.2275 31.1453 35.7493C31.0584 35.2275 30.8845 34.2275 30.6671 32.6623C30.4497 33.8797 30.0149 34.8797 29.4062 35.6623C28.1453 37.2276 26.6236 38.5754 24.841 39.7058C22.7975 41.0102 20.8844 41.6624 19.1888 41.6624C18.2757 41.6624 17.5801 41.271 17.1453 40.5319C16.754 39.9232 16.5801 39.1841 16.5801 38.2276C16.5801 36.4449 16.9714 34.6188 17.7105 32.7493C17.841 32.358 17.9714 32.1406 18.1018 32.1406C18.1453 32.1406 18.1453 32.1841 18.1453 32.271C18.1453 32.4014 18.1018 32.5754 18.0149 32.8362C17.4931 34.6623 17.2323 36.0536 17.2323 37.0102C17.1888 38.5754 17.8844 39.2276 19.2323 39.2276Z" fill="#124D73"/>
<path d="M40.8842 22.7492C40.9712 22.4883 40.9712 22.271 40.9277 22.0101C40.8842 21.7492 40.7538 21.5753 40.5364 21.5753C40.4494 21.5753 40.319 21.6188 40.1451 21.7057C39.9712 21.7927 39.8842 21.8796 39.8842 21.9666C39.9712 22.2275 40.2755 22.4883 40.8842 22.7492ZM40.4059 23.8797C39.6233 23.4883 39.232 23.0536 39.232 22.5753C39.232 22.0101 39.4929 21.5318 39.9712 21.0536C40.4494 20.6188 40.8842 20.4449 41.232 20.5753C41.4929 20.6622 41.6668 20.9666 41.6668 21.4883C41.6668 21.9666 41.5799 22.4449 41.406 23.0101C41.7973 23.271 42.0581 23.4449 42.1451 23.6188C42.1451 23.8362 41.9712 24.184 41.6233 24.7057C41.5364 24.5318 41.2755 24.3579 40.8842 24.1405C40.4494 24.7492 39.8842 25.3144 39.1886 25.7927C38.4059 26.3579 37.7103 26.7927 37.0581 27.0971C36.9277 27.184 36.1451 27.4449 34.7972 27.9231C34.5798 28.0101 34.4059 28.0536 34.3624 28.0536C34.319 28.0536 34.319 28.0536 34.319 28.0101C34.319 27.9666 34.4494 27.8362 34.7103 27.7058C35.7103 27.0971 36.7538 26.4884 37.7538 25.8797C38.9277 25.184 39.8407 24.4884 40.4059 23.8797Z" fill="#124D73"/>
<path d="M43.4065 38.097C43.7978 38.097 43.9717 37.9666 43.9717 37.7492C43.9717 37.4883 43.7543 37.2709 43.3196 37.097C42.8413 36.8796 42.1456 36.8361 41.3196 37.0101C41.9717 37.7492 42.6674 38.097 43.4065 38.097ZM34.6674 39.3579V36.7927C35.7543 36.7927 37.1456 36.3579 38.7978 35.4448C38.7543 35.2274 38.8848 35.0535 39.2326 34.9231C39.5804 34.7927 39.7978 34.7927 39.9282 35.01C41.1022 34.6187 42.0152 34.4448 42.7543 34.4448C43.4935 34.4448 44.0587 34.7492 44.4935 35.3579C44.9283 35.9666 45.1022 36.7927 45.1022 37.7927C45.1022 38.6188 44.9283 39.2709 44.5804 39.8361C44.2326 40.4014 43.7543 40.6622 43.1457 40.6622C41.7978 40.6622 40.6239 39.6622 39.5369 37.6188C37.4935 38.7492 35.8848 39.3579 34.6674 39.3579Z" fill="#124D73"/>
<path d="M40.3191 7.01C40.3191 7.22739 40.1017 7.6187 39.6235 8.27088C39.1017 9.01001 38.58 9.53175 38.1017 9.87958C37.7974 10.097 36.7974 10.4448 35.1452 10.8796C34.8408 10.9231 34.6669 10.9665 34.6669 10.9665C34.7104 10.9231 34.7973 10.8361 35.0147 10.7057C35.2321 10.5318 35.8408 10.1839 36.8408 9.70566C37.7974 9.18392 38.3191 8.87957 38.493 8.74914C38.5365 8.70566 38.5365 8.66218 38.5365 8.66218C38.5365 8.44479 37.7104 8.35783 36.0147 8.35783C36.0147 8.35783 35.7104 8.35783 35.0582 8.40131C34.7539 8.44479 34.58 8.40131 34.58 8.35783C34.58 8.31435 34.6234 8.2274 34.7104 8.09696L35.3191 7.09696C35.493 6.79261 35.7974 6.6187 36.2756 6.53174C36.4061 6.48826 36.7974 6.48826 37.4061 6.48826C39.3626 6.35783 40.3191 6.6187 40.3191 7.01Z" fill="#124D73"/>
<path d="M38.7108 35.4014C38.189 33.2709 37.7108 29.5753 37.3195 24.2709C37.0586 21.01 36.9282 18.1404 36.9282 15.6187C36.9282 14.7926 36.7977 14.0969 36.5369 13.5752C36.5369 13.2709 36.7977 12.5752 37.276 11.4448C37.3195 11.3143 37.363 11.2708 37.4064 11.2708C37.4499 11.2708 37.5369 11.3578 37.5803 11.4882C37.7108 11.7491 38.0151 12.5752 38.5369 13.8795C39.0586 15.2274 39.3195 16.097 39.4499 16.4013C39.5369 16.6622 39.5369 16.8361 39.5369 16.923C39.5369 17.3143 39.189 17.097 38.4499 16.2274C38.363 16.1404 38.3195 16.1839 38.3195 16.4013C38.3195 17.5317 38.4499 20.1839 38.7108 24.4013C39.0151 29.8361 39.4499 33.3144 40.0151 34.8362C40.0151 34.9231 39.8412 35.0101 39.5369 35.184C39.189 35.3579 38.9717 35.4014 38.7977 35.4014C38.7543 35.4449 38.7108 35.4449 38.7108 35.4014Z" fill="#124D73"/>
<path d="M45.4497 15.8796C45.4497 15.0535 45.3192 14.4013 45.0583 13.8796C45.0583 13.5752 45.2757 12.8796 45.754 11.7491C45.841 11.6187 45.8844 11.5317 45.9279 11.5317C45.9714 11.5317 46.0149 11.6187 46.1018 11.7491C46.2323 12.0535 46.5801 12.8361 47.0584 14.1404C47.5801 15.4883 47.8844 16.3578 47.9714 16.6622C48.0584 16.9231 48.0584 17.097 48.0584 17.2274C48.0584 17.6187 47.7105 17.3578 46.9714 16.5318C46.8844 16.4013 46.841 16.4448 46.841 16.6622C46.841 16.7491 47.0149 19.3579 47.4062 24.5753C47.7975 29.7492 47.9714 32.6623 47.9714 33.3144C47.9714 35.3144 47.6671 37.0536 47.0584 38.5753C46.9279 38.8797 46.7975 39.0971 46.754 39.2275C46.6236 39.4449 46.5366 39.4884 46.5366 39.3579C46.4931 39.184 46.4931 38.8797 46.5801 38.4014C46.6671 37.7058 46.7105 36.9231 46.7105 36.0101C46.7105 35.184 46.4931 31.8362 46.0584 25.8796C45.667 19.9231 45.4497 16.6187 45.4497 15.8796Z" fill="#124D73"/>
</svg>
