<svg width="48" height="49" viewBox="0 0 48 49" fill="none" xmlns="http://www.w3.org/2000/svg">
<path d="M18.4259 28.2051C18.5507 28.9231 18.8005 29.4225 19.1438 29.641C19.3311 29.7346 19.612 29.7971 19.9866 29.7971V31.3578C19.4248 31.3578 18.9877 31.233 18.6756 31.0145C18.2386 30.7023 17.9264 30.078 17.7704 29.1728C17.6767 28.6109 17.5831 26.9877 17.4894 24.2721C17.3958 21.3066 17.3334 19.4962 17.2709 18.8407C17.1461 17.7794 16.9588 16.7493 16.6466 15.7816C16.6466 15.5319 16.7403 15.1573 16.9588 14.6267C16.99 14.5018 17.0524 14.4394 17.0836 14.4394C17.1149 14.4394 17.1773 14.5018 17.2085 14.5955C17.5519 15.251 17.8016 16.3435 17.9577 17.9042C18.0513 18.8719 18.1449 20.8072 18.2386 23.679C18.3322 26.4571 18.3947 27.9554 18.4259 28.2051Z" fill="#124D73"/>
<path d="M19.1439 21.7436C20.5798 21.213 22.1405 20.6511 23.7949 20.058C23.8886 20.0268 23.9198 20.0268 23.951 20.0268C23.9822 20.058 23.951 20.0892 23.951 20.1829C23.8574 20.4014 23.7949 20.5574 23.7325 20.5887C22.359 21.0881 20.7671 21.7124 18.9254 22.4615C18.9254 22.243 19.0191 21.9933 19.1439 21.7436Z" fill="#124D73"/>
<path d="M26.7604 27.8929C26.6355 28.2362 26.4482 28.642 26.2297 29.079C25.3557 29.8282 24.6066 30.3589 24.0447 30.7022C23.0458 31.2641 22.0469 31.5138 21.0481 31.5138C20.5486 31.5138 20.1741 31.4826 19.8931 31.3577L19.581 29.797C18.9567 29.0478 18.6758 28.2987 18.6758 27.5807C18.6758 26.457 19.0191 25.6142 19.7058 24.9899C20.2989 24.4905 21.0169 24.2095 21.8909 24.2095C23.0458 24.2095 24.0759 24.5841 24.9811 25.3333C25.1372 25.4581 25.1996 25.5518 25.1996 25.6142C25.1996 25.6454 25.1684 25.6766 25.106 25.6766C25.0436 25.6766 24.9187 25.6454 24.7626 25.583C24.1383 25.3645 23.6077 25.2708 23.1395 25.2708C22.4527 25.2708 21.7348 25.3645 21.0169 25.583C20.2989 25.7703 19.7683 26.0512 19.4249 26.3321C19.4249 27.0813 19.6746 27.7992 20.2053 28.5484C20.8296 29.4224 21.6412 29.8594 22.64 29.8594C23.1395 29.8594 23.795 29.6097 24.6066 29.1415C25.2621 28.7669 25.8864 28.3299 26.4482 27.8305C26.5731 27.7368 26.6355 27.6744 26.698 27.6744C26.8228 27.6744 26.8228 27.768 26.7604 27.8929Z" fill="#124D73"/>
<path d="M22.6401 36.7891C24.076 36.2585 25.6367 35.6966 27.2911 35.1035C27.3847 35.0723 27.4159 35.0723 27.4472 35.0723C27.4784 35.1035 27.4472 35.1348 27.4472 35.2284C27.3535 35.4469 27.2911 35.603 27.2286 35.6342C25.8552 36.1336 24.2632 36.7579 22.4216 37.5071C22.4528 37.2886 22.5464 37.0389 22.6401 36.7891Z" fill="#124D73"/>
<path d="M30.9119 25.739C30.8807 25.7078 30.8807 25.6766 30.9119 25.6454L31.4114 24.6153C31.4426 24.5529 31.4738 24.5217 31.505 24.5217C31.5674 24.5217 31.7859 24.6465 32.1917 24.9275C32.5975 25.2084 32.7848 25.3645 32.7848 25.4269C32.7848 25.583 32.5975 25.9575 32.2542 26.5194C32.223 26.5818 32.1605 26.6131 32.1293 26.5818C31.7547 26.2697 31.3489 25.9888 30.9119 25.739Z" fill="#124D73"/>
<path d="M23.7012 35.2596C23.1706 35.2596 22.7335 35.0411 22.3278 34.5728C21.922 34.1046 21.7035 33.4803 21.7035 32.7936C21.7035 31.8259 22.1093 30.5461 22.8896 28.9854C22.9833 28.8293 23.0457 28.7357 23.0769 28.7357C23.1081 28.7357 23.1081 28.7669 23.1081 28.7981C23.1081 28.9542 22.9521 29.516 22.5775 30.4213C22.2341 31.3577 22.078 32.0756 22.078 32.6375C22.078 33.0433 22.1717 33.3555 22.359 33.6052C22.5463 33.8861 22.8272 34.011 23.2018 34.011C23.7636 34.011 24.4504 33.6676 25.1995 32.9497C25.2932 32.8872 25.9487 32.1693 27.1973 30.7646C29.0389 28.7669 30.6933 27.768 32.1604 27.768C32.5662 27.768 32.9408 27.8929 33.2529 28.1426C33.5651 28.3923 33.7212 28.7044 33.7212 29.0478C33.7212 29.4536 33.6275 29.8282 33.5027 30.1403C33.4714 30.234 33.409 30.2964 33.409 30.2964C33.3778 30.2964 33.3154 30.234 33.2529 30.1403C32.9408 29.5785 32.5038 29.3287 31.8795 29.3287C30.7558 29.3287 29.4759 30.0467 28.0401 31.5138C27.2285 32.3878 26.4169 33.2618 25.6365 34.1358C24.981 34.9162 24.3255 35.2596 23.7012 35.2596Z" fill="#124D73"/>
<path d="M35.9374 30.078C36.0622 30.7959 36.3119 31.2954 36.6553 31.5139C36.8426 31.6075 37.1235 31.6699 37.4981 31.6699V33.2307C36.9362 33.2307 36.4992 33.1058 36.1871 32.8873C35.7501 32.5752 35.4379 31.9509 35.2818 31.0456C35.1882 30.4838 35.0946 28.8606 35.0009 26.1449C34.9073 23.1795 34.8448 21.3691 34.7824 20.7135C34.6575 19.6522 34.4703 18.6222 34.1581 17.6545C34.1581 17.4048 34.2518 17.0302 34.4703 16.4995C34.5015 16.3747 34.5639 16.3123 34.5951 16.3123C34.6263 16.3123 34.6888 16.3747 34.72 16.4683C35.0633 17.1238 35.3131 18.2164 35.4691 19.7771C35.5628 20.7448 35.6564 22.6801 35.7501 25.5518C35.8437 28.33 35.8749 29.8283 35.9374 30.078Z" fill="#124D73"/>
<path d="M36.7801 20.2453C38.216 19.7146 39.7767 19.1527 41.4311 18.5597C41.5247 18.5284 41.556 18.5284 41.5872 18.5284C41.6184 18.5597 41.5872 18.5909 41.5872 18.6845C41.4935 18.903 41.4311 19.0591 41.3687 19.0903C39.9952 19.5897 38.4033 20.214 36.5616 20.9632C36.5616 20.7447 36.6552 20.495 36.7801 20.2453Z" fill="#124D73"/>
<path d="M40.4009 22.5864C40.4009 22.7737 40.3697 22.9922 40.276 23.2107C40.1512 23.4916 39.9951 23.6165 39.8078 23.6165C39.4957 23.6165 39.3084 23.398 39.1835 22.9922C39.0274 23.5228 38.7777 23.7725 38.4031 23.7725C38.2471 23.7725 38.1534 23.7101 38.0286 23.554C37.9037 23.3667 37.8413 23.1482 37.8413 22.8985V22.243C37.8413 22.1806 37.8101 22.1494 37.7164 22.1182C37.6228 22.0869 37.5916 22.0557 37.5916 21.9621C37.5916 21.8372 37.654 21.6811 37.7788 21.5563C37.8725 21.4314 37.9661 21.4002 38.0286 21.4002C38.1222 21.4002 38.1534 21.5251 38.1534 21.806C38.1534 21.9621 38.1534 22.0869 38.1222 22.1806C38.091 22.2742 38.091 22.3679 38.091 22.4303C38.091 22.5864 38.1222 22.7424 38.1846 22.8673C38.2471 23.0234 38.3407 23.117 38.4656 23.117C38.6216 23.117 38.7465 23.0546 38.8714 22.9297C38.9962 22.8049 39.0587 22.6488 39.0587 22.4927C39.0587 22.3991 39.0274 22.2118 38.965 21.9933C38.9026 21.7436 38.8714 21.5875 38.8714 21.5251C38.8714 21.4626 38.9026 21.369 38.965 21.2754C39.0274 21.1505 39.0586 21.1193 39.0899 21.1193C39.1523 21.1193 39.2147 21.2754 39.2772 21.5875C39.3396 21.8997 39.3708 22.1494 39.3708 22.3054C39.3708 22.7424 39.5269 22.961 39.8702 22.961C40.0263 22.961 40.12 22.8985 40.1512 22.7424C39.8702 22.243 39.7142 21.8372 39.7142 21.5563C39.7142 21.4002 39.7454 21.2754 39.839 21.1505C39.9015 21.0569 39.9327 21.0256 39.9327 21.0256C39.9639 21.0256 39.9639 21.0881 39.9951 21.1817C39.9951 21.3378 40.0263 21.4314 40.0575 21.5251C40.0575 21.5251 40.1512 21.7124 40.276 22.0869C40.3697 22.3054 40.4009 22.4615 40.4009 22.5864Z" fill="#124D73"/>
<path d="M38.1223 26.0824C38.0911 26.0512 38.0911 26.02 38.1223 25.9888L38.6218 24.9587C38.653 24.8963 38.6842 24.8651 38.7154 24.8651C38.7778 24.8651 38.9963 24.9899 39.4021 25.2708C39.8079 25.5518 39.9952 25.7078 39.9952 25.7703C39.9952 25.9264 39.8079 26.3009 39.4646 26.8628C39.4333 26.9252 39.3709 26.9564 39.3397 26.9252C38.9339 26.6131 38.5281 26.3321 38.1223 26.0824Z" fill="#124D73"/>
<path d="M42.3054 32.8561C41.3689 32.8561 40.9007 32.3254 40.8695 31.2329C40.8695 31.1705 40.8383 31.1393 40.7759 31.1393C40.6822 31.1393 40.6198 31.2017 40.5261 31.2954C39.9955 31.9197 39.6521 32.2942 39.4961 32.4191C38.8405 32.981 38.1226 33.2619 37.4047 33.2619V31.7011C38.1538 31.7011 38.8405 31.4826 39.4024 31.0769C39.6521 30.9208 40.1828 30.4526 40.9944 29.641C41.088 29.5473 41.1504 29.5161 41.2753 29.5161C41.4002 29.5161 41.4314 29.5473 41.4314 29.6722C41.4314 29.7034 41.4314 29.797 41.4002 29.8907C41.3689 29.9843 41.3689 30.078 41.3689 30.1404C41.3689 30.4526 41.4314 30.7023 41.5562 30.9208C41.7123 31.1705 41.962 31.3266 42.3054 31.3266V32.8561Z" fill="#124D73"/>
<path d="M44.6774 28.2362C44.6774 29.7658 44.3965 30.9519 43.8658 31.826C43.3976 32.5751 42.867 32.9185 42.2427 32.9185V31.3577C42.7421 31.3577 43.2415 31.1704 43.6786 30.7646C43.8346 30.6398 43.8971 30.234 43.8971 29.5161C43.8971 29.0791 43.7722 27.2998 43.5537 24.2095C43.3352 21.1193 43.2415 19.2776 43.2415 18.7469C43.2415 18.2475 43.1479 17.8417 42.9918 17.4984C42.9918 17.3111 43.1479 16.8741 43.4288 16.1873C43.4601 16.1249 43.4913 16.0937 43.5225 16.0937C43.5537 16.0937 43.5849 16.1249 43.6473 16.2185C43.741 16.4058 43.9283 16.9053 44.2404 17.6856C44.5526 18.5284 44.7399 19.0279 44.8023 19.2464C44.8335 19.4025 44.8647 19.4961 44.8647 19.5585C44.8647 19.8083 44.6462 19.6522 44.178 19.1527C44.1156 19.0591 44.0843 19.0903 44.0843 19.2464C44.0843 19.2776 44.178 20.6511 44.3965 23.398C44.5838 26.0824 44.6774 27.7056 44.6774 28.2362Z" fill="#124D73"/>
<path d="M43.179 12.9098C44.6149 12.3792 46.1757 11.8173 47.83 11.2242C47.9237 11.193 47.9549 11.193 47.9861 11.193C48.0173 11.2242 47.9861 11.2554 47.9861 11.3491C47.8925 11.5676 47.83 11.7236 47.7676 11.7549C46.3942 12.2543 44.8022 12.8786 42.9605 13.6277C42.9918 13.4092 43.0854 13.1595 43.179 12.9098Z" fill="#124D73"/>
<path d="M47.8929 14.6891C47.8305 14.9076 47.7681 15.0324 47.7056 15.0949C47.4247 15.2821 46.8004 15.6879 45.8328 16.3434C45.8015 16.3747 45.7391 16.4059 45.6767 16.4683C45.6767 16.4683 45.6455 16.4371 45.6455 16.4059L45.7079 16.0625C45.7079 16.0001 45.864 15.844 46.1761 15.5943C45.7703 15.4694 45.583 15.2821 45.583 15.0949C45.583 14.8763 45.6767 14.6266 45.8952 14.3769C46.301 13.9087 46.6131 13.6902 46.8628 13.6902C47.0814 13.6902 47.2062 13.815 47.2062 14.0648C47.2062 14.2208 47.1438 14.3769 47.0189 14.5954C46.9877 14.6266 46.9565 14.6266 46.9253 14.5954C46.8628 14.4393 46.7692 14.3457 46.6443 14.3457C46.5507 14.3457 46.4571 14.3769 46.3322 14.4706C46.2073 14.5642 46.1449 14.6266 46.1449 14.7203C46.1449 14.8139 46.2386 14.8763 46.3946 14.97C46.5507 15.0636 46.6756 15.0949 46.7692 15.0949C46.8628 15.0949 47.0189 15.0324 47.2374 14.9076C47.3935 14.8139 47.5496 14.7203 47.6744 14.6266C47.7993 14.5642 47.8929 14.533 47.9241 14.533C47.8929 14.533 47.8929 14.5954 47.8929 14.6891Z" fill="#124D73"/>
<path d="M46.1135 19.0903C46.1135 18.5909 46.0199 18.1851 45.8638 17.8417C45.8638 17.6544 46.0199 17.2174 46.3008 16.5307C46.332 16.437 46.3945 16.4058 46.3945 16.4058C46.4257 16.4058 46.4569 16.437 46.4881 16.5307C46.5817 16.718 46.769 17.2174 47.0812 17.9978C47.3933 18.8406 47.5806 19.34 47.643 19.5585C47.6743 19.7146 47.7055 19.8082 47.7055 19.9019C47.7055 20.1204 47.487 19.9955 47.0188 19.4961C46.9563 19.4024 46.9251 19.4649 46.9251 19.5897C46.9251 19.6209 47.05 21.2441 47.2685 24.428C47.487 27.6119 47.6118 29.3912 47.6118 29.7658C47.6118 30.9831 47.4245 32.0757 47.05 32.9809C46.9563 33.1682 46.8939 33.293 46.8627 33.3867C46.769 33.5115 46.7378 33.5428 46.7378 33.4491C46.7066 33.3555 46.7378 33.137 46.7378 32.856C46.8002 32.4502 46.8315 31.9508 46.8315 31.3889C46.8315 30.8895 46.7066 28.8293 46.4257 25.1772C46.2384 21.5875 46.1135 19.5273 46.1135 19.0903Z" fill="#124D73"/>
<path d="M5.55422 31.554C7.45784 31.554 9.60242 31.1444 12.0603 30.3974C14.0241 29.7588 15.3012 29.2408 15.8795 28.807C15.9398 28.7829 15.9398 28.7227 15.9398 28.6384C15.9398 28.4094 15.5904 27.795 14.8434 26.8793C14.6988 26.7106 14.6386 26.5058 14.6988 26.301C14.7831 25.8914 14.9036 25.554 15.0482 25.2649C15.1325 25.06 15.2169 24.9516 15.2771 24.9516C15.3012 24.9516 15.4217 25.0359 15.5663 25.2167C15.7711 25.4215 15.9759 25.7347 16.1687 26.2046C16.4819 26.7588 16.6265 27.2408 16.6265 27.6504C16.6265 29.0118 16.1928 30.0239 15.3012 30.6263C14.7229 31.06 13.4217 31.5781 11.4217 32.1926C8.90362 32.9757 6.73495 33.3492 4.83133 33.3492C2.97591 33.3492 1.6747 32.8552 0.843374 31.8793C0.26506 31.2167 0 30.3492 0 29.301C0 28.2046 0.26506 27.1926 0.783133 26.2408C0.951808 25.9516 1.07229 25.7829 1.13253 25.7829C1.13253 25.7829 1.15663 25.807 1.15663 25.8673C1.15663 25.9516 1.09639 26.1323 1.01205 26.3853C0.891567 26.7347 0.746988 27.048 0.638554 27.3974C0.493976 27.8311 0.433735 28.289 0.433735 28.7829C0.433735 29.4215 0.722892 29.9637 1.36145 30.4576C2.25301 31.1805 3.65061 31.554 5.55422 31.554Z" fill="#124D73"/>
<path d="M7.98807 22.7709L8.44591 21.8191C8.47 21.7589 8.50615 21.7348 8.56639 21.7348C8.62663 21.7348 8.85554 21.8794 9.31338 22.1926C9.74711 22.4818 9.97603 22.6505 9.97603 22.7107C9.97603 22.9155 9.77121 23.3493 9.39771 23.9878C9.33747 24.0722 9.27723 24.0722 9.22904 24.0481C8.85555 23.7589 8.42181 23.4697 7.92783 23.1565C7.75916 23.5059 7.61458 23.8191 7.43386 24.0842C7.40976 24.1685 7.34952 24.2047 7.28928 24.1685C6.85554 23.8191 6.39771 23.5059 5.92783 23.2167C5.90374 23.1926 5.90374 23.1565 5.92783 23.0962L6.48205 21.9396C6.50614 21.8794 6.56639 21.8191 6.60253 21.8191C6.66277 21.8191 6.86759 21.9637 7.24109 22.2288C7.60253 22.4577 7.86759 22.6505 7.98807 22.7709Z" fill="#124D73"/>
<path d="M7.87984 16.8038C7.87984 16.9276 7.75604 17.1752 7.4775 17.5465C7.16801 17.9798 6.85852 18.3203 6.57998 18.506C6.39428 18.6298 5.80625 18.8464 4.78493 19.094C4.59923 19.125 4.50639 19.1559 4.50639 19.1559C4.53733 19.125 4.59923 19.094 4.72303 19.0012C4.84683 18.9083 5.21822 18.6917 5.80625 18.3822C6.36333 18.0727 6.70377 17.887 6.79662 17.7941C6.82757 17.7632 6.82757 17.7632 6.82757 17.7322C6.82757 17.6084 6.33238 17.5465 5.31106 17.5465C5.31106 17.5465 5.12537 17.5465 4.75398 17.5465C4.56829 17.5465 4.44449 17.5465 4.44449 17.5156C4.44449 17.4846 4.47543 17.4537 4.53733 17.3609L4.90873 16.7728C5.00157 16.5871 5.21822 16.4943 5.49676 16.4324C5.5896 16.4014 5.80625 16.4014 6.17764 16.4014C7.29181 16.4324 7.87984 16.5562 7.87984 16.8038Z" fill="#124D73"/>
</svg>
