<svg width="49" height="49" viewBox="0 0 49 49" fill="none" xmlns="http://www.w3.org/2000/svg">
<path d="M19.9583 30.2617C20.1054 31.1743 20.4348 31.7946 20.8733 32.0861C21.0925 32.2319 21.4577 32.3045 21.9324 32.3039L21.9348 34.2755C21.2046 34.2764 20.6567 34.131 20.2547 33.8394C19.7066 33.4385 19.304 32.6357 19.12 31.5041C19.0097 30.8105 18.8976 28.7295 18.7839 25.3341C18.6699 21.61 18.5575 19.3099 18.4835 18.5068C18.3359 17.1926 18.0787 15.8785 17.7121 14.674C17.7117 14.3454 17.8572 13.8706 18.112 13.2496C18.1484 13.1035 18.2212 12.9939 18.2578 12.9938C18.2943 12.9938 18.3674 13.0667 18.404 13.1762C18.8432 14.0154 19.137 15.4025 19.3584 17.3739C19.5059 18.5786 19.6184 21.0247 19.6959 24.6757C19.8096 28.0712 19.8849 29.9697 19.9583 30.2617Z" fill="#124D73"/>
<path d="M20.6011 18.2851C22.4259 17.6257 24.3601 16.8931 26.4404 16.1604C26.5499 16.1237 26.6229 16.1236 26.6229 16.1236C26.6594 16.1601 26.623 16.1966 26.6231 16.3062C26.5139 16.5984 26.4046 16.7811 26.3316 16.8177C24.6164 17.4405 22.5727 18.2462 20.2736 19.1983C20.3463 18.9061 20.4555 18.6139 20.6011 18.2851Z" fill="#124D73"/>
<path d="M22.2883 24.49C22.2517 24.4535 22.2517 24.417 22.2881 24.3805L22.9437 23.0652C22.9802 22.9922 23.0166 22.9556 23.0531 22.9556C23.1262 22.9555 23.4185 23.1377 23.8935 23.4657C24.4051 23.7937 24.6609 24.0125 24.661 24.0855C24.6613 24.3045 24.4427 24.7429 24.0055 25.4737C23.9691 25.5468 23.8961 25.5834 23.8595 25.5469C23.3479 25.1824 22.7998 24.818 22.2883 24.49Z" fill="#124D73"/>
<path d="M33.5389 28.9307L33.0293 30.2092C32.993 30.3553 32.8835 30.4285 32.7375 30.4286C32.0438 30.4295 31.4597 30.5397 30.9123 30.7229C30.2554 30.9793 29.0512 31.565 27.3363 32.4798C25.074 33.6875 23.3953 34.3102 22.3364 34.3115C22.2275 34.8228 22.1183 35.0785 21.9723 35.0787C21.8992 35.0788 21.8259 34.8233 21.7888 34.3487L21.8253 34.3121C21.7885 34.0566 21.6416 33.3995 21.3117 32.3411C21.0185 31.3922 20.8716 30.6621 20.8709 30.151C20.8697 29.1652 21.0149 28.4348 21.3064 27.9963C21.853 27.0828 22.7287 26.6436 23.8241 26.6423C24.2987 26.6417 25.4309 26.8959 27.184 27.3684C29.1563 27.9137 30.325 28.2044 30.7267 28.2769C32.0779 28.4943 32.9178 28.5663 33.2829 28.5659C33.4654 28.5657 33.5751 28.6386 33.5387 28.7481C33.5752 28.7846 33.5753 28.8576 33.5389 28.9307ZM29.3778 29.885C26.2731 28.903 24.2279 28.4308 23.2421 28.432C22.7309 28.4327 22.293 28.6158 21.8918 28.9448C21.527 29.2374 21.3813 29.5296 21.3817 29.8217C21.6014 30.3326 21.931 31.172 22.2975 32.3034C22.48 32.3032 22.6626 32.303 22.8087 32.3028C23.6484 32.3018 24.8893 31.8986 26.6044 31.1298L29.3778 29.885Z" fill="#124D73"/>
<path d="M36.0012 11.7673C36.074 11.5846 36.0738 11.4021 36.0371 11.2196C36.0003 11.0006 35.8906 10.8912 35.7446 10.8913C35.6716 10.8914 35.5986 10.928 35.4526 11.0012C35.3432 11.0744 35.2702 11.1475 35.2703 11.184C35.2705 11.3666 35.4898 11.5488 36.0012 11.7673ZM35.6007 12.6441C34.9796 12.3162 34.6871 11.988 34.6867 11.6594C34.6862 11.2212 34.8683 10.8559 35.2695 10.4903C35.6706 10.1247 35.9626 10.0148 36.2183 10.0875C36.4374 10.1603 36.5473 10.4157 36.5477 10.7808C36.5481 11.1459 36.4756 11.5111 36.3301 11.9495C36.6224 12.1317 36.8051 12.2775 36.9148 12.4234C36.915 12.5694 36.7693 12.8617 36.5142 13.2636C36.4411 13.1542 36.2583 13.0084 35.966 12.8262C35.638 13.3012 35.2004 13.7399 34.6532 14.1057C34.0695 14.5445 33.5223 14.9103 33.0114 15.13C32.9019 15.1666 32.318 15.3864 31.2596 15.7893C31.0772 15.8626 30.9677 15.8992 30.9312 15.8992C30.8947 15.8993 30.8947 15.8993 30.8947 15.8993C30.8946 15.8628 31.0041 15.7896 31.1864 15.6434C31.9891 15.1677 32.7553 14.6922 33.5214 14.2166C34.47 13.6312 35.1631 13.1192 35.6007 12.6441Z" fill="#124D73"/>
<path d="M36.8473 16.9509C36.8476 17.2065 36.8114 17.4621 36.7022 17.7543C36.5566 18.1196 36.3377 18.2659 36.1186 18.2662C35.7535 18.2666 35.4611 18.0114 35.3145 17.5004C35.1327 18.1578 34.8045 18.4868 34.3298 18.4874C34.1473 18.4876 34.0012 18.4148 33.8549 18.2324C33.7086 18.0135 33.6352 17.7215 33.6348 17.3929L33.6338 16.5897C33.6337 16.5167 33.5972 16.4802 33.4876 16.4438C33.378 16.4074 33.3415 16.371 33.3413 16.2249C33.3411 16.0424 33.4139 15.8597 33.5962 15.7134C33.7421 15.5672 33.8516 15.4941 33.8881 15.494C33.9976 15.4939 34.0343 15.6764 34.0347 16.005C34.035 16.1876 34.0352 16.3701 33.9988 16.4797C33.9624 16.5893 33.9626 16.6988 33.9627 16.8083C33.963 17.0274 33.9997 17.2099 34.0729 17.3559C34.1462 17.5749 34.2558 17.6478 34.4018 17.6476C34.5844 17.6474 34.7304 17.5742 34.9127 17.3914C35.0586 17.2451 35.1313 17.026 35.1311 16.8434C35.131 16.7339 35.0942 16.5149 35.0208 16.1864C34.9474 15.8944 34.9107 15.7119 34.9105 15.6023C34.9104 15.5293 34.9468 15.4197 35.0197 15.2736C35.0925 15.1274 35.1289 15.0544 35.1654 15.0543C35.2385 15.0542 35.3117 15.2367 35.3853 15.6748C35.4588 16.0763 35.5321 16.3683 35.5324 16.5509C35.533 17.0985 35.7525 17.3904 36.1906 17.3898C36.3732 17.3896 36.4826 17.3164 36.5554 17.0973C36.1895 16.477 36.0063 15.9661 36.0059 15.601C36.0056 15.4184 36.0419 15.2358 36.1513 15.0896C36.2242 14.98 36.2606 14.9435 36.2972 14.9434C36.3337 14.9434 36.3338 15.0164 36.3704 15.1624C36.3707 15.345 36.4074 15.491 36.444 15.6005C36.444 15.6005 36.5538 15.8559 36.7369 16.2938C36.7738 16.6224 36.8471 16.8048 36.8473 16.9509Z" fill="#124D73"/>
<path d="M29.5697 37.5157C31.0302 37.5139 32.636 36.9278 34.3506 35.7573C35.7004 34.8429 36.7215 33.8923 37.4871 32.9056C37.7057 32.5767 37.8151 32.4306 37.8151 32.4306C37.888 32.2844 37.9242 32.1018 37.9239 31.8097C37.9231 31.189 37.7394 30.2034 37.4091 28.8529C37.1523 27.8309 36.5297 26.2252 35.5413 24.1087C35.5047 24.0722 35.5409 23.7801 35.6133 23.3054C35.6858 22.8671 35.7584 22.5385 35.7947 22.3193C35.8309 22.0637 35.9404 22.0271 36.0501 22.2095C37.2204 23.7416 38.0627 25.8582 38.6502 28.5593C38.9072 29.7639 39.2013 31.4431 39.5691 33.5968C39.7163 34.5459 40.0456 35.1297 40.4841 35.4212C40.7033 35.567 41.0685 35.6396 41.5432 35.639L41.5456 37.6106C40.8519 37.6115 40.304 37.4661 39.902 37.1745C39.3173 36.7371 38.9513 35.9708 38.7673 34.8391C38.6938 34.4376 38.5468 33.6345 38.3628 32.4664C38.2179 33.4159 37.8903 34.183 37.3799 34.8043C36.3955 36.0104 35.2284 37.0706 33.8421 37.9486C32.2368 38.9729 30.8135 39.4858 29.4991 39.4874C28.8054 39.4882 28.2573 39.1968 27.928 38.613C27.6354 38.1387 27.4886 37.5547 27.4878 36.861C27.4861 35.4736 27.7765 34.0858 28.3589 32.6246C28.468 32.2959 28.5774 32.1497 28.6504 32.1496C28.6869 32.1496 28.687 32.1861 28.687 32.2591C28.6871 32.3321 28.6508 32.5147 28.578 32.6974C28.1781 34.1218 27.9604 35.1809 27.9613 35.9476C27.9991 36.9699 28.5474 37.5169 29.5697 37.5157Z" fill="#124D73"/>
<path d="M44.6055 31.6556C44.6078 33.5542 44.2446 35.0516 43.5887 36.1843C43.0057 37.1343 42.3125 37.5733 41.5458 37.5742L41.5434 35.6026C42.1641 35.6018 42.7845 35.3455 43.3681 34.8701C43.5504 34.7239 43.6228 34.2126 43.6217 33.2998C43.6211 32.7522 43.4723 30.5251 43.1755 26.6188C42.8786 22.7124 42.7663 20.4123 42.7655 19.7551C42.7647 19.1344 42.6545 18.5869 42.4715 18.1855C42.4712 17.9299 42.6531 17.382 43.0171 16.5053C43.0535 16.4322 43.09 16.3592 43.1265 16.3591C43.163 16.3591 43.1995 16.3956 43.2727 16.505C43.3825 16.7239 43.6388 17.3443 44.0052 18.3662C44.4081 19.4245 44.6645 20.0814 44.7013 20.3004C44.738 20.483 44.7747 20.629 44.7748 20.702C44.7751 20.9941 44.4829 20.8484 43.9344 20.1918C43.8612 20.0824 43.8248 20.119 43.825 20.3015C43.825 20.338 43.9367 22.0904 44.1965 25.5222C44.4927 28.9539 44.6047 30.9984 44.6055 31.6556Z" fill="#124D73"/>
<path d="M46.0146 19.459C46.0138 18.8383 45.9036 18.2908 45.7206 17.8894C45.7203 17.6703 45.9022 17.1224 46.2663 16.2457C46.3026 16.1361 46.3756 16.0995 46.3756 16.0995C46.4121 16.0995 46.4487 16.136 46.5218 16.2454C46.6316 16.4643 46.888 17.0847 47.2543 18.1066C47.6572 19.1649 47.9136 19.8218 47.9504 20.0409C47.9871 20.2234 48.0238 20.3694 48.024 20.4789C48.0243 20.771 47.732 20.5888 47.1836 19.9688C47.1104 19.8593 47.074 19.9324 47.0742 20.0784C47.0742 20.1149 47.2227 22.1594 47.5197 26.1753C47.8167 30.1912 47.9654 32.4182 47.9661 32.9294C47.9679 34.4628 47.7505 35.814 47.2773 36.983C47.168 37.2022 47.0952 37.3848 47.0223 37.4944C46.913 37.6771 46.8765 37.6772 46.8764 37.5676C46.8397 37.4582 46.8759 37.2025 46.8754 36.8009C46.9478 36.2897 46.9836 35.6689 46.9827 34.9387C46.9819 34.318 46.7962 31.6894 46.4986 27.1258C46.2009 22.5623 46.0152 20.0067 46.0146 19.459Z" fill="#124D73"/>
<path d="M17.2847 29.7554C17.2863 31.0744 16.9686 32.0895 16.3897 32.786C15.4488 33.8598 14.0585 34.9051 12.2478 35.951C9.95908 37.2004 7.82907 37.8698 5.81422 37.8722C3.17606 37.8754 1.31905 36.5586 0.315699 33.9507C0.11213 33.4291 0.0388959 32.8059 0.0379265 32.0086C0.037292 31.4868 0.0656478 30.9649 0.137455 30.414C0.281439 29.6166 0.454538 28.9206 0.656751 28.326C0.758007 28.152 0.83036 28.0504 0.902836 28.0503C0.975313 28.0502 0.975489 28.1952 0.932285 28.4272C0.831241 28.7752 0.759222 29.1522 0.687169 29.5001C0.543026 30.1671 0.485625 30.6455 0.486012 30.9644C0.487317 32.0371 0.836405 33.0223 1.5623 33.9491C2.53494 35.1366 3.97073 35.7581 5.81165 35.7559C7.44962 35.7539 9.1886 35.3749 10.9996 34.6045C12.4919 33.9793 13.81 33.2095 14.9975 32.3093C16.0402 31.4673 16.5903 30.8868 16.5899 30.539C16.5898 30.4665 16.3428 30.0174 15.8924 29.1482C15.3693 28.1342 14.9912 27.1345 14.7436 26.1636C14.6418 25.8448 14.4966 25.6421 14.395 25.5407C14.2499 25.3959 14.1918 25.2945 14.1916 25.1641C14.1915 25.0626 14.2923 24.5407 14.4651 23.5983C14.4939 23.4243 14.5373 23.3517 14.6098 23.3517C14.6822 23.3516 14.7547 23.3805 14.8128 23.4529C15.0886 23.7714 15.6836 24.3505 16.5544 25.2192C16.6995 25.364 16.7576 25.4654 16.7578 25.5668C16.7579 25.6683 16.6855 25.7119 16.5115 25.7121C16.3376 25.7123 16.0621 25.6402 15.6706 25.5392C15.6997 25.6406 16.0193 26.2635 16.5716 27.4225C17.0365 28.2916 17.2839 29.0886 17.2847 29.7554Z" fill="#124D73"/>
<path d="M5.49218 23.4641C5.46316 23.4352 5.4631 23.3917 5.49201 23.3192L6.1571 21.9268C6.18601 21.8543 6.25845 21.8252 6.30193 21.8252C6.37441 21.8251 6.67902 21.9986 7.20128 22.3459C7.75256 22.7221 8.04273 22.9392 8.04282 23.0117C8.04312 23.2581 7.79728 23.7367 7.31987 24.5056C7.24752 24.6071 7.21858 24.6506 7.14605 24.6072C6.59473 24.202 6.04343 23.8113 5.49218 23.4641Z" fill="#124D73"/>
<path d="M1.77092 26.7156C1.77089 26.6866 1.79982 26.6431 1.79982 26.6431C1.82878 26.614 1.82878 26.614 1.82881 26.643C1.85784 26.672 1.85789 26.7155 1.82894 26.7445C1.65626 27.7884 1.338 28.3106 0.888643 28.3111C0.439287 28.3117 0.2214 27.9351 0.220465 27.1668C0.21932 26.2246 0.464525 25.2241 1.01411 24.2088C1.15877 23.9622 1.21659 23.8317 1.26008 23.8316C1.26011 23.8606 1.2313 24.0056 1.15912 24.2521C0.812537 25.3252 0.63949 26.0647 0.640037 26.514C0.640707 27.0648 0.786049 27.3836 1.09045 27.3832C1.32236 27.3684 1.52499 27.1217 1.77092 26.7156Z" fill="#124D73"/>
<path d="M8.66981 16.1885C8.66997 16.3208 8.50494 16.5856 8.20788 17.0489C7.84473 17.5454 7.51448 17.9095 7.18407 18.1414C6.98581 18.274 6.29164 18.5063 5.16769 18.8383C4.96932 18.8716 4.83708 18.9049 4.83708 18.9049C4.87011 18.8718 4.93621 18.8386 5.06832 18.7062C5.20044 18.5737 5.63006 18.3417 6.29104 18.0102C6.91891 17.6457 7.28243 17.4469 7.41459 17.3475C7.44761 17.3144 7.44762 17.3144 7.44758 17.2813C7.44742 17.149 6.88516 17.0836 5.72774 17.085C5.72774 17.085 5.52932 17.0852 5.06635 17.0858C4.83487 17.0861 4.73566 17.0862 4.73562 17.0531C4.73558 17.0201 4.76857 16.9539 4.83459 16.8546L5.23057 16.1597C5.36261 15.9611 5.56086 15.8286 5.89152 15.7951C5.99068 15.7619 6.25524 15.7616 6.68514 15.7611C8.0079 15.7594 8.66945 15.8909 8.66981 16.1885Z" fill="#124D73"/>
</svg>
