<svg width="48" height="49" viewBox="0 0 48 49" fill="none" xmlns="http://www.w3.org/2000/svg">
<path d="M1.87462 32.2149C1.39599 32.2149 0.957251 31.9756 0.558396 31.5369C0.159541 31.0582 0 30.4998 0 29.8617C0 28.9443 0.358969 27.7477 1.11679 26.272C1.19657 26.1124 1.27634 26.0327 1.31622 26.0327C1.35611 26.0327 1.35611 26.0726 1.35611 26.1124C1.35611 26.272 1.19657 26.7905 0.877482 27.668C0.558398 28.5455 0.398855 29.2235 0.398855 29.742C0.398855 30.1409 0.478626 30.46 0.678054 30.6993C0.877482 30.9386 1.15668 31.0981 1.47576 31.0981C1.99428 31.0981 2.67233 30.6993 3.43015 29.8617C4.10821 29.1039 4.74638 28.346 5.38454 27.5483C7.05974 25.6737 8.5355 24.7164 9.77195 24.7164V26.1922C8.69504 26.1922 7.49848 26.8703 6.14237 28.2663C5.74351 28.705 5.18512 29.3432 4.50706 30.1808C3.90878 30.8987 3.47004 31.4172 3.19084 31.6565C2.7521 32.0155 2.31336 32.2149 1.87462 32.2149Z" fill="#124D73"/>
<path d="M6.14231 18.8932C7.49842 18.4146 8.97418 17.8562 10.5297 17.2978C10.6095 17.2579 10.6494 17.2579 10.6494 17.2579C10.6893 17.2978 10.6494 17.3377 10.6494 17.3776C10.5696 17.577 10.4898 17.7365 10.4499 17.7764C9.13373 18.255 7.61808 18.8533 5.903 19.5713C5.94288 19.3718 6.02265 19.1325 6.14231 18.8932Z" fill="#124D73"/>
<path d="M9.21348 22.0042L9.57244 21.2464C9.61233 21.1666 9.65222 21.1666 9.65222 21.1666C9.6921 21.1666 9.93142 21.2863 10.2904 21.5655C10.6892 21.8048 10.8488 21.9643 10.8488 22.0042C10.8488 22.1638 10.6892 22.5227 10.3702 23.0412C10.3303 23.121 10.2904 23.121 10.2505 23.0811C9.93142 22.8418 9.53256 22.6025 9.1337 22.3233C9.01405 22.6424 8.85451 22.9216 8.73485 23.121C8.69496 23.2008 8.65508 23.2008 8.61519 23.2008C8.25622 22.9216 7.85737 22.6424 7.45851 22.4031C7.41863 22.4031 7.41863 22.3632 7.45851 22.3233L7.93714 21.3661C7.97702 21.2863 8.01691 21.2863 8.01691 21.2863C8.0568 21.2863 8.21634 21.4059 8.53542 21.6054C8.93428 21.7649 9.1337 21.9245 9.21348 22.0042Z" fill="#124D73"/>
<path d="M7.89716 20.4886C7.85727 20.4886 7.85727 20.4487 7.89716 20.4088L8.37578 19.4516C8.41567 19.3718 8.45555 19.3718 8.45555 19.3718C8.49544 19.3718 8.73475 19.4914 9.09372 19.7706C9.45269 20.0099 9.65212 20.1695 9.65212 20.2094C9.65212 20.3689 9.49258 20.7279 9.17349 21.2464C9.13361 21.3262 9.09372 21.3262 9.05384 21.2863C8.69487 21.0071 8.29601 20.7279 7.89716 20.4886Z" fill="#124D73"/>
<path d="M11.4872 25.8732C11.4872 26.272 11.4074 26.631 11.2878 26.9102C11.2479 27.0299 11.208 27.0698 11.1681 27.0698C11.1282 27.0698 11.0884 27.0299 11.0485 26.9102C10.7693 26.3917 10.3305 26.1524 9.73225 26.1524V24.6766C10.2906 24.6766 10.7294 24.8362 11.0485 25.1154C11.3676 25.3547 11.4872 25.6339 11.4872 25.8732Z" fill="#124D73"/>
<path d="M14.7174 22.3234C14.7174 22.443 14.5978 22.6823 14.3186 23.0413C13.9995 23.48 13.7203 23.7592 13.4411 23.9587C13.2815 24.0783 12.6833 24.2778 11.726 24.5171C11.5266 24.557 11.4468 24.557 11.4468 24.557C11.4867 24.5171 11.5266 24.4772 11.6462 24.3974C11.7659 24.2778 12.1249 24.1182 12.6833 23.7991C13.2417 23.5199 13.5209 23.3205 13.6405 23.2407C13.6804 23.2008 13.6804 23.2009 13.6804 23.161C13.6804 23.0413 13.2018 22.9615 12.2046 22.9615C12.2046 22.9615 12.0052 22.9615 11.6462 22.9615C11.4468 22.9615 11.367 22.9615 11.367 22.9216C11.367 22.8818 11.4069 22.8419 11.4468 22.7621L11.8058 22.2037C11.9254 22.0442 12.085 21.9245 12.3642 21.8846C12.444 21.8447 12.6833 21.8447 13.0422 21.8447C14.159 21.9644 14.7174 22.0841 14.7174 22.3234Z" fill="#124D73"/>
<path d="M17.7492 20.4088C19.1053 19.9302 20.5811 19.3718 22.1366 18.8134C22.2164 18.7735 22.2563 18.7735 22.2563 18.7735C22.2962 18.8134 22.2563 18.8533 22.2563 18.8932C22.1765 19.0926 22.0967 19.2522 22.0568 19.2921C20.7406 19.7707 19.225 20.369 17.5099 21.0869C17.5099 20.8875 17.6296 20.6482 17.7492 20.4088Z" fill="#124D73"/>
<path d="M6.02246 32.7733C6.02246 31.7363 6.26177 30.6992 6.70051 29.6223C6.78028 29.383 6.86005 29.2634 6.89994 29.2634C6.93982 29.2634 6.93982 29.3033 6.93982 29.3431C6.93982 29.4229 6.89994 29.5426 6.86005 29.6622C6.54097 30.7391 6.42131 31.5368 6.42131 32.0952C6.42131 32.5739 6.54097 33.0126 6.82017 33.3716C7.17914 33.8901 7.81731 34.1693 8.6549 34.1693C9.41273 34.1693 10.3301 33.8502 11.3671 33.212C12.1648 32.7334 12.9625 32.1351 13.7204 31.3773C14.3984 30.7391 14.7574 30.3802 14.7574 30.2206C14.7574 29.6622 14.3585 29.383 13.6007 29.383H12.8429C12.0452 29.383 11.6463 28.9443 11.6463 28.0269C11.6463 27.4685 11.8457 26.95 12.2845 26.5113C12.6435 26.1124 13.0024 25.9529 13.3614 25.913C14.3585 25.913 15.1562 27.0298 15.7944 29.2634C15.9141 29.6622 16.1135 29.9813 16.3927 30.2206C16.5921 30.3802 16.9112 30.5796 17.3499 30.779V32.2548C16.6719 31.9756 16.1933 31.6166 15.8343 31.0981C15.595 30.7391 15.3557 30.1807 15.1164 29.4229C14.9967 28.9842 14.7175 28.5055 14.3186 28.1067C13.8799 27.6281 13.4412 27.3489 13.0024 27.3489C12.8429 27.3489 12.6833 27.3887 12.5637 27.4685C12.444 27.5483 12.3643 27.6281 12.3643 27.7078C12.3643 27.8275 12.4839 27.8674 12.7232 27.8674C12.6833 27.8674 12.9227 27.8674 13.4013 27.8674C13.7602 27.8674 14.1192 28.1067 14.4383 28.5454C14.7973 29.0241 14.9967 29.5824 14.9967 30.1408C14.9967 30.8189 14.7574 31.4172 14.2788 31.9756C13.7204 32.6137 12.9625 33.2918 12.0452 33.9699C10.6492 35.0069 9.45261 35.5254 8.49536 35.5254C7.69765 35.5254 7.05948 35.2063 6.62074 34.608C6.22188 34.2092 6.02246 33.571 6.02246 32.7733Z" fill="#124D73"/>
<path d="M39.5265 30.0612C39.1276 30.1011 36.1761 30.6595 30.632 31.7364C25.9654 32.4543 23.0139 32.8133 21.8173 32.8133C19.5837 32.8133 18.0681 32.6537 17.2704 32.3346V30.8589C17.9484 31.178 19.6635 31.3774 22.3358 31.3774C23.5723 31.3774 26.4041 31.0184 30.8314 30.3404C35.6975 29.3831 38.5692 28.8646 39.4068 28.8247C39.5265 28.8247 39.5664 28.745 39.4866 28.6253C39.1276 28.1068 38.6889 27.7079 38.1704 27.5085C37.612 27.2692 36.7744 27.1495 35.6975 27.1495C35.0194 27.1495 32.8656 27.349 29.1562 27.7079C25.4469 28.1068 23.4127 28.2663 23.0538 28.2663C21.6578 28.2663 20.6606 28.1866 20.1022 28.027C19.4242 27.8276 19.1051 27.4686 19.1051 26.9501C19.1051 26.272 19.4242 25.4743 20.0225 24.557C20.6606 23.6396 21.7375 22.6425 23.3329 21.5656C24.9683 20.4488 26.1249 19.8904 26.8828 19.8904C27.4412 19.8904 27.7204 20.0898 27.7204 20.5285C27.7204 20.6083 27.7204 20.6881 27.6805 20.7678C27.6406 20.9673 27.5608 21.1667 27.4412 21.3661C27.3215 21.6054 27.2417 21.765 27.2018 21.765C27.162 21.765 27.0822 21.6852 26.9625 21.5257C26.8429 21.3661 26.6434 21.2864 26.4041 21.2864C26.1249 21.2864 25.6463 21.4858 24.8885 21.8448C24.1705 22.2037 23.5324 22.6026 22.974 23.0014C22.0167 23.7194 21.1791 24.4373 20.5011 25.0755C19.9826 25.594 19.7034 25.9131 19.7034 25.9929C19.7034 26.1923 19.9826 26.3917 20.5011 26.5114C21.0994 26.6709 21.937 26.7507 23.0139 26.7507C24.2503 26.7507 26.5238 26.5512 29.7545 26.1923C32.9852 25.8333 35.0593 25.6339 35.9368 25.6339C37.0935 25.6339 38.0906 25.8732 38.9282 26.3119C39.8854 26.8304 40.3641 27.5484 40.3641 28.4658C40.3641 28.6652 40.2843 28.9045 40.1646 29.2236C40.045 29.5427 39.8854 29.7421 39.7658 29.9415C39.7259 29.9814 39.7259 29.9814 39.686 30.0213C39.8057 30.3005 40.0051 30.5398 40.2444 30.6595C40.5236 30.819 40.8427 30.8589 41.2017 30.8589V32.3346C40.4438 32.3346 39.9253 32.0554 39.686 31.497C39.5265 30.9785 39.4467 30.4999 39.5265 30.0612Z" fill="#124D73"/>
<path d="M43.515 13.0699C43.515 13.1895 43.3954 13.4289 43.1162 13.7878C42.7971 14.2266 42.5179 14.5058 42.2387 14.7052C42.0792 14.8248 41.4809 15.0243 40.5236 15.2636C40.3242 15.3035 40.2444 15.3035 40.2444 15.3035C40.2843 15.2636 40.3242 15.2237 40.4439 15.1439C40.5635 15.0243 40.9225 14.8647 41.4809 14.5457C42.0393 14.2665 42.3185 14.067 42.4381 13.9873C42.478 13.9474 42.478 13.9474 42.478 13.9075C42.478 13.7878 41.9994 13.7081 41.0022 13.7081C41.0022 13.7081 40.8028 13.7081 40.4439 13.7081C40.2444 13.7081 40.1646 13.7081 40.1646 13.6682C40.1646 13.6283 40.2045 13.5884 40.2444 13.5086L40.6034 12.9502C40.723 12.7907 40.8826 12.671 41.1618 12.6311C41.2416 12.5913 41.4809 12.5913 41.8398 12.5913C42.9566 12.7109 43.515 12.8306 43.515 13.0699Z" fill="#124D73"/>
<path d="M43.5153 27.8674C43.5153 29.3033 43.2361 30.4201 42.7176 31.2577C42.2788 31.9756 41.7603 32.2947 41.162 32.2947V30.8189C41.6406 30.8189 42.0794 30.6195 42.5181 30.2605C42.6378 30.1409 42.7176 29.742 42.7176 29.064C42.7176 28.6651 42.5979 26.9899 42.3985 24.0384C42.199 21.0869 42.0794 19.3718 42.0794 18.8932C42.0794 18.4145 41.9996 18.0157 41.8401 17.6966C41.8401 17.4972 41.9597 17.0983 42.2389 16.4601C42.2788 16.3804 42.3187 16.3405 42.3187 16.3405C42.3586 16.3405 42.3985 16.3804 42.4384 16.4601C42.5181 16.6197 42.7176 17.0983 42.9968 17.8561C43.3158 18.6538 43.4754 19.1325 43.5153 19.3319C43.5551 19.4914 43.595 19.5712 43.595 19.651C43.595 19.8903 43.3956 19.7706 42.9569 19.292C42.917 19.2122 42.8771 19.2521 42.8771 19.3718C42.8771 19.4117 42.9569 20.7279 43.1563 23.2806C43.3956 25.8332 43.5153 27.3888 43.5153 27.8674Z" fill="#124D73"/>
<path d="M43.4751 16.0612C44.8312 15.5826 46.3069 15.0242 47.8625 14.4658C47.9423 14.4259 47.9821 14.4259 47.9821 14.4259C48.022 14.4658 47.9821 14.5057 47.9821 14.5456C47.9024 14.745 47.8226 14.9046 47.7827 14.9444C46.4665 15.4231 44.9508 16.0214 43.2358 16.7393C43.2358 16.5 43.3554 16.3006 43.4751 16.0612Z" fill="#124D73"/>
<path d="M44.9506 19.4118C44.9506 18.9331 44.8708 18.5343 44.7113 18.2551C44.7113 18.0955 44.8309 17.6568 45.1101 17.0186C45.15 16.9389 45.1899 16.899 45.1899 16.899C45.2298 16.899 45.2697 16.9389 45.3096 17.0186C45.3893 17.1782 45.5888 17.6568 45.868 18.4146C46.187 19.2123 46.3466 19.691 46.3865 19.8904C46.4264 20.0499 46.4662 20.1297 46.4662 20.2095C46.4662 20.4089 46.2668 20.2892 45.8281 19.8106C45.7882 19.7308 45.7483 19.7707 45.7483 19.8904C45.7483 19.9303 45.868 21.4459 46.0674 24.4772C46.2668 27.4686 46.3865 29.1837 46.3865 29.5427C46.3865 30.6994 46.2269 31.7364 45.868 32.6139C45.7882 32.7734 45.7084 32.8931 45.6685 32.9728C45.5888 33.0925 45.5489 33.1324 45.5489 33.0526C45.509 32.9728 45.5489 32.7734 45.5489 32.4942C45.5888 32.0954 45.6286 31.6167 45.6286 31.0982C45.6286 30.6196 45.509 28.6652 45.2697 25.235C45.0702 21.7251 44.9506 19.8106 44.9506 19.4118Z" fill="#124D73"/>
</svg>
