<svg width="49" height="49" viewBox="0 0 49 49" fill="none" xmlns="http://www.w3.org/2000/svg">
<path d="M45.2841 11.0022C45.2841 10.1085 45.1538 9.40093 44.8745 8.80512C44.8745 8.4886 45.0979 7.72522 45.6379 6.57084C45.6751 6.44051 45.731 6.34741 45.7682 6.34741C45.8613 6.34741 45.8986 6.44051 45.9917 6.57084C46.122 6.88737 46.4385 7.72522 46.9785 9.12165C47.5556 10.5925 47.8722 11.4863 47.9653 11.84C48.0584 12.0634 48.0584 12.2869 48.0584 12.38C48.0584 12.7896 47.7046 12.5662 46.904 11.6724C46.8109 11.5421 46.7737 11.6352 46.7737 11.8586C46.7737 11.9517 46.9971 14.726 47.4067 20.2558C47.8163 25.7484 47.9839 28.8392 47.9839 29.5467C47.9839 31.6506 47.6674 33.5312 47.0529 35.1324C46.8667 35.4489 46.7923 35.6723 46.6992 35.8399C46.5688 36.0633 46.513 36.0633 46.4757 35.933C46.4385 35.7468 46.4757 35.3931 46.513 34.909C46.6061 34.1456 46.6433 33.3077 46.6433 32.3582C46.6433 31.4645 46.4199 27.8896 45.973 21.5964C45.5076 15.3032 45.2841 11.7655 45.2841 11.0022Z" fill="#124D73"/>
<path d="M41.3177 30.0868C41.1315 31.7439 41.0012 32.5445 40.9081 32.5445C40.815 32.5445 40.6847 31.8742 40.4985 30.4964C40.1447 28.2621 38.4876 25.7671 35.5458 22.8998C34.2425 21.6896 32.9578 20.4794 31.6544 19.2319C30.2766 17.8913 29.1967 16.7742 28.4892 15.8805C28.0051 15.2474 27.4652 14.5399 26.888 13.6462C26.5714 13.069 26.2549 12.529 25.957 12.0449C25.7336 11.6912 25.4729 11.4119 25.1936 11.2443C25.0633 11.2071 25.0074 11.0581 25.0074 10.8347V9.01004C25.0074 8.65628 25.0447 8.47009 25.1936 8.47009C25.2867 8.47009 25.4543 8.56319 25.6777 8.73076L29.1222 11.3747C29.3829 11.5981 29.5319 11.7284 29.5319 11.8588C29.5319 11.9518 29.4388 11.9518 29.2153 11.9518C28.9547 11.9518 28.452 11.9146 27.7817 11.7284C28.2285 12.5849 29.5319 14.093 31.6731 16.2342C33.2743 17.8355 34.8941 19.4553 36.5512 21.0565C39.7723 24.2776 41.3736 27.0891 41.3736 29.4537C41.3549 29.6399 41.3549 29.8633 41.3177 30.0868ZM40.8708 10.8719C40.8708 10.5182 40.7778 10.0713 40.6102 9.56861C40.424 9.08452 40.3495 8.80523 40.3495 8.768C40.3495 8.6749 40.4426 8.32114 40.6102 7.6881C40.7964 7.05505 40.8708 6.70129 40.9267 6.60819C41.0198 6.422 41.057 6.38477 41.1129 6.38477C41.1501 6.38477 41.2432 6.422 41.3363 6.57096C41.5225 6.98057 41.9135 7.72533 42.4907 8.93557C43.1237 10.2761 43.5147 11.1698 43.6451 11.5795C43.7382 11.896 43.7754 12.0636 43.7754 12.2125C43.7754 12.5663 43.3658 12.3428 42.621 11.4491C42.5279 11.356 42.4907 11.4491 42.4907 11.6726C42.4907 12.3801 42.7141 14.8006 43.1982 18.8595C43.6823 22.9743 43.9616 25.7485 43.9616 27.1636C43.9616 30.1612 43.2541 32.6562 41.8204 34.5739C40.7405 36.1379 39.493 37.2178 38.1152 37.8323C37.5753 38.0929 36.6443 38.3722 35.341 38.726C34.0004 39.0797 33.0136 39.2659 32.3992 39.359C32.1758 39.359 32.0454 39.359 32.0454 39.2659C32.0454 39.2287 32.1385 39.0797 32.3992 38.9122C33.6094 38.2419 35.5644 37.0875 38.3014 35.3746C39.1951 34.8346 40.0516 34.0712 40.9453 33.103C42.0997 31.8556 42.7327 30.7757 42.7327 29.9378C42.7327 28.1504 42.4162 24.6686 41.8018 19.567C41.1315 14.4468 40.8708 11.5422 40.8708 10.8719Z" fill="#124D73"/>
<path d="M26.5346 31.781C27.4284 31.781 28.229 31.3342 28.9551 30.3474C29.402 29.6399 29.8488 28.9137 30.2957 28.2062C30.4819 28.02 30.6122 27.9455 30.7053 27.9455C30.8356 27.9455 30.8915 28.0759 30.8915 28.262C30.8915 28.3551 30.8915 28.4482 30.8543 28.5227C30.6681 29.2861 30.5936 29.6398 30.5936 29.6026C30.5936 29.9191 30.7798 30.2357 31.0777 30.4591C31.4314 30.7756 31.8783 30.9059 32.381 30.9059C33.0141 30.9059 33.4051 30.7756 33.5913 30.4219C33.5913 30.4219 33.4051 30.0681 33.0141 29.3978C33.0513 28.9882 33.2375 28.3738 33.4982 27.5173C33.5354 27.2566 33.6285 27.1077 33.7216 27.1077C33.8147 27.1077 33.9078 27.2008 33.9823 27.3683C34.3919 27.8524 34.5594 28.4855 34.5594 29.193C34.5594 30.3101 34.336 31.2969 33.8519 32.0603C33.2747 33.0471 32.5114 33.5312 31.4315 33.5312C30.7239 33.5312 30.0536 32.9913 29.4206 31.8741C28.4896 33.6616 27.1863 34.518 25.5851 34.518C24.9148 34.518 24.1142 34.2574 23.1646 33.6616C22.2337 33.1216 21.5075 32.8609 21.1165 32.8609V30.1426C22.1033 30.1426 23.0901 30.4032 24.0583 30.9432C25.0079 31.5204 25.8085 31.781 26.5346 31.781Z" fill="#124D73"/>
<path d="M6.72399 43.9764C5.83028 43.9764 5.02966 43.5668 4.35937 42.7662C3.65185 41.9097 3.33533 40.8857 3.33533 39.6382C3.33533 37.9811 4.00561 35.8027 5.38342 33.0657C5.51375 32.805 5.64409 32.6561 5.73718 32.6561C5.73718 32.6561 5.77442 32.6933 5.77442 32.7492C5.77442 33.0098 5.45789 33.9967 4.88071 35.6165C4.24766 37.2177 3.94976 38.4838 3.94976 39.4148C3.94976 40.1223 4.13595 40.7181 4.48971 41.165C4.84347 41.6118 5.34618 41.8353 5.96061 41.8353C6.94742 41.8353 8.15765 41.1277 9.57269 39.601C10.7829 38.2232 11.9932 36.7895 13.1848 35.3931C16.2197 31.9113 18.9008 30.1611 21.2282 30.1611V32.8795C19.2546 32.8795 17.0762 34.1828 14.5626 36.6778C13.7992 37.4784 12.8124 38.6514 11.5649 40.1595C10.485 41.5001 9.68441 42.3938 9.14446 42.8407C8.32522 43.6227 7.52461 43.9764 6.72399 43.9764Z" fill="#124D73"/>
<path d="M8.19477 16.3273C8.19477 15.4708 8.06444 14.7633 7.78516 14.1861C7.78516 13.8696 8.00858 13.1062 8.54853 11.9146C8.58577 11.7843 8.64163 11.7284 8.73472 11.7284C8.77196 11.7284 8.82782 11.7656 8.92091 11.9518C9.05125 12.2683 9.36777 13.1062 9.90772 14.5026C10.4849 15.9735 10.8014 16.8672 10.8945 17.1838C10.9876 17.4444 10.9876 17.6306 10.9876 17.761C10.9876 18.1706 10.6339 17.9471 9.83325 17.0534C9.74015 16.9231 9.70291 17.0162 9.70291 17.2396C9.70291 17.2769 9.8891 19.5111 10.187 23.8494C10.5035 28.1876 10.6711 30.6825 10.6711 31.4087C10.6711 33.5126 10.3546 35.3932 9.68429 36.9944C9.55396 37.3109 9.46087 37.5716 9.36777 37.7019C9.23744 37.9253 9.14434 37.9253 9.1071 37.795C9.1071 37.6088 9.10711 37.3109 9.14434 36.771C9.23744 36.0634 9.27468 35.207 9.27468 34.2202C9.27468 33.3264 9.08849 30.3288 8.73472 25.1899C8.38096 20.0325 8.19477 17.0907 8.19477 16.3273Z" fill="#124D73"/>
<path d="M7.87833 30.3101C7.87833 30.4404 7.6549 30.8873 7.24529 31.6506C6.92876 31.8741 6.16538 32.3209 4.97377 32.9912C3.40977 33.8477 2.03197 34.6483 0.858968 35.3558C0.449349 35.5793 0.225921 35.7096 0.151445 35.7096C0.0583496 35.7096 0.0583496 35.6724 0.0583496 35.5793C0.0583496 35.3558 0.244539 34.8159 0.691395 33.978C0.877585 33.7918 1.36168 33.4381 2.0692 32.954C1.58511 32.6375 1.26859 32.4699 1.13825 32.3209C0.784491 32.0044 0.5983 31.6134 0.5983 31.1666C0.5983 30.4032 1.13825 29.5095 2.19954 28.5227C3.18634 27.5917 3.98696 27.089 4.56415 27.089C4.88067 27.089 5.14134 27.2193 5.36477 27.4986C5.55096 27.722 5.68129 28.0758 5.68129 28.4854C5.68129 28.8392 5.55096 29.1929 5.27167 29.6026C5.04824 29.9191 4.82481 30.0867 4.63862 30.0867C4.60139 30.0867 4.45243 29.9563 4.3221 29.6026C4.19177 29.2488 4.00558 29.1185 3.78215 29.1185C3.46563 29.1185 3.07463 29.2116 2.57192 29.4722C2.03196 29.7329 1.7713 29.9191 1.7713 30.0122C1.7713 30.2356 2.03197 30.4963 2.62777 30.8128C3.29806 31.1666 3.96834 31.3527 4.60139 31.3527C5.011 31.3155 5.58819 31.0362 6.38881 30.6825C7.0591 30.3287 7.50595 30.1425 7.63629 30.1425C7.80386 30.1239 7.87833 30.1797 7.87833 30.3101Z" fill="#124D73"/>
<path d="M42.6026 40.5878C42.5095 40.9974 42.4164 41.2209 42.286 41.3512C41.8019 41.6677 40.6848 42.3752 38.9718 43.5482C38.9346 43.5855 38.8415 43.6413 38.7484 43.7344C38.7112 43.6972 38.7112 43.6972 38.7112 43.6041L38.8043 43.0269C38.8415 42.8966 39.1208 42.6173 39.6608 42.2263C38.9905 42.0029 38.674 41.6863 38.674 41.3326C38.674 40.923 38.8043 40.532 39.158 40.1223C39.8283 39.3217 40.4055 38.9121 40.8524 38.9121C41.262 38.9121 41.4296 39.1355 41.4296 39.5824C41.4296 39.8431 41.3365 40.1223 41.113 40.4761C41.0758 40.5692 41.0199 40.5692 40.9268 40.4389C40.8338 40.2154 40.6662 40.1223 40.4428 40.1223C40.3124 40.1223 40.1262 40.1596 39.9028 40.3458C39.6794 40.4761 39.549 40.6064 39.549 40.6995C39.549 40.8299 39.6794 40.9602 39.9587 41.1092C40.2193 41.2953 40.4428 41.3326 40.6289 41.3326C40.7593 41.3326 41.0386 41.2395 41.4296 41.0161C41.6902 40.8299 41.9137 40.6623 42.1929 40.4761C42.4164 40.383 42.5467 40.2899 42.6026 40.3458C42.6584 40.3272 42.6584 40.4016 42.6026 40.5878Z" fill="#124D73"/>
<path d="M13.5572 27.2193C17.0017 25.9718 20.5765 24.6312 24.3189 23.2348C24.4493 23.1976 24.5424 23.1417 24.5796 23.1976C24.5796 23.1976 24.5796 23.2907 24.5424 23.421C24.3562 23.8306 24.2258 24.0541 24.1327 24.1285C21.0048 25.2829 17.2996 26.7166 13.0917 28.4668C13.2034 28.0758 13.3337 27.6661 13.5572 27.2193Z" fill="#124D73"/>
<path d="M25.3663 13.9121C25.3663 14.1432 25.1351 14.5592 24.6267 15.2526C24.0258 16.0384 23.5173 16.6393 23.0089 17.0091C22.6853 17.2402 21.6222 17.61 19.7733 18.0722C19.4497 18.1184 19.2648 18.1646 19.2648 18.1646C19.311 18.1184 19.4035 18.026 19.6346 17.8873C19.8657 17.7024 20.5128 17.3326 21.6222 16.7779C22.6391 16.2233 23.24 15.8535 23.3787 15.7148C23.4249 15.6686 23.4249 15.6224 23.4249 15.6224C23.4249 15.3913 22.5004 15.2988 20.6977 15.2988C20.6977 15.2988 20.3742 15.2988 19.6808 15.345C19.311 15.3913 19.1262 15.345 19.1262 15.2988C19.1262 15.2526 19.1724 15.1601 19.2648 15.0215L19.9119 13.9583C20.0968 13.6348 20.4666 13.4499 20.9751 13.3574C21.16 13.3112 21.576 13.3112 22.2231 13.3112C24.3493 13.2188 25.3663 13.4499 25.3663 13.9121Z" fill="#124D73"/>
<path d="M39.2535 5.81117C39.2535 6.04228 39.0224 6.45829 38.514 7.15163C37.9131 7.93742 37.4046 8.53832 36.8962 8.90811C36.5726 9.13922 35.5095 9.509 33.6605 9.97123C33.337 10.0175 33.1521 10.0637 33.1521 10.0637C33.1983 10.0175 33.2908 9.92501 33.5219 9.78634C33.753 9.60145 34.4001 9.23167 35.5095 8.67699C36.5264 8.12232 37.1273 7.75253 37.2659 7.61386C37.3122 7.56764 37.3122 7.52142 37.3122 7.52142C37.3122 7.2903 36.3877 7.19786 34.585 7.19786C34.585 7.19786 34.2614 7.19786 33.5681 7.24408C33.1983 7.29031 33.0134 7.24408 33.0134 7.19786C33.0134 7.15163 33.0596 7.05919 33.1521 6.92052L33.7992 5.8574C33.9841 5.53383 34.3539 5.34894 34.8623 5.2565C35.0472 5.21027 35.4632 5.21027 36.1104 5.21027C38.2366 5.11783 39.2535 5.34894 39.2535 5.81117Z" fill="#124D73"/>
</svg>
