<svg width="49" height="49" viewBox="0 0 49 49" fill="none" xmlns="http://www.w3.org/2000/svg">
<path d="M19.802 33.0467C19.9821 33.977 20.2691 34.585 20.7347 34.8708C20.9854 35.0136 21.3434 35.0848 21.8086 35.0842L21.8111 37.0884C21.0953 37.0892 20.5225 36.9468 20.1285 36.661C19.5553 36.2322 19.1965 35.4811 18.9804 34.3361C18.8722 33.6204 18.7265 31.5806 18.615 28.145C18.5389 24.4231 18.4287 22.1327 18.3561 21.2739C18.2113 19.9141 17.9234 18.626 17.5641 17.4096C17.5637 17.0875 17.7062 16.5863 17.956 15.9776C18.0274 15.7986 18.0631 15.7269 18.0988 15.7269C18.1346 15.7268 18.2063 15.7983 18.2781 15.9414C18.7085 16.764 19.0323 18.1594 19.2494 20.1275C19.3941 21.3442 19.5044 23.7777 19.6162 27.428C19.692 30.8637 19.7658 32.7246 19.802 33.0467Z" fill="#124D73"/>
<path d="M22.1825 18.8357C24.0069 18.1534 25.9745 17.4711 28.0135 16.6812C28.1208 16.6453 28.1923 16.6094 28.1924 16.6452C28.2282 16.681 28.2283 16.7525 28.1568 16.8242C28.014 17.1107 27.9426 17.2897 27.8711 17.3256C26.154 17.9361 24.115 18.7617 21.7898 19.6951C21.897 19.4802 22.0039 19.158 22.1825 18.8357Z" fill="#124D73"/>
<path d="M25.1979 26.455L25.6977 25.4165C25.7334 25.3449 25.8049 25.2733 25.8407 25.2732C25.9123 25.2731 26.1988 25.4517 26.7003 25.809C27.2018 26.1663 27.4525 26.3449 27.4526 26.4165C27.4529 26.6312 27.2387 27.0967 26.7743 27.8131C26.7028 27.8848 26.6671 27.9206 26.5954 27.8849C26.1656 27.5633 25.6641 27.206 25.1269 26.8846C24.9485 27.3143 24.77 27.6724 24.5914 27.9589C24.5557 28.0663 24.4841 28.0664 24.4125 28.0307C23.911 27.6376 23.4095 27.2803 22.8723 26.9589C22.8364 26.9232 22.8364 26.8874 22.8721 26.8157L23.5147 25.5266C23.5504 25.4549 23.5862 25.4191 23.6578 25.419C23.7293 25.4189 23.9442 25.5618 24.3741 25.8476C24.8038 26.0976 25.0904 26.312 25.1979 26.455Z" fill="#124D73"/>
<path d="M27.8591 36.7232C26.177 36.7252 24.9599 36.4762 24.1719 36.0119C23.2423 36.7288 22.4196 37.0519 21.668 37.0528L21.6655 35.0486C22.1666 35.048 22.6317 34.9401 23.0609 34.7248C22.8457 34.3314 22.7377 33.8305 22.737 33.1863C22.7358 32.2558 23.0926 31.3248 23.7714 30.3935C24.4146 29.5338 24.9509 29.1037 25.4162 29.1031C25.8456 29.1026 26.1681 29.4243 26.4194 30.0324C26.5989 30.4974 26.7069 31.0341 26.7076 31.571C26.7091 32.8594 26.424 33.826 25.8522 34.5425C26.2103 34.6494 26.8903 34.7202 27.8566 34.719L27.8591 36.7232ZM25.9576 32.9319C25.9573 32.6455 25.8495 32.2878 25.6342 31.8228C25.4189 31.322 25.2396 31.0359 25.0606 31.0361C24.8459 31.0364 24.524 31.2515 24.1309 31.7173C23.702 32.183 23.4162 32.5771 23.2735 32.9351C23.3453 33.1498 23.4887 33.3643 23.7395 33.5788C23.9903 33.829 24.241 33.9718 24.4917 34.0789C25.207 33.7201 25.7076 33.3258 25.9576 32.9319Z" fill="#124D73"/>
<path d="M32.2091 23.9412C32.2092 24.0844 32.0307 24.4067 31.6734 24.9082C31.2446 25.4813 30.8872 25.8754 30.4939 26.1622C30.2794 26.3414 29.4923 26.5929 28.2044 26.9524C27.9539 26.9885 27.8466 27.0244 27.8466 27.0244C27.8823 26.9885 27.9538 26.9169 28.0968 26.8093C28.2756 26.666 28.7405 26.4149 29.4916 26.0203C30.2069 25.6257 30.6361 25.3747 30.7433 25.2672C30.7791 25.2314 30.779 25.1956 30.779 25.1956C30.7788 25.0166 30.1345 24.9458 28.8461 24.9474C28.8461 24.9474 28.5956 24.9477 28.0946 24.9841C27.8441 25.0202 27.7009 24.9846 27.7009 24.9488C27.7008 24.913 27.7365 24.8414 27.808 24.7339L28.2723 23.946C28.4151 23.6953 28.6655 23.5518 29.0233 23.5156C29.1307 23.4797 29.4528 23.4793 29.918 23.4787C31.4569 23.4411 32.2087 23.6191 32.2091 23.9412Z" fill="#124D73"/>
<path d="M27.8584 36.7231L27.856 34.719C28.6076 34.718 29.6094 34.5021 30.8615 34.0711C31.3981 33.8915 32.5428 33.4249 34.2956 32.7069L30.6079 31.602C30.4648 31.5664 30.3217 31.6381 30.2145 31.7814C30.1073 31.8889 29.9641 31.9249 29.7494 31.9251C29.141 31.8901 28.3177 31.8195 27.244 31.7492C27.0292 31.7137 26.886 31.6781 26.8859 31.5707C26.8858 31.4991 26.9214 31.3917 26.9928 31.2485L27.6356 30.0667C27.707 29.8876 27.85 29.7801 27.9931 29.7441C28.7803 29.6358 29.675 29.5631 30.7128 29.5619C30.7486 29.5618 31.5005 29.8114 33.0042 30.3107C34.6154 30.8455 35.761 31.1662 36.4054 31.3086C37.0498 31.451 38.0163 31.6288 39.305 31.8419C40.522 32.0552 41.2022 32.1617 41.3453 32.1615C41.4169 32.1614 41.4885 32.1614 41.5243 32.1971C41.5959 32.2328 41.596 32.3044 41.4888 32.4477L40.8104 33.7369C40.7389 33.8444 40.6317 33.9161 40.4885 33.9162C40.3454 33.9164 40.0232 33.881 39.5579 33.8458C39.0926 33.7748 38.6631 33.7753 38.3052 33.7757C37.16 33.7771 35.8719 34.0292 34.441 34.5678C33.2963 35.0702 32.1159 35.5369 30.9712 36.0394C29.6834 36.4704 28.6458 36.7222 27.8584 36.7231Z" fill="#124D73"/>
<path d="M27.723 13.389C29.5474 12.7068 31.515 12.0244 33.554 11.2346C33.6613 11.1987 33.7328 11.1628 33.7329 11.1986C33.7687 11.2343 33.7688 11.3059 33.6973 11.3776C33.5545 11.664 33.4832 11.8431 33.4116 11.8789C31.6945 12.4894 29.6555 13.3151 27.3304 14.2484C27.4732 13.9977 27.5802 13.7113 27.723 13.389Z" fill="#124D73"/>
<path d="M32.1626 14.9224C32.0914 15.2088 32.02 15.3879 31.9128 15.4596C31.5552 15.7105 30.7684 16.2125 29.5526 17.0371C29.4811 17.073 29.4454 17.1446 29.3738 17.1805C29.3738 17.1447 29.338 17.1448 29.338 17.109L29.409 16.6794C29.4089 16.5721 29.6234 16.3929 30.0167 16.0703C29.5154 15.8919 29.2646 15.6775 29.2643 15.427C29.264 15.1407 29.4068 14.8542 29.6569 14.5318C30.1573 13.9586 30.5506 13.6718 30.8727 13.6714C31.159 13.671 31.3024 13.8498 31.3028 14.1719C31.303 14.3508 31.2317 14.6015 31.0531 14.8522C31.0174 14.9238 30.9816 14.8881 30.9457 14.8165C30.838 14.6019 30.7306 14.4947 30.5874 14.4949C30.48 14.495 30.337 14.5668 30.1581 14.6743C29.9793 14.7819 29.9079 14.8894 29.908 14.961C29.9081 15.0683 30.0156 15.1756 30.2305 15.2827C30.4453 15.3898 30.5885 15.4254 30.6959 15.4253C30.8033 15.4251 30.9821 15.3533 31.2682 15.174C31.447 15.0307 31.6616 14.923 31.8404 14.8155C32.0193 14.7437 32.1266 14.7077 32.1624 14.7077C32.1982 14.7434 32.1983 14.815 32.1626 14.9224Z" fill="#124D73"/>
<path d="M41.5022 13.6943C41.5023 13.8374 41.3238 14.1597 40.9665 14.6612C40.5377 15.2344 40.1803 15.6285 39.787 15.9153C39.5725 16.0945 38.7854 16.346 37.4975 16.7054C37.247 16.7415 37.1397 16.7774 37.1397 16.7774C37.1754 16.7416 37.2469 16.6699 37.3899 16.5624C37.5687 16.419 38.0336 16.1679 38.7847 15.7733C39.5 15.3788 39.9292 15.1277 40.0364 15.0202C40.0722 14.9844 40.0721 14.9486 40.0721 14.9486C40.0719 14.7697 39.4276 14.6989 38.1392 14.7004C38.1392 14.7004 37.8887 14.7008 37.3877 14.7372C37.1372 14.7732 36.994 14.7376 36.994 14.7018C36.9939 14.6661 37.0296 14.5944 37.1011 14.487L37.5654 13.6991C37.7082 13.4484 37.9586 13.3049 38.3164 13.2687C38.4237 13.2328 38.7458 13.2324 39.2111 13.2318C40.7858 13.1941 41.5018 13.3722 41.5022 13.6943Z" fill="#124D73"/>
<path d="M42.3486 32.8045C42.2069 33.9857 42.1002 34.5943 42.0287 34.5944C41.9571 34.5944 41.8849 34.0935 41.7048 33.1274C41.4523 31.4814 40.2332 29.6577 38.0834 27.5845C37.1518 26.6909 36.2202 25.7973 35.2886 24.9395C34.2495 23.9387 33.497 23.1523 32.9594 22.5087C32.6009 22.0439 32.2065 21.4718 31.8121 20.828C31.5611 20.4347 31.3459 20.0412 31.0949 19.6479C30.9156 19.3976 30.7365 19.2188 30.5574 19.1117C30.4499 19.0402 30.414 18.9687 30.4138 18.7898L30.4122 17.4656C30.4119 17.2151 30.4475 17.0719 30.5549 17.0717C30.6265 17.0716 30.7339 17.1431 30.913 17.2502L33.4564 19.1797C33.6713 19.3226 33.7788 19.4299 33.7789 19.5015C33.7789 19.573 33.6716 19.609 33.5285 19.6091C33.3137 19.6094 32.9915 19.5382 32.4904 19.4314C32.8132 20.0395 33.7451 21.1478 35.2859 22.6848C36.4683 23.8644 37.6508 25.0082 38.8332 26.1878C41.1982 28.547 42.3459 30.5856 42.3479 32.2677C42.384 32.4824 42.3842 32.6613 42.3486 32.8045Z" fill="#124D73"/>
<path d="M41.9733 18.8116C41.973 18.5253 41.901 18.239 41.7932 17.8813C41.6496 17.5236 41.6136 17.3089 41.6135 17.2731C41.6135 17.2015 41.6847 16.9509 41.8273 16.4855C41.9699 16.02 42.0412 15.7694 42.0411 15.7336C42.1125 15.5904 42.1483 15.5546 42.1841 15.5545C42.2199 15.5545 42.2915 15.626 42.3275 15.7333C42.5067 16.0194 42.7938 16.5917 43.1885 17.4501C43.6549 18.4159 43.942 19.0597 44.014 19.3817C44.0858 19.5964 44.086 19.7395 44.0861 19.8469C44.0862 19.9185 44.0505 19.9543 44.0147 19.9543C43.9073 19.9545 43.6207 19.7401 43.2265 19.2753C43.1548 19.2038 43.1549 19.2396 43.1551 19.4186C43.1557 19.9554 43.3368 21.7088 43.6983 24.6789C44.0598 27.6489 44.2412 29.6529 44.2425 30.7265C44.2452 32.9097 43.7463 34.6997 42.7459 36.1325C41.9599 37.2429 41.0304 38.0314 40.0289 38.4979C39.6354 38.6773 38.9557 38.8928 37.9897 39.1445C37.0237 39.3962 36.3081 39.5403 35.8429 39.5766C35.664 39.6126 35.5565 39.577 35.5565 39.5412C35.5564 39.4696 35.6637 39.3979 35.8425 39.2903C36.7366 38.7882 38.1671 37.9275 40.134 36.7083C40.7778 36.3138 41.3855 35.7405 42.0289 35.0597C42.8867 34.1281 43.3152 33.3403 43.3144 32.7319C43.3129 31.4434 43.095 28.9027 42.6253 25.1812C42.1912 21.3881 41.9739 19.2768 41.9733 18.8116Z" fill="#124D73"/>
<path d="M41.5005 12.2628C43.3249 11.5806 45.2924 10.8982 47.3315 10.1083C47.4388 10.0724 47.5103 10.0366 47.5104 10.0723C47.5462 10.1081 47.5463 10.1797 47.4748 10.2513C47.332 10.5378 47.2606 10.7168 47.1891 10.7527C45.472 11.3632 43.433 12.1888 41.1078 13.1222C41.2149 12.9073 41.3577 12.5851 41.5005 12.2628Z" fill="#124D73"/>
<path d="M46.084 14.3687C46.0128 14.6551 45.9414 14.8341 45.8342 14.9059C45.4766 15.1568 44.6898 15.6588 43.474 16.4834C43.4025 16.5193 43.3668 16.5909 43.2952 16.6268C43.2952 16.591 43.2594 16.5911 43.2593 16.5553L43.3304 16.1257C43.3303 16.0184 43.5448 15.8391 43.9381 15.5166C43.4368 15.3382 43.186 15.1238 43.1857 14.8733C43.1854 14.587 43.3282 14.3005 43.5783 13.9781C44.0787 13.4049 44.472 13.1181 44.7941 13.1177C45.0804 13.1173 45.2238 13.2961 45.2242 13.6182C45.2244 13.7971 45.1531 14.0477 44.9745 14.2985C44.9388 14.3701 44.9029 14.3344 44.8671 14.2628C44.7594 14.0482 44.6519 13.941 44.5088 13.9412C44.4014 13.9413 44.2583 14.013 44.0795 14.1206C43.9007 14.2282 43.8293 14.3357 43.8294 14.4072C43.8295 14.5146 43.937 14.6218 44.1519 14.729C44.3667 14.8361 44.5099 14.8717 44.6173 14.8715C44.7246 14.8714 44.9035 14.7996 45.1896 14.6203C45.3684 14.477 45.583 14.3693 45.7618 14.2617C45.9406 14.1899 46.048 14.154 46.0838 14.154C46.1196 14.1897 46.1197 14.2613 46.084 14.3687Z" fill="#124D73"/>
<path d="M45.9832 19.8445C45.9824 19.2003 45.8745 18.6994 45.6592 18.2702C45.6589 18.0197 45.8372 17.4826 46.194 16.6232C46.2655 16.5158 46.3012 16.4442 46.337 16.4441C46.3728 16.4441 46.4086 16.5156 46.4803 16.6229C46.588 16.8733 46.8393 17.4814 47.2342 18.483C47.6292 19.5562 47.8805 20.2001 47.9523 20.4505C48.0241 20.6294 48.0243 20.7725 48.0244 20.8799C48.0248 21.1662 47.7383 20.9876 47.1649 20.3441C47.0932 20.2368 47.0574 20.2727 47.0576 20.4516C47.0577 20.5232 47.2033 22.5272 47.4945 26.571C47.7857 30.579 47.9316 32.8335 47.9322 33.3346C47.9341 34.8735 47.721 36.2337 47.2572 37.4153C47.1501 37.666 47.0787 37.8092 47.0073 37.9167C46.9001 38.0958 46.8644 38.1316 46.8285 38.0243C46.7925 37.8812 46.7922 37.6306 46.8633 37.2727C46.9343 36.7357 46.9693 36.1273 46.9684 35.4115C46.9677 34.7673 46.7855 32.1549 46.4579 27.5743C46.1302 22.958 45.9839 20.4171 45.9832 19.8445Z" fill="#124D73"/>
<path d="M12.8217 26.8275C12.7873 26.7931 12.7872 26.7588 12.8216 26.7243L13.4046 25.5203C13.4389 25.4514 13.4732 25.417 13.5076 25.417C13.5764 25.4169 13.8173 25.5885 14.299 25.8974C14.7463 26.2063 14.9873 26.4123 14.9874 26.481C14.9876 26.6873 14.7818 27.1002 14.37 27.7539C14.3357 27.8227 14.267 27.8572 14.2326 27.8229C13.7851 27.4452 13.3034 27.102 12.8217 26.8275Z" fill="#124D73"/>
<path d="M15.2345 31.7413C14.7867 31.0885 14.3049 30.7453 13.7548 30.746C13.3766 30.7464 13.1705 30.8842 13.1708 31.1249C13.1711 31.3999 13.412 31.5716 13.8934 31.6397C14.1685 31.6738 14.6155 31.6732 15.2345 31.7413ZM5.7868 37.8728C7.71221 37.8705 9.94651 37.4208 12.4209 36.5238C14.2768 35.8683 15.6857 35.2477 16.6133 34.6277C16.6128 34.2495 16.4062 33.9403 15.9933 33.7001C15.6148 33.4943 15.1677 33.3917 14.6864 33.3923L13.483 33.3937C13.036 33.3943 12.692 33.2572 12.4166 32.9481C12.1756 32.6733 12.0376 32.2953 12.0371 31.8483C12.0363 31.2294 12.2418 30.6103 12.688 29.9565C13.0999 29.3371 13.5464 28.9927 14.0278 28.9921C14.7842 28.9912 15.4723 29.403 16.1266 30.2617C16.8154 31.1892 17.1606 32.289 17.1621 33.5268C17.1629 34.2144 17.1291 34.6958 17.0263 34.971C16.8892 35.315 16.6146 35.7279 16.1338 36.1755C15.55 36.7607 14.1412 37.4501 11.8729 38.2436C9.261 39.1751 6.99231 39.6248 5.06691 39.6272C3.17588 39.6295 1.79997 39.1154 0.939197 38.1194C0.353821 37.398 0.0433352 36.5389 0.0419974 35.4386C0.0406178 34.304 0.31438 33.2378 0.828943 32.2745C1.03486 31.9648 1.1378 31.7928 1.20656 31.7927C1.20656 31.7927 1.2066 31.8271 1.20665 31.8615C1.20677 31.9646 1.1726 32.1366 1.06979 32.4117C0.932675 32.7557 0.795564 33.0997 0.692835 33.4437C0.521468 33.8909 0.453288 34.3723 0.453915 34.888C0.454709 35.5413 0.76486 36.1254 1.41871 36.606C2.3825 37.4987 3.82701 37.8752 5.7868 37.8728Z" fill="#124D73"/>
</svg>
