<svg width="48" height="49" viewBox="0 0 48 49" fill="none" xmlns="http://www.w3.org/2000/svg">
<path d="M5.03866 33.6355C4.95026 34.1214 4.77347 34.4307 4.59667 34.5632C3.93369 34.9608 2.56353 35.8885 0.441988 37.3463C0.35359 37.4347 0.220995 37.523 0.132598 37.6114C0.132598 37.5672 0.0883979 37.523 0.0883979 37.4788L0.220994 36.7278C0.220994 36.5511 0.574585 36.2419 1.28177 35.7118C0.441988 35.4025 0 35.0491 0 34.6074C0 34.1214 0.220994 33.5913 0.662982 33.0612C1.50276 32.0451 2.20994 31.5592 2.78452 31.5592C3.27071 31.5592 3.5359 31.8243 3.5359 32.3986C3.5359 32.7078 3.40331 33.1054 3.09391 33.5913C3.04972 33.6797 3.00552 33.6797 2.91712 33.5471C2.74033 33.1937 2.56353 33.017 2.29834 33.017C2.12154 33.017 1.85635 33.1054 1.59116 33.3263C1.32596 33.5471 1.14917 33.6797 1.14917 33.8564C1.14917 34.0331 1.32596 34.2098 1.67956 34.3865C2.03315 34.5632 2.29834 34.6515 2.47513 34.6515C2.65193 34.6515 3.00552 34.519 3.4917 34.2098C3.8011 33.9889 4.15469 33.768 4.46408 33.5471C4.72927 33.4146 4.95026 33.3263 4.99446 33.3704C5.08286 33.3263 5.08286 33.4146 5.03866 33.6355Z" fill="#124D73"/>
<path d="M7.38119 33.503C7.60218 34.74 7.99997 35.5793 8.61875 35.9769C8.92814 36.1536 9.41433 36.242 10.0773 36.242V38.9367C9.10494 38.9367 8.35356 38.76 7.82318 38.3624C7.0718 37.7881 6.58561 36.7721 6.27622 35.2259C6.09942 34.254 5.96683 31.5151 5.83423 26.9208C5.70163 21.8847 5.56904 18.8365 5.43644 17.6879C5.21545 15.8767 4.90606 14.1096 4.37567 12.4751C4.37567 12.0333 4.55247 11.3707 4.90606 10.5313C4.99445 10.3105 5.03865 10.2221 5.08285 10.2221C5.12705 10.2221 5.21545 10.3105 5.30385 10.4872C5.87843 11.5916 6.27622 13.4912 6.58561 16.1417C6.76241 17.7763 6.9392 21.0453 7.0276 25.9489C7.20439 30.5874 7.29279 33.1055 7.38119 33.503Z" fill="#124D73"/>
<path d="M20.1985 26.7001C22.6736 25.8165 25.2813 24.8446 28.0659 23.8286C28.1985 23.7844 28.2869 23.7402 28.2869 23.7844C28.3311 23.8286 28.3311 23.9169 28.2427 24.0053C28.0659 24.4029 27.9333 24.6238 27.8449 24.7121C25.5023 25.5515 22.8062 26.6117 19.6681 27.8928C19.8449 27.5394 19.9775 27.1418 20.1985 26.7001Z" fill="#124D73"/>
<path d="M19.1378 35.8002C20.1986 35.8002 21.2594 35.4027 22.2759 34.6075C22.3643 34.5191 22.7621 34.1215 23.5135 33.3264C24.1765 32.6195 24.5301 32.222 24.6185 32.222C24.7953 32.222 24.7953 32.3987 24.7069 32.7079C24.5743 33.1497 24.4859 33.4147 24.4859 33.5472C24.4859 33.8565 24.6185 34.1657 24.8837 34.6075C25.2373 35.0934 25.6792 35.3585 26.2096 35.3585C27.6682 35.3585 28.9058 34.2982 29.9665 32.222C30.0991 32.0011 30.1875 31.9127 30.3643 31.9127C30.4527 31.9127 30.5411 32.0011 30.5411 32.222C30.5411 32.3103 30.5411 32.3987 30.4969 32.5754C30.4527 32.7521 30.4527 32.8846 30.4527 32.9288C30.4527 33.5472 30.6295 34.0332 31.0273 34.4308C31.4251 34.7842 31.9113 35.0051 32.4859 35.0051V37.6998C31.1157 37.6998 30.1875 36.8605 29.5687 35.1376C29.4803 34.9167 29.3919 34.9167 29.3035 35.1376C28.5522 37.1255 27.4472 38.0974 26.077 38.0974C24.6627 38.0974 23.8229 37.2139 23.5135 35.4026C23.4693 35.2701 23.4693 35.1818 23.4693 35.1818C23.4251 35.1818 23.3809 35.2701 23.2925 35.4026C22.9389 35.9769 22.4527 36.5512 21.7897 37.1255C20.729 38.0532 19.6682 38.5392 18.6074 38.5392C17.4583 38.5392 16.6627 38.1858 16.2207 37.4789C15.9555 37.0372 15.7787 36.4187 15.7345 35.5352C15.7345 35.4468 15.6903 35.4026 15.6019 35.4026C15.4693 35.4026 15.2925 35.491 15.1599 35.6235C14.276 36.6838 13.7014 37.3022 13.4362 37.5231C12.287 38.495 11.1378 38.9809 9.85608 38.9809V36.2862C11.182 36.2862 12.287 35.9328 13.2594 35.2701C13.6572 35.0051 14.5411 34.1657 15.9555 32.7962C16.1323 32.6195 16.2649 32.5312 16.3975 32.5312C16.6185 32.5312 16.7069 32.7079 16.6185 33.0171C16.5301 33.3264 16.4417 33.6356 16.4417 33.9007C16.4417 34.5191 16.7069 35.0051 17.1931 35.3143C17.7677 35.6235 18.3864 35.8002 19.1378 35.8002Z" fill="#124D73"/>
<path d="M28.6407 16.937C31.1158 16.0535 33.7235 15.0816 36.5081 14.0655C36.6407 14.0213 36.7291 13.9772 36.7291 14.0214C36.7733 14.0655 36.7733 14.1539 36.6849 14.2422C36.5081 14.6398 36.3755 14.8607 36.2871 14.9491C33.9445 15.7884 31.2484 16.8486 28.1103 18.1297C28.2871 17.7763 28.4639 17.3788 28.6407 16.937Z" fill="#124D73"/>
<path d="M34.2983 11.9451C34.2983 12.2543 34.2099 12.6519 34.0773 13.0053C33.8563 13.4912 33.5911 13.7121 33.2817 13.7121C32.7955 13.7121 32.3977 13.3587 32.2209 12.6961C32 13.5796 31.558 14.0214 30.895 14.0214C30.674 14.0214 30.453 13.8888 30.2762 13.6679C30.0552 13.3587 29.9668 13.0053 29.9668 12.5635V11.4591C29.9668 11.3708 29.9226 11.2824 29.79 11.2824C29.6574 11.2824 29.6132 11.1499 29.6132 11.0174C29.6132 10.7965 29.7016 10.5314 29.9226 10.3105C30.0994 10.1338 30.232 10.0013 30.3204 10.0013C30.453 10.0013 30.4972 10.2222 30.4972 10.7081C30.4972 10.9732 30.4972 11.1941 30.453 11.3708C30.4088 11.5475 30.4088 11.68 30.4088 11.8125C30.4088 12.0776 30.453 12.3427 30.5856 12.5635C30.674 12.8286 30.8508 12.9611 31.0276 12.9611C31.2486 12.9611 31.4696 12.8728 31.6906 12.6519C31.9116 12.431 32 12.166 32 11.9009C32 11.7242 31.9558 11.4591 31.8232 11.0174C31.7348 10.6198 31.6906 10.3547 31.6906 10.2664C31.6906 10.178 31.7348 10.0455 31.8232 9.82461C31.9116 9.6479 32 9.51537 32 9.51537C32.0884 9.51537 32.1767 9.78043 32.3093 10.3547C32.4419 10.8848 32.4861 11.2824 32.4861 11.5475C32.4861 12.2985 32.7955 12.6961 33.3701 12.6519C33.6353 12.6519 33.7679 12.5194 33.8563 12.2985C33.3701 11.4591 33.1049 10.7965 33.1049 10.3105C33.1049 10.0455 33.1491 9.82461 33.2817 9.60372C33.3701 9.4712 33.4143 9.38284 33.4585 9.38284C33.5027 9.38284 33.5469 9.4712 33.5469 9.6479C33.5911 9.86878 33.5911 10.0897 33.6353 10.2664C33.6795 10.2664 33.7679 10.5756 34.0331 11.1941C34.2099 11.4591 34.2983 11.7684 34.2983 11.9451Z" fill="#124D73"/>
<path d="M30.8953 21.178C30.8511 21.1338 30.8511 21.0897 30.8953 21.0013L31.7793 19.2343C31.8235 19.1459 31.8677 19.0576 31.9561 19.0576C32.0445 19.0576 32.4423 19.2784 33.1053 19.7644C33.7683 20.2061 34.1218 20.5154 34.1218 20.6037C34.1218 20.913 33.8125 21.4873 33.2379 22.4591C33.1495 22.5917 33.1053 22.6358 33.0169 22.5475C32.3097 22.1057 31.6025 21.6198 30.8953 21.178Z" fill="#124D73"/>
<path d="M35.0939 34.1217C34.9171 35.2261 34.5635 36.0654 34.0331 36.7281C33.5469 37.3466 33.0165 37.6116 32.442 37.6116V34.9169C33.7679 34.9169 34.4309 34.3426 34.4309 33.1498C34.4309 32.8406 34.3425 32.1337 34.0773 30.9852C33.8121 29.7482 33.5469 28.7322 33.2817 27.937C33.1491 27.5394 33.1049 27.3627 33.1049 27.3185C33.1049 26.3025 33.2817 25.4631 33.5469 24.8888C33.6353 24.6238 33.7237 24.4912 33.7679 24.4912C33.8121 24.4912 33.9005 24.5796 33.9889 24.7563C34.6077 25.9491 35.1381 27.937 35.6243 30.7643C35.9337 32.4872 36.3314 33.6357 36.9502 34.21C37.348 34.6076 37.9226 34.8285 38.674 34.8285V37.5233C37.8342 37.5233 37.127 37.2582 36.464 36.7281C35.7569 36.1538 35.2707 35.2703 35.0939 34.1217Z" fill="#124D73"/>
<path d="M42.6959 29.5714C42.6959 32.1336 42.2097 34.1657 41.2815 35.6677C40.486 36.9047 39.5578 37.5673 38.497 37.5673V34.8726C39.3368 34.8726 40.1766 34.5633 40.9721 33.9007C41.1931 33.724 41.3257 33.0172 41.3257 31.7802C41.3257 31.0292 41.1489 28.0252 40.7511 22.7682C40.3976 17.5113 40.1766 14.4189 40.1766 13.4912C40.1766 12.6519 40.044 11.945 39.7788 11.3707C39.7788 11.0615 39.9998 10.3105 40.5302 9.11774C40.6186 8.98521 40.6627 8.94104 40.7069 8.94104C40.7511 8.94104 40.8395 9.02939 40.8837 9.16192C41.0163 9.47116 41.3699 10.3105 41.8561 11.68C42.3865 13.0936 42.7401 13.9771 42.8285 14.3306C42.9169 14.5956 42.9169 14.7723 42.9169 14.8607C42.9169 15.2583 42.5633 15.0374 41.7677 14.198C41.6793 14.0655 41.6351 14.1097 41.6351 14.3306C41.6351 14.3747 41.8119 16.7161 42.1213 21.3546C42.5191 25.9489 42.6959 28.6879 42.6959 29.5714Z" fill="#124D73"/>
<path d="M45.2597 14.8607C45.2597 14.0214 45.1271 13.3145 44.8619 12.7402C44.8619 12.431 45.0829 11.68 45.6133 10.5314C45.7017 10.3989 45.7459 10.3105 45.7901 10.3105C45.8343 10.3105 45.8785 10.3989 45.9669 10.5314C46.1437 10.8407 46.4531 11.68 46.9393 13.0495C47.4697 14.4631 47.8233 15.3466 47.9117 15.7001C48 15.9651 48 16.1418 48 16.2744C48 16.6719 47.6465 16.4069 46.8509 15.5675C46.7625 15.435 46.7183 15.4792 46.7183 15.7442C46.7183 15.8326 46.8951 18.5715 47.2929 23.961C47.6907 29.3506 47.8674 32.3987 47.8674 33.0614C47.8674 35.1377 47.5581 36.9489 46.9393 38.5392C46.8067 38.8485 46.6741 39.0693 46.6299 39.2019C46.4973 39.4228 46.4089 39.4669 46.4089 39.3344C46.3647 39.1577 46.3647 38.8485 46.4531 38.3184C46.5415 37.6115 46.5857 36.7722 46.5857 35.8003C46.5857 34.9609 46.3647 31.4268 45.9227 25.2421C45.4807 19.0575 45.2597 15.6117 45.2597 14.8607Z" fill="#124D73"/>
</svg>
