<svg width="48" height="49" viewBox="0 0 48 49" fill="none" xmlns="http://www.w3.org/2000/svg">
<path d="M10.0941 22.2787L10.8146 20.7928C10.8596 20.6577 10.9497 20.6127 10.9947 20.6127C11.0848 20.6127 11.49 20.8828 12.2105 21.3782C12.9309 21.8735 13.2911 22.1436 13.2911 22.2337C13.2911 22.5489 12.9759 23.2243 12.3455 24.2149C12.2555 24.35 12.2105 24.35 12.1204 24.305C11.49 23.8547 10.7696 23.3594 10.0041 22.8641C9.73391 23.4494 9.50877 23.9898 9.2386 24.395C9.19358 24.5301 9.10352 24.5751 9.01346 24.5301C8.29301 23.9898 7.57256 23.4494 6.80709 22.9992C6.76206 22.9541 6.76206 22.9091 6.80709 22.819L7.75268 20.9729C7.7977 20.8378 7.88776 20.7928 7.93279 20.7928C8.02284 20.7928 8.33804 20.9729 8.96843 21.3782C9.59883 21.7834 9.91402 22.0536 10.0941 22.2787Z" fill="#124D73"/>
<path d="M18.6494 34.5264C17.6588 34.5264 16.9834 34.4813 16.5781 34.3463C15.6776 34.0761 14.9121 33.4907 14.2817 32.5902C13.9215 31.9598 13.5162 31.2844 13.156 30.699C12.8408 30.1586 12.5256 29.8885 12.1654 29.8885C11.0847 29.8885 10.004 30.789 8.78826 32.5902C8.56312 32.9054 8.2029 33.7609 7.66256 35.1117C7.12223 36.4626 6.62692 37.4532 6.22166 38.0386C5.59127 38.9391 4.96088 39.4344 4.24043 39.4344C3.20478 39.4344 2.30422 38.6239 1.58377 37.0029C0.953379 35.607 0.638184 34.1211 0.638184 32.5451C0.638184 30.654 0.818296 29.168 1.17852 28.0423C1.31361 27.6371 1.40366 27.457 1.49372 27.457C1.6288 27.457 1.6288 27.6821 1.58377 28.2224C1.44869 29.3932 1.35863 30.3838 1.35863 31.2393C1.35863 35.2018 2.25919 37.138 4.10535 37.138C4.87082 37.138 5.54624 36.5526 6.13161 35.4269C6.762 34.0311 7.39239 32.6802 8.02279 31.2844C8.60815 30.1587 9.28357 29.168 10.0491 28.3575C10.9046 27.502 11.6701 27.0967 12.3455 27.0967C12.8858 27.0967 13.3361 27.4119 13.7864 28.0874C14.1466 28.6727 14.5068 29.2581 14.8671 29.8435C15.4074 30.5639 15.9027 31.0592 16.443 31.3294C16.9834 31.5995 17.6588 31.7346 18.5594 31.7346V34.5264H18.6494Z" fill="#124D73"/>
<path d="M15.6777 21.7383C18.2893 20.7927 21.081 19.7571 24.0529 18.6764C24.188 18.6314 24.278 18.5864 24.3231 18.6314C24.3681 18.6764 24.3681 18.7665 24.278 18.9016C24.0979 19.3068 23.9628 19.577 23.8728 19.622C21.3962 20.5226 18.4694 21.6483 15.1824 23.0441C15.2724 22.6389 15.4525 22.1886 15.6777 21.7383Z" fill="#124D73"/>
<path d="M16.0832 39.7495C16.0382 39.7045 16.0382 39.6595 16.0832 39.5694L17.0288 37.7233C17.0738 37.5882 17.1639 37.5432 17.2089 37.5432C17.299 37.5432 17.7042 37.7683 18.4247 38.3086C19.1451 38.8039 19.5053 39.0741 19.5053 39.2092C19.5053 39.5244 19.1901 40.1548 18.5598 41.1904C18.4697 41.3255 18.4247 41.3705 18.3346 41.3255C17.6142 40.6951 16.8487 40.1998 16.0832 39.7495Z" fill="#124D73"/>
<path d="M21.5311 29.7984C21.5311 31.1942 21.3059 32.2299 20.9007 32.9503C20.3153 34.031 19.5048 34.5714 18.5592 34.5714V31.7346C19.6399 31.7346 20.3603 31.3744 20.6305 30.6089C20.6305 30.2036 20.2252 29.3931 19.4147 28.1323C19.3697 28.0423 19.3247 27.9072 19.3247 27.8171C19.3247 27.0967 19.5048 26.3762 19.82 25.6558C19.9551 25.4307 20.0451 25.4307 20.1802 25.6558C20.6755 26.3762 20.9457 26.9166 21.1258 27.3669C21.441 28.0423 21.5311 28.8528 21.5311 29.7984Z" fill="#124D73"/>
<path d="M26.3493 34.2112C25.6738 33.3557 25.0885 32.9054 24.5031 32.9054C23.6476 32.9054 23.2423 33.1305 23.2423 33.5808C23.2423 34.1212 23.8277 34.3463 24.9984 34.3463C25.4487 34.3463 25.8539 34.3013 26.3493 34.2112ZM27.7901 37.6334C27.7901 37.3182 27.7451 37.003 27.61 36.6878C27.0247 36.8679 26.2142 36.9579 25.1785 36.9579C22.9721 36.9579 21.8464 36.1925 21.8464 34.7065C21.8464 33.5358 22.2067 32.5002 22.9721 31.5996C23.6926 30.7441 24.413 30.3388 25.1335 30.3388C25.7189 30.3388 26.3943 30.699 27.0697 31.4645C27.6551 32.1399 28.1954 32.9504 28.6907 33.9411C28.7357 33.9411 28.8258 33.896 28.9609 33.851V36.4176L28.8258 36.4626C28.8258 37.003 28.6907 37.6784 28.4656 38.5339C28.1053 39.6146 27.6551 40.4701 27.0247 41.1906C25.5838 42.8116 24.0528 44.2525 22.3868 45.5583C19.9102 47.4044 17.7489 48.35 15.8577 48.35C14.2817 48.35 13.111 47.7647 12.2555 46.639C11.49 45.6033 11.1298 44.3876 11.1298 42.8566C11.1298 40.8754 11.535 38.8041 12.3905 36.7778C12.5707 36.3726 12.7057 36.1474 12.7958 36.1474C12.8408 36.1474 12.8408 36.1925 12.8408 36.2825C12.8408 36.4626 12.7958 36.6878 12.7057 36.9579C12.1204 38.9842 11.8502 40.5602 11.8502 41.5958C11.8502 42.5864 12.1204 43.397 12.6157 44.0273C13.3361 45.018 14.5069 45.5583 16.1279 45.5583C17.5237 45.5583 19.2348 44.9729 21.2161 43.7572C22.8371 42.7666 24.368 41.5958 25.8089 40.245C27.1147 38.8941 27.7901 38.0386 27.7901 37.6334Z" fill="#124D73"/>
<path d="M27.2949 15.7496C29.9065 14.804 32.6982 13.7684 35.6701 12.6877C35.8052 12.6427 35.8952 12.5976 35.9403 12.6427C35.9853 12.6877 35.9853 12.7778 35.8952 12.9128C35.7151 13.3181 35.58 13.5883 35.49 13.6333C33.0134 14.5339 30.0866 15.6596 26.7996 17.0554C26.9346 16.6502 27.1148 16.2449 27.2949 15.7496Z" fill="#124D73"/>
<path d="M33.9588 19.2168C33.9588 19.577 33.8687 19.9373 33.7337 20.3425C33.5085 20.8378 33.2383 21.108 32.8781 21.108C32.3378 21.108 31.9325 20.7478 31.7524 19.9823C31.4823 20.9279 31.032 21.4232 30.3565 21.4232C30.0864 21.4232 29.8612 21.2881 29.6811 21.063C29.456 20.7478 29.3659 20.3425 29.3659 19.8472V18.6765C29.3659 18.5864 29.3209 18.4964 29.1408 18.4513C29.0057 18.4063 28.9156 18.3163 28.9156 18.1361C28.9156 17.911 29.0507 17.6408 29.2759 17.3707C29.456 17.1455 29.6361 17.0555 29.7262 17.0555C29.8612 17.0555 29.9513 17.2806 29.9513 17.8209C29.9513 18.0911 29.9513 18.3163 29.9063 18.4964C29.8612 18.6765 29.8612 18.8116 29.8612 18.9467C29.8612 19.2618 29.9063 19.487 30.0414 19.7121C30.1764 20.0273 30.3115 20.1624 30.5367 20.1624C30.8068 20.1624 31.032 20.0273 31.2571 19.8022C31.4822 19.577 31.5723 19.3069 31.5723 19.0367C31.5723 18.8566 31.5273 18.5414 31.3922 18.0911C31.3021 17.6408 31.2571 17.3707 31.2571 17.2806C31.2571 17.1906 31.3021 17.0104 31.3922 16.8303C31.4822 16.6052 31.5723 16.5151 31.6173 16.5151C31.7074 16.5151 31.8425 16.7853 31.9325 17.3707C32.0676 17.956 32.1126 18.3613 32.1126 18.6315C32.1126 19.442 32.4278 19.8472 33.0582 19.8472C33.3284 19.8472 33.5085 19.7121 33.5535 19.442C33.0132 18.5414 32.7881 17.821 32.7881 17.3256C32.7881 17.0555 32.8331 16.7853 33.0132 16.5602C33.1033 16.4251 33.1483 16.335 33.1933 16.335C33.2383 16.335 33.2834 16.4251 33.2834 16.6502C33.3284 16.9204 33.3284 17.1005 33.4185 17.2806C33.4635 17.2806 33.5535 17.6408 33.8237 18.2712C33.8687 18.7215 33.9588 18.9917 33.9588 19.2168Z" fill="#124D73"/>
<path d="M31.8876 24.395L32.608 22.9091C32.6531 22.774 32.7431 22.7289 32.7882 22.7289C32.8782 22.7289 33.2835 22.9991 34.0039 23.4944C34.7244 23.9897 35.0846 24.2599 35.0846 24.35C35.0846 24.6651 34.7694 25.3406 34.139 26.3312C34.0489 26.4663 34.0039 26.4663 33.9139 26.4212C33.2835 25.971 32.563 25.4757 31.7975 24.9803C31.5274 25.5657 31.3022 26.106 31.0321 26.5113C30.987 26.6464 30.897 26.6914 30.8069 26.6464C30.0865 26.106 29.366 25.5657 28.6005 25.1154C28.5555 25.0704 28.5555 25.0254 28.6005 24.9353L29.5461 23.0892C29.5912 22.9541 29.6812 22.9091 29.7262 22.9091C29.8163 22.9091 30.1315 23.0892 30.7619 23.4944C31.3022 23.8997 31.7075 24.1698 31.8876 24.395Z" fill="#124D73"/>
<path d="M35.2202 35.1117V37.9034C34.0945 37.9034 33.1939 37.6333 32.6085 37.0479C32.1132 36.5976 31.8431 35.9672 31.8431 35.1567C31.8431 34.9766 31.8881 34.7515 31.8881 34.5714C30.6723 35.4269 29.6817 36.0573 28.8712 36.3725V33.8059C29.8618 33.4006 30.9875 32.7702 32.2933 31.8697C32.4735 31.7346 32.6536 31.6445 32.7436 31.6445C32.8787 31.6445 32.9688 31.7346 32.9688 31.9597C32.9688 32.0498 32.9237 32.2299 32.9237 32.5001C32.8787 32.7702 32.8787 32.9503 32.8787 33.0854C32.8787 33.4907 33.0588 33.941 33.4641 34.3912C33.9594 34.8866 34.4997 35.1117 35.2202 35.1117Z" fill="#124D73"/>
<path d="M41.0281 1.11551C41.0281 1.34065 40.758 1.79094 40.2627 2.51139C39.6773 3.32189 39.137 3.90726 38.5966 4.26748C38.2814 4.49262 37.1557 4.85284 35.3096 5.39318C34.9494 5.43821 34.8143 5.48324 34.8143 5.48324C34.8593 5.43821 34.9494 5.34815 35.1745 5.16804C35.3996 4.98793 36.0751 4.58268 37.1557 4.04234C38.1914 3.45697 38.7767 3.09675 38.9569 2.96167C39.0019 2.91664 39.0019 2.87161 39.0019 2.82658C39.0019 2.60144 38.0563 2.46636 36.2101 2.46636C36.2101 2.46636 35.8499 2.46636 35.1745 2.51139C34.8143 2.55641 34.6342 2.51138 34.6342 2.46636C34.6342 2.42133 34.6792 2.33127 34.7692 2.15116L35.4447 1.02546C35.6248 0.710261 35.985 0.485122 36.5253 0.395066C36.7054 0.350038 37.1107 0.350037 37.7861 0.350037C39.9925 0.395065 41.0281 0.620205 41.0281 1.11551Z" fill="#124D73"/>
<path d="M39.5878 29.5282C39.5878 32.2749 39.0925 34.4363 38.1019 36.0123C37.2463 37.3631 36.3008 37.9935 35.175 37.9935V35.1567C36.0756 35.1567 36.9762 34.7965 37.7867 34.1211C38.0568 33.8959 38.1919 33.1755 38.1919 31.8697C38.1919 31.1042 37.9668 27.8622 37.6066 22.2787C37.2013 16.6952 37.0212 13.3631 37.0212 12.4176C37.0212 11.517 36.8861 10.7515 36.5709 10.1661C36.5709 9.80592 36.8411 9.04045 37.3364 7.77966C37.4265 7.64458 37.4715 7.59955 37.5165 7.59955C37.5615 7.59955 37.6516 7.6896 37.7416 7.82469C37.8767 8.13989 38.237 9.04045 38.7773 10.4813C39.3627 12.0123 39.7229 12.9129 39.8129 13.2731C39.903 13.5433 39.948 13.7234 39.948 13.8584C39.948 14.2637 39.5428 14.0386 38.7323 13.138C38.6422 13.0029 38.5972 13.0479 38.5972 13.2731C38.5972 13.3181 38.7773 15.8397 39.1375 20.7477C39.4077 25.6558 39.5878 28.5826 39.5878 29.5282Z" fill="#124D73"/>
<path d="M38.6867 6.87901C41.2983 5.93342 44.0901 4.89777 47.0619 3.8171C47.197 3.77207 47.2871 3.72704 47.3321 3.77207C47.3771 3.8171 47.3771 3.90715 47.2871 4.04224C47.107 4.44749 46.9719 4.71766 46.8818 4.76269C44.4053 5.66325 41.4785 6.78895 38.1914 8.18482C38.2815 7.77957 38.4616 7.37431 38.6867 6.87901Z" fill="#124D73"/>
<path d="M41.1637 17.911C41.1637 17.0104 41.0286 16.2449 40.7134 15.6596C40.7134 15.3444 40.9835 14.5339 41.4789 13.3181C41.5689 13.183 41.6139 13.093 41.659 13.093C41.704 13.093 41.7941 13.183 41.8391 13.3181C42.0192 13.6333 42.3344 14.5339 42.8747 15.9748C43.4601 17.5057 43.8203 18.4063 43.9104 18.7665C44.0004 19.0367 44.0455 19.2618 44.0455 19.3969C44.0455 19.8021 43.6402 19.532 42.8297 18.6314C42.7396 18.4963 42.6946 18.5414 42.6946 18.8115C42.6946 18.9016 42.9198 21.7834 43.325 27.547C43.7303 33.2655 43.9554 36.5076 43.9554 37.228C43.9554 39.4344 43.6402 41.3706 42.9648 43.0366C42.8297 43.3518 42.6946 43.622 42.6046 43.7571C42.4695 43.9822 42.3794 44.0272 42.3794 43.8922C42.3344 43.712 42.3344 43.3518 42.4244 42.8115C42.5145 42.046 42.5595 41.1454 42.5595 40.1548C42.5595 39.2543 42.3344 35.5169 41.8391 28.9428C41.3888 22.4138 41.1637 18.7215 41.1637 17.911Z" fill="#124D73"/>
</svg>
