<svg width="48" height="35" viewBox="0 0 48 35" fill="none" xmlns="http://www.w3.org/2000/svg">
<path d="M2.57287 24.7521C1.88945 24.7521 1.32663 24.4707 0.804021 23.8676C0.281407 23.2244 0 22.4606 0 21.5762C0 20.33 0.522613 18.6817 1.52764 16.6717C1.64824 16.4707 1.72864 16.3501 1.76885 16.3501C1.80905 16.3501 1.80905 16.3903 1.80905 16.4305C1.80905 16.6315 1.60804 17.3551 1.12563 18.5209C0.683417 19.7269 0.482413 20.6516 0.482413 21.3752C0.482413 21.8978 0.603015 22.2998 0.844221 22.6214C1.08543 22.9832 1.48744 23.144 1.92965 23.144C2.65327 23.144 3.53769 22.7018 4.50252 21.7772C4.62312 21.6968 5.46734 20.732 7.11558 18.9631C9.48744 16.3903 11.6181 15.1038 13.5075 15.1038C14.0302 15.1038 14.5126 15.2646 14.9146 15.5862C15.3166 15.9078 15.5176 16.3099 15.5176 16.7521C15.5176 17.2747 15.397 17.7571 15.2362 18.1993C15.196 18.3199 15.1156 18.4003 15.1156 18.4003C15.0754 18.4003 14.995 18.3199 14.9146 18.1993C14.5126 17.4757 13.9498 17.1541 13.1457 17.1541C11.6985 17.1541 10.0503 18.0787 8.20101 19.9681C7.15578 21.0938 6.11056 22.2194 5.06533 23.345C4.22111 24.3099 3.37689 24.7521 2.57287 24.7521Z" fill="#124D73"/>
<path d="M13.4675 23.9078C13.6283 24.8324 13.9499 25.4756 14.3921 25.7972C14.6333 25.9178 14.9951 25.9982 15.4775 25.9982V28.0485C14.7539 28.0485 14.1911 27.8877 13.7891 27.6063C13.2263 27.2043 12.8243 26.4002 12.6233 25.2344C12.5027 24.5108 12.3821 22.4203 12.2615 18.9228C12.1409 15.1037 12.0604 12.7721 11.98 11.9279C11.8192 10.561 11.578 9.2344 11.176 7.98817C11.176 7.66656 11.2966 7.14395 11.578 6.50073C11.6182 6.33993 11.6986 6.25952 11.7388 6.25952C11.779 6.25952 11.8594 6.33992 11.8996 6.46053C12.3419 7.30475 12.6635 8.75199 12.8645 10.7218C12.9851 11.9681 13.1057 14.4605 13.2263 18.1992C13.3469 21.6565 13.4273 23.5862 13.4675 23.9078Z" fill="#124D73"/>
<path d="M21.789 15.2244C23.6784 14.541 25.6483 13.8173 27.7789 13.0535C27.8995 13.0133 27.9397 13.0133 27.9799 13.0133C28.0201 13.0535 27.9799 13.0937 27.9799 13.2143C27.8593 13.4957 27.7789 13.6967 27.6985 13.7369C25.9297 14.3802 23.8392 15.1842 21.4674 16.149C21.5076 15.8676 21.6282 15.5862 21.789 15.2244ZM26.6935 23.6666C26.8945 23.546 26.9347 23.4656 26.8543 23.3048C26.1709 21.8978 25.3267 21.2143 24.3618 21.2143C22.3116 21.2143 19.8191 22.8224 16.9247 26.0787C20.4623 26.0787 23.7186 25.2746 26.6935 23.6666ZM16.201 25.9983C16.8041 25.355 17.2865 24.7118 17.6885 24.149C17.8493 23.9882 17.9297 23.7068 17.9297 23.3048C17.9297 23.3048 17.9297 22.5812 17.9297 21.0937C17.9297 20.8525 17.8091 18.9229 17.5277 15.3048C17.2463 11.7671 17.1257 9.79725 17.1257 9.43544C17.1659 8.83242 17.0453 8.26961 16.8041 7.8274C16.8041 7.58619 17.0051 7.02338 17.3669 6.13895C17.4071 6.01835 17.4473 5.97815 17.4875 5.97815C17.5277 5.97815 17.5679 6.01835 17.6483 6.13895C17.7689 6.38016 18.0101 7.02338 18.4121 8.0284C18.8141 9.11383 19.0553 9.79725 19.1357 10.0385C19.1759 10.2395 19.2161 10.3601 19.2161 10.4405C19.2161 10.7621 18.9347 10.5611 18.3317 9.91785C18.2915 9.83745 18.2513 9.87765 18.2111 10.0385C18.2111 10.0787 18.3317 11.4857 18.5729 14.2596C18.8141 17.0736 18.9347 18.6415 18.9347 19.0033C18.9347 19.7671 18.7739 21.1741 18.4925 23.2244C21.186 20.5309 23.397 19.1641 25.1257 19.1641C25.9699 19.1641 26.6533 19.6063 27.2965 20.4907C27.8191 21.1741 28.0603 21.7772 28.0603 22.2596C28.0603 22.742 27.8191 23.3048 27.3769 23.948C26.8543 24.6716 26.1709 25.2746 25.2865 25.8375C26.9347 25.5962 28.2211 25.2746 29.0654 24.9128V26.7219C28.583 26.9229 27.6583 27.1239 26.3317 27.3651C22.794 27.8877 20.2613 28.0887 18.8141 28.0485C17.3669 28.0083 16.201 27.9681 15.3568 27.9681V25.9179C15.6382 25.9983 15.9196 25.9983 16.201 25.9983Z" fill="#124D73"/>
<path d="M26.0905 31.0636C27.9799 30.3802 29.9498 29.6566 32.0804 28.8927C32.201 28.8525 32.2412 28.8525 32.2814 28.8525C32.3216 28.8927 32.2814 28.9329 32.2814 29.0535C32.1608 29.335 32.0804 29.536 32 29.5762C30.2312 30.2194 28.1407 31.0234 25.7689 31.9882C25.8091 31.7068 25.9297 31.3852 26.0905 31.0636Z" fill="#124D73"/>
<path d="M29.6682 16.6314C29.628 16.5912 29.628 16.551 29.6682 16.5108L30.3114 15.1842C30.3516 15.1038 30.3918 15.0636 30.432 15.0636C30.5124 15.0636 30.7938 15.2244 31.3165 15.5862C31.8391 15.948 32.0803 16.149 32.0803 16.2294C32.0803 16.4304 31.8391 16.9128 31.3969 17.6365C31.3567 17.7169 31.2763 17.7571 31.236 17.7169C30.7536 17.3149 30.231 16.953 29.6682 16.6314Z" fill="#124D73"/>
<path d="M34.5326 27.9279C33.7687 27.9279 33.0049 27.6063 32.2411 26.9631C31.8391 26.6415 31.5175 26.2395 31.2361 25.8375L29.025 26.7621V24.953L30.6733 24.2294C30.4321 23.5862 30.3115 22.943 30.3115 22.2596C30.3115 21.2546 30.4723 20.4505 30.7537 19.8073C31.0351 19.2043 31.4371 18.8827 31.9597 18.8827C32.4019 18.8827 32.8039 19.2445 33.2059 19.9681C33.5275 20.6113 33.7285 21.2143 33.7285 21.737C33.7285 23.0636 33.3265 24.149 32.5627 25.0334C33.1255 25.5963 33.8089 25.9179 34.5728 25.9179L34.5326 27.9279ZM33.2059 22.6214C33.2059 22.4204 33.0451 22.0586 32.6833 21.5762C32.3215 21.0535 31.9999 20.8123 31.7185 20.8123C31.5175 20.8123 31.3165 20.9329 31.0753 21.2144C30.8743 21.4556 30.7537 21.737 30.7537 21.938C30.7537 22.139 30.8743 22.4606 31.1155 22.943C31.3165 23.3852 31.4371 23.6666 31.5577 23.7872C31.8391 23.6666 32.1607 23.4656 32.5225 23.2244C32.9647 22.9832 33.2059 22.7822 33.2059 22.6214Z" fill="#124D73"/>
<path d="M34.0505 2.68167C34.0505 2.84247 33.8495 3.16408 33.5279 3.64649C33.1259 4.20931 32.7239 4.65152 32.3218 4.89273C32.0806 5.05353 31.3168 5.33494 29.9902 5.69675C29.749 5.73695 29.6284 5.77715 29.6284 5.77715C29.6686 5.73695 29.749 5.69675 29.9098 5.57614C30.0706 5.45554 30.553 5.17413 31.357 4.77212C32.0806 4.37011 32.5228 4.12891 32.6435 4.0083C32.6837 3.9681 32.6837 3.9681 32.6837 3.9279C32.6837 3.7671 32.0404 3.6867 30.7138 3.6867C30.7138 3.6867 30.4726 3.6867 29.95 3.6867C29.7088 3.6867 29.548 3.6867 29.548 3.64649C29.548 3.60629 29.5882 3.52589 29.6686 3.44549L30.151 2.64147C30.2716 2.40026 30.553 2.23946 30.9148 2.19926C31.0354 2.15906 31.3168 2.15906 31.8394 2.15906C33.2867 2.15906 34.0505 2.31986 34.0505 2.68167Z" fill="#124D73"/>
<path d="M33.6484 18.4405C33.6082 18.4003 33.6082 18.3601 33.6484 18.3199L34.2916 16.9932C34.3318 16.9128 34.372 16.8726 34.4122 16.8726C34.4926 16.8726 34.774 17.0334 35.2966 17.3952C35.8192 17.757 36.0604 17.958 36.0604 18.0385C36.0604 18.2395 35.8192 18.7219 35.377 19.4455C35.3368 19.5259 35.2564 19.5661 35.2162 19.5259C34.7338 19.1239 34.2112 18.7621 33.6484 18.4405Z" fill="#124D73"/>
<path d="M36.7435 24.4304C36.7435 25.5963 36.5023 26.5209 35.9797 27.1641C35.5777 27.7269 35.0551 28.0083 34.4521 28.0083V25.9581C35.2561 25.9581 35.7787 25.7571 36.0199 25.3953C36.0199 25.1943 35.8993 24.8324 35.6179 24.3902C35.4973 24.1892 35.4169 23.9882 35.4169 23.8274C35.4169 23.7068 35.5375 23.2244 35.8189 22.3802C35.8591 22.2194 35.9395 22.139 35.9797 22.139C36.0601 22.139 36.1405 22.2596 36.2209 22.4606C36.5827 23.1842 36.7435 23.8274 36.7435 24.4304Z" fill="#124D73"/>
<path d="M39.3972 33.6365C41.2866 32.9531 43.2565 32.2294 45.3871 31.4656C45.5077 31.4254 45.5479 31.4254 45.5881 31.4254C45.6283 31.4656 45.5881 31.5058 45.5881 31.6264C45.4675 31.9078 45.3871 32.1088 45.3067 32.149C43.5379 32.7923 41.4474 33.5963 39.0756 34.5611C39.1158 34.2797 39.2364 33.9581 39.3972 33.6365Z" fill="#124D73"/>
<path d="M43.417 30.0585C43.3366 30.3399 43.2562 30.5007 43.1758 30.5811C42.814 30.8223 42.0099 31.345 40.7637 32.1892C40.7235 32.2294 40.6431 32.2696 40.5627 32.35C40.5627 32.35 40.5225 32.3098 40.5225 32.2696L40.6029 31.8274C40.6029 31.747 40.8039 31.546 41.2461 31.2244C40.7235 31.0636 40.4823 30.8223 40.4823 30.5811C40.4823 30.2997 40.6029 29.9781 40.8843 29.6565C41.4069 29.0535 41.8089 28.7721 42.1305 28.7721C42.412 28.7721 42.5728 28.9329 42.5728 29.2545C42.5728 29.4555 42.4924 29.6565 42.3315 29.9379C42.2913 29.9781 42.2511 29.9781 42.2109 29.9379C42.1305 29.7369 42.0099 29.6163 41.8491 29.6163C41.7285 29.6163 41.6079 29.6565 41.4471 29.7771C41.2863 29.8977 41.2059 29.9781 41.2059 30.0987C41.2059 30.2193 41.3265 30.2997 41.5275 30.4203C41.7285 30.5409 41.8893 30.5811 42.0099 30.5811C42.1305 30.5811 42.3315 30.5007 42.613 30.3399C42.814 30.2193 43.015 30.0987 43.1758 29.9781C43.3366 29.8977 43.4572 29.8575 43.4974 29.8575C43.417 29.8575 43.417 29.9379 43.417 30.0585Z" fill="#124D73"/>
<path d="M43.0552 0.87265C43.0552 1.03345 42.8542 1.35506 42.5326 1.83747C42.1306 2.40029 41.7286 2.8425 41.3266 3.08371C41.0854 3.24451 40.3216 3.52592 38.9949 3.88773C38.7135 3.96813 38.5929 3.96813 38.5929 3.96813C38.6331 3.92793 38.7135 3.88773 38.8743 3.76712C39.0351 3.64652 39.5175 3.36511 40.3216 2.9631C41.0452 2.56109 41.4874 2.31989 41.608 2.19928C41.6482 2.15908 41.6482 2.15908 41.6482 2.11888C41.6482 1.95808 41.005 1.87768 39.6783 1.87768C39.6783 1.87768 39.4371 1.87768 38.9145 1.87768C38.6733 1.87768 38.5125 1.87768 38.5125 1.83747C38.5125 1.79727 38.5527 1.71687 38.6331 1.63647L39.1155 0.832449C39.2361 0.591243 39.5175 0.430438 39.8793 0.390237C39.9999 0.350036 40.2814 0.350037 40.804 0.350037C42.2914 0.350037 43.0552 0.51084 43.0552 0.87265Z" fill="#124D73"/>
<path d="M42.6533 22.9832C42.5327 24.1893 42.4121 24.8325 42.3317 24.8325C42.2915 24.8325 42.1709 24.3099 42.0101 23.345C41.7689 21.6566 40.5227 19.7672 38.3116 17.6767C37.387 16.7521 36.4222 15.8677 35.4573 14.943C34.4121 13.938 33.6081 13.0938 33.0855 12.4506C32.7237 11.9682 32.3217 11.4053 31.9196 10.7621C31.6784 10.3601 31.4372 9.95811 31.196 9.5561C30.995 9.31489 30.8342 9.11389 30.6332 8.99328C30.5126 8.95308 30.4724 8.83248 30.4724 8.67167V7.30484C30.4724 7.02344 30.5126 6.90283 30.6332 6.90283C30.6734 6.90283 30.794 6.98323 30.995 7.10384L33.5679 9.07368C33.7689 9.23449 33.8895 9.31489 33.8895 9.39529C33.8895 9.4757 33.8091 9.5159 33.6483 9.5159C33.4473 9.5159 33.0855 9.4757 32.6031 9.35509C32.9247 9.99831 33.8895 11.0837 35.4573 12.6918C36.6634 13.8978 37.8694 15.0636 39.0754 16.2697C41.4875 18.6817 42.6533 20.7722 42.6533 22.5008C42.6935 22.6616 42.6935 22.8224 42.6533 22.9832Z" fill="#124D73"/>
<path d="M42.2914 8.67171C42.2914 8.3903 42.211 8.06869 42.0904 7.70688C41.9698 7.34507 41.8894 7.14407 41.8894 7.10387C41.8894 7.02347 41.9698 6.78226 42.0904 6.29985C42.211 5.85764 42.2914 5.57623 42.3316 5.53603C42.3718 5.41542 42.4522 5.33502 42.4924 5.33502C42.5326 5.33502 42.5728 5.41542 42.6532 5.49583C42.814 5.77723 43.0954 6.34005 43.5376 7.26467C44.0201 8.26969 44.3015 8.91291 44.3819 9.23452C44.4221 9.43552 44.4623 9.59633 44.4623 9.67673C44.4623 9.75713 44.4623 9.79734 44.3819 9.79734C44.2613 9.79734 43.9799 9.55613 43.5778 9.11392C43.5376 9.03352 43.4974 9.11392 43.4974 9.27472C43.4974 9.79733 43.6985 11.6064 44.0603 14.6617C44.4221 17.7169 44.6231 19.7672 44.6231 20.8526C44.6231 23.0637 44.1005 24.9129 43.0954 26.4004C42.2914 27.526 41.3668 28.33 40.3216 28.8124C39.9196 28.9732 39.1959 29.2144 38.2311 29.4556C37.2261 29.6968 36.5025 29.8576 36.0201 29.8978C35.819 29.938 35.7386 29.8978 35.7386 29.8576C35.7386 29.8174 35.819 29.737 36.0201 29.6164C36.9447 29.0938 38.3919 28.2094 40.4422 26.9632C41.0854 26.5612 41.7286 25.9983 42.3718 25.2747C43.2562 24.3501 43.6984 23.5461 43.6984 22.8627C43.6984 21.536 43.4572 18.9632 43.015 15.1441C42.5326 11.2848 42.2914 9.15412 42.2914 8.67171Z" fill="#124D73"/>
<path d="M45.9497 9.71681C45.9497 9.0736 45.8291 8.55098 45.6281 8.10877C45.6281 7.86756 45.8291 7.30475 46.1909 6.42033C46.2311 6.29972 46.3115 6.25952 46.3115 6.25952C46.3517 6.25952 46.3919 6.29972 46.4321 6.42033C46.5527 6.66153 46.7939 7.30475 47.196 8.30978C47.598 9.3952 47.8392 10.0786 47.9196 10.3198C47.9598 10.5208 48 10.6414 48 10.762C48 11.0434 47.7186 10.8826 47.1155 10.2394C47.0351 10.1188 46.9949 10.1992 46.9949 10.36C46.9949 10.4002 47.1558 12.4907 47.4372 16.5912C47.7186 20.6917 47.8794 22.9831 47.8794 23.5058C47.8794 25.0736 47.6382 26.4806 47.1558 27.6867C47.0351 27.9279 46.9547 28.0887 46.9145 28.2093C46.7939 28.3701 46.7537 28.4103 46.7537 28.2897C46.7135 28.1691 46.7537 27.8877 46.7537 27.5259C46.8341 27.0033 46.8743 26.36 46.8743 25.6364C46.8743 24.9932 46.7135 22.2997 46.3517 17.6364C46.1105 12.9329 45.9497 10.2796 45.9497 9.71681Z" fill="#124D73"/>
</svg>
