<svg width="49" height="49" viewBox="0 0 49 49" fill="none" xmlns="http://www.w3.org/2000/svg">
<path d="M10.5462 16.641L11.1917 15.305C11.2347 15.2188 11.3208 15.1326 11.3638 15.1326C11.4498 15.1326 11.8371 15.3481 12.4826 15.8222C13.1711 16.2962 13.4723 16.5548 13.4723 16.5979C13.4723 16.8996 13.1711 17.5029 12.6117 18.4511C12.5256 18.5373 12.4826 18.5804 12.3965 18.5373C11.8371 18.1063 11.1917 17.6753 10.4601 17.2013C10.245 17.7615 9.9868 18.2356 9.72862 18.5804C9.68559 18.7096 9.59952 18.7527 9.51346 18.6665C8.868 18.1494 8.17951 17.6753 7.49101 17.2444C7.44798 17.2013 7.44798 17.1582 7.49101 17.072L8.35163 15.3912C8.39466 15.305 8.43769 15.2188 8.52375 15.2188C8.60982 15.2188 8.91103 15.3912 9.47043 15.7791C10.0298 16.21 10.3741 16.4686 10.5462 16.641Z" fill="#124D73"/>
<path d="M14.5054 32.1127C14.5054 32.4574 14.4193 32.8884 14.2902 33.4056C14.1611 33.9658 13.989 34.3537 13.8169 34.5692C13.4726 35.0432 12.8702 35.6035 12.0526 36.1207C11.149 36.6809 10.3744 36.9826 9.72895 36.9826C8.69621 36.9826 8.17985 36.2069 8.17985 34.6985C8.17985 33.6642 8.35197 32.6298 8.73925 31.6817C9.04046 30.8629 9.64289 29.7854 10.5035 28.4494C10.1593 28.0616 9.81502 27.7168 9.55683 27.4151C8.13682 29.1821 6.54467 30.475 4.78041 31.2076C4.43616 31.38 4.22101 31.4662 4.17798 31.4662C4.17798 31.4662 4.13495 31.4662 4.13495 31.4231C4.13495 31.38 4.3501 31.1645 4.82344 30.7767C5.64103 30.044 6.20043 29.57 6.45861 29.3114C7.40529 28.4494 8.22288 27.5875 8.9544 26.7256C8.73925 26.4239 8.43803 25.9929 8.00772 25.4327C7.92166 25.3034 7.70651 25.0879 7.36226 24.7431C7.19014 24.5707 7.10408 24.3553 7.10408 24.0967C7.10408 23.7088 7.14711 23.2778 7.2762 22.7607C7.36226 22.2866 7.44832 22.028 7.49135 22.028C7.57741 22.028 8.00772 22.2435 8.69622 22.7176C9.38471 23.1485 9.90108 23.5364 10.2884 23.795C10.5035 23.9243 10.5896 24.0536 10.5896 24.0967C10.5896 24.1829 10.4174 24.1829 10.1593 24.1829C9.59986 24.1829 9.34168 24.226 9.34168 24.226C9.34168 24.3122 9.59986 24.6569 10.1162 25.1741C10.7617 24.1398 11.6653 22.8469 12.8272 21.2523C13.946 20.0025 14.7636 19.356 15.2369 19.356C15.5381 19.356 15.6672 19.6146 15.6672 20.1318C15.6672 20.6489 15.4951 21.3385 15.1939 22.2435C14.9357 23.1054 14.6345 23.7519 14.3333 24.2691C13.9029 25.0017 13.2575 25.9929 12.3969 27.2427C13.2575 28.234 13.8599 29.0959 14.1181 29.8716C14.4193 30.5612 14.5054 31.2507 14.5054 32.1127ZM13.946 22.0711C13.2575 22.5021 12.1817 23.7519 10.7187 25.8205C11.1059 26.2084 11.4072 26.467 11.6653 26.6394C11.8375 26.3808 12.4399 25.562 13.3866 24.0967C14.2902 22.6745 14.5914 21.9849 14.2472 21.9418C14.2042 21.9418 14.0751 21.9849 13.946 22.0711ZM13.7738 32.1127C13.3005 31.1214 12.4829 30.1733 11.4072 29.1821C11.0629 29.57 10.5896 30.2164 10.1162 31.0352C9.55683 31.9834 9.16955 32.7591 8.99743 33.4056C8.99743 33.4918 8.9544 33.5349 8.9544 33.6211C8.9544 34.0951 9.34168 34.3537 10.0732 34.3537C10.3744 34.3537 10.8478 34.2244 11.4072 34.0089C12.1817 33.7072 12.8702 33.2332 13.4726 32.6298C13.6878 32.3713 13.8169 32.1989 13.7738 32.1127Z" fill="#124D73"/>
<path d="M14.9357 29.2251C17.3455 28.3632 19.8843 27.4151 22.6383 26.4238C22.7673 26.3808 22.8534 26.3377 22.8534 26.3808C22.8964 26.4238 22.8964 26.51 22.8104 26.5962C22.6383 26.9841 22.5092 27.1996 22.4231 27.2858C20.1425 28.1046 17.4746 29.1389 14.4624 30.3887C14.5915 30.044 14.7636 29.6561 14.9357 29.2251Z" fill="#124D73"/>
<path d="M13.9462 41.8955C14.8499 40.8612 16.0547 39.9561 17.5178 39.1804C18.3784 38.7063 19.8845 38.0168 21.993 37.1117V39.4821C20.659 40.0423 19.6693 40.5164 19.0239 40.8181C17.7329 41.4214 16.8293 41.8955 16.3129 42.2833C15.4093 42.9729 14.1184 44.3089 12.3971 46.2913C11.3644 47.455 10.3747 48.0583 9.34194 48.0583C8.48132 48.0583 7.70677 47.6704 7.0613 46.8947C6.37281 46.0759 6.02856 45.0846 6.02856 43.921C6.02856 42.3264 6.67403 40.2147 8.00798 37.6289C8.13707 37.3703 8.26617 37.241 8.3092 37.241C8.35223 37.2841 8.35223 37.2841 8.35223 37.3272C8.35223 37.5858 8.05101 38.4908 7.49161 40.0423C6.93221 41.5938 6.63099 42.8005 6.63099 43.7055C6.63099 44.3951 6.80312 44.9553 7.10433 45.3432C7.44858 45.7742 7.92192 46.0328 8.52435 46.0328C9.60012 46.0328 10.6759 45.4725 11.7517 44.3951C12.5262 43.5763 13.2147 42.7143 13.9462 41.8955Z" fill="#124D73"/>
<path d="M19.6692 21.4245C22.0789 20.5626 24.6177 19.6144 27.3717 18.6232C27.5008 18.5801 27.5869 18.537 27.5869 18.5801C27.6299 18.6232 27.6299 18.7094 27.5438 18.7956C27.3717 19.1835 27.2426 19.3989 27.1566 19.4851C24.8759 20.304 22.208 21.3383 19.1959 22.5881C19.325 22.2433 19.4971 21.8555 19.6692 21.4245Z" fill="#124D73"/>
<path d="M24.9617 24.2258L25.6072 22.8898C25.6502 22.8036 25.7363 22.7174 25.7793 22.7174C25.8654 22.7174 26.2527 22.9329 26.8981 23.407C27.5866 23.881 27.8878 24.1396 27.8878 24.1827C27.8878 24.4844 27.5866 25.0877 27.0272 26.0359C26.9411 26.1221 26.8981 26.1652 26.8121 26.1221C26.2527 25.6911 25.6072 25.2601 24.8757 24.7861C24.6605 25.3463 24.4023 25.8204 24.1441 26.1652C24.1011 26.2945 24.0151 26.3375 23.929 26.2514C23.2835 25.7342 22.595 25.2601 21.9065 24.8292C21.8635 24.7861 21.8635 24.743 21.9065 24.6568L22.7672 22.976C22.8102 22.8898 22.8532 22.8036 22.9393 22.8036C23.0253 22.8036 23.3266 22.976 23.886 23.3639C24.4454 23.7517 24.7896 24.0534 24.9617 24.2258Z" fill="#124D73"/>
<path d="M26.5973 30.9059C25.9949 30.087 25.4354 29.6991 24.9191 29.6991C24.1445 29.6991 23.7572 29.9146 23.7572 30.3025C23.7572 30.7766 24.2736 31.0351 25.3494 31.0351C25.7367 31.0351 26.1239 30.992 26.5973 30.9059ZM25.4785 27.3719C26.0379 27.3719 26.6403 27.7167 27.2427 28.4062C27.8021 29.0096 28.2755 29.7422 28.7488 30.6904C28.7919 30.6904 28.8779 30.6473 29.007 30.6042V32.9314L28.9209 32.9745C28.9209 34.5691 28.5337 35.7758 27.7161 36.6377C27.2858 37.0687 25.3064 38.0599 21.8209 39.5252V37.198C25.9088 35.4741 27.9312 34.4829 27.9312 34.2243C27.9312 33.7933 27.8882 33.4486 27.7591 33.19C27.2427 33.3624 26.5112 33.4486 25.5215 33.4486C23.4991 33.4486 22.4663 32.759 22.4663 31.3368C22.4663 30.2594 22.8106 29.3113 23.4991 28.4924C24.1445 27.7167 24.79 27.3719 25.4785 27.3719Z" fill="#124D73"/>
<path d="M25.6934 15.8651C28.1032 15.0032 30.642 14.0551 33.3959 13.0639C33.525 13.0208 33.6111 12.9777 33.6111 13.0208C33.6541 13.0639 33.6541 13.1501 33.5681 13.2362C33.3959 13.6241 33.2669 13.8396 33.1808 13.9258C30.9002 14.7446 28.2322 15.779 25.2201 17.0288C25.3492 16.684 25.4783 16.2961 25.6934 15.8651Z" fill="#124D73"/>
<path d="M27.7154 38.922C27.6723 38.8789 27.6723 38.8358 27.7154 38.7496L28.576 37.0258C28.619 36.9396 28.6621 36.8534 28.7481 36.8534C28.8342 36.8534 29.2215 37.0688 29.8669 37.5429C30.5124 37.9739 30.8566 38.2756 30.8566 38.3618C30.8566 38.6634 30.5554 39.2668 29.953 40.1718C29.8669 40.3011 29.8239 40.3442 29.7378 40.258C29.1354 39.7839 28.4469 39.3099 27.7154 38.922Z" fill="#124D73"/>
<path d="M31.5023 29.7854C31.3302 30.8628 30.9859 31.6817 30.4696 32.3281C29.9962 32.9315 29.4799 33.2332 28.9205 33.2332V30.6043C30.2114 30.6043 30.8569 30.044 30.8569 28.8804C30.8569 28.5787 30.7708 27.8892 30.5126 26.7687C30.2544 25.562 29.9962 24.5707 29.7381 23.795C29.609 23.4071 29.5659 23.2347 29.5659 23.1916C29.5659 22.2004 29.7381 21.3816 29.9962 20.8213C30.0823 20.5627 30.1684 20.4334 30.2114 20.4334C30.2544 20.4334 30.3405 20.5196 30.4265 20.692C31.029 21.8556 31.5453 23.795 32.0187 26.5532C32.3199 28.2339 32.7072 29.3545 33.3096 29.9147C33.6969 30.3026 34.2563 30.5181 34.9878 30.5181V33.147C34.1702 33.147 33.4817 32.8884 32.8363 32.3712C32.1478 31.7679 31.6744 30.9059 31.5023 29.7854Z" fill="#124D73"/>
<path d="M39.3339 0.651988C39.3339 0.867472 39.1188 1.25534 38.6454 1.90179C38.086 2.63444 37.6127 3.1947 37.0963 3.53947C36.7951 3.75495 35.8054 4.09973 34.0842 4.57379C33.783 4.61689 33.6108 4.65999 33.6108 4.65999C33.6539 4.61689 33.7399 4.5307 33.9551 4.4014C34.1702 4.22902 34.7727 3.88424 35.8054 3.36708C36.7521 2.84992 37.3115 2.50515 37.4836 2.37586C37.5266 2.33276 37.5266 2.28967 37.5266 2.28967C37.5266 2.07418 36.666 1.98799 34.9878 1.98799C34.9878 1.98799 34.6866 1.98799 34.0412 2.03108C33.6969 2.07418 33.5248 2.03108 33.5248 1.98799C33.5248 1.94489 33.5678 1.8587 33.6539 1.72941L34.2563 0.695086C34.4284 0.393409 34.7727 0.221022 35.246 0.134829C35.4181 0.091732 35.8054 0.091731 36.4078 0.091731C38.3442 -0.0375592 39.3339 0.221021 39.3339 0.651988Z" fill="#124D73"/>
<path d="M38.8181 25.3896C38.8181 27.9323 38.3447 29.8717 37.4411 31.337C36.6665 32.5437 35.7629 33.1901 34.7302 33.1901V30.5612C35.5477 30.5612 36.3653 30.2595 37.1399 29.6131C37.355 29.4407 37.4841 28.7081 37.4841 27.5444C37.4841 26.8118 37.312 23.8812 36.9247 18.7096C36.5805 13.5811 36.3653 10.5212 36.3653 9.6593C36.3653 8.84046 36.2362 8.15091 35.9781 7.59066C35.9781 7.28898 36.1932 6.55633 36.7096 5.39272C36.7956 5.26343 36.8387 5.22034 36.8817 5.22034C36.9247 5.22034 37.0108 5.30653 37.0538 5.43582C37.1829 5.7375 37.5272 6.55634 38.0005 7.89233C38.5169 9.27143 38.8611 10.1334 38.9472 10.4781C39.0332 10.7367 39.0332 10.9091 39.0332 10.9953C39.0332 11.3832 38.689 11.1677 37.9144 10.3488C37.8284 10.2196 37.7854 10.2627 37.7854 10.4781C37.7854 10.5212 37.9575 12.8054 38.2587 17.3305C38.646 21.8126 38.8181 24.4846 38.8181 25.3896Z" fill="#124D73"/>
<path d="M41.3139 17.9337C41.3139 17.1149 41.1848 16.4253 40.9266 15.8651C40.9266 15.5634 41.1418 14.8307 41.6582 13.7102C41.7442 13.5809 41.7872 13.4948 41.8303 13.4948C41.8733 13.4948 41.9163 13.5809 42.0024 13.7102C42.1745 14.0119 42.4757 14.8307 42.9491 16.1667C43.4655 17.5458 43.8097 18.4078 43.8958 18.7526C43.9818 19.0111 43.9818 19.1835 43.9818 19.3128C43.9818 19.7007 43.6376 19.4421 42.863 18.6233C42.777 18.494 42.7339 18.5371 42.7339 18.7956C42.7339 18.8818 42.9061 21.5538 43.2933 26.8116C43.6806 32.0694 43.8527 35.0431 43.8527 35.6896C43.8527 37.7151 43.5515 39.5252 42.9491 41.0336C42.82 41.3352 42.6909 41.5507 42.6479 41.68C42.5188 41.8955 42.4327 41.9386 42.4327 41.8093C42.3897 41.6369 42.3897 41.3352 42.4757 40.8181C42.5618 40.1285 42.6048 39.3097 42.6048 38.3616C42.6048 37.5427 42.3897 34.095 41.9594 28.0614C41.5291 22.0279 41.3139 18.6664 41.3139 17.9337Z" fill="#124D73"/>
</svg>
