<svg width="49" height="49" viewBox="0 0 49 49" fill="none" xmlns="http://www.w3.org/2000/svg">
<path d="M45.2203 10.1467C45.2203 9.2324 45.0869 8.50858 44.8012 7.89906C44.8012 7.57525 45.0298 6.79429 45.5822 5.61334C45.6203 5.48 45.6774 5.38477 45.7155 5.38477C45.8107 5.38477 45.8488 5.48 45.9441 5.61334C46.0774 5.93715 46.4012 6.7943 46.9536 8.22287C47.5441 9.72764 47.8679 10.6419 47.9631 11.0038C48.0584 11.2324 48.0584 11.461 48.0584 11.5562C48.0584 11.9753 47.6965 11.7467 46.8774 10.8324C46.7822 10.6991 46.7441 10.7943 46.7441 11.0229C46.7441 11.1181 46.9726 13.9562 47.3917 19.6134C47.8107 25.2324 47.9822 28.3944 47.9822 29.1182C47.9822 31.2706 47.6584 33.1944 47.0298 34.8325C46.8393 35.1563 46.7631 35.3849 46.6679 35.5563C46.5345 35.7849 46.4774 35.7849 46.4393 35.6515C46.4012 35.4611 46.4393 35.0991 46.4774 34.6039C46.5726 33.823 46.6107 32.9658 46.6107 31.9944C46.6107 31.0801 46.3822 27.4229 45.925 20.9848C45.4488 14.5467 45.2203 10.9276 45.2203 10.1467Z" fill="#124D73"/>
<path d="M42.9919 21.2514C42.9919 23.9561 42.4967 26.0514 41.5252 27.6133C40.7062 28.8895 39.7348 29.5752 38.649 29.5752V26.7943C39.5252 26.7943 40.3824 26.4323 41.2014 25.7466C41.43 25.5562 41.5633 24.7942 41.5633 23.499C41.5633 22.5466 41.43 20.4895 41.2014 17.3656C40.9348 14.2037 40.8395 12.299 40.8395 11.518C40.8395 10.6418 40.7062 9.918 40.4205 9.32753C40.4205 9.00372 40.6871 8.22276 41.2014 7.00371C41.2395 6.87038 41.2967 6.81323 41.3919 6.81323C41.43 6.81323 41.4872 6.85133 41.5824 7.0418C41.7157 7.36561 42.0776 8.22276 42.63 9.65134C43.1824 11.1561 43.5062 12.0704 43.6395 12.3942C43.6776 12.6609 43.7348 12.8894 43.7348 12.9847C43.7348 13.4037 43.3157 13.1752 42.5538 12.2609C42.4586 12.1275 42.4205 12.2228 42.4205 12.4513C42.4205 12.4894 42.5157 13.7275 42.6872 16.2037C42.8395 18.6037 42.9919 20.299 42.9919 21.2514Z" fill="#124D73"/>
<path d="M38.5918 29.5753C36.8014 29.5753 35.4299 28.8515 34.5156 27.3277C34.249 26.8325 33.9633 26.0896 33.7347 25.0801C33.6014 24.2991 33.4109 23.8991 33.3156 23.8991C32.7633 23.8991 32.0394 24.3944 31.1252 25.4039C29.7156 27.0039 28.3823 28.2801 27.2013 29.2515H22.3632C22.5918 28.8896 23.1823 28.5658 24.0966 28.2039C25.6585 27.6134 26.5728 27.1944 26.9347 27.0229C28.1728 26.4325 29.2204 25.6515 30.0394 24.7753C30.7633 23.8991 31.5061 23.042 32.2299 22.1658C32.8204 21.4801 33.3728 21.1182 33.7918 21.1182C34.249 21.1182 34.5156 21.4801 34.6109 22.1658C34.8395 23.3086 35.0299 24.0896 35.2966 24.5848C36.1156 26.0515 37.2204 26.7753 38.5918 26.7753V29.5753Z" fill="#124D73"/>
<path d="M41.0113 31.0039L40.0589 32.9277C39.9256 33.1562 39.8304 33.2515 39.6399 33.2515C36.5351 33.2515 33.8304 33.7086 31.5446 34.661C30.9923 34.8896 29.5827 35.5753 27.2018 36.8134C25.6018 37.6325 24.497 38.0515 23.8684 38.0515V35.2515C25.2398 35.2515 27.5637 34.3372 30.8208 32.5086C27.8875 32.0515 25.0113 31.7277 22.1732 31.4991C21.6208 31.461 21.3541 31.3658 21.3541 31.2705C21.3541 31.2324 21.3541 31.1753 21.3922 31.1372C21.6208 30.6801 21.9446 30.0324 22.3446 29.2134H27.1446C27.7922 29.3467 29.4303 29.5753 32.1351 29.9372C35.5256 30.3943 38.2685 30.5848 40.3256 30.5848C40.8209 30.5848 41.1066 30.6229 41.1066 30.7753C41.1066 30.8134 41.1066 30.9086 41.0113 31.0039Z" fill="#124D73"/>
<path d="M0.0583496 36.5277C0.0583496 34.4324 0.38216 32.68 1.10597 31.3086C1.33454 30.7562 1.56312 30.5277 1.65835 30.5277C1.69645 30.5277 1.69645 30.5277 1.69645 30.6229C1.69645 30.8134 1.65835 31.08 1.46788 31.4419C0.915494 32.9467 0.686924 34.28 0.686924 35.5181C0.686924 36.8515 0.953589 37.9943 1.50597 38.9467C2.38216 40.4134 3.82979 41.1944 5.94408 41.1944C8.13456 41.1944 10.706 40.1848 13.7155 38.1848C16.0394 36.6801 17.7917 35.2134 18.9346 33.88C19.2013 33.5562 19.3536 33.0991 19.4298 32.5086C19.5251 31.9181 19.5251 30.6419 19.5251 28.661C19.5251 23.9943 19.2965 19.8419 18.8394 16.1276C18.706 14.8895 18.4775 13.0609 18.0584 10.7371C18.2489 9.40378 18.4203 8.58473 18.5155 8.31806C18.6108 8.12758 18.6489 8.05139 18.7441 8.05139C18.7822 8.05139 18.8394 8.14663 18.9346 8.31806C19.5251 10.3371 20.0394 12.8514 20.4013 15.899C20.6679 17.9181 20.8584 21.1181 20.9918 25.4038C21.087 29.2896 21.2203 31.7086 21.4108 32.6229C21.6394 33.7277 22.0013 34.4134 22.4584 34.8134C22.7822 35.0801 23.2775 35.2324 23.8679 35.2324V38.0134C22.4965 38.0134 21.487 37.461 20.8584 36.3753C20.4394 35.6896 20.1727 34.5086 20.0394 32.8515C19.7727 34.4896 19.487 35.5562 19.1632 35.9562C18.8394 36.4515 17.9822 37.3277 16.6108 38.4705C14.9155 39.9372 13.2203 41.1182 11.5441 42.0325C9.35362 43.2706 7.4679 43.8991 5.8298 43.8991C3.58217 43.8991 1.98216 42.9467 0.991685 41.1182C0.325016 39.9182 0.0583496 38.3943 0.0583496 36.5277Z" fill="#124D73"/>
<path d="M31.2776 17.8799C31.2395 17.8418 31.2395 17.7847 31.2776 17.6894L32.1538 15.8609C32.1919 15.7656 32.2871 15.7275 32.3443 15.7275C32.4395 15.7275 32.8395 15.9561 33.5252 16.4133C34.249 16.9085 34.63 17.1942 34.63 17.2895C34.63 17.6133 34.3062 18.2418 33.6776 19.2514C33.5824 19.3847 33.5443 19.4418 33.449 19.3847C32.7443 18.8323 32.0205 18.3371 31.2776 17.8799Z" fill="#124D73"/>
<path d="M34.4775 11.7086C34.4775 12.0705 34.3823 12.4895 34.2108 12.8514C33.9823 13.3467 33.7156 13.6324 33.3918 13.6324C32.8394 13.6324 32.4775 13.2705 32.2489 12.5276C31.9822 13.4419 31.5251 13.9371 30.8394 13.9371C30.6108 13.9371 30.3822 13.8038 30.1918 13.5181C29.9632 13.2514 29.868 12.8324 29.868 12.3752V11.1943C29.868 11.099 29.7727 11.0609 29.6775 11.0038C29.5441 10.9657 29.487 10.8705 29.487 10.7371C29.487 10.4705 29.5822 10.2419 29.7537 10.0133C29.9441 9.78474 30.0775 9.6895 30.1727 9.6895C30.3061 9.6895 30.4013 9.91807 30.4013 10.4133C30.4013 10.68 30.3632 10.9086 30.3632 11.099C30.3251 11.2895 30.3251 11.4228 30.3251 11.5562C30.3251 11.8228 30.3632 12.1086 30.4584 12.3371C30.5918 12.6038 30.7822 12.7943 30.9537 12.7943C31.2203 12.7943 31.4489 12.6609 31.6775 12.4324C31.9061 12.2038 32.0394 11.9371 32.0394 11.6133C32.0394 11.4228 31.9442 11.1562 31.8489 10.699C31.7156 10.28 31.6584 10.0133 31.6584 9.91807C31.6584 9.82283 31.6965 9.6895 31.7918 9.46093C31.887 9.27045 31.9822 9.19426 32.0203 9.19426C32.1156 9.19426 32.2108 9.46093 32.3442 10.0133C32.4775 10.6038 32.5727 11.0228 32.5727 11.2895C32.5727 12.0705 32.8394 12.4705 33.4489 12.4705C33.7156 12.4705 33.9061 12.3371 33.9442 12.0514C33.4489 11.1371 33.1632 10.4514 33.1632 9.95617C33.1632 9.6895 33.2013 9.46093 33.3918 9.23236C33.487 9.09902 33.5251 9.00378 33.5823 9.00378C33.6203 9.00378 33.6775 9.09902 33.6775 9.27045C33.7156 9.49903 33.7727 9.7276 33.8108 9.91807C33.8108 9.91807 33.9442 10.2419 34.1727 10.8705C34.3823 11.2514 34.4775 11.5181 34.4775 11.7086Z" fill="#124D73"/>
<path d="M24.4773 9.28947C28.0011 8.01328 31.6583 6.64185 35.4868 5.21327C35.6202 5.17518 35.7154 5.11803 35.7535 5.17518C35.7535 5.17518 35.7535 5.27041 35.7154 5.40375C35.5249 5.8228 35.3916 6.05137 35.2964 6.12756C32.0964 7.30852 28.3059 8.77519 24.0011 10.5657C24.0963 10.1466 24.2487 9.72757 24.4773 9.28947Z" fill="#124D73"/>
<path d="M11.1433 16.3901C11.1433 16.6031 10.9303 16.9866 10.4617 17.6256C9.90782 18.3499 9.43917 18.9038 8.97053 19.2446C8.6723 19.4576 7.6924 19.7984 5.98824 20.2245C5.69001 20.2671 5.51959 20.3097 5.51959 20.3097C5.5622 20.2671 5.64741 20.1819 5.86043 20.0541C6.07345 19.8836 6.66991 19.5428 7.6924 19.0316C8.62969 18.5203 9.18354 18.1795 9.31136 18.0517C9.35396 18.0091 9.35396 17.9665 9.35396 17.9665C9.35396 17.7534 8.50188 17.6682 6.84032 17.6682C6.84032 17.6682 6.54209 17.6682 5.90303 17.7108C5.5622 17.7534 5.39178 17.7108 5.39178 17.6682C5.39178 17.6256 5.43439 17.5404 5.51959 17.4126L6.11605 16.4327C6.28647 16.1345 6.6273 15.9641 7.09595 15.8789C7.26636 15.8363 7.6498 15.8363 8.24626 15.8363C10.206 15.7511 11.1433 15.9641 11.1433 16.3901Z" fill="#124D73"/>
</svg>
