<svg width="48" height="49" viewBox="0 0 48 49" fill="none" xmlns="http://www.w3.org/2000/svg">
<path d="M45.7776 13.0968C45.7776 12.3808 45.6732 11.814 45.4494 11.3367C45.4494 11.0831 45.6284 10.4716 46.061 9.54679C46.0908 9.44238 46.1356 9.3678 46.1654 9.3678C46.24 9.3678 46.2698 9.44238 46.3444 9.54679C46.4488 9.80036 46.7024 10.4716 47.1349 11.5903C47.5973 12.7687 47.8509 13.4846 47.9255 13.768C48.0001 13.947 48.0001 14.126 48.0001 14.2006C48.0001 14.5288 47.7167 14.3498 47.0753 13.6338C47.0007 13.5294 46.9709 13.604 46.9709 13.7829C46.9709 13.8575 47.1499 16.08 47.478 20.5101C47.8062 24.9103 47.9404 27.3864 47.9404 27.9532C47.9404 29.6387 47.6868 31.1452 47.1946 32.428C47.0454 32.6816 46.9858 32.8606 46.9112 32.9948C46.8068 33.1738 46.762 33.1738 46.7322 33.0694C46.7024 32.9202 46.7322 32.6368 46.762 32.249C46.8366 31.6375 46.8665 30.9662 46.8665 30.2055C46.8665 29.4896 46.6875 26.6257 46.3295 21.584C45.9566 16.5275 45.7776 13.7084 45.7776 13.0968Z" fill="#124D73"/>
<path d="M44.5544 25.7198C44.5544 27.8366 44.1343 29.4763 43.3102 30.6986C42.6153 31.6974 41.7912 32.234 40.8701 32.234V30.0576C41.6135 30.0576 42.3406 29.7744 43.0355 29.2378C43.2294 29.0887 43.3425 28.4925 43.3425 27.4788C43.3425 26.8676 43.1486 24.4081 42.7931 20.115C42.4376 15.8219 42.2921 13.2878 42.2921 12.4977C42.2921 11.812 42.179 11.2456 41.9366 10.7835C41.9366 10.5301 42.1629 9.91888 42.5992 8.96486C42.6315 8.86052 42.68 8.8158 42.7608 8.8158C42.7931 8.8158 42.8416 8.84561 42.9223 8.99468C43.0355 9.24809 43.3425 9.91888 43.8111 11.0369C44.2797 12.2145 44.5544 12.93 44.6675 13.1834C44.6998 13.3921 44.7483 13.571 44.7483 13.6455C44.7483 13.9735 44.3928 13.7946 43.7465 13.0791C43.6657 13.0045 43.6333 13.0493 43.6333 13.2281C43.6333 13.258 43.7949 15.1958 44.102 18.9821C44.409 22.7236 44.5544 24.9745 44.5544 25.7198Z" fill="#124D73"/>
<path d="M26.8789 21.584C27.923 22.0464 28.9224 22.5834 29.9218 23.1651C32.3232 24.5225 34.4264 25.9246 36.2611 27.4311C37.4096 28.4006 38.1554 28.9674 38.5134 29.1912C39.4084 29.8027 40.2735 30.0861 41.0939 30.0861V32.249C40.2735 32.249 39.5128 32.07 38.8714 31.6822C38.4836 31.4733 37.9018 30.996 37.156 30.3248C36.2909 29.5342 35.5749 28.9674 35.0081 28.5647C34.859 28.4603 34.7993 28.4155 34.7546 28.4155C34.7247 28.4155 34.7546 28.52 34.859 28.6989C35.1871 29.4448 35.3214 29.9817 35.3214 30.3397C35.3214 31.5927 34.9634 32.5175 34.2474 33.1738C33.7403 33.6063 32.6066 34.2179 30.8167 34.9935V33.0246C31.8161 32.5622 32.5022 32.3086 32.7558 32.1595C33.6209 31.7717 34.2176 31.4137 34.5756 31.1153C34.7546 30.9662 34.7844 30.7872 34.7247 30.6082C34.3966 29.6387 33.4419 28.5349 31.7863 27.2372C29.9665 25.8052 28.102 24.3435 26.2375 22.9115C26.2077 22.8817 26.1629 22.7325 26.1629 22.479C26.1629 22.0166 26.2375 21.4796 26.4165 20.8382C26.5955 20.152 26.7745 19.6897 26.9833 19.5107C28.2362 18.4069 30.8913 16.9302 34.9634 15.1104C39.0802 13.2459 41.7949 12.351 43.1225 12.351C43.5103 12.351 43.8086 12.4255 43.9428 12.5598C44.092 12.7388 44.1517 12.9923 44.1517 13.3802C44.1517 14.2453 43.6445 15.3192 42.6153 16.602C42.2275 17.0346 41.8248 17.4672 41.4369 17.9296C40.8254 18.6455 40.3928 19.2123 40.184 19.6896C40.0348 20.0178 39.9304 20.152 39.9006 20.152C39.8708 20.152 39.9006 19.9432 39.9752 19.5405C40.005 19.2869 40.184 18.8991 40.4823 18.3621C40.7657 17.855 40.9895 17.5417 41.1237 17.3627C42.2722 16.0352 42.9882 15.185 43.197 14.7524C43.2269 14.7226 43.2269 14.6779 43.2269 14.648C43.2269 14.3945 42.8987 14.2602 42.2573 14.2602C41.1834 14.2602 38.7073 15.1552 34.844 16.9153C30.936 18.735 28.2512 20.2117 26.8192 21.3602C26.7745 21.4348 26.7745 21.5094 26.8789 21.584Z" fill="#124D73"/>
<path d="M28.1016 30.7424C28.1016 30.28 27.8928 29.5193 27.4602 28.4901C26.6697 30.5336 26.2073 31.891 26.1327 32.5771C27.4602 32.07 28.1016 31.4584 28.1016 30.7424ZM30.7865 37.9021C30.5031 37.4696 29.996 37.0818 29.2054 36.679C28.4894 36.321 27.8779 36.1421 27.4155 36.0675C27.6691 36.7089 28.027 37.2906 28.5193 37.7082C29.0861 38.2154 29.6231 38.4988 30.2048 38.4988C30.7119 38.4988 30.9506 38.3944 30.9506 38.2452C30.9655 38.1557 30.8909 38.0513 30.7865 37.9021ZM27.8779 33.7107C29.4142 33.4572 30.3838 33.2036 30.8163 33.0246V34.9935C30.5628 35.0979 30.3539 35.1427 30.2048 35.1725C30.6374 35.3515 31.0252 35.6797 31.3086 36.1421C31.592 36.6045 31.771 37.0668 31.771 37.574C31.771 39.5131 31.055 40.4677 29.6529 40.4677C28.7878 40.4677 27.9375 40.0351 27.147 39.1849C26.2819 38.2601 25.7449 37.0668 25.5659 35.6797C25.5659 35.5752 25.4913 35.5007 25.3571 35.5305C25.2079 35.5305 25.1482 35.5305 25.1035 35.5007C25.0737 35.4708 25.0737 35.4261 25.0737 35.3217C25.0737 35.1725 25.1035 35.1128 25.1035 35.1427C25.1035 35.0681 25.0737 35.0681 24.9543 35.1128C24.2085 35.3217 23.3434 35.4708 22.4186 35.4708V33.2931C23.3434 33.2931 24.3875 33.1141 25.5659 32.7561C25.894 31.5032 26.3564 29.9668 26.9233 28.1769C27.0277 27.8935 27.2812 27.2073 27.6691 26.1035C27.7735 25.9246 27.8481 25.85 27.9226 25.85C28.027 25.85 28.1016 25.9544 28.1016 26.2378C28.1315 26.4914 28.206 27.1328 28.385 28.1769C28.564 29.1017 28.6386 29.7132 28.6386 29.9966C28.6684 31.712 28.385 32.9649 27.8779 33.7107Z" fill="#124D73"/>
<path d="M19.8682 29.1762C19.8682 28.8928 19.6892 28.4901 19.361 27.9531C19.0329 27.3415 18.7197 27.0581 18.4362 27.0581C18.1827 27.0581 17.9738 27.2073 17.7501 27.4907C17.5413 27.7443 17.422 28.0575 17.422 28.3856C17.422 28.5945 17.5264 28.9525 17.7054 29.4298C17.8545 29.9369 18.0335 30.2949 18.2125 30.5336C18.4959 30.3844 18.8241 30.1457 19.2119 29.8474C19.6444 29.5342 19.8682 29.3104 19.8682 29.1762ZM19.0478 31.7418C19.7936 32.7411 20.9421 33.2781 22.4785 33.2781V35.4559C21.4791 35.4559 20.6587 35.2769 19.9726 34.889C19.1522 34.4565 18.4362 33.6361 17.8247 32.4876C16.7806 33.1289 15.3188 33.8449 13.4543 34.5609C10.486 35.7393 7.83093 36.321 5.47419 36.321C1.81976 36.321 0 34.5012 0 30.8468C0 29.4447 0.208824 28.2663 0.64139 27.3415C0.820382 26.9537 0.969544 26.7747 1.02921 26.7747C1.02921 26.7747 1.05904 26.8045 1.05904 26.8791C1.05904 26.9835 1.02921 27.1625 0.954628 27.4161C0.671223 28.5945 0.492229 29.385 0.492229 29.7728C0.492229 31.3092 1.13362 32.4876 2.38657 33.2781C3.35611 33.8449 4.50465 34.1432 5.86201 34.1432C8.18891 34.1432 10.6948 33.6361 13.3797 32.6815C14.9608 32.1147 16.2436 31.5329 17.2877 30.9214C16.8999 29.9518 16.7209 29.206 16.7209 28.6989C16.7209 27.6548 16.9745 26.7598 17.407 25.9842C17.7949 25.2682 18.2722 24.9102 18.7346 24.8804C19.197 24.9102 19.6594 25.2682 20.0919 26.0587C20.4797 26.7747 20.6587 27.4907 20.6587 28.1768C20.6587 29.8474 20.1218 31.0258 19.0478 31.7418Z" fill="#124D73"/>
<path d="M16.2135 22.2552C16.1837 22.2254 16.1837 22.1806 16.2135 22.1061L16.8996 20.6741C16.9295 20.5995 17.0041 20.5697 17.0488 20.5697C17.1234 20.5697 17.4366 20.7487 17.9736 21.1067C18.5404 21.4945 18.8387 21.7182 18.8387 21.7928C18.8387 22.0464 18.5852 22.5386 18.0929 23.3292C18.0183 23.4336 17.9885 23.4783 17.9139 23.4336C17.362 23.0159 16.7803 22.6132 16.2135 22.2552Z" fill="#124D73"/>
<path d="M29.7426 12.6641C32.502 11.6648 35.3659 10.5908 38.364 9.4721C38.4685 9.44227 38.543 9.39752 38.5729 9.44227C38.5729 9.44227 38.5729 9.51685 38.543 9.62126C38.3939 9.94942 38.2895 10.1284 38.2149 10.1881C35.709 11.1129 32.7407 12.2614 29.3697 13.6635C29.4592 13.3503 29.5636 13.0221 29.7426 12.6641Z" fill="#124D73"/>
<path d="M9.20295 38.3645C11.9624 37.3651 14.8263 36.2911 17.8244 35.1724C17.9288 35.1426 18.0034 35.0978 18.0333 35.1426C18.0333 35.1426 18.0333 35.2172 18.0034 35.3216C17.8543 35.6497 17.7498 35.8287 17.6753 35.8884C15.1694 36.8132 12.2011 37.9617 8.83005 39.3638C8.90463 39.0506 9.02396 38.7224 9.20295 38.3645Z" fill="#124D73"/>
<path d="M5.29512 16.5722C5.72768 16.5722 6.08567 16.781 6.39891 17.2881C6.72706 17.7505 6.96572 18.3919 7.08505 19.1825C7.11488 19.2571 7.11488 19.2869 7.11488 19.3316H7.14471C7.14471 19.3018 7.17454 19.2571 7.17454 19.1825C7.24912 18.7201 7.42811 18.0041 7.68169 17.0644C7.96509 16.423 8.2485 16.0948 8.57665 16.0948C8.75564 16.0948 8.93464 16.1993 9.0838 16.423C9.23296 16.6318 9.29262 16.781 9.29262 16.9301C9.29262 17.0047 9.29262 17.139 9.21804 17.2881C9.14346 17.497 9.06888 17.6163 9.00922 17.6163C8.97939 17.6163 8.90481 17.5119 8.75565 17.3627C8.65123 17.2136 8.50207 17.1539 8.36783 17.1539C8.08442 17.1539 7.83085 17.84 7.57728 19.1974C7.47286 19.8089 7.3237 20.2415 7.21929 20.4802C7.11488 20.6293 7.0403 20.7337 6.96572 20.7337C6.89114 20.7337 6.89114 20.6293 6.8613 20.4802C6.89114 20.2266 6.75689 19.7642 6.47349 19.0781C6.19008 18.3621 6.01109 18.0339 5.86193 18.0339C5.78735 18.0339 5.75752 18.0339 5.71277 18.1085C5.68294 18.1384 5.63819 18.1831 5.53378 18.1831C5.38462 18.1831 5.25037 18.0787 5.02663 17.8997C4.81781 17.7207 4.74323 17.5715 4.74323 17.4671C4.74323 17.4373 4.8178 17.2583 4.9968 16.96C5.14596 16.6766 5.26529 16.5722 5.29512 16.5722Z" fill="#124D73"/>
</svg>
