<svg width="48" height="49" viewBox="0 0 48 49" fill="none" xmlns="http://www.w3.org/2000/svg">
<path d="M4.58557 41.1142C4.58557 39.1532 4.9342 37.4972 5.58788 36.1898C5.84936 35.6669 6.02367 35.449 6.11083 35.449C6.15441 35.449 6.15441 35.4926 6.15441 35.5797C6.15441 35.7541 6.11083 36.0155 5.98009 36.3642C5.45715 37.7587 5.19567 39.0225 5.19567 40.1555C5.19567 41.4193 5.45715 42.4652 6.02367 43.3803C6.85167 44.7749 8.24619 45.4285 10.2072 45.4285C12.2554 45.4285 14.6958 44.5134 17.5285 42.6395C19.7074 41.2014 21.3198 39.8505 22.4093 38.5431C22.7143 38.1509 22.8887 37.41 22.9758 36.2334C22.9758 36.1463 22.9758 35.2747 22.9758 33.6623C22.9758 29.2608 22.7579 25.3387 22.3221 21.8524C22.1478 20.6758 21.9299 18.9762 21.5377 16.7973C21.7556 15.5335 21.8863 14.7491 21.9735 14.5312C22.0607 14.3569 22.1042 14.2697 22.1478 14.2697C22.1914 14.2697 22.2786 14.3569 22.3221 14.5312C22.8887 16.4051 23.368 18.7583 23.7167 21.6781C23.9345 23.5956 24.1089 26.6025 24.2396 30.6989C24.3268 34.316 24.5011 36.5821 24.6754 37.4972C24.8933 38.4995 25.2419 39.1968 25.6341 39.5454C25.9392 39.7633 26.375 39.894 26.9851 39.894V42.5523C25.6777 42.5523 24.719 42.0294 24.1524 41.0271C23.8038 40.3734 23.5423 39.2839 23.368 37.6715C23.1066 39.2404 22.8451 40.2427 22.5836 40.6349C22.235 41.1142 21.4506 41.8987 20.1432 43.0317C18.5308 44.3827 16.9184 45.5157 15.3495 46.3873C13.3013 47.5203 11.471 48.1304 9.98934 48.1304C7.85398 48.1304 6.3723 47.2589 5.45715 45.5593C4.89062 44.2519 4.58557 42.8138 4.58557 41.1142Z" fill="#124D73"/>
<path d="M32.6068 26.1231C32.6068 26.341 32.3889 26.7332 31.9095 27.3869C31.343 28.1277 30.8636 28.6943 30.3843 29.0429C30.0792 29.2608 29.0769 29.6094 27.3337 30.0452C27.0287 30.0888 26.8544 30.1324 26.8544 30.1324C26.8979 30.0888 26.9851 30.0016 27.203 29.8709C27.4209 29.6966 28.031 29.348 29.0769 28.825C30.0356 28.3021 30.6021 27.9534 30.7329 27.8227C30.7765 27.7791 30.7765 27.7355 30.7765 27.7355C30.7765 27.5176 29.9049 27.4305 28.2053 27.4305C28.2053 27.4305 27.9003 27.4305 27.2466 27.4741C26.8979 27.5176 26.7236 27.4741 26.7236 27.4305C26.7236 27.3869 26.7672 27.2998 26.8544 27.169L27.4645 26.1667C27.6388 25.8616 27.9874 25.6873 28.4668 25.6002C28.6411 25.5566 29.0333 25.5566 29.6434 25.5566C31.6045 25.4694 32.6068 25.6873 32.6068 26.1231Z" fill="#124D73"/>
<path d="M27.8566 46.2565L28.5103 44.9056C28.5539 44.8184 28.6411 44.7313 28.6846 44.7313C28.7718 44.7313 29.164 44.9492 29.8177 45.4285C30.5149 45.9079 30.82 46.1694 30.82 46.2129C30.82 46.518 30.5149 47.1281 29.9484 48.0868C29.8613 48.174 29.8177 48.2176 29.7305 48.174C29.164 47.7382 28.5103 47.3024 27.7695 46.823C27.5516 47.3896 27.2901 47.8254 27.0286 48.2176C26.9851 48.3483 26.8979 48.3919 26.8107 48.3047C26.1571 47.7818 25.4598 47.3024 24.7625 46.8666C24.719 46.823 24.719 46.7795 24.7625 46.6923L25.6341 44.9927C25.6777 44.9056 25.7213 44.8184 25.8084 44.8184C25.8956 44.8184 26.2006 44.9927 26.7672 45.3849C27.3337 45.7772 27.6823 46.0822 27.8566 46.2565Z" fill="#124D73"/>
<path d="M35.0908 41.8115C33.522 41.8115 32.7376 40.8963 32.6504 39.1096C32.6504 39.0224 32.6068 38.9789 32.5197 38.9789C32.3889 38.9789 32.2146 39.066 32.0839 39.1968C31.2123 40.2426 30.6458 40.8527 30.3843 41.0706C29.2513 42.0294 28.1182 42.5087 26.898 42.5087V39.8504C28.1618 39.8504 29.2948 39.5018 30.2536 38.8481C30.6458 38.5867 31.5174 37.8022 32.9119 36.4077C33.0426 36.277 33.2169 36.1898 33.3477 36.1898C33.4784 36.1898 33.5656 36.277 33.5656 36.4077C33.5656 36.4949 33.5656 36.582 33.522 36.7563C33.4784 36.9307 33.4784 37.0614 33.4784 37.1921C33.4784 37.6715 33.6091 38.1073 33.827 38.4995C34.1321 38.9353 34.5243 39.1532 35.0908 39.1532V41.8115Z" fill="#124D73"/>
<path d="M32.6936 3.24429C35.134 2.37271 37.7052 1.41398 40.4506 0.411667C40.5814 0.368088 40.6685 0.324509 40.6685 0.368087C40.7121 0.411666 40.7121 0.498824 40.6249 0.585981C40.4506 0.97819 40.3199 1.19609 40.2327 1.28324C37.9231 2.11124 35.2647 3.15713 32.1707 4.42091C32.345 4.07228 32.4757 3.68008 32.6936 3.24429Z" fill="#124D73"/>
<path d="M38.5772 6.55626C38.5772 6.86131 38.49 7.25352 38.3593 7.60215C38.1414 8.08151 37.8799 8.29941 37.5749 8.29941C37.0955 8.29941 36.7033 7.95078 36.529 7.2971C36.3111 8.16867 35.8753 8.60446 35.2216 8.60446C35.0037 8.60446 34.7858 8.47372 34.6115 8.25583C34.3936 7.95078 34.3065 7.60215 34.3065 7.16636V6.07689C34.3065 5.98973 34.2629 5.90257 34.1321 5.90257C34.0014 5.85899 33.9578 5.77184 33.9578 5.6411C33.9578 5.42321 34.045 5.16173 34.2629 4.94384C34.4372 4.76953 34.5679 4.63879 34.6551 4.63879C34.7858 4.63879 34.8294 4.85668 34.8294 5.33605C34.8294 5.59752 34.8294 5.81542 34.7858 5.98973C34.7422 6.16405 34.7422 6.29478 34.7422 6.42552C34.7422 6.68699 34.7858 6.94847 34.9166 7.16636C35.0037 7.42783 35.178 7.55857 35.3523 7.55857C35.5702 7.55857 35.7881 7.47141 36.006 7.25352C36.2239 7.03562 36.3111 6.77415 36.3111 6.51268C36.3111 6.33836 36.2675 6.07689 36.1368 5.6411C36.0496 5.24889 36.006 4.98742 36.006 4.90026C36.006 4.8131 36.0496 4.68237 36.1368 4.46447C36.2239 4.29016 36.3111 4.15942 36.3111 4.15942C36.3982 4.15942 36.4854 4.4209 36.6161 4.98742C36.7469 5.51037 36.7904 5.90257 36.7904 6.16405C36.7904 6.90489 37.0955 7.29709 37.662 7.25352C37.9235 7.25352 38.0542 7.12278 38.1414 6.90489C37.662 6.07689 37.4005 5.42321 37.4005 4.94384C37.4005 4.68237 37.4441 4.46447 37.5749 4.24658C37.662 4.11584 37.7056 4.02869 37.7492 4.02869C37.7928 4.02869 37.8363 4.11584 37.8363 4.29016C37.8799 4.50805 37.8799 4.72595 37.9235 4.90026C37.9671 4.90026 38.0542 5.20531 38.3157 5.81542C38.5336 6.07689 38.5772 6.33836 38.5772 6.55626Z" fill="#124D73"/>
<path d="M39.0998 34.0545C39.0998 36.582 38.6205 38.5867 37.7053 40.0248C36.9209 41.245 36.0493 41.8987 35.0034 41.8987V39.2403C35.8314 39.2403 36.6594 38.9353 37.4438 38.2816C37.6617 38.1073 37.7925 37.41 37.7925 36.1898C37.7925 35.449 37.6181 32.4856 37.2259 27.2998C36.8773 22.1139 36.6594 19.0634 36.6594 18.1918C36.6594 17.3638 36.5287 16.6665 36.2672 16.1C36.2672 15.795 36.4851 15.0541 37.008 13.8775C37.0952 13.7468 37.1388 13.7032 37.1824 13.7032C37.2259 13.7032 37.3131 13.7903 37.3567 13.9211C37.4874 14.2261 37.836 15.0541 38.3154 16.4051C38.8384 17.7996 39.187 18.6712 39.2741 18.9762C39.3613 19.2377 39.3613 19.412 39.3613 19.4992C39.3613 19.8914 39.0127 19.6735 38.2282 18.8455C38.1411 18.7147 38.0975 18.7583 38.0975 18.9762C38.0975 19.0198 38.2718 21.3295 38.5769 25.9052C38.9255 30.4374 39.0998 33.1393 39.0998 34.0545Z" fill="#124D73"/>
<path d="M40.7124 18.7584C40.7124 17.9304 40.5817 17.2331 40.3202 16.7102C40.3202 16.4051 40.5381 15.6643 41.061 14.5312C41.1482 14.4005 41.1918 14.3134 41.2353 14.3134C41.2789 14.3134 41.3225 14.4005 41.4097 14.5312C41.584 14.8363 41.889 15.6643 42.3684 17.0152C42.8913 18.4098 43.24 19.2813 43.3271 19.5864C43.4143 19.8479 43.4143 20.0222 43.4143 20.1529C43.4143 20.5451 43.0657 20.2836 42.2812 19.4556C42.1941 19.3249 42.1505 19.3685 42.1505 19.63C42.1505 19.7171 42.3248 22.419 42.717 27.7356C43.1092 33.0522 43.2835 36.0592 43.2835 36.7128C43.2835 38.761 42.9785 40.5478 42.3684 42.1166C42.2377 42.4217 42.1069 42.6396 42.0633 42.7703C41.9326 42.9882 41.8454 43.0318 41.8454 42.901C41.8019 42.7267 41.8019 42.4217 41.889 41.8987C41.9762 41.2015 42.0198 40.3735 42.0198 39.4583C42.0198 38.6303 41.8019 35.144 41.3661 29.0866C40.8867 22.9419 40.7124 19.4992 40.7124 18.7584Z" fill="#124D73"/>
</svg>
