<svg width="49" height="49" viewBox="0 0 49 49" fill="none" xmlns="http://www.w3.org/2000/svg">
<path d="M10.8132 2.28178C10.7247 2.72402 10.592 2.98937 10.4151 3.12204C9.84023 3.47584 8.60195 4.3161 6.7003 5.59861C6.61185 5.68705 6.5234 5.73128 6.39073 5.81973C6.39073 5.7755 6.34651 5.73128 6.34651 5.68705L6.47918 5.02369C6.47918 4.89102 6.83297 4.58145 7.40789 4.09498C6.65608 3.82963 6.25806 3.47584 6.25806 3.07782C6.25806 2.63558 6.47918 2.14911 6.8772 1.66264C7.62901 0.733931 8.29238 0.291687 8.77884 0.291687C9.22109 0.291687 9.44221 0.557033 9.44221 1.0435C9.44221 1.35307 9.30954 1.70687 9.04419 2.10488C8.99997 2.19333 8.95574 2.19333 8.86729 2.06066C8.73462 1.75109 8.5135 1.57419 8.29238 1.57419C8.11548 1.57419 7.89436 1.66264 7.62901 1.83954C7.36367 2.01644 7.23099 2.19333 7.23099 2.28178C7.23099 2.45868 7.36367 2.63558 7.71746 2.76825C8.02703 2.90092 8.29238 2.98937 8.42505 2.98937C8.60195 2.98937 8.86729 2.8567 9.30954 2.59135C9.61911 2.41445 9.88445 2.19333 10.194 2.01644C10.4594 1.88376 10.592 1.83954 10.6805 1.88376C10.8574 2.01644 10.8574 2.10488 10.8132 2.28178Z" fill="#124D73"/>
<path d="M11.6096 34.5213C11.8749 35.9807 12.3172 36.9094 13.0247 37.3517C13.3785 37.5728 13.9535 37.6612 14.7053 37.6612V40.7569C13.5997 40.7569 12.7152 40.5358 12.096 40.0936C11.2115 39.4302 10.6366 38.2361 10.3271 36.4672C10.1502 35.3616 9.97327 32.1332 9.79637 26.8263C9.61947 21.0329 9.4868 17.4507 9.35413 16.1682C9.133 14.0454 8.69076 12.0553 8.11584 10.1537C8.11584 9.66724 8.33697 8.91542 8.73499 7.89826C8.82343 7.63292 8.86766 7.50024 8.95611 7.50024C9.00033 7.50024 9.08878 7.58869 9.22145 7.80981C9.88482 9.09232 10.3713 11.2593 10.7251 14.3108C10.9462 16.2124 11.1231 20.0157 11.2558 25.6764C11.3884 31.116 11.5211 34.0348 11.6096 34.5213Z" fill="#124D73"/>
<path d="M13.2899 26.2514C16.1202 25.2342 19.1717 24.1286 22.4001 22.9346C22.577 22.8903 22.6654 22.8461 22.6654 22.8903C22.7097 22.9346 22.7097 23.023 22.6212 23.1557C22.4443 23.5979 22.2674 23.8633 22.179 23.9517C19.4813 24.9246 16.3414 26.1629 12.715 27.6666C12.8919 27.2243 13.0688 26.7378 13.2899 26.2514Z" fill="#124D73"/>
<path d="M13.1572 46.5946C13.113 46.5504 13.113 46.4619 13.1572 46.4177L14.1744 44.3834C14.2628 44.2507 14.307 44.2065 14.3513 44.2065C14.4839 44.2065 14.8819 44.4718 15.678 45.0025C16.474 45.5332 16.872 45.8428 16.872 45.9755C16.872 46.3292 16.5182 47.0368 15.8107 48.1425C15.7222 48.2751 15.6338 48.3193 15.5453 48.2751C14.7935 47.656 13.9975 47.1253 13.1572 46.5946Z" fill="#124D73"/>
<path d="M24.1692 40.0052C22.356 40.0052 21.383 38.9438 21.3388 36.821C21.3388 36.7326 21.2946 36.6883 21.2061 36.6883C21.0292 36.6883 20.8523 36.7768 20.7197 36.9537C19.7025 38.1477 19.0391 38.8996 18.7296 39.1649C17.4028 40.2705 16.0319 40.8454 14.6167 40.8454V37.7497C16.1203 37.7497 17.4471 37.3517 18.5527 36.5557C19.0391 36.2461 20.0563 35.3174 21.6484 33.7253C21.8253 33.5484 22.0022 33.46 22.1791 33.46C22.356 33.46 22.4444 33.5484 22.4444 33.7253C22.4444 33.8138 22.4444 33.9464 22.4002 34.1675C22.356 34.3444 22.3117 34.5213 22.3117 34.654C22.3117 35.2289 22.4444 35.7596 22.7098 36.1576C23.0635 36.6883 23.55 36.9537 24.1692 36.9537V40.0052Z" fill="#124D73"/>
<path d="M19.614 7.54447C22.4443 6.52731 25.4958 5.4217 28.7242 4.22764C28.9011 4.18342 28.9895 4.13919 28.9895 4.18342C29.0338 4.22764 29.0338 4.31609 28.9453 4.44876C28.7684 4.89101 28.5915 5.15635 28.5031 5.2448C25.8054 6.21774 22.6655 7.45602 19.0391 8.95964C19.216 8.56162 19.3929 8.07516 19.614 7.54447Z" fill="#124D73"/>
<path d="M26.7341 12.7187C26.7341 13.1167 26.6457 13.5148 26.4688 13.957C26.2477 14.5319 25.9381 14.7973 25.5401 14.7973C24.9652 14.7973 24.5229 14.3992 24.3018 13.6032C24.0365 14.6204 23.5058 15.1511 22.7982 15.1511C22.5328 15.1511 22.2675 15.0184 22.0906 14.753C21.8695 14.3992 21.7368 13.957 21.7368 13.4705V12.188C21.7368 12.0554 21.6484 12.0111 21.5157 11.9669C21.383 11.9227 21.2946 11.8342 21.2946 11.6573C21.2946 11.392 21.4272 11.1266 21.6926 10.8171C21.9137 10.596 22.0906 10.4633 22.179 10.4633C22.3117 10.4633 22.4002 10.7286 22.4002 11.2593C22.4002 11.5689 22.4002 11.79 22.3559 12.0111C22.3117 12.188 22.2675 12.3649 22.2675 12.4976C22.2675 12.8072 22.3559 13.1167 22.4444 13.3379C22.5771 13.6474 22.754 13.8243 22.9751 13.8243C23.2404 13.8243 23.5058 13.6917 23.7711 13.4263C23.9922 13.161 24.1249 12.8956 24.1249 12.5861C24.1249 12.4092 24.0807 12.0554 23.948 11.5689C23.8153 11.0824 23.7711 10.8171 23.7711 10.6844C23.7711 10.5517 23.8153 10.4191 23.9038 10.1979C24.0365 9.97682 24.0807 9.84414 24.1249 9.84414C24.2576 9.84414 24.346 10.1537 24.4787 10.7729C24.6114 11.392 24.6998 11.8785 24.6998 12.1438C24.6998 13.0283 25.0536 13.4705 25.717 13.4263C26.0266 13.4263 26.2035 13.2936 26.2477 12.9841C25.6728 12.0111 25.4074 11.2151 25.4074 10.6844C25.4074 10.3748 25.4959 10.1095 25.6285 9.84414C25.717 9.66724 25.8054 9.5788 25.8497 9.5788C25.8939 9.5788 25.9381 9.71147 25.9381 9.88837C25.9823 10.1537 26.0266 10.3748 26.0708 10.596C26.115 10.596 26.2477 10.994 26.513 11.6573C26.6899 12.1438 26.7341 12.4534 26.7341 12.7187Z" fill="#124D73"/>
<path d="M22.223 19.3966C22.1788 19.3524 22.1788 19.2639 22.223 19.2197L23.2401 17.1854C23.3286 17.0527 23.3728 17.0085 23.417 17.0085C23.5497 17.0085 23.9477 17.2738 24.7438 17.8045C25.5398 18.3352 25.9378 18.6448 25.9378 18.7775C25.9378 19.1313 25.584 19.8388 24.8764 20.9444C24.788 21.0771 24.6995 21.1213 24.6111 21.0771C23.8593 20.458 23.0632 19.8831 22.223 19.3966Z" fill="#124D73"/>
<path d="M27.0877 36.0691C26.8666 37.3516 26.4686 38.3246 25.8936 39.0764C25.3187 39.784 24.6996 40.1378 24.0804 40.1378V37.0421C25.6283 37.0421 26.3801 36.3787 26.3801 35.0078C26.3801 34.654 26.2474 33.8137 25.9821 32.487C25.6725 31.0718 25.3629 29.922 25.0534 28.9932C24.9207 28.551 24.8323 28.3299 24.8323 28.2857C24.8323 27.0916 25.0092 26.1629 25.363 25.4553C25.4956 25.1457 25.5841 25.0131 25.6283 25.0131C25.6725 25.0131 25.761 25.1457 25.8936 25.3226C26.6012 26.6936 27.2204 28.9933 27.7953 32.2658C28.1491 34.2559 28.6355 35.5827 29.2989 36.246C29.7412 36.7325 30.4487 36.9536 31.289 36.9536V40.0493C30.3603 40.0493 29.4758 39.7398 28.7682 39.1206C27.8395 38.413 27.3088 37.3959 27.0877 36.0691Z" fill="#124D73"/>
<path d="M35.7555 30.8064C35.7555 33.8137 35.2248 36.1133 34.1192 37.8381C33.1905 39.2975 32.1291 40.0051 30.9351 40.0051V36.9094C31.908 36.9094 32.8809 36.5114 33.7654 35.7596C34.0308 35.5384 34.1634 34.6982 34.1634 33.283C34.1634 32.4427 33.9423 28.949 33.5001 22.8461C33.0578 16.7431 32.8367 13.1609 32.8367 12.0995C32.8367 11.1266 32.6598 10.2864 32.3502 9.66721C32.3502 9.26919 32.6156 8.42893 33.1905 7.05797C33.2789 6.9253 33.3232 6.83685 33.3674 6.83685C33.4558 6.83685 33.5001 6.9253 33.5885 7.1022C33.7654 7.45599 34.1634 8.42893 34.7383 10.021C35.3575 11.6573 35.7555 12.6745 35.844 13.0725C35.9324 13.3821 35.9766 13.5589 35.9766 13.6916C35.9766 14.1339 35.5344 13.9127 34.6499 12.8956C34.5615 12.7629 34.5172 12.8071 34.5172 13.0283C34.5172 13.0725 34.6941 15.8144 35.0921 21.1655C35.5344 26.6051 35.7555 29.7893 35.7555 30.8064Z" fill="#124D73"/>
<path d="M38.7186 12.9399C38.7186 11.9669 38.5417 11.1267 38.2322 10.5075C38.2322 10.1537 38.4975 9.31349 39.0724 7.94253C39.1609 7.76563 39.2051 7.67719 39.2493 7.67719C39.2936 7.67719 39.382 7.76563 39.4705 7.94253C39.6474 8.29633 40.0454 9.26926 40.6203 10.8613C41.2394 12.4976 41.6375 13.5148 41.7259 13.9128C41.8143 14.2224 41.8586 14.4435 41.8586 14.5762C41.8586 15.0184 41.4163 14.7531 40.5318 13.7359C40.4434 13.6032 40.3992 13.6475 40.3992 13.9128C40.3992 14.0013 40.6203 17.1854 41.0625 23.421C41.5048 29.6567 41.7259 33.1946 41.7259 33.9464C41.7259 36.3788 41.3721 38.4573 40.6645 40.2705C40.4876 40.6243 40.3549 40.8896 40.2665 41.0665C40.1338 41.3319 40.0454 41.3761 40.0011 41.1992C39.9569 41.0223 39.9569 40.6243 40.0454 40.0051C40.178 39.1649 40.2223 38.2362 40.2223 37.1306C40.2223 36.1576 39.9569 32.089 39.4705 24.9247C38.984 17.8046 38.7186 13.8244 38.7186 12.9399Z" fill="#124D73"/>
</svg>
