<svg width="48" height="49" viewBox="0 0 48 49" fill="none" xmlns="http://www.w3.org/2000/svg">
<path d="M39.3167 12.9459C39.3167 12.1976 39.2075 11.6052 38.9737 11.1063C38.9737 10.8101 39.1608 10.171 39.6129 9.23559C39.6908 9.01734 39.7999 9.01734 39.9091 9.23559C40.0182 9.50061 40.2832 10.2021 40.7353 11.3714C41.2186 12.6029 41.4836 13.3512 41.5616 13.6474C41.6395 13.8345 41.6707 14.0216 41.6707 14.0995C41.6707 14.4425 41.3277 14.2554 40.7041 13.5071C40.6262 13.398 40.595 13.4759 40.595 13.663C40.595 13.741 40.7821 16.3132 41.1874 21.411C41.5927 26.4932 41.8266 29.3461 41.8266 29.9385C41.8266 31.7001 41.5304 33.2747 40.9692 34.6154C40.86 34.8804 40.7821 35.0675 40.7041 35.2078C40.595 35.3637 40.5171 35.3949 40.5171 35.2857C40.4859 35.1298 40.4859 34.8804 40.5482 34.4283C40.6262 33.7891 40.6574 33.1188 40.6574 32.2925C40.6574 31.5754 40.4391 28.3328 39.987 22.5647C39.5349 16.7653 39.3167 13.5851 39.3167 12.9459Z" fill="#124D73"/>
<path d="M33.8916 28.2861L29.8539 27.2728C29.8851 27.1948 30.4152 27.0077 31.3817 26.7427C32.6912 26.3686 33.7825 26.0256 34.5932 25.6982C34.9985 25.5423 35.2323 25.3241 35.3103 25.0591C35.3415 24.872 35.3882 23.9678 35.3882 22.3309C35.3882 21.5046 35.2791 19.8677 35.092 17.2799C34.8738 14.7388 34.7958 13.1642 34.7958 12.5251C34.7958 11.8079 34.6867 11.2155 34.4529 10.7323C34.4529 10.4672 34.6711 9.82807 35.092 8.83033C35.1232 8.72121 35.2012 8.67444 35.2479 8.67444C35.2791 8.67444 35.3259 8.70562 35.4038 8.86151C35.5129 9.12653 35.8092 9.82806 36.2612 10.9973C36.7133 12.2289 36.9784 12.9772 37.0875 13.2422C37.1187 13.4604 37.1654 13.6475 37.1654 13.7255C37.1654 14.0684 36.8225 13.8813 36.1989 13.133C36.1209 13.0239 36.0898 13.1019 36.0898 13.2889C36.0898 13.3201 36.1677 14.3334 36.308 16.3601C36.4639 18.34 36.5263 19.7274 36.5263 20.5069C36.5263 22.6427 36.3704 24.2172 36.0742 25.1838C35.7312 26.4933 34.9829 27.5066 33.8916 28.2861Z" fill="#124D73"/>
<path d="M47.9221 30.2036L47.1427 31.7781C47.0647 31.934 46.9556 32.0431 46.8465 31.9964C46.8465 32.0275 46.5503 31.9964 46.0202 31.9652C45.459 31.9652 44.929 31.934 44.4457 31.934C42.3879 31.934 40.6262 32.1523 39.2076 32.6043C37.5551 33.1656 35.8714 33.6956 34.1878 34.2568C31.3037 35.1143 28.9497 35.5664 27.0789 35.5664C24.7249 35.5664 22.8074 35.2702 21.3887 34.7089V32.4329C22.5891 32.9941 24.5378 33.2903 27.1569 33.2903C30.1812 33.2903 33.9695 32.464 38.5372 30.8583C38.3502 30.8583 36.9627 30.5153 34.3436 29.8918C32.0676 29.3617 30.6333 29.0655 30.0721 29.0655C29.355 29.0655 29.0276 29.0343 29.0276 28.9096C29.0276 28.8784 29.0588 28.8005 29.1367 28.7226C29.2459 28.4264 29.5109 27.9431 29.8071 27.3351H33.7357C38.8958 28.7537 43.4324 29.58 47.3609 29.8762C47.7663 29.9074 48.0001 29.9541 48.0001 30.0633C48.0001 30.0788 47.9533 30.1256 47.9221 30.2036Z" fill="#124D73"/>
<path d="M21.3888 32.3706V34.6935C18.7386 33.571 17.4291 31.9185 17.4291 29.7204C17.4291 29.4242 17.4603 29.05 17.5382 28.5668C17.6162 27.8964 17.7565 27.6002 17.9124 27.6002C17.9903 27.6002 18.0682 27.7093 18.0682 28.0055C18.0682 29.8919 19.1439 31.3573 21.3888 32.3706Z" fill="#124D73"/>
<path d="M28.0612 22.4088L27.5312 23.9366C27.4532 24.1236 27.422 24.2328 27.3753 24.2795C27.3441 24.3575 27.2661 24.3887 27.1882 24.3887C24.0859 25.137 21.0147 26.1035 17.9436 27.3039C17.9748 27.756 18.0215 28.1301 18.0215 28.3952C18.0215 28.7693 17.9436 28.9564 17.8345 28.9564C17.6786 28.9564 17.3512 28.5511 16.8679 27.6469C16.3067 27.8339 15.3401 28.2393 13.9527 28.8473V26.7894C14.358 26.6024 14.966 26.3374 15.6675 26.01C15.5896 25.932 15.0751 25.4799 14.0618 24.6693C13.2044 23.9989 12.6743 23.4377 12.4561 23.0635C12.2378 22.7206 12.1131 22.3153 12.1131 21.9099C12.1131 21.1928 12.4093 20.6004 12.9705 20.1171C13.5317 19.5871 14.2489 19.3376 15.1063 19.3376C16.6341 19.3376 19.144 19.7897 22.5113 20.616C22.6672 20.6472 24.46 21.146 27.9053 22.0814C28.0924 22.0814 28.1236 22.2217 28.0612 22.4088ZM24.195 23.3442C23.3687 23.048 22.0592 22.627 20.2976 22.2217C18.0215 21.6605 16.2131 21.3955 14.8413 21.3955C13.75 21.3955 13.1888 21.4734 13.1888 21.6605C13.1888 21.7384 13.3759 21.9255 13.6721 22.2217C14.3112 22.705 14.9504 23.235 15.5428 23.7495C16.4782 24.4978 17.0394 25.059 17.3044 25.402C19.7832 24.5446 22.0748 23.843 24.195 23.3442Z" fill="#124D73"/>
<path d="M6.87499 30.952C7.65447 30.0478 8.71455 29.2683 10.0241 28.5512C10.7724 28.1459 12.0819 27.5379 13.9526 26.7584V28.8162C12.7522 29.3463 11.8948 29.7204 11.3336 29.9699C10.18 30.5311 9.38491 30.9364 8.97958 31.2794C8.2001 31.8718 7.03089 33.041 5.53429 34.7559C4.6301 35.8004 3.74149 36.3304 2.8373 36.3304C2.089 36.3304 1.41865 35.9874 0.857425 35.2859C0.265022 34.6156 0 33.7114 0 32.698C0 31.3106 0.561224 29.4866 1.71485 27.1949C1.82398 26.9767 1.9331 26.852 2.01105 26.852C2.01105 26.852 2.04223 26.8831 2.04223 26.9299C2.04223 27.1482 1.77721 27.9432 1.29393 29.2839C0.763886 30.6714 0.514453 31.7159 0.514453 32.4954C0.514453 33.0878 0.67035 33.5866 0.966551 33.914C1.26275 34.3194 1.68367 34.5064 2.19812 34.5064C3.1335 34.5064 4.10005 34.0232 5.03542 33.0878C5.67459 32.4018 6.28259 31.6535 6.87499 30.952Z" fill="#124D73"/>
<path d="M20.2355 29.2682C20.2044 29.237 20.2044 29.1903 20.2355 29.1123L20.9527 27.6157C20.9838 27.5378 21.0618 27.5066 21.1086 27.5066C21.1865 27.5066 21.5139 27.6937 22.0751 28.0678C22.6675 28.4731 22.9793 28.707 22.9793 28.7849C22.9793 29.05 22.7143 29.5644 22.1998 30.3907C22.1219 30.4998 22.0907 30.5466 22.0127 30.4998C21.4359 30.0477 20.8279 29.6424 20.2355 29.2682Z" fill="#124D73"/>
<path d="M24.6159 39.2144C27.5 38.1699 30.4932 37.0474 33.6267 35.8782C33.7358 35.8471 33.8138 35.8003 33.8449 35.8471C33.8449 35.8471 33.8449 35.925 33.8138 36.0341C33.6579 36.3771 33.5487 36.5642 33.4708 36.6265C30.8518 37.5931 27.7494 38.7935 24.2262 40.2589C24.3197 39.9315 24.4289 39.5885 24.6159 39.2144Z" fill="#124D73"/>
<path d="M8.48096 34.0542C10.6167 33.3059 12.8616 32.4797 15.2156 31.6223C15.3715 31.5911 15.4027 31.5443 15.4339 31.5911C15.4651 31.5911 15.4651 31.669 15.4027 31.7782C15.2936 32.1211 15.1845 32.3082 15.1065 32.3706C13.0799 33.0877 10.7726 33.9763 8.10681 35.0987C8.18476 34.7558 8.29389 34.4284 8.48096 34.0542Z" fill="#124D73"/>
<path d="M27.5625 16.7966C28.0146 16.7966 28.3887 17.0149 28.7161 17.5449C29.0591 18.0282 29.3085 18.6985 29.4332 19.5248C29.4644 19.6027 29.4644 19.6339 29.4644 19.6807H29.4956C29.4956 19.6495 29.5268 19.6027 29.5268 19.5248C29.6047 19.0415 29.7918 18.2932 30.0568 17.3111C30.353 16.6407 30.6492 16.2977 30.9922 16.2977C31.1792 16.2977 31.3663 16.4069 31.5222 16.6407C31.6781 16.859 31.7405 17.0148 31.7405 17.1707C31.7405 17.2487 31.7405 17.389 31.6625 17.5449C31.5846 17.7631 31.5066 17.8879 31.4443 17.8879C31.4131 17.8879 31.3351 17.7787 31.1792 17.6228C31.0701 17.4669 30.9142 17.4046 30.7739 17.4046C30.4777 17.4046 30.2127 18.1217 29.9477 19.5404C29.8385 20.1795 29.6826 20.6316 29.5735 20.8811C29.4644 21.037 29.3864 21.1461 29.3085 21.1461C29.2306 21.1461 29.2305 21.037 29.1994 20.8811C29.2305 20.616 29.0902 20.1328 28.794 19.4156C28.4978 18.6673 28.3108 18.3244 28.1549 18.3244C28.0769 18.3244 28.0457 18.3244 27.999 18.4023C27.9678 18.4335 27.921 18.4803 27.8119 18.4803C27.656 18.4803 27.5157 18.3711 27.2819 18.1841C27.0636 17.997 26.9857 17.8411 26.9857 17.732C26.9857 17.7008 27.0636 17.5137 27.2507 17.2019C27.4222 16.9213 27.5313 16.7966 27.5625 16.7966Z" fill="#124D73"/>
<path d="M19.6183 12.4469C19.6183 12.6599 19.4053 13.0433 18.9367 13.6824C18.3828 14.4067 17.9142 14.9605 17.4455 15.3014C17.1473 15.5144 16.1674 15.8552 14.4632 16.2812C14.165 16.3239 13.9946 16.3665 13.9946 16.3665C14.0372 16.3239 14.1224 16.2386 14.3354 16.1108C14.5484 15.9404 15.1449 15.5996 16.1674 15.0883C17.1047 14.5771 17.6585 14.2363 17.7863 14.1084C17.8289 14.0658 17.8289 14.0232 17.8289 14.0232C17.8289 13.8102 16.9769 13.725 15.3153 13.725C15.3153 13.725 15.0171 13.725 14.378 13.7676C14.0372 13.8102 13.8668 13.7676 13.8668 13.725C13.8668 13.6824 13.9094 13.5972 13.9946 13.4694L14.591 12.4895C14.7614 12.1913 15.1023 12.0208 15.5709 11.9356C15.7413 11.893 16.1248 11.893 16.7212 11.893C18.681 11.8078 19.6183 12.0208 19.6183 12.4469Z" fill="#124D73"/>
</svg>
