<svg width="32" height="32" viewBox="0 0 32 32" fill="none" xmlns="http://www.w3.org/2000/svg">
<g clip-path="url(#clip0_1_1081)">
<rect width="32" height="32" rx="16" fill="#F9F8F4"/>
<g clip-path="url(#clip1_1_1081)">
<path d="M11.3334 18H10.6667C10.3131 18 9.97395 17.8595 9.7239 17.6095C9.47385 17.3594 9.33337 17.0203 9.33337 16.6666V10.6666C9.33337 10.313 9.47385 9.97389 9.7239 9.72384C9.97395 9.47379 10.3131 9.33331 10.6667 9.33331H16.6667C17.0203 9.33331 17.3595 9.47379 17.6095 9.72384C17.8596 9.97389 18 10.313 18 10.6666V11.3333M15.3334 14H21.3334C22.0698 14 22.6667 14.5969 22.6667 15.3333V21.3333C22.6667 22.0697 22.0698 22.6666 21.3334 22.6666H15.3334C14.597 22.6666 14 22.0697 14 21.3333V15.3333C14 14.5969 14.597 14 15.3334 14Z" stroke="#79747E" stroke-width="1.5" stroke-linecap="round" stroke-linejoin="round"/>
</g>
</g>
<defs>
<clipPath id="clip0_1_1081">
<rect width="32" height="32" rx="16" fill="white"/>
</clipPath>
<clipPath id="clip1_1_1081">
<rect width="16" height="16" fill="white" transform="translate(8 8)"/>
</clipPath>
</defs>
</svg>
