<svg width="41" height="40" viewBox="0 0 41 40" fill="none" xmlns="http://www.w3.org/2000/svg">
<rect x="0.353424" width="40" height="40" rx="20" fill="#D0ECEF"/>
<path d="M31.8532 15.1532C31.8532 15.1422 31.8557 15.1313 31.8598 15.1223C31.8637 15.1137 31.8681 15.1087 31.8707 15.1062C31.871 15.1059 31.8713 15.1057 31.8716 15.1054C31.8719 15.1057 31.8722 15.1059 31.8725 15.1062C31.8752 15.1087 31.8796 15.1137 31.8834 15.1223C31.8875 15.1313 31.89 15.1422 31.89 15.1532C31.89 15.1642 31.8875 15.1752 31.8834 15.1842C31.8796 15.1927 31.8752 15.1978 31.8725 15.2002C31.8722 15.2005 31.8719 15.2008 31.8716 15.201C31.8713 15.2008 31.871 15.2005 31.8707 15.2002C31.8681 15.1978 31.8637 15.1927 31.8598 15.1842C31.8557 15.1752 31.8532 15.1642 31.8532 15.1532Z" fill="black" stroke="#062437"/>
<path d="M9.47965 25.6841C10.1016 25.6841 10.6059 25.2128 10.6059 24.6315C10.6059 24.0501 10.1016 23.5789 9.47965 23.5789C8.85765 23.5789 8.35342 24.0501 8.35342 24.6315C8.35342 25.2128 8.85765 25.6841 9.47965 25.6841Z" stroke="#062437" stroke-linecap="round" stroke-linejoin="round"/>
<path d="M29.9769 30.3157V10.9473H14.2026C14.026 10.9473 13.8512 10.9798 13.6881 11.0429C13.525 11.106 13.3769 11.1986 13.252 11.3153C13.1272 11.4319 13.0282 11.5704 12.9606 11.7229C12.8931 11.8753 12.8583 12.0387 12.8583 12.2037V30.3157" stroke="#062437" stroke-linecap="round" stroke-linejoin="round"/>
<path d="M15.5614 28.4053V10.9473" stroke="#062437" stroke-linecap="round" stroke-linejoin="round"/>
<path d="M14.6603 28.6316H29.9769V32H14.6603C14.1824 32 13.724 31.8226 13.3861 31.5067C13.0482 31.1909 12.8583 30.7625 12.8583 30.3158C12.8583 29.8691 13.0482 29.4407 13.3861 29.1249C13.724 28.809 14.1824 28.6316 14.6603 28.6316Z" stroke="#062437" stroke-linecap="round" stroke-linejoin="round"/>
<path d="M20.5166 30.3157H12.9804" stroke="#062437" stroke-linecap="round" stroke-linejoin="round"/>
<path d="M21.4342 19.1908C20.9182 18.3867 20.7003 17.446 20.8144 16.5144C20.9284 15.5829 21.3679 14.7124 22.0648 14.038C21.3925 14.2177 20.7734 14.5395 20.2554 14.9786C19.7375 15.4176 19.3345 15.9622 19.0777 16.5701C18.8209 17.178 18.7172 17.833 18.7746 18.4844C18.8319 19.1358 19.0488 19.7661 19.4085 20.3266C19.7682 20.8871 20.261 21.3627 20.8488 21.7167C21.4366 22.0707 22.1037 22.2936 22.7984 22.3681C23.4931 22.4426 24.1969 22.3668 24.8552 22.1464C25.5135 21.9261 26.1088 21.5671 26.595 21.0974C25.6302 21.3545 24.6016 21.307 23.6685 20.9623C22.7355 20.6176 21.9502 19.995 21.4342 19.1908Z" stroke="#062437" stroke-linecap="round" stroke-linejoin="round"/>
<mask id="path-9-inside-1_1_2114" fill="white">
<path d="M23.7214 14.0847L24.5264 14.4683C24.5456 14.4774 24.5674 14.4805 24.5887 14.4774C24.61 14.4742 24.6296 14.4648 24.6449 14.4506L25.2837 13.8527C25.299 13.8382 25.3189 13.8287 25.3404 13.8255C25.3619 13.8224 25.3839 13.8258 25.4032 13.8352C25.4225 13.8446 25.4381 13.8596 25.4476 13.8779C25.4572 13.8962 25.4602 13.9169 25.4562 13.9369L25.3148 14.771C25.3113 14.7909 25.3147 14.8113 25.3245 14.8292C25.3343 14.8472 25.35 14.8617 25.3693 14.8708L26.1743 15.2544C26.1933 15.2635 26.2088 15.2781 26.2185 15.2959C26.2282 15.3138 26.2316 15.3341 26.2283 15.3538C26.2249 15.3736 26.215 15.3919 26.1999 15.4061C26.1848 15.4203 26.1653 15.4297 26.1441 15.4329L25.2517 15.5651C25.2304 15.5682 25.2107 15.5775 25.1955 15.5917C25.1803 15.606 25.1703 15.6244 25.167 15.6443L25.0255 16.4784C25.0222 16.4983 25.0122 16.5167 24.997 16.5309C24.9818 16.5452 24.9621 16.5545 24.9408 16.5577C24.9195 16.5608 24.8977 16.5575 24.8785 16.5484C24.8594 16.5392 24.8438 16.5246 24.8341 16.5066L24.4241 15.7542C24.4143 15.7363 24.3987 15.7218 24.3795 15.7126C24.3604 15.7035 24.3386 15.7002 24.3174 15.7032L23.425 15.8354C23.4035 15.8391 23.3814 15.8363 23.3618 15.8274C23.3422 15.8185 23.3262 15.8039 23.3162 15.7859C23.3061 15.7679 23.3025 15.7473 23.3058 15.7272C23.3092 15.707 23.3194 15.6885 23.3349 15.6742L23.9737 15.0771C23.9888 15.0628 23.9988 15.0445 24.0022 15.0246C24.0056 15.0047 24.0022 14.9844 23.9926 14.9664L23.5822 14.2139C23.5713 14.1958 23.567 14.1748 23.5701 14.1542C23.5732 14.1336 23.5834 14.1145 23.5992 14.0998C23.615 14.0852 23.6355 14.0758 23.6575 14.073C23.6796 14.0703 23.702 14.0744 23.7214 14.0847Z"/>
</mask>
<path d="M23.7214 14.0847L24.5264 14.4683C24.5456 14.4774 24.5674 14.4805 24.5887 14.4774C24.61 14.4742 24.6296 14.4648 24.6449 14.4506L25.2837 13.8527C25.299 13.8382 25.3189 13.8287 25.3404 13.8255C25.3619 13.8224 25.3839 13.8258 25.4032 13.8352C25.4225 13.8446 25.4381 13.8596 25.4476 13.8779C25.4572 13.8962 25.4602 13.9169 25.4562 13.9369L25.3148 14.771C25.3113 14.7909 25.3147 14.8113 25.3245 14.8292C25.3343 14.8472 25.35 14.8617 25.3693 14.8708L26.1743 15.2544C26.1933 15.2635 26.2088 15.2781 26.2185 15.2959C26.2282 15.3138 26.2316 15.3341 26.2283 15.3538C26.2249 15.3736 26.215 15.3919 26.1999 15.4061C26.1848 15.4203 26.1653 15.4297 26.1441 15.4329L25.2517 15.5651C25.2304 15.5682 25.2107 15.5775 25.1955 15.5917C25.1803 15.606 25.1703 15.6244 25.167 15.6443L25.0255 16.4784C25.0222 16.4983 25.0122 16.5167 24.997 16.5309C24.9818 16.5452 24.9621 16.5545 24.9408 16.5577C24.9195 16.5608 24.8977 16.5575 24.8785 16.5484C24.8594 16.5392 24.8438 16.5246 24.8341 16.5066L24.4241 15.7542C24.4143 15.7363 24.3987 15.7218 24.3795 15.7126C24.3604 15.7035 24.3386 15.7002 24.3174 15.7032L23.425 15.8354C23.4035 15.8391 23.3814 15.8363 23.3618 15.8274C23.3422 15.8185 23.3262 15.8039 23.3162 15.7859C23.3061 15.7679 23.3025 15.7473 23.3058 15.7272C23.3092 15.707 23.3194 15.6885 23.3349 15.6742L23.9737 15.0771C23.9888 15.0628 23.9988 15.0445 24.0022 15.0246C24.0056 15.0047 24.0022 14.9844 23.9926 14.9664L23.5822 14.2139C23.5713 14.1958 23.567 14.1748 23.5701 14.1542C23.5732 14.1336 23.5834 14.1145 23.5992 14.0998C23.615 14.0852 23.6355 14.0758 23.6575 14.073C23.6796 14.0703 23.702 14.0744 23.7214 14.0847Z" fill="black"/>
<path d="M23.7214 14.0847L23.251 14.9672L23.2709 14.9778L23.2912 14.9874L23.7214 14.0847ZM24.5264 14.4683L24.0963 15.371L24.0988 15.3722L24.5264 14.4683ZM24.6449 14.4506L25.3276 15.1813L25.3282 15.1807L24.6449 14.4506ZM25.2837 13.8527L25.967 14.5828L25.971 14.5791L25.2837 13.8527ZM25.4562 13.9369L24.4753 13.7424L24.4726 13.756L24.4703 13.7697L25.4562 13.9369ZM25.3148 14.771L26.3001 14.9418L26.3007 14.9382L25.3148 14.771ZM25.3245 14.8292L26.2021 14.3498L25.3245 14.8292ZM25.3693 14.8708L25.7994 13.968L25.7947 13.9658L25.3693 14.8708ZM26.1743 15.2544L26.6077 14.3532L26.6044 14.3516L26.1743 15.2544ZM26.1441 15.4329L26.2907 16.4221L26.2949 16.4215L26.1441 15.4329ZM25.2517 15.5651L25.3946 16.5548L25.3982 16.5543L25.2517 15.5651ZM25.167 15.6443L26.1529 15.8115L26.1536 15.8074L25.167 15.6443ZM25.0255 16.4784L24.0396 16.3112L24.0393 16.3133L25.0255 16.4784ZM24.8341 16.5066L25.7138 16.031L25.7122 16.0281L24.8341 16.5066ZM24.4241 15.7542L25.3023 15.2757L25.3 15.2715L24.4241 15.7542ZM24.3174 15.7032L24.1765 14.7132L24.1708 14.714L24.3174 15.7032ZM23.425 15.8354L23.2784 14.8462L23.2663 14.848L23.2543 14.8501L23.425 15.8354ZM23.3349 15.6742L24.0132 16.4089L24.0177 16.4047L23.3349 15.6742ZM23.9737 15.0771L24.6565 15.8077L24.6589 15.8054L23.9737 15.0771ZM23.9926 14.9664L24.8735 14.4931L24.8705 14.4875L23.9926 14.9664ZM23.5822 14.2139L24.4601 13.7351L24.4501 13.7168L24.4393 13.6988L23.5822 14.2139ZM23.6575 14.073L23.5345 13.0806L23.6575 14.073ZM23.2912 14.9874L24.0963 15.371L24.9565 13.5655L24.1515 13.1819L23.2912 14.9874ZM24.0988 15.3722C24.2993 15.4671 24.5215 15.4985 24.7363 15.4664L24.4411 13.4883C24.6133 13.4626 24.792 13.4876 24.954 13.5643L24.0988 15.3722ZM24.7363 15.4664C24.9513 15.4343 25.1594 15.3384 25.3276 15.1812L23.9621 13.7199C24.0999 13.5912 24.2687 13.5141 24.4411 13.4883L24.7363 15.4664ZM25.3282 15.1807L25.967 14.5828L24.6003 13.1226L23.9615 13.7205L25.3282 15.1807ZM25.971 14.5791C25.8317 14.7108 25.6602 14.7894 25.485 14.815L25.1957 12.8361C24.9775 12.868 24.7662 12.9656 24.5964 13.1263L25.971 14.5791ZM25.485 14.815C25.31 14.8406 25.1285 14.8139 24.9646 14.7339L25.8418 12.9365C25.6393 12.8377 25.4138 12.8042 25.1957 12.8361L25.485 14.815ZM24.9646 14.7339C24.8001 14.6536 24.6544 14.5196 24.5608 14.34L26.3345 13.4158C26.2218 13.1996 26.045 13.0357 25.8418 12.9365L24.9646 14.7339ZM24.5608 14.34C24.4665 14.159 24.4345 13.9483 24.4753 13.7424L26.4371 14.1314C26.4859 13.8854 26.4479 13.6334 26.3345 13.4158L24.5608 14.34ZM24.4703 13.7697L24.3288 14.6038L26.3007 14.9382L26.4421 14.1041L24.4703 13.7697ZM24.3295 14.6002C24.2869 14.8459 24.3303 15.0951 24.4469 15.3086L26.2021 14.3498C26.2992 14.5274 26.3358 14.7359 26.3001 14.9418L24.3295 14.6002ZM24.4469 15.3086C24.5628 15.5207 24.7408 15.6803 24.9438 15.7758L25.7947 13.9658C25.9592 14.0431 26.1059 14.1736 26.2021 14.3498L24.4469 15.3086ZM24.9391 15.7735L25.7441 16.1571L26.6044 14.3516L25.7994 13.968L24.9391 15.7735ZM25.7408 16.1555C25.5787 16.0776 25.4344 15.9476 25.3396 15.7729L27.0974 14.819C26.9833 14.6086 26.808 14.4495 26.6077 14.3532L25.7408 16.1555ZM25.3396 15.7729C25.2441 15.597 25.2078 15.3909 25.2423 15.1871L27.2143 15.5205C27.2554 15.2772 27.2123 15.0306 27.0974 14.819L25.3396 15.7729ZM25.2423 15.1871C25.2766 14.984 25.3769 14.8071 25.5152 14.6773L26.8846 16.1349C27.053 15.9767 27.1732 15.7632 27.2143 15.5205L25.2423 15.1871ZM25.5152 14.6773C25.6525 14.5482 25.821 14.4706 25.9933 14.4443L26.2949 16.4215C26.5095 16.3887 26.717 16.2923 26.8846 16.1349L25.5152 14.6773ZM25.9976 14.4437L25.1051 14.5759L25.3982 16.5543L26.2907 16.4221L25.9976 14.4437ZM25.1087 14.5754C24.8921 14.6067 24.6821 14.7028 24.5127 14.8612L25.8783 16.3223C25.7393 16.4522 25.5687 16.5297 25.3946 16.5548L25.1087 14.5754ZM24.5127 14.8612C24.3422 15.0205 24.2209 15.236 24.1804 15.4811L26.1536 15.8074C26.1197 16.0127 26.0183 16.1915 25.8783 16.3223L24.5127 14.8612ZM24.1811 15.4771L24.0396 16.3112L26.0115 16.6456L26.1529 15.8115L24.1811 15.4771ZM24.0393 16.3133C24.0734 16.109 24.1745 15.9311 24.3137 15.8008L25.6803 17.2611C25.85 17.1022 25.971 16.8875 26.0118 16.6434L24.0393 16.3133ZM24.3137 15.8008C24.452 15.6713 24.6217 15.5939 24.795 15.5683L25.0866 17.547C25.3025 17.5152 25.5115 17.419 25.6803 17.2611L24.3137 15.8008ZM24.795 15.5683C24.9682 15.5428 25.1477 15.5685 25.3103 15.6464L24.4468 17.4504C24.6478 17.5465 24.8709 17.5788 25.0866 17.547L24.795 15.5683ZM25.3103 15.6464C25.4735 15.7245 25.6187 15.8552 25.7138 16.031L23.9544 16.9821C24.0689 17.1939 24.2452 17.3539 24.4468 17.4504L25.3103 15.6464ZM25.7122 16.0281L25.3023 15.2757L23.546 16.2326L23.956 16.985L25.7122 16.0281ZM25.3 15.2715C25.185 15.0629 25.0099 14.9054 24.8102 14.8101L23.9489 16.6151C23.7875 16.5381 23.6436 16.4097 23.5483 16.2368L25.3 15.2715ZM24.8102 14.8101C24.6111 14.7151 24.3903 14.6828 24.1765 14.7132L24.4582 16.6932C24.287 16.7176 24.1097 16.6919 23.9489 16.6151L24.8102 14.8101ZM24.1708 14.714L23.2784 14.8462L23.5715 16.8246L24.4639 16.6924L24.1708 14.714ZM23.2543 14.8501C23.4288 14.8199 23.6107 14.842 23.7761 14.9172L22.9476 16.7376C23.1521 16.8307 23.3783 16.8584 23.5956 16.8208L23.2543 14.8501ZM23.7761 14.9172C23.9421 14.9928 24.0908 15.1222 24.1891 15.2982L22.4432 16.2736C22.5617 16.4857 22.7424 16.6442 22.9476 16.7376L23.7761 14.9172ZM24.1891 15.2982C24.2883 15.4755 24.3268 15.6848 24.2921 15.8922L22.3195 15.5621C22.2781 15.8097 22.3239 16.0602 22.4432 16.2736L24.1891 15.2982ZM24.2921 15.8922C24.2575 16.0988 24.1547 16.2783 24.0132 16.4089L22.6565 14.9394C22.484 15.0987 22.3608 15.3152 22.3195 15.5621L24.2921 15.8922ZM24.0177 16.4047L24.6565 15.8077L23.2908 14.3465L22.652 14.9436L24.0177 16.4047ZM24.6589 15.8054C24.8268 15.6475 24.9466 15.4348 24.9879 15.193L23.0165 14.8562C23.051 14.6541 23.1509 14.4782 23.2884 14.3488L24.6589 15.8054ZM24.9879 15.193C25.0294 14.9505 24.9871 14.7046 24.8735 14.4931L23.1117 15.4396C23.0173 15.2641 22.9819 15.0589 23.0165 14.8562L24.9879 15.193ZM24.8705 14.4875L24.4601 13.7351L22.7043 14.6928L23.1147 15.4452L24.8705 14.4875ZM24.4393 13.6988C24.5458 13.8761 24.5909 14.0889 24.5592 14.3016L22.581 14.0068C22.5432 14.2608 22.5967 14.5155 22.7251 14.7291L24.4393 13.6988ZM24.5592 14.3016C24.5276 14.5137 24.424 14.6986 24.2797 14.8326L22.9187 13.3671C22.7428 13.5304 22.6188 13.7535 22.581 14.0068L24.5592 14.3016ZM24.2797 14.8326C24.1364 14.9657 23.9599 15.0432 23.7806 15.0654L23.5345 13.0806C23.311 13.1083 23.0936 13.2047 22.9187 13.3671L24.2797 14.8326ZM23.7806 15.0654C23.6015 15.0876 23.4163 15.0553 23.251 14.9672L24.1917 13.2022C23.9878 13.0935 23.7577 13.0529 23.5345 13.0806L23.7806 15.0654Z" fill="#062437" mask="url(#path-9-inside-1_1_2114)"/>
<path d="M10.6054 8.84232L11.9568 10.1055" stroke="#062437" stroke-linecap="round" stroke-linejoin="round"/>
<path d="M12.8584 8V9.26316" stroke="#062437" stroke-linecap="round" stroke-linejoin="round"/>
<path d="M11.0565 10.9473H9.70499" stroke="#062437" stroke-linecap="round" stroke-linejoin="round"/>
<path d="M19.1654 24H25.4723" stroke="#062437" stroke-linecap="round" stroke-linejoin="round"/>
<path d="M21.4179 25.263H24.1208" stroke="#062437" stroke-linecap="round" stroke-linejoin="round"/>
</svg>
