<svg width="25" height="24" viewBox="0 0 25 24" fill="none" xmlns="http://www.w3.org/2000/svg">
<g clip-path="url(#clip0_382_4633)">
<path d="M13.0366 2.8567C12.7438 2.55192 12.2563 2.55192 11.9635 2.8567L3.69629 11.4625V22.2383C3.69629 22.841 4.18482 23.3295 4.78745 23.3295H20.2126C20.8152 23.3295 21.3037 22.841 21.3037 22.2383C21.3037 22.016 21.3037 11.9805 21.3037 11.4625L13.0366 2.8567Z" fill="#DBDCE0"/>
<path d="M9.55713 23.3295V18.8667C9.55713 17.2414 10.8747 15.9239 12.4999 15.9239C14.1252 15.9239 15.4428 17.2414 15.4428 18.8667V23.3295C15.1339 23.3295 9.89444 23.3295 9.55713 23.3295Z" fill="#DBDCE0"/>
<path d="M13.0366 2.8567C12.7438 2.55192 12.2563 2.55192 11.9636 2.8567L10.4724 4.40892C10.7032 4.37353 10.9474 4.44595 11.1222 4.62797L19.3894 13.2338V23.3295H20.2126C20.8152 23.3295 21.3038 22.841 21.3038 22.2384C21.3038 22.0161 21.3038 11.9806 21.3038 11.4625L13.0366 2.8567Z" fill="#DBDCE0"/>
<path d="M11.9635 4.22555L2.33583 14.2476C2.14336 14.4479 1.82386 14.4511 1.62746 14.2547L0.645285 13.2725C0.454316 13.0815 0.451222 12.7729 0.638301 12.5782L11.7846 0.975234C12.175 0.568875 12.825 0.568875 13.2153 0.975234L24.3617 12.5782C24.5488 12.773 24.5457 13.0815 24.3547 13.2725L23.3726 14.2547C23.1761 14.4511 22.8567 14.4479 22.6642 14.2476L13.0366 4.22555C12.7438 3.92076 12.2563 3.92076 11.9635 4.22555Z" fill="#DBDCE0"/>
</g>
<defs>
<clipPath id="clip0_382_4633">
<rect width="24" height="24" fill="white" transform="translate(0.5)"/>
</clipPath>
</defs>
</svg>
