<svg width="25" height="24" viewBox="0 0 25 24" fill="none" xmlns="http://www.w3.org/2000/svg">
<g clip-path="url(#clip0_1_2953)">
<path d="M13.0365 2.8567C12.7438 2.55192 12.2563 2.55192 11.9635 2.8567L3.69627 11.4625V22.2383C3.69627 22.841 4.1848 23.3295 4.78742 23.3295H20.2125C20.8152 23.3295 21.3037 22.841 21.3037 22.2383C21.3037 22.016 21.3037 11.9805 21.3037 11.4625L13.0365 2.8567Z" fill="#D8ECFE"/>
<path d="M9.55714 23.3296V18.8667C9.55714 17.2414 10.8747 15.9239 12.5 15.9239C14.1252 15.9239 15.4428 17.2415 15.4428 18.8667V23.3296C15.1339 23.3296 9.89445 23.3296 9.55714 23.3296Z" fill="#225779"/>
<path d="M13.0365 2.8567C12.7438 2.55192 12.2563 2.55192 11.9635 2.8567L10.4723 4.40892C10.7031 4.37353 10.9473 4.44595 11.1222 4.62796L19.3894 13.2338V23.3295H20.2125C20.8152 23.3295 21.3037 22.841 21.3037 22.2384C21.3037 22.0161 21.3037 11.9806 21.3037 11.4625L13.0365 2.8567Z" fill="#C4E2FF"/>
<path d="M11.9635 4.22555L2.33581 14.2476C2.14334 14.4479 1.82384 14.4511 1.62744 14.2547L0.645266 13.2725C0.454297 13.0816 0.451203 12.7729 0.638282 12.5782L11.7846 0.975241C12.175 0.568881 12.825 0.568881 13.2153 0.975241L24.3617 12.5782C24.5488 12.773 24.5457 13.0816 24.3547 13.2725L23.3726 14.2547C23.1761 14.4511 22.8567 14.4479 22.6642 14.2476L13.0365 4.22555C12.7438 3.92077 12.2563 3.92077 11.9635 4.22555Z" fill="#124D73"/>
</g>
<defs>
<clipPath id="clip0_1_2953">
<rect width="24" height="24" fill="white" transform="translate(0.5)"/>
</clipPath>
</defs>
</svg>
