<svg width="16" height="16" viewBox="0 0 16 16" fill="none" xmlns="http://www.w3.org/2000/svg">
<g clip-path="url(#clip0_1_2929)">
<path d="M8 0.0279999C6.23596 0.0299406 4.54472 0.731517 3.29729 1.97882C2.04986 3.22612 1.34812 4.91729 1.346 6.68133C1.346 8.39467 2.67267 11.076 5.28933 14.6507C5.60084 15.0774 6.00871 15.4246 6.47974 15.6639C6.95077 15.9033 7.47165 16.028 8 16.028C8.52835 16.028 9.04924 15.9033 9.52027 15.6639C9.9913 15.4246 10.3992 15.0774 10.7107 14.6507C13.3273 11.076 14.654 8.39467 14.654 6.68133C14.6519 4.91729 13.9501 3.22612 12.7027 1.97882C11.4553 0.731517 9.76404 0.0299406 8 0.0279999ZM8 9.33333C7.47258 9.33333 6.95701 9.17694 6.51848 8.88392C6.07995 8.5909 5.73816 8.17443 5.53632 7.68716C5.33449 7.19989 5.28168 6.66371 5.38457 6.14643C5.48747 5.62914 5.74144 5.15399 6.11438 4.78105C6.48732 4.40811 6.96248 4.15413 7.47976 4.05124C7.99704 3.94835 8.53322 4.00115 9.02049 4.20299C9.50776 4.40482 9.92424 4.74662 10.2173 5.18515C10.5103 5.62368 10.6667 6.13925 10.6667 6.66667C10.6667 7.37391 10.3857 8.05219 9.88562 8.55229C9.38552 9.05238 8.70724 9.33333 8 9.33333Z" fill="#EEF7F9"/>
</g>
<defs>
<clipPath id="clip0_1_2929">
<rect width="16" height="16" fill="white"/>
</clipPath>
</defs>
</svg>
