<svg width="41" height="40" viewBox="0 0 41 40" fill="none" xmlns="http://www.w3.org/2000/svg">
<rect x="0.670685" width="40" height="40" rx="20" fill="#F3EAD8"/>
<g clip-path="url(#clip0_1_2097)">
<path d="M32.6481 30.5178L32.0186 27.2188C32.0181 27.2168 32.0178 27.2148 32.0173 27.2127C31.9089 26.6945 31.4458 26.3184 30.9161 26.3184H30.3321V21.4103C30.3321 19.8497 29.8082 18.3403 28.8569 17.1603C28.1795 16.3198 27.4257 15.7984 26.6082 15.6023C26.9304 15.2338 27.1763 14.7888 27.3131 14.2855C27.4657 13.7573 27.6786 13.1376 27.6851 12.5844C27.6944 11.7822 27.2231 11.0348 26.4786 10.7047C26.3855 10.6634 24.7944 10.2227 24.7944 10.2227C23.7234 9.93133 22.5916 10.5856 22.3016 11.6527L21.6943 13.974C21.3051 15.404 22.4075 16.6069 23.7883 16.7339V20.0363L23.7409 20.163L20.9404 19.1157C20.6394 19.003 20.2883 19.1055 20.0958 19.3626C19.8104 19.2678 19.4785 19.2061 19.2323 19.0297C19.0025 18.865 18.8038 18.619 18.5992 18.4229C18.452 18.2818 18.2417 18.2382 18.0504 18.309C17.8592 18.3799 17.7281 18.5499 17.7083 18.7529C17.6499 19.3512 17.5815 19.94 18.0694 20.3984L19.4297 21.6767C19.4633 21.7085 19.5045 21.7338 19.5478 21.7501L23.7855 23.335C23.7647 23.5094 23.6161 23.6452 23.4362 23.6452H19.4461C18.347 23.6452 17.4528 24.5394 17.4528 25.6385V27.589C17.4528 28.688 18.3469 29.582 19.4461 29.582H26.2732L26.7694 30.1599C26.8895 30.2998 27.0641 30.38 27.2485 30.38H28.0219C28.501 30.38 28.7779 29.8663 28.5835 29.4507C29.6049 29.1079 30.332 28.1321 30.332 27.0258V27.0244H30.916C31.1126 27.0244 31.2845 27.1632 31.3258 27.3549L31.9552 30.6528C32.0031 30.9105 31.8182 31.1645 31.5456 31.1645H9.79551C9.52549 31.1645 9.33509 30.9103 9.38596 30.6528L10.0154 27.3548C10.0567 27.1632 10.2286 27.0244 10.4251 27.0244H16.1265C16.3214 27.0244 16.4795 26.8664 16.4795 26.6714C16.4795 26.4765 16.3214 26.3185 16.1265 26.3185H10.4252C9.8956 26.3185 9.43246 26.6946 9.32408 27.2128C9.32366 27.2149 9.32324 27.2169 9.32286 27.2189L8.69327 30.5176C8.55168 31.2056 9.09519 31.8703 9.79565 31.8703H31.5458C32.2462 31.8703 32.7896 31.206 32.6481 30.5178ZM23.6038 11.0324C23.9107 10.8566 24.2678 10.8109 24.6092 10.9038L26.0019 11.2823C26.7067 11.474 27.1243 12.2031 26.9327 12.9078C26.9121 12.9833 26.8943 13.0596 26.8751 13.1355L22.9471 11.9743C23.041 11.581 23.2443 11.2382 23.6038 11.0324ZM23.4004 15.9491C22.6309 15.7402 22.1667 14.926 22.3762 14.156L22.7683 12.6575L26.7024 13.8205L26.6311 14.1034C26.4462 14.7804 26.0091 15.3451 25.3999 15.6939C24.7913 16.0423 24.0837 16.1335 23.407 15.9511C23.4048 15.9504 23.4026 15.9497 23.4004 15.9491ZM18.3578 19.3654L18.3753 19.186C18.8257 19.6178 19.2324 19.8197 19.82 20.0147L19.5267 20.7991L18.5528 19.884C18.4119 19.7516 18.339 19.5578 18.3578 19.3654ZM18.1588 27.589V25.6385C18.1588 24.9285 18.7363 24.351 19.4463 24.351H21.425V26.3183H20.6707C20.4758 26.3183 20.3178 26.4762 20.3178 26.6712C20.3178 26.8662 20.4758 27.0241 20.6707 27.0241H25.2867C25.3063 27.0241 25.3223 27.0401 25.3223 27.0598V28.8759L19.4463 28.8761C18.7363 28.8761 18.1588 28.2987 18.1588 27.589ZM27.2828 29.6741L26.7031 28.9989C26.5418 28.811 26.241 28.8759 26.0281 28.8759V27.7103H26.7592C26.9966 27.7103 27.2056 27.8533 27.2916 28.0746L27.9131 29.6741L27.2828 29.6741ZM29.6262 27.0257C29.6262 27.8386 29.0842 28.5541 28.3276 28.7919L27.9495 27.8189C27.7572 27.3241 27.29 27.0044 26.7592 27.0044H26.0253C25.9968 26.6214 25.6768 26.3182 25.2866 26.3182H22.1309V24.3509H23.4362C23.9532 24.3509 24.3846 23.978 24.4759 23.4871C24.4821 23.4871 24.4882 23.4875 24.4942 23.4875C24.7302 23.4875 24.9654 23.4369 25.1865 23.3362C25.5929 23.151 25.9029 22.8187 26.0593 22.4004L26.5275 21.1484C26.5958 20.9658 26.5031 20.7624 26.3206 20.6942C26.1383 20.6258 25.9347 20.7185 25.8665 20.9011L25.3982 22.1532C25.3078 22.3949 25.1287 22.5869 24.8939 22.6938C24.6591 22.8007 24.3968 22.8098 24.1551 22.7195L20.1257 21.2125L20.6564 19.7935C20.664 19.7778 20.6763 19.7722 20.6931 19.7768L23.8242 20.9478C24.0067 21.0162 24.2101 20.9235 24.2783 20.7409L25.194 18.2927C25.4293 17.6636 26.3439 17.6485 26.6197 18.2539C26.7035 18.438 26.7107 18.6438 26.6399 18.8333L26.4491 19.3433C26.3808 19.5259 26.4735 19.7292 26.656 19.7974C26.8385 19.8658 27.042 19.773 27.1102 19.5905L27.3009 19.0806C27.4379 18.7145 27.424 18.3169 27.262 17.9613C27.0999 17.6056 26.8091 17.3344 26.4431 17.1975C25.626 16.89 24.77 17.3365 24.4941 18.1492V16.7234C24.9947 16.6621 25.4716 16.4876 25.8902 16.2201C26.7639 16.2322 27.577 16.6973 28.3072 17.6034C29.1578 18.6584 29.6262 20.0105 29.6262 21.4104V27.0257H29.6262Z" fill="#062437"/>
<path d="M13.6788 16.8242C15.5081 16.8242 17.0408 15.283 17.054 13.4593C17.0546 13.2404 16.9062 13.0513 16.693 12.9994C16.4803 12.9475 16.2616 13.047 16.1616 13.2415C15.864 13.82 15.2509 14.1796 14.6008 14.1579C13.7169 14.1281 13.0012 13.4124 12.9714 12.5286C12.9496 11.8781 13.3093 11.2654 13.8878 10.9677C14.3409 10.7347 14.1295 10.0631 13.6399 10.0755C11.8305 10.0963 10.3346 11.5851 10.3055 13.3942C10.2906 14.3168 10.6415 15.184 11.2935 15.8359C11.9321 16.4746 12.7773 16.8242 13.6788 16.8242ZM12.8365 10.9198C12.4575 11.3673 12.2456 11.9483 12.2659 12.5523C12.3081 13.806 13.3232 14.8211 14.577 14.8633C15.1809 14.883 15.7619 14.6719 16.2093 14.2928C15.586 16.1329 13.175 16.7191 11.7925 15.3368C11.277 14.8212 10.9995 14.1354 11.0112 13.4056C11.0298 12.2574 11.7954 11.2724 12.8365 10.9198Z" fill="#062437"/>
<path d="M16.3432 9.9146C16.5409 9.9146 16.7011 9.75438 16.7011 9.55673C16.7011 9.35908 16.5409 9.19885 16.3432 9.19885C16.1456 9.19885 15.9854 9.35908 15.9854 9.55673C15.9854 9.75438 16.1456 9.9146 16.3432 9.9146Z" fill="#062437"/>
<path d="M18.0019 11.7008C18.1995 11.7008 18.3597 11.5405 18.3597 11.3429C18.3597 11.1452 18.1995 10.985 18.0019 10.985C17.8042 10.985 17.644 11.1452 17.644 11.3429C17.644 11.5405 17.8042 11.7008 18.0019 11.7008Z" fill="#062437"/>
<path d="M18.3597 8.84539C18.5574 8.84539 18.7176 8.68516 18.7176 8.48751C18.7176 8.28986 18.5574 8.12964 18.3597 8.12964C18.1621 8.12964 18.0019 8.28986 18.0019 8.48751C18.0019 8.68516 18.1621 8.84539 18.3597 8.84539Z" fill="#062437"/>
<path d="M12.2722 27.6924C11.9441 27.6924 11.6672 27.9273 11.6137 28.251L11.3744 29.699C11.3424 29.8927 11.3969 30.0898 11.5239 30.2396C11.651 30.3893 11.8365 30.4752 12.0329 30.4752H15.6708C16.0389 30.4752 16.3382 30.1758 16.3382 29.8078V28.3597C16.3382 27.9917 16.0389 27.6923 15.6708 27.6923L12.2722 27.6924ZM15.6324 29.7694H12.0782L12.3048 28.3982H15.6324V29.7694H15.6324Z" fill="#062437"/>
<path d="M26.259 24.0316C26.1211 23.8938 25.8977 23.8938 25.7598 24.0316C25.622 24.1695 25.622 24.3929 25.7598 24.5307L27.1453 25.9162C27.2142 25.9851 27.3046 26.0196 27.3949 26.0196C27.4852 26.0196 27.5755 25.9851 27.6445 25.9162C27.7823 25.7783 27.7823 25.5549 27.6445 25.4171L26.259 24.0316Z" fill="#062437"/>
</g>
<defs>
<clipPath id="clip0_1_2097">
<rect width="24" height="24" fill="white" transform="translate(8.67068 8)"/>
</clipPath>
</defs>
</svg>
