<svg width="41" height="40" viewBox="0 0 41 40" fill="none" xmlns="http://www.w3.org/2000/svg">
<rect x="0.0361633" width="40" height="40" rx="20" fill="#E1E0F0"/>
<path d="M26.6353 20.6474C26.5867 20.6393 26.537 20.6409 26.489 20.6521C26.4411 20.6633 26.3958 20.6838 26.3557 20.7125C26.3157 20.7412 26.2817 20.7775 26.2556 20.8193C26.2296 20.8611 26.2121 20.9077 26.2041 20.9563C25.7129 23.932 23.0698 26.1759 20.0561 26.1759C17.0423 26.1759 14.3994 23.932 13.9082 20.9562C13.892 20.8581 13.8375 20.7704 13.7566 20.7125C13.6758 20.6545 13.5752 20.6311 13.4771 20.6473C13.379 20.6635 13.2913 20.718 13.2333 20.7989C13.1754 20.8797 13.1519 20.9803 13.1681 21.0784C13.4042 22.4839 14.063 23.7841 15.0567 24.8058C16.0503 25.8275 17.3317 26.5221 18.7301 26.7972V31.25C18.7301 31.3495 18.7697 31.4448 18.84 31.5152C18.9103 31.5855 19.0057 31.625 19.1051 31.625H21.0073C21.1067 31.625 21.2021 31.5855 21.2725 31.5152C21.3428 31.4448 21.3823 31.3495 21.3823 31.25V26.7972C22.7807 26.5221 24.0621 25.8275 25.0558 24.8058C26.0495 23.7841 26.7082 22.4839 26.9443 21.0784C26.9605 20.9803 26.937 20.8797 26.8791 20.7989C26.8211 20.7181 26.7335 20.6636 26.6353 20.6474ZM20.6323 30.875H19.4801V26.9015C19.6712 26.9175 19.8632 26.9257 20.0562 26.9259C20.2492 26.9262 20.4413 26.918 20.6323 26.9015V30.875ZM20.0562 25.0464C21.4088 25.0448 22.7055 24.5068 23.6619 23.5504C24.6184 22.594 25.1563 21.2973 25.1579 19.9447V13.4766C25.1538 12.1263 24.6145 10.8326 23.6582 9.8792C22.7019 8.92579 21.4066 8.39041 20.0562 8.39041C18.7058 8.39041 17.4106 8.92579 16.4543 9.8792C15.4979 10.8326 14.9586 12.1263 14.9546 13.4766V19.9447C14.9561 21.2973 15.4941 22.5941 16.4505 23.5505C17.4069 24.5069 18.7037 25.0449 20.0562 25.0464ZM20.0562 9.12499C21.145 9.12634 22.1939 9.53527 22.9963 10.2713C23.7986 11.0073 24.2964 12.017 24.3915 13.1016H22.0248C21.9253 13.1016 21.83 13.1411 21.7596 13.2115C21.6893 13.2818 21.6498 13.3772 21.6498 13.4766C21.6498 13.5761 21.6893 13.6715 21.7596 13.7418C21.83 13.8121 21.9253 13.8516 22.0248 13.8516H24.4079V16.3357H22.0248C21.9253 16.3357 21.83 16.3752 21.7596 16.4455C21.6893 16.5158 21.6498 16.6112 21.6498 16.7107C21.6498 16.8101 21.6893 16.9055 21.7596 16.9758C21.83 17.0462 21.9253 17.0857 22.0248 17.0857H24.4079V19.5697H22.0248C21.9253 19.5697 21.83 19.6092 21.7596 19.6796C21.6893 19.7499 21.6498 19.8453 21.6498 19.9447C21.6498 20.0442 21.6893 20.1396 21.7596 20.2099C21.83 20.2802 21.9253 20.3197 22.0248 20.3197H24.3915C24.2977 21.4049 23.8003 22.4154 22.9977 23.1517C22.195 23.8879 21.1454 24.2964 20.0562 24.2964C18.967 24.2964 17.9174 23.8879 17.1147 23.1517C16.312 22.4154 15.8147 21.4049 15.7209 20.3197H18.0876C18.1871 20.3197 18.2825 20.2802 18.3528 20.2099C18.4231 20.1396 18.4626 20.0442 18.4626 19.9447C18.4626 19.8453 18.4231 19.7499 18.3528 19.6796C18.2825 19.6092 18.1871 19.5697 18.0876 19.5697H15.7046V17.0857H18.0876C18.1871 17.0857 18.2825 17.0462 18.3528 16.9758C18.4231 16.9055 18.4626 16.8101 18.4626 16.7107C18.4626 16.6112 18.4231 16.5158 18.3528 16.4455C18.2825 16.3752 18.1871 16.3357 18.0876 16.3357H15.7046V13.8516H18.0876C18.1871 13.8516 18.2825 13.8121 18.3528 13.7418C18.4231 13.6715 18.4626 13.5761 18.4626 13.4766C18.4626 13.3772 18.4231 13.2818 18.3528 13.2115C18.2825 13.1411 18.1871 13.1016 18.0876 13.1016H15.7209C15.816 12.017 16.3138 11.0073 17.1162 10.2713C17.9186 9.53526 18.9674 9.12633 20.0562 9.12499ZM26.3459 17.9956C26.326 17.9506 26.3151 17.902 26.3139 17.8528C26.3126 17.8036 26.3211 17.7546 26.3389 17.7086C26.3566 17.6627 26.3832 17.6207 26.4171 17.585C26.4511 17.5494 26.4917 17.5207 26.5368 17.5008C26.8399 17.3664 27.1002 17.1512 27.2891 16.8788C27.4781 16.6064 27.5885 16.2872 27.6082 15.9563C27.6279 15.6253 27.5561 15.2953 27.4007 15.0024C27.2453 14.7095 27.0124 14.465 26.7273 14.2957C26.6845 14.2708 26.647 14.2376 26.617 14.1981C26.5871 14.1586 26.5653 14.1136 26.5528 14.0656C26.5404 14.0177 26.5376 13.9677 26.5446 13.9186C26.5516 13.8696 26.5682 13.8224 26.5935 13.7798C26.6189 13.7372 26.6524 13.7001 26.6922 13.6705C26.732 13.6409 26.7772 13.6196 26.8253 13.6076C26.8734 13.5956 26.9234 13.5933 26.9724 13.6008C27.0214 13.6083 27.0684 13.6254 27.1107 13.6512C27.514 13.8908 27.8436 14.2368 28.0634 14.6513C28.2832 15.0657 28.3847 15.5327 28.3568 16.001C28.329 16.4693 28.1728 16.9209 27.9054 17.3063C27.638 17.6918 27.2697 17.9962 26.8408 18.1864C26.7958 18.2064 26.7473 18.2173 26.698 18.2185C26.6488 18.2198 26.5998 18.2113 26.5538 18.1936C26.5078 18.1758 26.4658 18.1492 26.4302 18.1153C26.3945 18.0813 26.3659 18.0406 26.3459 17.9956ZM30.593 15.8051C30.5926 16.6114 30.3583 17.4003 29.9186 18.0762C29.4789 18.752 28.8526 19.2859 28.1156 19.6131C28.0706 19.6334 28.0219 19.6447 27.9725 19.6462C27.923 19.6476 27.8738 19.6393 27.8276 19.6217C27.7814 19.604 27.7391 19.5774 27.7032 19.5434C27.6673 19.5094 27.6385 19.4686 27.6185 19.4233C27.5984 19.3781 27.5875 19.3294 27.5864 19.28C27.5853 19.2305 27.5939 19.1813 27.6119 19.1352C27.6298 19.0891 27.6567 19.0471 27.691 19.0114C27.7253 18.9758 27.7663 18.9472 27.8116 18.9275C28.3846 18.6736 28.8767 18.2668 29.2339 17.7519C29.5912 17.2369 29.7998 16.6336 29.837 16.008C29.8742 15.3823 29.7386 14.7585 29.4449 14.2049C29.1512 13.6512 28.7108 13.189 28.1719 12.8689C28.1291 12.844 28.0916 12.8109 28.0617 12.7714C28.0317 12.7319 28.0099 12.6869 27.9975 12.6389C27.985 12.5909 27.9822 12.541 27.9892 12.4919C27.9962 12.4428 28.0129 12.3956 28.0382 12.3531C28.0635 12.3105 28.0971 12.2733 28.1368 12.2438C28.1766 12.2142 28.2219 12.1928 28.27 12.1809C28.318 12.1689 28.368 12.1666 28.417 12.1741C28.466 12.1815 28.513 12.1987 28.5554 12.2244C29.1749 12.5949 29.6882 13.1193 30.0452 13.7467C30.4022 14.3741 30.591 15.0832 30.593 15.8051ZM11.7112 15.8489C11.7124 15.4059 11.8283 14.9706 12.0474 14.5855C12.2665 14.2004 12.5815 13.8786 12.9618 13.6512C13.0041 13.6254 13.0512 13.6083 13.1002 13.6008C13.1491 13.5933 13.1991 13.5956 13.2472 13.6076C13.2953 13.6196 13.3406 13.6409 13.3803 13.6705C13.4201 13.7001 13.4537 13.7372 13.479 13.7798C13.5043 13.8224 13.521 13.8696 13.528 13.9186C13.535 13.9677 13.5321 14.0177 13.5197 14.0656C13.5073 14.1136 13.4855 14.1586 13.4555 14.1981C13.4256 14.2376 13.3881 14.2708 13.3452 14.2957C13.0602 14.465 12.8272 14.7095 12.6718 15.0024C12.5165 15.2953 12.4447 15.6253 12.4644 15.9563C12.484 16.2872 12.5944 16.6064 12.7834 16.8788C12.9724 17.1512 13.2327 17.3664 13.5358 17.5008C13.5811 17.5205 13.6221 17.549 13.6564 17.5847C13.6907 17.6203 13.7176 17.6624 13.7355 17.7085C13.7535 17.7546 13.7622 17.8038 13.761 17.8532C13.7599 17.9027 13.749 17.9514 13.7289 17.9966C13.7089 18.0418 13.6801 18.0826 13.6442 18.1167C13.6083 18.1507 13.566 18.1773 13.5198 18.1949C13.4736 18.2126 13.4244 18.2209 13.3749 18.2194C13.3255 18.218 13.2768 18.2067 13.2318 18.1864C12.7794 17.9855 12.395 17.6578 12.1251 17.243C11.8552 16.8281 11.7114 16.3439 11.7112 15.8489ZM12.4518 19.4223C12.4319 19.4674 12.4033 19.508 12.3676 19.542C12.3319 19.576 12.2899 19.6026 12.244 19.6203C12.198 19.638 12.149 19.6465 12.0998 19.6453C12.0505 19.644 12.002 19.6331 11.957 19.6131C11.2582 19.3034 10.6581 18.8074 10.2224 18.1795C9.78674 17.5515 9.53224 16.8157 9.4868 16.0528C9.44136 15.2898 9.60674 14.529 9.96483 13.8538C10.3229 13.1785 10.8599 12.6148 11.517 12.2244C11.5593 12.1987 11.6063 12.1815 11.6553 12.1741C11.7043 12.1666 11.7543 12.1689 11.8024 12.1809C11.8505 12.1928 11.8957 12.2142 11.9355 12.2438C11.9753 12.2733 12.0088 12.3105 12.0342 12.3531C12.0595 12.3956 12.0761 12.4428 12.0831 12.4919C12.0901 12.541 12.0873 12.5909 12.0749 12.6389C12.0624 12.6869 12.0406 12.7319 12.0107 12.7714C11.9807 12.8109 11.9433 12.844 11.9004 12.8689C11.3616 13.189 10.9212 13.6512 10.6275 14.2049C10.3338 14.7585 10.1981 15.3823 10.2353 16.008C10.2725 16.6336 10.4812 17.2369 10.8384 17.7519C11.1957 18.2668 11.6878 18.6736 12.2607 18.9275C12.3517 18.9678 12.4228 19.0426 12.4586 19.1354C12.4944 19.2282 12.4918 19.3314 12.4515 19.4223H12.4518Z" fill="#062437"/>
</svg>
