<svg width="25" height="24" viewBox="0 0 25 24" fill="none" xmlns="http://www.w3.org/2000/svg">
<g clip-path="url(#clip0_1_2955)">
<path d="M9.58914 11.6953V5.44226C9.58914 4.83909 9.10015 4.3501 8.49698 4.3501C7.89381 4.3501 7.40482 4.83909 7.40482 5.44226" stroke="#DBDCE0" stroke-miterlimit="10" stroke-linecap="round" stroke-linejoin="round"/>
<path d="M7.40482 11.6953V4.3501C7.40482 3.74692 6.91583 3.25793 6.31265 3.25793C5.70948 3.25793 5.22049 3.74692 5.22049 4.3501V11.6953" stroke="#DBDCE0" stroke-miterlimit="10" stroke-linecap="round" stroke-linejoin="round"/>
<path d="M1.98628 18.6133C1.27511 17.6912 0.851791 16.5358 0.851791 15.2813V9.74757C0.851791 9.1444 1.34078 8.65546 1.94396 8.65546C2.54713 8.65546 3.03612 9.14445 3.03612 9.74762" stroke="#DBDCE0" stroke-miterlimit="10" stroke-linecap="round" stroke-linejoin="round"/>
<path d="M2.98062 19.6076C3.90268 20.3188 5.05812 20.7421 6.31261 20.7421C9.32853 20.7421 11.7734 18.2972 11.7734 15.2812V8.71875C11.7734 8.11558 11.2844 7.62659 10.6813 7.62659C10.0781 7.62659 9.5891 8.11558 9.5891 8.71875" stroke="#DBDCE0" stroke-miterlimit="10" stroke-linecap="round" stroke-linejoin="round"/>
<path d="M7.40482 18.0166C7.40482 16.6914 6.60651 15.4967 5.38221 14.9896L3.7104 14.2971C3.30227 14.1281 3.03621 13.7298 3.03621 13.2881V5.44232C3.03621 4.83915 3.5252 4.35016 4.12837 4.35016C4.73155 4.35016 5.22054 4.83915 5.22054 5.44232" stroke="#DBDCE0" stroke-miterlimit="10" stroke-linecap="round" stroke-linejoin="round"/>
<path d="M15.4109 11.6953V5.44226C15.4109 4.83909 15.8999 4.3501 16.5031 4.3501C17.1062 4.3501 17.5952 4.83909 17.5952 5.44226" stroke="#DBDCE0" stroke-miterlimit="10" stroke-linecap="round" stroke-linejoin="round"/>
<path d="M17.5952 11.6953V4.3501C17.5952 3.74692 18.0842 3.25793 18.6874 3.25793C19.2906 3.25793 19.7796 3.74692 19.7796 4.3501V11.6953" stroke="#DBDCE0" stroke-miterlimit="10" stroke-linecap="round" stroke-linejoin="round"/>
<path d="M23.0137 18.6133C23.7249 17.6912 24.1482 16.5358 24.1482 15.2813V9.74757C24.1482 9.1444 23.6592 8.65546 23.056 8.65546C22.4529 8.65546 21.9639 9.14445 21.9639 9.74762" stroke="#DBDCE0" stroke-miterlimit="10" stroke-linecap="round" stroke-linejoin="round"/>
<path d="M22.0194 19.6076C21.0973 20.3188 19.9419 20.7421 18.6874 20.7421C15.6715 20.7421 13.2266 18.2972 13.2266 15.2812V8.71875C13.2266 8.11558 13.7156 7.62659 14.3187 7.62659C14.9219 7.62659 15.4109 8.11558 15.4109 8.71875" stroke="#DBDCE0" stroke-miterlimit="10" stroke-linecap="round" stroke-linejoin="round"/>
<path d="M17.5952 18.0166C17.5952 16.6914 18.3935 15.4967 19.6178 14.9896L21.2897 14.2971C21.6978 14.1281 21.9638 13.7298 21.9638 13.2881V5.44232C21.9638 4.83915 21.4749 4.35016 20.8717 4.35016C20.2685 4.35016 19.7795 4.83915 19.7795 5.44232" stroke="#DBDCE0" stroke-miterlimit="10" stroke-linecap="round" stroke-linejoin="round"/>
</g>
<defs>
<clipPath id="clip0_1_2955">
<rect width="24" height="24" fill="white" transform="translate(0.5)"/>
</clipPath>
</defs>
</svg>
