<svg width="41" height="40" viewBox="0 0 41 40" fill="none" xmlns="http://www.w3.org/2000/svg">
<rect x="0.0120544" width="40" height="40" rx="20" fill="#E0F0E4"/>
<g clip-path="url(#clip0_1_2101)">
<path d="M25.8428 9.5104C24.0689 8.52237 22.0527 8.00009 20.012 8.00009C16.8067 8.00009 13.7932 9.24832 11.5267 11.5148C9.26029 13.7813 8.01205 16.7948 8.01205 20.0001C8.01205 22.1239 8.57446 24.2109 9.63852 26.0354C10.6708 27.8055 12.149 29.2926 13.9133 30.3359C13.9757 30.3727 14.0442 30.3903 14.1117 30.3903C14.2452 30.3903 14.3752 30.3218 14.4481 30.1985C14.5578 30.013 14.4963 29.7735 14.3107 29.6638C12.6607 28.6882 11.2783 27.2975 10.313 25.6422C9.31846 23.9368 8.7928 21.9858 8.7928 20.0001C8.7928 17.0034 9.9598 14.186 12.0788 12.067C14.1979 9.94793 17.0152 8.78093 20.0119 8.78093C21.9199 8.78093 23.8048 9.26904 25.4627 10.1926C25.6512 10.2976 25.8889 10.2299 25.9939 10.0415C26.0989 9.8531 26.0312 9.61535 25.8428 9.5104Z" fill="#062437"/>
<path d="M30.7086 14.556C29.8839 12.939 28.6796 11.5054 27.2258 10.4102C27.0535 10.2805 26.8088 10.3149 26.6791 10.487C26.5494 10.6593 26.5838 10.904 26.756 11.0338C28.1156 12.0581 29.2418 13.3987 30.013 14.9108C30.8213 16.4957 31.2311 18.208 31.2312 20.0001C31.2312 22.9968 30.0642 25.8142 27.9451 27.9332C25.8261 30.0522 23.0087 31.2192 20.012 31.2192C18.5293 31.2192 17.0877 30.9339 15.7274 30.3713C15.5281 30.2889 15.2998 30.3836 15.2174 30.5828C15.135 30.782 15.2297 31.0104 15.4289 31.0928C16.8844 31.6948 18.4264 32 20.012 32C23.2174 32 26.2308 30.7518 28.4973 28.4853C30.7638 26.2188 32.012 23.2054 32.012 20.0001C32.0121 18.0834 31.5735 16.2518 30.7086 14.556Z" fill="#062437"/>
<path d="M15.5906 25.624L20.0121 14.4283L22.2277 20.0388C22.2277 20.0388 22.2278 20.0388 22.2278 20.0388C22.3272 20.2907 22.6121 20.4144 22.864 20.3148M22.864 20.3148C22.864 20.3148 22.864 20.3148 22.864 20.3148L22.8272 20.2218L22.864 20.3148ZM22.864 20.3148C23.1159 20.2153 23.2395 19.9304 23.14 19.6786L20.8413 13.8578L20.7483 13.8946L20.8413 13.8578C20.7061 13.5154 20.3802 13.2937 20.012 13.2937C19.6439 13.2937 19.318 13.5154 19.1828 13.8578L14.5908 25.4857C14.4529 25.8347 14.5441 26.2237 14.8226 26.4751L14.8893 26.4012L14.8226 26.4751C15.1011 26.7265 15.4974 26.7775 15.8306 26.6046L15.8306 26.6046L20.0121 24.4352L24.1935 26.6046C24.3246 26.6726 24.4657 26.7061 24.6059 26.7061C24.8212 26.7061 25.0331 26.627 25.2015 26.475C25.4799 26.2237 25.5712 25.8347 25.4333 25.4857L23.7652 21.2618C23.7652 21.2618 23.7652 21.2618 23.7652 21.2618C23.6658 21.0099 23.381 20.8862 23.129 20.9857M23.129 20.9857C23.129 20.9857 23.129 20.9857 23.129 20.9857L23.1657 21.0788L23.129 20.9857Z" fill="#062437" stroke="#062437" stroke-width="0.2"/>
</g>
<defs>
<clipPath id="clip0_1_2101">
<rect width="24" height="24" fill="white" transform="translate(8.01205 8)"/>
</clipPath>
</defs>
</svg>
