<svg width="25" height="24" viewBox="0 0 25 24" fill="none" xmlns="http://www.w3.org/2000/svg">
<g clip-path="url(#clip0_382_4634)">
<rect width="24" height="24" transform="translate(0.5)" fill="white"/>
<mask id="path-1-outside-1_382_4634" maskUnits="userSpaceOnUse" x="-2.64429" y="3.8511" width="30" height="16" fill="black">
<rect fill="white" x="-2.64429" y="3.8511" width="30" height="16"/>
<path d="M26.31 18.4807H22.7919L15.9623 14.14L23.6464 9.25288C24.0082 9.02296 24.115 8.5438 23.8848 8.18203L22.7224 6.35417C22.5335 6.0577 22.1761 5.936 21.854 6.02864L21.2989 5.19735C21.0539 4.83052 20.5439 4.73363 20.1824 5.01265C19.3615 5.64671 16.5534 7.72817 14.8824 7.88527C13.8166 7.9838 12.9809 8.53718 12.4964 9.43837C12.0088 8.53696 11.1746 7.9838 10.1144 7.88527C8.43793 7.72823 5.63297 5.64655 4.81313 5.01226C4.45809 4.73755 3.94622 4.82413 3.69744 5.19516L3.1371 6.02864C2.81684 5.94027 2.46303 6.06174 2.27552 6.35647L1.11484 8.18433C0.885357 8.54543 0.992578 9.02571 1.35346 9.25496L9.03732 14.1388L2.21055 18.4807H-1.31017C-1.49465 18.4807 -1.64429 18.6303 -1.64429 18.8148C-1.64429 18.9992 -1.49465 19.1489 -1.31017 19.1489H26.31C26.4945 19.1489 26.6441 18.9992 26.6441 18.8148C26.6441 18.6303 26.4944 18.4807 26.31 18.4807ZM14.9447 8.55054C16.7442 8.38154 19.4928 6.38991 20.5909 5.54157C20.6389 5.50426 20.7085 5.51666 20.7434 5.56878L21.2698 6.35709L12.8375 11.7207V10.3895C13.0155 9.73597 13.52 8.68244 14.9447 8.55054ZM4.25234 5.56783C4.28719 5.5152 4.35637 5.50375 4.40439 5.54084C5.50112 6.3894 8.24694 8.38149 10.0524 8.55048C11.4916 8.68435 11.9955 9.77339 12.1693 10.4245V11.7263L3.72202 6.35641L4.25234 5.56783ZM1.71187 8.69125C1.66182 8.65927 1.64684 8.59295 1.67882 8.54268L2.83951 6.71483C2.87188 6.66438 2.93848 6.65019 2.98831 6.68178C15.2021 14.4478 10.9477 11.7426 11.8764 12.3331L9.65989 13.7429L1.71187 8.69125ZM3.45557 18.4807C3.50017 18.4523 14.1251 11.7029 22.0102 6.68004C22.0609 6.64761 22.1269 6.66343 22.1586 6.71286L23.321 8.54072C23.353 8.59065 23.3382 8.65714 23.288 8.68906C17.0431 12.6607 12.9962 15.2341 7.89235 18.4807H3.45557ZM12.5028 16.3403L15.8676 18.4807H9.13742L12.5028 16.3403ZM17.1125 18.4807L13.1257 15.9448C13.1703 15.9164 15.4867 14.4425 15.3398 14.5359L21.5462 18.4807H17.1125Z"/>
</mask>
<path d="M26.31 18.4807H22.7919L15.9623 14.14L23.6464 9.25288C24.0082 9.02296 24.115 8.5438 23.8848 8.18203L22.7224 6.35417C22.5335 6.0577 22.1761 5.936 21.854 6.02864L21.2989 5.19735C21.0539 4.83052 20.5439 4.73363 20.1824 5.01265C19.3615 5.64671 16.5534 7.72817 14.8824 7.88527C13.8166 7.9838 12.9809 8.53718 12.4964 9.43837C12.0088 8.53696 11.1746 7.9838 10.1144 7.88527C8.43793 7.72823 5.63297 5.64655 4.81313 5.01226C4.45809 4.73755 3.94622 4.82413 3.69744 5.19516L3.1371 6.02864C2.81684 5.94027 2.46303 6.06174 2.27552 6.35647L1.11484 8.18433C0.885357 8.54543 0.992578 9.02571 1.35346 9.25496L9.03732 14.1388L2.21055 18.4807H-1.31017C-1.49465 18.4807 -1.64429 18.6303 -1.64429 18.8148C-1.64429 18.9992 -1.49465 19.1489 -1.31017 19.1489H26.31C26.4945 19.1489 26.6441 18.9992 26.6441 18.8148C26.6441 18.6303 26.4944 18.4807 26.31 18.4807ZM14.9447 8.55054C16.7442 8.38154 19.4928 6.38991 20.5909 5.54157C20.6389 5.50426 20.7085 5.51666 20.7434 5.56878L21.2698 6.35709L12.8375 11.7207V10.3895C13.0155 9.73597 13.52 8.68244 14.9447 8.55054ZM4.25234 5.56783C4.28719 5.5152 4.35637 5.50375 4.40439 5.54084C5.50112 6.3894 8.24694 8.38149 10.0524 8.55048C11.4916 8.68435 11.9955 9.77339 12.1693 10.4245V11.7263L3.72202 6.35641L4.25234 5.56783ZM1.71187 8.69125C1.66182 8.65927 1.64684 8.59295 1.67882 8.54268L2.83951 6.71483C2.87188 6.66438 2.93848 6.65019 2.98831 6.68178C15.2021 14.4478 10.9477 11.7426 11.8764 12.3331L9.65989 13.7429L1.71187 8.69125ZM3.45557 18.4807C3.50017 18.4523 14.1251 11.7029 22.0102 6.68004C22.0609 6.64761 22.1269 6.66343 22.1586 6.71286L23.321 8.54072C23.353 8.59065 23.3382 8.65714 23.288 8.68906C17.0431 12.6607 12.9962 15.2341 7.89235 18.4807H3.45557ZM12.5028 16.3403L15.8676 18.4807H9.13742L12.5028 16.3403ZM17.1125 18.4807L13.1257 15.9448C13.1703 15.9164 15.4867 14.4425 15.3398 14.5359L21.5462 18.4807H17.1125Z" fill="#306384"/>
<path d="M22.7919 18.4807L22.6846 18.6494L22.7337 18.6807H22.7919V18.4807ZM15.9623 14.14L15.855 13.9712L15.5896 14.14L15.8551 14.3088L15.9623 14.14ZM23.6464 9.25288L23.5392 9.08409L23.5391 9.08413L23.6464 9.25288ZM23.8848 8.18203L23.7161 8.28935L23.7161 8.2894L23.8848 8.18203ZM22.7224 6.35417L22.8912 6.24684L22.8911 6.24671L22.7224 6.35417ZM21.854 6.02864L21.6877 6.1397L21.7689 6.26124L21.9093 6.22084L21.854 6.02864ZM21.2989 5.19735L21.4652 5.08628L21.4652 5.08627L21.2989 5.19735ZM20.1824 5.01265L20.0602 4.85432L20.0601 4.85437L20.1824 5.01265ZM14.8824 7.88527L14.9009 8.08443L14.9012 8.0844L14.8824 7.88527ZM12.4964 9.43837L12.3205 9.53354L12.497 9.85973L12.6726 9.53307L12.4964 9.43837ZM10.1144 7.88527L10.0957 8.0844L10.0958 8.08442L10.1144 7.88527ZM4.81313 5.01226L4.69075 5.17044L4.69075 5.17044L4.81313 5.01226ZM3.69744 5.19516L3.86342 5.30675L3.86356 5.30654L3.69744 5.19516ZM3.1371 6.02864L3.08391 6.22143L3.22273 6.25974L3.30308 6.14022L3.1371 6.02864ZM2.27552 6.35647L2.10678 6.24911L2.10669 6.24926L2.27552 6.35647ZM1.11484 8.18433L1.28363 8.2916L1.28367 8.29154L1.11484 8.18433ZM1.35346 9.25496L1.46074 9.08617L1.4607 9.08614L1.35346 9.25496ZM9.03732 14.1388L9.14466 14.3076L9.41008 14.1388L9.14461 13.97L9.03732 14.1388ZM2.21055 18.4807V18.6807H2.26876L2.31788 18.6494L2.21055 18.4807ZM14.9447 8.55054L14.9631 8.74969L14.9634 8.74966L14.9447 8.55054ZM20.5909 5.54157L20.7132 5.69984L20.7137 5.69944L20.5909 5.54157ZM20.7434 5.56878L20.9097 5.45772L20.9096 5.45751L20.7434 5.56878ZM21.2698 6.35709L21.3771 6.52584L21.5497 6.41609L21.4361 6.24602L21.2698 6.35709ZM12.8375 11.7207H12.6375V12.0849L12.9449 11.8895L12.8375 11.7207ZM12.8375 10.3895L12.6445 10.3369L12.6375 10.3627V10.3895H12.8375ZM4.25234 5.56783L4.41831 5.67944L4.41911 5.67823L4.25234 5.56783ZM4.40439 5.54084L4.52678 5.38266L4.52663 5.38254L4.40439 5.54084ZM10.0524 8.55048L10.0337 8.74961L10.0338 8.74962L10.0524 8.55048ZM12.1693 10.4245H12.3693V10.3982L12.3625 10.3729L12.1693 10.4245ZM12.1693 11.7263L12.062 11.895L12.3693 12.0904V11.7263H12.1693ZM3.72202 6.35641L3.55606 6.2448L3.44153 6.4151L3.61473 6.5252L3.72202 6.35641ZM1.71187 8.69125L1.60418 8.85978L1.60459 8.86005L1.71187 8.69125ZM1.67882 8.54268L1.84757 8.65003L1.84766 8.64989L1.67882 8.54268ZM2.83951 6.71483L2.67119 6.6068L2.67067 6.60761L2.83951 6.71483ZM2.98831 6.68178L3.09562 6.51301L3.0954 6.51287L2.98831 6.68178ZM11.8764 12.3331L11.9837 12.5019L12.2491 12.3331L11.9837 12.1643L11.8764 12.3331ZM9.65989 13.7429L9.55261 13.9116L9.65993 13.9799L9.76722 13.9116L9.65989 13.7429ZM3.45557 18.4807L3.34833 18.3118L2.76771 18.6807H3.45557V18.4807ZM22.0102 6.68004L22.1177 6.84872L22.1181 6.84849L22.0102 6.68004ZM22.1586 6.71286L22.3273 6.60554L22.327 6.60503L22.1586 6.71286ZM23.321 8.54072L23.1522 8.64804L23.1526 8.64858L23.321 8.54072ZM23.288 8.68906L23.1807 8.52029L23.1806 8.5203L23.288 8.68906ZM7.89235 18.4807V18.6807H7.95057L7.99969 18.6494L7.89235 18.4807ZM12.5028 16.3403L12.6101 16.1715L12.5028 16.1032L12.3954 16.1715L12.5028 16.3403ZM15.8676 18.4807V18.6807H16.5546L15.9749 18.3119L15.8676 18.4807ZM9.13742 18.4807L9.03009 18.3119L8.45028 18.6807H9.13742V18.4807ZM17.1125 18.4807L17.0051 18.6494L17.0543 18.6807H17.1125V18.4807ZM13.1257 15.9448L13.0183 15.7761L12.7532 15.9448L13.0184 16.1135L13.1257 15.9448ZM15.3398 14.5359L15.2325 14.3671L14.9671 14.5359L15.2325 14.7047L15.3398 14.5359ZM21.5462 18.4807V18.6807H22.2337L21.6535 18.3119L21.5462 18.4807ZM26.31 18.2807H22.7919V18.6807H26.31V18.2807ZM22.8991 18.3119L16.0696 13.9712L15.8551 14.3088L22.6846 18.6494L22.8991 18.3119ZM16.0697 14.3087L23.7538 9.42164L23.5391 9.08413L15.855 13.9712L16.0697 14.3087ZM23.7537 9.42168C24.2087 9.13252 24.3431 8.52972 24.0536 8.07466L23.7161 8.2894C23.8869 8.55789 23.8077 8.9134 23.5392 9.08409L23.7537 9.42168ZM24.0536 8.0747L22.8912 6.24684L22.5536 6.46149L23.7161 8.28935L24.0536 8.0747ZM22.8911 6.24671C22.6525 5.87216 22.2021 5.7204 21.7987 5.83643L21.9093 6.22084C22.15 6.15161 22.4146 6.24324 22.5537 6.46162L22.8911 6.24671ZM22.0204 5.91757L21.4652 5.08628L21.1326 5.30842L21.6877 6.1397L22.0204 5.91757ZM21.4652 5.08627C21.1579 4.62609 20.5162 4.50235 20.0602 4.85432L20.3046 5.17097C20.5716 4.96491 20.9499 5.03496 21.1326 5.30844L21.4652 5.08627ZM20.0601 4.85437C19.6523 5.16937 18.7515 5.84332 17.7469 6.45716C17.2446 6.76409 16.7193 7.05413 16.2188 7.27655C15.7159 7.50008 15.25 7.64983 14.8637 7.68615L14.9012 8.0844C15.3503 8.04217 15.8621 7.87282 16.3813 7.64208C16.903 7.41023 17.4443 7.11082 17.9555 6.79849C18.9778 6.17381 19.8916 5.48999 20.3046 5.17093L20.0601 4.85437ZM14.864 7.68612C13.7332 7.79066 12.8373 8.38189 12.3203 9.34368L12.6726 9.53307C13.1245 8.69248 13.9 8.17694 14.9009 8.08443L14.864 7.68612ZM12.6723 9.34321C12.1523 8.38196 11.2584 7.79073 10.1329 7.68613L10.0958 8.08442C11.0907 8.17687 11.8652 8.69196 12.3205 9.53354L12.6723 9.34321ZM10.133 7.68615C9.7453 7.64983 9.27861 7.50005 8.77526 7.27652C8.27437 7.05409 7.74902 6.76404 7.24683 6.45709C6.24247 5.84319 5.34278 5.16916 4.93552 4.85407L4.69075 5.17044C5.10332 5.48964 6.01604 6.1736 7.03822 6.79838C7.5493 7.11077 8.09076 7.41022 8.61292 7.6421C9.13261 7.87288 9.6452 8.0422 10.0957 8.0844L10.133 7.68615ZM4.93552 4.85407C4.48789 4.50774 3.84388 4.61763 3.53133 5.08378L3.86356 5.30654C4.04856 5.03062 4.42829 4.96737 4.69075 5.17044L4.93552 4.85407ZM3.53147 5.08358L2.97113 5.91705L3.30308 6.14022L3.86342 5.30675L3.53147 5.08358ZM3.1903 5.83584C2.78964 5.72529 2.34382 5.87652 2.10678 6.24911L2.44427 6.46383C2.58224 6.24695 2.84405 6.15525 3.08391 6.22143L3.1903 5.83584ZM2.10669 6.24926L0.945998 8.07711L1.28367 8.29154L2.44436 6.46368L2.10669 6.24926ZM0.946036 8.07706C0.657301 8.53141 0.792099 9.13529 1.24622 9.42378L1.4607 9.08614C1.19306 8.91612 1.11341 8.55946 1.28363 8.2916L0.946036 8.07706ZM1.24618 9.42375L8.93004 14.3076L9.14461 13.97L1.46074 9.08617L1.24618 9.42375ZM8.92999 13.97L2.10322 18.3119L2.31788 18.6494L9.14466 14.3076L8.92999 13.97ZM2.21055 18.2807H-1.31017V18.6807H2.21055V18.2807ZM-1.31017 18.2807C-1.60511 18.2807 -1.84429 18.5198 -1.84429 18.8148H-1.44429C-1.44429 18.7407 -1.38419 18.6807 -1.31017 18.6807V18.2807ZM-1.84429 18.8148C-1.84429 19.1097 -1.60511 19.3489 -1.31017 19.3489V18.9489C-1.38419 18.9489 -1.44429 18.8888 -1.44429 18.8148H-1.84429ZM-1.31017 19.3489H26.31V18.9489H-1.31017V19.3489ZM26.31 19.3489C26.6049 19.3489 26.8441 19.1097 26.8441 18.8148H26.4441C26.4441 18.8888 26.384 18.9489 26.31 18.9489V19.3489ZM26.8441 18.8148C26.8441 18.5198 26.6049 18.2807 26.31 18.2807V18.6807C26.384 18.6807 26.4441 18.7408 26.4441 18.8148H26.8441ZM14.9634 8.74966C15.9115 8.66062 17.0822 8.0987 18.1332 7.47263C19.1923 6.84175 20.1611 6.12638 20.7132 5.69984L20.4686 5.3833C19.9226 5.8051 18.9681 6.50971 17.9285 7.12898C16.8808 7.75306 15.7774 8.27146 14.926 8.35141L14.9634 8.74966ZM20.7137 5.69944C20.665 5.73733 20.6032 5.71892 20.5772 5.68005L20.9096 5.45751C20.8138 5.31439 20.6128 5.27119 20.4681 5.3837L20.7137 5.69944ZM20.5771 5.67985L21.1035 6.46815L21.4361 6.24602L20.9097 5.45772L20.5771 5.67985ZM21.1624 6.18833L12.7302 11.5519L12.9449 11.8895L21.3771 6.52584L21.1624 6.18833ZM13.0375 11.7207V10.3895H12.6375V11.7207H13.0375ZM13.0305 10.4421C13.1995 9.82172 13.6615 8.8702 14.9631 8.74969L14.9262 8.35139C13.3785 8.49469 12.8316 9.65022 12.6445 10.3369L13.0305 10.4421ZM4.41911 5.67823C4.3915 5.71993 4.32849 5.73492 4.28216 5.69914L4.52663 5.38254C4.38424 5.27259 4.18287 5.31047 4.08558 5.45742L4.41911 5.67823ZM4.28201 5.69902C4.83345 6.12569 5.80123 6.84126 6.86024 7.47231C7.91123 8.09858 9.08262 8.66058 10.0337 8.74961L10.071 8.35135C9.21668 8.27138 8.11245 7.75285 7.065 7.12869C6.02556 6.50931 5.07207 5.80456 4.52678 5.38266L4.28201 5.69902ZM10.0338 8.74962C11.3477 8.87183 11.8105 9.85569 11.976 10.476L12.3625 10.3729C12.1805 9.69109 11.6354 8.49687 10.0709 8.35134L10.0338 8.74962ZM11.9693 10.4245V11.7263H12.3693V10.4245H11.9693ZM12.2766 11.5575L3.82931 6.18763L3.61473 6.5252L12.062 11.895L12.2766 11.5575ZM3.88798 6.46802L4.41831 5.67944L4.08638 5.45622L3.55606 6.2448L3.88798 6.46802ZM1.81956 8.52272C1.8618 8.54971 1.87521 8.60658 1.84757 8.65003L1.51008 8.43533C1.41847 8.57933 1.46185 8.76883 1.60418 8.85978L1.81956 8.52272ZM1.84766 8.64989L3.00835 6.82204L2.67067 6.60761L1.50999 8.43547L1.84766 8.64989ZM3.00783 6.82285C2.98043 6.86553 2.92379 6.87768 2.88122 6.85069L3.0954 6.51287C2.95318 6.4227 2.76333 6.46324 2.6712 6.6068L3.00783 6.82285ZM2.88099 6.85055C8.98789 10.7336 10.9777 11.9988 11.557 12.367C11.7017 12.4591 11.7584 12.4951 11.7692 12.502C11.7699 12.5024 11.7704 12.5027 11.7707 12.503C11.7709 12.5031 11.7711 12.5032 11.7712 12.5033C11.7713 12.5033 11.7714 12.5034 11.7715 12.5034C11.7717 12.5036 12.0444 12.446 11.995 12.1719C11.9907 12.1689 11.9862 12.166 11.9861 12.1659C11.986 12.1658 11.9859 12.1657 11.9858 12.1657C11.9857 12.1656 11.9855 12.1655 11.9854 12.1654C11.985 12.1652 11.9846 12.1649 11.984 12.1645C11.9816 12.163 11.977 12.1601 11.9708 12.1562C11.9585 12.1484 11.9401 12.1366 11.9207 12.1243C11.882 12.0997 11.8398 12.0728 11.8362 12.0706C11.8361 12.0705 11.8362 12.0705 11.8363 12.0706C11.8365 12.0707 11.8982 12.3451 11.6247 12.41C11.6232 12.4091 11.6217 12.4082 11.6216 12.4081C11.6215 12.4081 11.6216 12.4081 11.6221 12.4084C11.6229 12.409 11.6244 12.4099 11.6267 12.4114C11.6313 12.4143 11.639 12.4192 11.6504 12.4264C11.6733 12.441 11.711 12.465 11.7691 12.5019L11.9837 12.1643C11.9257 12.1274 11.8879 12.1034 11.865 12.0889C11.8536 12.0816 11.8459 12.0767 11.8413 12.0738C11.839 12.0723 11.8375 12.0714 11.8366 12.0708C11.8362 12.0706 11.8359 12.0703 11.8356 12.0702C11.8355 12.0701 11.8339 12.0691 11.8324 12.0682C11.559 12.1331 11.6207 12.4075 11.6209 12.4077C11.6211 12.4078 11.6213 12.4079 11.6214 12.408C11.625 12.4103 11.6674 12.4373 11.7061 12.4618C11.7254 12.4742 11.7439 12.4859 11.7562 12.4937C11.7623 12.4976 11.7669 12.5005 11.7692 12.502C11.7766 12.5067 11.7679 12.5013 11.7619 12.497C11.7125 12.2228 11.9852 12.1653 11.9853 12.1654C11.9854 12.1654 11.9855 12.1655 11.9855 12.1655C11.9854 12.1655 11.9853 12.1654 11.9852 12.1653C11.9849 12.1651 11.9844 12.1648 11.9837 12.1644C11.973 12.1576 11.9164 12.1216 11.7716 12.0295C11.1924 11.6612 9.20251 10.396 3.09562 6.51301L2.88099 6.85055ZM11.7691 12.1644L9.55256 13.5741L9.76722 13.9116L11.9837 12.5019L11.7691 12.1644ZM9.76717 13.5741L1.81915 8.52246L1.60459 8.86005L9.55261 13.9116L9.76717 13.5741ZM3.5628 18.6495C3.6074 18.6211 14.2324 11.8717 22.1177 6.84872L21.9028 6.51136C14.0177 11.5342 3.39294 18.2835 3.34833 18.3118L3.5628 18.6495ZM22.1181 6.84849C22.0734 6.87705 22.0166 6.86201 21.9901 6.82069L22.327 6.60503C22.2373 6.46485 22.0484 6.41817 21.9024 6.51159L22.1181 6.84849ZM21.9898 6.82019L23.1522 8.64804L23.4898 8.43339L22.3273 6.60554L21.9898 6.82019ZM23.1526 8.64858C23.1245 8.60472 23.138 8.54741 23.1807 8.52029L23.3953 8.85784C23.5384 8.76687 23.5815 8.57658 23.4894 8.43285L23.1526 8.64858ZM23.1806 8.5203C16.9358 12.4919 12.8889 15.0653 7.785 18.3119L7.99969 18.6494C13.1036 15.4028 17.1504 12.8295 23.3953 8.85783L23.1806 8.5203ZM7.89235 18.2807H3.45557V18.6807H7.89235V18.2807ZM12.3954 16.509L15.7602 18.6494L15.9749 18.3119L12.6101 16.1715L12.3954 16.509ZM15.8676 18.2807H9.13742V18.6807H15.8676V18.2807ZM9.24475 18.6494L12.6101 16.509L12.3954 16.1715L9.03009 18.3119L9.24475 18.6494ZM17.2198 18.3119L13.2331 15.776L13.0184 16.1135L17.0051 18.6494L17.2198 18.3119ZM13.2331 16.1135C13.2554 16.0993 13.8456 15.7237 14.412 15.3634C14.6951 15.1832 14.9723 15.0068 15.1695 14.8813C15.2681 14.8186 15.3467 14.7686 15.3961 14.7372C15.4208 14.7214 15.4381 14.7104 15.4471 14.7047C15.4502 14.7027 15.4546 14.6999 15.4561 14.6989C15.5154 14.4245 15.2409 14.3618 15.24 14.3624C15.2398 14.3625 15.2395 14.3626 15.2394 14.3627C15.2393 14.3628 15.2391 14.3629 15.239 14.363C15.2386 14.3632 15.2382 14.3635 15.2376 14.3638C15.2365 14.3646 15.2348 14.3656 15.2325 14.3671L15.4472 14.7046C15.4495 14.7032 15.4511 14.7021 15.4522 14.7014C15.4528 14.7011 15.4531 14.7008 15.4534 14.7007C15.4535 14.7006 15.4535 14.7006 15.4535 14.7006C15.4534 14.7006 15.4532 14.7008 15.4531 14.7009C15.4522 14.7014 15.1777 14.6388 15.237 14.3643C15.2383 14.3634 15.2381 14.3636 15.2323 14.3673C15.2234 14.3729 15.206 14.384 15.1813 14.3997C15.132 14.4311 15.0533 14.4811 14.9547 14.5439C14.7575 14.6694 14.4804 14.8457 14.1972 15.0259C13.6309 15.3863 13.0407 15.7619 13.0183 15.7761L13.2331 16.1135ZM15.2325 14.7047L21.4389 18.6494L21.6535 18.3119L15.4471 14.3671L15.2325 14.7047ZM21.5462 18.2807H17.1125V18.6807H21.5462V18.2807Z" fill="#306384" mask="url(#path-1-outside-1_382_4634)"/>
</g>
<defs>
<clipPath id="clip0_382_4634">
<rect width="24" height="24" fill="white" transform="translate(0.5)"/>
</clipPath>
</defs>
</svg>
