<svg width="25" height="24" viewBox="0 0 25 24" fill="none" xmlns="http://www.w3.org/2000/svg">
<g clip-path="url(#clip0_1_2954)">
<mask id="path-1-outside-1_1_2954" maskUnits="userSpaceOnUse" x="-2.64424" y="3.85107" width="30" height="16" fill="black">
<rect fill="white" x="-2.64424" y="3.85107" width="30" height="16"/>
<path d="M26.31 18.4806H22.7919L15.9624 14.14L23.6465 9.25286C24.0083 9.02293 24.1151 8.54378 23.8849 8.182L22.7225 6.35414C22.5336 6.05767 22.1761 5.93598 21.8541 6.02861L21.299 5.19733C21.0539 4.8305 20.5439 4.7336 20.1824 5.01262C19.3615 5.64669 16.5535 7.72815 14.8825 7.88525C13.8166 7.98377 12.9809 8.53716 12.4965 9.43835C12.0088 8.53693 11.1746 7.98377 10.1144 7.88525C8.43798 7.7282 5.63302 5.64652 4.81318 5.01223C4.45813 4.73753 3.94627 4.8241 3.69749 5.19514L3.13715 6.02861C2.81689 5.94024 2.46308 6.06171 2.27557 6.35644L1.11488 8.1843C0.885403 8.5454 0.992623 9.02568 1.3535 9.25493L9.03737 14.1388L2.2106 18.4806H-1.31012C-1.4946 18.4806 -1.64424 18.6303 -1.64424 18.8147C-1.64424 18.9992 -1.4946 19.1489 -1.31012 19.1489H26.31C26.4945 19.1489 26.6442 18.9992 26.6442 18.8147C26.6442 18.6303 26.4945 18.4806 26.31 18.4806ZM14.9447 8.55051C16.7443 8.38152 19.4929 6.38988 20.5909 5.54154C20.6389 5.50423 20.7085 5.51663 20.7434 5.56876L21.2698 6.35706L12.8376 11.7207V10.3895C13.0156 9.73594 13.52 8.68242 14.9447 8.55051ZM4.25239 5.5678C4.28723 5.51517 4.35641 5.50373 4.40444 5.54081C5.50116 6.38938 8.24699 8.38146 10.0524 8.55045C11.4916 8.68433 11.9956 9.77336 12.1693 10.4244V11.7262L3.72207 6.35639L4.25239 5.5678ZM1.71192 8.69123C1.66187 8.65925 1.64689 8.59293 1.67887 8.54266L2.83956 6.7148C2.87193 6.66436 2.93853 6.65016 2.98835 6.68175C15.2021 14.4478 10.9478 11.7426 11.8764 12.3331L9.65993 13.7428L1.71192 8.69123ZM3.45561 18.4806C3.50022 18.4523 14.1251 11.7029 22.0103 6.68001C22.0609 6.64758 22.127 6.6634 22.1586 6.71283L23.3211 8.54069C23.353 8.59063 23.3382 8.65711 23.288 8.68904C17.0432 12.6607 12.9963 15.234 7.89239 18.4806H3.45561ZM12.5028 16.3403L15.8676 18.4806H9.13747L12.5028 16.3403ZM17.1125 18.4806L13.1258 15.9448C13.1704 15.9164 15.4868 14.4424 15.3399 14.5358L21.5463 18.4806H17.1125Z"/>
</mask>
<path d="M26.31 18.4806H22.7919L15.9624 14.14L23.6465 9.25286C24.0083 9.02293 24.1151 8.54378 23.8849 8.182L22.7225 6.35414C22.5336 6.05767 22.1761 5.93598 21.8541 6.02861L21.299 5.19733C21.0539 4.8305 20.5439 4.7336 20.1824 5.01262C19.3615 5.64669 16.5535 7.72815 14.8825 7.88525C13.8166 7.98377 12.9809 8.53716 12.4965 9.43835C12.0088 8.53693 11.1746 7.98377 10.1144 7.88525C8.43798 7.7282 5.63302 5.64652 4.81318 5.01223C4.45813 4.73753 3.94627 4.8241 3.69749 5.19514L3.13715 6.02861C2.81689 5.94024 2.46308 6.06171 2.27557 6.35644L1.11488 8.1843C0.885403 8.5454 0.992623 9.02568 1.3535 9.25493L9.03737 14.1388L2.2106 18.4806H-1.31012C-1.4946 18.4806 -1.64424 18.6303 -1.64424 18.8147C-1.64424 18.9992 -1.4946 19.1489 -1.31012 19.1489H26.31C26.4945 19.1489 26.6442 18.9992 26.6442 18.8147C26.6442 18.6303 26.4945 18.4806 26.31 18.4806ZM14.9447 8.55051C16.7443 8.38152 19.4929 6.38988 20.5909 5.54154C20.6389 5.50423 20.7085 5.51663 20.7434 5.56876L21.2698 6.35706L12.8376 11.7207V10.3895C13.0156 9.73594 13.52 8.68242 14.9447 8.55051ZM4.25239 5.5678C4.28723 5.51517 4.35641 5.50373 4.40444 5.54081C5.50116 6.38938 8.24699 8.38146 10.0524 8.55045C11.4916 8.68433 11.9956 9.77336 12.1693 10.4244V11.7262L3.72207 6.35639L4.25239 5.5678ZM1.71192 8.69123C1.66187 8.65925 1.64689 8.59293 1.67887 8.54266L2.83956 6.7148C2.87193 6.66436 2.93853 6.65016 2.98835 6.68175C15.2021 14.4478 10.9478 11.7426 11.8764 12.3331L9.65993 13.7428L1.71192 8.69123ZM3.45561 18.4806C3.50022 18.4523 14.1251 11.7029 22.0103 6.68001C22.0609 6.64758 22.127 6.6634 22.1586 6.71283L23.3211 8.54069C23.353 8.59063 23.3382 8.65711 23.288 8.68904C17.0432 12.6607 12.9963 15.234 7.89239 18.4806H3.45561ZM12.5028 16.3403L15.8676 18.4806H9.13747L12.5028 16.3403ZM17.1125 18.4806L13.1258 15.9448C13.1704 15.9164 15.4868 14.4424 15.3399 14.5358L21.5463 18.4806H17.1125Z" fill="#DBDCE0"/>
<path d="M22.7919 18.4806L22.6846 18.6494L22.7337 18.6806H22.7919V18.4806ZM15.9624 14.14L15.8551 13.9712L15.5896 14.14L15.8551 14.3087L15.9624 14.14ZM23.6465 9.25286L23.5392 9.08406L23.5391 9.0841L23.6465 9.25286ZM23.8849 8.182L23.7161 8.28932L23.7161 8.28937L23.8849 8.182ZM22.7225 6.35414L22.8912 6.24682L22.8911 6.24669L22.7225 6.35414ZM21.8541 6.02861L21.6878 6.13968L21.7689 6.26121L21.9094 6.22082L21.8541 6.02861ZM21.299 5.19733L21.4653 5.08626L21.4653 5.08624L21.299 5.19733ZM20.1824 5.01262L20.0602 4.8543L20.0602 4.85434L20.1824 5.01262ZM14.8825 7.88525L14.9009 8.0844L14.9012 8.08437L14.8825 7.88525ZM12.4965 9.43835L12.3206 9.53352L12.4971 9.8597L12.6726 9.53304L12.4965 9.43835ZM10.1144 7.88525L10.0957 8.08438L10.0959 8.08439L10.1144 7.88525ZM4.81318 5.01223L4.69079 5.17041L4.6908 5.17041L4.81318 5.01223ZM3.69749 5.19514L3.86347 5.30672L3.86361 5.30652L3.69749 5.19514ZM3.13715 6.02861L3.08395 6.2214L3.22278 6.25971L3.30313 6.1402L3.13715 6.02861ZM2.27557 6.35644L2.10682 6.24909L2.10673 6.24923L2.27557 6.35644ZM1.11488 8.1843L1.28368 8.29157L1.28372 8.29151L1.11488 8.1843ZM1.3535 9.25493L1.46079 9.08614L1.46075 9.08612L1.3535 9.25493ZM9.03737 14.1388L9.1447 14.3075L9.41013 14.1387L9.14465 13.97L9.03737 14.1388ZM2.2106 18.4806V18.6806H2.26881L2.31793 18.6494L2.2106 18.4806ZM14.9447 8.55051L14.9632 8.74966L14.9634 8.74963L14.9447 8.55051ZM20.5909 5.54154L20.7132 5.69981L20.7137 5.69941L20.5909 5.54154ZM20.7434 5.56876L20.9098 5.45769L20.9096 5.45749L20.7434 5.56876ZM21.2698 6.35706L21.3772 6.52581L21.5497 6.41606L21.4362 6.24599L21.2698 6.35706ZM12.8376 11.7207H12.6376V12.0849L12.9449 11.8894L12.8376 11.7207ZM12.8376 10.3895L12.6446 10.3369L12.6376 10.3627V10.3895H12.8376ZM4.25239 5.5678L4.41836 5.67941L4.41915 5.67821L4.25239 5.5678ZM4.40444 5.54081L4.52683 5.38263L4.52668 5.38252L4.40444 5.54081ZM10.0524 8.55045L10.0338 8.74958L10.0339 8.74959L10.0524 8.55045ZM12.1693 10.4244H12.3693V10.3982L12.3626 10.3729L12.1693 10.4244ZM12.1693 11.7262L12.062 11.895L12.3693 12.0904V11.7262H12.1693ZM3.72207 6.35639L3.5561 6.24478L3.44158 6.41507L3.61477 6.52517L3.72207 6.35639ZM1.71192 8.69123L1.60422 8.85976L1.60464 8.86002L1.71192 8.69123ZM1.67887 8.54266L1.84762 8.65001L1.84771 8.64987L1.67887 8.54266ZM2.83956 6.7148L2.67124 6.60677L2.67072 6.60759L2.83956 6.7148ZM2.98835 6.68175L3.09566 6.51298L3.09544 6.51284L2.98835 6.68175ZM11.8764 12.3331L11.9838 12.5018L12.2492 12.3331L11.9838 12.1643L11.8764 12.3331ZM9.65993 13.7428L9.55265 13.9116L9.65997 13.9798L9.76727 13.9116L9.65993 13.7428ZM3.45561 18.4806L3.34837 18.3118L2.76776 18.6806H3.45561V18.4806ZM22.0103 6.68001L22.1177 6.8487L22.1181 6.84846L22.0103 6.68001ZM22.1586 6.71283L22.3274 6.60551L22.3271 6.605L22.1586 6.71283ZM23.3211 8.54069L23.1523 8.64802L23.1526 8.64856L23.3211 8.54069ZM23.288 8.68904L23.1807 8.52026L23.1807 8.52028L23.288 8.68904ZM7.89239 18.4806V18.6806H7.95061L7.99974 18.6494L7.89239 18.4806ZM12.5028 16.3403L12.6102 16.1715L12.5028 16.1032L12.3955 16.1715L12.5028 16.3403ZM15.8676 18.4806V18.6806H16.5547L15.975 18.3119L15.8676 18.4806ZM9.13747 18.4806L9.03013 18.3119L8.45032 18.6806H9.13747V18.4806ZM17.1125 18.4806L17.0052 18.6494L17.0543 18.6806H17.1125V18.4806ZM13.1258 15.9448L13.0184 15.776L12.7532 15.9448L13.0184 16.1135L13.1258 15.9448ZM15.3399 14.5358L15.2325 14.3671L14.9671 14.5359L15.2326 14.7046L15.3399 14.5358ZM21.5463 18.4806V18.6806H22.2338L21.6536 18.3118L21.5463 18.4806ZM26.31 18.2806H22.7919V18.6806H26.31V18.2806ZM22.8992 18.3118L16.0697 13.9712L15.8551 14.3087L22.6846 18.6494L22.8992 18.3118ZM16.0697 14.3087L23.7538 9.42162L23.5391 9.0841L15.8551 13.9712L16.0697 14.3087ZM23.7538 9.42165C24.2087 9.13249 24.3432 8.52969 24.0536 8.07463L23.7161 8.28937C23.887 8.55787 23.8078 8.91337 23.5392 9.08406L23.7538 9.42165ZM24.0536 8.07467L22.8912 6.24682L22.5537 6.46147L23.7161 8.28932L24.0536 8.07467ZM22.8911 6.24669C22.6525 5.87213 22.2022 5.72037 21.7988 5.8364L21.9094 6.22082C22.1501 6.15158 22.4147 6.24321 22.5538 6.4616L22.8911 6.24669ZM22.0204 5.91754L21.4653 5.08626L21.1326 5.3084L21.6878 6.13968L22.0204 5.91754ZM21.4653 5.08624C21.1579 4.62606 20.5162 4.50232 20.0602 4.8543L20.3046 5.17095C20.5716 4.96488 20.95 5.03493 21.1326 5.30841L21.4653 5.08624ZM20.0602 4.85434C19.6523 5.16935 18.7516 5.84329 17.747 6.45713C17.2446 6.76406 16.7193 7.0541 16.2189 7.27653C15.7159 7.50006 15.2501 7.64981 14.8638 7.68613L14.9012 8.08437C15.3504 8.04214 15.8622 7.87279 16.3813 7.64205C16.903 7.4102 17.4443 7.11079 17.9555 6.79846C18.9779 6.17378 19.8916 5.48996 20.3047 5.1709L20.0602 4.85434ZM14.8641 7.6861C13.7332 7.79063 12.8373 8.38186 12.3203 9.34365L12.6726 9.53304C13.1245 8.69245 13.9 8.17691 14.9009 8.0844L14.8641 7.6861ZM12.6724 9.34318C12.1523 8.38193 11.2584 7.7907 10.1329 7.68611L10.0959 8.08439C11.0908 8.17684 11.8653 8.69193 12.3206 9.53352L12.6724 9.34318ZM10.1331 7.68612C9.74535 7.6498 9.27865 7.50002 8.7753 7.2765C8.27442 7.05407 7.74907 6.76401 7.24687 6.45706C6.24251 5.84317 5.34283 5.16914 4.93556 4.85404L4.6908 5.17041C5.10337 5.48961 6.01608 6.17357 7.03827 6.79835C7.54935 7.11074 8.09081 7.41019 8.61296 7.64207C9.13266 7.87285 9.64525 8.04217 10.0957 8.08438L10.1331 7.68612ZM4.93557 4.85405C4.48793 4.50771 3.84393 4.6176 3.53137 5.08376L3.86361 5.30652C4.04861 5.0306 4.42834 4.96735 4.69079 5.17041L4.93557 4.85405ZM3.53151 5.08355L2.97117 5.91702L3.30313 6.1402L3.86347 5.30672L3.53151 5.08355ZM3.19035 5.83581C2.78969 5.72526 2.34387 5.8765 2.10682 6.24909L2.44431 6.4638C2.58229 6.24693 2.84409 6.15522 3.08395 6.2214L3.19035 5.83581ZM2.10673 6.24923L0.946044 8.07709L1.28372 8.29151L2.4444 6.46365L2.10673 6.24923ZM0.946082 8.07703C0.657347 8.53138 0.792145 9.13527 1.24626 9.42375L1.46075 9.08612C1.1931 8.91609 1.11346 8.55943 1.28368 8.29157L0.946082 8.07703ZM1.24622 9.42373L8.93009 14.3076L9.14465 13.97L1.46079 9.08614L1.24622 9.42373ZM8.93004 13.97L2.10326 18.3119L2.31793 18.6494L9.1447 14.3075L8.93004 13.97ZM2.2106 18.2806H-1.31012V18.6806H2.2106V18.2806ZM-1.31012 18.2806C-1.60506 18.2806 -1.84424 18.5198 -1.84424 18.8147H-1.44424C-1.44424 18.7407 -1.38415 18.6806 -1.31012 18.6806V18.2806ZM-1.84424 18.8147C-1.84424 19.1097 -1.60506 19.3489 -1.31012 19.3489V18.9489C-1.38415 18.9489 -1.44424 18.8888 -1.44424 18.8147H-1.84424ZM-1.31012 19.3489H26.31V18.9489H-1.31012V19.3489ZM26.31 19.3489C26.605 19.3489 26.8442 19.1097 26.8442 18.8147H26.4442C26.4442 18.8888 26.3841 18.9489 26.31 18.9489V19.3489ZM26.8442 18.8147C26.8442 18.5198 26.6049 18.2806 26.31 18.2806V18.6806C26.384 18.6806 26.4442 18.7407 26.4442 18.8147H26.8442ZM14.9634 8.74963C15.9116 8.66059 17.0822 8.09868 18.1332 7.47261C19.1923 6.84173 20.1611 6.12635 20.7132 5.69981L20.4687 5.38327C19.9227 5.80508 18.9681 6.50968 17.9285 7.12896C16.8809 7.75303 15.7774 8.27143 14.926 8.35139L14.9634 8.74963ZM20.7137 5.69941C20.665 5.7373 20.6033 5.7189 20.5773 5.68003L20.9096 5.45749C20.8138 5.31437 20.6128 5.27116 20.4682 5.38367L20.7137 5.69941ZM20.5771 5.67982L21.1035 6.46812L21.4362 6.24599L20.9098 5.45769L20.5771 5.67982ZM21.1625 6.18831L12.7302 11.5519L12.9449 11.8894L21.3772 6.52581L21.1625 6.18831ZM13.0376 11.7207V10.3895H12.6376V11.7207H13.0376ZM13.0305 10.442C13.1995 9.82169 13.6615 8.87018 14.9632 8.74966L14.9263 8.35136C13.3786 8.49466 12.8317 9.65019 12.6446 10.3369L13.0305 10.442ZM4.41915 5.67821C4.39155 5.7199 4.32854 5.73489 4.2822 5.69911L4.52668 5.38252C4.38429 5.27256 4.18292 5.31044 4.08562 5.45739L4.41915 5.67821ZM4.28205 5.69899C4.83349 6.12566 5.80127 6.84123 6.86028 7.47228C7.91128 8.09855 9.08267 8.66056 10.0338 8.74958L10.071 8.35132C9.21672 8.27136 8.11249 7.75282 7.06504 7.12866C6.02561 6.50928 5.07211 5.80453 4.52683 5.38263L4.28205 5.69899ZM10.0339 8.74959C11.3477 8.87181 11.8105 9.85567 11.9761 10.476L12.3626 10.3729C12.1806 9.69106 11.6355 8.49684 10.0709 8.35131L10.0339 8.74959ZM11.9693 10.4244V11.7262H12.3693V10.4244H11.9693ZM12.2766 11.5574L3.82936 6.1876L3.61477 6.52517L12.062 11.895L12.2766 11.5574ZM3.88803 6.468L4.41835 5.67941L4.08643 5.45619L3.5561 6.24478L3.88803 6.468ZM1.81961 8.5227C1.86184 8.54968 1.87526 8.60655 1.84762 8.65001L1.51012 8.4353C1.41852 8.5793 1.4619 8.76881 1.60422 8.85976L1.81961 8.5227ZM1.84771 8.64987L3.00839 6.82201L2.67072 6.60759L1.51003 8.43544L1.84771 8.64987ZM3.00787 6.82283C2.98048 6.8655 2.92383 6.87765 2.88126 6.85066L3.09544 6.51284C2.95323 6.42267 2.76338 6.46321 2.67124 6.60677L3.00787 6.82283ZM2.88104 6.85052C8.98793 10.7335 10.9778 11.9987 11.557 12.367C11.7018 12.4591 11.7585 12.4951 11.7692 12.502C11.7699 12.5024 11.7704 12.5027 11.7708 12.5029C11.771 12.503 11.7711 12.5031 11.7712 12.5032C11.7713 12.5033 11.7714 12.5033 11.7715 12.5034C11.7717 12.5035 12.0445 12.446 11.995 12.1719C11.9908 12.1689 11.9863 12.166 11.9861 12.1658C11.986 12.1658 11.9859 12.1657 11.9859 12.1657C11.9857 12.1656 11.9856 12.1655 11.9854 12.1654C11.9851 12.1652 11.9846 12.1649 11.984 12.1645C11.9816 12.163 11.977 12.16 11.9709 12.1561C11.9586 12.1483 11.9401 12.1366 11.9208 12.1243C11.882 12.0996 11.8398 12.0728 11.8363 12.0706C11.8361 12.0705 11.8362 12.0705 11.8363 12.0706C11.8365 12.0707 11.8982 12.3451 11.6247 12.41C11.6233 12.4091 11.6217 12.4081 11.6216 12.4081C11.6216 12.408 11.6217 12.4081 11.6222 12.4084C11.623 12.4089 11.6245 12.4099 11.6268 12.4114C11.6314 12.4143 11.639 12.4191 11.6505 12.4264C11.6733 12.4409 11.7111 12.465 11.7691 12.5019L11.9838 12.1643C11.9257 12.1274 11.8879 12.1034 11.8651 12.0889C11.8537 12.0816 11.846 12.0767 11.8414 12.0738C11.8391 12.0723 11.8375 12.0713 11.8367 12.0708C11.8363 12.0706 11.8359 12.0703 11.8357 12.0702C11.8355 12.0701 11.8339 12.0691 11.8325 12.0682C11.559 12.1331 11.6207 12.4075 11.621 12.4076C11.6211 12.4078 11.6213 12.4079 11.6214 12.4079C11.6251 12.4103 11.6675 12.4372 11.7061 12.4618C11.7255 12.4741 11.7439 12.4859 11.7562 12.4937C11.7623 12.4976 11.7669 12.5005 11.7693 12.502C11.7766 12.5066 11.7679 12.5012 11.7619 12.4969C11.7125 12.2228 11.9852 12.1653 11.9854 12.1654C11.9854 12.1654 11.9855 12.1655 11.9855 12.1654C11.9855 12.1654 11.9854 12.1654 11.9852 12.1653C11.9849 12.1651 11.9845 12.1648 11.9838 12.1644C11.973 12.1575 11.9164 12.1215 11.7716 12.0295C11.1924 11.6612 9.20256 10.396 3.09566 6.51298L2.88104 6.85052ZM11.7691 12.1643L9.5526 13.5741L9.76727 13.9116L11.9838 12.5018L11.7691 12.1643ZM9.76722 13.574L1.8192 8.52243L1.60464 8.86002L9.55265 13.9116L9.76722 13.574ZM3.56285 18.6494C3.60745 18.6211 14.2324 11.8716 22.1177 6.8487L21.9028 6.51133C14.0178 11.5341 3.39299 18.2835 3.34837 18.3118L3.56285 18.6494ZM22.1181 6.84846C22.0735 6.87702 22.0166 6.86199 21.9902 6.82067L22.3271 6.605C22.2373 6.46482 22.0484 6.41815 21.9025 6.51156L22.1181 6.84846ZM21.9899 6.82016L23.1523 8.64802L23.4898 8.43337L22.3274 6.60551L21.9899 6.82016ZM23.1526 8.64856C23.1245 8.6047 23.1381 8.54738 23.1807 8.52026L23.3953 8.85782C23.5384 8.76685 23.5815 8.57656 23.4895 8.43283L23.1526 8.64856ZM23.1807 8.52028C16.9359 12.4919 12.889 15.0653 7.78505 18.3119L7.99974 18.6494C13.1036 15.4028 17.1505 12.8295 23.3953 8.8578L23.1807 8.52028ZM7.89239 18.2806H3.45561V18.6806H7.89239V18.2806ZM12.3955 16.509L15.7603 18.6494L15.975 18.3119L12.6102 16.1715L12.3955 16.509ZM15.8676 18.2806H9.13747V18.6806H15.8676V18.2806ZM9.2448 18.6494L12.6102 16.509L12.3955 16.1715L9.03013 18.3119L9.2448 18.6494ZM17.2199 18.3119L13.2331 15.776L13.0184 16.1135L17.0052 18.6494L17.2199 18.3119ZM13.2332 16.1135C13.2555 16.0993 13.8457 15.7237 14.412 15.3634C14.6952 15.1832 14.9723 15.0068 15.1695 14.8813C15.2681 14.8186 15.3468 14.7685 15.3961 14.7371C15.4208 14.7214 15.4382 14.7104 15.4471 14.7047C15.4502 14.7027 15.4546 14.6999 15.4561 14.6989C15.5155 14.4244 15.2409 14.3618 15.24 14.3623C15.2398 14.3624 15.2396 14.3626 15.2395 14.3627C15.2393 14.3628 15.2391 14.3629 15.239 14.363C15.2387 14.3632 15.2382 14.3635 15.2377 14.3638C15.2366 14.3645 15.2348 14.3656 15.2325 14.3671L15.4472 14.7046C15.4495 14.7031 15.4512 14.7021 15.4523 14.7014C15.4528 14.701 15.4532 14.7008 15.4534 14.7007C15.4535 14.7006 15.4536 14.7006 15.4535 14.7006C15.4535 14.7006 15.4533 14.7008 15.4531 14.7009C15.4522 14.7014 15.1777 14.6387 15.237 14.3643C15.2384 14.3634 15.2381 14.3636 15.2323 14.3672C15.2234 14.3729 15.206 14.384 15.1814 14.3997C15.132 14.4311 15.0534 14.4811 14.9548 14.5439C14.7576 14.6693 14.4804 14.8457 14.1973 15.0259C13.631 15.3862 13.0407 15.7618 13.0184 15.776L13.2332 16.1135ZM15.2326 14.7046L21.439 18.6494L21.6536 18.3118L15.4472 14.3671L15.2326 14.7046ZM21.5463 18.2806H17.1125V18.6806H21.5463V18.2806Z" fill="#DBDCE0" mask="url(#path-1-outside-1_1_2954)"/>
</g>
<defs>
<clipPath id="clip0_1_2954">
<rect width="24" height="24" fill="white" transform="translate(0.5)"/>
</clipPath>
</defs>
</svg>
