<svg width="25" height="16" viewBox="0 0 25 16" fill="none" xmlns="http://www.w3.org/2000/svg">
<mask id="path-1-outside-1_421_1612" maskUnits="userSpaceOnUse" x="-2.64429" y="-0.148899" width="30" height="16" fill="black">
<rect fill="white" x="-2.64429" y="-0.148899" width="30" height="16"/>
<path d="M26.31 14.4807H22.7919L15.9623 10.14L23.6464 5.25288C24.0082 5.02296 24.115 4.5438 23.8848 4.18203L22.7224 2.35417C22.5335 2.0577 22.1761 1.936 21.854 2.02864L21.2989 1.19735C21.0539 0.830524 20.5439 0.733628 20.1824 1.01265C19.3615 1.64671 16.5534 3.72817 14.8824 3.88527C13.8166 3.9838 12.9809 4.53718 12.4964 5.43837C12.0088 4.53696 11.1746 3.9838 10.1144 3.88527C8.43793 3.72823 5.63297 1.64655 4.81313 1.01226C4.45809 0.737555 3.94622 0.824128 3.69744 1.19516L3.1371 2.02864C2.81684 1.94027 2.46303 2.06174 2.27552 2.35647L1.11484 4.18433C0.885357 4.54543 0.992578 5.02571 1.35346 5.25496L9.03732 10.1388L2.21055 14.4807H-1.31017C-1.49465 14.4807 -1.64429 14.6303 -1.64429 14.8148C-1.64429 14.9992 -1.49465 15.1489 -1.31017 15.1489H26.31C26.4945 15.1489 26.6441 14.9992 26.6441 14.8148C26.6441 14.6303 26.4944 14.4807 26.31 14.4807ZM14.9447 4.55054C16.7442 4.38154 19.4928 2.38991 20.5909 1.54157C20.6389 1.50426 20.7085 1.51666 20.7434 1.56878L21.2698 2.35709L12.8375 7.7207V6.3895C13.0155 5.73597 13.52 4.68244 14.9447 4.55054ZM4.25234 1.56783C4.28719 1.5152 4.35637 1.50375 4.40439 1.54084C5.50112 2.3894 8.24694 4.38149 10.0524 4.55048C11.4916 4.68435 11.9955 5.77339 12.1693 6.42446V7.72625L3.72202 2.35641L4.25234 1.56783ZM1.71187 4.69125C1.66182 4.65927 1.64684 4.59295 1.67882 4.54268L2.83951 2.71483C2.87188 2.66438 2.93848 2.65019 2.98831 2.68178C15.2021 10.4478 10.9477 7.74264 11.8764 8.33311L9.65989 9.74286L1.71187 4.69125ZM3.45557 14.4807C3.50017 14.4523 14.1251 7.70291 22.0102 2.68004C22.0609 2.64761 22.1269 2.66343 22.1586 2.71286L23.321 4.54072C23.353 4.59065 23.3382 4.65714 23.288 4.68906C17.0431 8.66072 12.9962 11.2341 7.89235 14.4807H3.45557ZM12.5028 12.3403L15.8676 14.4807H9.13742L12.5028 12.3403ZM17.1125 14.4807L13.1257 11.9448C13.1703 11.9164 15.4867 10.4425 15.3398 10.5359L21.5462 14.4807H17.1125Z"/>
</mask>
<path d="M26.31 14.4807H22.7919L15.9623 10.14L23.6464 5.25288C24.0082 5.02296 24.115 4.5438 23.8848 4.18203L22.7224 2.35417C22.5335 2.0577 22.1761 1.936 21.854 2.02864L21.2989 1.19735C21.0539 0.830524 20.5439 0.733628 20.1824 1.01265C19.3615 1.64671 16.5534 3.72817 14.8824 3.88527C13.8166 3.9838 12.9809 4.53718 12.4964 5.43837C12.0088 4.53696 11.1746 3.9838 10.1144 3.88527C8.43793 3.72823 5.63297 1.64655 4.81313 1.01226C4.45809 0.737555 3.94622 0.824128 3.69744 1.19516L3.1371 2.02864C2.81684 1.94027 2.46303 2.06174 2.27552 2.35647L1.11484 4.18433C0.885357 4.54543 0.992578 5.02571 1.35346 5.25496L9.03732 10.1388L2.21055 14.4807H-1.31017C-1.49465 14.4807 -1.64429 14.6303 -1.64429 14.8148C-1.64429 14.9992 -1.49465 15.1489 -1.31017 15.1489H26.31C26.4945 15.1489 26.6441 14.9992 26.6441 14.8148C26.6441 14.6303 26.4944 14.4807 26.31 14.4807ZM14.9447 4.55054C16.7442 4.38154 19.4928 2.38991 20.5909 1.54157C20.6389 1.50426 20.7085 1.51666 20.7434 1.56878L21.2698 2.35709L12.8375 7.7207V6.3895C13.0155 5.73597 13.52 4.68244 14.9447 4.55054ZM4.25234 1.56783C4.28719 1.5152 4.35637 1.50375 4.40439 1.54084C5.50112 2.3894 8.24694 4.38149 10.0524 4.55048C11.4916 4.68435 11.9955 5.77339 12.1693 6.42446V7.72625L3.72202 2.35641L4.25234 1.56783ZM1.71187 4.69125C1.66182 4.65927 1.64684 4.59295 1.67882 4.54268L2.83951 2.71483C2.87188 2.66438 2.93848 2.65019 2.98831 2.68178C15.2021 10.4478 10.9477 7.74264 11.8764 8.33311L9.65989 9.74286L1.71187 4.69125ZM3.45557 14.4807C3.50017 14.4523 14.1251 7.70291 22.0102 2.68004C22.0609 2.64761 22.1269 2.66343 22.1586 2.71286L23.321 4.54072C23.353 4.59065 23.3382 4.65714 23.288 4.68906C17.0431 8.66072 12.9962 11.2341 7.89235 14.4807H3.45557ZM12.5028 12.3403L15.8676 14.4807H9.13742L12.5028 12.3403ZM17.1125 14.4807L13.1257 11.9448C13.1703 11.9164 15.4867 10.4425 15.3398 10.5359L21.5462 14.4807H17.1125Z" fill="#306384"/>
<path d="M22.7919 14.4807L22.6846 14.6494L22.7337 14.6807H22.7919V14.4807ZM15.9623 10.14L15.855 9.97122L15.5896 10.14L15.8551 10.3088L15.9623 10.14ZM23.6464 5.25288L23.5392 5.08409L23.5391 5.08413L23.6464 5.25288ZM23.8848 4.18203L23.7161 4.28935L23.7161 4.2894L23.8848 4.18203ZM22.7224 2.35417L22.8912 2.24684L22.8911 2.24671L22.7224 2.35417ZM21.854 2.02864L21.6877 2.1397L21.7689 2.26124L21.9093 2.22084L21.854 2.02864ZM21.2989 1.19735L21.4652 1.08628L21.4652 1.08627L21.2989 1.19735ZM20.1824 1.01265L20.0602 0.854324L20.0601 0.854366L20.1824 1.01265ZM14.8824 3.88527L14.9009 4.08443L14.9012 4.0844L14.8824 3.88527ZM12.4964 5.43837L12.3205 5.53354L12.497 5.85973L12.6726 5.53307L12.4964 5.43837ZM10.1144 3.88527L10.0957 4.0844L10.0958 4.08442L10.1144 3.88527ZM4.81313 1.01226L4.69075 1.17044L4.69075 1.17044L4.81313 1.01226ZM3.69744 1.19516L3.86342 1.30675L3.86356 1.30654L3.69744 1.19516ZM3.1371 2.02864L3.08391 2.22143L3.22273 2.25974L3.30308 2.14022L3.1371 2.02864ZM2.27552 2.35647L2.10678 2.24911L2.10669 2.24926L2.27552 2.35647ZM1.11484 4.18433L1.28363 4.2916L1.28367 4.29154L1.11484 4.18433ZM1.35346 5.25496L1.46074 5.08617L1.4607 5.08614L1.35346 5.25496ZM9.03732 10.1388L9.14466 10.3076L9.41008 10.1388L9.14461 9.97001L9.03732 10.1388ZM2.21055 14.4807V14.6807H2.26876L2.31788 14.6494L2.21055 14.4807ZM14.9447 4.55054L14.9631 4.74969L14.9634 4.74966L14.9447 4.55054ZM20.5909 1.54157L20.7132 1.69984L20.7137 1.69944L20.5909 1.54157ZM20.7434 1.56878L20.9097 1.45772L20.9096 1.45751L20.7434 1.56878ZM21.2698 2.35709L21.3771 2.52584L21.5497 2.41609L21.4361 2.24602L21.2698 2.35709ZM12.8375 7.7207H12.6375V8.08495L12.9449 7.88945L12.8375 7.7207ZM12.8375 6.3895L12.6445 6.33694L12.6375 6.36275V6.3895H12.8375ZM4.25234 1.56783L4.41831 1.67944L4.41911 1.67823L4.25234 1.56783ZM4.40439 1.54084L4.52678 1.38266L4.52663 1.38254L4.40439 1.54084ZM10.0524 4.55048L10.0337 4.74961L10.0338 4.74962L10.0524 4.55048ZM12.1693 6.42446H12.3693V6.39823L12.3625 6.37289L12.1693 6.42446ZM12.1693 7.72625L12.062 7.89504L12.3693 8.09038V7.72625H12.1693ZM3.72202 2.35641L3.55606 2.2448L3.44153 2.4151L3.61473 2.5252L3.72202 2.35641ZM1.71187 4.69125L1.60418 4.85978L1.60459 4.86005L1.71187 4.69125ZM1.67882 4.54268L1.84757 4.65003L1.84766 4.64989L1.67882 4.54268ZM2.83951 2.71483L2.67119 2.6068L2.67067 2.60761L2.83951 2.71483ZM2.98831 2.68178L3.09562 2.51301L3.0954 2.51287L2.98831 2.68178ZM11.8764 8.33311L11.9837 8.50187L12.2491 8.33308L11.9837 8.16434L11.8764 8.33311ZM9.65989 9.74286L9.55261 9.91165L9.65993 9.97986L9.76722 9.91161L9.65989 9.74286ZM3.45557 14.4807L3.34833 14.3118L2.76771 14.6807H3.45557V14.4807ZM22.0102 2.68004L22.1177 2.84872L22.1181 2.84849L22.0102 2.68004ZM22.1586 2.71286L22.3273 2.60554L22.327 2.60503L22.1586 2.71286ZM23.321 4.54072L23.1522 4.64804L23.1526 4.64858L23.321 4.54072ZM23.288 4.68906L23.1807 4.52029L23.1806 4.5203L23.288 4.68906ZM7.89235 14.4807V14.6807H7.95057L7.99969 14.6494L7.89235 14.4807ZM12.5028 12.3403L12.6101 12.1715L12.5028 12.1032L12.3954 12.1715L12.5028 12.3403ZM15.8676 14.4807V14.6807H16.5546L15.9749 14.3119L15.8676 14.4807ZM9.13742 14.4807L9.03009 14.3119L8.45028 14.6807H9.13742V14.4807ZM17.1125 14.4807L17.0051 14.6494L17.0543 14.6807H17.1125V14.4807ZM13.1257 11.9448L13.0183 11.7761L12.7532 11.9448L13.0184 12.1135L13.1257 11.9448ZM15.3398 10.5359L15.2325 10.3671L14.9671 10.5359L15.2325 10.7047L15.3398 10.5359ZM21.5462 14.4807V14.6807H22.2337L21.6535 14.3119L21.5462 14.4807ZM26.31 14.2807H22.7919V14.6807H26.31V14.2807ZM22.8991 14.3119L16.0696 9.97119L15.8551 10.3088L22.6846 14.6494L22.8991 14.3119ZM16.0697 10.3087L23.7538 5.42164L23.5391 5.08413L15.855 9.97122L16.0697 10.3087ZM23.7537 5.42168C24.2087 5.13252 24.3431 4.52972 24.0536 4.07466L23.7161 4.2894C23.8869 4.55789 23.8077 4.9134 23.5392 5.08409L23.7537 5.42168ZM24.0536 4.0747L22.8912 2.24684L22.5536 2.46149L23.7161 4.28935L24.0536 4.0747ZM22.8911 2.24671C22.6525 1.87216 22.2021 1.7204 21.7987 1.83643L21.9093 2.22084C22.15 2.15161 22.4146 2.24324 22.5537 2.46162L22.8911 2.24671ZM22.0204 1.91757L21.4652 1.08628L21.1326 1.30842L21.6877 2.1397L22.0204 1.91757ZM21.4652 1.08627C21.1579 0.62609 20.5162 0.50235 20.0602 0.854324L20.3046 1.17097C20.5716 0.964906 20.9499 1.03496 21.1326 1.30844L21.4652 1.08627ZM20.0601 0.854366C19.6523 1.16937 18.7515 1.84332 17.7469 2.45716C17.2446 2.76409 16.7193 3.05413 16.2188 3.27655C15.7159 3.50008 15.25 3.64983 14.8637 3.68615L14.9012 4.0844C15.3503 4.04217 15.8621 3.87282 16.3813 3.64208C16.903 3.41023 17.4443 3.11082 17.9555 2.79849C18.9778 2.17381 19.8916 1.48999 20.3046 1.17093L20.0601 0.854366ZM14.864 3.68612C13.7332 3.79066 12.8373 4.38189 12.3203 5.34368L12.6726 5.53307C13.1245 4.69248 13.9 4.17694 14.9009 4.08443L14.864 3.68612ZM12.6723 5.34321C12.1523 4.38196 11.2584 3.79073 10.1329 3.68613L10.0958 4.08442C11.0907 4.17687 11.8652 4.69196 12.3205 5.53354L12.6723 5.34321ZM10.133 3.68615C9.7453 3.64983 9.27861 3.50005 8.77526 3.27652C8.27437 3.05409 7.74902 2.76404 7.24683 2.45709C6.24247 1.84319 5.34278 1.16916 4.93552 0.854071L4.69075 1.17044C5.10332 1.48964 6.01604 2.1736 7.03822 2.79838C7.5493 3.11077 8.09076 3.41022 8.61292 3.6421C9.13261 3.87288 9.6452 4.0422 10.0957 4.0844L10.133 3.68615ZM4.93552 0.854073C4.48789 0.507736 3.84388 0.617631 3.53133 1.08378L3.86356 1.30654C4.04856 1.03062 4.42829 0.967374 4.69075 1.17044L4.93552 0.854073ZM3.53147 1.08358L2.97113 1.91705L3.30308 2.14022L3.86342 1.30675L3.53147 1.08358ZM3.1903 1.83584C2.78964 1.72529 2.34382 1.87652 2.10678 2.24911L2.44427 2.46383C2.58224 2.24695 2.84405 2.15525 3.08391 2.22143L3.1903 1.83584ZM2.10669 2.24926L0.945998 4.07711L1.28367 4.29154L2.44436 2.46368L2.10669 2.24926ZM0.946036 4.07706C0.657301 4.53141 0.792099 5.13529 1.24622 5.42378L1.4607 5.08614C1.19306 4.91612 1.11341 4.55946 1.28363 4.2916L0.946036 4.07706ZM1.24618 5.42375L8.93004 10.3076L9.14461 9.97001L1.46074 5.08617L1.24618 5.42375ZM8.92999 9.97004L2.10322 14.3119L2.31788 14.6494L9.14466 10.3076L8.92999 9.97004ZM2.21055 14.2807H-1.31017V14.6807H2.21055V14.2807ZM-1.31017 14.2807C-1.60511 14.2807 -1.84429 14.5198 -1.84429 14.8148H-1.44429C-1.44429 14.7407 -1.38419 14.6807 -1.31017 14.6807V14.2807ZM-1.84429 14.8148C-1.84429 15.1097 -1.60511 15.3489 -1.31017 15.3489V14.9489C-1.38419 14.9489 -1.44429 14.8888 -1.44429 14.8148H-1.84429ZM-1.31017 15.3489H26.31V14.9489H-1.31017V15.3489ZM26.31 15.3489C26.6049 15.3489 26.8441 15.1097 26.8441 14.8148H26.4441C26.4441 14.8888 26.384 14.9489 26.31 14.9489V15.3489ZM26.8441 14.8148C26.8441 14.5198 26.6049 14.2807 26.31 14.2807V14.6807C26.384 14.6807 26.4441 14.7408 26.4441 14.8148H26.8441ZM14.9634 4.74966C15.9115 4.66062 17.0822 4.0987 18.1332 3.47263C19.1923 2.84175 20.1611 2.12638 20.7132 1.69984L20.4686 1.3833C19.9226 1.8051 18.9681 2.50971 17.9285 3.12898C16.8808 3.75306 15.7774 4.27146 14.926 4.35141L14.9634 4.74966ZM20.7137 1.69944C20.665 1.73733 20.6032 1.71892 20.5772 1.68005L20.9096 1.45751C20.8138 1.31439 20.6128 1.27119 20.4681 1.3837L20.7137 1.69944ZM20.5771 1.67985L21.1035 2.46815L21.4361 2.24602L20.9097 1.45772L20.5771 1.67985ZM21.1624 2.18833L12.7302 7.55195L12.9449 7.88945L21.3771 2.52584L21.1624 2.18833ZM13.0375 7.7207V6.3895H12.6375V7.7207H13.0375ZM13.0305 6.44207C13.1995 5.82172 13.6615 4.8702 14.9631 4.74969L14.9262 4.35139C13.3785 4.49469 12.8316 5.65022 12.6445 6.33694L13.0305 6.44207ZM4.41911 1.67823C4.3915 1.71993 4.32849 1.73492 4.28216 1.69914L4.52663 1.38254C4.38424 1.27259 4.18287 1.31047 4.08558 1.45742L4.41911 1.67823ZM4.28201 1.69902C4.83345 2.12569 5.80123 2.84126 6.86024 3.47231C7.91123 4.09858 9.08262 4.66058 10.0337 4.74961L10.071 4.35135C9.21668 4.27138 8.11245 3.75285 7.065 3.12869C6.02556 2.50931 5.07207 1.80456 4.52678 1.38266L4.28201 1.69902ZM10.0338 4.74962C11.3477 4.87183 11.8105 5.85569 11.976 6.47603L12.3625 6.37289C12.1805 5.69109 11.6354 4.49687 10.0709 4.35134L10.0338 4.74962ZM11.9693 6.42446V7.72625H12.3693V6.42446H11.9693ZM12.2766 7.55747L3.82931 2.18763L3.61473 2.5252L12.062 7.89504L12.2766 7.55747ZM3.88798 2.46802L4.41831 1.67944L4.08638 1.45622L3.55606 2.2448L3.88798 2.46802ZM1.81956 4.52272C1.8618 4.54971 1.87521 4.60658 1.84757 4.65003L1.51008 4.43533C1.41847 4.57933 1.46185 4.76883 1.60418 4.85978L1.81956 4.52272ZM1.84766 4.64989L3.00835 2.82204L2.67067 2.60761L1.50999 4.43547L1.84766 4.64989ZM3.00783 2.82285C2.98043 2.86553 2.92379 2.87768 2.88122 2.85069L3.0954 2.51287C2.95318 2.4227 2.76333 2.46324 2.6712 2.6068L3.00783 2.82285ZM2.88099 2.85055C8.98789 6.73355 10.9777 7.99877 11.557 8.36704C11.7017 8.4591 11.7584 8.49513 11.7692 8.50199C11.7699 8.50242 11.7704 8.50274 11.7707 8.50296C11.7709 8.50307 11.7711 8.50317 11.7712 8.50325C11.7713 8.5033 11.7714 8.50338 11.7715 8.50343C11.7717 8.50357 12.0444 8.44603 11.995 8.17192C11.9907 8.16895 11.9862 8.16598 11.9861 8.16587C11.986 8.16582 11.9859 8.16574 11.9858 8.1657C11.9857 8.16562 11.9855 8.16552 11.9854 8.16542C11.985 8.16521 11.9846 8.16491 11.984 8.16452C11.9816 8.163 11.977 8.16007 11.9708 8.15617C11.9585 8.14836 11.9401 8.13662 11.9207 8.12431C11.882 8.09966 11.8398 8.07283 11.8362 8.07058C11.8361 8.07049 11.8362 8.07052 11.8363 8.0706C11.8365 8.07073 11.8982 8.34512 11.6247 8.41003C11.6232 8.40915 11.6217 8.40817 11.6216 8.4081C11.6215 8.40807 11.6216 8.40813 11.6221 8.40844C11.6229 8.40896 11.6244 8.40992 11.6267 8.41138C11.6313 8.4143 11.639 8.41917 11.6504 8.42643C11.6733 8.44095 11.711 8.46498 11.7691 8.50188L11.9837 8.16434C11.9257 8.12743 11.8879 8.1034 11.865 8.08888C11.8536 8.08162 11.8459 8.07673 11.8413 8.07381C11.839 8.07235 11.8375 8.07136 11.8366 8.07081C11.8362 8.07058 11.8359 8.07033 11.8356 8.07018C11.8355 8.07009 11.8339 8.0691 11.8324 8.0682C11.559 8.13312 11.6207 8.40752 11.6209 8.40767C11.6211 8.40779 11.6213 8.40792 11.6214 8.40798C11.625 8.41031 11.6674 8.43727 11.7061 8.46184C11.7254 8.47415 11.7439 8.48589 11.7562 8.49369C11.7623 8.49759 11.7669 8.5005 11.7692 8.50201C11.7766 8.50667 11.7679 8.50127 11.7619 8.49695C11.7125 8.22284 11.9852 8.16529 11.9853 8.16541C11.9854 8.16544 11.9855 8.16548 11.9855 8.16547C11.9854 8.16546 11.9853 8.1654 11.9852 8.1653C11.9849 8.16511 11.9844 8.16481 11.9837 8.16439C11.973 8.15756 11.9164 8.12157 11.7716 8.0295C11.1924 7.66122 9.20251 6.39601 3.09562 2.51301L2.88099 2.85055ZM11.7691 8.16435L9.55256 9.5741L9.76722 9.91161L11.9837 8.50187L11.7691 8.16435ZM9.76717 9.57406L1.81915 4.52246L1.60459 4.86005L9.55261 9.91165L9.76717 9.57406ZM3.5628 14.6495C3.6074 14.6211 14.2324 7.87167 22.1177 2.84872L21.9028 2.51136C14.0177 7.53415 3.39294 14.2835 3.34833 14.3118L3.5628 14.6495ZM22.1181 2.84849C22.0734 2.87705 22.0166 2.86201 21.9901 2.82069L22.327 2.60503C22.2373 2.46485 22.0484 2.41817 21.9024 2.51159L22.1181 2.84849ZM21.9898 2.82019L23.1522 4.64804L23.4898 4.43339L22.3273 2.60554L21.9898 2.82019ZM23.1526 4.64858C23.1245 4.60472 23.138 4.54741 23.1807 4.52029L23.3953 4.85784C23.5384 4.76687 23.5815 4.57658 23.4894 4.43285L23.1526 4.64858ZM23.1806 4.5203C16.9358 8.49195 12.8889 11.0653 7.785 14.3119L7.99969 14.6494C13.1036 11.4028 17.1504 8.82949 23.3953 4.85783L23.1806 4.5203ZM7.89235 14.2807H3.45557V14.6807H7.89235V14.2807ZM12.3954 12.509L15.7602 14.6494L15.9749 14.3119L12.6101 12.1715L12.3954 12.509ZM15.8676 14.2807H9.13742V14.6807H15.8676V14.2807ZM9.24475 14.6494L12.6101 12.509L12.3954 12.1715L9.03009 14.3119L9.24475 14.6494ZM17.2198 14.3119L13.2331 11.776L13.0184 12.1135L17.0051 14.6494L17.2198 14.3119ZM13.2331 12.1135C13.2554 12.0993 13.8456 11.7237 14.412 11.3634C14.6951 11.1832 14.9723 11.0068 15.1695 10.8813C15.2681 10.8186 15.3467 10.7686 15.3961 10.7372C15.4208 10.7214 15.4381 10.7104 15.4471 10.7047C15.4502 10.7027 15.4546 10.6999 15.4561 10.6989C15.5154 10.4245 15.2409 10.3618 15.24 10.3624C15.2398 10.3625 15.2395 10.3626 15.2394 10.3627C15.2393 10.3628 15.2391 10.3629 15.239 10.363C15.2386 10.3632 15.2382 10.3635 15.2376 10.3638C15.2365 10.3646 15.2348 10.3656 15.2325 10.3671L15.4472 10.7046C15.4495 10.7032 15.4511 10.7021 15.4522 10.7014C15.4528 10.7011 15.4531 10.7008 15.4534 10.7007C15.4535 10.7006 15.4535 10.7006 15.4535 10.7006C15.4534 10.7006 15.4532 10.7008 15.4531 10.7009C15.4522 10.7014 15.1777 10.6388 15.237 10.3643C15.2383 10.3634 15.2381 10.3636 15.2323 10.3673C15.2234 10.3729 15.206 10.384 15.1813 10.3997C15.132 10.4311 15.0533 10.4811 14.9547 10.5439C14.7575 10.6694 14.4804 10.8457 14.1972 11.0259C13.6309 11.3863 13.0407 11.7619 13.0183 11.7761L13.2331 12.1135ZM15.2325 10.7047L21.4389 14.6494L21.6535 14.3119L15.4471 10.3671L15.2325 10.7047ZM21.5462 14.2807H17.1125V14.6807H21.5462V14.2807Z" fill="#306384" mask="url(#path-1-outside-1_421_1612)"/>
</svg>
