<svg width="25" height="24" viewBox="0 0 25 24" fill="none" xmlns="http://www.w3.org/2000/svg">
<path d="M9.75001 22L9.35001 18.8C9.13335 18.7167 8.92918 18.6167 8.73751 18.5C8.54585 18.3833 8.35835 18.2583 8.17501 18.125L5.20001 19.375L2.45001 14.625L5.02501 12.675C5.00835 12.5583 5.00001 12.4458 5.00001 12.3375V11.6625C5.00001 11.5542 5.00835 11.4417 5.02501 11.325L2.45001 9.375L5.20001 4.625L8.17501 5.875C8.35835 5.74167 8.55001 5.61667 8.75001 5.5C8.95001 5.38333 9.15001 5.28333 9.35001 5.2L9.75001 2H15.25L15.65 5.2C15.8667 5.28333 16.0708 5.38333 16.2625 5.5C16.4542 5.61667 16.6417 5.74167 16.825 5.875L19.8 4.625L22.55 9.375L19.975 11.325C19.9917 11.4417 20 11.5542 20 11.6625V12.3375C20 12.4458 19.9833 12.5583 19.95 12.675L22.525 14.625L19.775 19.375L16.825 18.125C16.6417 18.2583 16.45 18.3833 16.25 18.5C16.05 18.6167 15.85 18.7167 15.65 18.8L15.25 22H9.75001ZM11.5 20H13.475L13.825 17.35C14.3417 17.2167 14.8208 17.0208 15.2625 16.7625C15.7042 16.5042 16.1083 16.1917 16.475 15.825L18.95 16.85L19.925 15.15L17.775 13.525C17.8583 13.2917 17.9167 13.0458 17.95 12.7875C17.9833 12.5292 18 12.2667 18 12C18 11.7333 17.9833 11.4708 17.95 11.2125C17.9167 10.9542 17.8583 10.7083 17.775 10.475L19.925 8.85L18.95 7.15L16.475 8.2C16.1083 7.81667 15.7042 7.49583 15.2625 7.2375C14.8208 6.97917 14.3417 6.78333 13.825 6.65L13.5 4H11.525L11.175 6.65C10.6583 6.78333 10.1792 6.97917 9.73751 7.2375C9.29585 7.49583 8.89168 7.80833 8.52501 8.175L6.05001 7.15L5.07501 8.85L7.22501 10.45C7.14168 10.7 7.08335 10.95 7.05001 11.2C7.01668 11.45 7.00001 11.7167 7.00001 12C7.00001 12.2667 7.01668 12.525 7.05001 12.775C7.08335 13.025 7.14168 13.275 7.22501 13.525L5.07501 15.15L6.05001 16.85L8.52501 15.8C8.89168 16.1833 9.29585 16.5042 9.73751 16.7625C10.1792 17.0208 10.6583 17.2167 11.175 17.35L11.5 20ZM12.55 15.5C13.5167 15.5 14.3417 15.1583 15.025 14.475C15.7083 13.7917 16.05 12.9667 16.05 12C16.05 11.0333 15.7083 10.2083 15.025 9.525C14.3417 8.84167 13.5167 8.5 12.55 8.5C11.5667 8.5 10.7375 8.84167 10.0625 9.525C9.38751 10.2083 9.05001 11.0333 9.05001 12C9.05001 12.9667 9.38751 13.7917 10.0625 14.475C10.7375 15.1583 11.5667 15.5 12.55 15.5Z" fill="#DBDCE0"/>
</svg>
