<svg width="41" height="40" viewBox="0 0 41 40" fill="none" xmlns="http://www.w3.org/2000/svg">
<rect x="0.695007" width="40" height="40" rx="20" fill="#DFEDF9"/>
<mask id="path-2-outside-1_1_2131" maskUnits="userSpaceOnUse" x="9.80586" y="7.18289" width="21" height="25" fill="black">
<rect fill="white" x="9.80586" y="7.18289" width="21" height="25"/>
<path d="M30.3291 18.3606C30.5619 17.9962 30.6388 17.5627 30.5455 17.1399C30.4541 16.7245 30.2063 16.3567 29.8209 16.1167C30.3289 15.7499 30.6003 15.1046 30.4572 14.4548C30.3005 13.7444 29.6957 13.253 29.0065 13.1962C29.2029 12.8577 29.2826 12.4502 29.192 12.0389C29.0018 11.1744 28.1432 10.612 27.2619 10.8057C27.2403 10.8104 27.221 10.8203 27.1998 10.8258C27.2375 10.6172 27.2344 10.4012 27.1873 10.1878C27.0947 9.76668 26.8429 9.40612 26.4788 9.17278C25.8762 8.78676 25.0721 8.82543 24.5046 9.3577C24.229 8.61107 23.4421 8.15803 22.6434 8.33428C22.2601 8.4187 21.9328 8.63948 21.7003 8.95181C21.3159 8.3324 20.6215 8.07974 19.9805 8.22107C19.4943 8.32814 19.0737 8.64553 18.8488 9.15853C18.4703 8.76201 17.904 8.56218 17.3316 8.68921C16.7209 8.82389 16.2734 9.29128 16.1219 9.85748C15.7039 9.4956 15.197 9.3869 14.7152 9.49321C13.8431 9.68512 13.2899 10.5511 13.4818 11.4234C13.4912 11.4661 13.5092 11.5051 13.5218 11.5466C13.3746 11.538 13.2263 11.5422 13.0785 11.5746C12.2073 11.7664 11.6529 12.6302 11.8453 13.5045C11.8929 13.7206 11.983 13.9198 12.1073 14.0947C12.0974 14.0967 12.0874 14.0961 12.0776 14.0983C11.6551 14.1913 11.294 14.4439 11.061 14.8095C10.8284 15.1745 10.7514 15.6072 10.8442 16.0284C10.9771 16.6312 11.4334 17.0765 11.9895 17.2338C11.6251 17.6505 11.5127 18.1617 11.6199 18.6475C11.7878 19.4107 12.4623 19.9199 13.1976 19.9195C13.298 19.9195 13.399 19.9054 13.4996 19.8864C13.4294 20.1348 13.4106 20.4009 13.4699 20.67C13.6363 21.425 14.3366 22.0162 15.2221 21.9228C14.9273 22.8098 15.4282 23.7074 16.2785 23.9714C15.9412 24.396 15.8564 24.8737 15.956 25.3252C16.0606 25.7997 16.3648 26.1793 16.7606 26.3963C16.7399 26.4125 16.7173 26.4252 16.6973 26.4425L14.4382 28.3763C13.8842 28.8568 13.9406 29.7298 14.5512 30.132L16.8326 31.6347C17.4433 32.037 18.2674 31.745 18.4908 31.0435L19.374 28.2093C19.396 28.1414 19.4097 28.0722 19.4226 28.003C19.7973 28.2881 20.2762 28.404 20.7509 28.299C21.2771 28.1833 21.7311 27.8165 21.9294 27.2457C22.3368 27.6238 22.872 27.7554 23.3804 27.6434C24.1284 27.4788 24.6535 26.819 24.6499 26.0574C24.9891 26.228 25.3565 26.2744 25.7231 26.1937C26.595 26.0014 27.1484 25.1355 26.9563 24.2635C26.938 24.1807 26.9084 24.1037 26.8786 24.027C26.992 24.0357 27.121 24.0487 27.3548 23.9973C28.2267 23.805 28.7801 22.9391 28.5881 22.0671C28.5644 21.9596 28.5301 21.8572 28.4872 21.7602C29.5405 21.7481 30.2707 20.7758 30.0544 19.7937C29.9832 19.4704 29.8185 19.1917 29.5961 18.9777C29.8956 18.8515 30.1506 18.6399 30.3291 18.3606ZM27.8381 18.6533C27.5399 18.7799 27.286 18.9919 27.1078 19.2715C26.8035 19.7489 26.7803 20.3167 26.9908 20.7964C26.8808 20.7975 26.7695 20.8092 26.6578 20.8337C25.722 21.04 25.126 22.0377 25.5029 23.0051C25.3465 22.9925 25.1872 22.9947 25.0261 23.0301C24.2673 23.1974 23.7513 23.8747 23.756 24.622C23.424 24.4543 23.0503 24.399 22.6837 24.4799C22.163 24.5946 21.7058 24.959 21.5056 25.5349C21.0927 25.1514 20.556 25.0259 20.0541 25.1355C19.4346 25.2719 18.9451 25.7559 18.816 26.4032C18.778 26.3731 18.7422 26.3404 18.7016 26.3137C18.6534 26.282 18.602 26.258 18.5515 26.2318C19.0682 25.8141 19.2446 25.1967 19.1193 24.6281C19.001 24.0907 18.6198 23.6241 18.0131 23.4357C18.3489 23.015 18.4371 22.5371 18.3362 22.0794C18.2435 21.6581 17.9918 21.2977 17.6274 21.0644C17.3137 20.8634 16.9494 20.7858 16.5855 20.8246C16.6752 20.5522 16.6966 20.261 16.6331 19.9731C16.451 19.1458 15.6441 18.5671 14.7549 18.7335C14.8257 18.4807 14.8413 18.2146 14.7831 17.9508C14.6503 17.3484 14.193 16.9049 13.6376 16.7473C14.0062 16.328 14.1139 15.814 14.0075 15.3314C13.96 15.1154 13.8694 14.9163 13.7445 14.7412C13.7548 14.7391 13.7651 14.7401 13.7754 14.7378C14.657 14.5434 15.257 13.6386 14.9699 12.6886C15.5875 12.7233 16.1241 12.4236 16.4287 11.9472C16.5198 11.8046 16.5796 11.6497 16.6221 11.4907C17.0048 11.8217 17.515 11.9653 18.0287 11.8527C18.5534 11.737 18.9588 11.3752 19.1597 10.9171C19.5805 11.3577 20.1498 11.5006 20.677 11.3844C21.0607 11.3 21.3884 11.0795 21.6207 10.7682C21.9964 11.3742 22.6823 11.6426 23.3401 11.4976C23.6331 11.4331 23.8856 11.2879 24.0904 11.0965C24.3671 11.845 25.157 12.2941 25.954 12.1178C25.9759 12.113 25.9956 12.103 26.0171 12.0974C25.9789 12.3063 25.9817 12.5223 26.0286 12.7356C26.1786 13.4174 26.7481 13.9393 27.4772 13.9983C27.2749 14.3493 27.2062 14.7545 27.2938 15.1513C27.3868 15.5742 27.6389 15.9355 28.0031 16.1683C28.0077 16.1712 28.0127 16.1731 28.0173 16.176C27.8537 16.2943 27.7108 16.4421 27.5989 16.6177C27.1682 17.2935 27.3062 18.141 27.8381 18.6533ZM29.9121 14.5747C30.0382 15.1476 29.6788 15.713 29.1037 15.8396C28.5355 15.964 27.9667 15.6106 27.8391 15.0314C27.7137 14.4619 28.0737 13.8928 28.6473 13.7666C29.2138 13.6417 29.7851 13.9986 29.9121 14.5747ZM27.382 11.3508C27.9446 11.2262 28.5195 11.5803 28.6468 12.1588C28.7726 12.7304 28.41 13.2979 27.8387 13.4238C27.2666 13.5494 26.6997 13.1872 26.5738 12.6157C26.4485 12.0462 26.8085 11.4771 27.382 11.3508ZM26.1775 9.64293C26.4165 9.79593 26.5815 10.032 26.6422 10.3077V10.3079C26.7685 10.8814 26.4077 11.4464 25.8342 11.5727C25.2616 11.6989 24.6951 11.3359 24.5692 10.7646C24.3649 9.8362 25.3899 9.13795 26.1775 9.64293ZM22.7633 8.87948C23.3309 8.75442 23.9016 9.11249 24.0283 9.68746C24.1541 10.2592 23.7915 10.8267 23.2202 10.9525C22.5935 11.0897 21.9657 10.6419 21.9339 9.96478C21.9411 9.89179 21.9483 9.81909 21.9454 9.74526C22.0155 9.31959 22.3338 8.97407 22.7633 8.87948ZM20.1006 8.76628C20.7178 8.62964 21.3549 9.06862 21.3871 9.7559C21.3712 9.91518 21.3983 10.101 21.2236 10.3744C21.0711 10.6132 20.8343 10.7782 20.5571 10.8393C19.9798 10.9655 19.4181 10.6021 19.2923 10.0311C19.1669 9.46176 19.5267 8.89251 20.1006 8.76628ZM17.4517 9.23442C18.0193 9.10935 18.59 9.46748 18.7167 10.0426C18.8425 10.6141 18.4799 11.1817 17.9086 11.3076C17.3358 11.4332 16.7695 11.0707 16.6435 10.4992C16.5178 9.9277 16.8804 9.36032 17.4517 9.23442ZM14.027 11.3032C13.9012 10.7317 14.2638 10.1641 14.8352 10.0384C15.4173 9.91092 15.9765 10.2855 16.1 10.8466V10.8468C16.1611 11.1239 16.1107 11.4082 15.9584 11.6467C15.4426 12.454 14.2247 12.2005 14.027 11.3032ZM13.1987 12.1198C13.786 11.9897 14.3448 12.3884 14.4635 12.9277C14.5893 13.4993 14.2267 14.0669 13.6553 14.1928C13.0827 14.3182 12.5164 13.9561 12.3905 13.3846C12.2651 12.8151 12.6252 12.2459 13.1987 12.1198ZM11.3894 15.9083C11.3287 15.6326 11.3792 15.3489 11.5317 15.1096C11.8488 14.6122 12.5044 14.4704 12.9977 14.7867C13.2367 14.9397 13.4017 15.1757 13.4624 15.4514V15.4516C13.5882 16.0229 13.23 16.5896 12.6542 16.7165C12.0823 16.8426 11.5153 16.4797 11.3894 15.9083ZM12.165 18.5276C12.0396 17.9581 12.3996 17.389 12.9731 17.2627C13.5398 17.1379 14.111 17.4948 14.238 18.0709V18.0711C14.3643 18.6447 14.0035 19.2094 13.4296 19.3357C12.8548 19.4614 12.2913 19.1008 12.165 18.5276ZM14.015 20.5497C13.889 19.9783 14.2516 19.4109 14.8232 19.285C15.4053 19.1575 15.9645 19.5321 16.088 20.0932V20.0934C16.2146 20.6679 15.8523 21.2321 15.28 21.3582C14.707 21.4834 14.1408 21.1214 14.015 20.5497ZM15.8603 21.8576C16.0131 21.6179 16.2496 21.4523 16.5264 21.3914C17.0896 21.2667 17.6637 21.6213 17.791 22.1994V22.1996C17.9023 22.705 17.6364 23.1951 17.191 23.3949C15.9851 23.7562 15.3762 22.6174 15.8603 21.8576ZM16.6434 24.4064C16.8811 24.0334 17.1904 23.9873 17.3203 23.9391C17.905 23.816 18.4526 24.1965 18.574 24.7482V24.7484C18.6999 25.3197 18.3417 25.8864 17.7659 26.0132C17.1934 26.139 16.627 25.7764 16.501 25.2051C16.4404 24.9294 16.4909 24.6457 16.6434 24.4064ZM18.8419 28.0401L17.9582 30.8758C17.848 31.2218 17.4405 31.3673 17.1397 31.1684L14.8582 29.6656C14.5543 29.4656 14.5324 29.0334 14.8026 28.7992L17.0615 26.8656C17.4298 26.5466 17.977 26.5054 18.3945 26.7802C18.7997 27.0468 18.9978 27.5587 18.8419 28.0401ZM20.6309 27.7538C20.0581 27.8798 19.4918 27.517 19.3659 26.9457C19.2406 26.3763 19.6004 25.8071 20.1743 25.6808C20.7467 25.5541 21.3136 25.9195 21.4389 26.4888V26.489C21.5652 27.0625 21.2044 27.6275 20.6309 27.7538ZM23.2604 27.0982C22.6883 27.2235 22.1215 26.8615 21.9955 26.29C21.8702 25.7206 22.23 25.1514 22.8039 25.0252C23.3709 24.8996 23.942 25.2585 24.0685 25.8331C24.1948 26.4067 23.8342 26.9717 23.2604 27.0982ZM25.6029 25.6485C25.0309 25.7743 24.4638 25.4117 24.338 24.8403C24.2121 24.2688 24.5747 23.7012 25.1462 23.5753C25.7128 23.4504 26.2841 23.8073 26.411 24.3835C26.5368 24.955 26.1742 25.5225 25.6029 25.6485ZM26.4345 23.3103C25.6419 22.8033 25.8583 21.5815 26.7779 21.3789C27.3445 21.254 27.9158 21.6109 28.0428 22.1871C28.2451 23.1063 27.2273 23.8173 26.4345 23.3103ZM29.3674 20.7138C29.0484 21.213 28.3884 21.3484 27.9009 21.0367C27.4154 20.7265 27.258 20.0747 27.5785 19.5716C27.7818 19.2527 28.1229 19.0806 28.4727 19.0806C28.96 19.0806 29.4001 19.4188 29.5091 19.9136C29.5702 20.1909 29.5199 20.4752 29.3674 20.7138ZM29.8586 18.0599C29.5441 18.5523 28.887 18.6994 28.3923 18.3829C27.9079 18.0734 27.7485 17.4219 28.0697 16.9177C28.2706 16.6026 28.6098 16.4265 28.9649 16.4265C29.4414 16.4265 29.8896 16.7567 30.0004 17.2598V17.26C30.0615 17.5371 30.0111 17.8212 29.8586 18.0599Z"/>
</mask>
<path d="M30.3291 18.3606C30.5619 17.9962 30.6388 17.5627 30.5455 17.1399C30.4541 16.7245 30.2063 16.3567 29.8209 16.1167C30.3289 15.7499 30.6003 15.1046 30.4572 14.4548C30.3005 13.7444 29.6957 13.253 29.0065 13.1962C29.2029 12.8577 29.2826 12.4502 29.192 12.0389C29.0018 11.1744 28.1432 10.612 27.2619 10.8057C27.2403 10.8104 27.221 10.8203 27.1998 10.8258C27.2375 10.6172 27.2344 10.4012 27.1873 10.1878C27.0947 9.76668 26.8429 9.40612 26.4788 9.17278C25.8762 8.78676 25.0721 8.82543 24.5046 9.3577C24.229 8.61107 23.4421 8.15803 22.6434 8.33428C22.2601 8.4187 21.9328 8.63948 21.7003 8.95181C21.3159 8.3324 20.6215 8.07974 19.9805 8.22107C19.4943 8.32814 19.0737 8.64553 18.8488 9.15853C18.4703 8.76201 17.904 8.56218 17.3316 8.68921C16.7209 8.82389 16.2734 9.29128 16.1219 9.85748C15.7039 9.4956 15.197 9.3869 14.7152 9.49321C13.8431 9.68512 13.2899 10.5511 13.4818 11.4234C13.4912 11.4661 13.5092 11.5051 13.5218 11.5466C13.3746 11.538 13.2263 11.5422 13.0785 11.5746C12.2073 11.7664 11.6529 12.6302 11.8453 13.5045C11.8929 13.7206 11.983 13.9198 12.1073 14.0947C12.0974 14.0967 12.0874 14.0961 12.0776 14.0983C11.6551 14.1913 11.294 14.4439 11.061 14.8095C10.8284 15.1745 10.7514 15.6072 10.8442 16.0284C10.9771 16.6312 11.4334 17.0765 11.9895 17.2338C11.6251 17.6505 11.5127 18.1617 11.6199 18.6475C11.7878 19.4107 12.4623 19.9199 13.1976 19.9195C13.298 19.9195 13.399 19.9054 13.4996 19.8864C13.4294 20.1348 13.4106 20.4009 13.4699 20.67C13.6363 21.425 14.3366 22.0162 15.2221 21.9228C14.9273 22.8098 15.4282 23.7074 16.2785 23.9714C15.9412 24.396 15.8564 24.8737 15.956 25.3252C16.0606 25.7997 16.3648 26.1793 16.7606 26.3963C16.7399 26.4125 16.7173 26.4252 16.6973 26.4425L14.4382 28.3763C13.8842 28.8568 13.9406 29.7298 14.5512 30.132L16.8326 31.6347C17.4433 32.037 18.2674 31.745 18.4908 31.0435L19.374 28.2093C19.396 28.1414 19.4097 28.0722 19.4226 28.003C19.7973 28.2881 20.2762 28.404 20.7509 28.299C21.2771 28.1833 21.7311 27.8165 21.9294 27.2457C22.3368 27.6238 22.872 27.7554 23.3804 27.6434C24.1284 27.4788 24.6535 26.819 24.6499 26.0574C24.9891 26.228 25.3565 26.2744 25.7231 26.1937C26.595 26.0014 27.1484 25.1355 26.9563 24.2635C26.938 24.1807 26.9084 24.1037 26.8786 24.027C26.992 24.0357 27.121 24.0487 27.3548 23.9973C28.2267 23.805 28.7801 22.9391 28.5881 22.0671C28.5644 21.9596 28.5301 21.8572 28.4872 21.7602C29.5405 21.7481 30.2707 20.7758 30.0544 19.7937C29.9832 19.4704 29.8185 19.1917 29.5961 18.9777C29.8956 18.8515 30.1506 18.6399 30.3291 18.3606ZM27.8381 18.6533C27.5399 18.7799 27.286 18.9919 27.1078 19.2715C26.8035 19.7489 26.7803 20.3167 26.9908 20.7964C26.8808 20.7975 26.7695 20.8092 26.6578 20.8337C25.722 21.04 25.126 22.0377 25.5029 23.0051C25.3465 22.9925 25.1872 22.9947 25.0261 23.0301C24.2673 23.1974 23.7513 23.8747 23.756 24.622C23.424 24.4543 23.0503 24.399 22.6837 24.4799C22.163 24.5946 21.7058 24.959 21.5056 25.5349C21.0927 25.1514 20.556 25.0259 20.0541 25.1355C19.4346 25.2719 18.9451 25.7559 18.816 26.4032C18.778 26.3731 18.7422 26.3404 18.7016 26.3137C18.6534 26.282 18.602 26.258 18.5515 26.2318C19.0682 25.8141 19.2446 25.1967 19.1193 24.6281C19.001 24.0907 18.6198 23.6241 18.0131 23.4357C18.3489 23.015 18.4371 22.5371 18.3362 22.0794C18.2435 21.6581 17.9918 21.2977 17.6274 21.0644C17.3137 20.8634 16.9494 20.7858 16.5855 20.8246C16.6752 20.5522 16.6966 20.261 16.6331 19.9731C16.451 19.1458 15.6441 18.5671 14.7549 18.7335C14.8257 18.4807 14.8413 18.2146 14.7831 17.9508C14.6503 17.3484 14.193 16.9049 13.6376 16.7473C14.0062 16.328 14.1139 15.814 14.0075 15.3314C13.96 15.1154 13.8694 14.9163 13.7445 14.7412C13.7548 14.7391 13.7651 14.7401 13.7754 14.7378C14.657 14.5434 15.257 13.6386 14.9699 12.6886C15.5875 12.7233 16.1241 12.4236 16.4287 11.9472C16.5198 11.8046 16.5796 11.6497 16.6221 11.4907C17.0048 11.8217 17.515 11.9653 18.0287 11.8527C18.5534 11.737 18.9588 11.3752 19.1597 10.9171C19.5805 11.3577 20.1498 11.5006 20.677 11.3844C21.0607 11.3 21.3884 11.0795 21.6207 10.7682C21.9964 11.3742 22.6823 11.6426 23.3401 11.4976C23.6331 11.4331 23.8856 11.2879 24.0904 11.0965C24.3671 11.845 25.157 12.2941 25.954 12.1178C25.9759 12.113 25.9956 12.103 26.0171 12.0974C25.9789 12.3063 25.9817 12.5223 26.0286 12.7356C26.1786 13.4174 26.7481 13.9393 27.4772 13.9983C27.2749 14.3493 27.2062 14.7545 27.2938 15.1513C27.3868 15.5742 27.6389 15.9355 28.0031 16.1683C28.0077 16.1712 28.0127 16.1731 28.0173 16.176C27.8537 16.2943 27.7108 16.4421 27.5989 16.6177C27.1682 17.2935 27.3062 18.141 27.8381 18.6533ZM29.9121 14.5747C30.0382 15.1476 29.6788 15.713 29.1037 15.8396C28.5355 15.964 27.9667 15.6106 27.8391 15.0314C27.7137 14.4619 28.0737 13.8928 28.6473 13.7666C29.2138 13.6417 29.7851 13.9986 29.9121 14.5747ZM27.382 11.3508C27.9446 11.2262 28.5195 11.5803 28.6468 12.1588C28.7726 12.7304 28.41 13.2979 27.8387 13.4238C27.2666 13.5494 26.6997 13.1872 26.5738 12.6157C26.4485 12.0462 26.8085 11.4771 27.382 11.3508ZM26.1775 9.64293C26.4165 9.79593 26.5815 10.032 26.6422 10.3077V10.3079C26.7685 10.8814 26.4077 11.4464 25.8342 11.5727C25.2616 11.6989 24.6951 11.3359 24.5692 10.7646C24.3649 9.8362 25.3899 9.13795 26.1775 9.64293ZM22.7633 8.87948C23.3309 8.75442 23.9016 9.11249 24.0283 9.68746C24.1541 10.2592 23.7915 10.8267 23.2202 10.9525C22.5935 11.0897 21.9657 10.6419 21.9339 9.96478C21.9411 9.89179 21.9483 9.81909 21.9454 9.74526C22.0155 9.31959 22.3338 8.97407 22.7633 8.87948ZM20.1006 8.76628C20.7178 8.62964 21.3549 9.06862 21.3871 9.7559C21.3712 9.91518 21.3983 10.101 21.2236 10.3744C21.0711 10.6132 20.8343 10.7782 20.5571 10.8393C19.9798 10.9655 19.4181 10.6021 19.2923 10.0311C19.1669 9.46176 19.5267 8.89251 20.1006 8.76628ZM17.4517 9.23442C18.0193 9.10935 18.59 9.46748 18.7167 10.0426C18.8425 10.6141 18.4799 11.1817 17.9086 11.3076C17.3358 11.4332 16.7695 11.0707 16.6435 10.4992C16.5178 9.9277 16.8804 9.36032 17.4517 9.23442ZM14.027 11.3032C13.9012 10.7317 14.2638 10.1641 14.8352 10.0384C15.4173 9.91092 15.9765 10.2855 16.1 10.8466V10.8468C16.1611 11.1239 16.1107 11.4082 15.9584 11.6467C15.4426 12.454 14.2247 12.2005 14.027 11.3032ZM13.1987 12.1198C13.786 11.9897 14.3448 12.3884 14.4635 12.9277C14.5893 13.4993 14.2267 14.0669 13.6553 14.1928C13.0827 14.3182 12.5164 13.9561 12.3905 13.3846C12.2651 12.8151 12.6252 12.2459 13.1987 12.1198ZM11.3894 15.9083C11.3287 15.6326 11.3792 15.3489 11.5317 15.1096C11.8488 14.6122 12.5044 14.4704 12.9977 14.7867C13.2367 14.9397 13.4017 15.1757 13.4624 15.4514V15.4516C13.5882 16.0229 13.23 16.5896 12.6542 16.7165C12.0823 16.8426 11.5153 16.4797 11.3894 15.9083ZM12.165 18.5276C12.0396 17.9581 12.3996 17.389 12.9731 17.2627C13.5398 17.1379 14.111 17.4948 14.238 18.0709V18.0711C14.3643 18.6447 14.0035 19.2094 13.4296 19.3357C12.8548 19.4614 12.2913 19.1008 12.165 18.5276ZM14.015 20.5497C13.889 19.9783 14.2516 19.4109 14.8232 19.285C15.4053 19.1575 15.9645 19.5321 16.088 20.0932V20.0934C16.2146 20.6679 15.8523 21.2321 15.28 21.3582C14.707 21.4834 14.1408 21.1214 14.015 20.5497ZM15.8603 21.8576C16.0131 21.6179 16.2496 21.4523 16.5264 21.3914C17.0896 21.2667 17.6637 21.6213 17.791 22.1994V22.1996C17.9023 22.705 17.6364 23.1951 17.191 23.3949C15.9851 23.7562 15.3762 22.6174 15.8603 21.8576ZM16.6434 24.4064C16.8811 24.0334 17.1904 23.9873 17.3203 23.9391C17.905 23.816 18.4526 24.1965 18.574 24.7482V24.7484C18.6999 25.3197 18.3417 25.8864 17.7659 26.0132C17.1934 26.139 16.627 25.7764 16.501 25.2051C16.4404 24.9294 16.4909 24.6457 16.6434 24.4064ZM18.8419 28.0401L17.9582 30.8758C17.848 31.2218 17.4405 31.3673 17.1397 31.1684L14.8582 29.6656C14.5543 29.4656 14.5324 29.0334 14.8026 28.7992L17.0615 26.8656C17.4298 26.5466 17.977 26.5054 18.3945 26.7802C18.7997 27.0468 18.9978 27.5587 18.8419 28.0401ZM20.6309 27.7538C20.0581 27.8798 19.4918 27.517 19.3659 26.9457C19.2406 26.3763 19.6004 25.8071 20.1743 25.6808C20.7467 25.5541 21.3136 25.9195 21.4389 26.4888V26.489C21.5652 27.0625 21.2044 27.6275 20.6309 27.7538ZM23.2604 27.0982C22.6883 27.2235 22.1215 26.8615 21.9955 26.29C21.8702 25.7206 22.23 25.1514 22.8039 25.0252C23.3709 24.8996 23.942 25.2585 24.0685 25.8331C24.1948 26.4067 23.8342 26.9717 23.2604 27.0982ZM25.6029 25.6485C25.0309 25.7743 24.4638 25.4117 24.338 24.8403C24.2121 24.2688 24.5747 23.7012 25.1462 23.5753C25.7128 23.4504 26.2841 23.8073 26.411 24.3835C26.5368 24.955 26.1742 25.5225 25.6029 25.6485ZM26.4345 23.3103C25.6419 22.8033 25.8583 21.5815 26.7779 21.3789C27.3445 21.254 27.9158 21.6109 28.0428 22.1871C28.2451 23.1063 27.2273 23.8173 26.4345 23.3103ZM29.3674 20.7138C29.0484 21.213 28.3884 21.3484 27.9009 21.0367C27.4154 20.7265 27.258 20.0747 27.5785 19.5716C27.7818 19.2527 28.1229 19.0806 28.4727 19.0806C28.96 19.0806 29.4001 19.4188 29.5091 19.9136C29.5702 20.1909 29.5199 20.4752 29.3674 20.7138ZM29.8586 18.0599C29.5441 18.5523 28.887 18.6994 28.3923 18.3829C27.9079 18.0734 27.7485 17.4219 28.0697 16.9177C28.2706 16.6026 28.6098 16.4265 28.9649 16.4265C29.4414 16.4265 29.8896 16.7567 30.0004 17.2598V17.26C30.0615 17.5371 30.0111 17.8212 29.8586 18.0599Z" fill="#062437"/>
<path d="M30.3291 18.3606C30.5619 17.9962 30.6388 17.5627 30.5455 17.1399C30.4541 16.7245 30.2063 16.3567 29.8209 16.1167C30.3289 15.7499 30.6003 15.1046 30.4572 14.4548C30.3005 13.7444 29.6957 13.253 29.0065 13.1962C29.2029 12.8577 29.2826 12.4502 29.192 12.0389C29.0018 11.1744 28.1432 10.612 27.2619 10.8057C27.2403 10.8104 27.221 10.8203 27.1998 10.8258C27.2375 10.6172 27.2344 10.4012 27.1873 10.1878C27.0947 9.76668 26.8429 9.40612 26.4788 9.17278C25.8762 8.78676 25.0721 8.82543 24.5046 9.3577C24.229 8.61107 23.4421 8.15803 22.6434 8.33428C22.2601 8.4187 21.9328 8.63948 21.7003 8.95181C21.3159 8.3324 20.6215 8.07974 19.9805 8.22107C19.4943 8.32814 19.0737 8.64553 18.8488 9.15853C18.4703 8.76201 17.904 8.56218 17.3316 8.68921C16.7209 8.82389 16.2734 9.29128 16.1219 9.85748C15.7039 9.4956 15.197 9.3869 14.7152 9.49321C13.8431 9.68512 13.2899 10.5511 13.4818 11.4234C13.4912 11.4661 13.5092 11.5051 13.5218 11.5466C13.3746 11.538 13.2263 11.5422 13.0785 11.5746C12.2073 11.7664 11.6529 12.6302 11.8453 13.5045C11.8929 13.7206 11.983 13.9198 12.1073 14.0947C12.0974 14.0967 12.0874 14.0961 12.0776 14.0983C11.6551 14.1913 11.294 14.4439 11.061 14.8095C10.8284 15.1745 10.7514 15.6072 10.8442 16.0284C10.9771 16.6312 11.4334 17.0765 11.9895 17.2338C11.6251 17.6505 11.5127 18.1617 11.6199 18.6475C11.7878 19.4107 12.4623 19.9199 13.1976 19.9195C13.298 19.9195 13.399 19.9054 13.4996 19.8864C13.4294 20.1348 13.4106 20.4009 13.4699 20.67C13.6363 21.425 14.3366 22.0162 15.2221 21.9228C14.9273 22.8098 15.4282 23.7074 16.2785 23.9714C15.9412 24.396 15.8564 24.8737 15.956 25.3252C16.0606 25.7997 16.3648 26.1793 16.7606 26.3963C16.7399 26.4125 16.7173 26.4252 16.6973 26.4425L14.4382 28.3763C13.8842 28.8568 13.9406 29.7298 14.5512 30.132L16.8326 31.6347C17.4433 32.037 18.2674 31.745 18.4908 31.0435L19.374 28.2093C19.396 28.1414 19.4097 28.0722 19.4226 28.003C19.7973 28.2881 20.2762 28.404 20.7509 28.299C21.2771 28.1833 21.7311 27.8165 21.9294 27.2457C22.3368 27.6238 22.872 27.7554 23.3804 27.6434C24.1284 27.4788 24.6535 26.819 24.6499 26.0574C24.9891 26.228 25.3565 26.2744 25.7231 26.1937C26.595 26.0014 27.1484 25.1355 26.9563 24.2635C26.938 24.1807 26.9084 24.1037 26.8786 24.027C26.992 24.0357 27.121 24.0487 27.3548 23.9973C28.2267 23.805 28.7801 22.9391 28.5881 22.0671C28.5644 21.9596 28.5301 21.8572 28.4872 21.7602C29.5405 21.7481 30.2707 20.7758 30.0544 19.7937C29.9832 19.4704 29.8185 19.1917 29.5961 18.9777C29.8956 18.8515 30.1506 18.6399 30.3291 18.3606ZM27.8381 18.6533C27.5399 18.7799 27.286 18.9919 27.1078 19.2715C26.8035 19.7489 26.7803 20.3167 26.9908 20.7964C26.8808 20.7975 26.7695 20.8092 26.6578 20.8337C25.722 21.04 25.126 22.0377 25.5029 23.0051C25.3465 22.9925 25.1872 22.9947 25.0261 23.0301C24.2673 23.1974 23.7513 23.8747 23.756 24.622C23.424 24.4543 23.0503 24.399 22.6837 24.4799C22.163 24.5946 21.7058 24.959 21.5056 25.5349C21.0927 25.1514 20.556 25.0259 20.0541 25.1355C19.4346 25.2719 18.9451 25.7559 18.816 26.4032C18.778 26.3731 18.7422 26.3404 18.7016 26.3137C18.6534 26.282 18.602 26.258 18.5515 26.2318C19.0682 25.8141 19.2446 25.1967 19.1193 24.6281C19.001 24.0907 18.6198 23.6241 18.0131 23.4357C18.3489 23.015 18.4371 22.5371 18.3362 22.0794C18.2435 21.6581 17.9918 21.2977 17.6274 21.0644C17.3137 20.8634 16.9494 20.7858 16.5855 20.8246C16.6752 20.5522 16.6966 20.261 16.6331 19.9731C16.451 19.1458 15.6441 18.5671 14.7549 18.7335C14.8257 18.4807 14.8413 18.2146 14.7831 17.9508C14.6503 17.3484 14.193 16.9049 13.6376 16.7473C14.0062 16.328 14.1139 15.814 14.0075 15.3314C13.96 15.1154 13.8694 14.9163 13.7445 14.7412C13.7548 14.7391 13.7651 14.7401 13.7754 14.7378C14.657 14.5434 15.257 13.6386 14.9699 12.6886C15.5875 12.7233 16.1241 12.4236 16.4287 11.9472C16.5198 11.8046 16.5796 11.6497 16.6221 11.4907C17.0048 11.8217 17.515 11.9653 18.0287 11.8527C18.5534 11.737 18.9588 11.3752 19.1597 10.9171C19.5805 11.3577 20.1498 11.5006 20.677 11.3844C21.0607 11.3 21.3884 11.0795 21.6207 10.7682C21.9964 11.3742 22.6823 11.6426 23.3401 11.4976C23.6331 11.4331 23.8856 11.2879 24.0904 11.0965C24.3671 11.845 25.157 12.2941 25.954 12.1178C25.9759 12.113 25.9956 12.103 26.0171 12.0974C25.9789 12.3063 25.9817 12.5223 26.0286 12.7356C26.1786 13.4174 26.7481 13.9393 27.4772 13.9983C27.2749 14.3493 27.2062 14.7545 27.2938 15.1513C27.3868 15.5742 27.6389 15.9355 28.0031 16.1683C28.0077 16.1712 28.0127 16.1731 28.0173 16.176C27.8537 16.2943 27.7108 16.4421 27.5989 16.6177C27.1682 17.2935 27.3062 18.141 27.8381 18.6533ZM29.9121 14.5747C30.0382 15.1476 29.6788 15.713 29.1037 15.8396C28.5355 15.964 27.9667 15.6106 27.8391 15.0314C27.7137 14.4619 28.0737 13.8928 28.6473 13.7666C29.2138 13.6417 29.7851 13.9986 29.9121 14.5747ZM27.382 11.3508C27.9446 11.2262 28.5195 11.5803 28.6468 12.1588C28.7726 12.7304 28.41 13.2979 27.8387 13.4238C27.2666 13.5494 26.6997 13.1872 26.5738 12.6157C26.4485 12.0462 26.8085 11.4771 27.382 11.3508ZM26.1775 9.64293C26.4165 9.79593 26.5815 10.032 26.6422 10.3077V10.3079C26.7685 10.8814 26.4077 11.4464 25.8342 11.5727C25.2616 11.6989 24.6951 11.3359 24.5692 10.7646C24.3649 9.8362 25.3899 9.13795 26.1775 9.64293ZM22.7633 8.87948C23.3309 8.75442 23.9016 9.11249 24.0283 9.68746C24.1541 10.2592 23.7915 10.8267 23.2202 10.9525C22.5935 11.0897 21.9657 10.6419 21.9339 9.96478C21.9411 9.89179 21.9483 9.81909 21.9454 9.74526C22.0155 9.31959 22.3338 8.97407 22.7633 8.87948ZM20.1006 8.76628C20.7178 8.62964 21.3549 9.06862 21.3871 9.7559C21.3712 9.91518 21.3983 10.101 21.2236 10.3744C21.0711 10.6132 20.8343 10.7782 20.5571 10.8393C19.9798 10.9655 19.4181 10.6021 19.2923 10.0311C19.1669 9.46176 19.5267 8.89251 20.1006 8.76628ZM17.4517 9.23442C18.0193 9.10935 18.59 9.46748 18.7167 10.0426C18.8425 10.6141 18.4799 11.1817 17.9086 11.3076C17.3358 11.4332 16.7695 11.0707 16.6435 10.4992C16.5178 9.9277 16.8804 9.36032 17.4517 9.23442ZM14.027 11.3032C13.9012 10.7317 14.2638 10.1641 14.8352 10.0384C15.4173 9.91092 15.9765 10.2855 16.1 10.8466V10.8468C16.1611 11.1239 16.1107 11.4082 15.9584 11.6467C15.4426 12.454 14.2247 12.2005 14.027 11.3032ZM13.1987 12.1198C13.786 11.9897 14.3448 12.3884 14.4635 12.9277C14.5893 13.4993 14.2267 14.0669 13.6553 14.1928C13.0827 14.3182 12.5164 13.9561 12.3905 13.3846C12.2651 12.8151 12.6252 12.2459 13.1987 12.1198ZM11.3894 15.9083C11.3287 15.6326 11.3792 15.3489 11.5317 15.1096C11.8488 14.6122 12.5044 14.4704 12.9977 14.7867C13.2367 14.9397 13.4017 15.1757 13.4624 15.4514V15.4516C13.5882 16.0229 13.23 16.5896 12.6542 16.7165C12.0823 16.8426 11.5153 16.4797 11.3894 15.9083ZM12.165 18.5276C12.0396 17.9581 12.3996 17.389 12.9731 17.2627C13.5398 17.1379 14.111 17.4948 14.238 18.0709V18.0711C14.3643 18.6447 14.0035 19.2094 13.4296 19.3357C12.8548 19.4614 12.2913 19.1008 12.165 18.5276ZM14.015 20.5497C13.889 19.9783 14.2516 19.4109 14.8232 19.285C15.4053 19.1575 15.9645 19.5321 16.088 20.0932V20.0934C16.2146 20.6679 15.8523 21.2321 15.28 21.3582C14.707 21.4834 14.1408 21.1214 14.015 20.5497ZM15.8603 21.8576C16.0131 21.6179 16.2496 21.4523 16.5264 21.3914C17.0896 21.2667 17.6637 21.6213 17.791 22.1994V22.1996C17.9023 22.705 17.6364 23.1951 17.191 23.3949C15.9851 23.7562 15.3762 22.6174 15.8603 21.8576ZM16.6434 24.4064C16.8811 24.0334 17.1904 23.9873 17.3203 23.9391C17.905 23.816 18.4526 24.1965 18.574 24.7482V24.7484C18.6999 25.3197 18.3417 25.8864 17.7659 26.0132C17.1934 26.139 16.627 25.7764 16.501 25.2051C16.4404 24.9294 16.4909 24.6457 16.6434 24.4064ZM18.8419 28.0401L17.9582 30.8758C17.848 31.2218 17.4405 31.3673 17.1397 31.1684L14.8582 29.6656C14.5543 29.4656 14.5324 29.0334 14.8026 28.7992L17.0615 26.8656C17.4298 26.5466 17.977 26.5054 18.3945 26.7802C18.7997 27.0468 18.9978 27.5587 18.8419 28.0401ZM20.6309 27.7538C20.0581 27.8798 19.4918 27.517 19.3659 26.9457C19.2406 26.3763 19.6004 25.8071 20.1743 25.6808C20.7467 25.5541 21.3136 25.9195 21.4389 26.4888V26.489C21.5652 27.0625 21.2044 27.6275 20.6309 27.7538ZM23.2604 27.0982C22.6883 27.2235 22.1215 26.8615 21.9955 26.29C21.8702 25.7206 22.23 25.1514 22.8039 25.0252C23.3709 24.8996 23.942 25.2585 24.0685 25.8331C24.1948 26.4067 23.8342 26.9717 23.2604 27.0982ZM25.6029 25.6485C25.0309 25.7743 24.4638 25.4117 24.338 24.8403C24.2121 24.2688 24.5747 23.7012 25.1462 23.5753C25.7128 23.4504 26.2841 23.8073 26.411 24.3835C26.5368 24.955 26.1742 25.5225 25.6029 25.6485ZM26.4345 23.3103C25.6419 22.8033 25.8583 21.5815 26.7779 21.3789C27.3445 21.254 27.9158 21.6109 28.0428 22.1871C28.2451 23.1063 27.2273 23.8173 26.4345 23.3103ZM29.3674 20.7138C29.0484 21.213 28.3884 21.3484 27.9009 21.0367C27.4154 20.7265 27.258 20.0747 27.5785 19.5716C27.7818 19.2527 28.1229 19.0806 28.4727 19.0806C28.96 19.0806 29.4001 19.4188 29.5091 19.9136C29.5702 20.1909 29.5199 20.4752 29.3674 20.7138ZM29.8586 18.0599C29.5441 18.5523 28.887 18.6994 28.3923 18.3829C27.9079 18.0734 27.7485 17.4219 28.0697 16.9177C28.2706 16.6026 28.6098 16.4265 28.9649 16.4265C29.4414 16.4265 29.8896 16.7567 30.0004 17.2598V17.26C30.0615 17.5371 30.0111 17.8212 29.8586 18.0599Z" stroke="#062437" stroke-width="0.2" mask="url(#path-2-outside-1_1_2131)"/>
</svg>
