<svg width="41" height="40" viewBox="0 0 41 40" fill="none" xmlns="http://www.w3.org/2000/svg">
<rect x="0.377533" width="40" height="40" rx="20" fill="#F1E3C4"/>
<path d="M29.7525 17.4583H15.2998C15.2966 17.4516 15.2931 17.4451 15.2899 17.4384L30.1985 13.5673C30.2479 13.5544 30.2942 13.5316 30.3345 13.5002C30.3748 13.4688 30.4083 13.4295 30.4328 13.3848C30.9914 12.367 30.8781 10.5737 30.1851 9.46877C29.7183 8.72402 29.017 8.33655 28.2099 8.37808C28.1831 8.37948 28.1564 8.38376 28.1305 8.39083L9.87833 13.3699C9.80283 13.3905 9.73567 13.4342 9.68625 13.4949C9.63683 13.5556 9.60764 13.6302 9.60275 13.7083L9.45885 16.0109C9.45847 16.0172 9.45885 16.0233 9.45861 16.0297C9.45667 16.0449 9.45566 16.0602 9.45557 16.0755V30.0781C9.45604 30.4882 9.61916 30.8814 9.90916 31.1714C10.1991 31.4614 10.5923 31.6245 11.0024 31.625H29.7525C30.1626 31.6245 30.5558 31.4614 30.8458 31.1714C31.1358 30.8814 31.2989 30.4882 31.2994 30.0781V19.0052C31.299 18.5951 31.1358 18.2019 30.8458 17.9119C30.5558 17.6219 30.1627 17.4588 29.7525 17.4583ZM13.7227 15.9471L14.5704 12.8674L17.8849 11.9632L17.0609 16.2038L14.8547 16.7765C14.5456 16.4174 14.1584 16.1337 13.7227 15.9471ZM22.0084 10.8383L21.4416 15.0664L17.8656 15.9949L18.6918 11.7434L22.0084 10.8383ZM26.3144 9.66363L25.7397 13.9502L22.2255 14.8625L22.7938 10.6241L26.3144 9.66363ZM28.2867 9.1256C28.8091 9.11126 29.2324 9.36087 29.5499 9.86721C30.1012 10.7464 30.1499 12.1453 29.8418 12.885L26.5236 13.7469L27.0998 9.44937L28.2867 9.1256ZM13.7294 13.0968L13.0022 15.7387C12.8447 15.7134 12.6854 15.7006 12.5259 15.7004H10.2298L10.3346 14.0228L13.7294 13.0968ZM30.5494 30.0781C30.5492 30.2894 30.4651 30.4919 30.3158 30.6413C30.1664 30.7907 29.9638 30.8748 29.7525 30.875H11.0025C10.7913 30.8748 10.5887 30.7907 10.4393 30.6413C10.2899 30.4919 10.2059 30.2894 10.2057 30.0781V16.4504H12.526C12.9992 16.4527 13.4606 16.5987 13.849 16.8691C14.2374 17.1395 14.5345 17.5215 14.701 17.9645C14.7277 18.0361 14.7757 18.0978 14.8385 18.1413C14.9012 18.1849 14.9758 18.2082 15.0522 18.2082H29.7525C29.9638 18.2085 30.1664 18.2925 30.3158 18.4419C30.4651 18.5913 30.5492 18.7938 30.5494 19.0051V30.0781ZM23.2068 23.8376L19.1413 21.4906C19.0063 21.4127 18.8532 21.3717 18.6974 21.3717C18.5416 21.3717 18.3885 21.4127 18.2535 21.4906C18.1186 21.5685 18.0065 21.6806 17.9286 21.8155C17.8507 21.9505 17.8096 22.1035 17.8096 22.2594V26.9537C17.8091 27.1098 17.8498 27.2632 17.9276 27.3984C18.0053 27.5337 18.1175 27.646 18.2526 27.7241C18.3878 27.8021 18.5411 27.843 18.6972 27.8427C18.8532 27.8424 19.0064 27.801 19.1413 27.7225L23.2068 25.3752C23.3417 25.2973 23.4537 25.1852 23.5316 25.0503C23.6095 24.9154 23.6505 24.7623 23.6505 24.6065C23.6505 24.4507 23.6095 24.2976 23.5316 24.1627C23.4537 24.0277 23.3417 23.9157 23.2068 23.8377V23.8376ZM18.7663 27.073C18.7453 27.0851 18.7216 27.0915 18.6974 27.0914C18.6732 27.0914 18.6495 27.0851 18.6285 27.073C18.6076 27.0609 18.5902 27.0435 18.5781 27.0226C18.566 27.0016 18.5596 26.9779 18.5596 26.9537V22.2594C18.5584 22.235 18.5642 22.2107 18.5764 22.1895C18.5887 22.1683 18.6068 22.1512 18.6285 22.1401C18.649 22.1268 18.673 22.1197 18.6974 22.1197C18.7218 22.1197 18.7458 22.1268 18.7663 22.1401L22.8318 24.4873C22.8527 24.4994 22.8701 24.5168 22.8822 24.5377C22.8943 24.5587 22.9006 24.5824 22.9006 24.6066C22.9006 24.6308 22.8943 24.6545 22.8822 24.6755C22.8701 24.6964 22.8527 24.7138 22.8318 24.7259L18.7663 27.073ZM12.4467 17.0838C12.15 17.0838 11.86 17.1717 11.6134 17.3366C11.3667 17.5014 11.1744 17.7356 11.0609 18.0097C10.9474 18.2838 10.9177 18.5854 10.9755 18.8764C11.0334 19.1674 11.1763 19.4346 11.386 19.6444C11.5958 19.8542 11.8631 19.9971 12.1541 20.0549C12.445 20.1128 12.7466 20.0831 13.0207 19.9696C13.2948 19.856 13.5291 19.6638 13.6939 19.4171C13.8587 19.1704 13.9467 18.8804 13.9467 18.5838C13.9462 18.1861 13.7881 17.8048 13.5069 17.5236C13.2257 17.2424 12.8444 17.0842 12.4467 17.0838ZM12.4467 19.3338C12.2984 19.3338 12.1534 19.2898 12.03 19.2074C11.9067 19.1249 11.8106 19.0078 11.7538 18.8708C11.697 18.7337 11.6822 18.5829 11.7111 18.4374C11.7401 18.292 11.8115 18.1583 11.9164 18.0534C12.0213 17.9485 12.1549 17.8771 12.3004 17.8482C12.4459 17.8192 12.5967 17.8341 12.7337 17.8908C12.8708 17.9476 12.9879 18.0437 13.0703 18.1671C13.1527 18.2904 13.1967 18.4354 13.1967 18.5838C13.1965 18.7826 13.1174 18.9733 12.9768 19.1139C12.8362 19.2545 12.6456 19.3335 12.4467 19.3338Z" fill="#062437"/>
</svg>
